<?xml version="1.0" encoding="UTF-8" standalone="no"?>
<!-- Created with Inkscape (http://www.inkscape.org/) -->

<svg width="210mm" height="297mm" viewBox="0 0 210 297" version="1.1" id="svg1" inkscape:version="1.3 (0e150ed6c4, 2023-07-21)" sodipodi:docname="финансовая задача.svg" xmlns:inkscape="http://www.inkscape.org/namespaces/inkscape" xmlns:sodipodi="http://sodipodi.sourceforge.net/DTD/sodipodi-0.dtd" xmlns="http://www.w3.org/2000/svg" xmlns:svg="http://www.w3.org/2000/svg">
  <sodipodi:namedview id="namedview1" pagecolor="#ffffff" bordercolor="#666666" borderopacity="1.0" inkscape:showpageshadow="2" inkscape:pageopacity="0.0" inkscape:pagecheckerboard="0" inkscape:deskcolor="#d1d1d1" inkscape:document-units="mm" inkscape:zoom="2.3304714" inkscape:cx="186.22842" inkscape:cy="229.13819" inkscape:current-layer="layer1" />
  <defs id="defs1" />
  <g inkscape:label="Layer 1" inkscape:groupmode="layer" id="layer1">
    <rect style="fill:#76807f;fill-opacity:1;stroke:none;stroke-width:1.15236;stroke-linecap:square;paint-order:stroke markers fill" id="rect31" width="79.589973" height="105.362" x="22.36186" y="0" inkscape:export-filename="финзад.png" inkscape:export-xdpi="449" inkscape:export-ydpi="449" />
    <rect style="fill:#677574;fill-opacity:1;stroke:none;stroke-width:1.161;stroke-linecap:square;paint-order:stroke markers fill" id="rect30" width="87.64679" height="16.30378" x="18.165138" y="92.542755" />
    <rect style="fill:#677574;fill-opacity:1;stroke:none;stroke-width:0.612755;stroke-linecap:square;paint-order:stroke markers fill" id="rect30-9" width="19.747561" height="20.156719" x="24.800631" y="2.8144314" />
    <rect style="fill:#677574;fill-opacity:1;stroke:none;stroke-width:0.612755;stroke-linecap:square;paint-order:stroke markers fill" id="rect30-9-8" width="19.747561" height="20.156719" x="50.156242" y="2.8144317" />
    <rect style="fill:#677574;fill-opacity:1;stroke:none;stroke-width:0.612755;stroke-linecap:square;paint-order:stroke markers fill" id="rect30-9-2" width="19.747561" height="20.156719" x="53.452408" y="28.408346" />
    <rect style="fill:#677574;fill-opacity:1;stroke:none;stroke-width:0.612755;stroke-linecap:square;paint-order:stroke markers fill" id="rect30-9-8-5" width="19.747561" height="20.156719" x="78.808022" y="28.408346" />
    <rect style="fill:#677574;fill-opacity:1;stroke:none;stroke-width:0.612755;stroke-linecap:square;paint-order:stroke markers fill" id="rect30-9-89" width="19.747561" height="20.156719" x="24.870832" y="48.418751" />
    <rect style="fill:#677574;fill-opacity:1;stroke:none;stroke-width:0.612755;stroke-linecap:square;paint-order:stroke markers fill" id="rect30-9-8-4" width="19.747561" height="20.156719" x="50.226444" y="48.418751" />
    <rect style="fill:#677574;fill-opacity:1;stroke:none;stroke-width:0.612755;stroke-linecap:square;paint-order:stroke markers fill" id="rect30-9-86" width="19.747561" height="20.156719" x="53.524132" y="68.576904" />
    <rect style="fill:#677574;fill-opacity:1;stroke:none;stroke-width:0.612755;stroke-linecap:square;paint-order:stroke markers fill" id="rect30-9-8-9" width="19.747561" height="20.156719" x="78.879738" y="68.576904" />
    <path id="rect28" style="fill:#fdc28d;stroke-width:1.161;stroke-linecap:square;paint-order:stroke markers fill" d="m 87.972578,90.904211 1.735737,-2.526089 1.599182,3.396586 1.301547,-2.994782 1.435466,2.747846 -1.870174,2.303773 1.11024,2.142385 h -3.893547 z" sodipodi:nodetypes="ccccccccc" />
    <path id="rect19-1" style="fill:#344148;stroke-width:1.161;stroke-linecap:square;paint-order:stroke markers fill" d="m 85.633217,53.497297 -4.860116,9.187473 2.872086,15.538854 2.544278,2.305498 z" sodipodi:nodetypes="ccccc" />
    <path id="rect26" style="fill:#fdc28d;stroke-width:1.161;stroke-linecap:square;paint-order:stroke markers fill" d="m 31.468313,63.075441 5.054816,-6.779376 -0.620921,-3.210322 2.805278,0.795131 0.120397,2.665049 -0.374087,1.917494 1.043631,8.048003 -2.508729,1.284469 z" sodipodi:nodetypes="ccccccccc" />
    <path id="path22" style="fill:#d8dddf;fill-opacity:1;stroke-width:0.862335;stroke-linecap:square;paint-order:stroke markers fill" d="m 41.177945,90.01912 c 0.09172,1.25483 -2.507175,2.725646 -5.204388,2.922786 -2.697214,0.19714 -16.874122,-6.792235 -9.921977,-10.347612 7.893294,-4.036688 9.814344,3.841952 11.241658,4.989892 2.107397,1.694907 3.792992,1.180104 3.884707,2.434934 z" sodipodi:nodetypes="sssss" />
    <path id="path22-6-0-3-1" style="fill:#7d7d7d;fill-opacity:1;stroke-width:0.589724;stroke-linecap:square;paint-order:stroke markers fill" d="m 37.415309,91.649001 c -0.381963,0.771 -2.405409,0.763223 -4.194579,0.294845 -2.060007,-0.539279 -10.422678,-3.110598 -6.031352,-7.494319 5.208393,-5.19937 7.556348,2.063536 8.355187,4.297404 0.622754,1.741461 2.252706,2.131069 1.870744,2.90207 z" sodipodi:nodetypes="sssss" />
    <path id="path22-5" style="fill:#d8dddf;fill-opacity:1;stroke-width:0.862335;stroke-linecap:square;paint-order:stroke markers fill" d="m 36.922702,90.373174 c 0.09172,1.25483 2.876848,2.332127 5.574061,2.134987 2.697214,-0.19714 10.605385,-2.53498 7.85046,-6.268653 -5.263771,-7.133838 -8.689917,-0.183517 -9.935147,1.159759 -1.838555,1.983317 -3.58109,1.719076 -3.489374,2.973907 z" sodipodi:nodetypes="sssss" />
    <path id="path22-6-0-3-1-6" style="fill:#7d7d7d;fill-opacity:1;stroke-width:0.492546;stroke-linecap:square;paint-order:stroke markers fill" d="m 40.257943,91.947853 c 0.319021,0.64395 2.009032,0.637454 3.503373,0.246258 1.720547,-0.450413 8.70517,-2.598016 5.037471,-6.259362 -4.350124,-4.342589 -6.31117,1.723495 -6.978372,3.589253 -0.520133,1.454493 -1.881492,1.7799 -1.562472,2.423851 z" sodipodi:nodetypes="sssss" />
    <path id="path22-6" style="fill:#e9e9e9;fill-opacity:1;stroke-width:0.862335;stroke-linecap:square;paint-order:stroke markers fill" d="m 40.865786,91.635326 c 0.09172,1.254831 -2.462565,2.748289 -5.063963,3.487581 -2.995188,0.851203 -15.438124,3.825445 -13.164061,-4.958179 2.697185,-10.417938 12.133913,-3.295734 14.799622,-1.075684 2.078111,1.730689 3.336687,1.291451 3.428402,2.546282 z" sodipodi:nodetypes="sssss" />
    <path id="rect19" style="fill:#344148;stroke-width:1.161;stroke-linecap:square;paint-order:stroke markers fill" d="m 45.296127,53.497297 4.860116,9.187473 -2.872086,15.538854 -2.735966,0.340596 z" sodipodi:nodetypes="ccccc" />
    <path id="rect18-3" style="fill:#566c7e;stroke-width:1.161;stroke-linecap:square;paint-order:stroke markers fill" d="m 71.109888,68.086069 -4.941026,0.998996 0.271865,23.167507 h 3.092593 z" sodipodi:nodetypes="ccccc" />
    <path id="path19-2" style="fill:#482f27;stroke-width:1.161;stroke-linecap:square;paint-order:stroke markers fill" inkscape:transform-center-x="-0.056766776" inkscape:transform-center-y="-0.64622444" d="m 76.67544,94.630544 -7.21806,-4.057748 -3.016653,1.679776 0.217148,2.510036 8.509589,2.551151 z" sodipodi:nodetypes="cccccc" />
    <path id="rect18" style="fill:#566c7e;stroke-width:1.161;stroke-linecap:square;paint-order:stroke markers fill" d="m 60.348186,68.44587 4.941026,0.998996 -0.271865,22.573769 -3.092593,0.593738 z" sodipodi:nodetypes="ccccc" />
    <path id="rect15" style="fill:#455259;stroke-width:1.161;stroke-linecap:square;paint-order:stroke markers fill" d="m 45.296127,53.497297 12.690401,4.449718 8.007538,-0.963627 0.174796,14.888854 -15.247426,1.846424 z" sodipodi:nodetypes="cccccc" />
    <path id="rect15-1" style="fill:#455259;stroke-width:1.161;stroke-linecap:square;paint-order:stroke markers fill" d="m 85.633217,53.497297 -13.06139,4.886814 -8.355074,-1.978981 0.543729,15.467112 14.727702,1.846424 z" sodipodi:nodetypes="cccccc" />
    <path id="rect13" style="fill:#fdc28d;stroke-width:1.161;stroke-linecap:square;paint-order:stroke markers fill" d="m 55.031474,41.207924 11.8412,-1.710665 3.376222,11.702525 -0.847476,5.5577 -7.265226,0.481676 -0.08578,-3.815393 z" sodipodi:nodetypes="ccccccc" />
    <path sodipodi:type="star" style="fill:#fdc28d;fill-opacity:1;stroke:none;stroke-width:1.161;stroke-linecap:square;paint-order:stroke markers fill" id="path12-91" inkscape:flatsided="true" sodipodi:sides="3" sodipodi:cx="82.424309" sodipodi:cy="38.549019" sodipodi:r1="6.4490681" sodipodi:r2="3.224534" sodipodi:arg1="0.49446859" sodipodi:arg2="1.5416661" inkscape:rounded="0" inkscape:randomized="0" d="m 88.100914,41.609514 -11.165375,0.325342 5.300934,-9.832169 z" inkscape:transform-center-x="-0.86789617" inkscape:transform-center-y="-1.0967097" transform="matrix(-1.1380904,0.30242991,0.30242991,1.1380904,121.51053,-26.859507)" />
    <path sodipodi:type="star" style="fill:#df9b73;fill-opacity:1;stroke:none;stroke-width:1.161;stroke-linecap:square;paint-order:stroke markers fill" id="path12-9-3" inkscape:flatsided="true" sodipodi:sides="3" sodipodi:cx="82.424309" sodipodi:cy="38.549019" sodipodi:r1="6.4490681" sodipodi:r2="3.224534" sodipodi:arg1="0.49446859" sodipodi:arg2="1.5416661" inkscape:rounded="0" inkscape:randomized="0" d="m 88.100914,41.609514 -11.165375,0.325342 5.300934,-9.832169 z" inkscape:transform-center-x="-0.86789138" inkscape:transform-center-y="-1.0967102" transform="matrix(-1.1380904,0.30242991,0.30242991,1.1380904,123.17554,-28.013849)" />
    <path id="path13-5" style="fill:#fdc28d;stroke-width:1.161;stroke-linecap:square;paint-order:stroke markers fill" inkscape:transform-center-x="-0.027389894" inkscape:transform-center-y="-0.1756098" d="m 41.510971,42.048544 -4.738367,3.993647 6.396985,-1.095235 z" sodipodi:nodetypes="cccc" />
    <path sodipodi:type="star" style="fill:#fdc28d;fill-opacity:1;stroke:none;stroke-width:1.161;stroke-linecap:square;paint-order:stroke markers fill" id="path12" inkscape:flatsided="true" sodipodi:sides="3" sodipodi:cx="82.424309" sodipodi:cy="38.549019" sodipodi:r1="6.4490681" sodipodi:r2="3.224534" sodipodi:arg1="0.49446859" sodipodi:arg2="1.5416661" inkscape:rounded="0" inkscape:randomized="0" d="m 88.100914,41.609514 -11.165375,0.325342 5.300934,-9.832169 z" inkscape:transform-center-x="-0.11059439" inkscape:transform-center-y="-1.8020025" transform="matrix(1.177588,0,0,1.177588,-17.68429,-4.2489904)" />
    <path sodipodi:type="star" style="fill:#df9b73;fill-opacity:1;stroke:none;stroke-width:1.161;stroke-linecap:square;paint-order:stroke markers fill" id="path12-9" inkscape:flatsided="true" sodipodi:sides="3" sodipodi:cx="82.424309" sodipodi:cy="38.549019" sodipodi:r1="6.4490681" sodipodi:r2="3.224534" sodipodi:arg1="0.49446859" sodipodi:arg2="1.5416661" inkscape:rounded="0" inkscape:randomized="0" d="m 88.100914,41.609514 -11.165375,0.325342 5.300934,-9.832169 z" inkscape:transform-center-x="-0.11059439" inkscape:transform-center-y="-1.8020025" transform="matrix(1.177588,0,0,1.177588,-19.589918,-4.9370015)" />
    <path id="path7" style="fill:#fbd8b3;fill-opacity:1;stroke-width:1.161;stroke-linecap:square;paint-order:stroke markers fill" inkscape:transform-center-x="-1.0178724" inkscape:transform-center-y="2.9335382" d="m 43.859881,47.60841 -1.967175,-9.687691 -5.395805,-1.471337 -9.217243,0.236956 2.024644,-10.005821 11.115565,-10.056552 13.160449,4.123073 4.083147,16.464767 z" sodipodi:nodetypes="ccccccccc" />
    <path id="path7-2" style="fill:#fbd8b3;fill-opacity:1;stroke-width:1.161;stroke-linecap:square;paint-order:stroke markers fill" inkscape:transform-center-x="1.0178726" inkscape:transform-center-y="2.9335382" d="m 71.617044,47.820699 5.340371,-1.950172 -2.06313,-3.563745 12.505896,-5.113311 -1.087548,-10.468235 0.622644,-1.879553 -11.067965,-11.54172 -13.810144,2.798465 -4.393705,8.905775 -2.539358,10.00794 -11.264224,12.592267 16.22959,2.955853 z" sodipodi:nodetypes="ccccccccccccc" />
    <path id="path6" style="fill:#d3a295;stroke-width:1.161;stroke-linecap:square;paint-order:stroke markers fill" inkscape:transform-center-x="0.023120014" inkscape:transform-center-y="-0.51746633" d="m 55.192035,42.306782 6.909452,0.747812 3.347652,2.900248 -7.529995,1.906785 -6.585445,-2.516811 z" sodipodi:nodetypes="cccccc" />
    <path id="path1" style="fill:#ff7f57;fill-opacity:1;stroke-width:1.161;stroke-linecap:square;paint-order:stroke markers fill" inkscape:transform-center-x="0.079610959" inkscape:transform-center-y="-1.0436317" d="M 28.849926,35.744371 35.75261,25.353397 46.187436,18.93131 40.090368,34.334284 Z" sodipodi:nodetypes="ccccc" />
    <path id="path5" style="fill:#4f2d24;stroke-width:1.161;stroke-linecap:square;paint-order:stroke markers fill" inkscape:transform-center-x="-0.25087249" inkscape:transform-center-y="0.0029728766" d="m 35.312409,31.248729 -0.09058,-3.000268 1.606116,2.113379 1.495435,2.137905 z" sodipodi:nodetypes="ccccc" />
    <path id="path1-4" style="fill:#ff7f57;fill-opacity:1;stroke-width:1.161;stroke-linecap:square;paint-order:stroke markers fill" inkscape:transform-center-x="0.079610959" inkscape:transform-center-y="-1.0436317" d="M 59.003488,25.445965 64.376799,17.58379 75.618886,14.613714 67.751205,26.725236 Z" sodipodi:nodetypes="ccccc" />
    <path id="path5-5" style="fill:#4f2d24;stroke-width:1.161;stroke-linecap:square;paint-order:stroke markers fill" inkscape:transform-center-x="-0.25087249" inkscape:transform-center-y="0.0029728766" d="m 64.739391,22.957306 0.471376,-3.481944 1.766674,2.474636 -0.27071,2.699861 z" sodipodi:nodetypes="ccccc" />
    <path id="path1-6" style="fill:#ff7f57;fill-opacity:1;stroke-width:0.935213;stroke-linecap:square;paint-order:stroke markers fill" inkscape:transform-center-x="-0.06412842" inkscape:transform-center-y="-0.84067033" d="m 56.506835,40.073943 -1.800229,-7.008287 -6.815361,-1.582392 1.199787,6.437455 z" sodipodi:nodetypes="ccccc" />
    <path id="path5-2" style="fill:#4f2d24;stroke-width:0.935213;stroke-linecap:square;paint-order:stroke markers fill" inkscape:transform-center-x="0.20208783" inkscape:transform-center-y="0.002394692" d="m 53.648326,36.331592 -0.204402,-2.849009 -2.339829,1.998735 0.229604,2.439401 z" sodipodi:nodetypes="ccccc" />
    <path id="path1-6-3" style="fill:#ff7f57;fill-opacity:1;stroke-width:0.935213;stroke-linecap:square;paint-order:stroke markers fill" inkscape:transform-center-x="-0.06412842" inkscape:transform-center-y="-0.84067033" d="m 86.845799,36.103006 -1.385751,-7.635312 -6.679497,-3.459491 1.011192,8.358615 z" sodipodi:nodetypes="ccccc" />
    <path id="path5-2-5" style="fill:#4f2d24;stroke-width:0.935213;stroke-linecap:square;paint-order:stroke markers fill" inkscape:transform-center-x="0.20208783" inkscape:transform-center-y="0.002394692" d="m 85.044003,32.616703 -0.408716,-3.265936 -1.65502,1.387476 -1.20461,2.52082 z" sodipodi:nodetypes="ccccc" />
    <path id="path3-6" style="fill:#fdc28d;fill-opacity:1;stroke-width:1.161;stroke-linecap:square;paint-order:stroke markers fill" inkscape:transform-center-x="-0.21510697" inkscape:transform-center-y="-0.78709962" d="m 41.973184,34.908125 -2.448519,0.143162 -1.201285,4.263992 3.488847,1.618035 z" sodipodi:nodetypes="ccccc" />
    <path id="path2" style="fill:#ffca9a;stroke-width:1.161;stroke-linecap:square;paint-order:stroke markers fill;fill-opacity:1" inkscape:transform-center-x="-0.53927701" inkscape:transform-center-y="0.83859075" d="m 40.58959,42.306782 -0.104122,-6.610119 5.148194,-9.452356 0.188302,10.184605 z" sodipodi:nodetypes="ccccc" />
    <path id="path3" style="fill:#fdc28d;stroke-width:1.161;stroke-linecap:square;paint-order:stroke markers fill;fill-opacity:1" inkscape:transform-center-x="0.21510703" inkscape:transform-center-y="-0.78709962" d="m 43.9354,35.909485 1.886564,-1.00136 1.462193,4.44462 -5.471931,1.580569 z" sodipodi:nodetypes="ccccc" />
    <path id="path4" style="fill:#7c3d26;stroke-width:1.161;stroke-linecap:square;paint-order:stroke markers fill" inkscape:transform-center-x="0.0085238611" inkscape:transform-center-y="-0.25087337" d="m 43.153716,40.565688 2.668248,-2.136858 0.885271,1.090559 z" sodipodi:nodetypes="cccc" />
    <path id="path3-9" style="fill:#fdc28d;stroke-width:1.192;stroke-linecap:square;paint-order:stroke markers fill;fill-opacity:1" inkscape:transform-center-x="0.3510532" inkscape:transform-center-y="-0.9295713" d="m 73.817149,32.763537 2.935462,-0.734055 1.597556,4.390068 -5.462563,2.027588 z" sodipodi:nodetypes="ccccc" />
    <path id="path4-3" style="fill:#7c3d26;stroke-width:1.192;stroke-linecap:square;paint-order:stroke markers fill" inkscape:transform-center-x="0.056772152" inkscape:transform-center-y="-0.29267" d="m 74.053369,37.972339 2.355467,-2.572002 0.548579,1.526189 z" sodipodi:nodetypes="cccc" />
    <path id="path3-9-0" style="fill:#fdc28d;stroke-width:1.192;stroke-linecap:square;paint-order:stroke markers fill;fill-opacity:1" inkscape:transform-center-x="-0.20683635" inkscape:transform-center-y="-0.6783169" d="m 71.21289,32.794786 -2.726844,-1.311522 -2.450887,3.977188 4.940793,3.088571 z" sodipodi:nodetypes="ccccc" />
    <path id="path4-3-7" style="fill:#7c3d26;stroke-width:1.192;stroke-linecap:square;paint-order:stroke markers fill" inkscape:transform-center-x="0.039360126" inkscape:transform-center-y="-0.21981378" d="m 69.930036,37.848666 -1.787765,-2.994549 -0.845376,1.384028 z" sodipodi:nodetypes="cccc" />
    <path id="rect5" style="fill:#4f2d24;stroke-width:1.161;stroke-linecap:square;paint-order:stroke markers fill" d="m 70.099113,42.123786 -5.980809,2.328101 -11.798879,-0.536691 -4.03199,-2.981882 -2.352834,3.359004 3.458715,-0.606523 2.539331,2.17112 12.995559,0.280837 5.701968,-2.002071 4.566676,0.797881 z" sodipodi:nodetypes="ccccccccccc" />
    <path id="path2-7" style="fill:#ffca9a;stroke-width:1.192;stroke-linecap:square;paint-order:stroke markers fill;fill-opacity:1" inkscape:transform-center-x="-0.43084818" inkscape:transform-center-y="1.0301308" d="m 70.373334,39.566748 -0.971914,-8.139228 2.357711,-8.499299 2.294238,-3.151341 1.813943,3.423581 -0.344944,8.503267 -1.690048,8.43608 z" sodipodi:nodetypes="cccccccc" />
    <path id="path8" style="fill:#d3a295;stroke-width:1.161;stroke-linecap:square;paint-order:stroke markers fill" inkscape:transform-center-x="0.46145177" inkscape:transform-center-y="-0.011925774" d="m 51.104093,21.17374 1.094947,2.799917 -2.157478,0.0071 -1.928116,-2.160468 z" sodipodi:nodetypes="ccccc" />
    <path id="path9" style="fill:#d3a295;stroke-width:1.161;stroke-linecap:square;paint-order:stroke markers fill" inkscape:transform-center-x="-0.11818625" inkscape:transform-center-y="0.17059324" d="m 52.19904,25.00701 -0.795739,1.071716 -1.247058,-0.899102 z" sodipodi:nodetypes="cccc" />
    <path id="path10" style="fill:#d3a295;stroke-width:1.161;stroke-linecap:square;paint-order:stroke markers fill" inkscape:transform-center-x="0.43150197" inkscape:transform-center-y="0.019674046" d="m 48.488712,26.078726 -2.657162,-1.61281 1.822174,-1.494765 2.143499,1.678708 z" sodipodi:nodetypes="ccccc" />
    <path id="path11" style="fill:#d3a295;stroke-width:1.161;stroke-linecap:square;paint-order:stroke markers fill" inkscape:transform-center-x="-0.098347364" inkscape:transform-center-y="-0.14862899" d="M 57.986528,32.029482 56.537009,32.37017 57.30732,30.740257 Z" sodipodi:nodetypes="cccc" />
    <path id="path13" style="fill:#fdc28d;stroke-width:1.161;stroke-linecap:square;paint-order:stroke markers fill" inkscape:transform-center-x="-0.30061501" inkscape:transform-center-y="-0.08347805" d="m 77.108291,42.367409 5.605091,2.642781 -6.463702,0.584384 z" sodipodi:nodetypes="cccc" transform="translate(0.22076814,-0.56520888)" />
    <path id="path14" style="fill:#daf2ff;stroke-width:1.161;stroke-linecap:square;paint-order:stroke markers fill" inkscape:transform-center-x="-0.95402578" inkscape:transform-center-y="0.3478731" d="m 63.862199,69.040219 -5.875671,-11.093204 2.262221,-1.617695 3.968004,0.07581 5.184667,0.352354 3.170407,1.626627 z" sodipodi:nodetypes="ccccccc" />
    <path id="path15" style="fill:#ebf7fe;stroke-width:1.161;stroke-linecap:square;paint-order:stroke markers fill" inkscape:transform-center-x="-0.023951261" inkscape:transform-center-y="-0.91236278" d="M 60.248749,60.209494 57.986528,55.944408 59.7173,52.321556 64.295829,56.32932 Z" sodipodi:nodetypes="ccccc" />
    <path id="path15-3" style="fill:#ebf7fe;stroke-width:1.161;stroke-linecap:square;paint-order:stroke markers fill" inkscape:transform-center-x="0.023951739" inkscape:transform-center-y="-0.91236278" d="M 67.868208,60.209494 71.535317,56.665109 71.00845,52.681 64.142245,56.327507 Z" sodipodi:nodetypes="ccccc" />
    <path id="path18" style="fill:#ffab60;stroke-width:1.161;stroke-linecap:square;paint-order:stroke markers fill" inkscape:transform-center-x="-0.086538168" inkscape:transform-center-y="-0.35093369" d="m 63.862199,57.763836 3.326304,7.218189 -3.326304,4.058194 -2.72102,-3.322778 z" sodipodi:nodetypes="ccccc" />
    <path id="path16" style="fill:#344148;stroke-width:1.161;stroke-linecap:square;paint-order:stroke markers fill" inkscape:transform-center-x="-0.18543468" inkscape:transform-center-y="-1.1547346" d="m 54.26835,61.875 3.718178,-4.63584 5.875671,11.801059 z" sodipodi:nodetypes="cccc" />
    <path id="path16-3" style="fill:#344148;stroke-width:1.161;stroke-linecap:square;paint-order:stroke markers fill" inkscape:transform-center-x="0.18543432" inkscape:transform-center-y="-1.1547346" d="M 74.961285,61.553883 71.905412,57.500068 63.862199,69.040219 Z" sodipodi:nodetypes="cccc" />
    <path sodipodi:type="star" style="fill:#f28a45;fill-opacity:1;stroke:none;stroke-width:1.161;stroke-linecap:square;paint-order:stroke markers fill" id="path17" inkscape:flatsided="true" sodipodi:sides="5" sodipodi:cx="64.29583" sodipodi:cy="59.125721" sodipodi:r1="2.2193499" sodipodi:r2="1.1096749" sodipodi:arg1="1.5281983" sodipodi:arg2="2.1565168" inkscape:rounded="0" inkscape:randomized="0" d="m 64.390341,61.343058 -2.174118,-1.442257 0.699828,-2.513391 2.606635,-0.111104 0.911162,2.444724 z" inkscape:transform-center-x="0.064820487" inkscape:transform-center-y="0.70424839" transform="matrix(1.371708,0,0,1.371708,-23.939337,-22.694948)" />
    <path id="path19" style="fill:#482f27;stroke-width:1.161;stroke-linecap:square;paint-order:stroke markers fill" inkscape:transform-center-x="0.056766776" inkscape:transform-center-y="-0.64622444" d="m 53.990389,93.066494 7.82478,-2.133897 3.202178,1.086038 -0.482952,2.622098 -9.887521,1.619871 z" sodipodi:nodetypes="cccccc" />
    <path id="path20" style="fill:#344148;stroke-width:1.161;stroke-linecap:square;paint-order:stroke markers fill" inkscape:transform-center-x="1.2772367" inkscape:transform-center-y="0.10176285" d="M 44.548191,78.56422 33.309753,66.837183 39.971096,62.68477 45.296127,77.145069 Z" sodipodi:nodetypes="ccccc" />
    <path id="path20-9" style="fill:#344148;stroke-width:1.161;stroke-linecap:square;paint-order:stroke markers fill" inkscape:transform-center-x="-1.2772367" inkscape:transform-center-y="-0.10176315" d="M 84.393123,76.804473 91.46267,89.621965 85.638626,94.725209 83.645187,78.223624 Z" sodipodi:nodetypes="ccccc" />
    <path id="rect21" style="fill:#061219;stroke-width:1.161;stroke-linecap:square;paint-order:stroke markers fill" d="m 25.17884,54.971561 5.317235,-5.102813 4.068737,6.954634 6.158894,-0.628889 -0.76576,3.312045 -3.60641,4.176449 -9.250013,-3.781065 z" sodipodi:nodetypes="cccccccc" />
    <path id="rect20" style="fill:#1a2830;stroke-width:1.161;stroke-linecap:square;paint-order:stroke markers fill" d="m 30.496075,49.868748 2.788928,2.838836 7.438703,3.486909 -4.24304,5.255322 -7.971636,-3.168194 -3.33019,-3.31006 z" sodipodi:nodetypes="ccccccc" />
    <path id="rect22" style="fill:#e9e9e9;stroke-width:1.161;stroke-linecap:square;paint-order:stroke markers fill" d="m 36.865239,62.134602 3.092416,-4.156363 c 7.139442,9.273711 3.714234,21.846064 2.518092,34.634134 l -5.836458,-2.257992 c 4.619736,-10.176833 5.249817,-19.461852 0.22595,-28.219779 z" sodipodi:nodetypes="ccccc" />
    <path id="path22-6-6" style="fill:#e9e9e9;fill-opacity:1;stroke-width:0.862335;stroke-linecap:square;paint-order:stroke markers fill" d="m 34.978973,92.031701 c -0.08105,1.255564 2.48582,2.727273 5.093404,3.444441 3.002312,0.82573 13.816707,3.52157 10.930252,-5.080275 -2.589961,-7.718268 -8.79979,-1.756382 -11.530886,-0.667715 -2.512177,1.001401 -4.411716,1.047984 -4.49277,2.303549 z" sodipodi:nodetypes="sssss" />
    <path id="path22-6-0" style="fill:#7d7d7d;fill-opacity:1;stroke-width:0.589724;stroke-linecap:square;paint-order:stroke markers fill" d="m 37.357953,91.746726 c 0.06272,0.858139 -1.684071,1.879469 -3.463087,2.385048 -2.048316,0.582111 -10.557653,2.616103 -9.002492,-3.390745 1.844521,-7.124504 7.556849,-2.061698 9.379844,-0.543474 1.421156,1.183564 3.023014,0.691031 3.085735,1.549171 z" sodipodi:nodetypes="sssss" />
    <path id="path22-6-0-3" style="fill:#7d7d7d;fill-opacity:1;stroke-width:0.589724;stroke-linecap:square;paint-order:stroke markers fill" d="m 37.463881,92.48636 c -0.06272,0.858139 1.684071,1.879469 3.463087,2.385048 2.048316,0.582111 10.557653,2.616103 9.002492,-3.390745 -1.844521,-7.124504 -7.556849,-2.061698 -9.379844,-0.543474 -1.421156,1.183564 -3.023014,0.691031 -3.085735,1.549171 z" sodipodi:nodetypes="sssss" />
    <path id="rect23" style="fill:#e9e9e9;stroke-width:1.161;stroke-linecap:square;paint-order:stroke markers fill" d="m 34.229929,90.172875 3.087453,-0.991144 c 2.517465,1.905557 6.065648,7.941016 7.015089,10.255624 l -5.448806,-0.251168 c -0.493451,-2.421481 -2.516158,-7.189696 -4.653736,-9.013312 z" sodipodi:nodetypes="ccccc" />
    <path id="rect24" style="fill:#a9ae9a;stroke-width:1.161;stroke-linecap:square;paint-order:stroke markers fill" d="m 30.696246,50.606936 1.319811,1.674599 -3.618836,4.669008 -2.256451,-1.77394 z" sodipodi:nodetypes="ccccc" />
    <path id="rect25" style="fill:#8f8f8f;stroke-width:1.161;stroke-linecap:square;paint-order:stroke markers fill" d="m 30.415829,56.767519 1.08377,0.842933 -0.471641,1.083771 -1.525307,-0.662305 z" sodipodi:nodetypes="ccccc" />
    <path id="rect25-5" style="fill:#8f8f8f;stroke-width:1.161;stroke-linecap:square;paint-order:stroke markers fill" d="m 31.785475,55.03701 0.913176,0.883073 -0.471641,1.083771 -1.525307,-0.662305 z" sodipodi:nodetypes="ccccc" />
    <path id="rect25-0" style="fill:#8f8f8f;stroke-width:1.161;stroke-linecap:square;paint-order:stroke markers fill" d="m 33.289019,53.164856 1.10384,0.662304 -0.883072,1.424959 -1.334644,-0.71248 z" sodipodi:nodetypes="ccccc" />
    <path id="rect25-6" style="fill:#8f8f8f;stroke-width:1.161;stroke-linecap:square;paint-order:stroke markers fill" d="m 35.148453,54.205804 1.565446,0.782724 -0.792758,0.913177 -1.705935,-0.471642 z" sodipodi:nodetypes="ccccc" />
    <path id="rect25-7" style="fill:#8f8f8f;stroke-width:1.161;stroke-linecap:square;paint-order:stroke markers fill" d="m 34.100155,55.981284 1.465097,1.113876 -0.702444,0.923212 -1.525307,-0.662305 z" sodipodi:nodetypes="ccccc" />
    <path id="rect25-05" style="fill:#8f8f8f;stroke-width:1.161;stroke-linecap:square;paint-order:stroke markers fill" d="m 33.202381,57.578819 1.073735,0.943282 -0.471641,1.083771 -1.525307,-0.662305 z" sodipodi:nodetypes="ccccc" />
    <path id="rect25-07" style="fill:#8f8f8f;stroke-width:1.161;stroke-linecap:square;paint-order:stroke markers fill" d="m 35.382933,58.91177 1.274433,0.933247 -0.471641,1.083771 -1.565447,-0.842933 z" sodipodi:nodetypes="ccccc" />
    <path id="rect25-1" style="fill:#8f8f8f;stroke-width:1.161;stroke-linecap:square;paint-order:stroke markers fill" d="m 36.270672,57.34434 1.575481,1.013526 -0.602095,0.983422 -1.625656,-0.903143 z" sodipodi:nodetypes="ccccc" />
    <path id="rect25-50" style="fill:#8f8f8f;stroke-width:1.161;stroke-linecap:square;paint-order:stroke markers fill" d="m 37.744113,55.572536 1.08377,0.973387 -0.642235,0.993457 -1.324608,-0.863004 z" sodipodi:nodetypes="ccccc" />
    <path id="rect27" style="fill:#fbd8b3;stroke-width:1.161;stroke-linecap:square;paint-order:stroke markers fill;fill-opacity:1" d="m 29.078413,58.018372 2.025253,-3.596858 1.138397,1.057033 -0.978284,2.673791 2.095133,4.667656 -1.890599,0.255447 z" sodipodi:nodetypes="ccccccc" />
    <path id="rect27-7" style="fill:#fbd8b3;fill-opacity:1;stroke-width:1.161;stroke-linecap:square;paint-order:stroke markers fill" d="m 31.848076,57.730871 1.731552,-2.59145 1.911245,1.156086 -1.751624,1.754953 1.585513,6.57605 -3.856449,-1.551069 z" sodipodi:nodetypes="ccccccc" />
    <path id="rect27-6" style="fill:#fbd8b3;stroke-width:1.161;stroke-linecap:square;paint-order:stroke markers fill;fill-opacity:1" d="m 36.639289,57.160107 1.814507,1.30331 -2.433646,0.914977 -0.695388,5.248116 -1.630085,-0.991181 1.007264,-5.194282 z" sodipodi:nodetypes="ccccccc" />
    <path id="rect29" style="fill:#fbd8b3;stroke-width:1.161;stroke-linecap:square;paint-order:stroke markers fill" d="m 88.681803,93.439071 9.344668,-0.826698 v 3.361557 l -8.635442,-7e-6 z" sodipodi:nodetypes="ccccc" />
    <path id="path29" style="fill:#fbd8b3;stroke-width:1.161;stroke-linecap:square;paint-order:stroke markers fill" inkscape:transform-center-x="-0.48167472" inkscape:transform-center-y="0.51108494" d="m 96.074284,93.966955 -1.770454,-6.403666 5.2067,0.946061 -1.484059,7.46458 z" sodipodi:nodetypes="ccccc" />
  </g>
</svg>
