<?xml version="1.0" encoding="UTF-8" standalone="no"?>
<!-- Created with Inkscape (http://www.inkscape.org/) -->

<svg width="212.52209mm" height="306.53668mm" viewBox="0 0 212.52209 306.53668" version="1.1" id="svg1" inkscape:version="1.3 (0e150ed6c4, 2023-07-21)" sodipodi:docname="imwewi_gift.svg" xmlns:inkscape="http://www.inkscape.org/namespaces/inkscape" xmlns:sodipodi="http://sodipodi.sourceforge.net/DTD/sodipodi-0.dtd" xmlns="http://www.w3.org/2000/svg" xmlns:svg="http://www.w3.org/2000/svg">
  <sodipodi:namedview id="namedview1" pagecolor="#ffffff" bordercolor="#666666" borderopacity="1.0" inkscape:showpageshadow="2" inkscape:pageopacity="0.0" inkscape:pagecheckerboard="0" inkscape:deskcolor="#d1d1d1" inkscape:document-units="mm" inkscape:zoom="0.82394606" inkscape:cx="574.06671" inkscape:cy="683.29716" inkscape:current-layer="layer1" />
  <defs id="defs1">
    <inkscape:path-effect effect="powerstroke" id="path-effect26" is_visible="true" lpeversion="1.3" scale_width="2.3076923" interpolator_type="CubicBezierFit" interpolator_beta="0.2" start_linecap_type="zerowidth" end_linecap_type="zerowidth" offset_points="0.21100862,0.20900855 | 4.0075188,5.5919142 | 6.5458002,0.31018238" linejoin_type="spiro" miter_limit="1" not_jump="true" sort_points="true" message="&lt;b&gt;Ctrl + click&lt;/b&gt; on existing node and move it" />
    <inkscape:path-effect effect="powerstroke" id="path-effect24" is_visible="true" lpeversion="1.3" scale_width="1.5384615" interpolator_type="CentripetalCatmullRom" interpolator_beta="0.2" start_linecap_type="zerowidth" end_linecap_type="zerowidth" offset_points="0.48639704,1.1535 | 1.1341034,1.655235 | 1.6603338,1.1535" linejoin_type="round" miter_limit="4" not_jump="false" sort_points="true" message="&lt;b&gt;Ctrl + click&lt;/b&gt; on existing node and move it" />
    <inkscape:path-effect effect="powerstroke" id="path-effect12" is_visible="true" lpeversion="1.3" scale_width="1" interpolator_type="CentripetalCatmullRom" interpolator_beta="0.2" start_linecap_type="zerowidth" end_linecap_type="zerowidth" offset_points="2,1.1535" linejoin_type="round" miter_limit="4" not_jump="false" sort_points="true" message="&lt;b&gt;Ctrl + click&lt;/b&gt; on existing node and move it" />
    <inkscape:path-effect effect="powerstroke" id="path-effect47" is_visible="true" lpeversion="1.3" scale_width="0.76923077" interpolator_type="CentripetalCatmullRom" interpolator_beta="0.2" start_linecap_type="zerowidth" end_linecap_type="zerowidth" offset_points="2,1.022" linejoin_type="round" miter_limit="4" not_jump="false" sort_points="true" message="&lt;b&gt;Ctrl + click&lt;/b&gt; on existing node and move it" />
    <inkscape:path-effect effect="fill_between_many" method="bsplinespiro" autoreverse="false" close="false" join="false" linkedpaths="#path47,0,1" id="path-effect48" is_visible="true" lpeversion="0" />
    <inkscape:path-effect effect="fill_between_many" method="bsplinespiro" autoreverse="false" close="false" join="false" linkedpaths="#path12,0,1" id="path-effect13" is_visible="true" lpeversion="0" />
    <inkscape:path-effect effect="fill_between_many" method="bsplinespiro" autoreverse="false" close="false" join="false" linkedpaths="#path24,0,1" id="path-effect25" is_visible="true" lpeversion="0" />
    <inkscape:path-effect effect="powerstroke" id="path-effect26-6" is_visible="true" lpeversion="1.3" scale_width="2.3076923" interpolator_type="CubicBezierFit" interpolator_beta="0.2" start_linecap_type="zerowidth" end_linecap_type="zerowidth" offset_points="0.21100862,0.20900855 | 4.0075188,5.5919142 | 6.5458002,0.31018238" linejoin_type="spiro" miter_limit="1" not_jump="true" sort_points="true" message="&lt;b&gt;Ctrl + click&lt;/b&gt; on existing node and move it" />
  </defs>
  <g inkscape:label="Layer 1" inkscape:groupmode="layer" id="layer1" transform="translate(10.878051)">
    <rect style="fill:#6c60be;fill-opacity:1;stroke:none;stroke-width:2.55176;stroke-linecap:square;stroke-opacity:1;paint-order:markers stroke fill" id="rect60" width="212.52209" height="306.53668" x="-10.878051" y="0" inkscape:export-filename="rect60v2.png" inkscape:export-xdpi="449" inkscape:export-ydpi="449" />
    <rect style="fill:#504c6d;fill-opacity:1;stroke:none;stroke-width:2.54885;stroke-linecap:square;stroke-opacity:1;paint-order:markers stroke fill" id="rect59-4" width="204.7088" height="319.3667" x="-35.279026" y="9.1386633" transform="rotate(-10.739283)" />
    <rect style="fill:#5a5479;fill-opacity:1;stroke:none;stroke-width:2.307;stroke-linecap:square;stroke-opacity:1;paint-order:markers stroke fill" id="rect59" width="185.28468" height="289.06308" x="8.8256025" y="5.5659804" transform="rotate(5.3955048)" />
    <path id="path58-4" style="fill:#727bb5;fill-opacity:1;stroke-width:2.307;stroke-linecap:square;paint-order:markers stroke fill" inkscape:transform-center-x="-4.7525061" inkscape:transform-center-y="-24.486227" d="M 86.451486,117.26671 159.18367,297 8.54845,288.41602 Z" sodipodi:nodetypes="cccc" />
    <path id="path58" style="fill:#8191dc;fill-opacity:1;stroke-width:2.307;stroke-linecap:square;paint-order:markers stroke fill" inkscape:transform-center-x="-4.7525061" inkscape:transform-center-y="-24.486227" d="M 35.488408,70.359965 151.07607,289.06307 0.44084961,280.47909 Z" sodipodi:nodetypes="cccc" />
    <path id="path22-4-2" style="fill:#8da1f3;fill-opacity:1;stroke-width:1.88985;stroke-linecap:square;stroke-dasharray:1.88985, 3.77968;paint-order:markers stroke fill" inkscape:transform-center-x="-0.14950254" inkscape:transform-center-y="2.0781586" d="m 70.608576,31.401623 2.06292,15.828492 12.67623,-9.701217 z m -1.78697,7.873422 -11.05514,10.157519 13.45292,-0.591178 z m 28.16985,2.290299 -11.25099,3.961515 2.57245,7.888408 -0.81959,1.281058 c -3.37661,-3.07117 -7.35751,-5.415258 -11.31197,-4.778519 -4.08717,0.31645 -7.19923,1.011056 -9.55755,1.988509 l -0.0258,-0.01137 5.11e-4,0.02119 c -1.07399,0.447043 -1.98643,0.954757 -2.76727,1.511019 l -3.56929,-0.683679 -0.44338,7.387663 c -0.0684,0.460653 -0.12234,0.925964 -0.14832,1.399398 -0.10128,2.353264 -0.2431,4.708315 -0.364831,7.0559 -0.258019,2.692523 -0.426089,5.277534 -0.458889,7.757666 -0.190111,14.374465 2.79471,25.296738 8.157129,34.529158 -0.743229,-4.7686 -1.417759,-8.10958 -1.51206,-11.24324 2.894781,4.00192 7.0217,7.77858 12.89224,11.24324 -2.595239,-3.67812 -4.49319,-7.01949 -5.859069,-10.10636 6.59783,6.59318 15.19123,11.21115 24.11067,13.46016 10.594283,2.67132 17.530713,12.48606 17.530713,12.48606 0,0 0.87135,-11.64325 -6.99027,-18.46141 5.56149,3.11873 10.08983,7.24023 12.67003,13.25139 -0.27626,-5.51726 -1.29475,-10.36245 -2.88097,-14.69316 4.01272,3.51445 6.99115,7.80675 12.11916,10.79211 -4.99947,-7.83036 -3.37276,-17.49828 -9.16481,-24.001637 -2.90357,-3.26015 -8.09701,-5.002598 -12.07988,-7.418669 1.09362,-1.777717 2.19778,-3.481185 3.30935,-5.19038 2.82405,-0.491758 5.70404,-1.558494 8.69715,-3.516582 -2.48767,0.973918 -4.78092,1.164234 -6.9355,0.787549 1.18916,-1.863714 2.38762,-3.804152 3.59668,-5.955709 0,0 -4.35238,-1.284112 -8.81496,-0.775146 l 0.15503,-0.580844 -3.72949,1.004074 -0.46767,-1.894458 -0.4439,0.426847 -1.01286,-4.714441 c 1.88863,-0.566781 3.77339,-1.220467 5.66167,-1.795239 -2.10035,-0.161054 -4.18378,-0.277931 -6.15983,-0.522449 z m -34.94774,13.471529 c -0.003,0.0031 -0.006,0.0062 -0.008,0.0093 l 10e-4,-0.0072 z m 18.68207,59.304907 -5.6441,0.85008 4.64984,6.37325 -1.67018,-5.01675 z m 14.20843,10.94507 -4.59713,4.12998 4.03128,-1.29811 2.63394,0.54467 z" />
    <path id="path59" style="fill:#8da1f3;fill-opacity:1;stroke-width:2.307;stroke-linecap:square;paint-order:markers stroke fill" inkscape:transform-center-x="-31.71538" inkscape:transform-center-y="-3.1632343" d="M -41.745253,15.469528 159.18367,297 -4.5412853,316.03049 Z" sodipodi:nodetypes="cccc" />
    <path id="path59-7" style="fill:#97aaff;fill-opacity:1;stroke-width:2.307;stroke-linecap:square;paint-order:markers stroke fill" inkscape:transform-center-x="-31.71538" inkscape:transform-center-y="-3.1632343" d="M -78.529656,28.325842 159.18367,287.02776 0,348.74632 Z" sodipodi:nodetypes="cccc" />
    <path id="path46-1" style="fill:#8da1f3;fill-opacity:1;stroke-width:2.044;stroke-linecap:square;paint-order:markers stroke fill" inkscape:transform-center-x="-1.3602027" inkscape:transform-center-y="0.14891068" d="m 58.960186,52.024192 c 0.81488,1.243588 1.049,2.287203 0.31264,2.997233 l 4.2721,0.02325 c -0.46393,-0.630509 0.34055,-0.826722 1.11104,-1.034562 z m -11.9295,1.049548 3.44992,7.812443 c 3.76575,2.050537 7.43348,1.058846 11.1125,0.420646 l -1.37976,-5.358846 z m 17.62528,9.99836 -6.40478,2.24171 -6.40581,2.24174 -0.58549,0.20515 -5.97948,6.20789 -0.74156,11.03809 c 5.29272,13.05099 6.71729,22.93756 9.450071,33.89405 0,0 0.882659,-0.41823 2.173509,-1.14256 -0.12708,12.41557 -2.676839,30.00334 -2.676839,30.00334 l 16.953489,-7.23781 4.20284,5.82445 7.95094,11.46494 6.26628,-3.38946 0.44339,-0.85576 v 0.001 l 8.842354,-14.24822 1.59059,2.28048 -3.179123,23.07973 12.836423,4.49481 1.96835,-6.18205 -1.73633,-10.37611 5.3e-4,10e-4 2.01847,12.06232 2.97347,-0.86093 0.2558,0.57412 7.1179,6.6952 -0.18241,-9.35188 1.85983,-0.53847 1.79007,-7.5644 -7.59334,-9.92136 4.4168,0.6842 1.05937,-6.77943 -11.90109,-9.24492 -8.56898,-4.34908 -2.31149,-4.57337 -3.367243,-0.47956 -0.85627,1.72755 -17.9524,-9.82524 c -1.30884,-3.68811 -2.57922,-7.50157 -3.35431,-10.45311 -1.63939,-6.2428 1.37577,-13.84196 -1.1312,-21.70049 -2.5409,-7.96484 -3.82716,-14.6637 -3.82716,-14.6637 z m 18.0759,63.3088 1.12034,0.80873 4.37958,6.59753 0.22531,0.45166 -12.62042,9.56737 7.42332,-15.79077 z" />
    <path id="rect46-6" style="fill:#8da1f3;fill-opacity:1;stroke-width:2.044;stroke-linecap:square;paint-order:markers stroke fill" d="m 84.782866,132.45649 -0.56328,5.34954 -0.15864,0.10026 0.12867,0.18448 -2.46393,23.39341 8.84287,-14.24823 1.59008,2.27996 -3.17861,23.08025 12.836424,4.49481 1.96836,-6.18205 -4.04162,-24.15459 -9.930664,-12.49123 -0.006,0.004 -1.29553,-1.62781 1.1405,1.726 -2.7342,1.73167 z m -32.92099,0.73846 -1.25832,8.51576 19.83548,43.90843 -18.57716,47.11857 5.52679,2.93574 -6.78511,15.11897 7.1453,8.86923 9.89035,2.48873 2.08928,-7.94163 c -1.57446,-5.11277 -1.18443,-8.80726 -0.27285,-12.12536 l 8.88059,4.71702 3.38946,-53.26496 0.49868,-12.00547 -7.85741,-27.33838 0.0295,-4.59404 -1.17461,0.60875 -2.78277,-9.68261 z m 54.982174,28.40601 -1.62316,9.30796 2.93264,-0.93586 -0.85679,2.33629 7.11791,6.6952 -0.18707,-9.60355 -2.11822,-0.69091 3.18792,-1.01751 z m -64.194014,31.37638 -13.46275,9.70639 -4.47466,10.62467 7.68842,6.00635 c 7.52695,-5.38807 12.7039,-15.05082 24.2378,-13.15061 z" />
    <path id="path30" style="fill:#ff5454;stroke-width:2.307;stroke-linecap:square;paint-order:markers stroke fill" inkscape:transform-center-y="-7.2205787" d="m 133.69887,16.753997 c 0,0 -24.42931,-10.438499 -62.768292,-9.3253931 C 32.591598,8.5417098 16.169664,43.048002 5.7123559,69.049368 L -24.494944,124.60455 C -16.196399,48.227265 14.744119,-1.1611289 67.603468,-3.5202416 113.69769,-5.5774265 133.69887,16.753997 133.69887,16.753997 Z" sodipodi:nodetypes="czccsc" />
    <path id="path39" style="fill:#ff5454;stroke-width:2.307;stroke-linecap:square;paint-order:markers stroke fill" inkscape:transform-center-x="3.9363153" inkscape:transform-center-y="-2.7959753" d="M -4.5412853,123.2527 9.6538197,34.986746 C 52.156511,6.1208697 91.976312,20.064926 106.32349,36.209597 c 14.34718,16.14467 3.33874,29.381181 3.33874,29.381181 0,0 9.81954,-16.183809 -14.787899,-24.149829 C 70.266894,33.47493 23.399724,45.101334 -4.5412853,123.2527 Z" sodipodi:nodetypes="cczczc" />
    <path id="path46" style="fill:#6c8e98;fill-opacity:1;stroke-width:2.044;stroke-linecap:square;paint-order:markers stroke fill" inkscape:transform-center-x="-1.3602027" inkscape:transform-center-y="0.14891068" d="m 79.77606,157.75409 17.677685,3.16959 -10.430395,15.73712 -19.326664,8.25109 z" sodipodi:nodetypes="ccccc" />
    <path id="rect46" style="fill:#e1f5fa;fill-opacity:1;stroke-width:2.044;stroke-linecap:square;paint-order:markers stroke fill" d="m 50.974912,231.91843 13.46262,-9.70604 13.988926,13.18679 c -11.533904,-1.90021 -16.710709,7.76261 -24.237671,13.15069 l -7.688568,-6.00628 z" sodipodi:nodetypes="cccccc" />
    <path id="rect45" style="fill:#e1f5fa;fill-opacity:1;stroke-width:2.044;stroke-linecap:square;paint-order:markers stroke fill" d="m 72.391368,280.02728 10.833217,-24.13911 10.938498,5.19319 c -0.932848,7.41769 -5.851021,11.95836 -2.647168,22.36234 l -2.089312,7.94169 -9.890375,-2.48863 z" sodipodi:nodetypes="ccccccc" />
    <path id="rect44-7" style="fill:#828c9b;fill-opacity:1;stroke-width:1.72141;stroke-linecap:square;paint-order:markers stroke fill" d="m 80.405228,153.49604 15.693192,7.88399 14.66895,40.45102 -0.49845,12.00564 -50.777545,42.36525 1.75055,-36.9693 37.740009,-13.31215 -19.835041,-43.90835 z" sodipodi:nodetypes="ccccccccc" />
    <path id="rect43" style="fill:#959da6;stroke-width:1.72141;stroke-linecap:square;paint-order:markers stroke fill" d="m 73.649703,162.42968 21.495169,-4.46058 2.326347,7.19655 -8.618339,18.3324 z" sodipodi:nodetypes="ccccc" />
    <path id="rect44" style="fill:#959da6;stroke-width:1.72141;stroke-linecap:square;paint-order:markers stroke fill" d="m 73.649703,162.42968 18.576704,7.32873 11.785433,41.00628 -0.49844,12.00564 -3.38972,53.26527 -26.473977,-14.06276 18.576704,-47.11871 -19.835039,-43.90835 z" sodipodi:nodetypes="ccccccccc" />
    <path id="path41" style="fill:#ffebe0;stroke-width:2.044;stroke-linecap:square;paint-order:markers stroke fill" inkscape:transform-center-x="-0.4100921" inkscape:transform-center-y="-1.2635715" d="m 263.34569,-93.006721 -8.22895,-11.335769 -2.66139,-12.18138 6.46981,-5.2391 3.95401,4.05856 0.46652,9.87861 7.49552,2.17287 z" sodipodi:nodetypes="cccccccc" />
    <path id="rect39-7-4" style="fill:#ffc2ac;fill-opacity:1;stroke-width:2.044;stroke-linecap:square;paint-order:markers stroke fill" d="m 298.5671,-74.026007 -8.08434,4.422881 -5.70387,-4.07579 -5.35038,-12.578198 -17.78023,12.937004 0.9956,-13.774067 21.76184,-11.530698 z" sodipodi:nodetypes="cccccccc" />
    <path id="rect39-7" style="fill:#ffebe0;stroke-width:2.044;stroke-linecap:square;paint-order:markers stroke fill" d="m 306.97759,-84.315116 -5.20727,8.044484 -5.83187,-1.410247 -10.50007,-16.155047 -20.65414,15.078283 0.9956,-13.774076 21.76182,-11.530681 z" sodipodi:nodetypes="cccccccc" />
    <path id="rect39" style="fill:#ffebe0;stroke-width:2.044;stroke-linecap:square;paint-order:markers stroke fill" d="m 306.56092,-98.581105 -2.35164,7.409485 -6.39506,2.044127 -14.59456,-12.579187 -15.62043,20.24721 -2.89138,-13.503928 17.67495,-17.150222 z" sodipodi:nodetypes="cccccccc" />
    <path id="path22-4" style="fill:#8ebac7;fill-opacity:1;stroke-width:1.88985;stroke-linecap:square;stroke-dasharray:1.88985, 3.77968;paint-order:markers stroke fill" inkscape:transform-center-x="-0.14950254" inkscape:transform-center-y="2.0781586" d="m 94.555668,75.2113 c 5.259391,-1.787379 11.767822,0.134942 11.767822,0.134942 -9.181949,7.151881 -17.619862,12.843106 -22.321823,4.855524 0,0 7.262257,-3.871776 10.554001,-4.990466 z" sodipodi:nodetypes="sccs" />
    <path id="rect22-4" style="fill:#ffebe0;fill-opacity:1;stroke-width:1.88985;stroke-linecap:square;stroke-dasharray:1.88985, 3.77968;paint-order:markers stroke fill" d="M 85.244578,102.82859 86.509874,82.157319 75.556858,48.566285 86.807508,44.605098 94.874331,82.145461 90.142716,102.36872 Z" sodipodi:nodetypes="ccccccc" />
    <path id="rect26" style="fill:#ffc2ac;fill-opacity:1;stroke-width:1.88985;stroke-linecap:square;stroke-dasharray:1.88985, 3.77968;paint-order:markers stroke fill" d="m 110.76737,157.96911 14.8839,7.55399 11.90101,9.24502 -1.05911,6.77959 -5.38659,-0.83491 -6.36382,-9.43173 -12.31028,-2.25444 z" sodipodi:nodetypes="cccccccc" />
    <path id="rect24-1-2" style="fill:#ffebe0;fill-opacity:1;stroke-width:1.88985;stroke-linecap:square;stroke-dasharray:1.88985, 3.77968;paint-order:markers stroke fill" d="m 108.91661,168.58957 1.85076,-8.99501 13.97539,11.68651 14.92676,19.50369 -1.78994,7.56442 -12.02484,3.48187 -4.32404,-25.84169 z" sodipodi:nodetypes="cccccccc" />
    <path id="path23" style="fill:#a7c9d3;stroke-width:2.03449;stroke-linecap:square;stroke-dasharray:2.03449, 4.06897;paint-order:markers stroke fill" inkscape:transform-center-x="-1.4433814" inkscape:transform-center-y="1.0579052" d="m 181.4611,-155.66238 c -5.11087,-3.18143 -4.95822,-7.40092 -4.95822,-7.40092 7.82909,-3.27564 14.14482,-3.58531 14.76767,7.2622 0,0 -5.1469,3.04108 -9.80945,0.13872 z" sodipodi:nodetypes="sccs" />
    <path id="rect22-7" style="fill:#fff4de;stroke-width:2.244;stroke-linecap:square;stroke-dasharray:2.244, 4.48799;paint-order:markers stroke fill" d="m 198.46772,-186.27279 -7.50256,25.40913 14.41117,39.90776 -15.19963,9.21662 -6.81233,-48.23333 9.32194,-27.13675 z" sodipodi:nodetypes="ccccccc" />
    <path id="path21" style="fill:#791f14;fill-opacity:1;stroke-width:1.88985;stroke-linecap:square;stroke-dasharray:1.88985, 3.77968;paint-order:markers stroke fill" inkscape:transform-center-x="-1.6649847" inkscape:transform-center-y="-6.2065454" d="M 109.66223,124.5424 C 101.94321,106.55921 76.840435,105.44161 58.542162,97.722328 L 57.911955,59.630006 C 75.162047,81.267471 107.87742,88.896648 109.66223,124.5424 Z" sodipodi:nodetypes="cccc" />
    <path id="path17-8" style="fill:#c8e9f4;fill-opacity:1;stroke-width:1.88985;stroke-linecap:square;stroke-dasharray:1.88985, 3.77968;paint-order:markers stroke fill" inkscape:transform-center-x="-1.4679759" inkscape:transform-center-y="1.6325123" d="M 78.129323,109.86303 C 78.781261,97.299158 85.783411,93.385258 84.001667,80.201766 94.984572,81.184461 100.7836,76.843718 106.32349,75.346242 100.79151,85.190548 95.466736,90.720518 90.359156,103.84509 Z" sodipodi:nodetypes="ccccc" />
    <path id="path17-7" style="fill:#ace0f1;fill-opacity:1;stroke-width:2.03449;stroke-linecap:square;stroke-dasharray:2.03449, 4.06897;paint-order:markers stroke fill" inkscape:transform-center-x="4.0542694" inkscape:transform-center-y="-4.620179" d="m 204.07167,-203.89991 c 7.21898,11.46868 1.88188,35.62498 -2.15426,51.22168 -8.47151,-3.46169 -16.48689,-10.14223 -25.41453,-10.38507 6.25875,-10.42149 12.69877,-19.03263 18.60273,-32.99716 z" sodipodi:nodetypes="ccccc" />
    <path id="path6" style="fill:#871406;fill-opacity:1;stroke-width:1.9429;stroke-linecap:square;paint-order:markers stroke fill" inkscape:transform-center-x="2.6592466" inkscape:transform-center-y="-3.1017259" d="m 118.90017,120.64146 c -7.02482,-4.08961 -10.00582,-10.63885 -17.15503,-14.26903 -6.133684,-3.11452 -13.824411,-3.30342 -18.204208,-5.78499 -9.10442,-5.158512 -12.03644,-8.629502 -27.126709,-10.433412 L 74.410505,61.925501 c 10.532772,8.183362 13.304729,14.371357 18.894496,23.379772 3.141474,5.062765 12.207949,6.593115 16.430759,11.334515 5.79206,6.503362 4.16493,16.171312 9.16441,24.001672 z" sodipodi:nodetypes="cssccssc" />
    <path id="rect16" style="fill:#afd9e5;fill-opacity:1;stroke-width:2.32812;stroke-linecap:square;paint-order:markers stroke fill" d="m 59.491375,111.11872 5.979363,-6.20802 13.396186,-4.6882 5.415453,0.98373 c 0,0 1.286028,6.69885 3.826921,14.6637 2.506974,7.85853 -0.507952,15.45786 1.13144,21.70067 2.173982,8.27852 8.213007,23.35308 8.213007,23.35308 l -7.839178,6.67812 -6.51917,7.9176 -10.321871,3.30668 -3.122679,1.69231 -1.954161,4.3935 c 0,0 4.791673,-32.95247 1.591213,-40.48431 -4.526064,-10.65147 -9.796524,-33.30886 -9.796524,-33.30886 z" sodipodi:nodetypes="ccccssccccccsc" />
    <path id="path14" style="fill:#602d27;stroke-width:2.307;stroke-linecap:square;paint-order:markers stroke fill" inkscape:transform-center-x="0.56162743" inkscape:transform-center-y="-0.13634878" d="m 239.58631,-115.38633 -0.52902,5.53967 -3.47148,-3.141 z" sodipodi:nodetypes="cccc" />
    <path id="path13" style="fill:#602d27;stroke-width:2.307;stroke-linecap:square;paint-order:markers stroke fill" inkscape:transform-center-x="0.21357802" inkscape:transform-center-y="-2.1455852" d="m 209.30116,-116.70751 13.41561,3.84306 -18.29472,8.91918 z" sodipodi:nodetypes="cccc" />
    <path id="path11" style="fill:#602d27;stroke-width:2.307;stroke-linecap:square;paint-order:markers stroke fill" inkscape:transform-center-x="0.13882377" inkscape:transform-center-y="-1.5138874" d="m 215.17463,-119.77397 12.02822,7.09226 -19.98121,6.72677 z" sodipodi:nodetypes="cccc" />
    <path id="path10" style="fill:#602d27;fill-opacity:1;stroke-width:2.307;stroke-linecap:square;paint-order:markers stroke fill" inkscape:transform-center-x="0.77579354" inkscape:transform-center-y="-1.3104921" d="m 235.65174,-117.85873 8.0024,15.02783 -23.31713,-5.64379 z" sodipodi:nodetypes="cccc" />
    <path id="path10-1" style="fill:#602d27;fill-opacity:1;stroke-width:2.307;stroke-linecap:square;paint-order:markers stroke fill" inkscape:transform-center-x="0.77579354" inkscape:transform-center-y="-1.3104921" d="m 229.8846,-120.82269 9.70171,15.34895 -23.31714,-5.64379 z" sodipodi:nodetypes="cccc" />
    <path id="path10-1-2" style="fill:#602d27;fill-opacity:1;stroke-width:2.307;stroke-linecap:square;paint-order:markers stroke fill" inkscape:transform-center-x="0.77579354" inkscape:transform-center-y="-1.3104921" d="m 224.48749,-121.46341 9.97675,14.22504 -21.81633,-4.27371 z" sodipodi:nodetypes="cccc" />
    <path id="path7" style="fill:#da4836;fill-opacity:1;stroke-width:1.9429;stroke-linecap:square;paint-order:markers stroke fill" inkscape:transform-center-x="-0.30022258" inkscape:transform-center-y="-1.4786506" d="m 65.997509,52.957521 c 10.03965,-1.616562 20.268964,15.957036 20.268964,15.957036 L 63.732142,69.049368 52.608234,59.549557 c 0,0 4.592787,-5.175645 13.389275,-6.592036 z" sodipodi:nodetypes="scccs" />
    <path id="path16" style="fill:#fff4de;stroke-width:1.88985;stroke-linecap:square;stroke-dasharray:1.88985, 3.77968;paint-order:markers stroke fill" inkscape:transform-center-x="1.0494752" inkscape:transform-center-y="-0.24614331" d="m 75.803981,110.21951 -4.601564,-1.41416 -5.146093,-4.09959 11.43665,-4.00243 1.233438,5.85255 -0.669299,2.69006 z" sodipodi:nodetypes="ccccccc" />
    <path id="rect15" style="fill:#fff4de;fill-opacity:1;stroke-width:2.43797;stroke-linecap:square;paint-order:markers stroke fill" d="m 59.713549,86.762568 12.51131,-2.207413 4.987858,19.373415 -9.012503,2.05363 z" sodipodi:nodetypes="ccccc" />
    <path id="rect17" style="fill:#ffd1b8;fill-opacity:1;stroke-width:1.88985;stroke-linecap:square;stroke-dasharray:1.88985, 3.77968;paint-order:markers stroke fill" d="m 61.241925,90.223858 13.182334,2.87402 1.379722,5.359 c -3.679024,0.6382 -7.346645,1.629902 -11.112403,-0.42064 z" sodipodi:nodetypes="ccccc" />
    <path id="path4" style="fill:#9f2a1c;fill-opacity:1;stroke-width:1.9429;stroke-linecap:square;paint-order:markers stroke fill" inkscape:transform-center-x="0.0068889071" inkscape:transform-center-y="-2.4831465" d="M 109.66223,80.514379 C 97.066385,88.754578 86.461526,81.337686 73.68934,80.76095 l 3.707717,-19.72301 c 10.878872,6.836439 18.685681,24.792799 32.265173,19.476439 z" sodipodi:nodetypes="cccc" />
    <path id="path3" style="fill:#da4836;fill-opacity:1;stroke-width:1.9429;stroke-linecap:square;paint-order:markers stroke fill" inkscape:transform-center-x="0.69196252" inkscape:transform-center-y="-0.7132312" d="m 97.671178,67.016726 c -8.187741,2.492266 -16.306794,6.55082 -24.981404,-2.058981 l 6.411363,-10.023081 c 1.472589,11.552881 9.897412,11.417047 18.570041,12.082062 z" sodipodi:nodetypes="cccc" />
    <path id="path1" style="fill:#ffebe0;fill-opacity:1;stroke-width:2.1162;stroke-linecap:square;paint-order:markers stroke fill" inkscape:transform-center-x="2.6175031" inkscape:transform-center-y="-0.3856681" d="m 81.376684,94.422008 c 0,0 -13.373047,2.57853 -18.121408,-1.17566 -6.278496,-4.96395 -10.82119,-15.901498 -7.040351,-22.955974 3.42208,-6.385087 14.21573,-9.15299 20.830207,-6.19856 13.577244,6.064429 5.628119,30.474634 4.331552,30.330194 z" sodipodi:nodetypes="caasc" />
    <path id="path5" style="fill:#9f2a1c;fill-opacity:1;stroke:none;stroke-width:1.88985;stroke-linecap:square;stroke-dasharray:1.88985, 3.77969;stroke-dashoffset:0;stroke-opacity:1;paint-order:markers stroke fill" inkscape:transform-center-x="-0.77555827" inkscape:transform-center-y="1.8035451" d="m 103.98242,129.75263 c 0,0 -6.936643,-9.8146 -17.530934,-12.48592 C 63.531513,111.48751 42.703831,90.127618 52.608234,59.549557 l 17.148667,2.686618 c -11.270151,24.283253 7.314921,39.385205 22.721696,46.199475 12.689933,5.61263 11.503823,21.31698 11.503823,21.31698 z" sodipodi:nodetypes="csccsc" />
    <path id="path2-6" style="fill:#da4836;fill-opacity:1;stroke-width:1.9429;stroke-linecap:square;paint-order:markers stroke fill" inkscape:transform-center-x="-0.7642408" inkscape:transform-center-y="1.0283821" d="M 77.650753,105.66265 C 59.477867,102.6219 56.485171,66.130979 60.083217,56.212345 l 11.230926,6.012645 c -8.694912,9.78562 -4.520983,39.61413 6.33661,43.43766 z" sodipodi:nodetypes="cccc" />
    <path id="path8" style="fill:#a03529;fill-opacity:1;stroke-width:1.9429;stroke-linecap:square;paint-order:markers stroke fill" inkscape:transform-center-x="0.39998626" inkscape:transform-center-y="-0.47168618" d="m 74.257687,59.734646 -5.189781,-2.656779 2.10838,-0.469687 -3.572818,-1.68065 2.265101,-0.232397 -1.857321,-1.125444 2.96134,1.118806 -1.450684,0.514763 3.851326,1.265888 -1.491931,0.788817 z" sodipodi:nodetypes="ccccccccccc" />
    <path id="path8-1" style="fill:#7a3f38;fill-opacity:1;stroke-width:2.307;stroke-linecap:square;paint-order:markers stroke fill" inkscape:transform-center-x="0.47494323" inkscape:transform-center-y="-0.56007907" d="m 264.7778,-190.33678 -6.73,-2.84245 3.07115,-0.86992 -5.26836,-2.44972 9.43808,2.19949 -3.33259,1.02179 z" sodipodi:nodetypes="ccccccc" />
    <path id="path9" style="fill:#da4836;fill-opacity:1;stroke-width:1.9429;stroke-linecap:square;paint-order:markers stroke fill" inkscape:transform-center-x="-0.56639334" inkscape:transform-center-y="-1.3586943" d="M 65.997509,52.957521 C 52.88166,53.973016 49.799261,58.873024 49.486735,64.570042 48.716619,82.463698 45.487795,100.5082 68.200214,113.91254 50.753358,89.185858 64.214837,79.391863 66.517702,63.391066 61.131864,57.309643 67.631324,56.554896 65.997509,52.957521 Z" sodipodi:nodetypes="ccccc" />
    <path id="path57" style="fill:#8dc1d7;fill-opacity:1;stroke-width:2.307;stroke-linecap:square;paint-order:markers stroke fill" inkscape:transform-center-x="-1.5692782" inkscape:transform-center-y="-0.21870459" d="m 72.391368,144.50278 3.761913,21.39633 5.098011,7.06475 -10.985668,4.91716 z" sodipodi:nodetypes="ccccc" />
    <path id="path22" style="fill:#6c8e98;fill-opacity:1;stroke-width:1.88985;stroke-linecap:square;stroke-dasharray:1.88985, 3.77968;paint-order:markers stroke fill" inkscape:transform-center-x="0.61185979" inkscape:transform-center-y="-0.55602305" d="m 79.773725,146.89318 c -2.598512,4.90954 -11.573511,9.1577 -11.573511,9.1577 1.769708,-11.5033 4.679368,-20.75519 13.581101,-18.17275 0,0 -0.381227,5.94226 -2.00759,9.01505 z" sodipodi:nodetypes="sccs" />
    <path id="rect22" style="fill:#ffebe0;fill-opacity:1;stroke-width:1.88985;stroke-linecap:square;stroke-dasharray:1.88985, 3.77968;paint-order:markers stroke fill" d="m 66.531961,125.08328 13.241764,15.9235 30.993645,16.96233 -8.18534,9.63269 L 73.68934,146.74651 63.279329,128.7743 Z" sodipodi:nodetypes="ccccccc" />
    <path id="path56" style="fill:#8dc1d7;fill-opacity:1;stroke-width:2.307;stroke-linecap:square;paint-order:markers stroke fill" inkscape:transform-center-x="0.14104073" inkscape:transform-center-y="0.92428729" d="m 64.897843,118.23116 5.644314,-0.84984 -2.664617,2.20673 1.670467,5.0165 z" sodipodi:nodetypes="ccccc" />
    <path id="path17" style="fill:#c8e9f4;fill-opacity:1;stroke-width:1.88985;stroke-linecap:square;stroke-dasharray:1.88985, 3.77968;paint-order:markers stroke fill" inkscape:transform-center-x="-2.6131032" inkscape:transform-center-y="-0.46199204" d="m 59.491375,111.11872 c 8.148541,9.58526 11.94611,18.39377 22.289943,26.75941 -11.230503,3.66289 -6.025693,13.63591 -13.581104,18.17275 -2.732782,-10.95651 -4.157556,-20.84282 -9.450284,-33.89382 z" sodipodi:nodetypes="ccccc" />
    <path id="path20" style="fill:#da4836;fill-opacity:1;stroke-width:1.88985;stroke-linecap:square;stroke-dasharray:1.88985, 3.77968;paint-order:markers stroke fill" inkscape:transform-center-y="1.8423548" d="m 56.819879,113.91254 c -5.362422,-9.23243 -8.347007,-20.154222 -8.156898,-34.528701 0.07035,-5.319127 0.746167,-11.099154 1.652076,-17.458338 l 7.589754,29.357977 c -3.953576,8.832732 -2.656827,12.543712 -1.084932,22.629062 z" sodipodi:nodetypes="csccc" />
    <path id="path18-4" style="fill:#7a3f38;stroke-width:2.244;stroke-linecap:square;stroke-dasharray:2.244, 4.48799;paint-order:markers stroke fill" inkscape:transform-center-x="0.68583244" inkscape:transform-center-y="-0.20957464" d="m 293.16791,-168.69057 -2.45761,22.14713 0.35921,-23.34643 6.74471,-4.15571 z" sodipodi:nodetypes="ccccc" />
    <path id="path18" style="fill:#7a3f38;stroke-width:2.244;stroke-linecap:square;stroke-dasharray:2.244, 4.48799;paint-order:markers stroke fill" inkscape:transform-center-x="0.23149436" inkscape:transform-center-y="0.29780429" d="m 258.79469,-166.69279 4.39778,-5.58718 -1.57087,5.36208 1.0907,20.66826 z" sodipodi:nodetypes="ccccc" />
    <path id="path12" style="fill:#f65644;fill-opacity:1;stroke-width:1.896;stroke-linecap:square;paint-order:fill markers stroke" inkscape:transform-center-x="-0.89604296" inkscape:transform-center-y="0.34184068" transform="scale(0.26458333)" d="m 198.83427,276.2823 5.67572,13.24648 10.23123,-12.30913 7.67089,11.32499 11.62665,-11.56391 9.48415,14.08002 V 315.345 l -10.08152,-14.0656 -10.57675,10.41919 -9.64553,-10.40588 -6.9393,11.1906 -8.7795,-15.22183 -8.22753,15.22183 -2.06394,-24.79606 z" sodipodi:nodetypes="ccccccccccccccc" />
    <path id="path19-5" style="fill:#a03529;fill-opacity:1;stroke-width:1.88985;stroke-linecap:square;stroke-dasharray:1.88985, 3.77968;paint-order:markers stroke fill" inkscape:transform-center-x="2.6914179" inkscape:transform-center-y="2.5365553" d="m 56.414223,54.934664 6.806148,2.957203 -4.994996,-0.791524 -3.388457,15.999348 z" sodipodi:nodetypes="ccccc" />
    <path id="path19-5-2" style="fill:#a03529;fill-opacity:1;stroke-width:1.88985;stroke-linecap:square;stroke-dasharray:1.88985, 3.77968;paint-order:markers stroke fill" inkscape:transform-center-x="2.6914181" inkscape:transform-center-y="2.5365549" d="m 50.078423,55.783198 5.769175,1.104847 -3.994734,1.190618 -3.189883,21.305176 z" sodipodi:nodetypes="ccccc" />
    <path id="rect23" style="fill:#ffebe0;fill-opacity:1;stroke-width:1.88985;stroke-linecap:square;stroke-dasharray:1.88985, 3.77968;paint-order:markers stroke fill" d="m 96.183766,158.37476 14.583604,-0.40566 8.1328,13.57113 -14.88833,2.54595 z" sodipodi:nodetypes="ccccc" />
    <path id="path28" style="fill:#383c3f;stroke-width:1.88985;stroke-linecap:square;stroke-dasharray:1.88985, 3.77968;paint-order:markers stroke fill" inkscape:transform-center-x="1.0228212" inkscape:transform-center-y="0.22862303" d="m 136.20217,208.23932 -7.11806,-6.69511 1.69304,-4.61667 5.23782,1.70848 z" sodipodi:nodetypes="ccccc" />
    <path id="path53" style="fill:#ffded3;stroke-width:2.307;stroke-linecap:square;paint-order:markers stroke fill" inkscape:transform-center-x="-0.61763742" inkscape:transform-center-y="-1.1240981" d="m 128.63189,190.83576 8.45297,6.09178 -10.07632,3.21612 z" sodipodi:nodetypes="cccc" />
    <path id="rect25" style="fill:#495355;stroke-width:1.88985;stroke-linecap:square;stroke-dasharray:1.88985, 3.77968;paint-order:markers stroke fill" d="m 110.05459,158.84287 1.34909,-2.7218 3.3671,0.47944 21.24418,42.03551 -6.93087,2.90819 z" sodipodi:nodetypes="cccccc" />
    <path id="rect24-1" style="fill:#ffebe0;fill-opacity:1;stroke-width:1.88985;stroke-linecap:square;stroke-dasharray:1.88985, 3.77968;paint-order:markers stroke fill" d="m 105.84841,167.14129 5.75151,-3.64342 9.93078,12.49149 4.04169,24.1543 -1.96858,6.18225 -12.83644,-4.49486 3.17898,-23.07999 z" sodipodi:nodetypes="cccccccc" />
    <path id="path26" style="fill:#ffc2ac;fill-opacity:1;stroke-width:1.88985;stroke-linecap:square;stroke-dasharray:1.88985, 3.77968;paint-order:markers stroke fill" inkscape:transform-center-x="-0.16404513" inkscape:transform-center-y="0.97569014" d="m 113.83609,174.08618 -10.32269,16.63279 3.05721,-29.02753 z" sodipodi:nodetypes="cccc" />
    <path id="path26-0" style="fill:#ffc2ac;fill-opacity:1;stroke-width:1.88985;stroke-linecap:square;stroke-dasharray:1.88985, 3.77968;paint-order:markers stroke fill" inkscape:transform-center-x="-0.16404367" inkscape:transform-center-y="0.97568918" d="m 121.5307,175.98936 4.04169,24.1543 -5.31107,-23.19007 -9.96305,-15.07912 z" sodipodi:nodetypes="ccccc" />
    <path id="rect24-1-4" style="fill:#ffebe0;fill-opacity:1;stroke-width:1.88985;stroke-linecap:square;stroke-dasharray:1.88985, 3.77968;paint-order:markers stroke fill" d="m 96.09842,161.38003 8.97386,-3.02155 7.06579,15.71751 -9.06764,17.49779 -6.266358,3.38933 -8.694774,-12.53725 14.608562,-11.0745 z" sodipodi:nodetypes="cccccccc" />
    <path id="path27" style="fill:#ffdcbd;stroke-width:2.244;stroke-linecap:square;stroke-dasharray:2.244, 4.48799;paint-order:markers stroke fill" inkscape:transform-center-x="0.071007775" inkscape:transform-center-y="-1.6832994" d="m 237.87546,-41.838075 -16.34973,18.20715 14.556,-38.1453 z" sodipodi:nodetypes="cccc" />
    <path id="rect24" style="fill:#fff4de;stroke-width:2.244;stroke-linecap:square;stroke-dasharray:2.244, 4.48799;paint-order:markers stroke fill" d="m 200.35554,-78.710282 6.89342,1.51464 -0.64924,21.64075 -13.99494,19.44417 -11.11305,-9.8293 19.28791,-14.10436 z" sodipodi:nodetypes="ccccccc" />
    <path id="path29" style="fill:#ffffff;fill-opacity:1;stroke:#692626;stroke-width:1.72141;stroke-linecap:square;stroke-dasharray:none;stroke-opacity:1;paint-order:markers stroke fill" inkscape:transform-center-x="0.33247692" inkscape:transform-center-y="0.70942122" d="m 71.106809,86.624238 -7.237046,-4.986156 6.006584,-5.099656 7.168785,3.742515 z" sodipodi:nodetypes="ccccc" />
    <path id="path31" style="fill:#43b862;fill-opacity:1;stroke-width:3.16843;stroke-linecap:square;paint-order:markers stroke fill" inkscape:transform-center-x="0.43947758" inkscape:transform-center-y="0.2218099" d="m 69.046318,83.890446 -2.394871,-3.586047 1.984769,-2.485102 1.638641,1.964736 z" sodipodi:nodetypes="ccccc" />
    <path id="path29-8" style="fill:#ffffff;fill-opacity:1;stroke:#692626;stroke-width:1.72141;stroke-linecap:square;stroke-dasharray:none;stroke-opacity:1;paint-order:markers stroke fill" inkscape:transform-center-x="0.33247702" inkscape:transform-center-y="0.70942089" d="m 86.454212,85.651889 -6.587684,-4.174841 6.006584,-5.099656 7.168784,3.742515 z" sodipodi:nodetypes="ccccc" />
    <path id="path34" style="fill:#692626;stroke-width:1.72141;stroke-linecap:square;paint-order:markers stroke fill" inkscape:transform-center-y="0.45224319" d="m 63.751734,81.630356 6.04302,-5.61149 7.737969,4.32326 z" sodipodi:nodetypes="cccc" />
    <path id="path2" style="fill:#da4836;fill-opacity:1;stroke-width:1.9429;stroke-linecap:square;paint-order:markers stroke fill" inkscape:transform-center-x="-0.76424083" inkscape:transform-center-y="1.0283833" d="M 72.89452,84.555155 C 64.579838,77.867348 66.436229,66.553525 66.857079,57.810299 L 75.4759,62.56507 c -3.082425,7.804742 -6.096983,15.575259 -2.58138,21.990085 z" sodipodi:nodetypes="cccc" />
    <path id="path19" style="fill:#a03529;fill-opacity:1;stroke-width:1.88985;stroke-linecap:square;stroke-dasharray:1.88985, 3.77968;paint-order:markers stroke fill" inkscape:transform-center-x="0.066431988" inkscape:transform-center-y="0.81527056" d="m 65.196871,56.652168 8.225302,4.385772 -6.34026,-1.078739 -0.448485,12.285902 z" sodipodi:nodetypes="ccccc" />
    <path id="path32" style="fill:#ffc2ac;fill-opacity:1;stroke-width:2.14055;stroke-linecap:square;paint-order:markers stroke fill" inkscape:transform-center-x="0.27510752" inkscape:transform-center-y="-0.08235391" d="m 79.546836,87.285078 -1.041523,0.28406 -1.216504,0.10993 0.74604,-0.95672 -0.465732,-0.838336 1.805424,-2.666152 -0.434861,1.82397 0.02152,0.967852 z" sodipodi:nodetypes="ccccccccc" />
    <path id="path31-5" style="fill:#43b862;fill-opacity:1;stroke-width:3.16843;stroke-linecap:square;paint-order:markers stroke fill" inkscape:transform-center-x="0.43947788" inkscape:transform-center-y="0.22180974" d="m 85.392458,83.38096 -2.393586,-3.577114 1.98477,-2.485102 1.686449,2.418902 z" sodipodi:nodetypes="ccccc" />
    <path sodipodi:type="star" style="fill:#692626;fill-opacity:1;stroke:none;stroke-width:2.044;stroke-linecap:square;stroke-dasharray:none;stroke-dashoffset:0;stroke-opacity:1;paint-order:markers stroke fill" id="path33" inkscape:flatsided="true" sodipodi:sides="3" sodipodi:cx="27.7586" sodipodi:cy="39.707855" sodipodi:r1="3.7080827" sodipodi:r2="1.8540415" sodipodi:arg1="-2.7161828" sodipodi:arg2="-1.6689853" inkscape:rounded="0" inkscape:randomized="0" d="m 24.38102,38.177551 6.391652,-0.629614 -2.650564,5.85014 z" inkscape:transform-center-x="1.0026891" inkscape:transform-center-y="-0.33229885" transform="matrix(0.81300731,0.21973197,-0.21973197,0.81300731,47.664177,39.721334)" />
    <path sodipodi:type="star" style="fill:#692626;fill-opacity:1;stroke:none;stroke-width:2.044;stroke-linecap:square;stroke-dasharray:none;stroke-dashoffset:0;stroke-opacity:1;paint-order:markers stroke fill" id="path33-0" inkscape:flatsided="true" sodipodi:sides="3" sodipodi:cx="27.7586" sodipodi:cy="39.707855" sodipodi:r1="3.7080827" sodipodi:r2="1.8540415" sodipodi:arg1="-2.7161828" sodipodi:arg2="-1.6689853" inkscape:rounded="0" inkscape:randomized="0" d="m 24.38102,38.177551 6.391652,-0.629614 -2.650564,5.85014 z" inkscape:transform-center-x="-1.5726853" inkscape:transform-center-y="-2.379297" transform="matrix(0.40342669,0.38854548,-0.38854548,0.40342669,68.185814,49.948615)" />
    <path sodipodi:type="star" style="fill:#692626;fill-opacity:1;stroke:none;stroke-width:2.044;stroke-linecap:square;stroke-dasharray:none;stroke-dashoffset:0;stroke-opacity:1;paint-order:markers stroke fill" id="path33-0-6" inkscape:flatsided="true" sodipodi:sides="3" sodipodi:cx="27.7586" sodipodi:cy="39.707855" sodipodi:r1="3.7080827" sodipodi:r2="1.8540415" sodipodi:arg1="-2.7161828" sodipodi:arg2="-1.6689853" inkscape:rounded="0" inkscape:randomized="0" d="m 24.38102,38.177551 6.391652,-0.629614 -2.650564,5.85014 z" inkscape:transform-center-x="-1.3801099" inkscape:transform-center-y="3.5116729" transform="matrix(0.74639667,-0.39386931,-0.39386931,-0.74639667,58.761809,126.2401)" />
    <path sodipodi:type="star" style="fill:#692626;fill-opacity:1;stroke:none;stroke-width:2.044;stroke-linecap:square;stroke-dasharray:none;stroke-dashoffset:0;stroke-opacity:1;paint-order:markers stroke fill" id="path33-0-3" inkscape:flatsided="true" sodipodi:sides="3" sodipodi:cx="27.7586" sodipodi:cy="39.707855" sodipodi:r1="3.7080827" sodipodi:r2="1.8540415" sodipodi:arg1="-2.7161828" sodipodi:arg2="-1.6689853" inkscape:rounded="0" inkscape:randomized="0" d="m 24.38102,38.177551 6.391652,-0.629614 -2.650564,5.85014 z" inkscape:transform-center-x="2.3401701" inkscape:transform-center-y="1.9547659" transform="matrix(0.5520222,-0.09482703,0.09482703,0.5520222,41.613775,61.387908)" />
    <path sodipodi:type="star" style="fill:#692626;fill-opacity:1;stroke:none;stroke-width:2.044;stroke-linecap:square;stroke-dasharray:none;stroke-dashoffset:0;stroke-opacity:1;paint-order:markers stroke fill" id="path33-7" inkscape:flatsided="true" sodipodi:sides="3" sodipodi:cx="27.7586" sodipodi:cy="39.707855" sodipodi:r1="3.7080827" sodipodi:r2="1.8540415" sodipodi:arg1="-2.7161828" sodipodi:arg2="-1.6689853" inkscape:rounded="0" inkscape:randomized="0" d="m 24.38102,38.177551 6.391652,-0.629614 -2.650564,5.85014 z" inkscape:transform-center-x="-0.76320885" inkscape:transform-center-y="-0.59494661" transform="matrix(-0.78784882,0.29758574,0.29758574,0.78784882,105.51089,36.656713)" />
    <path sodipodi:type="star" style="fill:#692626;fill-opacity:1;stroke:none;stroke-width:2.044;stroke-linecap:square;stroke-dasharray:none;stroke-dashoffset:0;stroke-opacity:1;paint-order:markers stroke fill" id="path33-0-8" inkscape:flatsided="true" sodipodi:sides="3" sodipodi:cx="27.7586" sodipodi:cy="39.707855" sodipodi:r1="3.7080827" sodipodi:r2="1.8540415" sodipodi:arg1="-2.7161828" sodipodi:arg2="-1.6689853" inkscape:rounded="0" inkscape:randomized="0" d="m 24.38102,38.177551 6.391652,-0.629614 -2.650564,5.85014 z" inkscape:transform-center-x="1.6879722" inkscape:transform-center-y="-2.3524372" transform="matrix(-0.36382011,0.42585867,0.42585867,0.36382011,86.078507,48.827061)" />
    <path sodipodi:type="star" style="fill:#692626;fill-opacity:1;stroke:none;stroke-width:2.044;stroke-linecap:square;stroke-dasharray:none;stroke-dashoffset:0;stroke-opacity:1;paint-order:markers stroke fill" id="path33-0-6-9" inkscape:flatsided="true" sodipodi:sides="3" sodipodi:cx="27.7586" sodipodi:cy="39.707855" sodipodi:r1="3.7080827" sodipodi:r2="1.8540415" sodipodi:arg1="-2.7161828" sodipodi:arg2="-1.6689853" inkscape:rounded="0" inkscape:randomized="0" d="m 24.38102,38.177551 6.391652,-0.629614 -2.650564,5.85014 z" inkscape:transform-center-x="0.87163653" inkscape:transform-center-y="3.4212342" transform="matrix(-0.78109375,-0.31958352,0.31958352,-0.78109375,102.86103,123.84405)" />
    <path sodipodi:type="star" style="fill:#692626;fill-opacity:1;stroke:none;stroke-width:2.044;stroke-linecap:square;stroke-dasharray:none;stroke-dashoffset:0;stroke-opacity:1;paint-order:markers stroke fill" id="path33-0-3-2" inkscape:flatsided="true" sodipodi:sides="3" sodipodi:cx="27.7586" sodipodi:cy="39.707855" sodipodi:r1="3.7080827" sodipodi:r2="1.8540415" sodipodi:arg1="-2.7161828" sodipodi:arg2="-1.6689853" inkscape:rounded="0" inkscape:randomized="0" d="m 24.38102,38.177551 6.391652,-0.629614 -2.650564,5.85014 z" inkscape:transform-center-x="-2.3962016" inkscape:transform-center-y="1.8426778" transform="matrix(-0.55861878,-0.04081368,-0.04081368,0.55861878,113.63517,57.633934)" />
    <path id="path34-6" style="fill:#692626;stroke-width:1.72141;stroke-linecap:square;paint-order:markers stroke fill" inkscape:transform-center-y="0.45224311" d="m 79.7221,81.476417 6.04302,-5.61149 7.737969,4.32326 z" sodipodi:nodetypes="cccc" />
    <path id="path35" style="fill:#692626;fill-opacity:1;stroke-width:1.72141;stroke-linecap:square;paint-order:markers stroke fill" inkscape:transform-center-x="2.5898486" inkscape:transform-center-y="-1.8822667" d="m 79.731632,91.138748 -1.862514,1.31834 -4.434495,0.0566 -2.869445,-4.74603 z" sodipodi:nodetypes="ccccc" />
    <path id="path36" style="fill:#ffffff;stroke-width:1.72141;stroke-linecap:square;paint-order:markers stroke fill" inkscape:transform-center-x="1.7189111" inkscape:transform-center-y="-1.3382767" d="m 73.48374,92.171688 c 0.736365,-0.71003 0.502528,-1.75376 -0.312354,-2.99735 l 5.695913,1.98613 c -0.770493,0.20784 -1.575057,0.40401 -1.111127,1.03452 z" sodipodi:nodetypes="ccccc" />
    <path id="path37" style="fill:#da4836;fill-opacity:1;stroke-width:1.72141;stroke-linecap:square;paint-order:markers stroke fill" inkscape:transform-center-x="0.30348687" inkscape:transform-center-y="-2.0153882" d="M 61.035795,51.880699 47.582764,52.472298 58.637848,42.3147 Z" sodipodi:nodetypes="cccc" />
    <path sodipodi:type="star" style="fill:#da4836;fill-opacity:1;stroke:none;stroke-width:2.044;stroke-linecap:square;stroke-dasharray:none;stroke-dashoffset:0;stroke-opacity:1;paint-order:markers stroke fill" id="path38" inkscape:flatsided="true" sodipodi:sides="3" sodipodi:cx="31.334862" sodipodi:cy="-2.8383026" sodipodi:r1="10.942752" sodipodi:r2="5.4713759" sodipodi:arg1="1.9647894" sodipodi:arg2="3.0119869" inkscape:rounded="0" inkscape:randomized="0" d="m 27.134173,7.2660547 -2.449597,-18.7944387 17.50126,7.2758055 z" inkscape:transform-center-x="-1.7688626" inkscape:transform-center-y="0.59553609" transform="matrix(0.84217755,0,0,0.84217755,39.635998,44.150107)" />
    <path id="path40" style="fill:#ffc2ac;stroke-width:2.044;stroke-linecap:square;paint-order:markers stroke fill" inkscape:transform-center-x="-0.31998796" inkscape:transform-center-y="-3.9726385" d="m 284.21245,-100.85098 13.60177,11.723487 -13.32822,-9.657942 -9.07656,7.202362 z" sodipodi:nodetypes="ccccc" />
    <path id="path44" style="fill:#692626;stroke-width:2.044;stroke-linecap:square;paint-order:markers stroke fill" inkscape:transform-center-x="-0.21101652" inkscape:transform-center-y="-0.64133823" d="m 239.68511,-9.2742348 -7.34083,-1.6251832 -2.64369,2.6296222 2.22166,-5.3099952 z" sodipodi:nodetypes="ccccc" />
    <path id="path44-1" style="fill:#692626;stroke-width:2.044;stroke-linecap:square;paint-order:markers stroke fill" inkscape:transform-center-x="0.21101648" inkscape:transform-center-y="-0.64133823" d="m 244.73107,-9.3215318 7.34084,-1.6251832 2.64369,2.6296222 -2.22165,-5.3099952 z" sodipodi:nodetypes="ccccc" />
    <path style="fill:#fb6d61;fill-opacity:1;stroke-width:2.307;stroke-linecap:square;paint-order:markers stroke fill" d="m 136.20217,215.4697 25.31983,0.48168" id="path15" />
    <path style="fill:#ff5454;fill-opacity:1;fill-rule:nonzero;stroke:none;stroke-width:2.307;stroke-linecap:square;stroke-opacity:1;paint-order:markers stroke fill" d="m 136.20217,208.23932 c 0.53096,1.08124 0.83286,2.09271 0.9376,3.04131 0.10462,0.94751 0.0124,1.83092 -0.24367,2.65709 -0.25596,0.82593 -0.67743,1.60047 -1.23782,2.32817 -0.211,0.274 -0.44197,0.5417 -0.69161,0.80322 -0.41396,0.43368 -0.87671,0.85356 -1.3821,1.26142 -1.62011,1.30745 -3.68481,2.49652 -5.99395,3.61783 -2.31096,1.1222 -4.85732,2.17212 -7.4439,3.20542 -2.56154,1.0233 -5.22551,2.05456 -7.65743,3.09983 -2.42616,1.0428 -4.78194,2.16594 -6.73487,3.42009 -0.98465,0.63233 -1.91821,1.33008 -2.73113,2.11104 -0.813,0.78103 -1.54938,1.68732 -2.08635,2.74717 -0.54546,1.0766 -0.87078,2.28582 -0.87254,3.60931 -0.002,1.31702 0.31699,2.62509 0.89881,3.89646 1.02795,2.10362 2.36686,3.87152 4.05459,5.24373 1.69497,1.3781 3.62937,2.26488 5.70668,2.73757 2.05575,0.46777 4.20296,0.52014 6.35602,0.29841 2.15252,-0.22168 4.36814,-0.72316 6.5986,-1.40797 4.4425,-1.36396 9.17284,-3.52785 13.9209,-5.96741 4.74891,-2.44 9.68895,-5.24817 14.476,-7.91486 4.83841,-2.6953 9.52659,-5.24984 13.96513,-7.31576 4.47049,-2.08079 8.41819,-3.53531 11.74595,-4.16378 1.64159,-0.31003 3.00935,-0.3941 4.12137,-0.30382 1.1042,0.0897 1.87439,0.34338 2.42741,0.6505 0.5232,0.29055 0.97031,0.69493 1.4024,1.26326 0.44805,0.58931 0.99048,1.50614 1.50955,2.93336 1.06065,2.89978 1.30131,6.03624 0.77165,9.41282 -0.53671,3.42159 -1.8806,7.16424 -4.08056,11.11508 -2.19816,3.9476 -5.19599,8.00219 -8.90848,11.99873 -3.70725,3.99089 -8.07238,7.86459 -12.94269,11.45408 -9.77174,7.20193 -21.33798,13.08459 -33.25592,16.50168 -11.94846,3.42584 -23.79979,4.25116 -34.398523,1.91261 C 89.713639,291.43194 84.85967,289.5451 79.915425,286.84018 74.967799,284.1334 69.977298,280.63292 65.014473,276.40882 55.063889,267.93941 45.479092,256.77718 36.85259,243.95978 28.242294,231.16646 20.728226,216.93352 14.849267,202.5048 8.9634725,188.05929 4.8025466,173.62922 2.7602693,160.44879 2.7104455,160.12705 2.6615098,159.80426 2.6134687,159.48043 1.0604781,149.01239 0.41029791,137.55685 0.85316129,125.87459 1.3098584,113.82741 2.9241731,101.66538 5.8380167,90.202659 8.7538903,78.73196 12.938094,68.088304 18.472372,58.961285 c 5.515891,-9.096696 12.376109,-16.698772 20.74937,-22.208672 6.33718,-4.303476 14.073394,-8.367757 22.388741,-11.381642 8.312039,-3.012687 17.08439,-4.934054 25.563617,-5.077739 4.233534,-0.07174 8.395277,0.299318 12.402263,1.198516 4.002847,0.89827 7.885267,2.331015 11.559267,4.410511 3.67418,2.079596 7.1864,4.832416 10.41582,8.407244 3.23293,3.5787 6.19516,7.995956 8.73789,13.397457 3.99136,8.201823 5.45742,14.979269 5.4328,20.591091 -0.0247,5.633586 -1.55466,10.218089 -3.7142,13.907232 -0.39427,0.673517 -0.80825,1.314884 -1.23587,1.924829 -1.91386,2.729816 -4.16955,4.694532 -6.0575,6.033762 -2.30473,1.634877 -4.02929,2.318504 -3.98138,2.440762 0.048,0.122475 1.7998,-0.557854 4.23006,-2.066111 1.97831,-1.227768 4.4582,-3.034978 6.9038,-5.486173 0.55227,-0.553538 1.10053,-1.147214 1.63726,-1.783094 2.9248,-3.46507 5.54339,-8.229602 6.5434,-14.602457 1.00243,-6.38832 0.35382,-14.257309 -3.08628,-23.761329 -2.31333,-6.163343 -5.19418,-11.517409 -8.58415,-16.121016 -3.39349,-4.608377 -7.28197,-8.443439 -11.5777,-11.564333 -4.29522,-3.120524 -8.95254,-5.494153 -13.8461,-7.212879 C 98.064212,8.2900273 92.968445,7.2366871 87.798302,6.731931 77.472021,5.7237861 66.834095,6.9012153 56.829449,9.3604368 46.83177,11.817946 37.322327,15.590578 29.193538,19.899064 17.346799,26.415922 7.6620775,35.791099 -0.0290156,46.824051 c -7.6713841,11.00468 -13.3661834,23.661406 -17.3469004,36.89779 -3.981615,13.239378 -6.286008,27.180239 -7.119028,40.882709 -0.807687,13.28576 -0.238748,26.45472 1.580061,38.67051 0.05648,0.37936 0.114137,0.75787 0.172962,1.1355 2.417925,15.53047 7.298362,31.91907 13.9569381,47.85355 6.666624,15.95374 15.2007706,31.65661 25.0634739,45.80369 9.848528,14.12675 21.161839,26.90233 33.457236,36.82412 6.160435,4.97117 12.63009,9.27639 19.344177,12.66843 6.723457,3.39678 13.72903,5.89787 20.939597,7.20713 15.196189,2.77258 30.803539,0.7705 45.101969,-3.9578 14.32824,-4.73816 27.7766,-12.35009 38.89967,-21.37467 5.57697,-4.52482 10.62567,-9.44998 14.93977,-14.61741 4.30946,-5.16186 7.93606,-10.62585 10.60856,-16.2315 2.67015,-5.60073 4.43803,-11.45081 4.8947,-17.32644 0.45997,-5.91806 -0.41945,-11.8009 -2.97129,-17.29229 -1.28326,-2.76496 -2.91757,-5.2024 -4.96113,-7.19838 -2.06427,-2.01621 -4.42779,-3.46444 -6.99832,-4.35887 -2.54386,-0.88515 -5.12945,-1.17361 -7.62759,-1.08399 -2.48421,0.0891 -4.94397,0.55368 -7.31218,1.22739 -4.68519,1.33285 -9.50862,3.63168 -14.15376,6.2079 -4.67957,2.59531 -9.49277,5.6522 -14.13986,8.6553 -4.71142,3.04467 -9.24647,6.02985 -13.62814,8.67986 -4.37893,2.64835 -8.39528,4.83136 -11.97655,6.27541 -1.77971,0.71761 -3.38926,1.22678 -4.83322,1.52657 -1.44115,0.29921 -2.66402,0.37867 -3.69689,0.27911 -1.01014,-0.0974 -1.89656,-0.36999 -2.69155,-0.85754 -0.81842,-0.50192 -1.6352,-1.28147 -2.41322,-2.54913 -0.33194,-0.44189 -0.5182,-0.79858 -0.61237,-1.04482 -0.0986,-0.25783 -0.15442,-0.53884 -0.0867,-0.91684 0.0697,-0.38935 0.27003,-0.86897 0.66234,-1.43366 0.39096,-0.56275 0.93989,-1.16309 1.6464,-1.79426 1.42265,-1.27096 3.33999,-2.54199 5.57045,-3.84308 2.22326,-1.2969 4.6706,-2.57495 7.15443,-3.89871 2.47198,-1.31746 4.95502,-2.66726 7.20201,-4.08684 2.24867,-1.42065 4.26826,-2.91549 5.81347,-4.52649 0.48207,-0.50258 0.91754,-1.01609 1.29878,-1.54144 0.22981,-0.31667 0.44092,-0.63654 0.63163,-0.96008 0.50739,-0.86081 0.86883,-1.74515 1.05448,-2.6604 0.18559,-0.91491 0.19415,-1.8543 0.003,-2.82364 -0.19118,-0.96822 -0.58202,-1.96702 -1.19593,-3.00142 z" id="path25" sodipodi:nodetypes="cazsaasc" inkscape:path-effect="#path-effect26" inkscape:original-d="m 136.20217,208.23932 c 9.15962,16.92527 -39.579701,20.37275 -32.19033,34.16502 14.4285,26.93082 75.92184,-48.95885 90.35851,-15.37519 C 208.80701,260.61281 143.8059,313.84407 92.226407,303.6267 44.500916,294.17277 -1.071306,219.84526 -9.9908256,162.42968 -17.215957,115.92099 -6.2401728,52.393149 34.207634,28.325842 63.148686,11.105299 114.20351,0.05089639 133.62539,46.306224 c 14.87156,35.418241 -12.8922,46.298412 -12.8922,46.298412" />
    <path id="path43" style="fill:#ff5454;stroke-width:2.307;stroke-linecap:square;paint-order:markers stroke fill" inkscape:transform-center-x="5.1378767" inkscape:transform-center-y="-2.7419191" d="M 8.9133677,143.47545 C 6.8549406,170.70434 5.0315769,199.94278 25.004712,223.79926 -12.231444,196.00379 -20.715326,156.5215 -13.169726,120.64146 -8.369783,97.817283 35.488408,70.359965 35.488408,70.359965 c 0,0 -24.620249,47.257505 -26.5750403,73.115485 z" sodipodi:nodetypes="acaca" />
    <path id="path45" style="fill:#ff5454;stroke-width:2.307;stroke-linecap:square;paint-order:markers stroke fill" inkscape:transform-center-x="3.3208099" inkscape:transform-center-y="-3.7621628" d="m 23.387614,129.75263 c -10.707177,41.44776 -3.019864,80.34074 7.810028,118.79724 l -45.989871,-60.97724 c 9.7229475,-20.43514 6.8710919,-45.73416 38.179843,-57.82 z" sodipodi:nodetypes="cccc" />
    <path id="path47" style="fill:#ff5454;stroke-width:2.307;stroke-linecap:square;paint-order:markers stroke fill" inkscape:transform-center-x="-2.7909664" inkscape:transform-center-y="-2.2607765" transform="scale(0.26458333)" d="m 107.38362,627.50605 c -9.825968,144.85703 30.63225,265.383 91.45065,376.05725 L 18.706604,807.86577 C 46.146141,744.9615 55.141176,657.8265 107.38362,627.50605 Z" sodipodi:nodetypes="cccc" />
    <path id="path48" style="fill:#ff5454;stroke-width:2.307;stroke-linecap:square;paint-order:markers stroke fill" inkscape:transform-center-x="-0.41704779" inkscape:transform-center-y="-1.0374005" d="m 20.662843,121.08116 c 0,0 0.567222,-8.66188 2.798931,-12.17916 2.239185,-3.52906 9.859899,-7.74572 9.859899,-7.74572 0,0 -2.016266,10.02183 -5.30293,14.16597 -2.065685,2.60461 -7.3559,5.75891 -7.3559,5.75891 z" sodipodi:nodetypes="cscsc" />
    <path id="path48-7" style="fill:#ff5454;stroke-width:1.69366;stroke-linecap:square;paint-order:markers stroke fill" inkscape:transform-center-x="-0.30617135" inkscape:transform-center-y="-0.76159693" d="m 29.143461,94.992893 c 0,0 0.41642,-6.359032 2.054807,-8.941207 1.643875,-2.590824 7.238545,-5.686442 7.238545,-5.686442 0,0 -1.480221,7.357425 -3.893092,10.399803 -1.516502,1.912149 -5.40026,4.227846 -5.40026,4.227846 z" sodipodi:nodetypes="cscsc" />
    <path id="path48-8" style="fill:#ff5454;stroke-width:2.307;stroke-linecap:square;paint-order:markers stroke fill" inkscape:transform-center-x="-0.41704779" inkscape:transform-center-y="-1.0374005" d="m 28.045833,146.6603 c 0,0 -1.022228,-12.86257 1.209481,-16.37985 2.239185,-3.52906 18.034211,-12.40053 18.034211,-12.40053 0,0 -4.854568,17.51494 -8.141232,21.65908 -2.065685,2.60461 -11.10246,7.1213 -11.10246,7.1213 z" sodipodi:nodetypes="cscsc" />
    <path id="path48-8-9" style="fill:#ff5454;stroke-width:2.307;stroke-linecap:square;paint-order:markers stroke fill" inkscape:transform-center-x="-0.41704779" inkscape:transform-center-y="-1.0374005" d="m 33.441019,175.65581 c 0,0 1.948107,-10.7355 4.179816,-14.25278 2.239185,-3.52906 10.407675,-8.34609 10.407675,-8.34609 0,0 -1.723674,10.2898 -5.010338,14.43394 -2.065685,2.60461 -9.577153,8.16493 -9.577153,8.16493 z" sodipodi:nodetypes="cscsc" />
    <path id="path48-8-9-8" style="fill:#ff5454;stroke-width:1.55445;stroke-linecap:square;paint-order:markers stroke fill" inkscape:transform-center-x="-0.28100535" inkscape:transform-center-y="-0.69899535" d="m 43.435129,146.6603 c 0,0 0.99151,-5.75581 2.495227,-8.12574 1.508754,-2.37787 7.012652,-5.62356 7.012652,-5.62356 0,0 -1.161405,6.93323 -3.375947,9.72553 -1.391851,1.75498 -6.131932,4.02377 -6.131932,4.02377 z" sodipodi:nodetypes="cscsc" />
    <path id="path48-8-9-8-4" style="fill:#ff5454;stroke-width:1.55445;stroke-linecap:square;paint-order:markers stroke fill" inkscape:transform-center-x="-0.28100535" inkscape:transform-center-y="-0.69899535" d="m 26.443702,163.21862 c 0,0 0.99151,-5.75581 2.495227,-8.12574 1.508755,-2.37787 7.012653,-5.62356 7.012653,-5.62356 0,0 -1.161406,6.93323 -3.375948,9.72553 -1.391851,1.75498 -6.131932,4.02377 -6.131932,4.02377 z" sodipodi:nodetypes="cscsc" />
    <path id="path51" style="fill:#ffded3;stroke-width:2.307;stroke-linecap:square;paint-order:markers stroke fill" inkscape:transform-center-x="0.6983689" inkscape:transform-center-y="-0.039247132" d="M 96.087746,193.93022 89.390245,182.355 96.183766,178.83264 Z" sodipodi:nodetypes="cccc" />
    <path id="path52" style="fill:#ffded3;stroke-width:2.307;stroke-linecap:square;paint-order:markers stroke fill" inkscape:transform-center-x="-1.0202143" inkscape:transform-center-y="-0.28383279" d="m 123.03478,204.84899 -10.89671,-4.22314 2.3256,-5.13614 z" sodipodi:nodetypes="cccc" />
    <path id="path54" style="fill:#8dc1d7;fill-opacity:1;stroke-width:2.307;stroke-linecap:square;paint-order:markers stroke fill" inkscape:transform-center-x="-0.20589128" inkscape:transform-center-y="-0.90546457" d="m 84.750444,128.3265 2.068396,3.37638 -2.634397,-0.5445 -4.031254,1.29786 z" sodipodi:nodetypes="ccccc" />
    <path id="path42" style="fill:#ffebe0;stroke-width:1.72141;stroke-linecap:square;paint-order:markers stroke fill" inkscape:transform-center-x="2.8397534" inkscape:transform-center-y="-0.14818627" d="m 75.556858,48.566285 -5.282001,-9.503341 -1.63864,-13.830284 6.920641,-1.379752 2.093895,9.481305 7.529722,8.214246 z" sodipodi:nodetypes="ccccccc" />
    <path id="rect42" style="fill:#ffebe0;stroke-width:1.72141;stroke-linecap:square;paint-order:markers stroke fill" d="m 105.09616,15.469528 2.35953,13.672526 -20.648182,15.463044 -0.324817,-7.492713 z" sodipodi:nodetypes="ccccc" />
    <path id="rect38" style="fill:#ffebe0;stroke-width:1.72141;stroke-linecap:square;paint-order:markers stroke fill" d="M 93.030788,34.065594 83.796462,52.744227 75.556858,48.566285 80.634641,28.325842 Z" sodipodi:nodetypes="ccccc" />
    <path id="rect41" style="fill:#ffebe0;stroke-width:1.72141;stroke-linecap:square;paint-order:markers stroke fill" d="m 84.293822,8.534643 10.034745,-2.920031 9.683273,8.252502 -15.258757,23.61841 -11.413067,5.112205 z" sodipodi:nodetypes="cccccc" />
    <path id="path49" style="fill:#ffc2ac;stroke-width:2.307;stroke-linecap:square;paint-order:markers stroke fill" inkscape:transform-center-x="0.42160946" inkscape:transform-center-y="0.1937889" d="m 85.240119,36.209597 -4.70517,-0.991378 2.429566,-0.616246 10.066273,-24.298669 z" sodipodi:nodetypes="ccccc" />
    <path sodipodi:type="star" style="opacity:1;fill:#8da1f3;fill-opacity:1;stroke:none;stroke-width:2.307;stroke-linecap:square;stroke-opacity:1;paint-order:markers stroke fill" id="path60" inkscape:flatsided="true" sodipodi:sides="3" sodipodi:cx="159.18369" sodipodi:cy="109.86303" sodipodi:r1="21.826548" sodipodi:r2="10.913274" sodipodi:arg1="2.3699307" sodipodi:arg2="3.4171283" inkscape:rounded="0" inkscape:randomized="0" d="m 143.53945,125.08328 10.28523,-36.378683 26.36225,27.096613 z" inkscape:transform-center-x="-2.6795" inkscape:transform-center-y="-2.9690927" transform="translate(-5.3306396,17.710612)" />
    <path sodipodi:type="star" style="opacity:1;fill:#8da1f3;fill-opacity:1;stroke:none;stroke-width:2.307;stroke-linecap:square;stroke-opacity:1;paint-order:markers stroke fill" id="path60-7" inkscape:flatsided="true" sodipodi:sides="3" sodipodi:cx="159.18369" sodipodi:cy="109.86303" sodipodi:r1="21.826548" sodipodi:r2="10.913274" sodipodi:arg1="2.3699307" sodipodi:arg2="3.4171283" inkscape:rounded="0" inkscape:randomized="0" d="m 143.53945,125.08328 10.28523,-36.378683 26.36225,27.096613 z" inkscape:transform-center-x="4.7971584" inkscape:transform-center-y="-5.3156017" transform="matrix(-1.7903134,0,0,1.7903134,458.62464,-136.43899)" />
    <path id="rect61-1" style="fill:#d85159;fill-opacity:1;stroke-width:2.307;stroke-linecap:square;paint-order:markers stroke fill" d="m 164.75591,50.794335 -28.04015,47.431782 1.73086,6.010123 6.77059,5.16202 33.70464,-48.801403 -1.73085,-6.010126 z m 20.54174,4.323214 -37.27362,56.627501 1.73086,6.01013 6.45302,5.55312 51.55733,-50.448918 -1.73085,-6.010127 z m 19.71564,30.417454 -44.53017,36.094997 1.73086,6.01013 4.6155,4.92161 50.02254,-32.976662 -1.73086,-6.010126 z m -68.42536,22.195897 -5.58495,2.30177 1.73085,6.01013 4.65001,3.8951 4.88528,-7.0329 -1.73086,-6.01014 z m 9.86013,12.1722 -6.54546,2.43081 1.73085,6.01013 6.13235,5.02248 6.38779,-6.27851 -1.73086,-6.01013 z m 13.03053,9.22872 -8.10752,-0.94749 1.73086,6.01013 4.00673,5.58237 7.33086,-4.77627 -1.73086,-6.01013 z" sodipodi:nodetypes="cccccccccccccccccccccccccccccccccccccccccc" />
    <path id="rect61" style="opacity:1;fill:#ff5454;stroke-width:2.307;stroke-linecap:square;paint-order:markers stroke fill" d="m 163.02506,44.784208 -26.3093,53.441909 6.77059,5.162013 33.70465,-48.801399 z m 20.54174,4.323215 -35.54277,62.637627 6.45303,5.55312 51.55733,-50.448915 z m 19.71563,30.417454 -42.79931,42.105123 4.6155,4.92161 50.02254,-32.976658 z m -68.42535,22.195893 -3.8541,8.3119 4.65001,3.8951 4.88527,-7.03291 z m 9.86013,12.1722 -4.81461,8.44094 6.13234,5.02248 6.38779,-6.27851 z m 13.03052,9.22872 -6.37666,5.06264 4.00673,5.58238 7.33086,-4.77628 z" sodipodi:nodetypes="cccccccccccccccccccccccccccccc" />
    <path sodipodi:type="star" style="opacity:1;fill:#8da1f3;fill-opacity:1;stroke:none;stroke-width:2.307;stroke-linecap:square;stroke-opacity:1;paint-order:markers stroke fill" id="path62" inkscape:flatsided="true" sodipodi:sides="3" sodipodi:cx="98.342171" sodipodi:cy="137.91988" sodipodi:r1="6.5839987" sodipodi:r2="3.2919991" sodipodi:arg1="1.5525057" sodipodi:arg2="2.5997032" inkscape:rounded="0" inkscape:randomized="0" d="m 98.462589,144.50277 -5.881584,-9.77006 11.401915,-0.20857 z" inkscape:transform-center-x="0.060210732" inkscape:transform-center-y="1.5935797" transform="translate(-0.13708134,4.6922226)" />
  </g>
</svg>
