<?xml version="1.0" encoding="UTF-8" standalone="no"?>
<!-- Created with Inkscape (http://www.inkscape.org/) -->

<svg
   width="210mm"
   height="297mm"
   viewBox="0 0 210 297"
   version="1.1"
   id="svg5"
   inkscape:version="1.2.1 (9c6d41e410, 2022-07-14)"
   sodipodi:docname="инфернум.svg"
   xmlns:inkscape="http://www.inkscape.org/namespaces/inkscape"
   xmlns:sodipodi="http://sodipodi.sourceforge.net/DTD/sodipodi-0.dtd"
   xmlns="http://www.w3.org/2000/svg"
   xmlns:svg="http://www.w3.org/2000/svg">
  <sodipodi:namedview
     id="namedview7"
     pagecolor="#ffffff"
     bordercolor="#666666"
     borderopacity="1.0"
     inkscape:showpageshadow="2"
     inkscape:pageopacity="0.0"
     inkscape:pagecheckerboard="0"
     inkscape:deskcolor="#d1d1d1"
     inkscape:document-units="mm"
     showgrid="false"
     inkscape:zoom="0.93806818"
     inkscape:cx="331.5324"
     inkscape:cy="541.00545"
     inkscape:window-width="2464"
     inkscape:window-height="1413"
     inkscape:window-x="87"
     inkscape:window-y="-9"
     inkscape:window-maximized="1"
     inkscape:current-layer="layer1" />
  <defs
     id="defs2" />
  <g
     inkscape:label="Слой 1"
     inkscape:groupmode="layer"
     id="layer1">
    <path
       id="rect17436-1"
       style="fill:#c2c2b1;fill-opacity:1;fill-rule:evenodd;stroke-width:0.264583"
       d="m 77.169034,248.27984 h 9.16753 l -4.281237,14.22442 -12.814048,1.79497 z"
       sodipodi:nodetypes="ccccc" />
    <path
       id="path17592-6"
       style="fill:#dddddd;fill-opacity:1;stroke-width:2.065;stroke-dashoffset:11.6651;paint-order:markers stroke fill"
       inkscape:transform-center-x="-0.18753773"
       inkscape:transform-center-y="0.37291924"
       d="m 75.89783,251.53787 -5.13302,10.9275 1.2392,2.70061 z m 2.578137,0.89349 -5.13302,10.9275 1.239201,2.70061 z m 2.875277,0.99477 -5.133021,10.9275 1.239201,2.70061 z m 2.587955,1.63607 -5.13302,10.9275 1.239201,2.70061 z" />
    <path
       id="rect17439-5"
       style="fill:#440f05;fill-opacity:1;fill-rule:evenodd;stroke-width:0.264583"
       d="m 70.519027,259.21351 3.938948,2.34342 8.372993,-1.44284 12.10137,6.10827 -1.33152,6.25259 -19.616515,-2.5736 -1.371152,-1.42817 -2.21641,1.34622 -6.110226,-0.94734 z"
       sodipodi:nodetypes="cccccccccc" />
    <path
       id="rect17436"
       style="fill:#c2c2b1;fill-opacity:1;fill-rule:evenodd;stroke-width:0.264583"
       d="m 60.653356,249.19622 h 9.16753 l -4.281237,14.22442 -12.814048,1.79497 z"
       sodipodi:nodetypes="ccccc" />
    <g
       id="g17360"
       transform="translate(-43.414177,93.841732)">
      <ellipse
         style="fill:#ffa4e6;fill-opacity:1;fill-rule:evenodd;stroke-width:0.264583"
         id="path16158-2"
         cx="124.66119"
         cy="125.22565"
         rx="5.9704199"
         ry="5.5628018" />
      <path
         id="rect16155-8"
         style="fill:#ffa4e6;fill-rule:evenodd;stroke-width:0.264583"
         d="m 99.271453,107.35314 8.677857,-2.83098 20.14943,17.0802 -3.43755,3.94996 z"
         sodipodi:nodetypes="ccccc" />
      <path
         id="path15956-1"
         style="fill:#6d9c87;fill-opacity:1;stroke-width:2.065;stroke-dashoffset:11.6651;paint-order:markers stroke fill"
         inkscape:transform-center-x="2.9492904"
         inkscape:transform-center-y="0.54259082"
         d="m 118.85536,70.646322 0.89682,5.378846 c 0.1941,2.890167 0.20483,5.779167 0.18083,8.667946 v 0 l -1.07765,2.971923 -10.05989,15.517383 c 0,0 8.7251,5.1947 12.3388,7.24393 l -11.38171,10.61537 c -6.5282,-2.95796 -17.808718,-11.01956 -17.808718,-11.01956 0,0 20.602918,-26.424056 26.911518,-39.375838 z"
         sodipodi:nodetypes="cccccccccc" />
      <path
         id="rect15959-0"
         style="fill:#50685e;fill-rule:evenodd;stroke-width:0.264583"
         d="m 103.6971,121.04172 12.86525,-15.17764 0.65358,3.81171 -0.65358,-3.81171 v 0 l 6.21068,5.49946 -1.10103,1.0087 -2.0868,1.91181 -1.6396,1.50211 -8.5075,7.79411 z"
         sodipodi:nodetypes="ccccccccccc" />
    </g>
    <path
       id="path13725-2"
       style="fill:#61453b;fill-opacity:1;stroke-width:2.065;stroke-dashoffset:11.6651;paint-order:markers stroke fill"
       inkscape:transform-center-x="-1.3680514"
       inkscape:transform-center-y="0.3490188"
       d="m 90.130018,230.67136 -3.769758,20.04863 2.763608,3.93488 -1.96079,1.91615 2.73643,4.25689 -25.042351,-5.27399 8.030513,-22.30441 -1.39637,-18.86534 11.52984,-0.94286 z"
       sodipodi:nodetypes="cccccccccc" />
    <path
       id="path17592"
       style="fill:#dddddd;fill-opacity:1;stroke-width:2.065;stroke-dashoffset:11.6651;paint-order:markers stroke fill"
       inkscape:transform-center-x="-0.18753773"
       inkscape:transform-center-y="0.37291924"
       d="m 59.382152,252.45425 -5.13302,10.9275 1.2392,2.70061 z m 2.578137,0.89349 -5.13302,10.9275 1.239201,2.70061 z m 2.875277,0.99477 -5.133021,10.9275 1.239201,2.70061 z m 2.587955,1.63607 -5.13302,10.9275 1.239201,2.70061 z" />
    <path
       id="path13725"
       style="fill:#6a5344;stroke-width:2.065;stroke-dashoffset:11.6651;paint-order:markers stroke fill"
       inkscape:transform-center-x="-1.3680514"
       inkscape:transform-center-y="0.3490188"
       d="m 78.802429,231.84489 -3.769765,20.04863 3.539252,4.49898 -2.736425,1.35205 2.736425,4.25689 -25.042353,-5.27399 -2.721614,-1.17505 5.616769,-3.92154 -2.408596,-1.70146 4.133471,-2.96399 3.410484,-12.54237 -1.396371,-18.86535 11.529844,-0.94286 z"
       sodipodi:nodetypes="cccccccccccccc" />
    <path
       id="path13638"
       style="fill:#50685e;stroke-width:2.065;stroke-dashoffset:11.6651;paint-order:markers stroke fill"
       inkscape:transform-center-x="0.35096486"
       inkscape:transform-center-y="1.0519751"
       d="m 69.923299,175.642 -8.593063,-12.55742 18.922207,0.61488 z"
       sodipodi:nodetypes="cccc" />
    <path
       id="path12875"
       style="fill:#7ea694;stroke-width:2.065;stroke-dashoffset:11.6651;paint-order:markers stroke fill"
       inkscape:transform-center-x="2.150642"
       inkscape:transform-center-y="1.8746686"
       d="M 60.163706,215.55769 C 56.028569,201.24416 52.370645,186.93063 57.823318,172.6171 l 23.453245,0.0688 c -3.061683,15.14628 -0.48237,28.03616 1.946832,40.98608 z"
       sodipodi:nodetypes="ccccc" />
    <path
       id="path13398-2"
       style="fill:#d9cfd7;fill-opacity:1;stroke-width:2.065;stroke-dashoffset:11.6651;paint-order:markers stroke fill"
       inkscape:transform-center-x="0.62786625"
       inkscape:transform-center-y="-0.040711701"
       d="m 69.923299,175.642 -6.387052,-6.22591 6.622963,-1.35502 5.676281,1.12167 z"
       sodipodi:nodetypes="ccccc" />
    <path
       id="path13398"
       style="fill:#ffa4e6;stroke-width:2.065;stroke-dashoffset:11.6651;paint-order:markers stroke fill"
       inkscape:transform-center-x="0.62786625"
       inkscape:transform-center-y="-0.040711701"
       d="m 70.330252,171.52542 c -3.206786,0.0285 -7.941211,-4.37932 -7.941211,-4.37932 l 7.495514,-1.35502 7.521105,1.69506 c 0,0 -4.14076,4.01323 -7.075408,4.03928 z"
       sodipodi:nodetypes="scccs" />
    <g
       id="g10520"
       transform="translate(-13.538462,88.846154)">
      <path
         id="path10297"
         style="fill:#bd7bab;stroke-width:0.264999;stroke-dashoffset:11.6651;paint-order:markers stroke fill"
         inkscape:transform-center-x="-0.9972006"
         inkscape:transform-center-y="-0.2208556"
         d="m 98.373959,53.150857 26.832061,-10.25455 c -7.08111,9.493864 -13.33666,20.271389 -45.955249,14.201951 z"
         sodipodi:nodetypes="cccc" />
      <path
         id="path6889"
         style="fill:#bd7bab;stroke-width:0.264999;stroke-dashoffset:11.6651;paint-order:markers stroke fill"
         inkscape:transform-center-x="-0.63461432"
         inkscape:transform-center-y="-3.5401513"
         d="M 55.846161,0.85795513 C 59.159316,1.5882102 59.087666,12.320598 61.815344,14.581964 72.675045,23.585138 76.330798,36.725597 76.252563,36.688171 75.292057,15.380729 68.979231,5.2592668 69.411864,-16.499999 c 0.107328,-5.398067 5.915818,-12.150932 6.073017,-18.311271 0.999473,2.359106 -1.789703,13.035118 1.695243,18.311271 13.147723,19.9054401 13.333329,44.609075 26.460066,52.036265 17.7799,10.059979 2.06528,15.560162 5.3947,18.91114 -1.18277,-0.197128 -41.274926,9.108229 -42.919533,-5.076923 0,0 -0.40248,3.649296 -2.517569,-1.9306 C 60.475172,39.201995 56.386162,27.446631 55.283378,19.743143 54.390914,13.508841 58.04399,4.2161692 55.846161,0.85795513 Z"
         sodipodi:nodetypes="cscscsscsssc" />
      <path
         id="path7048"
         style="fill:#bd7bab;stroke-width:0.264999;stroke-dashoffset:11.6651;paint-order:markers stroke fill"
         inkscape:transform-center-x="4.9358984"
         inkscape:transform-center-y="-3.1997469"
         d="m 89.314591,-40.170244 c 25.934499,29.619328 13.510489,57.272868 7.511537,85.255677 -1.40156,6.537744 0.12901,-6.602958 0,0 L 73.576497,37.870273 C 81.492702,13.581516 102.05106,-2.5412813 89.314591,-40.170244 Z"
         sodipodi:nodetypes="csccc" />
      <path
         id="path7051"
         style="fill:#bd7bab;stroke-width:0.264999;stroke-dashoffset:11.6651;paint-order:markers stroke fill"
         inkscape:transform-center-x="-5.8875552"
         inkscape:transform-center-y="-2.2263271"
         d="M 100.16389,-37.275261 C 90.681294,-8.4992421 97.028614,19.398088 95.460994,47.734761 L 120.67712,35.179956 C 111.0844,10.667169 104.81058,-0.67750959 100.16389,-37.275261 Z"
         sodipodi:nodetypes="cccc" />
      <path
         id="path7054"
         style="fill:#bd7bab;stroke-width:0.264999;stroke-dashoffset:11.6651;paint-order:markers stroke fill"
         inkscape:transform-center-x="-1.8333325"
         inkscape:transform-center-y="-0.10459464"
         d="m 58.22332,-27.979838 c -4.60059,-3.398505 1.408054,-12.382147 4.463795,-13.47883 -3.087584,2.742108 -3.966095,8.428273 0.660651,12.091764 3.952697,3.129773 3.461202,16.304061 3.08304,16.169357 0.84081,-0.220963 -2.480394,-10.551624 -8.207486,-14.782291 z"
         sodipodi:nodetypes="scscs" />
      <path
         id="path7054-7"
         style="fill:#bd7bab;stroke-width:0.264999;stroke-dashoffset:11.6651;paint-order:markers stroke fill"
         inkscape:transform-center-x="2.5976176"
         inkscape:transform-center-y="0.60240859"
         d="m 98.708408,-54.560655 c 0.446805,-5.126136 -4.40996,-17.830749 -7.555927,-18.328175 3.321411,2.103198 2.668181,12.968846 2.264454,17.898879 -0.411497,5.024937 2.532075,18.140908 2.879329,17.939501 -0.867006,-0.06392 1.793871,-10.416828 2.412144,-17.510205 z"
         sodipodi:nodetypes="scscs" />
      <path
         id="path8509"
         style="fill:#bd7bab;stroke-width:0.264999;stroke-dashoffset:11.6651;paint-order:markers stroke fill"
         inkscape:transform-center-x="0.8022563"
         inkscape:transform-center-y="-1.025704"
         d="m 88.451807,-62.025956 c -1.8031,5.661079 -7.99803,17.413945 -1.70638,27.440299 19.598713,31.2324424 10.6526,73.942898 11.242749,86.285863 L 77.791577,-13.005123 c 3.49061,-6.438295 4.57397,-13.825467 0.64192,-23.61518 -3.494666,-8.70075 2.71839,-18.230322 10.01831,-25.405653 z"
         sodipodi:nodetypes="csccsc" />
      <path
         id="path8512"
         style="fill:#bd7bab;stroke-width:0.264999;stroke-dashoffset:11.6651;paint-order:markers stroke fill"
         inkscape:transform-center-x="-3.191045"
         inkscape:transform-center-y="-2.0729028"
         d="m 61.613752,-13.608114 c 3.860199,1.644276 4.708564,5.1253326 5.842644,7.4822138 C 73.841845,7.1445456 86.570353,18.689715 94.118621,23.721033 L 81.410296,49.45108 77.432479,49.742906 c -2.078318,-3.063338 -6.063441,4.741027 -7.899009,0.234423 -5.898514,-14.481774 -9.711549,-35.219638 -6.091118,-54.5288568 0.776091,-4.1392076 0.331946,-6.1907132 -1.8286,-9.0565862 z"
         sodipodi:nodetypes="cscccssc" />
      <path
         id="path9243"
         style="fill:#bd7bab;stroke-width:0.264999;stroke-dashoffset:11.6651;paint-order:markers stroke fill"
         inkscape:transform-center-x="2.115507"
         inkscape:transform-center-y="1.714131"
         d="m 108.32389,-20.986192 c 5.28313,9.219887 2.79033,13.5043444 4.80151,20.89033161 C 123.51335,38.053508 94.037046,39.243446 88.477332,51.415675 l 2.909584,-5.332169 -2.339241,-18.138807 c 8.998906,-5.399638 7.824666,-12.777178 9.806336,-26.6423871 1.04426,-7.3063548 10.941339,-12.0347409 9.469879,-22.2885039 z"
         sodipodi:nodetypes="cscccsc" />
      <path
         id="path9246"
         style="fill:#bd7bab;stroke-width:0.264999;stroke-dashoffset:11.6651;paint-order:markers stroke fill"
         inkscape:transform-center-x="5.1929518"
         inkscape:transform-center-y="0.66580135"
         d="M 119.54551,-0.87378891 C 119.73913,48.366832 123.26889,42.602167 109.03489,54.447406 L 92.438161,25.351974 c 13.773669,-6.691128 7.209507,26.274425 27.107349,-26.22576291 z"
         sodipodi:nodetypes="cccc" />
      <path
         id="path9249"
         style="fill:#bd7bab;stroke-width:0.264999;stroke-dashoffset:11.6651;paint-order:markers stroke fill"
         inkscape:transform-center-x="-1.1884309"
         inkscape:transform-center-y="0.04278028"
         d="m 116.73044,0.2013895 c -3.03252,-5.745007 -1.41008,-16.6864135 -5.98072,-27.6190065 4.51802,4.551615 5.24306,9.707282 5.11517,14.680315 -0.10398,4.0434585 0.0361,4.1834075 0.86555,12.9386915 z"
         sodipodi:nodetypes="ccsc" />
      <path
         id="path9282"
         style="fill:#bd7bab;stroke-width:0.264999;stroke-dashoffset:11.6651;paint-order:markers stroke fill"
         inkscape:transform-center-x="-2.8763491"
         inkscape:transform-center-y="3.6936712"
         d="m 48.763167,20.741799 c 9.379401,17.418797 29.064341,15.517742 43.347211,18.839065 L 81.103579,57.446878 C 65.050511,56.189449 44.973217,51.254959 48.763167,20.741799 Z"
         sodipodi:nodetypes="cccc" />
      <path
         id="path9282-9"
         style="fill:#bd7bab;stroke-width:0.264999;stroke-dashoffset:11.6651;paint-order:markers stroke fill"
         inkscape:transform-center-x="2.8763496"
         inkscape:transform-center-y="3.6936712"
         d="M 123.9954,10.980794 C 118.59758,34.650192 101.41824,33.972895 87.135366,37.294218 L 98.142165,55.160232 C 114.19523,53.902803 139.39302,46.054108 123.9954,10.980794 Z"
         sodipodi:nodetypes="cccc" />
    </g>
    <path
       sodipodi:type="star"
       style="fill:#ffa4e6;fill-opacity:1;stroke-width:0.23613;stroke-dashoffset:11.6651;paint-order:markers stroke fill"
       id="path9307"
       inkscape:flatsided="true"
       sodipodi:sides="3"
       sodipodi:cx="98.435898"
       sodipodi:cy="30.179485"
       sodipodi:r1="28.081459"
       sodipodi:r2="14.04073"
       sodipodi:arg1="2.0007488"
       sodipodi:arg2="3.0479464"
       inkscape:rounded="0"
       inkscape:randomized="0"
       d="M 86.730771,55.705126 82.182608,7.2797274 126.39431,27.553602 Z"
       inkscape:transform-center-x="-2.9810121"
       inkscape:transform-center-y="5.1547324"
       transform="matrix(1.0901891,-0.2663511,0.2663511,1.0901891,-35.475317,126.88197)" />
    <path
       id="rect10574"
       style="fill:#ffffff;fill-rule:evenodd;stroke:#bd7bab;stroke-width:2.065;stroke-dasharray:none;stroke-opacity:1;paint-order:markers stroke fill"
       d="m 49.5,128.89743 29.615384,0.14103 -3.948718,12.48077 H 54.929487 Z"
       sodipodi:nodetypes="ccccc" />
    <path
       id="rect10574-7"
       style="fill:#ffffff;fill-rule:evenodd;stroke:#bd7bab;stroke-width:2.065;stroke-dasharray:none;stroke-opacity:1;paint-order:markers stroke fill"
       d="m 112.98762,132.37101 -28.417703,-5.53891 2.415541,10.97431 19.276572,2.50037 z"
       sodipodi:nodetypes="ccccc" />
    <path
       id="path13401"
       style="fill:#7ea694;stroke-width:2.065;stroke-dashoffset:11.6651;paint-order:markers stroke fill"
       inkscape:transform-center-x="0.75166514"
       inkscape:transform-center-y="-0.27101099"
       d="m 70.07202,177.17696 -9.258591,-3.02637 -1.762109,-6.9069 10.397119,3.4972 z"
       sodipodi:nodetypes="ccccc" />
    <path
       id="path13401-4"
       style="fill:#7ea694;stroke-width:2.065;stroke-dashoffset:11.6651;paint-order:markers stroke fill"
       inkscape:transform-center-x="-0.75166486"
       inkscape:transform-center-y="-0.27101099"
       d="m 69.923299,175.642 10.238455,-1.5768 1.762109,-6.90691 -10.397119,3.49721 z"
       sodipodi:nodetypes="ccccc" />
    <path
       id="path14666"
       style="fill:#61453b;fill-opacity:1;stroke-width:2.065;stroke-dashoffset:11.6651;paint-order:markers stroke fill"
       inkscape:transform-center-x="3.6424632"
       inkscape:transform-center-y="2.935437"
       d="m 69.1752,213.74312 -4.559064,-0.51046 c -2.345676,-6.06163 -4.817652,-19.66478 -4.817652,-19.66478 0,0 0.649954,-14.44001 0.149656,-20.94535 l 4.174431,-2.96341 c 0.219366,7.98621 -0.586324,23.46063 -0.586324,23.46063 0,0 3.868267,14.43717 5.638953,20.62337 z"
       sodipodi:nodetypes="ccccccc" />
    <path
       id="path14666-2"
       style="fill:#61453b;fill-opacity:1;stroke-width:2.065;stroke-dashoffset:11.6651;paint-order:markers stroke fill"
       inkscape:transform-center-x="3.6424632"
       inkscape:transform-center-y="2.935437"
       d="m 81.815284,214.4232 -4.559064,-0.51046 c -2.493309,-6.44314 -4.551486,-16.97321 -4.551486,-16.97321 0,0 1.059954,-21.19274 0.591778,-27.28041 l 3.428792,-0.75223 c 0.198183,7.21502 -0.412584,26.87811 -0.412584,26.87811 0,0 3.576653,11.90969 5.502564,18.6382 z"
       sodipodi:nodetypes="ccccccc" />
    <path
       id="rect13670"
       style="fill:#57331c;fill-rule:evenodd;stroke-width:0.264583"
       d="m 57.411897,212.20107 25.445878,-4.58818 3.024791,7.94479 -26.831246,1.89468 z"
       sodipodi:nodetypes="ccccc" />
    <path
       id="path11760-6"
       style="fill:#718e81;stroke-width:2.065;stroke-dashoffset:11.6651;paint-order:markers stroke fill"
       inkscape:transform-center-x="0.36533455"
       inkscape:transform-center-y="-0.8895826"
       d="M 90.351398,177.16381 80.252443,163.69946 71.526744,170.6555 Z"
       sodipodi:nodetypes="cccc" />
    <path
       sodipodi:type="star"
       style="fill:#c1b2a9;fill-opacity:1;stroke:none;stroke-width:1.77776;stroke-dasharray:none;stroke-dashoffset:11.6651;stroke-opacity:1;paint-order:markers stroke fill"
       id="path14725"
       inkscape:flatsided="true"
       sodipodi:sides="5"
       sodipodi:cx="80.434135"
       sodipodi:cy="124.64174"
       sodipodi:r1="3.3146024"
       sodipodi:r2="1.6573013"
       sodipodi:arg1="-1.3089969"
       sodipodi:arg2="-0.68067837"
       inkscape:rounded="0"
       inkscape:randomized="0"
       d="m 81.292018,121.44008 2.452177,3.02819 -2.122212,3.26792 -3.763777,-1.0085 -0.20393,-3.89121 z"
       inkscape:transform-center-x="0.63705901"
       inkscape:transform-center-y="-0.47720468"
       transform="matrix(1.044145,0.50893771,-0.50893771,1.044145,47.457391,42.445928)" />
    <path
       sodipodi:type="star"
       style="fill:#c1b2a9;fill-opacity:1;stroke:none;stroke-width:1.77776;stroke-dasharray:none;stroke-dashoffset:11.6651;stroke-opacity:1;paint-order:markers stroke fill"
       id="path14725-7"
       inkscape:flatsided="true"
       sodipodi:sides="5"
       sodipodi:cx="80.434135"
       sodipodi:cy="124.64174"
       sodipodi:r1="3.3146024"
       sodipodi:r2="1.6573013"
       sodipodi:arg1="-1.3089969"
       sodipodi:arg2="-0.68067837"
       inkscape:rounded="0"
       inkscape:randomized="0"
       d="m 81.292018,121.44008 2.452177,3.02819 -2.122212,3.26792 -3.763777,-1.0085 -0.20393,-3.89121 z"
       inkscape:transform-center-x="0.72797963"
       inkscape:transform-center-y="-0.54941353"
       transform="matrix(1.1487136,-0.17237595,0.17237595,1.1487136,-33.121951,82.814475)" />
    <path
       id="path15445"
       style="fill:#61453b;fill-opacity:1;stroke-width:2.065;stroke-dashoffset:11.6651;paint-order:markers stroke fill"
       inkscape:transform-center-x="-0.34095715"
       inkscape:transform-center-y="0.07703624"
       d="m 65.539649,234.88636 -3.889851,6.80507 1.561976,-7.62776 -1.071081,-6.29954 z"
       sodipodi:nodetypes="ccccc" />
    <ellipse
       style="fill:#ffa4e6;fill-opacity:1;fill-rule:evenodd;stroke-width:0.264583"
       id="path16158"
       cx="64.857162"
       cy="221.82303"
       rx="5.9704199"
       ry="5.5628018" />
    <path
       id="rect16155"
       style="fill:#ffa4e6;fill-rule:evenodd;stroke-width:0.264583"
       d="m 39.467418,203.9505 8.67786,-2.83098 20.14943,17.0802 -3.437548,3.94996 z"
       sodipodi:nodetypes="ccccc" />
    <path
       id="path16083"
       style="fill:#6a5344;stroke-width:2.065;stroke-dashoffset:11.6651;paint-order:markers stroke fill"
       inkscape:transform-center-x="0.33380752"
       inkscape:transform-center-y="-1.117075"
       d="m 74.888415,229.2771 -12.747722,-1.51297 -1.207517,-1.81069 c 5.678086,-2.23272 5.380078,-5.7266 8.507392,-9.23471 l 3.026375,-0.21371 z"
       sodipodi:nodetypes="cccccc" />
    <path
       id="path15956"
       style="fill:#6d9c87;fill-opacity:1;stroke-width:2.065;stroke-dashoffset:11.6651;paint-order:markers stroke fill"
       inkscape:transform-center-x="2.9492904"
       inkscape:transform-center-y="0.54259082"
       d="m 59.05132,167.24369 0.89682,5.37884 c 0.194101,2.89017 0.204833,5.77917 0.180831,8.66795 v 0 l -1.077651,2.97192 -10.059888,15.51738 c 0,0 8.725102,5.1947 12.338804,7.24393 l -11.381713,10.61537 c -6.528202,-2.95796 -17.808716,-11.01956 -17.808716,-11.01956 0,0 20.602917,-26.42405 26.911513,-39.37583 z"
       sodipodi:nodetypes="cccccccccc" />
    <path
       id="rect15959"
       style="fill:#50685e;fill-rule:evenodd;stroke-width:0.264583"
       d="m 43.893065,217.63908 12.865254,-15.17764 0.653578,3.81171 -0.653578,-3.81171 v 0 l 6.210673,5.49946 -1.101026,1.0087 -2.086797,1.91181 -1.639602,1.50211 -8.507505,7.79411 z"
       sodipodi:nodetypes="ccccccccccc" />
    <path
       id="path11760"
       style="fill:#718e81;stroke-width:2.065;stroke-dashoffset:11.6651;paint-order:markers stroke fill"
       inkscape:transform-center-x="-0.14921895"
       inkscape:transform-center-y="-1.2183261"
       d="m 50.148529,175.6531 11.181706,-12.57962 8.118203,7.65631 z"
       sodipodi:nodetypes="cccc" />
    <path
       id="rect17439-5-8"
       style="fill:#53271a;fill-opacity:1;fill-rule:evenodd;stroke-width:0.264583"
       d="m 54.003349,260.12989 3.938948,2.34342 8.372993,-1.44284 12.10137,6.10827 -1.33152,6.25259 -19.616515,-2.5736 -1.371152,-1.42817 -2.21641,1.34622 -6.110226,-0.94734 z"
       sodipodi:nodetypes="cccccccccc" />
  </g>
</svg>
