<?xml version="1.0" encoding="UTF-8" standalone="no"?>
<!-- Created with Inkscape (http://www.inkscape.org/) -->

<svg width="50mm" height="50mm" viewBox="0 0 50 50" version="1.1" id="svg1" inkscape:version="1.3 (0e150ed6c4, 2023-07-21)" sodipodi:docname="kreis.svg" xmlns:inkscape="http://www.inkscape.org/namespaces/inkscape" xmlns:sodipodi="http://sodipodi.sourceforge.net/DTD/sodipodi-0.dtd" xmlns="http://www.w3.org/2000/svg" xmlns:svg="http://www.w3.org/2000/svg">
  <sodipodi:namedview id="namedview1" pagecolor="#ffffff" bordercolor="#666666" borderopacity="1.0" inkscape:showpageshadow="2" inkscape:pageopacity="0.0" inkscape:pagecheckerboard="0" inkscape:deskcolor="#d1d1d1" inkscape:document-units="mm" inkscape:zoom="2.3304714" inkscape:cx="160.48255" inkscape:cy="184.94113" inkscape:current-layer="layer1" />
  <defs id="defs1" />
  <g inkscape:label="Layer 1" inkscape:groupmode="layer" id="layer1">
    <g id="path6-5" style="fill:#ec967e;fill-opacity:1" transform="matrix(0.92673025,0,0,0.92787244,-230.83728,413.08446)">
      <path style="color:#000000;fill:#ec967e;fill-opacity:1;stroke-linecap:round;-inkscape-stroke:none;paint-order:fill markers stroke" d="m 276.06445,-445.19531 c -14.88517,0 -26.97656,12.0753 -26.97656,26.94336 0,14.86805 12.09139,26.94336 26.97656,26.94336 14.88518,0 26.97657,-12.07531 26.97657,-26.94336 0,-14.86806 -12.09139,-26.94336 -26.97657,-26.94336 z m 0,2.19336 c 13.70128,0 24.78321,11.06893 24.78321,24.75 0,13.68106 -11.08193,24.75 -24.78321,24.75 -13.70127,0 -24.7832,-11.06894 -24.7832,-24.75 0,-13.68107 11.08193,-24.75 24.7832,-24.75 z" id="path25-0" />
    </g>
    <path id="path5-1-1" style="font-variation-settings:'wdth' 75, 'wght' 300;fill:#ec967e;fill-opacity:1;stroke:none;stroke-width:1.03605;stroke-linecap:square;stroke-dasharray:none;stroke-dashoffset:0;stroke-opacity:1;paint-order:stroke fill markers" d="m 34.278619,29.979336 c -1.364174,0.0065 -3.054428,0.239124 -4.84046,0.708318 -0.645746,0.169648 -1.261234,0.361963 -1.845509,0.567354 -4.73e-4,2.13e-4 -9.27e-4,4.82e-4 -9.27e-4,9.27e-4 -0.219839,0.07729 -0.434303,0.156432 -0.643633,0.237678 -9.27e-4,4.63e-4 -0.0019,9.27e-4 -0.0037,9.27e-4 -0.04133,0.01603 -0.08313,0.03206 -0.123931,0.04819 a 2.3853184,7.6427557 75.280802 0 0 -9.27e-4,9.27e-4 c -1.67e-4,8.3e-5 -3.34e-4,1.85e-4 -4.82e-4,2.59e-4 -0.194252,0.07683 -0.382628,0.1552 -0.566621,0.234972 -0.0056,0.0019 -0.01029,0.0037 -0.0152,0.0065 -0.178581,0.07766 -0.351509,0.156154 -0.519617,0.235945 -0.01325,0.0065 -0.0253,0.01186 -0.0379,0.01789 -0.167562,0.08007 -0.329415,0.160834 -0.485662,0.242581 -0.0037,9.27e-4 -0.0083,0.0037 -0.01029,0.0056 -0.39513,0.207217 -0.752199,0.418632 -1.066064,0.631317 a 2.3853184,7.6427557 75.280802 0 0 -9.27e-4,9.27e-4 c -1.57e-4,1.2e-4 -3.52e-4,1.48e-4 -4.72e-4,2.5e-4 -0.125266,0.08498 -0.24259,0.169934 -0.353548,0.254888 -0.0083,0.0065 -0.01742,0.01325 -0.02586,0.01955 -0.104433,0.08072 -0.201795,0.161047 -0.292531,0.241367 -0.01325,0.01195 -0.02539,0.0228 -0.03809,0.0342 -0.08294,0.07488 -0.160269,0.149055 -0.230515,0.223147 -0.01853,0.01946 -0.03531,0.03883 -0.05292,0.05829 -0.183789,0.202889 -0.324421,0.402284 -0.40449,0.5937 -0.0019,0.0056 -0.0056,0.01196 -0.0065,0.01752 -0.01372,0.03438 -0.02632,0.06849 -0.03679,0.102376 -0.0037,0.01029 -0.0056,0.02159 -0.0093,0.03253 -0.0083,0.02836 -0.01492,0.05653 -0.01992,0.0847 -0.0037,0.01779 -0.0056,0.03512 -0.0065,0.05264 -0.0019,0.02289 -0.0065,0.04606 -0.0065,0.06867 -9.26e-4,0.01946 4.73e-4,0.03846 9.27e-4,0.05746 4.82e-4,0.02011 1.48e-4,0.0404 0.0019,0.06033 0.0037,0.03883 0.01029,0.0772 0.02039,0.114915 v 2.59e-4 c 0,0 0.183094,1.308376 0.513973,2.644369 0.09928,0.400793 0.211916,0.803865 0.33683,1.175057 0.04152,0.123672 0.08461,0.243897 0.128973,0.359201 0.04439,0.115322 0.08998,0.225835 0.137036,0.330175 0.04708,0.104322 0.09516,0.202482 0.144671,0.293283 0.733572,1.344259 3.105427,3.385911 3.105427,3.385911 l 0.01029,-0.0037 c 0.102941,0.114284 0.230533,0.216846 0.380135,0.307795 h 2.41e-4 c 0.07479,0.0455 0.155024,0.08813 0.240376,0.127657 0.08554,0.03966 0.175967,0.07599 0.271374,0.109697 0.09528,0.03364 0.195383,0.06413 0.299918,0.09175 h 2.41e-4 c 0.104433,0.02762 0.213278,0.05227 0.326246,0.07386 h 2.5e-4 c 0.226039,0.04309 0.468444,0.07395 0.724314,0.09249 h 2.41e-4 c 1.023805,0.07423 2.264076,-0.04939 3.541667,-0.383824 0.319314,-0.08415 0.630315,-0.178701 0.930252,-0.281948 0.09516,-0.03271 0.187125,-0.06756 0.279983,-0.102024 0.113478,-0.04217 0.224779,-0.08544 0.334605,-0.129909 0.08359,-0.03392 0.168526,-0.06719 0.249977,-0.102376 l 2.5e-4,-2.5e-4 c 0.137833,-0.05968 0.272514,-0.120762 0.403489,-0.183789 l 2.41e-4,-2.41e-4 c 0.130966,-0.06302 0.258345,-0.127639 0.38185,-0.193631 l 2.5e-4,-2.41e-4 c 0.123533,-0.06617 0.243165,-0.133505 0.35871,-0.20225 0.196819,-0.117036 0.378476,-0.23816 0.549634,-0.361424 0.02966,-0.0215 0.06209,-0.04235 0.09101,-0.06404 l 2.5e-4,-2.41e-4 c 0.09756,-0.07275 0.190453,-0.146424 0.278251,-0.220683 l 2.32e-4,-2.5e-4 c 0.0083,-0.0065 0.0152,-0.01418 0.02335,-0.02104 0.07859,-0.06737 0.154514,-0.13521 0.224621,-0.203463 0.387383,-0.377105 0.641455,-0.765359 0.725315,-1.140611 l 0.01029,-0.0019 2.41e-4,-9.27e-4 1.87231,-0.491825 a 4.0350089,4.0350089 0 0 0 2.867276,-2.839233 4.0350089,4.0350089 0 0 0 -1.025224,-3.902591 4.0350089,4.0350089 0 0 0 -3.598243,-1.117479 c -0.05394,-0.154588 -0.0947,-0.2713 -0.138268,-0.390932 -0.06163,-0.170222 -0.06988,-0.18845 -0.104888,-0.280484 -0.02372,-0.06228 -0.07766,-0.209117 -0.08165,-0.219227 a 2.3853184,7.6427557 75.280802 0 1 0,9.26e-4 c -4.63e-4,-9.26e-4 -0.01325,-0.0354 -0.01325,-0.0354 -0.188191,-0.716761 -1.40357,-1.082106 -3.157602,-1.0737 z m -8.146181,1.852867 c -0.06311,0.02799 -0.123932,0.05625 -0.185754,0.08442 a 2.3853184,7.6427557 75.280802 0 1 0.185754,-0.08442 z m -0.660351,0.310001 c -0.06144,0.03049 -0.123663,0.06089 -0.18353,0.09175 a 2.3853184,7.6427557 75.280802 0 1 0.18353,-0.09175 z m 9.553727,0.116647 a 2.3853184,7.6427557 75.280802 0 1 1.726425,0.192899 2.3853184,7.6427557 75.280802 0 1 -6.091056,2.84661 2.3853184,7.6427557 75.280802 0 1 -6.726301,0.521582 2.3853184,7.6427557 75.280802 0 1 6.102612,-2.853004 2.3853184,7.6427557 75.280802 0 1 4.98832,-0.708087 z M 23.57494,33.325907 c -0.01928,0.01594 -0.03939,0.03188 -0.05801,0.04773 a 2.3853184,7.6427557 75.280802 0 1 0.05801,-0.04773 z m 14.738626,0.285896 a 2.3312102,2.3312102 0 0 1 1.848206,0.682982 2.3312102,2.3312102 0 0 1 0.592209,2.254652 2.3312102,2.3312102 0 0 1 -1.656299,1.640321 l -0.843649,0.221665 c 0.237224,-0.872378 0.454042,-1.858289 0.444089,-2.556302 -0.0093,-0.621716 -0.187978,-1.448211 -0.407428,-2.239388 a 2.3312102,2.3312102 0 0 1 0.02289,-0.0037 z" />
    <path id="path44-2-2-3" style="font-variation-settings:'wdth' 75, 'wght' 300;fill:#ec967e;fill-opacity:1;stroke:none;stroke-width:0.453831;stroke-linecap:square;stroke-dasharray:none;stroke-opacity:1;paint-order:stroke fill markers" inkscape:transform-center-x="-2.9288239" inkscape:transform-center-y="5.7336823" d="m 27.099365,5.487957 c -0.03461,-0.0088 -0.06939,-0.017589 -0.10441,-0.026301 -0.14851,-0.036875 -0.300059,-0.07222 -0.454511,-0.1052413 -0.514164,-0.109925 -1.053529,-0.190659 -1.581638,-0.1898203 0,0 0,0 0,0 -0.893842,0.0013 -1.755322,0.2406246 -2.361518,0.972748 -0.458321,0.7244473 -0.967177,1.0456687 -0.534907,-0.079467 0.09597,-0.3887393 0.79142,-1.4713484 -0.01746,-0.6636214 -0.367911,0.2216183 -0.863525,0.6704977 -1.31635,1.0567635 -0.409134,0.3486091 -0.772355,0.6352635 -0.941892,0.6018002 0.02035,-0.3216533 0.305557,-0.9383515 0.463796,-1.347679 0,0 0,0 0,0 0.130288,-0.3364319 0.16844,-0.5238177 -0.143333,-0.2236145 -0.07568,0.072804 -0.172648,0.1753309 -0.292945,0.3116946 -1.057314,0.9794121 -2.094917,2.0148368 -3.043977,3.1347345 -0.0062,-0.6959077 0.801842,-2.3916358 0.632038,-2.499649 -0.567747,0.4923987 -1.263762,1.3113614 -1.889651,2.0381754 -0.422673,0.4802798 -0.795032,0.8992481 -0.970475,0.95786 0.06014,-0.3702111 0.389834,-1.1708227 0.491879,-1.5536557 0.05842,-0.215778 0.04901,-0.3145758 -0.118755,-0.1478255 -0.08208,0.07893 -0.207543,0.2280238 -0.382221,0.4665084 -1.028128,1.1536059 -2.087869,2.5666461 -2.919078,4.2316441 -0.08483,0.188698 -0.16612,0.378292 -0.24382,0.568684 -0.0056,-0.174202 0.01252,-0.425122 0.04613,-0.710208 0.187316,-0.96696 0.58205,-2.178479 0.419181,-2.171015 -0.369422,0.533275 -0.727688,1.103428 -1.062583,1.710395 0,0 0,0 0,0 C 9.6780134,14.020349 9.0559392,16.352599 9.0354214,18.644235 8.86226,18.162592 8.7484056,17.300591 8.6729846,16.435502 8.6008479,15.608216 8.572021,14.887911 8.4220158,14.930585 7.1682776,18.72521 7.0792439,22.758473 8.6333613,26.038632 8.0305798,25.252821 7.2443687,23.02399 6.9291988,22.85609 c 0.029109,1.19226 0.139295,2.382686 0.3766779,3.546903 0.3138687,1.675307 0.9240474,2.930124 1.6494789,3.886502 0.7949826,1.111427 1.7375014,2.009495 2.8331514,2.665372 0.04737,0.101969 0.09212,0.205574 0.135901,0.30973 0.286758,0.612174 0.527252,1.256306 1.100839,1.676773 0.573014,0.568317 1.14478,1.133923 1.715273,1.696846 -0.157578,-1.094644 -0.189345,-2.222291 -0.419716,-3.283747 -0.119339,-0.331864 -0.348399,-0.642982 -0.487077,-0.971109 -0.09673,-0.259608 -0.135058,-0.530543 -0.01405,-0.824165 0.225081,-1.024212 0.341684,-2.001077 0.438585,-2.923793 0.105406,-1.040759 0.15233,-1.889913 0.411468,-2.398323 0.20371,-0.82944 0.4414,-1.629772 0.750262,-2.380072 -0.631455,0.490647 -1.77587,1.861734 -1.994471,1.996664 1.444004,-2.414782 2.887827,-4.682738 4.393478,-6.425885 -0.816079,0.252639 -2.25061,1.065968 -2.671525,1.180712 1.147675,-1.195064 2.266801,-2.291183 3.395451,-3.224977 0.233769,-0.169744 0.503278,-0.33572 0.800897,-0.508082 -0.459945,-0.04072 -0.984745,0.0048 -1.449831,0.0435 -0.201188,0.04238 -0.360422,0.06971 -0.438424,0.05564 0.0816,-0.06524 0.16347,-0.129803 0.245627,-0.193671 0.815799,-0.571896 1.908023,-1.048027 3.107237,-1.71971 0.06828,-0.03541 0.136546,-0.07068 0.204815,-0.105791 -0.07254,-0.01033 -0.178402,-0.01517 -0.303016,-0.01646 -0.775365,0.01959 -2.126593,0.131771 -1.082268,-0.263663 0.152577,-0.09338 0.363093,-0.202201 0.60874,-0.325829 0.813541,-0.383143 1.986095,-0.818274 2.046387,-1.032322 -0.599733,-0.06251 -2.162935,-0.05568 -2.095559,-0.321388 1.241843,-0.55462 2.452954,-1.055561 3.724232,-1.576663 0.114158,-0.04654 0.22786,-0.09275 0.341181,-0.138685 -0.109858,-0.0146 -0.272372,-0.02834 -0.457792,-0.04324 -0.802787,-0.06266 -2.06351,-0.143097 -0.915383,-0.531103 0.09207,-0.06714 0.244254,-0.146327 0.426817,-0.231106 0.733083,-0.339394 1.930781,-0.7437232 1.639112,-0.8941204 -1.186543,0.070672 -1.873403,-0.4739299 -0.869121,-0.5240567 0.971699,-0.1393617 1.695094,-0.7702621 2.179335,-1.5951909 0.120994,-0.2061233 0.226516,-0.4243145 0.316333,-0.649485 0.116658,-0.2557053 0.22872,-0.5174695 0.331866,-0.7830676 0.05609,-0.1444217 0.109513,-0.2903418 0.159983,-0.437046 0.01188,-0.034604 0.02365,-0.06931 0.03526,-0.104044 z m -2.086546,1.1585056 c -0.941651,0.7037905 -1.832256,1.4714788 -2.787727,2.1412704 -0.299129,0.2097394 -0.604696,0.4097176 -0.920931,0.5961202 -1.09666,0.7331018 -2.166678,1.5008928 -3.187893,2.3259068 -1.166945,0.946113 -2.291668,1.937533 -3.133007,3.12536 0,0 0,0 0,0 -2.363229,3.32095 -3.666741,7.413875 -3.563154,11.47517 0.02151,1.004354 0.29226,2.013181 0.606014,3.021355 0.35184,1.119977 0.789448,2.217109 1.266019,3.301675 -0.0031,-0.006 0.506164,1.032846 0.503204,1.026809 4.35e-4,0.0023 0.152457,1.348322 0.152705,1.350528 -0.505597,-0.509613 -1.101215,-0.963962 -1.31573,-1.669639 -4.56e-4,-9.11e-4 -0.158785,-0.328787 -0.159213,-0.329678 -0.482042,-1.112054 -0.927642,-2.247799 -1.289752,-3.416817 0,0 0,0 0,0 -0.323524,-1.034076 -0.602071,-2.125056 -0.629448,-3.264717 -0.08453,-4.260885 1.292493,-8.515218 3.775695,-11.962649 0.925146,-1.278566 2.104475,-2.314942 3.299345,-3.264062 0,0 0,0 0,0 1.340325,-1.068862 2.75221,-2.0358036 4.190422,-2.9483336 0.169841,-0.1077999 0.340146,-0.2148437 0.510884,-0.321149 0.888484,-0.4146135 1.783061,-0.8096462 2.682567,-1.1871498 z" />
    <path id="path50-0-0" style="font-variation-settings:'wdth' 75, 'wght' 300;fill:#ec967e;fill-opacity:1;fill-rule:nonzero;stroke:none;stroke-width:1.18217;stroke-linecap:square;stroke-linejoin:miter;stroke-dasharray:none;stroke-dashoffset:0;stroke-opacity:1;paint-order:stroke fill markers" d="m 33.845762,13.821191 c -1.0694,-0.162336 -2.238137,-0.184781 -3.449661,-0.06691 -1.13985,0.110957 -2.341059,0.348877 -3.534808,0.725463 -1.112994,0.351129 -2.245283,0.831379 -3.302413,1.455003 -0.981899,0.579244 -1.931195,1.30176 -2.720324,2.17954 -0.735407,0.818044 -1.354806,1.797542 -1.694777,2.934955 -0.319166,1.067723 -0.38501,2.255069 -0.08313,3.531009 0.446609,1.843554 0.677903,3.999935 0.643011,6.21976 -0.01585,1.003964 -0.08646,2.007214 -0.213583,2.96297 -0.120021,0.902357 -0.290067,1.755792 -0.506857,2.507871 -0.206466,0.715797 -0.449677,1.318608 -0.717919,1.771464 -0.128121,0.216354 -0.256593,0.389032 -0.381655,0.521341 -0.120985,0.12813 -0.234778,0.213639 -0.338099,0.266926 -0.0797,0.04115 -0.161029,0.06737 -0.248281,0.07525 -0.02196,0.0019 -0.04569,0.0046 -0.0695,0.0056 -0.122411,0.0093 -0.284376,0.01168 -0.504919,-0.04801 -0.221609,-0.06014 -0.483587,-0.178794 -0.772263,-0.383684 -0.286916,-0.203751 -0.590235,-0.486024 -0.891339,-0.858227 0.188849,0.43447 0.369182,0.824132 0.553935,1.154966 0.185281,0.331788 0.38514,0.623559 0.61964,0.853676 0.23386,0.229523 0.51187,0.403405 0.822389,0.475255 0.06163,0.01399 0.123978,0.02456 0.186977,0.03049 0.255991,0.02382 0.506319,-0.0056 0.745731,-0.07887 0.303967,-0.09344 0.579549,-0.254674 0.824947,-0.45432 0.251228,-0.204381 0.478054,-0.454607 0.68212,-0.730986 0.422395,-0.572099 0.775238,-1.294818 1.064545,-2.079889 0.307201,-0.833658 0.552887,-1.765402 0.739651,-2.731741 0.198144,-1.025668 0.332223,-2.101018 0.404629,-3.175182 0.159694,-2.364914 0.02465,-4.721422 -0.375094,-6.794527 -0.163587,-0.878763 -0.06988,-1.635623 0.162613,-2.287133 0.251885,-0.70615 0.687801,-1.346577 1.247379,-1.917211 0.602996,-0.614904 1.349023,-1.148089 2.164444,-1.593114 0.874963,-0.477507 1.824861,-0.851072 2.772888,-1.124383 1.015576,-0.292773 2.0294,-0.47089 2.977399,-0.547272 1.009978,-0.08146 1.939934,-0.04726 2.746662,0.08063 0.850544,0.134608 1.540114,0.369608 2.062892,0.66492 0.266157,0.150491 0.485746,0.314087 0.665068,0.487821 0.1796,0.173994 0.323132,0.362204 0.433237,0.566121 0.08572,0.156321 0.102135,0.236057 0.110383,0.257474 0.0046,0.01029 0.0083,0.0093 0.01029,0.0083 0.0037,-9.26e-4 0.01029,-0.0046 0.0093,0.0046 4.36e-4,0.01798 -0.02169,0.0797 -0.119131,0.181713 -0.09595,0.101005 -0.246659,0.222527 -0.467369,0.358358 -0.435628,0.268121 -1.047335,0.534779 -1.84031,0.814299 -0.755776,0.266407 -1.586887,0.514715 -2.535914,0.797637 -0.85287,0.254257 -1.828244,0.544407 -2.73872,0.862155 -0.856512,0.298889 -1.747137,0.65266 -2.531901,1.083552 -0.375511,0.20616 -0.73992,0.437185 -1.071968,0.697476 -0.320324,0.251125 -0.6195,0.536641 -0.870116,0.862878 -0.243026,0.316358 -0.442217,0.673492 -0.567196,1.073849 -0.121188,0.38817 -0.167896,0.802196 -0.128973,1.240049 0.02762,0.219644 0.08971,0.426972 0.180518,0.620195 0.08739,0.185782 0.199905,0.355198 0.329434,0.508618 0.244647,0.289807 0.556344,0.531025 0.899651,0.735351 0.324059,0.19289 0.689942,0.360961 1.078195,0.507561 0.366754,0.138583 0.757426,0.259355 1.154539,0.363009 0.732414,0.191278 1.484965,0.323003 2.085023,0.38969 0.531202,0.05894 0.936211,0.06432 0.946349,0.0019 1.9e-5,-1.48e-4 9.27e-4,-0.0065 9.27e-4,-0.0093 5.56e-4,-0.0037 9.27e-4,-0.0093 9.27e-4,-0.0093 0.01029,-0.06005 -0.36908,-0.186513 -0.865223,-0.357727 -0.577029,-0.199006 -1.245999,-0.434924 -1.916868,-0.736046 -0.356263,-0.159907 -0.692573,-0.329351 -0.996161,-0.508636 -0.322789,-0.190628 -0.596536,-0.385297 -0.813938,-0.581366 -0.232887,-0.210043 -0.383694,-0.406352 -0.465385,-0.57954 -0.04217,-0.08943 -0.06376,-0.167923 -0.07173,-0.236205 -0.0083,-0.06987 -9.27e-4,-0.13002 0.01205,-0.184604 0.0056,-0.236372 0.05727,-0.43296 0.135405,-0.602662 0.08127,-0.176654 0.199951,-0.342733 0.35466,-0.501927 0.161797,-0.166478 0.364751,-0.327099 0.607786,-0.481835 0.251821,-0.160333 0.540951,-0.310751 0.861109,-0.452689 0.673473,-0.298565 1.469025,-0.552239 2.294881,-0.777045 0.874184,-0.237947 1.81818,-0.453171 2.694616,-0.654503 0.951632,-0.218616 1.857038,-0.428075 2.695089,-0.664688 0.868486,-0.245204 1.690959,-0.526837 2.379167,-0.884323 0.357792,-0.185847 0.704473,-0.404972 1.010405,-0.669952 0.311409,-0.269706 0.599215,-0.603172 0.802706,-1.014529 0.102719,-0.207643 0.181241,-0.430086 0.230469,-0.666198 0.0493,-0.236789 0.06737,-0.47823 0.05523,-0.721024 -0.02447,-0.485755 -0.168007,-0.949834 -0.383852,-1.382969 -0.246047,-0.492113 -0.566742,-0.9294 -0.945228,-1.311231 C 37.796469,15.423856 37.369969,15.104514 36.907818,14.837922 36.010901,14.320547 34.961944,13.99152 33.84263,13.82153 Z" />
  </g>
</svg>
