<?xml version="1.0" encoding="UTF-8" standalone="no"?>
<!-- Created with Inkscape (http://www.inkscape.org/) -->

<svg width="142.87399mm" height="182.5625mm" viewBox="0 0 142.87399 182.5625" version="1.1" id="svg1" inkscape:version="1.3 (0e150ed6c4, 2023-07-21)" sodipodi:docname="orange.svg" xmlns:inkscape="http://www.inkscape.org/namespaces/inkscape" xmlns:sodipodi="http://sodipodi.sourceforge.net/DTD/sodipodi-0.dtd" xmlns="http://www.w3.org/2000/svg" xmlns:svg="http://www.w3.org/2000/svg">
  <sodipodi:namedview id="namedview1" pagecolor="#ffffff" bordercolor="#666666" borderopacity="1.0" inkscape:showpageshadow="2" inkscape:pageopacity="0.0" inkscape:pagecheckerboard="0" inkscape:deskcolor="#d1d1d1" inkscape:document-units="mm" inkscape:zoom="1" inkscape:cx="238" inkscape:cy="520" inkscape:current-layer="layer1" />
  <defs id="defs1" />
  <g inkscape:label="Layer 1" inkscape:groupmode="layer" id="layer1" transform="translate(-29.633333,-70.114586)">
    <rect style="fill:#ffd894;fill-opacity:1;stroke:none;stroke-width:3.12999;stroke-linecap:square;stroke-dasharray:none;stroke-opacity:1;paint-order:stroke markers fill" id="rect66" width="142.87399" height="182.5625" x="29.633333" y="70.114586" inkscape:export-filename="..\апель син.png" inkscape:export-xdpi="449" inkscape:export-ydpi="449" />
    <path sodipodi:type="star" style="fill:#f7bd78;fill-opacity:1;stroke:none;stroke-width:3.12999;stroke-linecap:square;stroke-dasharray:none;stroke-opacity:1;paint-order:stroke markers fill" id="path67" inkscape:flatsided="false" sodipodi:sides="5" sodipodi:cx="62.571136" sodipodi:cy="130.87976" sodipodi:r1="26.806593" sodipodi:r2="13.403295" sodipodi:arg1="-1.0471976" sodipodi:arg2="-0.41887907" inkscape:rounded="0" inkscape:randomized="0" d="m 75.974432,107.66457 -1.158777,17.76358 13.976286,11.02501 -17.252249,4.38719 -6.166502,16.69915 -9.5037,-15.05215 -17.787394,-0.70436 11.37864,-13.68993 -4.826712,-17.13448 16.536086,6.59131 z" inkscape:transform-center-x="11.541457" inkscape:transform-center-y="-1.0972168e-05" transform="matrix(1.7221816,0,0,1.7221816,-40.472179,-107.79673)" />
    <path id="rect65" style="fill:#f7bd78;fill-opacity:1;stroke-width:4.02354;stroke-linecap:square;paint-order:stroke markers fill" d="m 151.14962,128.24909 30.47548,24.0781 -37.95551,86.02616 -58.673195,-40.55715 z" sodipodi:nodetypes="ccccc" />
    <path id="path65" style="fill:#f7bd78;fill-opacity:1;stroke-width:3.12999;stroke-linecap:square;paint-order:stroke markers fill" inkscape:transform-center-x="1.1054436e-06" inkscape:transform-center-y="-2.9014947e-06" d="m 13.672709,202.19576 15.960624,-40.79992 101.018057,101.6827 -78.443324,8.83158 z" sodipodi:nodetypes="ccccc" />
    <path id="path65-6" style="fill:#f7bd78;fill-opacity:1;stroke-width:3.12999;stroke-linecap:square;paint-order:stroke markers fill" inkscape:transform-center-x="3.5424561" inkscape:transform-center-y="1.1391806" d="m 129.46328,53.172578 35.62979,-13.505241 57.89252,50.63423 -34.75819,35.104743 z" sodipodi:nodetypes="ccccc" />
    <path sodipodi:type="star" style="fill:#a25130;fill-opacity:1;stroke:none;stroke-width:3.12999;stroke-linecap:square;stroke-dasharray:none;stroke-opacity:1;paint-order:stroke markers fill" id="path55-3" inkscape:flatsided="true" sodipodi:sides="3" sodipodi:cx="114.33307" sodipodi:cy="41.671875" sodipodi:r1="5.1027765" sodipodi:r2="2.5513885" sodipodi:arg1="-2.0943951" sodipodi:arg2="-1.0471976" inkscape:rounded="0" inkscape:randomized="0" d="m 111.78168,37.252741 7.65417,4.419134 -7.65417,4.419134 z" inkscape:transform-center-x="2.0427627" transform="matrix(-1.6013047,0,0,1.6013047,299.67498,20.619962)" />
    <path sodipodi:type="star" style="fill:#a25130;fill-opacity:1;stroke:none;stroke-width:3.12999;stroke-linecap:square;stroke-dasharray:none;stroke-opacity:1;paint-order:stroke markers fill" id="path55" inkscape:flatsided="true" sodipodi:sides="3" sodipodi:cx="114.33307" sodipodi:cy="41.671875" sodipodi:r1="5.1027765" sodipodi:r2="2.5513885" sodipodi:arg1="-2.0943951" sodipodi:arg2="-1.0471976" inkscape:rounded="0" inkscape:randomized="0" d="m 111.78168,37.252741 7.65417,4.419134 -7.65417,4.419134 z" inkscape:transform-center-x="-2.0427718" transform="matrix(1.6013047,0,0,1.6013047,-87.33163,20.619962)" />
    <path id="rect51" style="fill:#fdd2a9;stroke-width:2.71701;stroke-linecap:square;paint-order:stroke markers fill" d="m 125.73033,188.88887 4.92106,1.02138 -1.26533,42.42081 -14.11075,5.9802 z" sodipodi:nodetypes="ccccc" />
    <path id="path51" style="fill:#ff935a;stroke-width:2.71701;stroke-linecap:square;paint-order:stroke markers fill" inkscape:transform-center-x="-1.0911084" inkscape:transform-center-y="-1.0334501" d="m 129.69464,185.08151 8.42798,7.15733 -8.98658,7.4354 z" sodipodi:nodetypes="cccc" />
    <path id="path50" style="fill:#fdd2a9;stroke-width:2.71701;stroke-linecap:square;paint-order:stroke markers fill" inkscape:transform-center-x="0.2928014" inkscape:transform-center-y="-0.03824859" d="m 136.18222,186.24865 4.36082,-0.57587 27.44703,11.80922 7.84898,13.67045 -36.91131,-18.64743 z" sodipodi:nodetypes="cccccc" />
    <path sodipodi:type="star" style="fill:#a25130;fill-opacity:1;stroke:none;stroke-width:1.377;stroke-linecap:square;stroke-dasharray:none;stroke-opacity:1;paint-order:stroke markers fill" id="path32" inkscape:flatsided="true" sodipodi:sides="3" sodipodi:cx="128.85893" sodipodi:cy="120.51853" sodipodi:r1="12.393085" sodipodi:r2="6.1965427" sodipodi:arg1="1.3772101" sodipodi:arg2="2.4244076" inkscape:rounded="0" inkscape:randomized="0" d="m 131.24311,132.68012 -14.10851,-16.17763 21.06449,-4.12951 z" inkscape:transform-center-x="3.1911014" inkscape:transform-center-y="-0.8401004" transform="matrix(1.1526012,-0.53811942,0.53811942,1.1526012,-71.496652,105.05232)" />
    <path id="rect13-4" style="fill:#fdd2a9;fill-opacity:1;stroke-width:3.12637;stroke-linecap:square;paint-order:stroke markers fill" d="m 136.14058,167.66031 -7.77492,2.32163 2.6967,17.03604 6.66179,-1.00103 z" sodipodi:nodetypes="ccccc" />
    <path id="rect49" style="fill:#fdd2a9;stroke-width:2.71701;stroke-linecap:square;paint-order:stroke markers fill" d="m 125.73033,188.88887 5.33203,-1.87089 3.20774,-3.20643 3.45405,2.2054 4.27939,6.00291 -2.80584,19.13259 -8.13436,-11.88887 z" sodipodi:nodetypes="cccccccc" />
    <path id="rect50" style="fill:#ffa75a;stroke-width:2.71701;stroke-linecap:square;paint-order:stroke markers fill" d="m 127.01005,186.88274 2.68459,-1.80123 2.35932,5.15099 9.73949,3.21994 7.59817,32.105 -21.02596,12.75382 z" sodipodi:nodetypes="ccccccc" />
    <path id="path34" style="fill:#a25130;stroke-width:1.377;stroke-linecap:square;paint-order:stroke markers fill" inkscape:transform-center-x="-0.81139257" inkscape:transform-center-y="0.65452628" d="m 127.52454,159.27131 -7.59752,-10.79813 0.13194,-9.80774 10.76148,9.80774 16.35648,-10.79813 -3.45404,11.96657 z" sodipodi:nodetypes="ccccccc" />
    <path sodipodi:type="star" style="fill:#a25130;fill-opacity:1;stroke:none;stroke-width:1.377;stroke-linecap:square;stroke-dasharray:none;stroke-opacity:1;paint-order:stroke markers fill" id="path32-9" inkscape:flatsided="true" sodipodi:sides="3" sodipodi:cx="128.85893" sodipodi:cy="120.51853" sodipodi:r1="12.393085" sodipodi:r2="6.1965427" sodipodi:arg1="1.3772101" sodipodi:arg2="2.4244076" inkscape:rounded="0" inkscape:randomized="0" d="m 131.24311,132.68012 -14.10851,-16.17763 21.06449,-4.12951 z" inkscape:transform-center-x="-3.1911028" inkscape:transform-center-y="-0.8401004" transform="matrix(-1.1526012,-0.53811942,-0.53811942,1.1526012,337.94402,103.36998)" />
    <path id="path30-7" style="fill:#a25130;stroke-width:1.377;stroke-linecap:square;paint-order:stroke markers fill" inkscape:transform-center-x="1.4323407" inkscape:transform-center-y="-0.60986624" d="m 127.52454,159.27131 -7.46558,-20.60587 -16.85811,47.2263 21.6211,13.7825 -8.08068,-13.7825 0.26447,-26.58816 z" sodipodi:nodetypes="ccccccc" />
    <path id="path26" style="fill:#fdd2a9;fill-opacity:1;stroke-width:1.75971;stroke-linecap:square;paint-order:stroke markers fill" inkscape:transform-center-x="1.8135707" inkscape:transform-center-y="-0.3027761" d="m 34.160947,206.26021 13.904949,-7.98033 4.186085,18.79569 -5.614107,0.67201 z" sodipodi:nodetypes="ccccc" />
    <path sodipodi:type="star" style="fill:#a25130;fill-opacity:1;stroke:none;stroke-width:1.377;stroke-linecap:square;stroke-dasharray:none;stroke-opacity:1;paint-order:stroke markers fill" id="path25" inkscape:flatsided="true" sodipodi:sides="3" sodipodi:cx="21.180798" sodipodi:cy="13.944504" sodipodi:r1="8.5579195" sodipodi:r2="4.2789598" sodipodi:arg1="1.9955328" sodipodi:arg2="3.0427303" inkscape:rounded="0" inkscape:randomized="0" d="M 17.654244,21.74203 16.191219,6.9916561 29.69693,13.099826 Z" inkscape:transform-center-x="-2.2533408" inkscape:transform-center-y="0.53971873" transform="matrix(1.2779285,0,0,1.2779285,31.995343,100.83336)" />
    <path sodipodi:type="star" style="fill:#a25130;fill-opacity:1;stroke:none;stroke-width:1.377;stroke-linecap:square;stroke-dasharray:none;stroke-opacity:1;paint-order:stroke markers fill" id="path25-8" inkscape:flatsided="true" sodipodi:sides="3" sodipodi:cx="21.180798" sodipodi:cy="13.944504" sodipodi:r1="8.5579195" sodipodi:r2="4.2789598" sodipodi:arg1="1.9955328" sodipodi:arg2="3.0427303" inkscape:rounded="0" inkscape:randomized="0" d="M 17.654244,21.74203 16.191219,6.9916561 29.69693,13.099826 Z" inkscape:transform-center-x="2.253341" inkscape:transform-center-y="0.53971826" transform="matrix(-1.2779285,0,0,1.2779285,97.875333,102.20826)" />
    <path id="path24" style="fill:#fdd2a9;stroke-width:1.75971;stroke-linecap:square;paint-order:stroke markers fill" inkscape:transform-center-x="-2.2035216" inkscape:transform-center-y="-5.4226521" d="m 61.616718,208.58089 7.767045,0.78677 14.06612,25.08011 -16.674335,5.68334 -9.344226,-12.36553 z" sodipodi:nodetypes="cccccc" />
    <path id="path23-0" style="fill:#ff935a;fill-opacity:1;stroke-width:1.75971;stroke-linecap:square;paint-order:stroke markers fill" inkscape:transform-center-x="3.2645197" inkscape:transform-center-y="-6.2277379" d="m 66.296441,155.57409 2.219864,2.14482 -1.740757,27.81844 -12.673153,26.20097 -17.017484,-12.40485 19.440704,-20.9397 z" sodipodi:nodetypes="ccccccc" />
    <path id="path23" style="fill:#ffa75a;stroke-width:1.75971;stroke-linecap:square;paint-order:stroke markers fill" inkscape:transform-center-x="-2.5752747" inkscape:transform-center-y="-3.9497036" d="m 60.070257,154.31076 7.06251,3.16169 16.317116,58.28334 -27.81299,7.16363 z" sodipodi:nodetypes="ccccc" />
    <path id="rect21" style="fill:#ffbc94;stroke-width:1.75971;stroke-linecap:square;paint-order:stroke markers fill" d="m 67.542203,129.99302 1.911334,0.99746 -0.01546,1.17313 -17.571505,29.67609 -3.693277,-3.02644 z" sodipodi:nodetypes="cccccc" />
    <path id="path16" style="fill:#ff935a;stroke-width:1.75971;stroke-linecap:square;paint-order:stroke markers fill" inkscape:transform-center-x="0.892783" inkscape:transform-center-y="-0.27465042" d="m 66.350189,152.35 -9.176587,-3.11401 6.340226,-4.54488 12.487496,5.4593 z" sodipodi:nodetypes="ccccc" />
    <path id="path14" style="fill:#fdd2a9;stroke-width:1.75971;stroke-linecap:square;paint-order:stroke markers fill" inkscape:transform-center-x="-0.33269137" inkscape:transform-center-y="0.13555124" d="m 68.409355,157.50521 -8.920018,-0.22891 3.297465,-28.24371 4.955704,0.52517 z" sodipodi:nodetypes="ccccc" />
    <path id="rect13" style="fill:#fdd2a9;fill-opacity:1;stroke-width:1.75971;stroke-linecap:square;paint-order:stroke markers fill" d="m 61.886092,119.21494 4.538192,0.51333 1.318221,9.82949 -4.908945,-0.0156 z" sodipodi:nodetypes="ccccc" />
    <path id="path3-6" style="fill:#a25130;fill-opacity:1;stroke-width:11.1154;stroke-linecap:square;paint-order:stroke markers fill" inkscape:transform-center-x="-0.60272329" inkscape:transform-center-y="1.0092061" d="m 67.742506,117.69471 6.390818,-2.23826 8.924019,13.21492 -10.809104,3.265 13.635165,0.39046 -9.330194,-31.39786 z" sodipodi:nodetypes="ccccccc" />
    <path id="path4" style="fill:#a25130;fill-opacity:1;stroke-width:11.1154;stroke-linecap:square;paint-order:stroke markers fill" inkscape:transform-center-x="-0.2797984" inkscape:transform-center-y="1.2580835" d="m 67.742506,117.69471 -14.251305,-12.5468 2.824528,-7.963518 11.426777,10.043648 8.810704,-6.29907 1.004081,14.78822 z" sodipodi:nodetypes="ccccccc" />
    <path id="path3" style="fill:#a25130;fill-opacity:1;stroke-width:11.1154;stroke-linecap:square;paint-order:stroke markers fill" inkscape:transform-center-x="0.6027237" inkscape:transform-center-y="1.0092059" d="m 67.742506,117.69471 -7.878378,-5.46989 -15.543764,12.25366 9.565346,5.0637 -14.645803,-2.4475 17.075822,-29.910288 z" sodipodi:nodetypes="ccccccc" />
    <path id="path15" style="fill:#ffbc94;stroke-width:1.75971;stroke-linecap:square;paint-order:stroke markers fill" inkscape:transform-center-x="0.12182771" inkscape:transform-center-y="-0.27600575" d="m 62.251042,123.09606 4.818148,1.09931 0.267381,2.33547 -4.856422,-0.93756 z" sodipodi:nodetypes="ccccc" />
    <path id="path15-4" style="fill:#ffbc94;stroke-width:3.12637;stroke-linecap:square;paint-order:stroke markers fill" inkscape:transform-center-x="-0.18527727" inkscape:transform-center-y="-0.52088182" d="m 136.72017,174.56178 -7.33411,1.86643 0.8353,4.79672 6.88174,-2.22434 z" sodipodi:nodetypes="ccccc" />
    <path id="path1" style="fill:#fdd2a9;fill-opacity:1;stroke-width:13.9781;stroke-linecap:square;paint-order:stroke markers fill" inkscape:transform-center-x="-1.0320984" inkscape:transform-center-y="0.89622218" d="M 64.340494,124.7733 C 54.567613,122.8369 55.6452,112.13953 55.6452,112.13953 l 22.658287,5.38147 c 0,0 -3.633127,9.29907 -13.962993,7.2523 z" sodipodi:nodetypes="sccs" />
    <path sodipodi:type="star" style="fill:#ffead5;fill-opacity:1;stroke:none;stroke-width:0.627826;stroke-linecap:square;stroke-dasharray:none;stroke-opacity:1;paint-order:stroke markers fill" id="path8" inkscape:flatsided="true" sodipodi:sides="3" sodipodi:cx="25.316736" sodipodi:cy="16.859518" sodipodi:r1="2.1722319" sodipodi:r2="1.086116" sodipodi:arg1="2.151197" sodipodi:arg2="3.1983946" inkscape:rounded="0" inkscape:randomized="0" d="m 24.125573,18.676032 0.213598,-3.756348 3.146294,2.063155 z" inkscape:transform-center-x="-1.3699913" inkscape:transform-center-y="-0.17282421" transform="matrix(2.8028591,0,0,2.8028591,-9.4956773,74.74839)" />
    <path id="path2" style="fill:#bd6b42;fill-opacity:1;stroke-width:11.1154;stroke-linecap:square;paint-order:stroke markers fill" inkscape:transform-center-x="0.87202566" inkscape:transform-center-y="0.19377262" d="m 67.542203,119.68964 -7.575382,-5.78853 -10.35163,14.01633 11.238257,5.92735 -15.964495,-2.46735 16.061299,-31.32049 z" sodipodi:nodetypes="ccccccc" />
    <path id="path6" style="fill:#bd6b42;fill-opacity:1;stroke-width:11.1154;stroke-linecap:square;paint-order:stroke markers fill" inkscape:transform-center-x="0.24676345" inkscape:transform-center-y="0.48147133" d="m 67.542203,119.68964 -7.249253,-10.85548 0.657302,-8.77721 7.615956,14.42597 13.311491,-9.33501 -1.106622,9.97499 z" sodipodi:nodetypes="ccccccc" />
    <path sodipodi:type="star" style="fill:#bd6b42;fill-opacity:1;stroke:none;stroke-width:8.69799;stroke-linecap:square;paint-order:stroke markers fill" id="path7" inkscape:flatsided="true" sodipodi:sides="3" sodipodi:cx="31.068098" sodipodi:cy="1.0257739" sodipodi:r1="3.1654475" sodipodi:r2="1.5827237" sodipodi:arg1="2.1627036" sodipodi:arg2="3.2099012" inkscape:rounded="0" inkscape:randomized="0" d="m 29.301953,3.6527092 0.374225,-5.4699295 4.549985,3.059053 z" inkscape:transform-center-x="-0.88938571" inkscape:transform-center-y="-0.13805378" transform="matrix(1.2779285,0,0,1.2779285,31.65604,98.746081)" />
    <path sodipodi:type="star" style="fill:#bd6b42;fill-opacity:1;stroke:none;stroke-width:8.69799;stroke-linecap:square;paint-order:stroke markers fill" id="path7-0" inkscape:flatsided="true" sodipodi:sides="3" sodipodi:cx="31.068098" sodipodi:cy="1.0257739" sodipodi:r1="3.1654475" sodipodi:r2="1.5827237" sodipodi:arg1="2.1627036" sodipodi:arg2="3.2099012" inkscape:rounded="0" inkscape:randomized="0" d="m 29.301953,3.6527092 0.374225,-5.4699295 4.549985,3.059053 z" inkscape:transform-center-x="0.97466492" inkscape:transform-center-y="1.0743989" transform="matrix(1.6682661,-1.8636678,1.8636678,1.6682661,11.242136,150.44291)" />
    <path id="path9" style="fill:#ff8668;fill-opacity:1;stroke-width:1.75971;stroke-linecap:square;paint-order:stroke markers fill" inkscape:transform-center-x="-0.34511551" d="m 58.124905,127.09468 0.435531,-7.65938 7.086842,3.86853 z" sodipodi:nodetypes="cccc" />
    <path id="path10" style="fill:#ffa77f;fill-opacity:1;stroke-width:1.75971;stroke-linecap:square;paint-order:stroke markers fill" inkscape:transform-center-x="-0.22856703" inkscape:transform-center-y="-0.087653357" d="m 58.125237,127.08883 0.187523,-3.29777 2.540688,1.92859 z" sodipodi:nodetypes="cccc" />
    <path id="path11" style="fill:#ffead5;fill-opacity:1;stroke:none;stroke-width:1.377;stroke-linecap:square;stroke-opacity:1;paint-order:stroke markers fill" inkscape:transform-center-x="-0.26090739" inkscape:transform-center-y="0.25969526" d="m 69.715552,19.28204 -4.63613,-3.05043 4.81676,-3.331592 4.271342,3.331592 z" sodipodi:nodetypes="ccccc" />
    <path id="path12" style="fill:#a25130;fill-opacity:1;stroke:none;stroke-width:2.25326;stroke-linecap:square;stroke-dasharray:none;stroke-opacity:1;paint-order:stroke markers fill" inkscape:transform-center-x="0.0061000777" inkscape:transform-center-y="0.30188998" d="m 68.990629,14.46987 -1.037146,1.838131 h -0.01757 l 0.0088,0.01499 5.17e-4,5.16e-4 1.072804,1.816943 1.037146,-1.83813 h 0.01809 l -0.0093,-0.0155 z" />
    <path sodipodi:type="star" style="fill:#a25130;fill-opacity:1;stroke:none;stroke-width:1.377;stroke-linecap:square;stroke-dasharray:none;stroke-opacity:1;paint-order:stroke markers fill" id="path13" inkscape:flatsided="true" sodipodi:sides="3" sodipodi:cx="34.951614" sodipodi:cy="11.259175" sodipodi:r1="0.66255611" sodipodi:r2="0.33127806" sodipodi:arg1="-1.3089969" sodipodi:arg2="-0.26179939" inkscape:rounded="0" inkscape:randomized="0" d="m 35.123097,10.619195 0.297015,1.108478 -1.108478,-0.297016 z" inkscape:transform-center-x="0.17422737" inkscape:transform-center-y="-0.17422825" transform="matrix(2.0320281,0,0,2.0320281,0.43135962,-10.148613)" />
    <path sodipodi:type="star" style="fill:#a25130;fill-opacity:1;stroke:none;stroke-width:1.377;stroke-linecap:square;stroke-dasharray:none;stroke-opacity:1;paint-order:stroke markers fill" id="path13-6" inkscape:flatsided="true" sodipodi:sides="3" sodipodi:cx="34.951614" sodipodi:cy="11.259175" sodipodi:r1="0.66255611" sodipodi:r2="0.33127806" sodipodi:arg1="-1.3089969" sodipodi:arg2="-0.26179939" inkscape:rounded="0" inkscape:randomized="0" d="m 35.123097,10.619195 0.297015,1.108478 -1.108478,-0.297016 z" inkscape:transform-center-x="0.17422737" inkscape:transform-center-y="-0.17422825" transform="matrix(2.0320281,0,0,2.0320281,2.1928606,-9.6695563)" />
    <path id="path11-6" style="fill:#ffead5;fill-opacity:1;stroke:none;stroke-width:1.377;stroke-linecap:square;stroke-opacity:1;paint-order:stroke markers fill" inkscape:transform-center-x="-0.26090739" inkscape:transform-center-y="0.25969526" d="m 77.600406,14.933291 -4.63613,-3.05043 4.81676,-3.3315918 4.271342,3.3315918 z" sodipodi:nodetypes="ccccc" />
    <path id="path12-4" style="fill:#a25130;fill-opacity:1;stroke:none;stroke-width:2.25326;stroke-linecap:square;stroke-dasharray:none;stroke-opacity:1;paint-order:stroke markers fill" inkscape:transform-center-x="0.0061000777" inkscape:transform-center-y="0.30188998" d="m 76.875483,10.121121 -1.037146,1.838131 h -0.01757 l 0.0088,0.01499 5.17e-4,5.16e-4 1.072804,1.816943 1.037146,-1.83813 h 0.01809 l -0.0093,-0.0155 z" />
    <path sodipodi:type="star" style="fill:#a25130;fill-opacity:1;stroke:none;stroke-width:1.377;stroke-linecap:square;stroke-dasharray:none;stroke-opacity:1;paint-order:stroke markers fill" id="path13-0" inkscape:flatsided="true" sodipodi:sides="3" sodipodi:cx="34.951614" sodipodi:cy="11.259175" sodipodi:r1="0.66255611" sodipodi:r2="0.33127806" sodipodi:arg1="-1.3089969" sodipodi:arg2="-0.26179939" inkscape:rounded="0" inkscape:randomized="0" d="m 35.123097,10.619195 0.297015,1.108478 -1.108478,-0.297016 z" inkscape:transform-center-x="-0.17423209" inkscape:transform-center-y="-0.17422825" transform="matrix(-2.0320281,0,0,2.0320281,147.70137,-14.987931)" />
    <path sodipodi:type="star" style="fill:#a25130;fill-opacity:1;stroke:none;stroke-width:1.377;stroke-linecap:square;stroke-dasharray:none;stroke-opacity:1;paint-order:stroke markers fill" id="path13-6-7" inkscape:flatsided="true" sodipodi:sides="3" sodipodi:cx="34.951614" sodipodi:cy="11.259175" sodipodi:r1="0.66255611" sodipodi:r2="0.33127806" sodipodi:arg1="-1.3089969" sodipodi:arg2="-0.26179939" inkscape:rounded="0" inkscape:randomized="0" d="m 35.123097,10.619195 0.297015,1.108478 -1.108478,-0.297016 z" inkscape:transform-center-x="-0.17422709" inkscape:transform-center-y="-0.17422825" transform="matrix(-2.0320281,0,0,2.0320281,145.93986,-14.508874)" />
    <path id="rect15" style="fill:#ffa75a;stroke-width:1.75971;stroke-linecap:square;paint-order:stroke markers fill" d="m 61.543748,129.22319 1.206339,-0.59086 2.214867,2.92131 2.827455,0.0955 2.495808,9.46106 5.713106,9.04022 -13.167762,-2.99711 -5.659959,2.08269 z" sodipodi:nodetypes="ccccccccc" />
    <path id="path2-2" style="fill:#bd6b42;fill-opacity:1;stroke-width:11.1154;stroke-linecap:square;paint-order:stroke markers fill" inkscape:transform-center-x="3.3051033" inkscape:transform-center-y="2.1327017" d="m 67.542203,119.68964 8.849706,-1.79284 4.869778,14.01537 -15.373148,1.02396 17.561344,3.56296 -1.572184,-31.35118 z" sodipodi:nodetypes="ccccccc" />
    <path id="path17" style="fill:#fdd2a9;stroke-width:1.75971;stroke-linecap:square;paint-order:stroke markers fill" inkscape:transform-center-x="0.099854095" inkscape:transform-center-y="0.13082062" d="m 62.571139,130.87976 -1.34456,2.00553 0.471108,-3.17111 z" sodipodi:nodetypes="cccc" />
    <path id="rect18" style="fill:#ffbc94;stroke-width:1.75971;stroke-linecap:square;paint-order:stroke markers fill" d="m 60.574145,147.98469 0.665609,-0.24493 5.912862,9.76545 h -4.924384 l -1.728501,-8.88324 z" sodipodi:nodetypes="cccccc" />
    <path id="path22" style="fill:#ffa75a;stroke-width:1.75971;stroke-linecap:square;paint-order:stroke markers fill" inkscape:transform-center-x="-0.63203809" inkscape:transform-center-y="0.4249471" d="m 67.957109,160.41691 -11.352057,-0.20687 1.16864,-4.98425 11.449012,-0.91503 z" sodipodi:nodetypes="ccccc" />
    <path id="rect17" style="fill:#fdd2a9;stroke-width:1.75971;stroke-linecap:square;paint-order:stroke markers fill" d="m 61.697687,129.71419 0.873452,1.16557 -5.832621,9.31644 11.563656,23.16362 -4.293444,6.50139 -8.06355,-4.5144 -6.136919,-26.3907 z" sodipodi:nodetypes="cccccccc" />
    <path id="rect19" style="fill:#fdd2a9;stroke-width:1.75971;stroke-linecap:square;paint-order:stroke markers fill" d="m 45.801918,173.06462 6.55305,1.66805 3.590212,-9.38586 5.671537,0.82633 -3.092932,18.10109 -13.229666,-4.35257 z" sodipodi:nodetypes="ccccccc" />
    <path id="rect19-8" style="fill:#fdd2a9;stroke-width:1.75971;stroke-linecap:square;paint-order:stroke markers fill" d="m 50.960748,172.23828 6.553052,1.66804 2.205231,-8.96063 7.056518,0.40112 -3.092933,18.10109 -13.229666,-4.35257 z" sodipodi:nodetypes="ccccccc" />
    <path id="rect19-8-4" style="fill:#fdd2a9;stroke-width:1.75971;stroke-linecap:square;paint-order:stroke markers fill" d="m 55.636893,175.07274 6.736932,-0.58187 -0.866997,-9.18718 6.795346,-1.94387 3.037305,18.11052 -13.925128,0.24445 z" sodipodi:nodetypes="ccccccc" />
    <path id="path19" style="fill:#ffbc94;stroke-width:1.75971;stroke-linecap:square;paint-order:stroke markers fill" inkscape:transform-center-x="0.18964667" inkscape:transform-center-y="-0.54108035" d="m 61.616718,166.17314 -0.390139,16.53893 -2.702793,1.56216 z" sodipodi:nodetypes="cccc" />
    <path id="path19-9" style="fill:#ffbc94;stroke-width:1.75971;stroke-linecap:square;paint-order:stroke markers fill" inkscape:transform-center-x="0.18964704" inkscape:transform-center-y="-0.5410762" d="m 66.775548,165.34681 -0.390139,16.53892 -2.702793,1.56217 z" sodipodi:nodetypes="cccc" />
    <path id="path21" style="fill:#ffbc94;stroke-width:1.75971;stroke-linecap:square;paint-order:stroke markers fill" inkscape:transform-center-x="0.54038881" inkscape:transform-center-y="-0.41397991" d="m 51.866519,161.8397 -3.152752,2.39392 -7.420445,-6.23387 3.137532,-3.68899 z" sodipodi:nodetypes="ccccc" />
    <path id="path27" style="fill:#ffbc94;stroke-width:1.75971;stroke-linecap:square;paint-order:stroke markers fill" inkscape:transform-center-x="0.23756496" inkscape:transform-center-y="0.60405306" d="m 49.188875,163.35982 -3.481601,-9.97319 3.542929,-1.03663 2.616316,8.56201 z" sodipodi:nodetypes="ccccc" />
    <path style="fill:#fdd2a9;fill-opacity:1;stroke:none;stroke-width:2.45589;stroke-linecap:square;stroke-dasharray:none;stroke-opacity:1;paint-order:stroke markers fill" id="path28" sodipodi:type="arc" sodipodi:cx="131.30054" sodipodi:cy="159.30357" sodipodi:rx="19.641056" sodipodi:ry="19.358776" sodipodi:start="0" sodipodi:end="3.1415927" sodipodi:arc-type="slice" d="m 150.94159,159.30357 a 19.641056,19.358776 0 0 1 -9.82053,16.7652 19.641056,19.358776 0 0 1 -19.64105,0 19.641056,19.358776 0 0 1 -9.82053,-16.7652 h 19.64106 z" />
    <path id="path30" style="fill:#a25130;stroke-width:1.377;stroke-linecap:square;paint-order:stroke markers fill" inkscape:transform-center-x="-1.4323403" inkscape:transform-center-y="-0.60986624" d="m 127.5634,159.30358 19.61352,-21.62853 17.69099,50.10881 -27.82323,11.89038 15.49927,-16.27571 -7.08216,-24.09495 z" sodipodi:nodetypes="ccccccc" />
    <path id="path31" style="fill:#fdd2a9;stroke-width:1.377;stroke-linecap:square;paint-order:stroke markers fill" inkscape:transform-center-x="-1.6013556" inkscape:transform-center-y="0.050478165" d="m 117.10791,156.52269 10.41663,2.74862 0.0606,0.0323 -13.45183,6.2133 z" sodipodi:nodetypes="ccccc" />
    <path id="path42" style="fill:#fdd2a9;stroke-width:2.71701;stroke-linecap:square;paint-order:stroke markers fill" inkscape:transform-center-x="0.31512855" inkscape:transform-center-y="-1.3125169" d="m 137.54176,151.34708 9.1287,12.06863 -21.19644,2.92143 z" sodipodi:nodetypes="cccc" />
    <path sodipodi:type="star" style="fill:#bd6b42;fill-opacity:1;stroke:none;stroke-width:1.377;stroke-linecap:square;stroke-dasharray:none;stroke-opacity:1;paint-order:stroke markers fill" id="path35" inkscape:flatsided="true" sodipodi:sides="3" sodipodi:cx="112.72092" sodipodi:cy="80.26104" sodipodi:r1="11.710597" sodipodi:r2="5.8552985" sodipodi:arg1="1.3605975" sodipodi:arg2="2.407795" inkscape:rounded="0" inkscape:randomized="0" d="m 115.16438,91.71388 -13.58365,-15.063156 19.8369,-4.232209 z" inkscape:transform-center-x="1.796472" inkscape:transform-center-y="-1.2306618" transform="rotate(-30.089342,207.29657,99.281098)" />
    <path sodipodi:type="star" style="fill:#bd6b42;fill-opacity:1;stroke:none;stroke-width:1.377;stroke-linecap:square;stroke-dasharray:none;stroke-opacity:1;paint-order:stroke markers fill" id="path35-4" inkscape:flatsided="true" sodipodi:sides="3" sodipodi:cx="112.72092" sodipodi:cy="80.26104" sodipodi:r1="11.710597" sodipodi:r2="5.8552985" sodipodi:arg1="1.3605975" sodipodi:arg2="2.407795" inkscape:rounded="0" inkscape:randomized="0" d="m 115.16438,91.71388 -13.58365,-15.063156 19.8369,-4.232209 z" inkscape:transform-center-x="-1.3929691" inkscape:transform-center-y="0.35149899" transform="matrix(-0.57004109,-0.1216343,-0.1216343,0.57004109,204.46126,101.73611)" />
    <path id="path33" style="fill:#bd6b42;stroke-width:1.377;stroke-linecap:square;paint-order:stroke markers fill" inkscape:transform-center-x="1.4776452e-06" inkscape:transform-center-y="1.4613485" d="m 125.47402,166.33714 -13.84412,-4.05855 -2.80612,-20.68851 18.93502,10.61553 14.24474,-19.48841 -1.37255,21.98313 z" sodipodi:nodetypes="ccccccc" />
    <path id="path11-3" style="fill:#ffead5;fill-opacity:1;stroke:#a25130;stroke-width:2.34001;stroke-linecap:square;stroke-dasharray:none;stroke-opacity:1;paint-order:stroke markers fill" inkscape:transform-center-x="-0.63212927" inkscape:transform-center-y="0.43092903" d="m 138.81068,169.34392 -10.27558,-5.1962 9.14467,-8.00243 9.58981,5.86172 z" sodipodi:nodetypes="ccccc" />
    <path sodipodi:type="star" style="fill:#ff922a;fill-opacity:1;stroke:none;stroke-width:2.71701;stroke-linecap:square;stroke-dasharray:none;stroke-opacity:1;paint-order:stroke markers fill" id="path43" inkscape:flatsided="true" sodipodi:sides="5" sodipodi:cx="124.8583" sodipodi:cy="111.13067" sodipodi:r1="1.8723478" sodipodi:r2="0.93617386" sodipodi:arg1="-1.7338916" sodipodi:arg2="-1.1055731" inkscape:rounded="0" inkscape:randomized="0" d="m 124.55428,109.28317 1.96715,0.98745 -0.33124,2.17601 -2.17187,0.3574 -1.01105,-1.95513 z" inkscape:transform-center-x="-0.23123374" inkscape:transform-center-y="-0.50234306" transform="matrix(1.5211847,0,0,1.5211847,-54.234434,-6.4474985)" />
    <path id="path45" style="fill:#a25130;stroke-width:2.71701;stroke-linecap:square;paint-order:stroke markers fill" inkscape:transform-center-x="-0.147524" inkscape:transform-center-y="-0.18106844" d="m 137.67977,155.31847 9.58981,6.68854 c -6.26424,-1.88001 -12.50495,-0.61663 -18.73448,2.14071 z" sodipodi:nodetypes="cccc" />
    <path id="path44" style="fill:#ffa52a;stroke-width:2.71701;stroke-linecap:square;paint-order:stroke markers fill" inkscape:transform-center-x="0.059420238" inkscape:transform-center-y="-0.14875935" d="m 134.39902,165.10704 1.15616,-2.63672 2.16897,2.13427 z" sodipodi:nodetypes="cccc" />
    <path sodipodi:type="star" style="fill:#a25130;fill-opacity:1;stroke:none;stroke-width:2.71701;stroke-linecap:square;stroke-dasharray:none;stroke-opacity:1;paint-order:stroke markers fill" id="path46-4" inkscape:flatsided="true" sodipodi:sides="3" sodipodi:cx="120.6488" sodipodi:cy="108.5582" sodipodi:r1="3.298677" sodipodi:r2="1.6493385" sodipodi:arg1="-2.0943951" sodipodi:arg2="-1.0471976" inkscape:rounded="0" inkscape:randomized="0" d="m 118.99947,105.70146 4.94801,2.85674 -4.94801,2.85674 z" inkscape:transform-center-x="0.82466515" inkscape:transform-center-y="-1.3676623e-06" transform="matrix(-1,0,0,1,266.29176,49.784184)" />
    <path id="path29-5" style="fill:#bd6b42;stroke-width:1.377;stroke-linecap:square;paint-order:stroke markers fill" inkscape:transform-center-x="0.29056504" inkscape:transform-center-y="-1.2690712" d="m 127.52454,159.27131 -18.70076,-17.68123 -8.12064,47.55034 14.57217,7.154 -8.41133,-8.79104 10.20507,-31.01296 z" sodipodi:nodetypes="ccccccc" />
    <path id="path33-8" style="fill:#bd6b42;stroke-width:1.377;stroke-linecap:square;paint-order:stroke markers fill" inkscape:transform-center-x="1.4776452e-06" inkscape:transform-center-y="1.4613485" d="m 125.47402,166.33714 -13.84412,-4.05855 -2.80612,-20.68851 18.93502,10.61553 v 0 z" sodipodi:nodetypes="ccccccc" />
    <path sodipodi:type="star" style="fill:#a25130;fill-opacity:1;stroke:none;stroke-width:2.71701;stroke-linecap:square;stroke-dasharray:none;stroke-opacity:1;paint-order:stroke markers fill" id="path46" inkscape:flatsided="true" sodipodi:sides="3" sodipodi:cx="120.6488" sodipodi:cy="108.5582" sodipodi:r1="3.298677" sodipodi:r2="1.6493385" sodipodi:arg1="-2.0943951" sodipodi:arg2="-1.0471976" inkscape:rounded="0" inkscape:randomized="0" d="m 118.99947,105.70146 4.94801,2.85674 -4.94801,2.85674 z" inkscape:transform-center-x="-0.82466775" inkscape:transform-center-y="-1.3676623e-06" transform="translate(10.275316,51.855432)" />
    <path id="path47" style="fill:#ffead5;stroke-width:2.71701;stroke-linecap:square;paint-order:stroke markers fill" inkscape:transform-center-x="-0.50367804" inkscape:transform-center-y="0.037105056" d="m 119.1603,173.10254 10.40605,0.31419 11.6916,-1.87668 -3.69555,3.43095 -12.65117,1.05002 z" sodipodi:nodetypes="cccccc" />
    <path id="path48" style="fill:#a25130;stroke-width:2.71701;stroke-linecap:square;paint-order:stroke markers fill" inkscape:transform-center-x="0.95102582" inkscape:transform-center-y="-0.060923833" d="m 136.46642,172.30916 4.79153,-0.76911 -3.69555,3.43095 c -1.1657,-0.85214 -1.07997,-1.55422 -1.09598,-2.66184 z" sodipodi:nodetypes="cccc" />
    <path id="path48-5" style="fill:#a25130;stroke-width:2.71701;stroke-linecap:square;paint-order:stroke markers fill" inkscape:transform-center-x="-0.95102418" inkscape:transform-center-y="-0.060923833" d="m 122.81284,173.21282 -3.65254,-0.11028 5.75093,2.91848 c 0.17456,-1.31606 -0.89925,-1.8785 -2.09839,-2.8082 z" sodipodi:nodetypes="cccc" />
    <path id="path38" style="fill:#fdd2a9;fill-opacity:1;stroke-width:1.377;stroke-linecap:square;paint-order:stroke markers fill" inkscape:transform-center-x="-1.8704858" inkscape:transform-center-y="0.91425294" d="m 142.47467,152.08536 2.02464,-15.84975 8.62359,4.91366 -8.27918,20.74883 z" sodipodi:nodetypes="ccccc" />
    <path id="path41" style="fill:#fdd2a9;fill-opacity:1;stroke-width:1.377;stroke-linecap:square;paint-order:stroke markers fill" inkscape:transform-center-x="-0.97566036" inkscape:transform-center-y="-0.419228" d="m 142.47467,159.07615 8.58363,-14.51308 3.59439,6.79705 -9.18279,12.65068 z" sodipodi:nodetypes="ccccc" />
    <path id="path29" style="fill:#bd6b42;stroke-width:1.377;stroke-linecap:square;paint-order:stroke markers fill" inkscape:transform-center-x="-0.29056396" inkscape:transform-center-y="-1.2690712" d="m 132.88234,153.96361 -1.58181,-2.54682 10.70301,-18.69959 21.05278,52.95558 -27.63652,10.11165 15.45681,-11.18555 -10.63432,-31.35041 z" sodipodi:nodetypes="cccccccc" />
    <path id="path36" style="fill:#fdd2a9;fill-opacity:1;stroke-width:1.377;stroke-linecap:square;paint-order:stroke markers fill" inkscape:transform-center-x="-2.3601682" inkscape:transform-center-y="-0.027447564" d="m 175.83905,211.15245 -12.78273,-7.76485 -25.81677,-46.29008 -4.34545,-18.04553 8.35254,-1.5677 3.57165,19.42972 z" sodipodi:nodetypes="ccccccc" />
    <path id="path52" style="fill:#ffead5;fill-opacity:1;stroke:#a25130;stroke-width:5.01208;stroke-linecap:square;stroke-dasharray:none;stroke-opacity:1;paint-order:stroke markers fill" inkscape:transform-center-y="-3.2264092" d="M 106.17166,82.161748 87.805725,93.880768 106.17166,105.59979 124.53902,93.880768 Z" inkscape:transform-center-x="-1.5002877e-06" />
    <path sodipodi:type="star" style="fill:#ff922a;fill-opacity:1;stroke:none;stroke-width:3.12999;stroke-linecap:square;stroke-dasharray:none;stroke-opacity:1;paint-order:stroke markers fill" id="path53" inkscape:flatsided="true" sodipodi:sides="5" sodipodi:cx="119.0625" sodipodi:cy="47.228123" sodipodi:r1="2.9134219" sodipodi:r2="1.4567109" sodipodi:arg1="-1.5707963" sodipodi:arg2="-0.94247777" inkscape:rounded="0" inkscape:randomized="0" d="m 119.0625,44.314701 2.77083,2.013125 -1.05836,3.257305 -3.42494,-10e-7 -1.05836,-3.257304 z" inkscape:transform-center-y="-1.4457862" transform="matrix(1.9849935,0,0,1.9849935,-133.01459,0.68548013)" inkscape:transform-center-x="1.0583786e-05" />
    <path id="path54" style="fill:#ffa52a;stroke-width:8.67418;stroke-linecap:square;paint-order:stroke markers fill" inkscape:transform-center-y="-0.28688813" d="m 103.31511,94.605168 3.40785,4.50648 H 99.9073 Z" inkscape:transform-center-x="-4.2331383e-06" />
    <path sodipodi:type="star" style="fill:#ff935a;fill-opacity:1;stroke:none;stroke-width:3.12999;stroke-linecap:square;stroke-dasharray:none;stroke-opacity:1;paint-order:stroke markers fill" id="path56" inkscape:flatsided="true" sodipodi:sides="6" sodipodi:cx="157.95625" sodipodi:cy="112.13953" sodipodi:r1="11.975258" sodipodi:r2="5.9876289" sodipodi:arg1="2.0943951" sodipodi:arg2="2.6179939" inkscape:rounded="0" inkscape:randomized="0" d="m 151.96862,122.5104 -5.98762,-10.37087 5.98762,-10.37088 11.97526,0 5.98763,10.37088 -5.98763,10.37087 z" inkscape:transform-center-x="-1.1645202" transform="matrix(0.38898207,-1.4202233,1.4202233,0.38898207,-71.57744,288.30786)" inkscape:transform-center-y="-4.2518728" />
    <path id="path59" style="fill:#fa733e;fill-opacity:1;stroke-width:3.75632;stroke-linecap:square;paint-order:stroke markers fill" inkscape:transform-center-x="-0.011611219" inkscape:transform-center-y="-3.3444755" d="m 153.55068,92.335729 11.02748,11.349031 -4.23031,15.04906 -15.52955,4.6872 z" sodipodi:nodetypes="ccccc" />
    <path id="path59-5" style="fill:#ffead5;fill-opacity:1;stroke-width:3.03022;stroke-linecap:square;paint-order:stroke markers fill" inkscape:transform-center-x="-0.0093649434" inkscape:transform-center-y="-2.6979921" d="m 153.07886,94.015326 10.19512,10.148064 -3.76983,13.47201 -14.32479,4.50029 z" sodipodi:nodetypes="ccccc" />
    <path id="path59-5-6" style="fill:#ffa75a;fill-opacity:1;stroke-width:3.03022;stroke-linecap:square;paint-order:stroke markers fill" inkscape:transform-center-x="-0.009362299" inkscape:transform-center-y="-2.697991" d="m 152.69697,95.374735 8.86556,8.658015 -2.97601,12.67819 -13.05348,4.16572 z" sodipodi:nodetypes="ccccc" />
    <path sodipodi:type="star" style="fill:#fa733e;fill-opacity:1;stroke:none;stroke-width:3.12999;stroke-linecap:square;stroke-dasharray:none;stroke-opacity:1;paint-order:stroke markers fill" id="path60" inkscape:flatsided="true" sodipodi:sides="3" sodipodi:cx="155.11989" sodipodi:cy="110.80618" sodipodi:r1="1.1687893" sodipodi:r2="0.58439463" sodipodi:arg1="1.1149818" sodipodi:arg2="2.1621793" inkscape:rounded="0" inkscape:randomized="0" d="m 155.63438,111.85564 -1.6806,-1.12862 1.81772,-0.89113 z" inkscape:transform-center-x="-0.3429169" inkscape:transform-center-y="-0.0089135121" transform="matrix(0.5419318,-1.0707782,1.0707782,0.5419318,-64.220813,215.74822)" />
    <path sodipodi:type="star" style="fill:#fa733e;fill-opacity:1;stroke:none;stroke-width:3.12999;stroke-linecap:square;stroke-dasharray:none;stroke-opacity:1;paint-order:stroke markers fill" id="path60-1" inkscape:flatsided="true" sodipodi:sides="3" sodipodi:cx="155.11989" sodipodi:cy="110.80618" sodipodi:r1="1.1687893" sodipodi:r2="0.58439463" sodipodi:arg1="1.1149818" sodipodi:arg2="2.1621793" inkscape:rounded="0" inkscape:randomized="0" d="m 155.63438,111.85564 -1.6806,-1.12862 1.81772,-0.89113 z" inkscape:transform-center-x="0.18306978" inkscape:transform-center-y="0.32374116" transform="matrix(1.6198993,0.44528078,-0.44528078,1.6198993,-55.266726,-147.08189)" />
    <path sodipodi:type="star" style="fill:#fa733e;fill-opacity:1;stroke:none;stroke-width:3.12999;stroke-linecap:square;stroke-dasharray:none;stroke-opacity:1;paint-order:stroke markers fill" id="path60-1-5" inkscape:flatsided="true" sodipodi:sides="3" sodipodi:cx="155.11989" sodipodi:cy="110.80618" sodipodi:r1="1.1687893" sodipodi:r2="0.58439463" sodipodi:arg1="1.1149818" sodipodi:arg2="2.1621793" inkscape:rounded="0" inkscape:randomized="0" d="m 155.63438,111.85564 -1.6806,-1.12862 1.81772,-0.89113 z" inkscape:transform-center-x="0.0019651024" inkscape:transform-center-y="-0.48917323" transform="matrix(0.1104226,1.6763519,-1.6763519,0.1104226,311.7412,-175.24747)" />
    <path sodipodi:type="star" style="fill:#fa733e;fill-opacity:1;stroke:none;stroke-width:3.12999;stroke-linecap:square;stroke-dasharray:none;stroke-opacity:1;paint-order:stroke markers fill" id="path60-1-3" inkscape:flatsided="true" sodipodi:sides="3" sodipodi:cx="155.11989" sodipodi:cy="110.80618" sodipodi:r1="1.1687893" sodipodi:r2="0.58439463" sodipodi:arg1="1.1149818" sodipodi:arg2="2.1621793" inkscape:rounded="0" inkscape:randomized="0" d="m 155.63438,111.85564 -1.6806,-1.12862 1.81772,-0.89113 z" inkscape:transform-center-x="-0.12985317" inkscape:transform-center-y="0.14052612" transform="matrix(0.67958973,0.58062727,-0.58062727,0.67958973,96.485237,-61.828408)" />
    <path sodipodi:type="star" style="fill:#fa733e;fill-opacity:1;stroke:none;stroke-width:3.12999;stroke-linecap:square;stroke-dasharray:none;stroke-opacity:1;paint-order:stroke markers fill" id="path60-1-7" inkscape:flatsided="true" sodipodi:sides="5" sodipodi:cx="155.11989" sodipodi:cy="110.80618" sodipodi:r1="1.1687893" sodipodi:r2="0.58439463" sodipodi:arg1="1.1149818" sodipodi:arg2="1.7433003" inkscape:rounded="0" inkscape:randomized="0" d="m 155.63438,111.85564 -1.3536,-0.23584 -0.19398,-1.36024 1.23371,-0.60482 0.95646,0.98643 z" inkscape:transform-center-x="0.13664222" inkscape:transform-center-y="-0.028935738" transform="matrix(0.98542006,0.27087401,-0.27087401,0.98542006,20.203882,-33.167623)" />
    <path sodipodi:type="star" style="fill:#fa733e;fill-opacity:1;stroke:none;stroke-width:3.12999;stroke-linecap:square;stroke-dasharray:none;stroke-opacity:1;paint-order:stroke markers fill" id="path60-1-7-4" inkscape:flatsided="true" sodipodi:sides="5" sodipodi:cx="155.11989" sodipodi:cy="110.80618" sodipodi:r1="1.1687893" sodipodi:r2="0.58439463" sodipodi:arg1="1.1149818" sodipodi:arg2="1.7433003" inkscape:rounded="0" inkscape:randomized="0" d="m 155.63438,111.85564 -1.3536,-0.23584 -0.19398,-1.36024 1.23371,-0.60482 0.95646,0.98643 z" inkscape:transform-center-x="0.39932943" inkscape:transform-center-y="0.17951155" transform="matrix(1.2229657,-0.7660889,0.7660889,1.2229657,-137.08894,97.170223)" />
    <path sodipodi:type="star" style="fill:#fa733e;fill-opacity:1;stroke:none;stroke-width:3.12999;stroke-linecap:square;stroke-dasharray:none;stroke-opacity:1;paint-order:stroke markers fill" id="path60-1-7-1" inkscape:flatsided="true" sodipodi:sides="5" sodipodi:cx="155.11989" sodipodi:cy="110.80618" sodipodi:r1="1.1687893" sodipodi:r2="0.58439463" sodipodi:arg1="1.1149818" sodipodi:arg2="1.7433003" inkscape:rounded="0" inkscape:randomized="0" d="m 155.63438,111.85564 -1.3536,-0.23584 -0.19398,-1.36024 1.23371,-0.60482 0.95646,0.98643 z" inkscape:transform-center-x="-0.13448543" inkscape:transform-center-y="-0.30448229" transform="matrix(0.1605779,1.6140591,-1.6140591,0.1605779,298.61748,-159.73357)" />
    <path sodipodi:type="star" style="fill:#fa733e;fill-opacity:1;stroke:none;stroke-width:3.12999;stroke-linecap:square;stroke-dasharray:none;stroke-opacity:1;paint-order:stroke markers fill" id="path60-1-7-7" inkscape:flatsided="true" sodipodi:sides="4" sodipodi:cx="155.11989" sodipodi:cy="110.80618" sodipodi:r1="1.1687893" sodipodi:r2="0.58439463" sodipodi:arg1="1.1149818" sodipodi:arg2="1.90038" inkscape:rounded="0" inkscape:randomized="0" d="m 155.63438,111.85564 -1.56395,-0.53496 0.53496,-1.56396 1.56396,0.53497 z" inkscape:transform-center-x="0.16752328" inkscape:transform-center-y="-0.17320365" transform="matrix(0.98542006,0.27087401,-0.27087401,0.98542006,19.037555,-46.597624)" />
    <path sodipodi:type="star" style="fill:#fa733e;fill-opacity:1;stroke:none;stroke-width:3.12999;stroke-linecap:square;stroke-dasharray:none;stroke-opacity:1;paint-order:stroke markers fill" id="path60-1-7-7-5" inkscape:flatsided="true" sodipodi:sides="4" sodipodi:cx="155.11989" sodipodi:cy="110.80618" sodipodi:r1="1.1687893" sodipodi:r2="0.58439463" sodipodi:arg1="1.1149818" sodipodi:arg2="1.90038" inkscape:rounded="0" inkscape:randomized="0" d="m 155.63438,111.85564 -1.56395,-0.53496 0.53496,-1.56396 1.56396,0.53497 z" inkscape:transform-center-x="0.024418412" inkscape:transform-center-y="-0.23972953" transform="matrix(0.60651638,0.82253467,-0.82253467,0.60651638,146.60394,-100.78192)" />
    <path id="path61" style="fill:#ffead5;stroke-width:3.75632;stroke-linecap:square;paint-order:stroke markers fill" inkscape:transform-center-x="4.2164597e-06" d="m 149.27123,107.56959 0.18688,-0.66527 11.95218,-3.49034 1.25585,1.46885 z" sodipodi:nodetypes="ccccc" />
    <path id="path61-5" style="fill:#ffead5;stroke-width:3.75632;stroke-linecap:square;paint-order:stroke markers fill" inkscape:transform-center-x="2.1745147e-06" inkscape:transform-center-y="-1.1111118e-06" d="m 149.27123,107.56959 -0.23861,0.84942 8.92598,9.02635 1.25585,-1.46885 z" sodipodi:nodetypes="ccccc" />
    <path id="path62" style="fill:#ffead5;stroke-width:3.75632;stroke-linecap:square;paint-order:stroke markers fill" inkscape:transform-center-x="4.3312041e-06" inkscape:transform-center-y="-5.8038269e-06" d="m 148.59849,109.96439 0.51651,-1.8387 3.22675,11.75986 -1.95645,0.61463 z" sodipodi:nodetypes="ccccc" />
    <path id="path63" style="fill:#ffead5;stroke-width:3.75632;stroke-linecap:square;paint-order:stroke markers fill" d="m 149.18449,107.87836 0.22968,-0.81757 12.23978,2.89203 -1.37108,2.55466 z" sodipodi:nodetypes="ccccc" />
    <path id="path64" style="fill:#ffead5;stroke-width:3.75632;stroke-linecap:square;paint-order:stroke markers fill" inkscape:transform-center-x="2.5926635e-06" inkscape:transform-center-y="-1.0515759e-06" d="m 149.90074,105.3287 6.06794,-7.319975 1.55455,2.079285 -8.252,7.48158 z" sodipodi:nodetypes="ccccc" />
    <path id="rect64" style="fill:#fa733e;fill-opacity:1;stroke-width:3.75632;stroke-linecap:square;paint-order:stroke markers fill" d="m 152.06928,91.83436 1.4814,0.501369 -8.73237,31.085271 -1.27496,-1.28531 z" sodipodi:nodetypes="ccccc" />
  </g>
</svg>
