<?xml version="1.0" encoding="UTF-8" standalone="no"?>
<!-- Created with Inkscape (http://www.inkscape.org/) -->

<svg width="54.524376mm" height="54.524376mm" viewBox="0 0 54.524376 54.524376" version="1.1" id="svg5" xml:space="preserve" inkscape:version="1.3 (0e150ed6c4, 2023-07-21)" sodipodi:docname="сонный.svg" xmlns:inkscape="http://www.inkscape.org/namespaces/inkscape" xmlns:sodipodi="http://sodipodi.sourceforge.net/DTD/sodipodi-0.dtd" xmlns="http://www.w3.org/2000/svg" xmlns:svg="http://www.w3.org/2000/svg"><sodipodi:namedview id="namedview7" pagecolor="#ffffff" bordercolor="#666666" borderopacity="1.0" inkscape:showpageshadow="2" inkscape:pageopacity="0.0" inkscape:pagecheckerboard="0" inkscape:deskcolor="#d1d1d1" inkscape:document-units="mm" showgrid="false" inkscape:zoom="1.3266287" inkscape:cx="32.412987" inkscape:cy="167.34147" inkscape:window-width="2560" inkscape:window-height="1413" inkscape:window-x="-9" inkscape:window-y="-9" inkscape:window-maximized="1" inkscape:current-layer="layer1" /><defs id="defs2" /><g inkscape:label="Слой 1" inkscape:groupmode="layer" id="layer1" transform="translate(138.95451,19.646805)"><rect style="fill:#dcf3ff;fill-opacity:1;fill-rule:evenodd;stroke-width:0.264582" id="rect234" width="54.524376" height="54.524376" x="-138.95451" y="-19.646805" inkscape:export-filename="ICO.png" inkscape:export-xdpi="435.79953" inkscape:export-ydpi="435.79953" /><rect style="fill:#a892ff;fill-opacity:1;fill-rule:evenodd;stroke-width:0.264583" id="rect234-8" width="25.976561" height="25.976561" x="-124.85509" y="2.3549144" inkscape:export-filename="ICO.png" inkscape:export-xdpi="435.79953" inkscape:export-ydpi="435.79953" rx="18.128021" ry="18.128021" /><path id="path2528" style="fill:#6dddff;stroke-width:1.865;stroke-linecap:square;stroke-dashoffset:11.6651;paint-order:markers stroke fill" inkscape:transform-center-x="-0.82459416" inkscape:transform-center-y="0.79053753" d="m -130.33428,-1.844824 c 12.04362,-1.4271226 24.04596,-2.7905064 28.68836,7.2088268 l -24.13159,12.1231762 c -0.57083,-9.7015027 0.8038,-14.8147179 -4.55677,-19.332003 z" sodipodi:nodetypes="cccc" /><ellipse style="fill:#2fbaff;fill-opacity:1;fill-rule:evenodd;stroke-width:0.264583" id="path5331" cx="-129.53651" cy="1.3960826" rx="4.0733523" ry="3.9631858" /><path id="rect6115" style="fill:#24b7ff;fill-opacity:1;fill-rule:evenodd;stroke-width:0.264583" d="m -126.24024,15.123531 c 6.78165,-5.2636836 24.28635,-11.1332171 24.87035,-11.6331473 0,0 2.533052,0.7911907 1.868585,1.6217952 -5.167045,6.4589701 -26.846995,13.6233611 -26.421625,14.1716091 0,0 -1.41598,-3.307504 -0.31731,-4.160257 z" sodipodi:nodetypes="scscs" /><path id="path7984" style="fill:#4b3e7b;fill-opacity:1;fill-rule:evenodd;stroke-width:0.264583" d="m -123.40392,14.833505 a 5.0358442,5.0358442 0 0 0 2.51815,4.361009 5.0358442,5.0358442 0 0 0 5.03565,0 5.0358442,5.0358442 0 0 0 2.51814,-4.361009 h -1.89633 a 3.1396313,3.1396313 0 0 1 -1.56966,2.719188 3.1396313,3.1396313 0 0 1 -3.13995,0 3.1396313,3.1396313 0 0 1 -1.56965,-2.719188 z" /><path id="path7984-5" style="fill:#4b3e7b;fill-opacity:1;fill-rule:evenodd;stroke-width:0.264583" d="m -100.32969,14.833505 a 5.0358442,5.0358442 0 0 1 -2.51815,4.361009 5.0358442,5.0358442 0 0 1 -5.03564,0 5.0358442,5.0358442 0 0 1 -2.51814,-4.361009 h 1.89633 a 3.1396313,3.1396313 0 0 0 1.56966,2.719188 3.1396313,3.1396313 0 0 0 3.13995,0 3.1396313,3.1396313 0 0 0 1.56964,-2.719188 z" /><circle style="fill:#4b3e7b;fill-opacity:1;fill-rule:evenodd;stroke-width:0.264583" id="path8243" cx="-107.14934" cy="24.780466" r="1.071992" /><text xml:space="preserve" style="font-style:normal;font-variant:normal;font-weight:normal;font-stretch:normal;font-size:12.2113px;line-height:1.25;font-family:'Franklin Gothic Medium';-inkscape-font-specification:'Franklin Gothic Medium, Normal';font-variant-ligatures:normal;font-variant-caps:normal;font-variant-numeric:normal;font-feature-settings:normal;text-align:center;letter-spacing:0px;word-spacing:0px;writing-mode:lr-tb;text-anchor:middle;fill:#6800ff;fill-opacity:1;stroke:none;stroke-width:0.264584" x="-85.602592" y="14.726123" id="text9163" transform="scale(1.1538298,0.86667895)"><tspan sodipodi:role="line" id="tspan9161" style="fill:#6800ff;fill-opacity:1;stroke-width:0.264584" x="-85.602592" y="14.726123">Z</tspan></text><text xml:space="preserve" style="font-style:normal;font-variant:normal;font-weight:normal;font-stretch:normal;font-size:10.9511px;line-height:1.25;font-family:'Franklin Gothic Medium';-inkscape-font-specification:'Franklin Gothic Medium, Normal';font-variant-ligatures:normal;font-variant-caps:normal;font-variant-numeric:normal;font-feature-settings:normal;text-align:center;letter-spacing:0px;word-spacing:0px;writing-mode:lr-tb;text-anchor:middle;fill:#6800ff;fill-opacity:1;stroke:none;stroke-width:0.264584" x="-91.023659" y="4.0273089" id="text9163-6" transform="scale(1.1538298,0.86667896)"><tspan sodipodi:role="line" id="tspan9161-6" style="fill:#6800ff;fill-opacity:1;stroke-width:0.264584" x="-91.023659" y="4.0273089">Z</tspan></text><text xml:space="preserve" style="font-style:normal;font-variant:normal;font-weight:normal;font-stretch:normal;font-size:15.9492px;line-height:1.25;font-family:'Franklin Gothic Medium';-inkscape-font-specification:'Franklin Gothic Medium, Normal';font-variant-ligatures:normal;font-variant-caps:normal;font-variant-numeric:normal;font-feature-settings:normal;text-align:center;letter-spacing:0px;word-spacing:0px;writing-mode:lr-tb;text-anchor:middle;fill:#6800ff;fill-opacity:1;stroke:none;stroke-width:0.264584" x="-83.024734" y="-2.5108409" id="text9163-1" transform="scale(1.1538298,0.86667896)"><tspan sodipodi:role="line" id="tspan9161-7" style="fill:#6800ff;fill-opacity:1;stroke-width:0.264584" x="-83.024734" y="-2.5108409">Z</tspan></text><rect style="fill:#ffffff;fill-opacity:1;fill-rule:evenodd;stroke-width:0.264582" id="rect234-6" width="45.498734" height="45.498734" x="-51.09552" y="-57.723728" inkscape:export-filename="ICO.png" inkscape:export-xdpi="435.79953" inkscape:export-ydpi="435.79953" /><rect style="fill:#9b3bff;fill-opacity:1;fill-rule:evenodd;stroke-width:0.264583" id="rect234-8-1" width="25.976561" height="25.976561" x="-40.521748" y="-45.875854" inkscape:export-filename="ICO.png" inkscape:export-xdpi="435.79953" inkscape:export-ydpi="435.79953" rx="18.128021" ry="18.128021" /><path id="path2528-2" style="fill:#00b9ff;fill-opacity:1;stroke-width:1.865;stroke-linecap:square;stroke-dashoffset:11.6651;paint-order:markers stroke fill" inkscape:transform-center-x="-0.82459416" inkscape:transform-center-y="0.79053753" d="m -46.00094,-50.075592 c 12.04362,-1.427123 24.04596,-2.790506 28.68836,7.208827 l -24.13159,12.123176 c -0.57083,-9.701503 0.8038,-14.814718 -4.55677,-19.332003 z" sodipodi:nodetypes="cccc" /><ellipse style="fill:#007dff;fill-opacity:1;fill-rule:evenodd;stroke-width:0.264583" id="path5331-5" cx="-45.203175" cy="-46.834686" rx="4.0733523" ry="3.9631858" /><path id="rect6115-3" style="fill:#007dff;fill-opacity:1;fill-rule:evenodd;stroke-width:0.264583" d="m -41.9069,-33.107237 c 6.78165,-5.263684 24.28635,-11.133217 24.87035,-11.633147 0,0 2.533052,0.79119 1.868585,1.621795 -5.167045,6.45897 -26.846995,13.623361 -26.421625,14.171609 0,0 -1.41598,-3.307504 -0.31731,-4.160257 z" sodipodi:nodetypes="scscs" /><path style="fill:#ffffff;fill-opacity:1;fill-rule:evenodd;stroke-width:0.264583" id="path10022" sodipodi:type="arc" sodipodi:cx="-34.278095" sodipodi:cy="-32.409706" sodipodi:rx="5.8860078" sodipodi:ry="5.8342752" sodipodi:start="0" sodipodi:end="3.1415927" sodipodi:arc-type="slice" d="m -28.392087,-32.409706 a 5.8860078,5.8342752 0 0 1 -2.943004,5.052631 5.8860078,5.8342752 0 0 1 -5.886008,-1e-6 5.8860078,5.8342752 0 0 1 -2.943004,-5.05263 h 5.886008 z" /><rect style="fill:#14005e;fill-opacity:1;fill-rule:evenodd;stroke-width:0.264583" id="rect10184" width="4.4249048" height="4.0192461" x="-34.622158" y="32.268471" rx="2.0096231" ry="2.0096231" transform="rotate(90)" /><path style="fill:#14005e;fill-opacity:1;fill-rule:evenodd;stroke-width:0.264583" id="path10022-1" sodipodi:type="arc" sodipodi:cx="-34.278095" sodipodi:cy="32.409706" sodipodi:rx="5.8860078" sodipodi:ry="5.8342752" sodipodi:start="0" sodipodi:end="3.1415927" sodipodi:arc-type="slice" d="m -28.392087,32.409706 a 5.8860078,5.8342752 0 0 1 -2.943004,5.052631 5.8860078,5.8342752 0 0 1 -5.886008,0 5.8860078,5.8342752 0 0 1 -2.943004,-5.052631 h 5.886008 z" transform="scale(1,-1)" /><path style="fill:#ffffff;fill-opacity:1;fill-rule:evenodd;stroke-width:0.264583" id="path10022-3" sodipodi:type="arc" sodipodi:cx="-20.760977" sodipodi:cy="-32.409706" sodipodi:rx="5.8860078" sodipodi:ry="5.8342752" sodipodi:start="0" sodipodi:end="3.1415927" sodipodi:arc-type="slice" d="m -14.874969,-32.409706 a 5.8860078,5.8342752 0 0 1 -2.943004,5.052631 5.8860078,5.8342752 0 0 1 -5.886008,-1e-6 5.8860078,5.8342752 0 0 1 -2.943004,-5.05263 h 5.886008 z" /><rect style="fill:#14005e;fill-opacity:1;fill-rule:evenodd;stroke-width:0.264583" id="rect10184-8" width="4.4249048" height="4.0192461" x="-34.622158" y="18.751352" rx="2.0096231" ry="2.0096231" transform="rotate(90)" /><path style="fill:#14005e;fill-opacity:1;fill-rule:evenodd;stroke-width:0.264583" id="path10022-1-6" sodipodi:type="arc" sodipodi:cx="-20.760977" sodipodi:cy="32.409706" sodipodi:rx="5.8860078" sodipodi:ry="5.8342752" sodipodi:start="0" sodipodi:end="3.1415927" sodipodi:arc-type="slice" d="m -14.874969,32.409706 a 5.8860078,5.8342752 0 0 1 -2.943004,5.052631 5.8860078,5.8342752 0 0 1 -5.886008,0 5.8860078,5.8342752 0 0 1 -2.943004,-5.052631 h 5.886008 z" transform="scale(1,-1)" /><path id="path7984-5-0" style="fill:#14005e;fill-opacity:1;fill-rule:evenodd;stroke-width:0.264583" d="m -21.856995,-25.046669 a 2.3416891,2.3416891 0 0 1 -1.170544,2.028121 2.3416891,2.3416891 0 0 1 -1.835023,0.216997 l -0.408553,1.35208 a 3.7559765,3.7559765 0 0 0 2.95045,-0.344572 3.7559765,3.7559765 0 0 0 1.87819,-3.252626 z" /></g></svg>
