<?xml version="1.0" encoding="UTF-8" standalone="no"?>
<!-- Created with Inkscape (http://www.inkscape.org/) -->

<svg width="127.34839mm" height="143.82841mm" viewBox="0 0 127.34839 143.82841" version="1.1" id="svg5" inkscape:version="1.3 (0e150ed6c4, 2023-07-21)" sodipodi:docname="x32x64_gift.svg" xmlns:inkscape="http://www.inkscape.org/namespaces/inkscape" xmlns:sodipodi="http://sodipodi.sourceforge.net/DTD/sodipodi-0.dtd" xmlns="http://www.w3.org/2000/svg" xmlns:svg="http://www.w3.org/2000/svg">
  <sodipodi:namedview id="namedview7" pagecolor="#505050" bordercolor="#ffffff" borderopacity="1" inkscape:pageshadow="0" inkscape:pageopacity="0" inkscape:pagecheckerboard="1" inkscape:document-units="mm" showgrid="false" inkscape:zoom="1.0733976" inkscape:cx="294.39232" inkscape:cy="369.85364" inkscape:window-width="2004" inkscape:window-height="1406" inkscape:window-x="-11" inkscape:window-y="-11" inkscape:window-maximized="1" inkscape:current-layer="layer2" showguides="true" inkscape:object-paths="true" inkscape:showpageshadow="2" inkscape:deskcolor="#d1d1d1" />
  <defs id="defs2">
    <filter inkscape:collect="always" style="color-interpolation-filters:sRGB" id="filter128336" x="-0.11716408" y="-0.081298029" width="1.2343282" height="1.1625961">
      <feGaussianBlur inkscape:collect="always" stdDeviation="4.055691" id="feGaussianBlur128338" />
    </filter>
  </defs>
  <g inkscape:groupmode="layer" id="layer2" inkscape:label="Слой 2">
    <rect style="opacity:1;fill:#2c2022;fill-opacity:1;stroke:none;stroke-width:1.51411;stroke-linecap:round;stroke-miterlimit:4;stroke-dasharray:none;stroke-opacity:1;paint-order:stroke markers fill" id="rect125509" width="127.34839" height="143.82841" x="0" y="-1.3877788e-17" inkscape:export-filename="ведьма.png" inkscape:export-xdpi="598.35858" inkscape:export-ydpi="598.35858" />
    <rect style="fill:#543b3e;fill-opacity:1;stroke:none;stroke-width:1.15287;stroke-linecap:round;stroke-miterlimit:4;stroke-dasharray:none;stroke-opacity:1;paint-order:stroke markers fill" id="rect125509-6" width="96.96537" height="109.51357" x="33.031155" y="-0.50245798" transform="rotate(11.808185)" />
    <rect style="fill:#7a585d;fill-opacity:1;stroke:none;stroke-width:0.566884;stroke-linecap:round;stroke-miterlimit:4;stroke-dasharray:none;stroke-opacity:1;paint-order:stroke markers fill" id="rect125509-6-0" width="47.679398" height="53.849548" x="-12.30023" y="32.543949" transform="rotate(-22.542688)" />
    <g id="g134410" transform="translate(-3.5344075,-11.469126)">
      <path id="path123057-6-4" style="fill:#8f6781;fill-opacity:1;stroke-width:1.265;stroke-linecap:round;paint-order:stroke markers fill;filter:url(#filter128336)" inkscape:transform-center-x="1.8921745" inkscape:transform-center-y="-0.41139971" d="m 53.386746,26.695858 -4.736661,7.057968 -17.044437,-4.671033 7.992277,13.804325 -5.682859,2.031401 0.684713,1.914611 5.216736,-1.865002 -0.0052,1.955436 -2.289783,3.411678 1.688785,1.133264 0.591179,-0.880566 -0.0026,0.985986 -0.588594,-0.10542 -11.626681,-2.082043 -10.225214,28.000874 13.880806,1.51257 -0.170532,1.500166 -3.850928,-0.7121 2.907834,4.595585 -3.479893,10.402464 -10.130647,6.622338 12.94288,2.13372 1.396296,1.75028 -2.269628,11.06289 7.515821,-4.48603 3.500043,4.38784 -3.057694,1.49242 1.080037,2.6324 1.232484,15.21819 -1.006141,1.00614 1.115695,0.34571 0.775147,9.57203 9.571508,-0.17208 -1.210262,-6.56963 6.510197,2.01693 -1.537375,-5.52111 4.121714,1.65417 2.256708,-1.43816 -0.730705,5.5206 8.268747,-3.54553 1.070219,6.20686 6.841442,-2.31407 12.30571,-5.6379 0.939993,2.06396 9.736357,-10.45053 -4.885489,-27.0769 L 99.592195,87.229114 97.229032,82.398918 94.50775,80.556653 74.782856,57.839177 70.527303,57.076949 66.181831,38.5587 61.408478,37.25077 v -5.17e-4 l -0.684712,-1.914612 -2.735234,0.977718 -7.270358,-1.992643 4.356841,-6.491593 z m 23.732918,54.687102 0.692981,2.067058 -1.115177,0.04754 -0.112138,-2.105814 z m 5.790345,2.031916 2.332157,1.791104 -1.623158,-0.487825 z m -4.571298,1.604555 0.860414,2.567283 9.815938,3.723288 -1.468128,3.22099 -1.298112,-0.781862 -3.251999,3.031339 -5.794994,-3.788399 -0.3483,-6.555155 z m 2.858224,16.063619 -5.708694,19.05982 -0.983922,-4.79506 3.509864,-7.06468 -0.351401,-6.61717 z m -8.519892,17.94309 2.668569,1.59318 -2.570385,8.58191 -1.272273,-7.81193 z" />
      <path id="path123057-6" style="fill:#ba3359;stroke-width:1.265;stroke-linecap:round;paint-order:stroke markers fill" inkscape:transform-center-x="1.8921745" inkscape:transform-center-y="-0.41139971" d="M 75.619576,120.78238 65.64344,72.157281 50.983666,106.07796 Z" sodipodi:nodetypes="cccc" />
      <path id="path5151" style="fill:#9c2258;stroke-width:1.465;stroke-linecap:round;paint-order:stroke markers fill" inkscape:transform-center-x="-2.3829469" inkscape:transform-center-y="0.44646355" d="M 65.545891,52.464135 75.876866,68.053516 78.014274,108.2828 65.761394,132.9457 55.774748,61.920222 Z" sodipodi:nodetypes="cccccc" />
      <path id="path125111-2" style="fill:#ba3359;stroke-width:1.265;stroke-linecap:round;paint-order:stroke markers fill" inkscape:transform-center-x="-1.5697672" inkscape:transform-center-y="-0.98447113" d="M 87.890166,99.979121 74.735584,91.38006 72.349854,70.394101 64.687574,99.994139 74.947248,102.11309 Z" sodipodi:nodetypes="cccccc" />
      <path id="path123057" style="opacity:1;fill:#ba3359;stroke-width:4.7811;stroke-linecap:round;paint-order:stroke markers fill" inkscape:transform-center-x="-1.8921745" inkscape:transform-center-y="-0.41139971" d="m 108.03593,439.39005 37.70508,-183.77992 55.40702,128.20415 z" sodipodi:nodetypes="cccc" transform="scale(0.26458333)" />
      <path id="path109022" style="opacity:1;fill:#2e0310;stroke-width:1.265;stroke-linecap:round;paint-order:stroke markers fill" inkscape:transform-center-x="1.3403556" inkscape:transform-center-y="0.02318067" d="m 74.90186,142.262 -6.84105,2.31372 -3.600206,-20.8813 6.691393,-4.4587 z" sodipodi:nodetypes="ccccc" />
      <path id="path109022-8" style="fill:#2e0310;stroke-width:1.265;stroke-linecap:round;paint-order:stroke markers fill" inkscape:transform-center-x="-1.3903624" inkscape:transform-center-y="-0.26490433" d="m 39.739738,146.42402 9.571787,-0.17241 -4.231009,-22.96427 -7.457876,-3.00581 z" sodipodi:nodetypes="ccccc" />
      <path id="path106472" style="opacity:1;fill:#2e0310;fill-opacity:1;stroke-width:4.7811;stroke-linecap:round;paint-order:stroke markers fill" inkscape:transform-center-x="-1.355702" inkscape:transform-center-y="-1.8762601" d="m 311.00797,368.28237 35.26043,140.45634 -63.17475,28.94445 -9.74033,-43.67984 z" sodipodi:nodetypes="ccccc" transform="scale(0.26458333)" />
      <path id="path16109" style="fill:#8e0955;fill-opacity:1;stroke-width:5.53701;stroke-linecap:round;paint-order:stroke markers fill" inkscape:transform-center-x="-1.9103076" inkscape:transform-center-y="1.0724344" d="m 318.84735,439.72521 -7.83938,-71.44284 14.97069,-13.95486 22.95377,13.8298 21.0239,116.51829 -23.68793,24.06311 z" sodipodi:nodetypes="ccccccc" transform="scale(0.26458333)" />
      <path id="rect11577" style="fill:#b08ab0;fill-opacity:1;stroke-width:1.465;stroke-linecap:round;paint-order:stroke markers fill" d="m 86.073804,85.84516 13.518224,1.38398 -7.77814,16.43488 -3.776077,3.20007 -3.860985,-4.93987 5.424008,-11.900348 z" sodipodi:nodetypes="ccccccc" />
      <path id="path4104" style="fill:#9c2258;stroke-width:1.465;stroke-linecap:round;paint-order:stroke markers fill" inkscape:transform-center-x="0.37448206" inkscape:transform-center-y="-4.2191363" d="M 57.716302,61.250409 44.49004,122.28655 25.412813,98.371028 37.270015,62.926745 39.774773,55.177651 Z" sodipodi:nodetypes="cccccc" />
      <path id="path125111" style="opacity:1;fill:#ba3359;stroke-width:4.7811;stroke-linecap:round;paint-order:stroke markers fill" inkscape:transform-center-x="1.5697672" inkscape:transform-center-y="-0.98447113" d="m 62.418623,382.89632 49.718107,-32.50039 9.01693,-79.31701 28.9598,111.87416 -38.77672,8.00861 z" sodipodi:nodetypes="cccccc" transform="scale(0.26458333)" />
      <path id="path1723" style="fill:#c8aec1;stroke-width:1.465;stroke-linecap:round;paint-order:stroke markers fill" inkscape:transform-center-x="1.8945718" inkscape:transform-center-y="1.4369289" d="m 32.533245,88.088081 -5.315739,-8.400318 17.565881,3.246884 -2.746678,9.478949 z" sodipodi:nodetypes="ccccc" />
      <path id="path73365" style="fill:#2e0310;fill-opacity:1;stroke-width:4.7811;stroke-linecap:round;paint-order:stroke markers fill" inkscape:transform-center-x="-0.75794793" inkscape:transform-center-y="1.3234167" d="m 142.6206,398.87658 60.41277,20.38575 -18.21767,50.55294 z" sodipodi:nodetypes="cccc" transform="scale(0.26458333)" />
      <path id="path73365-86" style="fill:#2e0310;fill-opacity:1;stroke-width:1.265;stroke-linecap:round;paint-order:stroke markers fill" inkscape:transform-center-x="2.0566049" inkscape:transform-center-y="0.8754367" d="m 66.836199,104.32263 -17.049328,8.02908 11.845883,10.46778 z" sodipodi:nodetypes="cccc" />
      <path id="path73365-8" style="fill:#370816;stroke-width:1.265;stroke-linecap:round;paint-order:stroke markers fill" inkscape:transform-center-x="0.75794793" inkscape:transform-center-y="1.3234167" d="m 60.19369,93.558845 -13.849088,5.437303 4.820092,13.375462 z" sodipodi:nodetypes="cccc" />
      <path id="rect28281" style="fill:#c8aec1;fill-opacity:1;stroke-width:1.80964;stroke-linecap:round;paint-order:stroke markers fill" d="m 43.129978,94.563375 13.131696,0.305018 1.307218,17.926437 -2.125336,3.35767 -6.953983,-1.1354 z" sodipodi:nodetypes="cccccc" />
      <path id="rect28281-5" style="fill:#b08ab0;fill-opacity:1;stroke-width:1.80964;stroke-linecap:round;paint-order:stroke markers fill" d="m 45.086158,102.02871 10.97969,-11.708697 1.210675,18.465437 -2.039318,2.57922 -8.329984,-2.38627 z" sodipodi:nodetypes="cccccc" />
      <path id="path871" style="fill:#c8aec1;stroke-width:1.465;stroke-linecap:round;paint-order:stroke markers fill" inkscape:transform-center-x="-1.3183286" inkscape:transform-center-y="2.0320826" d="M 55.258125,108.86232 39.841151,98.819788 37.270015,62.926745 57.716302,61.250409 75.938489,68.053516 62.518813,101.2056 Z" sodipodi:nodetypes="ccccccc" />
      <path id="path10520" style="fill:#b08ab0;fill-opacity:1;stroke-width:5.53701;stroke-linecap:round;paint-order:stroke markers fill" inkscape:transform-center-x="0.06587834" inkscape:transform-center-y="-1.3456253" d="m 343.04585,347.61639 -43.71026,-16.58026 -9.89872,-29.52978 11.289,-9.47383 15.3137,28.16089 17.95071,5.39671 z" sodipodi:nodetypes="ccccccc" transform="scale(0.26458333)" />
      <path id="path1723-4" style="fill:#c8aec1;stroke-width:1.465;stroke-linecap:round;paint-order:stroke markers fill" inkscape:transform-center-x="-3.2994769" inkscape:transform-center-y="1.0575684" d="m 80.08354,83.352688 -13.551437,0.580017 -1.106352,9.086948 8.753759,-4.029855 z" sodipodi:nodetypes="ccccc" />
      <path id="path68629-0" style="fill:#b08ab0;stroke-width:1.265;stroke-linecap:round;paint-order:stroke markers fill" inkscape:transform-center-x="-0.21195787" inkscape:transform-center-y="0.82449849" d="m 73.401622,84.565591 -8.07123,0.955314 1.990959,3.486991 1.704638,-1.141608 -0.318573,2.479921 4.149494,-1.184314 4.25744,-4.532512 z" sodipodi:nodetypes="cccccccc" />
      <path id="path66330" style="fill:#b08ab0;stroke-width:1.265;stroke-linecap:round;paint-order:stroke markers fill" inkscape:transform-center-x="1.4086394" inkscape:transform-center-y="-0.21817752" d="M 71.869175,78.106386 68.849804,85.565466 56.70383,85.411681 38.416306,82.096978 37.812664,73.670174 52.294292,73.049435 67.130106,78.611939 Z" sodipodi:nodetypes="cccccccc" />
      <path id="path3395-6" style="fill:#ba3359;stroke-width:1.465;stroke-linecap:round;paint-order:stroke markers fill" inkscape:transform-center-x="0.76121396" inkscape:transform-center-y="1.2076293" d="m 71.455965,98.851887 -2.593486,-22.745271 2.68177,-16.476851 -13.778822,1.704541 2.746276,16.363979 z" sodipodi:nodetypes="cccccc" />
      <path id="path68629" style="fill:#b08ab0;stroke-width:4.7811;stroke-linecap:round;paint-order:stroke markers fill" inkscape:transform-center-x="-0.049130134" inkscape:transform-center-y="0.53919899" d="m 127.74856,311.3944 39.20937,10.00413 -9.54507,11.79857 -15.54013,-4.91681 -0.31789,9.4446 -14.75993,-6.93836 -14.27963,-20.03538 z" sodipodi:nodetypes="cccccccc" transform="scale(0.26458333)" />
      <path id="path4679" style="fill:#9c2258;stroke-width:1.465;stroke-linecap:round;paint-order:stroke markers fill" inkscape:transform-center-x="-3.3940151" inkscape:transform-center-y="0.39845547" d="M 37.370678,85.324107 40.643862,75.222059 37.270015,62.926745 41.996379,59.031752 57.716302,61.250409 46.559906,77.949956 Z" sodipodi:nodetypes="ccccccc" />
      <path id="path4679-9" style="fill:#9c2258;stroke-width:1.465;stroke-linecap:round;paint-order:stroke markers fill" inkscape:transform-center-x="2.8143085" inkscape:transform-center-y="0.65918453" d="M 76.600944,86.486446 73.931597,76.20833 78.027474,64.134334 73.540005,59.966348 57.716301,61.250408 67.864424,78.58118 Z" sodipodi:nodetypes="ccccccc" />
      <path id="path3395" style="fill:#ba3359;stroke-width:1.465;stroke-linecap:round;paint-order:stroke markers fill" inkscape:transform-center-x="-0.41441088" inkscape:transform-center-y="0.072759588" d="m 37.385176,95.625473 6.715935,-21.885377 0.381724,-16.689302 13.233466,4.199615 -5.697256,15.584066 z" sodipodi:nodetypes="cccccc" />
      <path id="path5779" style="fill:#431228;stroke-width:1.465;stroke-linecap:round;paint-order:stroke markers fill" inkscape:transform-center-x="-1.6075683" inkscape:transform-center-y="-3.5129446" d="M 94.963118,81.080443 57.123952,81.721185 17.358485,77.387432 27.58376,49.386397 74.782617,57.839024 Z" sodipodi:nodetypes="cccccc" />
      <path id="path6721" style="fill:#591b37;stroke-width:1.6608;stroke-linecap:round;paint-order:stroke markers fill" inkscape:transform-center-x="-2.2270982" inkscape:transform-center-y="-3.5119797" d="m 31.605648,29.082793 34.57599,9.475851 6.866048,29.257748 -9.279988,3.768477 -27.322407,-0.661424 3.329482,-10.414912 0.04655,-17.235972 z" sodipodi:nodetypes="cccccccc" />
      <path id="path7675" style="fill:#c8aec1;stroke-width:1.465;stroke-linecap:round;paint-order:stroke markers fill" inkscape:transform-center-x="-1.4441332" inkscape:transform-center-y="-0.13866975" d="m 77.816148,72.995901 3.461045,-0.835779 9.688277,5.998011 6.263409,4.240491 2.363149,4.830516 -9.955324,0.69682 -3.5629,-2.0808 v 0 l -8.068315,-6.198585 z" sodipodi:nodetypes="cccccccccc" />
      <path id="path25278" style="fill:#370816;stroke-width:5.53701;stroke-linecap:round;paint-order:stroke markers fill" inkscape:transform-center-x="-0.74075602" inkscape:transform-center-y="1.2321637" d="m 297.09881,444.98947 13.90916,-76.7071 7.83938,71.44284 51.10898,44.95039 -36.80014,39.49891 z" sodipodi:nodetypes="cccccc" transform="scale(0.26458333)" />
      <path id="path55251" style="fill:#503250;fill-opacity:1;stroke-width:4.7811;stroke-linecap:round;paint-order:stroke markers fill" inkscape:transform-center-x="0.1325117" inkscape:transform-center-y="-0.26123903" d="m 133.97443,360.33935 7.8685,-10.44915 8.70391,4.40938 z" sodipodi:nodetypes="cccc" transform="scale(0.26458333)" />
      <path id="path55251-4" style="fill:#503250;fill-opacity:1;stroke-width:1.265;stroke-linecap:round;paint-order:stroke markers fill" inkscape:transform-center-x="0.1325117" inkscape:transform-center-y="-0.26123903" d="m 37.910263,96.048365 0.55083,-3.001194 3.027835,1.533893 z" sodipodi:nodetypes="cccc" />
      <path id="path41424" style="fill:#9c2258;fill-opacity:1;stroke-width:4.7811;stroke-linecap:round;paint-order:stroke markers fill" inkscape:transform-center-x="0.14635485" inkscape:transform-center-y="-0.24299173" d="m 183.00534,318.9638 5.56868,9.92494 -33.72917,4.66341 z" sodipodi:nodetypes="cccc" transform="scale(0.26458333)" />
      <path id="path41424-0" style="fill:#9c2258;fill-opacity:1;stroke-width:1.265;stroke-linecap:round;paint-order:stroke markers fill" inkscape:transform-center-x="-0.14635492" inkscape:transform-center-y="-0.24299173" d="m 62.598285,86.065513 -1.47338,2.625974 8.924177,1.23386 z" sodipodi:nodetypes="cccc" />
      <path id="path46261" style="fill:#503250;fill-opacity:1;stroke-width:1.265;stroke-linecap:round;paint-order:stroke markers fill" inkscape:transform-center-x="-0.16340165" inkscape:transform-center-y="0.27244065" d="m 52.516763,102.48092 -6.63861,-1.29679 -2.487496,-3.709009 15.70047,4.531269 z" sodipodi:nodetypes="ccccc" />
      <path id="rect46673" style="fill:#ffffff;fill-opacity:1;stroke-width:1.265;stroke-linecap:round;paint-order:stroke markers fill" d="m 44.641846,99.340723 1.583139,-0.03828 0.174166,-0.959045 9.705965,2.801212 -0.854998,0.57537 0.702912,0.51292 -3.436266,0.24802 -6.638611,-1.29679 z" sodipodi:nodetypes="ccccccccc" />
      <path id="path53913" style="fill:#503250;stroke-width:1.265;stroke-linecap:round;paint-order:stroke markers fill" inkscape:transform-center-x="0.029856786" inkscape:transform-center-y="0.040577861" d="m 47.02989,98.86263 -1.041952,0.175959 0.237047,0.263854 0.596497,-0.03401 0.985616,0.949977 z" sodipodi:nodetypes="cccccc" />
      <path id="path53913-6" style="fill:#503250;stroke-width:1.265;stroke-linecap:round;paint-order:stroke markers fill" inkscape:transform-center-x="0.07943321" inkscape:transform-center-y="-0.20718814" d="m 53.220416,101.55086 1.851299,-0.34115 0.520301,0.41587 -0.341898,0.0944 -0.379798,-0.19602 z" sodipodi:nodetypes="cccccc" />
      <path id="path55251-7" style="fill:#503250;fill-opacity:1;stroke-width:1.265;stroke-linecap:round;paint-order:stroke markers fill" inkscape:transform-center-x="-0.1325117" inkscape:transform-center-y="-0.26123903" d="m 76.118599,96.735405 -2.081874,-2.764671 -2.302909,1.166648 z" sodipodi:nodetypes="cccc" />
      <path id="path55251-4-8" style="fill:#503250;fill-opacity:1;stroke-width:1.265;stroke-linecap:round;paint-order:stroke markers fill" inkscape:transform-center-x="-0.1325117" inkscape:transform-center-y="-0.26123903" d="m 73.655737,97.443985 -0.55083,-3.001194 -3.027835,1.533893 z" sodipodi:nodetypes="cccc" />
      <path sodipodi:type="star" style="fill:#503250;fill-opacity:1;stroke:none;stroke-width:4.7811;stroke-linecap:round;stroke-miterlimit:4;stroke-dasharray:none;stroke-opacity:1;paint-order:stroke markers fill" id="path56806" inkscape:flatsided="true" sodipodi:sides="3" sodipodi:cx="156.78384" sodipodi:cy="367.09161" sodipodi:r1="1.9796951" sodipodi:r2="0.98984754" sodipodi:arg1="0.78539816" sodipodi:arg2="1.8325957" inkscape:rounded="0" inkscape:randomized="0" d="m 158.1837,368.49147 -3.31209,-0.88747 2.42462,-2.42462 z" transform="scale(0.26458333)" inkscape:transform-center-x="0.067784496" inkscape:transform-center-y="-0.067785197" />
      <path sodipodi:type="star" style="fill:#503250;fill-opacity:1;stroke:none;stroke-width:4.7811;stroke-linecap:round;stroke-miterlimit:4;stroke-dasharray:none;stroke-opacity:1;paint-order:stroke markers fill" id="path56806-4" inkscape:flatsided="true" sodipodi:sides="5" sodipodi:cx="156.78384" sodipodi:cy="367.09161" sodipodi:r1="1.9796951" sodipodi:r2="0.98984754" sodipodi:arg1="0.78539816" sodipodi:arg2="1.4137167" inkscape:rounded="0" inkscape:randomized="0" transform="matrix(0.21727368,0.15098506,-0.15098506,0.21727368,64.021662,-5.0607614)" inkscape:transform-center-x="0.046396856" inkscape:transform-center-y="0.088696286" d="m 158.1837,368.49147 -2.29862,0.36407 -1.05656,-2.07362 1.64563,-1.64563 2.07362,1.05656 z" />
      <path sodipodi:type="star" style="fill:#503250;fill-opacity:1;stroke:none;stroke-width:4.7811;stroke-linecap:round;stroke-miterlimit:4;stroke-dasharray:none;stroke-opacity:1;paint-order:stroke markers fill" id="path56806-4-6" inkscape:flatsided="true" sodipodi:sides="4" sodipodi:cx="156.78384" sodipodi:cy="367.09161" sodipodi:r1="1.9796951" sodipodi:r2="0.98984754" sodipodi:arg1="0.78539816" sodipodi:arg2="1.5707963" inkscape:rounded="0" inkscape:randomized="0" transform="matrix(0.21727368,0.15098506,-0.15098506,0.21727368,62.116883,-5.063354)" inkscape:transform-center-x="0.046396856" inkscape:transform-center-y="0.088696286" d="m 158.1837,368.49147 -2.79971,0 0,-2.79971 2.79971,0 z" />
      <path sodipodi:type="star" style="fill:#503250;fill-opacity:1;stroke:none;stroke-width:4.7811;stroke-linecap:round;stroke-miterlimit:4;stroke-dasharray:none;stroke-opacity:1;paint-order:stroke markers fill" id="path56806-9" inkscape:flatsided="true" sodipodi:sides="3" sodipodi:cx="156.78384" sodipodi:cy="367.09161" sodipodi:r1="1.9796951" sodipodi:r2="0.98984754" sodipodi:arg1="0.78539816" sodipodi:arg2="1.8325957" inkscape:rounded="0" inkscape:randomized="0" transform="matrix(0.26458333,0,0,0.26458333,20.367141,3.8258918)" inkscape:transform-center-x="0.067784496" inkscape:transform-center-y="-0.067785197" d="m 158.1837,368.49147 -3.31209,-0.88747 2.42462,-2.42462 z" />
      <path sodipodi:type="star" style="fill:#503250;fill-opacity:1;stroke:none;stroke-width:4.7811;stroke-linecap:round;stroke-miterlimit:4;stroke-dasharray:none;stroke-opacity:1;paint-order:stroke markers fill" id="path56806-4-62" inkscape:flatsided="true" sodipodi:sides="5" sodipodi:cx="156.78384" sodipodi:cy="367.09161" sodipodi:r1="1.9796951" sodipodi:r2="0.98984754" sodipodi:arg1="0.78539816" sodipodi:arg2="1.4137167" inkscape:rounded="0" inkscape:randomized="0" transform="matrix(0.21727368,0.15098506,-0.15098506,0.21727368,83.229037,-3.8243253)" inkscape:transform-center-x="0.046396856" inkscape:transform-center-y="0.088696286" d="m 158.1837,368.49147 -2.29862,0.36407 -1.05656,-2.07362 1.64563,-1.64563 2.07362,1.05656 z" />
      <path sodipodi:type="star" style="fill:#503250;fill-opacity:1;stroke:none;stroke-width:4.7811;stroke-linecap:round;stroke-miterlimit:4;stroke-dasharray:none;stroke-opacity:1;paint-order:stroke markers fill" id="path56806-4-6-5" inkscape:flatsided="true" sodipodi:sides="4" sodipodi:cx="156.78384" sodipodi:cy="367.09161" sodipodi:r1="1.9796951" sodipodi:r2="0.98984754" sodipodi:arg1="0.78539816" sodipodi:arg2="1.5707963" inkscape:rounded="0" inkscape:randomized="0" transform="matrix(0.21727368,0.15098506,-0.15098506,0.21727368,81.409303,-3.4295302)" inkscape:transform-center-x="0.046396856" inkscape:transform-center-y="0.088696286" d="m 158.1837,368.49147 -2.79971,0 0,-2.79971 2.79971,0 z" />
      <path id="path58739" style="fill:#503250;stroke-width:1.265;stroke-linecap:round;paint-order:stroke markers fill" inkscape:transform-center-x="0.098275958" inkscape:transform-center-y="-0.031312995" d="M 57.209838,99.333313 54.294286,98.379701 56.561067,97.87318 Z" sodipodi:nodetypes="cccc" />
      <path id="path58923" style="fill:#b08ab0;stroke-width:4.7811;stroke-linecap:round;paint-order:stroke markers fill" inkscape:transform-center-x="-0.17893263" inkscape:transform-center-y="0.13684291" d="m 208.91606,361.99309 4.85805,7.9213 -8.56736,1.91441 z" sodipodi:nodetypes="cccc" transform="scale(0.26458333)" />
      <path id="path36185" style="fill:#ffffff;fill-opacity:1;stroke:#503250;stroke-width:4.7811;stroke-linecap:round;stroke-miterlimit:4;stroke-dasharray:none;stroke-opacity:1;paint-order:stroke markers fill" inkscape:transform-center-y="-0.65587584" d="m 171.41797,333.96875 -31.64453,14.87305 33.91244,14.40627 32.75357,-14.40627 z" sodipodi:nodetypes="ccccc" transform="scale(0.26458333)" />
      <path id="path38799" style="fill:#503250;stroke-width:2.59046;stroke-linecap:round;paint-order:stroke markers fill" inkscape:transform-center-x="0.23661173" inkscape:transform-center-y="0.23660886" d="m 43.129976,94.775796 -2.744411,-2.893355 4.366439,-0.323374 z" sodipodi:nodetypes="cccc" />
      <path id="path36522" style="fill:#503250;fill-opacity:1;stroke-width:5.53701;stroke-linecap:round;paint-order:stroke markers fill" inkscape:transform-center-y="-0.47539916" d="m 171.41797,332.03366 35.02148,16.80814 c -21.44021,1.95449 -43.47341,2.42649 -66.66601,0 z" sodipodi:nodetypes="cccc" transform="scale(0.26458333)" />
      <path id="path36185-3" style="fill:#ffffff;fill-opacity:1;stroke:#503250;stroke-width:1.265;stroke-linecap:round;stroke-miterlimit:4;stroke-dasharray:none;stroke-opacity:1;paint-order:stroke markers fill" inkscape:transform-center-y="-0.65587584" d="m 65.66411,90.035573 8.372615,3.935161 v 0 L 65.064059,97.9349 56.39801,93.970734 v 0 z" sodipodi:nodetypes="ccccccc" />
      <path id="path38799-0" style="fill:#503250;stroke-width:2.59046;stroke-linecap:round;paint-order:stroke markers fill" inkscape:transform-center-x="0.2366118" inkscape:transform-center-y="0.23660886" d="M 63.803723,96.448805 61.059312,93.55545 65.425751,93.232076 Z" sodipodi:nodetypes="cccc" />
      <path id="path36522-5" style="fill:#503250;fill-opacity:1;stroke-width:1.465;stroke-linecap:round;paint-order:stroke markers fill" inkscape:transform-center-y="-0.47539916" d="m 65.66411,89.52358 -9.2661,4.447154 c 5.9228,0.54035 11.830598,0.893185 17.638715,0 z" sodipodi:nodetypes="cccc" />
      <path id="rect77755" style="fill:#e4c8ce;stroke-width:1.265;stroke-linecap:round;paint-order:stroke markers fill" d="m 48.489573,115.0171 6.953983,1.1354 2.125336,-3.35767 7.765651,1.73586 -1.052387,18.78514 -7.086531,4.51646 -7.888576,-3.16566 -9.807468,-16.92929 z" sodipodi:nodetypes="ccccccccc" />
      <path id="rect85002" style="opacity:0.50505;fill:#62314c;fill-opacity:1;stroke-width:1.265;stroke-linecap:round;paint-order:stroke markers fill" d="m 48.489573,115.0171 6.953983,1.1354 2.125336,-3.35767 3.126816,0.69894 -3.786521,7.41349 -12.382759,-4.69097 z" sodipodi:nodetypes="ccccccc" />
      <path id="rect85971" style="opacity:0.50505;fill:#6e4555;fill-opacity:1;stroke-width:4.7811;stroke-linecap:round;paint-order:stroke markers fill" d="m 226.37066,428.27543 -3.89489,-0.87062 v 0 l 2.62189,9.9741 2.53711,-4.9668 z m -8.78744,-1.96426 -1.37424,2.17321 4.57618,17.33984 2.53711,-4.96875 -3.85267,-14.12263 z m -34.31564,8.39977 -4.64453,1.40429 0.2539,7.13868 5.51367,2.08789 z m -7.65014,2.31333 -4.64453,1.40625 -0.53346,1.62612 5.51367,2.08984 z m 38.57397,-5.35435 -2.57422,4.06641 5.04791,18.15134 2.53711,-4.96679 z m -26.39649,3.7793 1.16406,11.62305 5.68946,2.15625 -2.56446,-13.07813 z m 7.98633,1.30469 3.14453,14.0957 5.69141,2.1543 -4.54688,-15.55079 z m 8.76758,1.43164 3.71484,16.20117 5.69141,2.15625 -5.11524,-17.6582 z" sodipodi:nodetypes="cccccccccccccccccccccccccccccccccccccccccc" transform="scale(0.26458333)" />
      <path id="path103213" style="opacity:1;fill:#370816;stroke-width:4.7811;stroke-linecap:round;paint-order:stroke markers fill" inkscape:transform-center-x="-1.1930329" inkscape:transform-center-y="-3.8567033" d="m 237.15283,421.43605 33.13545,23.67719 -9.80237,47.87145 16.70588,19.69501 -55.25114,23.68976 z" sodipodi:nodetypes="cccccc" transform="scale(0.26458333)" />
      <path id="path103213-1" style="fill:#370816;stroke-width:1.265;stroke-linecap:round;paint-order:stroke markers fill" inkscape:transform-center-x="1.1930329" inkscape:transform-center-y="-3.8567033" d="m 46.553824,112.76266 -10.011205,4.88676 5.866305,14.2967 -4.560092,4.56009 16.762754,5.19287 z" sodipodi:nodetypes="cccccc" />
      <rect style="opacity:1;fill:#606c4c;fill-opacity:1;stroke:none;stroke-width:1.265;stroke-linecap:round;stroke-miterlimit:4;stroke-dasharray:none;stroke-opacity:1;paint-order:stroke markers fill" id="rect117933" width="1.3386391" height="2.6825023" x="-2.4364798" y="131.93503" transform="rotate(-20.878478)" />
      <path id="path110194" style="opacity:1;fill:#511b2b;stroke-width:4.7811;stroke-linecap:round;paint-order:stroke markers fill" inkscape:transform-center-x="0.22436067" inkscape:transform-center-y="0.41456651" d="m 174.21008,486.73947 -14.47504,-10.70836 24.09514,-3.63619 z" sodipodi:nodetypes="cccc" transform="scale(0.26458333)" />
      <path sodipodi:type="star" style="opacity:1;fill:#db2e63;fill-opacity:1;stroke:none;stroke-width:4.7811;stroke-linecap:round;stroke-miterlimit:4;stroke-dasharray:none;stroke-opacity:1;paint-order:stroke markers fill" id="path111214" inkscape:flatsided="true" sodipodi:sides="5" sodipodi:cx="163.62219" sodipodi:cy="475.44449" sodipodi:r1="14.011314" sodipodi:r2="7.0056567" sodipodi:arg1="-1.3089969" sodipodi:arg2="-0.68067837" inkscape:rounded="0" inkscape:randomized="0" d="m 167.24859,461.9106 10.36571,12.80059 -8.9709,13.81399 -15.91004,-4.26309 -0.86204,-16.44871 z" transform="matrix(0.25856591,0.0561071,-0.0561071,0.25856591,27.847592,-8.3751516)" inkscape:transform-center-x="0.49516051" inkscape:transform-center-y="-0.3908464" />
      <path id="path117609" style="opacity:1;fill:#db2e63;stroke-width:1.265;stroke-linecap:round;paint-order:stroke markers fill" inkscape:transform-center-x="0.0020102681" inkscape:transform-center-y="0.33122131" d="m 39.956654,122.1888 4.272553,-1.40259 -0.185912,6.61669 z" sodipodi:nodetypes="cccc" />
      <path id="path111472" style="opacity:1;fill:#6a0f40;fill-opacity:1;stroke-width:1.265;stroke-linecap:round;paint-order:stroke markers fill" inkscape:transform-center-x="0.09586312" inkscape:transform-center-y="-0.002568859" d="m 44.787351,123.09598 -0.738384,1.62306 0.232659,-1.28783 -1.018529,-1.1 z" sodipodi:nodetypes="ccccc" />
      <path id="path111472-8" style="fill:#6a0f40;fill-opacity:1;stroke-width:1.265;stroke-linecap:round;paint-order:stroke markers fill" inkscape:transform-center-x="-0.07424288" inkscape:transform-center-y="0.22892114" d="m 41.630852,121.57492 1.722689,0.4603 -1.308568,-0.0169 -0.916756,1.18615 z" sodipodi:nodetypes="ccccc" />
      <path id="path111472-3" style="fill:#6a0f40;fill-opacity:1;stroke-width:1.265;stroke-linecap:round;paint-order:stroke markers fill" inkscape:transform-center-x="-0.18520438" inkscape:transform-center-y="0.12382114" d="m 42.263229,125.9499 -1.202048,-1.31705 1.092656,0.72025 1.411855,-0.50403 z" sodipodi:nodetypes="ccccc" />
      <path sodipodi:type="star" style="opacity:1;fill:#6a0f40;fill-opacity:1;stroke:none;stroke-width:4.7811;stroke-linecap:round;stroke-miterlimit:4;stroke-dasharray:none;stroke-opacity:1;paint-order:stroke markers fill" id="path111826" inkscape:flatsided="true" sodipodi:sides="5" sodipodi:cx="164.57591" sodipodi:cy="471.37793" sodipodi:r1="2.7809539" sodipodi:r2="1.3904769" sodipodi:arg1="-2.0943951" sodipodi:arg2="-1.4660766" inkscape:rounded="0" inkscape:randomized="0" d="m 163.18544,468.96955 3.25129,0.34173 0.67971,3.19777 -2.83122,1.6346 -2.42949,-2.18753 z" transform="matrix(0.26458333,0,0,0.26458333,-0.4086522,-0.81818373)" inkscape:transform-center-x="-0.18394796" inkscape:transform-center-y="-1.5712597e-06" />
      <path id="path115763" style="opacity:1;fill:#6a0f40;stroke-width:1.265;stroke-linecap:round;paint-order:stroke markers fill" inkscape:transform-center-x="-0.041485359" inkscape:transform-center-y="0.020662113" d="m 44.733955,121.02546 1.293767,1.98027 -1.653661,-1.47845 -1.108173,-0.0964 z" sodipodi:nodetypes="ccccc" />
      <path id="path115763-3" style="fill:#6a0f40;stroke-width:1.265;stroke-linecap:round;paint-order:stroke markers fill" inkscape:transform-center-x="0.21523264" inkscape:transform-center-y="-0.072737887" d="m 44.857268,126.10326 -2.359783,0.1635 2.097257,-0.72245 0.624694,-0.92038 z" sodipodi:nodetypes="ccccc" />
      <path id="path116045" style="opacity:1;fill:#db2e63;stroke-width:1.265;stroke-linecap:round;paint-order:stroke markers fill" inkscape:transform-center-y="0.13512531" d="m 46.301479,121.19508 0.836448,3.13932 -2.189988,2.17149 z" sodipodi:nodetypes="cccc" />
      <path id="path118103" style="opacity:1;fill:#606c4c;stroke-width:4.7811;stroke-linecap:round;paint-order:stroke markers fill" inkscape:transform-center-x="-0.14706145" inkscape:transform-center-y="-0.28931792" d="m 180.33436,464.958 10.89818,-2.10254 -3.7753,10.58885 -11.05697,0.0719 z" sodipodi:nodetypes="ccccc" transform="scale(0.26458333)" />
      <path id="path118207" style="opacity:1;fill:#53654b;fill-opacity:1;stroke-width:4.7811;stroke-linecap:round;paint-order:stroke markers fill" inkscape:transform-center-x="0.13435703" inkscape:transform-center-y="-0.045073311" d="m 185.028,471.38085 -6.03862,0.83477 9.85394,-7.59834 z" sodipodi:nodetypes="cccc" transform="scale(0.26458333)" />
      <rect style="opacity:1;fill:#c8aec1;fill-opacity:1;stroke:none;stroke-width:1.265;stroke-linecap:round;stroke-miterlimit:4;stroke-dasharray:none;stroke-opacity:1;paint-order:stroke markers fill" id="rect122829" width="2.0335543" height="28.469761" x="59.205235" y="-7.5830474" transform="rotate(33.865867)" />
      <rect style="fill:#c8aec1;fill-opacity:1;stroke:none;stroke-width:1.265;stroke-linecap:round;stroke-miterlimit:4;stroke-dasharray:none;stroke-opacity:1;paint-order:stroke markers fill" id="rect122829-3" width="2.0335543" height="28.469761" x="53.712639" y="-45.287178" transform="rotate(70.330979)" />
    </g>
    <path id="rect129352" style="opacity:1;fill:#7a585d;fill-opacity:1;stroke:none;stroke-width:1.03853;stroke-linecap:round;stroke-miterlimit:4;stroke-dasharray:none;stroke-opacity:1;paint-order:stroke markers fill" d="m 119.32657,5.7286062 -6.14947,28.1520958 -2.0503,9.386242 -6.12266,-1.337416 -4.27491,-0.933802 0.51262,-2.346769 1.2111,0.26455 3.28681,0.717962 a 3.3642852,3.3642852 0 0 0 -1.02159,-3.205606 3.3642852,3.3642852 0 0 0 -3.28681,-0.717962 3.3642852,3.3642852 0 0 0 -2.265208,2.487646 l -0.512622,2.346769 -2.348426,-0.512984 -0.45341,2.075699 2.348426,0.512985 -2.050307,9.386243 2.075698,0.45341 2.050309,-9.386244 4.27491,0.933802 6.12266,1.337416 -0.51263,2.346768 a 3.3642852,3.3642852 0 0 0 1.0216,3.205609 3.3642852,3.3642852 0 0 0 3.2868,0.71796 3.3642852,3.3642852 0 0 0 2.26521,-2.487647 l -3.2868,-0.71796 -1.2111,-0.26455 0.51262,-2.346768 4.27491,0.9338 0.45341,-2.075699 -4.27491,-0.9338 2.05031,-9.386242 2.43998,-11.170151 1.2111,0.26455 1.21068,0.264458 -2.43998,11.170151 2.07612,0.453502 2.43998,-11.170151 a 3.3642852,3.3642852 0 0 0 -1.02168,-3.205193 3.3642852,3.3642852 0 0 0 -2.80905,-0.831598 l 3.04232,-13.9276638 z m -15.10122,0.861044 -0.62615,2.866522 -3.13884,-0.685639 -0.4535,2.0761138 3.13884,0.685638 -2.99597,13.715453 -4.497904,-0.98251 1.986568,-9.094451 1.35907,0.296872 0.453408,-2.0757 -6.622921,-1.446695 1.187577,-5.4366908 -2.075701,-0.453411 -1.187576,5.4366918 -0.453411,2.0757 -1.986568,9.094451 -1.211101,-0.26455 -1.210688,-0.264459 2.634363,-12.060033 -2.076116,-0.4535018 -2.634362,12.0600328 -1.210685,-0.264458 -1.211104,-0.264551 3.627556,-16.6068428 -2.0757,-0.45341 -3.627556,16.6068428 a 3.3642852,3.3642852 0 0 0 1.021684,3.205193 3.3642852,3.3642852 0 0 0 3.286801,0.717961 3.3642852,3.3642852 0 0 0 0.703821,-0.319597 3.3642852,3.3642852 0 0 0 0.506864,0.584055 3.3642852,3.3642852 0 0 0 3.286803,0.717961 3.3642852,3.3642852 0 0 0 2.26512,-2.487233 l 1.986568,-9.09445 3.188154,0.696412 -1.986568,9.09445 -2.125436,-0.464274 -0.453411,2.0757 8.699043,1.900196 a 3.3642852,3.3642852 0 0 0 1.021588,3.205606 3.3642852,3.3642852 0 0 0 3.2868,0.717961 3.3642852,3.3642852 0 0 0 2.26522,-2.487645 l -3.28681,-0.717963 -1.2111,-0.264549 3.44938,-15.791153 3.48451,0.761147 0.4535,-2.076113 -3.48451,-0.7611468 0.62615,-2.866522 z m 9.76929,10.0916718 a 6.7241071,6.7241071 0 0 0 -6.40663,2.042014 6.7241071,6.7241071 0 0 0 -1.43492,6.569044 6.7241071,6.7241071 0 0 0 4.97161,4.527444 l 1.43492,-6.569045 z m -35.612615,9.18412 a 3.3642852,3.3642852 0 0 0 -1.739642,0.08161 3.3642852,3.3642852 0 0 0 -2.26512,2.487233 l -3.016338,13.808709 a 3.3642852,3.3642852 0 0 0 1.02159,3.205607 3.3642852,3.3642852 0 0 0 3.286802,0.71796 3.3642852,3.3642852 0 0 0 2.26521,-2.487647 l -3.286801,-0.71796 -1.211101,-0.26455 3.016338,-13.808709 1.211101,0.26455 3.286801,0.71796 a 3.3642852,3.3642852 0 0 0 -1.021681,-3.205193 3.3642852,3.3642852 0 0 0 -1.547159,-0.79957 z m 3.82885,4.279996 -3.016338,13.80871 2.076115,0.453501 1.377796,-6.307509 0.484109,0.105748 0.483279,0.105566 -1.377796,6.307509 2.0757,0.45341 1.377796,-6.307508 8.02e-4,1.75e-4 a 2.6202388,2.6202388 0 0 0 -0.375883,-2.006719 3.3642852,3.3642852 0 0 0 0.73978,-0.607467 3.3642852,3.3642852 0 0 0 0.717961,-3.286801 3.3642852,3.3642852 0 0 0 -2.487233,-2.265119 z m 10.39152,6.485629 -0.205339,0.940034 a 4.5269114,4.5269114 0 0 0 -4.313196,1.374579 4.5269114,4.5269114 0 0 0 -0.966033,4.422468 4.5269114,4.5269114 0 0 0 3.347164,3.047888 l 2.0757,0.453411 0.05761,0.01258 2.133728,0.466086 a 2.1837731,2.1837731 0 0 0 -0.66334,-2.080366 2.1837731,2.1837731 0 0 0 -1.062457,-0.529544 l 1.671861,-7.65373 z" />
    <rect style="opacity:1;fill:#7a585d;fill-opacity:1;stroke:none;stroke-width:1.265;stroke-linecap:round;stroke-miterlimit:4;stroke-dasharray:none;stroke-opacity:1;paint-order:stroke markers fill" id="rect136971" width="24.837149" height="4.9674292" x="98.184753" y="57.639153" />
    <rect style="fill:#7a585d;fill-opacity:1;stroke:none;stroke-width:1.265;stroke-linecap:round;stroke-miterlimit:4;stroke-dasharray:none;stroke-opacity:1;paint-order:stroke markers fill" id="rect136971-10" width="24.837149" height="4.9674292" x="2.3049362" y="4.1873398" />
    <rect style="fill:#7a585d;fill-opacity:1;stroke:none;stroke-width:1.265;stroke-linecap:round;stroke-miterlimit:4;stroke-dasharray:none;stroke-opacity:1;paint-order:stroke markers fill" id="rect136971-10-2" width="24.837149" height="4.9674292" x="99.630096" y="132.19652" />
    <rect style="fill:#7a585d;fill-opacity:1;stroke:none;stroke-width:0.923825;stroke-linecap:round;stroke-miterlimit:4;stroke-dasharray:none;stroke-opacity:1;paint-order:stroke markers fill" id="rect136971-10-5" width="13.24648" height="4.9674292" x="3.2340913" y="12.646238" />
    <rect style="fill:#7a585d;fill-opacity:1;stroke:none;stroke-width:0.850172;stroke-linecap:round;stroke-miterlimit:4;stroke-dasharray:none;stroke-opacity:1;paint-order:stroke markers fill" id="rect136971-1" width="11.218496" height="4.9674292" x="96.639435" y="65.787132" />
    <rect style="fill:#7a585d;fill-opacity:1;stroke:none;stroke-width:0.850172;stroke-linecap:round;stroke-miterlimit:4;stroke-dasharray:none;stroke-opacity:1;paint-order:stroke markers fill" id="rect136971-1-2" width="11.218496" height="4.9674292" x="113.43166" y="124.51372" />
    <rect style="fill:#7a585d;fill-opacity:1;stroke:none;stroke-width:0.508203;stroke-linecap:round;stroke-miterlimit:4;stroke-dasharray:none;stroke-opacity:1;paint-order:stroke markers fill" id="rect136971-1-5" width="4.0086212" height="4.9674292" x="109.79591" y="75.523544" />
    <path style="fill:none;stroke:#543b3e;stroke-width:0.264583px;stroke-linecap:butt;stroke-linejoin:miter;stroke-opacity:1" d="m 2.6754266,125.40832 -1.5097601,1.94112 4.7757718,-0.64704 -3.1735774,1.72544 0.1848686,0.0308 v 0" id="path138113" />
    <path style="fill:none;stroke:#543b3e;stroke-width:0.264583px;stroke-linecap:butt;stroke-linejoin:miter;stroke-opacity:1" d="m 6.5268554,129.44461 -2.4957259,-5.85417 3.1735774,0.8011 -2.8346516,1.69463" id="path138115" />
    <path style="fill:none;stroke:#543b3e;stroke-width:0.264583px;stroke-linecap:butt;stroke-linejoin:miter;stroke-opacity:1" d="m 6.1674805,126.30078 3.8562945,-1.329 -2.047976,0.70807 0.5882484,1.66671 -1.8301057,0.63182 3.7582523,-1.26364 -0.06536,-0.0436" id="path138117" />
    <path style="fill:none;stroke:#543b3e;stroke-width:0.264583px;stroke-linecap:butt;stroke-linejoin:miter;stroke-opacity:1" d="m 10.317899,122.86933 1.65581,6.10036 -2.3529932,-0.39217 2.5817562,-1.74296" id="path138119" />
    <path style="fill:none;stroke:#543b3e;stroke-width:0.264583px;stroke-linecap:butt;stroke-linejoin:miter;stroke-opacity:1" d="m 11.395062,123.92937 2.834651,-2.09518 -1.956525,3.31223 5.607679,-2.46491" id="path138121" />
    <path style="fill:none;stroke:#543b3e;stroke-width:0.264583px;stroke-linecap:butt;stroke-linejoin:miter;stroke-opacity:1" d="m 5.6487297,131.97115 c 0,0 -1.5251659,-1.95652 -1.463543,-2.00274 0.061623,-0.0462 2.0797716,6.25472 2.0797716,6.25472" id="path138123" />
    <path style="fill:none;stroke:#543b3e;stroke-width:0.264583px;stroke-linecap:butt;stroke-linejoin:miter;stroke-opacity:1" d="m 2.9219181,133.51172 2.9887087,-0.97056" id="path138125" />
    <path style="fill:none;stroke:#543b3e;stroke-width:0.264583px;stroke-linecap:butt;stroke-linejoin:miter;stroke-opacity:1" d="m 7.2971412,132.98793 -0.9089372,1.24786 1.5405714,0.40055 0.5700117,-0.93975 z" id="path138127" />
    <path style="fill:none;stroke:#543b3e;stroke-width:0.264583px;stroke-linecap:butt;stroke-linejoin:miter;stroke-opacity:1" d="m 9.6850268,134.99067 -2.033554,-4.88361 2.6343772,0.64704 -2.5265373,1.66382 3.3430403,2.4187" id="path138129" />
    <path style="fill:none;stroke:#543b3e;stroke-width:0.264583px;stroke-linecap:butt;stroke-linejoin:miter;stroke-opacity:1" d="m 1.8806138,136.00321 2.9578977,5.76174" id="path138131" />
    <path style="fill:none;stroke:#543b3e;stroke-width:0.264583px;stroke-linecap:butt;stroke-linejoin:miter;stroke-opacity:1" d="m 1.3876308,141.28737 2.9578977,-4.89901" id="path138133" />
    <path style="fill:none;stroke:#543b3e;stroke-width:0.264583px;stroke-linecap:butt;stroke-linejoin:miter;stroke-opacity:1" d="m 4.5116705,138.18558 2.451034,-0.8388 -1.612236,2.26584 2.178698,0.0218 -1.982615,3.03928" id="path138135" />
    <path style="fill:none;stroke:#543b3e;stroke-width:0.264583px;stroke-linecap:butt;stroke-linejoin:miter;stroke-opacity:1" d="m 7.5727405,138.87187 0.761568,-1.07003 1.5587443,0.28569 -2.6362243,3.94345 2.6039463,-1.42146" id="path138137" sodipodi:nodetypes="ccccc" />
    <path style="fill:none;stroke:#543b3e;stroke-width:0.264583px;stroke-linecap:butt;stroke-linejoin:miter;stroke-opacity:1" d="m 10.557556,137.63001 1.525088,5.03279" id="path138309" />
    <path style="fill:none;stroke:#543b3e;stroke-width:0.264583px;stroke-linecap:butt;stroke-linejoin:miter;stroke-opacity:1" d="m 9.7950118,142.44493 3.0937492,-4.61884" id="path138311" />
    <path style="fill:none;stroke:#543b3e;stroke-width:0.264583px;stroke-linecap:butt;stroke-linejoin:miter;stroke-opacity:1" d="m 15.268181,137.92893 -2.341669,2.46491 1.894903,2.29545 0.570011,-1.94112 -2.002742,-0.8319" id="path138313" />
    <path style="fill:none;stroke:#543b3e;stroke-width:0.264583px;stroke-linecap:butt;stroke-linejoin:miter;stroke-opacity:1" d="m 16.439014,138.37569 -0.878125,1.49436 2.665188,0.33892 v 0" id="path138315" />
    <path style="fill:none;stroke:#543b3e;stroke-width:0.264583px;stroke-linecap:butt;stroke-linejoin:miter;stroke-opacity:1" d="m 17.7485,138.71462 -0.523794,3.78981" id="path138317" />
  </g>
</svg>
