<?xml version="1.0" encoding="UTF-8" standalone="no"?>
<!-- Created with Inkscape (http://www.inkscape.org/) -->

<svg
   width="210mm"
   height="297mm"
   viewBox="0 0 210 297"
   version="1.1"
   id="svg5"
   inkscape:version="1.1 (c68e22c387, 2021-05-23)"
   sodipodi:docname="нхазарий правый дезигне вторая итерация.svg"
   xmlns:inkscape="http://www.inkscape.org/namespaces/inkscape"
   xmlns:sodipodi="http://sodipodi.sourceforge.net/DTD/sodipodi-0.dtd"
   xmlns:xlink="http://www.w3.org/1999/xlink"
   xmlns="http://www.w3.org/2000/svg"
   xmlns:svg="http://www.w3.org/2000/svg">
  <sodipodi:namedview
     id="namedview7"
     pagecolor="#505050"
     bordercolor="#ffffff"
     borderopacity="1"
     inkscape:pageshadow="0"
     inkscape:pageopacity="0"
     inkscape:pagecheckerboard="1"
     inkscape:document-units="mm"
     showgrid="false"
     inkscape:zoom="0.47433592"
     inkscape:cx="100.99905"
     inkscape:cy="811.55462"
     inkscape:window-width="2067"
     inkscape:window-height="1406"
     inkscape:window-x="-11"
     inkscape:window-y="-11"
     inkscape:window-maximized="1"
     inkscape:current-layer="layer1" />
  <defs
     id="defs2">
    <linearGradient
       inkscape:collect="always"
       id="linearGradient64325">
      <stop
         style="stop-color:#ffffff;stop-opacity:1;"
         offset="0"
         id="stop64321" />
      <stop
         style="stop-color:#ffffff;stop-opacity:0.50196078;"
         offset="0.19953425"
         id="stop65105" />
      <stop
         style="stop-color:#ffffff;stop-opacity:0.27843137;"
         offset="0.53463984"
         id="stop65491" />
      <stop
         style="stop-color:#ffffff;stop-opacity:0;"
         offset="1"
         id="stop64323" />
    </linearGradient>
    <linearGradient
       inkscape:collect="always"
       xlink:href="#linearGradient64325"
       id="linearGradient64327"
       x1="112.48816"
       y1="112.4374"
       x2="114.33515"
       y2="87.177544"
       gradientUnits="userSpaceOnUse" />
  </defs>
  <g
     inkscape:label="Слой 1"
     inkscape:groupmode="layer"
     id="layer1">
    <rect
       style="fill:#f9ceb3;fill-opacity:1;stroke-width:6.414"
       id="rect37843"
       width="14.032079"
       height="22.70438"
       x="109.19681"
       y="113.40029" />
    <path
       id="path11811-1"
       style="fill:#2f0d06;fill-opacity:1;stroke-width:6.414"
       inkscape:transform-center-x="-4.900878"
       inkscape:transform-center-y="-3.6249355"
       d="m 89.252448,128.21021 -3.225146,-7.05416 -5.40052,6.97767 2.519577,-8.48477 -0.343496,-13.69427 15.030953,-10.46871 6.982094,12.3148 -10.648127,5.35695 z"
       sodipodi:nodetypes="ccccccccc" />
    <path
       id="path11811-1-1"
       style="fill:#2f0d06;fill-opacity:1;stroke-width:6.414"
       inkscape:transform-center-x="4.900882"
       inkscape:transform-center-y="-3.6249355"
       d="m 149.61199,116.31852 3.22514,-7.05416 5.40052,6.97767 -2.51957,-8.48477 0.34349,-13.694266 -15.03095,-10.46871 -6.9821,12.3148 10.64813,5.356946 z"
       sodipodi:nodetypes="ccccccccc" />
    <path
       id="path11811-1-8-9"
       style="fill:#2f0d06;fill-opacity:1;stroke-width:6.414"
       inkscape:transform-center-x="-4.093536"
       inkscape:transform-center-y="-2.029429"
       d="m 86.759751,88.107678 -1.300325,-7.646695 -7.01489,5.352086 4.619071,-7.550089 3.1937,-13.321081 17.219473,-6.246074 3.57626,13.697237 -11.66835,2.434992 z"
       sodipodi:nodetypes="ccccccccc" />
    <path
       id="rect9549"
       style="fill:#3d1c09;stroke-width:6.414;fill-opacity:1"
       d="m 78.260211,81.662469 12.894861,-7.159219 12.321708,-15.807425 34.32245,3.63092 17.81472,13.294988 2.97435,8.27682 -4.08125,4.828378 -4.36033,13.553109 -5.55005,19.53454 -41.23744,-1.21063 -18.41404,6.47866 -2.61201,-14.41682 -4.069507,1.29854 -0.36599,-25.779983 z"
       sodipodi:nodetypes="ccccccccccccccc" />
    <path
       id="path11811-1-8"
       style="fill:#2f0d06;fill-opacity:1;stroke-width:6.414"
       inkscape:transform-center-x="3.196662"
       inkscape:transform-center-y="-0.5747715"
       d="m 151.50782,88.294561 -0.39438,-7.746434 8.01123,3.697781 -6.15098,-6.364355 -6.01525,-12.307225 -18.16589,-2.350313 -0.51073,14.147196 11.91862,-0.161822 z"
       sodipodi:nodetypes="ccccccccc" />
    <path
       id="path11811-1-6"
       style="fill:url(#linearGradient64327);fill-opacity:1;stroke-width:6.414;opacity:0.50989011"
       inkscape:transform-center-x="-4.900878"
       inkscape:transform-center-y="-3.6249355"
       d="m 127.20531,58.524536 -7.8021,1.856216 -15.92616,-1.685168 -17.219622,6.24613 -3.193603,13.321151 -0.67903,1.110009 -4.124295,2.289784 -0.362768,6.521566 0.365869,25.780336 4.069519,-1.29863 0.740523,4.08813 0.07286,2.89491 -2.519743,8.48475 3.653522,-4.72064 0.665076,3.66954 3.266469,-1.14928 1.040762,2.27686 0.975135,-2.98586 13.131506,-4.62039 41.23779,1.21078 3.16828,-11.15178 1.84692,5.65547 3.22512,-7.05383 5.40019,6.97735 -2.51923,-8.48475 0.34313,-13.694255 -2.67218,-1.861386 1.11776,-3.474723 4.02094,-4.7563 0.59686,0.275436 -0.65525,-0.677995 -2.85564,-7.946284 -5.89473,-4.399216 -2.76056,-5.648232 -5.81618,-0.752409 -3.34295,-2.494939 -8.66562,-0.916739 z" />
    <path
       id="path1347-4"
       style="fill:#91aca4;stroke-width:7.86677;fill-opacity:1"
       inkscape:transform-center-x="2.391722"
       inkscape:transform-center-y="-7.3710332"
       d="m 82.270715,119.61041 6.519432,-9.68669 4.165505,-19.208069 4.741668,19.352889 11.60982,12.41293 -16.200859,-4.21933 z"
       sodipodi:nodetypes="ccccccc" />
    <path
       id="path3104-1"
       style="fill:#91aca4;stroke-width:7.86677;fill-opacity:1"
       inkscape:transform-center-x="-0.066434765"
       d="M 74.738459,91.342666 86.351046,90.471321 102.86336,83.877663 94.822653,96.910504 94.167783,113.15772 83.455242,98.412827 Z"
       sodipodi:nodetypes="ccccccc"
       inkscape:transform-center-y="1.9081653" />
    <path
       id="path1347-2"
       style="fill:#91aca4;fill-opacity:1;stroke-width:7.86677"
       inkscape:transform-center-x="-5.3419579"
       inkscape:transform-center-y="-5.2299372"
       d="m 161.71252,93.968975 -10.2047,-5.674414 -12.42689,-15.227384 -0.15934,35.726913 12.52308,-11.110475 z"
       sodipodi:nodetypes="cccccc" />
    <path
       id="path3104-9"
       style="fill:#91aca4;fill-opacity:1;stroke-width:7.86677"
       inkscape:transform-center-x="5.1687143"
       d="m 150.70247,65.167682 -10.5884,5.149929 -17.83735,4.26952 24.0066,26.062719 0.85292,-24.840201 z"
       sodipodi:nodetypes="cccccc"
       inkscape:transform-center-y="2.5380834" />
    <path
       id="path3104-9-1"
       style="fill:#91aca4;fill-opacity:1;stroke-width:7.86677"
       inkscape:transform-center-x="1.2944767"
       d="m 152.16248,115.6207 -6.93455,-9.51567 -7.34481,-16.806363 -21.42641,28.222163 24.60201,-3.53602 z"
       sodipodi:nodetypes="cccccc"
       inkscape:transform-center-y="-5.9862145" />
    <circle
       style="fill:#fbf2cd;fill-opacity:1;stroke-width:6.414"
       id="path846"
       cx="128.22517"
       cy="82.924416"
       transform="rotate(6.9455927)"
       r="26.130478" />
    <path
       id="path46289-13"
       style="fill:#f9dbb5;stroke-width:6.414"
       d="m 115.66081,99.787587 c 1.5254,2.323773 0.0916,5.273243 -1.15817,7.756163 -1.24975,2.48293 -8.53351,3.16935 -11.30867,3.32849 -2.77515,0.15915 -6.724441,-4.60031 -8.249845,-6.92409 l 14.212345,0.10909 z"
       sodipodi:nodetypes="cssccc" />
    <path
       id="path46289-13-3"
       style="fill:#f9dbb5;stroke-width:6.414"
       d="m 122.70734,98.122403 c -1.5254,2.323777 -0.0916,5.273247 1.15816,7.756177 1.24975,2.48292 8.53352,3.16934 11.30867,3.32848 2.77515,0.15915 6.72445,-4.60031 8.24985,-6.92409 l -14.21234,0.10909 z"
       sodipodi:nodetypes="cssccc" />
    <path
       style="fill:#525252;fill-opacity:1;stroke-width:6.414"
       id="path46289"
       sodipodi:type="arc"
       sodipodi:cx="104.26955"
       sodipodi:cy="96.237419"
       sodipodi:rx="12.517495"
       sodipodi:ry="12.517495"
       sodipodi:start="0"
       sodipodi:end="3.1415927"
       sodipodi:arc-type="slice"
       d="m 116.78704,96.237419 a 12.517495,12.517495 0 0 1 -6.25875,10.840471 12.517495,12.517495 0 0 1 -12.517491,0 12.517495,12.517495 0 0 1 -6.258748,-10.840471 h 12.517499 z" />
    <path
       id="path46289-3"
       style="fill:none;fill-opacity:1;stroke-width:6.414"
       d="m 91.230159,112.87846 c -3.906113,-2.227 -6.317701,-6.37793 -6.317703,-10.87429 h 16.461984 z"
       sodipodi:nodetypes="cccc" />
    <ellipse
       style="opacity:1;fill:#2c2c2c;fill-opacity:1;stroke-width:27.0268"
       id="path49654"
       cx="104.62262"
       cy="99.96769"
       rx="2.5262203"
       ry="5.0140138" />
    <path
       style="fill:#ffffff;fill-opacity:1;stroke-width:6.414"
       id="path46289-1"
       sodipodi:type="arc"
       sodipodi:cx="130.53989"
       sodipodi:cy="99.954308"
       sodipodi:rx="12.517495"
       sodipodi:ry="12.517495"
       sodipodi:start="0"
       sodipodi:end="3.1415927"
       sodipodi:arc-type="slice"
       d="m 143.05738,99.954308 a 12.517495,12.517495 0 0 1 -6.25875,10.840472 12.517495,12.517495 0 0 1 -12.51749,0 12.517495,12.517495 0 0 1 -6.25875,-10.840472 h 12.5175 z"
       transform="rotate(-2.0248192)" />
    <ellipse
       style="opacity:1;fill:#5f5f5f;fill-opacity:1;stroke-width:27.0268"
       id="path49654-3"
       cx="135.58942"
       cy="97.623543"
       rx="2.5262203"
       ry="5.0140138"
       transform="rotate(0.61592615)" />
    <rect
       style="opacity:1;fill:#fbf2cd;fill-opacity:1;stroke-width:6.414"
       id="rect77572"
       width="26.568188"
       height="5.6979446"
       x="91.16526"
       y="91.578621" />
    <path
       id="rect77572-1"
       style="fill:#fbf2cd;stroke-width:6.414"
       d="m 120.32662,90.389137 25.43584,1.529586 1.13235,4.168359 h -26.56819 z"
       sodipodi:nodetypes="ccccc" />
    <path
       id="path11811"
       style="fill:#3d1c09;fill-opacity:1;stroke-width:8.02228"
       inkscape:transform-center-x="-5.0264661"
       inkscape:transform-center-y="-2.3750438"
       d="m 101.17014,98.992621 -1.433502,-9.594863 -8.906829,6.5161 5.966212,-9.325015 4.329139,-16.577497 21.69008,-7.377066 4.12718,17.218334 -14.65247,2.751113 z"
       sodipodi:nodetypes="ccccccccc" />
    <path
       id="path11811-8"
       style="fill:#2f0d06;fill-opacity:1;stroke-width:8.02228"
       inkscape:transform-center-x="-5.2434929"
       inkscape:transform-center-y="-2.4902149"
       d="m 112.50026,91.810108 -3.71565,-8.961596 -7.06255,8.480076 3.52895,-10.492756 0.18337,-17.132464 21.77089,-5.178728 5.6616,8.47115 -13.54924,6.219462 z"
       sodipodi:nodetypes="ccccccccc" />
    <path
       id="path1347"
       style="fill:#91aca4;fill-opacity:1;stroke-width:7.86677"
       inkscape:transform-center-x="-6.3729012"
       inkscape:transform-center-y="-0.8413201"
       d="m 85.802632,69.743458 10.846213,4.323724 19.654545,0.0097 -17.912636,8.726688 -9.67732,13.972058 0.698202,-16.726715 z"
       sodipodi:nodetypes="ccccccc" />
    <path
       id="path1347-9"
       style="fill:#91aca4;stroke-width:7.86676;fill-opacity:1"
       inkscape:transform-center-x="-0.20540687"
       inkscape:transform-center-y="-2.6698462"
       d="m 133.9858,55.907783 0.57272,11.77819 6.4721,15.908311 -12.96656,-8.031496 -20.47524,-1.23182 17.92934,-7.607084 z"
       sodipodi:nodetypes="ccccccc" />
    <path
       id="path3104"
       style="fill:#91aca4;stroke-width:7.86677;fill-opacity:1"
       inkscape:transform-center-x="-3.2796946"
       d="m 107.44569,55.029434 6.6034,9.592004 14.01497,10.94135 -15.30895,-0.379305 -14.364356,7.620087 7.339436,-16.682403 z"
       sodipodi:nodetypes="ccccccc"
       inkscape:transform-center-y="-0.856338" />
    <path
       id="path70181"
       style="opacity:1;fill:#f9dbb5;stroke-width:24.2419"
       inkscape:transform-center-x="0.47466902"
       inkscape:transform-center-y="-1.0261921"
       transform="scale(0.26458333)"
       d="m 359.86097,418.45617 45.19243,19.41961 12.48053,21.9898 z"
       sodipodi:nodetypes="cccc" />
    <path
       id="path70181-7"
       style="fill:#f9dbb5;stroke-width:6.414"
       inkscape:transform-center-x="-0.37994902"
       inkscape:transform-center-y="-1.0649021"
       d="m 140.60367,109.03385 -11.44367,6.19808 -2.76261,6.09286 z"
       sodipodi:nodetypes="cccc" />
    <path
       id="rect70627"
       style="opacity:1;fill:#612700;stroke-width:6.414;fill-opacity:1"
       d="m 104.69788,115.28243 8.88572,0.86227 13.40896,-0.14614 -0.51461,0.59176 -13.25162,0.59012 -6.43349,-0.59012 z"
       sodipodi:nodetypes="ccccccc" />
    <path
       id="rect73495"
       style="opacity:1;fill:#e3e3e3;stroke-width:7.29445"
       d="m 89.960112,138.13271 15.718138,-7.57549 21.91895,0.19881 12.67281,2.95149 -5.36044,47.34984 -1.0846,35.74394 -35.682652,0.60984 -1.889363,-29.41897 z"
       sodipodi:nodetypes="ccccccccc" />
    <path
       id="rect72823"
       style="opacity:1;fill:#ededed;fill-opacity:1;stroke-width:5.40763"
       d="m 106.2667,125.00763 10.36436,4.91074 -1.09994,6.91817 -8.85163,-2.82134 z"
       sodipodi:nodetypes="ccccc" />
    <path
       id="rect72823-5"
       style="fill:#ededed;fill-opacity:1;stroke-width:4.32851"
       d="m 125.60574,125.00763 -6.64056,4.91074 0.70474,6.91817 5.67134,-2.82134 z"
       sodipodi:nodetypes="ccccc" />
    <path
       sodipodi:type="star"
       style="opacity:1;fill:#1a1a1a;fill-opacity:1;stroke-width:24.2419"
       id="path75051"
       inkscape:flatsided="true"
       sodipodi:sides="3"
       sodipodi:cx="447.38333"
       sodipodi:cy="507.12033"
       sodipodi:r1="41.199539"
       sodipodi:r2="20.59977"
       sodipodi:arg1="1.6694065"
       sodipodi:arg2="2.7166041"
       inkscape:rounded="0"
       inkscape:randomized="0"
       d="m 443.32722,548.11972 -29.42235,-65.01178 71.01303,7.02539 z"
       transform="matrix(0.13693463,0,0,0.26458333,55.79634,0.61749509)"
       inkscape:transform-center-x="-0.27770819"
       inkscape:transform-center-y="2.2472365" />
    <path
       id="rect75383"
       style="opacity:1;fill:#d4d4d4;stroke-width:7.01385"
       d="m 92.180263,145.66175 7.820447,12.04403 4.57053,27.81982 9.79363,29.49603 -16.078682,-34.45145 z"
       sodipodi:nodetypes="cccccc" />
    <path
       id="rect75383-2"
       style="fill:#d4d4d4;stroke-width:7.01385"
       d="m 130.96775,137.12286 -0.1767,8.95579 -2.9116,32.67504 -2.8943,30.94437 7.90089,-37.18875 z"
       sodipodi:nodetypes="cccccc" />
    <path
       sodipodi:type="star"
       style="opacity:1;fill:#1a1a1a;fill-opacity:1;stroke-width:24.2419"
       id="path75155"
       inkscape:flatsided="true"
       sodipodi:sides="3"
       sodipodi:cx="425.77139"
       sodipodi:cy="862.6825"
       sodipodi:r1="239.29118"
       sodipodi:r2="119.64559"
       sodipodi:arg1="-1.5707963"
       sodipodi:arg2="-0.52359878"
       inkscape:rounded="0"
       inkscape:randomized="0"
       d="m 425.7714,623.39131 207.23223,358.93678 -414.46448,-10e-6 z"
       transform="matrix(0.0333398,0.0047279,-0.02807565,0.1979816,121.22467,7.9982534)"
       inkscape:transform-center-y="-11.353921"
       inkscape:transform-center-x="1.7749752" />
    <path
       sodipodi:type="star"
       style="opacity:1;fill:#1a1a1a;fill-opacity:1;stroke-width:24.2419"
       id="path75155-6"
       inkscape:flatsided="true"
       sodipodi:sides="3"
       sodipodi:cx="425.77139"
       sodipodi:cy="862.6825"
       sodipodi:r1="239.29118"
       sodipodi:r2="119.64559"
       sodipodi:arg1="-1.5707963"
       sodipodi:arg2="-0.52359878"
       inkscape:rounded="0"
       inkscape:randomized="0"
       transform="matrix(0.0333398,0.0047279,0.00452831,-0.03193242,89.196873,233.84924)"
       inkscape:transform-center-y="1.4203901"
       d="m 425.7714,623.39131 207.23223,358.93678 -414.46448,-10e-6 z"
       inkscape:transform-center-x="-0.54178342" />
    <path
       id="rect79805"
       style="opacity:1;fill:#272727;stroke-width:6.414"
       d="m 95.574296,213.37104 39.490084,1.18003 -2.46945,18.19387 -36.716271,-5.01988 z"
       sodipodi:nodetypes="ccccc" />
    <path
       id="rect80759"
       style="opacity:1;fill:#272727;stroke-width:6.414"
       d="m 95.574296,213.37104 22.310984,14.55691 -8.52041,67.22166 -20.915003,5.13083 z"
       sodipodi:nodetypes="ccccc" />
    <path
       id="rect80759-7"
       style="fill:#272727;stroke-width:6.414"
       d="m 79.71138,372.60013 24.74439,-9.8691 4.9091,-67.58142 -19.491683,-9.15629 z"
       sodipodi:nodetypes="ccccc" />
    <path
       id="rect80759-4"
       style="fill:#272727;stroke-width:6.414"
       d="m 133.82497,216.8013 -22.31098,14.55691 8.52041,67.22166 20.915,5.13083 z"
       sodipodi:nodetypes="ccccc" />
    <path
       id="rect80759-7-9"
       style="fill:#272727;stroke-width:6.414"
       d="m 142.77292,378.33495 -23.78227,-12.00363 1.04375,-67.75145 20.22035,-7.40948 z"
       sodipodi:nodetypes="ccccc" />
  </g>
</svg>
