<?xml version="1.0" encoding="UTF-8" standalone="no"?>
<!-- Created with Inkscape (http://www.inkscape.org/) -->

<svg width="100.12238mm" height="179.44104mm" viewBox="0 0 100.12238 179.44104" version="1.1" id="svg8" enable-background="new" inkscape:version="1.3 (0e150ed6c4, 2023-07-21)" sodipodi:docname="варек.svg" xmlns:inkscape="http://www.inkscape.org/namespaces/inkscape" xmlns:sodipodi="http://sodipodi.sourceforge.net/DTD/sodipodi-0.dtd" xmlns="http://www.w3.org/2000/svg" xmlns:svg="http://www.w3.org/2000/svg" xmlns:rdf="http://www.w3.org/1999/02/22-rdf-syntax-ns#" xmlns:cc="http://creativecommons.org/ns#" xmlns:dc="http://purl.org/dc/elements/1.1/">
  <defs id="defs2" />
  <sodipodi:namedview id="base" pagecolor="#ffffff" bordercolor="#666666" borderopacity="1.0" inkscape:pageopacity="0.0" inkscape:pageshadow="2" inkscape:zoom="0.98994949" inkscape:cx="189.90868" inkscape:cy="336.3808" inkscape:document-units="mm" inkscape:current-layer="layer2" showgrid="false" showguides="false" inkscape:window-width="2467" inkscape:window-height="1413" inkscape:window-x="84" inkscape:window-y="-9" inkscape:window-maximized="1" inkscape:showpageshadow="2" inkscape:pagecheckerboard="0" inkscape:deskcolor="#d1d1d1" />
  <metadata id="metadata5">
    <rdf:RDF>
      <cc:Work rdf:about="">
        <dc:format>image/svg+xml</dc:format>
        <dc:type rdf:resource="http://purl.org/dc/dcmitype/StillImage" />
        <dc:title />
      </cc:Work>
    </rdf:RDF>
  </metadata>
  <g inkscape:groupmode="layer" id="layer3" inkscape:label="Layer 3" style="display:inline" transform="translate(-84.991707,-53.631282)">
    <path style="display:inline;fill:#524e49;fill-opacity:1;fill-rule:evenodd;stroke-width:0.264583" d="m 159.46158,112.07509 -1.08668,-0.75595 c 0.59438,-3.78178 -0.006,-5.53358 -1.53251,-10.35197 l 4.1839,-0.39622 c 0.259,4.11021 0.58561,7.8456 0.34676,9.5876 h 0.73499 v 0 l -3.73314,1.16059 3.73314,-1.16059 z" id="rect855-8" inkscape:connector-curvature="0" sodipodi:nodetypes="cccccccccc" />
    <path style="display:inline;opacity:1;fill:#403d39;fill-opacity:1;fill-rule:nonzero;stroke:none;stroke-width:0.6;stroke-linecap:round;stroke-linejoin:miter;stroke-miterlimit:4;stroke-dasharray:none;stroke-dashoffset:44.0315;stroke-opacity:1;paint-order:fill markers stroke" inkscape:transform-center-x="0.10439182" inkscape:transform-center-y="0.38555643" d="m 185.11408,121.21634 -1.38101,-0.2551 -4.55482,-1.4507 0.61285,-2.2868 3.19707,-0.005 1.37371,2.35271 z" id="path1266-1-2" inkscape:connector-curvature="0" sodipodi:nodetypes="ccccccc" />
    <path style="fill:#000000;fill-opacity:1;fill-rule:evenodd;stroke-width:0.264583" d="m 153.83825,112.6256 4.53665,-1.30646 c 0.0627,-4.33676 0,0 0,0 l 3.73314,-1.91654 c 0.259,4.11022 0,0 0,0 l 3.30141,-1.33479 5.54863,8.67454 -3.78693,2.10322 v 0 0 0 l -12.43044,-0.0463 z" id="rect855" inkscape:connector-curvature="0" sodipodi:nodetypes="ccccccccccccc" />
    <path style="fill:#0000bd;fill-opacity:1;fill-rule:evenodd;stroke-width:0.264583" d="m 47.039434,166.3052 113.856826,-29.93419 17.37251,6.81537 -94.346141,41.02587 z" id="rect1109" inkscape:connector-curvature="0" sodipodi:nodetypes="ccccc" />
    <path style="display:inline;fill:#5b5850;fill-opacity:1;fill-rule:evenodd;stroke-width:0.264583" d="m 132.83295,95.612402 -7.34991,2.80633 0.50133,35.460378 27.38642,-8.56131 1.95642,-4.56282 1.77067,0.0332 -0.84866,-9.4728 -2.02409,-0.007 -2.01139,-4.94459 -22.09661,15.42022 z" id="rect1133-8" inkscape:connector-curvature="0" sodipodi:nodetypes="ccccccccccc" />
    <path style="display:inline;fill:#6969ff;fill-opacity:1;fill-rule:evenodd;stroke-width:0.264583" d="m 159.75055,161.90589 -33.78602,-18.91407 47.97176,12.26091 -17.60258,49.82902 -20.02354,-11.27506 z" id="rect1115-6" inkscape:connector-curvature="0" sodipodi:nodetypes="cccccc" />
    <path style="fill:#0000ff;fill-rule:evenodd;stroke-width:0.264583" d="m 108.91233,99.086906 23.92062,-3.474504 c -21.14086,23.160498 0.44606,41.828558 1.06908,50.781208 l -14.43255,3.60814 C 96.46099,134.73161 105.33373,120.29901 108.91233,99.086906 Z" id="rect1112" inkscape:connector-curvature="0" sodipodi:nodetypes="ccccc" />
    <path style="fill:#0000ff;fill-rule:evenodd;stroke-width:0.264583" d="m 135.9087,175.28164 -16.43922,-25.27989 -2.16503,-7.6508 35.03605,29.26613 -16.39985,61.45525 -20.02354,-11.27505 z" id="rect1115" inkscape:connector-curvature="0" sodipodi:nodetypes="ccccccc" />
    <path style="fill:#464135;fill-opacity:1;fill-rule:evenodd;stroke-width:0.264583" d="m 154.22513,111.30838 2.02409,0.007 0.84866,9.4728 -1.77067,-0.0332 z" id="rect1171" inkscape:connector-curvature="0" sodipodi:nodetypes="ccccc" />
    <path style="opacity:1;fill:#524e49;fill-opacity:1;fill-rule:nonzero;stroke:none;stroke-width:0.6;stroke-linecap:round;stroke-linejoin:miter;stroke-miterlimit:4;stroke-dasharray:none;stroke-dashoffset:44.0315;stroke-opacity:1;paint-order:fill markers stroke" d="m 168.01691,107.12927 -5.35234,1.46464 1.07551,3.13914 0.0608,4.19092 v 0 0 l 5.68283,0.86358 1.47437,-0.0452 -0.27178,-6.89655 z" id="path1175" inkscape:connector-curvature="0" sodipodi:nodetypes="cccccccccc" />
    <path style="opacity:1;fill:#524e49;fill-opacity:1;fill-rule:nonzero;stroke:none;stroke-width:0.6;stroke-linecap:round;stroke-linejoin:miter;stroke-miterlimit:4;stroke-dasharray:none;stroke-dashoffset:44.0315;stroke-opacity:1;paint-order:fill markers stroke" inkscape:transform-center-x="-0.47703961" inkscape:transform-center-y="-0.73872092" d="m 167.66824,119.22889 -4.45967,-1.03703 -0.11022,-2.17085 6.63052,1.35382 v 0 l 0.75219,1.6449 z" id="path1299" inkscape:connector-curvature="0" sodipodi:nodetypes="ccccccc" />
    <path style="opacity:1;fill:#524e49;fill-opacity:1;fill-rule:nonzero;stroke:none;stroke-width:0.6;stroke-linecap:round;stroke-linejoin:miter;stroke-miterlimit:4;stroke-dasharray:none;stroke-dashoffset:44.0315;stroke-opacity:1;paint-order:fill markers stroke" inkscape:transform-center-x="-0.23893427" inkscape:transform-center-y="0.10022467" d="m 170.23153,109.95321 -0.7684,0.91874 -5.72305,0.8611 -0.23016,-0.67179 v 0 l 5.73659,-0.627 z" id="path1302" inkscape:connector-curvature="0" sodipodi:nodetypes="ccccccc" />
    <path style="display:inline;opacity:1;fill:#524e49;fill-opacity:1;fill-rule:nonzero;stroke:none;stroke-width:0.6;stroke-linecap:round;stroke-linejoin:miter;stroke-miterlimit:4;stroke-dasharray:none;stroke-dashoffset:44.0315;stroke-opacity:1;paint-order:fill markers stroke" inkscape:transform-center-x="-0.23893427" inkscape:transform-center-y="0.10022467" d="m 170.64936,113.14783 -1.33634,0.93545 -5.47834,0.35615 v 0 0 l -0.027,-0.77154 v 0 0 l 5.39906,-0.0974 z" id="path1302-6" inkscape:connector-curvature="0" sodipodi:nodetypes="cccccccccc" />
  </g>
  <g inkscape:groupmode="layer" id="layer1" inkscape:label="Layer 4" style="display:inline" transform="translate(-84.991707,-53.631282)">
    <path style="fill:#191412;fill-opacity:1;fill-rule:evenodd;stroke-width:0.264583" d="m 119.46948,148.83245 8.17374,-3.07105 14.1741,14.36309 -16.63095,5.24442 z" id="rect1153" inkscape:connector-curvature="0" sodipodi:nodetypes="ccccc" />
    <path style="display:inline;fill:#191412;fill-opacity:1;fill-rule:evenodd;stroke-width:0.264583" d="m 124.71246,147.39048 6.07275,-4.58818 24.26817,5.14674 -9.56144,10.15656 z" id="rect1153-7" inkscape:connector-curvature="0" sodipodi:nodetypes="ccccc" />
    <path style="display:inline;fill:#302725;fill-opacity:1;fill-rule:evenodd;stroke-width:0.264583" d="m 108.91233,99.086916 23.92062,-3.474504 c -21.14086,23.160498 0.44606,41.828558 1.06908,50.781208 l -14.43255,3.60814 C 96.46099,134.73162 105.33373,120.29902 108.91233,99.086916 Z" id="rect1112-7" inkscape:connector-curvature="0" sodipodi:nodetypes="ccccc" />
    <path style="display:inline;opacity:1;fill:#4f443c;fill-opacity:1;fill-rule:nonzero;stroke:none;stroke-width:1.4;stroke-linecap:round;stroke-linejoin:miter;stroke-miterlimit:4;stroke-dasharray:none;stroke-dashoffset:44.0315;stroke-opacity:1;paint-order:fill markers stroke" inkscape:transform-center-x="1.0796279" inkscape:transform-center-y="0.73467346" d="m 145.24064,54.84512 c 0,0 6.99584,-2.360854 9.47379,-0.497598 2.11959,1.593805 1.67285,5.329763 1.32057,7.512149 -0.35229,2.182383 -2.69889,5.040081 -2.69889,5.040081 0,0 4.33986,4.003351 4.97141,6.632331 1.00633,4.188994 -0.34398,8.810146 -2.3442,12.648268 -2.05535,3.943906 -9.44077,9.740644 -9.44077,9.740644 l 3.10046,-7.323628 c -5.37789,1.997576 -7.73569,5.110428 -8.69569,8.739478 -7.79021,0.48952 -12.26644,-2.24207 -16.69663,-5.01841 -5.39818,2.75368 -7.40662,2.974192 -11.67475,3.069902 1.85187,-2.08597 3.67293,-4.590374 2.81058,-7.551088 -2.44884,3.403002 -6.20508,2.617284 -9.44431,3.487991 0,0 2.69606,-2.286442 2.8891,-3.849087 0.41687,-3.374773 -4.25533,-6.116661 -4.03794,-9.509463 0.19151,-2.988786 2.49461,-5.610665 4.59696,-7.851743 2.16624,-2.309173 7.95466,-5.438404 7.95466,-5.438404 l -3.98332,-0.02551 c 0,0 4.64865,-3.300025 7.41082,-3.942522 2.13978,-0.497723 4.4624,-0.254665 6.62719,0.177271 4.083,0.814671 11.59483,4.473135 11.59483,4.473135 0,0 12.80062,-2.984568 12.92195,-6.509271 0.12133,-3.524704 -6.65582,-4.004522 -6.65582,-4.004522 z" id="path958-9" inkscape:connector-curvature="0" sodipodi:nodetypes="caccsscccccccsssccsscccc" />
    <path style="opacity:1;fill:#d5c1b1;fill-opacity:1;fill-rule:nonzero;stroke:none;stroke-width:0.6;stroke-linecap:round;stroke-linejoin:miter;stroke-miterlimit:4;stroke-dasharray:none;stroke-dashoffset:44.0315;stroke-opacity:1;paint-order:fill markers stroke" inkscape:transform-center-x="0.86862747" inkscape:transform-center-y="-0.10802286" d="m 125.44963,85.088671 6.16534,3.469429 -5.58688,8.050482 1.70003,0.324584 -5.0424,3.979484 -6.93131,-1.843554 z" id="path945" inkscape:connector-curvature="0" sodipodi:nodetypes="ccccccc" />
    <path style="display:inline;opacity:1;fill:#ddd3cf;fill-opacity:1;fill-rule:nonzero;stroke:none;stroke-width:0.6;stroke-linecap:round;stroke-linejoin:miter;stroke-miterlimit:4;stroke-dasharray:none;stroke-dashoffset:44.0315;stroke-opacity:1;paint-order:fill markers stroke" inkscape:transform-center-x="-0.15915751" inkscape:transform-center-y="-0.11953834" d="m 124.93413,103.19853 5.97614,-7.643467 -2.59151,0.08457 -5.63304,5.273017 z" id="path1135-4" inkscape:connector-curvature="0" sodipodi:nodetypes="ccccc" />
    <path style="fill:#54514a;fill-opacity:1;fill-rule:evenodd;stroke-width:0.264583" d="m 108.91233,99.08691 7.10735,-2.590486 2.94833,4.144936 c -0.0201,17.50187 -7.12216,28.88022 3.49628,53.62538 l -16.34748,-5.95313 -2.52308,-24.61994 z" id="rect954" inkscape:connector-curvature="0" sodipodi:nodetypes="ccccccc" />
    <path style="fill:#5b5850;fill-opacity:1;fill-rule:evenodd;stroke-width:0.264583" d="m 108.91233,99.086906 v 0 l 2.77309,3.941964 -1.23707,13.96908 -5.41143,55.98898 -20.045213,-5.3454 C 95.953904,145.92852 103.22173,122.80814 108.91233,99.086906 Z" id="rect951" inkscape:connector-curvature="0" sodipodi:nodetypes="ccccccc" />
    <path style="opacity:1;fill:#54514a;fill-opacity:1;fill-rule:nonzero;stroke:none;stroke-width:0.6;stroke-linecap:round;stroke-linejoin:miter;stroke-miterlimit:4;stroke-dasharray:none;stroke-dashoffset:44.0315;stroke-opacity:1;paint-order:fill markers stroke" inkscape:transform-center-x="-1.4031633" inkscape:transform-center-y="-0.52207716" d="m 128.01787,95.330883 4.81508,0.281519 c -8.68407,15.935168 -8.69269,35.035988 2.04406,47.143528 l -1.98674,7.82981 -3.48103,-7.80068 c -4.86248,-10.97545 -9.67772,-25.4233 -2.92691,-43.957897 z" id="path971" inkscape:connector-curvature="0" sodipodi:nodetypes="ccccccc" />
    <path style="opacity:1;fill:#b3a285;fill-opacity:1;fill-rule:nonzero;stroke:none;stroke-width:0.6;stroke-linecap:round;stroke-linejoin:miter;stroke-miterlimit:4;stroke-dasharray:none;stroke-dashoffset:44.0315;stroke-opacity:1;paint-order:fill markers stroke" inkscape:transform-center-x="1.6734859e-06" inkscape:transform-center-y="-1.2045657e-06" d="m 125.24918,101.05803 2.38224,-4.862635 -0.40091,-1.904304 5.63584,-2.955009 1.45975,7.635556 -10.89122,10.056022 z" id="path1051" inkscape:connector-curvature="0" sodipodi:nodetypes="ccccccc" />
    <path style="opacity:1;fill:#b5ac84;fill-opacity:1;fill-rule:nonzero;stroke:none;stroke-width:0.6;stroke-linecap:round;stroke-linejoin:miter;stroke-miterlimit:4;stroke-dasharray:none;stroke-dashoffset:44.0315;stroke-opacity:1;paint-order:fill markers stroke" inkscape:transform-center-x="1.3983572" inkscape:transform-center-y="0.02513203" d="m 120.30383,109.464 -13.09796,-11.535397 -1.23778,-6.934308 12.9351,3.834307 -0.74014,2.32973 1.83251,4.569208 z" id="path948" inkscape:connector-curvature="0" sodipodi:nodetypes="ccccccc" />
    <path sodipodi:type="star" style="display:inline;opacity:1;fill:#c3b69f;fill-opacity:1;fill-rule:nonzero;stroke:none;stroke-width:0.563819;stroke-linecap:round;stroke-linejoin:miter;stroke-miterlimit:4;stroke-dasharray:none;stroke-dashoffset:44.0315;stroke-opacity:1;paint-order:fill markers stroke" id="path1004-2-0" sodipodi:sides="6" sodipodi:cx="109.8829" sodipodi:cy="98.317757" sodipodi:r1="3.6598639" sodipodi:r2="1.8299319" sodipodi:arg1="1.7334525" sodipodi:arg2="2.2570513" inkscape:flatsided="true" inkscape:rounded="-3.46945e-18" inkscape:randomized="0" d="m 109.29022,101.92931 -2.83136,-2.31905 0.59268,-3.611556 3.42403,-1.292503 2.83136,2.319052 -0.59267,3.611557 z" inkscape:transform-center-x="0.57261842" inkscape:transform-center-y="0.80120535" transform="matrix(0.22422182,1.0402811,-1.0402811,0.22422182,193.21531,-33.518455)" />
    <path sodipodi:type="star" style="display:inline;opacity:1;fill:#b3a285;fill-opacity:1;fill-rule:nonzero;stroke:none;stroke-width:1.00057;stroke-linecap:round;stroke-linejoin:miter;stroke-miterlimit:4;stroke-dasharray:none;stroke-dashoffset:44.0315;stroke-opacity:1;paint-order:fill markers stroke" id="path1004-2-0-9" sodipodi:sides="6" sodipodi:cx="109.8829" sodipodi:cy="98.317757" sodipodi:r1="3.6598639" sodipodi:r2="1.8299319" sodipodi:arg1="1.7334525" sodipodi:arg2="2.2570513" inkscape:flatsided="true" inkscape:rounded="-3.46945e-18" inkscape:randomized="0" d="m 109.29022,101.92931 -2.83136,-2.31905 0.59268,-3.611556 3.42403,-1.292503 2.83136,2.319052 -0.59267,3.611557 z" inkscape:transform-center-x="0.54956568" inkscape:transform-center-y="0.076910751" transform="matrix(-0.33807173,0.49527418,-0.49527418,-0.33807173,206.78299,84.013079)" />
    <path style="opacity:1;fill:#ddd3cf;fill-opacity:1;fill-rule:nonzero;stroke:none;stroke-width:0.6;stroke-linecap:round;stroke-linejoin:miter;stroke-miterlimit:4;stroke-dasharray:none;stroke-dashoffset:44.0315;stroke-opacity:1;paint-order:fill markers stroke" inkscape:transform-center-x="0.15916846" inkscape:transform-center-y="-0.11953863" d="m 119.57475,103.11832 -2.47714,-9.213145 5.58811,7.007475 z" id="path1135" inkscape:connector-curvature="0" sodipodi:nodetypes="cccc" />
    <path style="display:inline;opacity:1;fill:#ae9b7a;fill-opacity:1;fill-rule:nonzero;stroke:none;stroke-width:0.6;stroke-linecap:round;stroke-linejoin:miter;stroke-miterlimit:4;stroke-dasharray:none;stroke-dashoffset:44.0315;stroke-opacity:1;paint-order:fill markers stroke" inkscape:transform-center-x="1.48779" inkscape:transform-center-y="-0.11672429" d="m 121.65777,106.04848 -7.93363,-4.26287 3.33853,-10.497402 1.84052,3.540394 2.18856,4.00399 -0.84577,1.777798 z" id="path948-0" inkscape:connector-curvature="0" sodipodi:nodetypes="ccccccc" />
    <path sodipodi:type="star" style="opacity:1;fill:#bfb096;fill-opacity:1;fill-rule:nonzero;stroke:none;stroke-width:0.6;stroke-linecap:round;stroke-linejoin:miter;stroke-miterlimit:4;stroke-dasharray:none;stroke-dashoffset:44.0315;stroke-opacity:1;paint-order:fill markers stroke" id="path1004" sodipodi:sides="5" sodipodi:cx="114.29146" sodipodi:cy="92.156235" sodipodi:r1="3.8947215" sodipodi:r2="1.9473606" sodipodi:arg1="1.7334525" sodipodi:arg2="2.361771" inkscape:flatsided="true" inkscape:rounded="-3.46945e-18" inkscape:randomized="0" d="m 113.66075,95.999548 -3.2194,-3.255506 2.10132,-4.067836 4.51809,0.741445 0.69101,4.526075 z" inkscape:transform-center-x="-0.087933457" inkscape:transform-center-y="0.59151663" transform="rotate(7.6218664,111.68544,103.02889)" />
    <path sodipodi:type="star" style="display:inline;opacity:1;fill:#b2a082;fill-opacity:1;fill-rule:nonzero;stroke:none;stroke-width:0.563819;stroke-linecap:round;stroke-linejoin:miter;stroke-miterlimit:4;stroke-dasharray:none;stroke-dashoffset:44.0315;stroke-opacity:1;paint-order:fill markers stroke" id="path1004-2" sodipodi:sides="5" sodipodi:cx="109.8829" sodipodi:cy="98.317757" sodipodi:r1="3.6598639" sodipodi:r2="1.8299319" sodipodi:arg1="1.7334525" sodipodi:arg2="2.361771" inkscape:flatsided="true" inkscape:rounded="-3.46945e-18" inkscape:randomized="0" d="m 109.29022,101.92931 -3.02527,-3.059191 1.97461,-3.82254 4.24564,0.696735 0.64934,4.253145 z" inkscape:transform-center-x="-0.21405485" inkscape:transform-center-y="0.82199698" transform="matrix(0.6881493,0.81173313,-0.81173313,0.6881493,112.77932,-59.018698)" />
    <path style="display:inline;fill:#ebe0d7;fill-opacity:1;fill-rule:evenodd;stroke-width:0.264583" d="m 118.5868,71.233322 24.88317,1.806538 -11.60863,19.551235 -6.76884,-1.423793 z" id="rect1005-3" inkscape:connector-curvature="0" sodipodi:nodetypes="ccccc" />
    <path style="display:inline;fill:#f3ffda;fill-opacity:1;fill-rule:evenodd;stroke-width:0.264583" d="m 115.40558,70.883249 c -0.11445,1.709521 1.4339,3.399848 4.06177,4.434219 2.62778,1.034338 5.93579,1.255618 8.67793,0.580482 0,0 4.50189,-2.144205 4.61615,-3.853736 l -8.67792,-0.580481 z" id="path892-4" inkscape:connector-curvature="0" sodipodi:nodetypes="cssccc" />
    <path style="display:inline;fill:#f3ffda;fill-opacity:1;fill-rule:evenodd;stroke-width:0.264583" d="m 133.41477,73.132946 a 7.7066582,4.2493388 8.6194718 0 0 3.25826,4.216106 7.7066582,4.2493388 8.6194718 0 0 7.61963,1.155006 7.7066582,4.2493388 8.6194718 0 0 4.36135,-3.061099 l -7.61962,-1.155007 z" id="path892-8-1" inkscape:connector-curvature="0" />
    <path style="display:inline;opacity:1;fill:#000000;fill-opacity:1;fill-rule:nonzero;stroke:none;stroke-width:1.4;stroke-linecap:round;stroke-linejoin:miter;stroke-miterlimit:4;stroke-dasharray:none;stroke-dashoffset:44.0315;stroke-opacity:1;paint-order:fill markers stroke" inkscape:transform-center-x="-0.30774277" inkscape:transform-center-y="0.4027557" d="m 122.23323,75.311765 c -1.09699,-0.102745 -0.49512,-5.413252 -0.49512,-5.413252 l 1.69433,0.607887 c 0,0 -0.19405,4.899507 -1.19921,4.805365 z" id="path984-7" inkscape:connector-curvature="0" sodipodi:nodetypes="sccs" />
    <path style="display:inline;fill:#926d6d;fill-opacity:1;fill-rule:evenodd;stroke-width:0.264583" d="m 115.40558,70.883249 4.45975,-1.515392 c 2.57227,-0.874049 6.01788,0.02845 8.67793,0.580481 2.66012,0.55205 4.26809,1.350999 4.21817,2.095876 l -8.67792,-0.580481 z" id="path892-3-4" inkscape:connector-curvature="0" sodipodi:nodetypes="cssccc" />
    <path style="display:inline;opacity:1;fill:#000000;fill-opacity:1;fill-rule:nonzero;stroke:none;stroke-width:1.4;stroke-linecap:round;stroke-linejoin:miter;stroke-miterlimit:4;stroke-dasharray:none;stroke-dashoffset:44.0315;stroke-opacity:1;paint-order:fill markers stroke" inkscape:transform-center-x="-0.30774608" inkscape:transform-center-y="0.40275637" d="m 138.49276,77.694698 c -1.09698,-0.102745 -0.49511,-5.413253 -0.49511,-5.413253 l 1.69433,0.607886 c 0,0 -0.19405,4.899508 -1.19922,4.805367 z" id="path984-6-3" inkscape:connector-curvature="0" sodipodi:nodetypes="sccs" />
    <path style="display:inline;fill:#926d6d;fill-opacity:1;fill-rule:evenodd;stroke-width:0.264583" d="m 133.41477,73.132946 c 0.0991,-0.654047 1.64298,-1.038278 4.05014,-1.007926 2.4071,0.03035 5.56083,-0.09253 7.61962,1.155005 l 3.56948,2.162934 -7.61962,-1.155007 z" id="path892-3-7-1" inkscape:connector-curvature="0" sodipodi:nodetypes="cssccc" />
    <path style="display:inline;opacity:1;fill:#d5c1b1;fill-opacity:1;fill-rule:nonzero;stroke:none;stroke-width:1.4;stroke-linecap:round;stroke-linejoin:miter;stroke-miterlimit:4;stroke-dasharray:none;stroke-dashoffset:44.0315;stroke-opacity:1;paint-order:fill markers stroke" inkscape:transform-center-x="0.49932723" inkscape:transform-center-y="-0.75589539" d="m 132.76143,72.044214 c -0.50722,3.214343 -0.24154,8.517692 2.25257,9.326843 1.16585,0.37823 -5.33318,1.364692 -5.33318,1.364692 2.87947,-2.10938 1.98355,-6.784072 3.08061,-10.691535 z" id="path981-5" inkscape:connector-curvature="0" sodipodi:nodetypes="cscc" />
    <path style="display:inline;opacity:1;fill:#879362;fill-opacity:1;fill-rule:nonzero;stroke:none;stroke-width:1.4;stroke-linecap:round;stroke-linejoin:miter;stroke-miterlimit:4;stroke-dasharray:none;stroke-dashoffset:44.0315;stroke-opacity:1;paint-order:fill markers stroke" inkscape:transform-center-x="-0.2261325" inkscape:transform-center-y="0.39045628" d="m 124.63206,80.52702 c 3.61321,-3.052302 6.50613,-7.431562 7.21895,-12.389807 0.4206,-1.838669 1.74213,-1.042159 2.62647,-1.524377 -1.11249,2.961196 0.31346,3.790085 0.66095,5.524879 -3.34125,4.433012 -7.03504,7.413468 -10.50637,8.389305 z" id="path955-8" inkscape:connector-curvature="0" sodipodi:nodetypes="ccccc" />
    <path style="display:inline;fill:#2f2723;fill-opacity:1;fill-rule:evenodd;stroke-width:0.264583" d="m 115.94676,67.206141 12.5782,1.21541 -0.8082,-3.445643 2.86805,3.644681 -0.10033,1.500041 -15.05614,-0.170049 z" id="rect1008-42" inkscape:connector-curvature="0" sodipodi:nodetypes="ccccccc" />
    <path style="display:inline;fill:#2f2723;fill-opacity:1;fill-rule:evenodd;stroke-width:0.264583" d="m 149.14522,70.420239 -10.58038,0.03461 1.49712,-2.959968 -3.67122,2.875789 -0.10033,1.500042 14.24292,2.325549 z" id="rect1008-4-1" inkscape:connector-curvature="0" sodipodi:nodetypes="ccccccc" />
    <path style="display:inline;fill:#2f2723;fill-opacity:1;fill-rule:evenodd;stroke-width:0.264583" d="m 120.39696,83.46222 16.92297,4.50459 -0.22413,1.215636 -16.4632,-3.368881 z" id="rect1026-4" inkscape:connector-curvature="0" sodipodi:nodetypes="ccccc" />
    <path style="display:inline;opacity:1;fill:#3c2d2d;fill-opacity:1;fill-rule:nonzero;stroke:none;stroke-width:0.6;stroke-linecap:round;stroke-linejoin:miter;stroke-miterlimit:4;stroke-dasharray:none;stroke-dashoffset:44.0315;stroke-opacity:1;paint-order:fill markers stroke" inkscape:transform-center-x="-0.16118363" inkscape:transform-center-y="-0.76202929" d="m 128.42015,89.662834 2.35141,3.410861 -1.99774,0.79253 z" id="path1076-6" inkscape:connector-curvature="0" sodipodi:nodetypes="cccc" />
    <path sodipodi:type="star" style="display:inline;opacity:1;fill:#ae9b7a;fill-opacity:1;fill-rule:nonzero;stroke:none;stroke-width:0.460501;stroke-linecap:round;stroke-linejoin:miter;stroke-miterlimit:4;stroke-dasharray:none;stroke-dashoffset:44.0315;stroke-opacity:1;paint-order:fill markers stroke" id="path1057-1" sodipodi:sides="6" sodipodi:cx="133.85191" sodipodi:cy="95.595703" sodipodi:r1="2.568996" sodipodi:r2="1.8165544" sodipodi:arg1="1.0471976" sodipodi:arg2="1.5707964" inkscape:flatsided="true" inkscape:rounded="-3.46945e-18" inkscape:randomized="0" d="m 135.13641,97.820519 -2.56899,0 -1.2845,-2.224816 1.2845,-2.224816 2.56899,0 1.2845,2.224816 z" inkscape:transform-center-x="-1.789472e-06" inkscape:transform-center-y="-1.2757733e-05" transform="matrix(0.85158181,0.98611874,-0.98611874,0.85158181,113.26215,-117.38814)" />
    <path style="display:inline;opacity:1;fill:#3c2d2d;fill-opacity:1;fill-rule:nonzero;stroke:none;stroke-width:0.6;stroke-linecap:round;stroke-linejoin:miter;stroke-miterlimit:4;stroke-dasharray:none;stroke-dashoffset:44.0315;stroke-opacity:1;paint-order:fill markers stroke" inkscape:transform-center-x="0.36594018" inkscape:transform-center-y="-0.31470157" d="m 129.91747,90.143677 3.61425,2.024948 -1.44378,1.59204 z" id="path1076-0-3" inkscape:connector-curvature="0" sodipodi:nodetypes="cccc" />
    <path sodipodi:type="star" style="display:inline;opacity:1;fill:#b2a082;fill-opacity:1;fill-rule:nonzero;stroke:none;stroke-width:0.6;stroke-linecap:round;stroke-linejoin:miter;stroke-miterlimit:4;stroke-dasharray:none;stroke-dashoffset:44.0315;stroke-opacity:1;paint-order:fill markers stroke" id="path1057-2" sodipodi:sides="6" sodipodi:cx="130.06004" sodipodi:cy="102.92891" sodipodi:r1="2.568996" sodipodi:r2="1.8165544" sodipodi:arg1="1.0471976" sodipodi:arg2="1.5707964" inkscape:flatsided="true" inkscape:rounded="-3.46945e-18" inkscape:randomized="0" d="m 131.34454,105.15373 -2.56899,-10e-6 -1.2845,-2.22481 1.2845,-2.22482 2.56899,0 1.2845,2.22482 z" inkscape:transform-center-x="1.5678053e-06" transform="rotate(18.109496,116.06322,91.403424)" />
    <path sodipodi:type="star" style="display:inline;opacity:1;fill:#b5ac84;fill-opacity:1;fill-rule:nonzero;stroke:none;stroke-width:1.8058;stroke-linecap:round;stroke-linejoin:miter;stroke-miterlimit:4;stroke-dasharray:none;stroke-dashoffset:44.0315;stroke-opacity:1;paint-order:fill markers stroke" id="path1004-2-05-5" sodipodi:sides="5" sodipodi:cx="109.8829" sodipodi:cy="98.317757" sodipodi:r1="3.6598639" sodipodi:r2="1.8299319" sodipodi:arg1="1.7334525" sodipodi:arg2="2.361771" inkscape:flatsided="true" inkscape:rounded="-3.46945e-18" inkscape:randomized="0" d="m 109.29022,101.92931 -3.02527,-3.059191 1.97461,-3.82254 4.24564,0.696735 0.64934,4.253145 z" inkscape:transform-center-x="0.31042935" inkscape:transform-center-y="-0.028407953" transform="matrix(-0.28455442,0.17154291,-0.17154291,-0.28455442,176.47407,108.10019)" />
    <path style="display:inline;opacity:1;fill:#ae9b7a;fill-opacity:1;fill-rule:nonzero;stroke:none;stroke-width:0.6;stroke-linecap:round;stroke-linejoin:miter;stroke-miterlimit:4;stroke-dasharray:none;stroke-dashoffset:44.0315;stroke-opacity:1;paint-order:fill markers stroke" inkscape:transform-center-x="0.040306597" d="m 125.25487,104.1948 -0.87066,-2.94813 0.58274,-1.9299 3.60694,-1.404017 -0.18049,3.839167 z" id="path1057-2-9" inkscape:connector-curvature="0" sodipodi:nodetypes="cccccc" inkscape:transform-center-y="0.19705799" />
    <path style="opacity:1;fill:#b5ac84;fill-opacity:1;fill-rule:nonzero;stroke:none;stroke-width:0.6;stroke-linecap:round;stroke-linejoin:miter;stroke-miterlimit:4;stroke-dasharray:none;stroke-dashoffset:44.0315;stroke-opacity:1;paint-order:fill markers stroke" inkscape:transform-center-x="1.6107724e-06" inkscape:transform-center-y="-1.3005303e-06" d="m 125.78372,108.30772 -1.94129,-0.69674 3.04377,-6.08523 2.76694,-3.491947 7.21614,-3.226101 -2.54318,4.163936 1.6774,2.392122 -5.74302,2.86809 z" id="path1054" inkscape:connector-curvature="0" sodipodi:nodetypes="ccccccccc" />
    <path sodipodi:type="star" style="opacity:1;fill:#bfb096;fill-opacity:1;fill-rule:nonzero;stroke:none;stroke-width:0.6;stroke-linecap:round;stroke-linejoin:miter;stroke-miterlimit:4;stroke-dasharray:none;stroke-dashoffset:44.0315;stroke-opacity:1;paint-order:fill markers stroke" id="path1057" sodipodi:sides="6" sodipodi:cx="128.51501" sodipodi:cy="96.515907" sodipodi:r1="2.568996" sodipodi:r2="1.8165544" sodipodi:arg1="1.0471976" sodipodi:arg2="1.5707964" inkscape:flatsided="true" inkscape:rounded="-3.46945e-18" inkscape:randomized="0" d="m 129.79951,98.740723 -2.56899,0 -1.2845,-2.224816 1.2845,-2.224816 2.56899,1e-6 1.2845,2.224815 z" inkscape:transform-center-x="1.6196428e-06" inkscape:transform-center-y="-1.1979823e-06" />
    <path sodipodi:type="star" style="display:inline;opacity:1;fill:#c3b69f;fill-opacity:1;fill-rule:nonzero;stroke:none;stroke-width:0.787489;stroke-linecap:round;stroke-linejoin:miter;stroke-miterlimit:4;stroke-dasharray:none;stroke-dashoffset:44.0315;stroke-opacity:1;paint-order:fill markers stroke" id="path1004-2-05" sodipodi:sides="5" sodipodi:cx="109.8829" sodipodi:cy="98.317757" sodipodi:r1="3.6598639" sodipodi:r2="1.8299319" sodipodi:arg1="1.7334525" sodipodi:arg2="2.361771" inkscape:flatsided="true" inkscape:rounded="-3.46945e-18" inkscape:randomized="0" d="m 109.29022,101.92931 -3.02527,-3.059191 1.97461,-3.82254 4.24564,0.696735 0.64934,4.253145 z" inkscape:transform-center-x="0.39507895" inkscape:transform-center-y="0.053353185" transform="matrix(-0.13939448,0.74905538,-0.74905538,-0.13939448,220.06557,33.555055)" />
  </g>
  <g inkscape:groupmode="layer" id="layer2" inkscape:label="Layer 2" sodipodi:insensitive="true" style="display:inline" transform="translate(-84.991707,-53.631282)" />
</svg>
