<?xml version="1.0" encoding="UTF-8" standalone="no"?>
<!-- Created with Inkscape (http://www.inkscape.org/) -->

<svg width="217.71428mm" height="200.72119mm" viewBox="0 0 217.71428 200.72119" version="1.1" id="svg8" inkscape:version="1.3 (0e150ed6c4, 2023-07-21)" sodipodi:docname="страшно.svg" xmlns:inkscape="http://www.inkscape.org/namespaces/inkscape" xmlns:sodipodi="http://sodipodi.sourceforge.net/DTD/sodipodi-0.dtd" xmlns="http://www.w3.org/2000/svg" xmlns:svg="http://www.w3.org/2000/svg" xmlns:rdf="http://www.w3.org/1999/02/22-rdf-syntax-ns#" xmlns:cc="http://creativecommons.org/ns#" xmlns:dc="http://purl.org/dc/elements/1.1/">
  <defs id="defs2">
    <inkscape:path-effect effect="roughen" id="path-effect601" is_visible="true" method="segments" max_segment_size="0" segments="2" displace_x="10;1" displace_y="10;1" global_randomize="1;1821474685" handles="along" shift_nodes="true" fixed_displacement="false" spray_tool_friendly="false" lpeversion="0" />
    <inkscape:path-effect effect="roughen" id="path-effect400" is_visible="true" method="size" max_segment_size="0" segments="1" displace_x="9.5;1139467620" displace_y="10;1021527459" global_randomize="1;1" handles="along" shift_nodes="true" fixed_displacement="false" spray_tool_friendly="false" lpeversion="0" />
    <inkscape:path-effect effect="roughen" id="path-effect365" is_visible="true" method="segments" max_segment_size="10" segments="2" displace_x="10;587720489" displace_y="10;546231990" global_randomize="1;1068259807" handles="along" shift_nodes="true" fixed_displacement="false" spray_tool_friendly="false" lpeversion="0" />
    <inkscape:path-effect effect="roughen" id="path-effect361" is_visible="true" method="segments" max_segment_size="10" segments="2" displace_x="10;1" displace_y="10;1" global_randomize="1;1" handles="along" shift_nodes="true" fixed_displacement="false" spray_tool_friendly="false" lpeversion="0" />
    <inkscape:path-effect effect="roughen" id="path-effect357" is_visible="true" method="segments" max_segment_size="10" segments="2" displace_x="10;1" displace_y="10;1" global_randomize="1;1" handles="along" shift_nodes="true" fixed_displacement="false" spray_tool_friendly="false" lpeversion="0" />
    <inkscape:path-effect effect="roughen" id="path-effect355" is_visible="true" method="segments" max_segment_size="10" segments="2" displace_x="10;1626132284" displace_y="10;936383606" global_randomize="1;1" handles="along" shift_nodes="true" fixed_displacement="false" spray_tool_friendly="false" lpeversion="0" />
    <inkscape:path-effect effect="roughen" id="path-effect349" is_visible="true" method="segments" max_segment_size="10" segments="2" displace_x="10;894770432" displace_y="10;1785418949" global_randomize="1;1" handles="along" shift_nodes="true" fixed_displacement="false" spray_tool_friendly="false" lpeversion="0" />
    <inkscape:path-effect effect="roughen" id="path-effect347" is_visible="true" method="segments" max_segment_size="10" segments="2" displace_x="10;140063622" displace_y="10;831597307" global_randomize="1;1" handles="along" shift_nodes="true" fixed_displacement="false" spray_tool_friendly="false" lpeversion="0" />
    <inkscape:path-effect effect="roughen" id="path-effect345" is_visible="true" method="segments" max_segment_size="10" segments="2" displace_x="10;573331316" displace_y="10;1935739850" global_randomize="1;235617675" handles="along" shift_nodes="true" fixed_displacement="false" spray_tool_friendly="false" lpeversion="0" />
    <inkscape:path-effect effect="roughen" id="path-effect343" is_visible="true" method="segments" max_segment_size="10" segments="2" displace_x="10;207360758" displace_y="10;1916102434" global_randomize="1;1379851541" handles="along" shift_nodes="true" fixed_displacement="false" spray_tool_friendly="false" lpeversion="0" />
    <inkscape:path-effect effect="roughen" id="path-effect341" is_visible="true" method="segments" max_segment_size="10" segments="2" displace_x="10;850468825" displace_y="10;1660724369" global_randomize="1;352501129" handles="along" shift_nodes="true" fixed_displacement="true" spray_tool_friendly="true" lpeversion="0" />
    <inkscape:path-effect effect="roughen" id="path-effect311" is_visible="true" method="segments" max_segment_size="2" segments="2" displace_x="9.9;1236683948" displace_y="9.9;395359693" global_randomize="1;969555129" handles="rand" shift_nodes="true" fixed_displacement="true" spray_tool_friendly="true" lpeversion="0" />
    <inkscape:path-effect effect="bend_path" id="path-effect234" is_visible="true" bendpath="m 92.657135,110.53254 c 1.299064,-0.5934 10.185495,2.87374 12.628485,0" prop_scale="0.87163963" scale_y_rel="false" vertical="false" bendpath-nodetypes="cc" lpeversion="0" hide_knot="false" />
    <inkscape:path-effect effect="roughen" id="path-effect311-6" is_visible="true" method="segments" max_segment_size="2" segments="2" displace_x="9.9;1236683948" displace_y="9.9;395359693" global_randomize="1;693553174" handles="rand" shift_nodes="true" fixed_displacement="true" spray_tool_friendly="true" lpeversion="0" />
  </defs>
  <sodipodi:namedview id="base" pagecolor="#ffffff" bordercolor="#666666" borderopacity="1.0" inkscape:pageopacity="0.0" inkscape:pageshadow="2" inkscape:zoom="0.49497475" inkscape:cx="365.67522" inkscape:cy="143.44166" inkscape:document-units="mm" inkscape:current-layer="layer1" showgrid="false" inkscape:window-width="2467" inkscape:window-height="1413" inkscape:window-x="84" inkscape:window-y="-9" inkscape:window-maximized="1" inkscape:showpageshadow="2" inkscape:pagecheckerboard="0" inkscape:deskcolor="#d1d1d1" />
  <metadata id="metadata5">
    <rdf:RDF>
      <cc:Work rdf:about="">
        <dc:format>image/svg+xml</dc:format>
        <dc:type rdf:resource="http://purl.org/dc/dcmitype/StillImage" />
        <dc:title />
      </cc:Work>
    </rdf:RDF>
  </metadata>
  <g inkscape:label="Layer 1" inkscape:groupmode="layer" id="layer1" transform="translate(2.6306317,-58.58559)">
    <rect style="fill:#ba00ff;fill-opacity:1;stroke-width:0.264583" id="rect10" width="217.71428" height="200.72119" x="-2.6306317" y="58.58559" rx="0.25319752" ry="0.099146783" inkscape:export-xdpi="96" inkscape:export-ydpi="96" />
    <path style="fill:#0e232e;fill-rule:evenodd;stroke:#000000;stroke-width:0.264583" d="M 9.5183499,58.585244 C 5.3520258,62.290121 1.2981206,66.229729 -2.6307793,70.393212 V 116.42722 C 17.924427,87.773513 44.439202,67.560255 73.216785,58.585244 Z m 130.8643601,0 c 0.4193,0.132378 0.83873,0.263838 1.25781,0.401403 28.86522,9.475186 53.89166,29.928582 73.44306,57.313593 V 69.603802 c -3.61961,-3.858768 -7.35502,-7.535479 -11.20087,-11.018558 z M 107.15477,86.457217 C 62.708964,86.16736 20.406804,118.09292 -2.6307793,169.37121 v 89.79996 c 0,0.075 0.1129433,0.13545 0.2532148,0.13545 H 2.177196 C 1.9618117,248.25022 2.7474246,237.03869 4.6307931,225.9102 17.374658,150.60898 74.687556,104.05031 129.38907,121.40354 177.23,136.58033 210.02495,195.16411 212.6088,259.30662 h 2.22157 c 0.14027,0 0.25321,-0.0604 0.25321,-0.13545 v -89.47828 c -17.66735,-38.2173 -45.51482,-67.58158 -79.73518,-78.650198 -9.3862,-3.035964 -18.83748,-4.524464 -28.19363,-4.585475 z m -1.6862,60.733663 c -37.136962,0.20908 -71.84631,34.81552 -80.297946,86.23246 -1.41808,8.62712 -1.999848,17.31476 -1.819011,25.88328 h 19.597254 c -0.144531,-6.26477 0.251881,-12.61494 1.244886,-18.92464 7.15536,-45.46622 41.489479,-73.71953 74.392877,-63.9456 29.25115,8.68902 49.45175,43.91606 51.66661,82.87024 h 20.42821 c -2.4049,-51.09547 -28.67655,-97.57406 -66.89152,-109.37787 -6.10255,-1.88494 -12.24441,-2.77209 -18.32136,-2.73787 z m -0.39171,52.28013 c -20.331664,-0.0517 -39.421539,18.94706 -43.565819,47.24529 -0.614981,4.19925 -0.851892,8.4219 -0.746209,12.59032 H 76.50909 c -0.06305,-2.31237 0.04538,-4.65134 0.341067,-6.97981 2.62137,-20.64272 17.93358,-33.65018 32.725133,-29.97988 13.63893,3.3843 23.24647,19.11732 25.0176,36.95969 h 16.88786 c -2.00798,-27.82171 -16.62971,-52.75269 -37.65404,-58.61869 -2.91525,-0.81339 -5.84533,-1.20954 -8.74985,-1.21692 z m -1.25935,41.24113 c -6.807786,0.11724 -13.250901,6.67283 -14.049278,16.34054 -0.06206,0.75152 -0.08289,1.50462 -0.06615,2.25394 h 9.643853 c 0.270888,-2.31658 2.070035,-3.93361 3.760505,-4.00489 2.12299,-0.0895 3.83197,1.63967 4.78317,4.00489 h 12.02045 c -1.47018,-9.23372 -6.72206,-17.09205 -13.97382,-18.42024 -0.70621,-0.12933 -1.41448,-0.18637 -2.11873,-0.17424 z" id="path12" inkscape:connector-curvature="0" inkscape:export-xdpi="96" inkscape:export-ydpi="96" />
    <path style="fill:#0e232e;stroke:#000000;stroke-width:0.264583px;stroke-linecap:butt;stroke-linejoin:miter;stroke-opacity:1" d="m 66.334822,194.37946 c 0,-1.00793 0,-2.01587 0,-3.02381 0,-0.16377 -0.03649,-0.64647 0,-0.75595 0.535374,-1.07075 -0.07043,0.28173 0.188986,-0.75595 0.03417,-0.13666 0.161364,-0.23985 0.18899,-0.37798 0.03706,-0.18532 0,-0.37798 0,-0.56696 0,-0.44098 0,-0.88195 0,-1.32292 0,-1.5749 0,-3.1498 0,-4.7247 0,-0.62996 0,-1.25992 0,-1.88988 0,-0.25199 -0.03126,-0.50592 0,-0.75596 0.03221,-0.25773 0.152254,-0.49882 0.188986,-0.75595 0.02673,-0.18709 -0.03107,-0.38055 0,-0.56696 0.03275,-0.1965 0.156239,-0.37047 0.188989,-0.56697 0.03107,-0.18641 -0.03706,-0.38164 0,-0.56696 0.02763,-0.13813 0.144444,-0.24434 0.188987,-0.37798 0.01992,-0.0598 -0.01992,-0.12922 0,-0.18899 0.04454,-0.13363 0.144444,-0.24434 0.188989,-0.37797 0.04333,-0.12999 -0.05575,-0.45546 0,-0.56697 0.03984,-0.0797 0.149146,-0.1093 0.188989,-0.18898 0.02817,-0.0564 -0.02817,-0.13265 0,-0.18899 0.03984,-0.0797 0.149146,-0.1093 0.188987,-0.18899 0.02817,-0.0563 -0.02817,-0.13264 0,-0.18899 0.03984,-0.0797 0.149146,-0.1093 0.188989,-0.18899 0.02817,-0.0563 -0.02817,-0.13264 0,-0.18898 0.03984,-0.0797 0.149146,-0.10931 0.188987,-0.18899 0.05635,-0.11269 -0.05635,-0.26529 0,-0.37798 0.03984,-0.0797 0.149145,-0.1093 0.188989,-0.18899 0.05635,-0.11269 -0.08909,-0.28888 0,-0.37797 0.04454,-0.0445 0.144444,0.0445 0.188987,0 0.04454,-0.0445 -0.02817,-0.13264 0,-0.18899 0.03984,-0.0797 0.149148,-0.1093 0.188989,-0.18899 0.02817,-0.0563 -0.02817,-0.13264 0,-0.18899 0.393261,-0.78652 -0.01304,0.20204 0.377976,-0.18899 0.04454,-0.0445 -0.02817,-0.13264 0,-0.18898 0.39326,-0.78653 -0.01304,0.20203 0.377975,-0.18899 0.04455,-0.0446 -0.02817,-0.13264 0,-0.18899 0.393264,-0.78652 -0.01304,0.20204 0.377976,-0.18899 0.08909,-0.0891 -0.08909,-0.28888 0,-0.37797 0.04454,-0.0445 0.144444,0.0445 0.188989,0 0.04455,-0.0445 -0.04454,-0.14445 0,-0.18899 0.04455,-0.0446 0.144444,0.0445 0.18899,0 0.04454,-0.0446 -0.04455,-0.14445 0,-0.18899 0.04454,-0.0445 0.144441,0.0445 0.188986,0 0.04455,-0.0445 -0.04454,-0.14444 0,-0.18899 0.04455,-0.0445 0.144444,0.0446 0.188989,0 0.04455,-0.0445 -0.04454,-0.14444 0,-0.18899 0.04455,-0.0445 0.144442,0.0445 0.188987,0 0.04454,-0.0445 0,-0.12599 0,-0.18898 0.063,0 0.144444,0.0445 0.188989,0 0.04455,-0.0445 -0.04454,-0.14445 0,-0.18899 0.04455,-0.0446 0.144444,0.0445 0.188987,0 0.04454,-0.0446 -0.04454,-0.14444 0,-0.18899 0.04454,-0.0445 0.144444,0.0445 0.188989,0 0.04454,-0.0445 -0.04454,-0.14444 0,-0.18899 0.04454,-0.0445 0.144444,0.0446 0.188989,0 0.04454,-0.0445 -0.04454,-0.14444 0,-0.18899 0.04454,-0.0445 0.144442,0.0445 0.188987,0 0.04454,-0.0445 -0.04454,-0.14444 0,-0.18898 0.08909,-0.0891 0.288888,0.0891 0.377976,0 0.04454,-0.0445 -0.04455,-0.14445 0,-0.18899 0.05852,-0.0585 0.886423,0.0585 0.944941,0 0.04454,-0.0445 -0.04455,-0.14444 0,-0.18899 0.04454,-0.0446 0.125991,0 0.188989,0 0.314978,0 0.629959,0 0.944941,0 0.0694,0 0.748347,-0.008 0.755951,0 0.04454,0.0445 -0.04454,0.14444 0,0.18899 0.04454,0.0445 0.144444,-0.0445 0.188987,0 0.04454,0.0445 -0.04454,0.14444 0,0.18899 0.04454,0.0445 0.144444,-0.0445 0.188989,0 0.04454,0.0445 -0.04454,0.14444 0,0.18898 0.04454,0.0445 0.144444,-0.0445 0.188989,0 0.04454,0.0445 -0.04454,0.14445 0,0.18899 0.04454,0.0446 0.144442,-0.0445 0.188987,0 0.04454,0.0446 -0.04454,0.14445 0,0.18899 0.04454,0.0445 0.144444,-0.0445 0.188989,0 0.04454,0.0445 -0.04454,0.14444 0,0.18899 0.04454,0.0445 0.144441,-0.0446 0.188987,0 0.04454,0.0445 -0.02817,0.13264 0,0.18899 0.100594,0.20118 0.277384,0.17678 0.377975,0.37797 0.02817,0.0564 -0.04454,0.14445 0,0.18899 0.04455,0.0445 0.144444,-0.0445 0.18899,0 0.126367,0.12637 -0.126368,0.25161 0,0.37798 0.04454,0.0445 0.144444,-0.0445 0.188989,0 0.04454,0.0445 -0.04454,0.14444 0,0.18898 0.04454,0.0445 0.144441,-0.0445 0.188987,0 0.126367,0.12637 -0.126368,0.25161 0,0.37798 0.04454,0.0446 0.144443,-0.0445 0.188989,0 0.09449,0.0945 -0.0945,0.47247 0,0.56696 0.04454,0.0445 0.144441,-0.0445 0.188986,0 0.05171,0.0517 -0.05126,0.65343 0,0.75596 0.03984,0.0797 0.149146,0.1093 0.18899,0.18899 0.03417,0.0683 0,0.81349 0,0.94494 0,0.69295 0,1.38591 0,2.07886 0,0.13396 -0.02442,1.08507 0,1.13393 0.03984,0.0797 0.149145,0.10931 0.188986,0.18899 0.02876,0.0575 0,0.48185 0,0.56697 0,0.50396 0,1.00793 0,1.5119 0,0.0458 -0.0061,0.56089 0,0.56696 0.04454,0.0445 0.144444,-0.0445 0.188989,0 0.0061,0.006 0,0.52114 0,0.56697 0,1.38591 0,2.77183 0,4.15774 0,0.17035 -0.03965,0.82599 0,0.94494 0.04455,0.13363 0.144444,0.24434 0.18899,0.37797 0.03554,0.10663 0,0.44278 0,0.56697 0,0.31498 0,0.62996 0,0.94494 0,0.44097 0,0.88194 0,1.32292 0,0.12418 -0.03554,0.46033 0,0.56696 0.04454,0.13363 0.144441,0.24434 0.188986,0.37798 0.05976,0.17929 -0.05976,0.38767 0,0.56696 0.02817,0.0845 0.160817,0.10447 0.188989,0.18899 0.03984,0.11953 0,0.25198 0,0.37797 0,0.37798 0,0.75596 0,1.13393 0,0.12419 -0.03554,0.46034 0,0.56697 0.04455,0.13363 0.144442,0.24434 0.188987,0.37797 0.06694,0.20082 -0.06694,0.55513 0,0.75596 0.04454,0.13363 0.144444,0.24434 0.188989,0.37797 0.03756,0.11269 0,0.95083 0,1.13393 0,0.063 0,0.12599 0,0.18899 0,0.063 -0.04454,0.14444 0,0.18899 0.04454,0.0445 0.144444,-0.0445 0.188987,0 0.03864,0.0386 -0.03746,0.49203 0,0.56696 0.03984,0.0797 0.149148,0.10931 0.188989,0.18899 0.151265,0.30253 -0.151265,0.0754 0,0.37798 0.03984,0.0797 0.149146,0.1093 0.188989,0.18898 0.151641,0.30329 -0.151643,0.0747 0,0.37798 0.03984,0.0797 0.149146,0.1093 0.188987,0.18899 0.05634,0.11269 -0.08909,0.28888 0,0.37797 0.04454,0.0445 0.144444,-0.0445 0.188989,0 0.04454,0.0445 -0.02817,0.13265 0,0.18899 0.03984,0.0797 0.149146,0.10931 0.188987,0.18899 0.05635,0.11269 -0.05635,0.26529 0,0.37798 0.03984,0.0797 0.149145,0.1093 0.188989,0.18898 0.02817,0.0563 -0.02817,0.13265 0,0.18899 0.03984,0.0797 0.149145,0.10931 0.188986,0.18899 0.05635,0.11269 -0.08909,0.28889 0,0.37798 0.04455,0.0445 0.144444,-0.0445 0.18899,0 0.04454,0.0445 -0.02817,0.13264 0,0.18898 0.03984,0.0797 0.149145,0.10931 0.188989,0.18899 0.05634,0.1127 -0.08909,0.28889 0,0.37798 0.04454,0.0445 0.144441,-0.0446 0.188986,0 0.03864,0.0386 -0.03746,0.49203 0,0.56696 0.03984,0.0797 0.149146,0.10931 0.18899,0.18899 0.02817,0.0564 -0.04455,0.14445 0,0.18899 0.04454,0.0445 0.144441,-0.0445 0.188986,0 0.04455,0.0445 -0.04454,0.14444 0,0.18899 0.04455,0.0445 0.144444,-0.0446 0.188989,0 0.04455,0.0445 -0.04454,0.14444 0,0.18899 0.04455,0.0445 0.144444,-0.0445 0.188987,0 0.04454,0.0445 -0.04454,0.14444 0,0.18898 0.04454,0.0445 0.144444,-0.0445 0.188989,0 0.126368,0.12637 -0.126367,0.25161 0,0.37798 0.04455,0.0445 0.144444,-0.0445 0.18899,0 0.04454,0.0445 -0.04455,0.14444 0,0.18899 0.04454,0.0445 0.144441,-0.0446 0.188986,0 0.04454,0.0445 -0.04454,0.14444 0,0.18899 0.04454,0.0445 0.132644,-0.0282 0.188989,0 0.159369,0.0797 0.218607,0.29829 0.377976,0.37797 0.119227,0.0596 0.825714,-0.0596 0.944941,0 0.07968,0.0398 0.109302,0.14915 0.188987,0.18899 0.04969,0.0248 0.657127,0 0.755954,0 0.09882,0 0.706257,0.0248 0.755951,0 0.626796,-0.62679 -0.178181,0.0891 0.377976,-0.18899 0.07968,-0.0398 0.109305,-0.14914 0.188989,-0.18899 0.05634,-0.0282 0.125992,0 0.188987,0 0.063,-0.063 0.109305,-0.14914 0.188989,-0.18898 0.05635,-0.0282 0.144442,0.0445 0.188987,0 0.04454,-0.0445 -0.04454,-0.14445 0,-0.18899 0.04454,-0.0446 0.132643,0.0282 0.188989,0 0.626795,-0.6268 -0.178181,0.0891 0.377976,-0.18899 0.626795,-0.62679 -0.178178,0.0891 0.377976,-0.18899 0.07968,-0.0398 0.109304,-0.14914 0.188989,-0.18899 0.05635,-0.0282 0.132641,0.0282 0.188987,0 0.226787,-0.11339 0.34018,-0.45357 0.566965,-0.56696 0.05634,-0.0282 0.144444,0.0445 0.188989,0 0.04454,-0.0445 -0.04454,-0.14444 0,-0.18899 0.230182,-0.23018 0.422238,-0.0885 0.566962,-0.37797 0.130342,-0.26069 -0.228875,-0.16905 0.188989,-0.37798 0.05635,-0.0282 0.144444,0.0445 0.188987,0 0.04454,-0.0446 -0.02817,-0.13264 0,-0.18899 0.03984,-0.0797 0.149148,-0.1093 0.188989,-0.18899 0.02817,-0.0563 -0.04454,-0.14444 0,-0.18899 0.04454,-0.0445 0.144444,0.0445 0.188989,0 0.08909,-0.0891 -0.08909,-0.28888 0,-0.37797 0.04454,-0.0446 0.144442,0.0445 0.188987,0 0.04454,-0.0446 -0.02817,-0.13264 0,-0.18899 0.07968,-0.15937 0.298291,-0.21861 0.377976,-0.37798 0.02817,-0.0563 -0.02817,-0.13264 0,-0.18898 0.03984,-0.0797 0.149145,-0.10931 0.188989,-0.18899 0.02817,-0.0564 0,-0.12599 0,-0.18899 0.063,-0.063 0.149146,-0.1093 0.188987,-0.18899 0.02817,-0.0563 -0.02817,-0.13264 0,-0.18899 0.03984,-0.0797 0.149148,-0.1093 0.188989,-0.18898 0.02817,-0.0563 -0.02817,-0.13265 0,-0.18899 0.03984,-0.0797 0.149145,-0.10931 0.188989,-0.18899 0.05634,-0.11269 -0.08909,-0.28889 0,-0.37798 0.04454,-0.0445 0.144441,0.0445 0.188987,0 0.08909,-0.0891 -0.05635,-0.26528 0,-0.37797 0.03984,-0.0797 0.149145,-0.10931 0.188989,-0.18899 0.05635,-0.11269 -0.08909,-0.28889 0,-0.37798 0.04454,-0.0445 0.144441,0.0445 0.188986,0 0.08909,-0.0891 -0.05634,-0.26528 0,-0.37797 0.03984,-0.0797 0.149146,-0.10931 0.18899,-0.18899 0.05634,-0.11269 -0.05635,-0.26529 0,-0.37798 0.03984,-0.0797 0.149145,-0.1093 0.188986,-0.18899 0.02817,-0.0563 0,-0.12599 0,-0.18898 0.063,-0.063 0.149149,-0.10931 0.188989,-0.18899 0.05635,-0.11269 -0.05634,-0.26529 0,-0.37798 0.393261,-0.78652 -0.01304,0.20204 0.377976,-0.18899 0.04455,-0.0445 -0.02817,-0.13264 0,-0.18898 0.03984,-0.0797 0.149146,-0.10931 0.18899,-0.18899 0.05634,-0.11269 -0.08909,-0.28889 0,-0.37798 0.04454,-0.0445 0.160813,0.0564 0.188986,0 0.05635,-0.11269 -0.03984,-0.25845 0,-0.37797 0.05635,-0.16904 0.298294,-0.21861 0.377976,-0.37798 0.05635,-0.11269 -0.08909,-0.28889 0,-0.37798 0.04454,-0.0445 0.144444,0.0445 0.188989,0 0.04454,-0.0445 -0.02817,-0.13264 0,-0.18899 0.03984,-0.0797 0.149146,-0.1093 0.188989,-0.18898 0.07559,-0.15119 -0.0756,-0.41578 0,-0.56697 0.03984,-0.0797 0.149146,-0.1093 0.188987,-0.18899 0.0756,-0.15119 -0.07559,-0.41577 0,-0.56696 0.03984,-0.0797 0.160816,-0.10447 0.188989,-0.18899 0.09449,-0.28348 -0.0945,-0.66146 0,-0.94494 0.02817,-0.0845 0.160814,-0.10447 0.188987,-0.18899 0.03984,-0.11952 0,-0.25198 0,-0.37797 0,-0.10549 -0.02884,-0.85843 0,-0.94494 0.02817,-0.0845 0.160816,-0.10447 0.188989,-0.18899 0.09449,-0.28348 -0.09449,-0.66146 0,-0.94494 0.02817,-0.0845 0.149146,-0.1093 0.188987,-0.18899 0.05635,-0.11269 -0.05634,-0.26529 0,-0.37798 0.03984,-0.0797 0.149148,-0.1093 0.188989,-0.18898 0.05634,-0.11269 -0.05635,-0.26529 0,-0.37798 0.03984,-0.0797 0.13957,-0.11486 0.188989,-0.18899 0.358024,0.0215 0.125992,-0.44097 0.188987,-0.56696 0.03984,-0.0797 0.149145,-0.10931 0.188989,-0.18899 0.05635,-0.11269 -0.05635,-0.26528 0,-0.37798 0.03984,-0.0797 0.149145,-0.1093 0.188986,-0.18899 0.02817,-0.0563 0,-0.12599 0,-0.18898 0.063,-0.063 0.139571,-0.11486 0.18899,-0.18899 0.07814,-0.11721 0.144444,-0.24434 0.188986,-0.37798 0.01992,-0.0598 -0.04454,-0.14444 0,-0.18899 0.04454,-0.0445 0.144444,0.0445 0.188989,0 0.08909,-0.0891 -0.05634,-0.26528 0,-0.37797 0.113393,-0.22679 0.453573,-0.34018 0.566965,-0.56697 0.02817,-0.0563 -0.02817,-0.13264 0,-0.18898 0.03984,-0.0797 0.149146,-0.10931 0.188987,-0.18899 0.02817,-0.0564 -0.02817,-0.13264 0,-0.18899 0.03984,-0.0797 0.149146,-0.1093 0.188989,-0.18899 0.02817,-0.0563 -0.02817,-0.13264 0,-0.18899 0.393261,-0.78652 -0.01304,0.20204 0.377976,-0.18898 0.391023,-0.39103 -0.597535,0.0153 0.188989,-0.37798 0.05634,-0.0282 0.144442,0.0445 0.188987,0 0.04454,-0.0446 -0.02817,-0.13264 0,-0.18899 0.03984,-0.0797 0.149146,-0.1093 0.188989,-0.18899 0.02817,-0.0563 -0.02817,-0.13264 0,-0.18899 0.03984,-0.0797 0.149146,-0.1093 0.188987,-0.18898 0.02817,-0.0564 -0.04455,-0.14445 0,-0.18899 0.04454,-0.0446 0.144444,0.0445 0.188989,0 0.04454,-0.0446 -0.04454,-0.14445 0,-0.18899 0.04454,-0.0445 0.144444,0.0445 0.188987,0 0.04454,-0.0445 -0.02817,-0.13264 0,-0.18899 0.03984,-0.0797 0.149148,-0.1093 0.188989,-0.18899 0.02817,-0.0563 -0.04454,-0.14444 0,-0.18898 0.04454,-0.0445 0.132643,0.0282 0.188989,0 0.786522,-0.39327 -0.202036,0.013 0.188987,-0.37798 0.04454,-0.0445 0.144444,0.0445 0.188989,0 0.04454,-0.0445 -0.02817,-0.13264 0,-0.18899 0.393256,-0.78652 -0.01304,0.20204 0.377976,-0.18899 0.0445,-0.0445 -0.0446,-0.14444 0,-0.18898 0.0445,-0.0445 0.14444,0.0445 0.18899,0 0.0445,-0.0445 -0.0446,-0.14445 0,-0.18899 0.0445,-0.0446 0.14444,0.0445 0.18899,0 0.39102,-0.39103 -0.59754,0.0153 0.18898,-0.37798 0.0564,-0.0282 0.14445,0.0446 0.18899,0 0.39102,-0.39102 -0.59753,0.0153 0.18899,-0.37797 0.0563,-0.0282 0.13264,0.0282 0.18899,0 0.62679,-0.6268 -0.17818,0.0891 0.37797,-0.18899 0.0797,-0.0398 0.10931,-0.14915 0.18899,-0.18899 0.0563,-0.0282 0.13265,0.0282 0.18899,0 0.0797,-0.0398 0.1093,-0.14915 0.18899,-0.18899 0.11269,-0.0563 0.28889,0.0891 0.37797,0 0.0446,-0.0445 -0.0445,-0.14444 0,-0.18899 0.0891,-0.0891 0.26529,0.0564 0.37798,0 0.0797,-0.0398 0.1093,-0.14914 0.18899,-0.18899 0.0575,-0.0288 0.48185,0 0.56696,0 0.37798,0 0.75596,0 1.13393,0 0.063,0 0.14445,-0.0445 0.18899,0 0.0446,0.0445 -0.0445,0.14445 0,0.18899 0.0446,0.0445 0.14444,-0.0445 0.18899,0 0.0445,0.0445 0,0.126 0,0.18899 0.063,0 0.14444,-0.0445 0.18899,0 0.0445,0.0446 -0.0446,0.14444 0,0.18899 0.12636,0.12637 0.2516,-0.12637 0.37797,0 0.0446,0.0445 -0.0282,0.13264 0,0.18899 0.0797,0.15937 0.29829,0.21861 0.37798,0.37797 0.0282,0.0564 -0.0446,0.14445 0,0.18899 0.0445,0.0446 0.14444,-0.0445 0.18899,0 0.0445,0.0446 -0.0282,0.13265 0,0.18899 0.10059,0.20119 0.27738,0.17679 0.37797,0.37798 0.0282,0.0563 -0.0282,0.13264 0,0.18898 0.0398,0.0797 0.12599,0.126 0.18899,0.18899 0.063,0.063 0.14915,0.10931 0.18899,0.18899 0.0282,0.0563 -0.0282,0.13264 0,0.18899 0.0398,0.0797 0.14914,0.1093 0.18899,0.18899 0.0282,0.0563 -0.0282,0.13264 0,0.18898 0.0398,0.0797 0.16081,0.10447 0.18898,0.18899 2.7e-4,8e-4 -1.8e-4,0.56679 0,0.56697 0.0446,0.0445 0.14445,-0.0445 0.18899,0 0.0446,0.0445 -0.0282,0.13264 0,0.18898 0.0398,0.0797 0.14915,0.10931 0.18899,0.18899 0.0282,0.0564 -0.0282,0.13264 0,0.18899 0.0398,0.0797 0.14915,0.10931 0.18899,0.18899 0.15164,0.30328 -0.15164,0.0747 0,0.37798 0.0398,0.0797 0.14915,0.1093 0.18899,0.18898 0.0563,0.11269 -0.0891,0.28889 0,0.37798 0.0445,0.0445 0.14444,-0.0445 0.18899,0 0.0445,0.0445 -0.0282,0.13264 0,0.18899 0.0398,0.0797 0.14914,0.1093 0.18898,0.18899 0.0756,0.15119 -0.0756,0.41577 0,0.56696 0.0399,0.0797 0.14915,0.1093 0.18899,0.18899 0.0282,0.0563 0,0.12599 0,0.18899 0.063,0.063 0.14915,0.1093 0.18899,0.18898 0.10084,0.20169 -0.10084,0.17629 0,0.37798 0.0398,0.0797 0.12599,0.12599 0.18899,0.18899 0,0.12599 -0.0398,0.25845 0,0.37797 0.0282,0.0845 0.14914,0.10931 0.18899,0.18899 0.0563,0.1127 -0.0399,0.25845 0,0.37798 0.0445,0.13364 0.14444,0.24434 0.18898,0.37798 0.0399,0.11952 -0.0398,0.25845 0,0.37797 0.063,0.12599 0.126,0.25199 0.18899,0.37798 0,0.063 -0.0199,0.12922 0,0.18899 0.0446,0.13363 0.14445,0.24434 0.18899,0.37797 0.0398,0.11953 -0.0398,0.25845 0,0.37798 0.0445,0.13363 0.14444,0.24434 0.18899,0.37797 0.0199,0.0598 0,0.126 0,0.18899 0,0.10549 -0.0288,0.85843 0,0.94494 0.0282,0.0845 0.14914,0.10931 0.18899,0.18899 0.0288,0.0575 0,0.48185 0,0.56697 0,0.37797 0,0.75595 0,1.13392 0,0.063 0,0.126 0,0.18899 0,0.063 -0.0282,0.13265 0,0.18899 0.0398,0.0797 0.14914,0.1093 0.18898,0.18899 0.0574,0.11476 -0.0574,1.01917 0,1.13393 0.0399,0.0797 0.14915,0.1093 0.18899,0.18898 0.0594,0.11879 -0.0594,0.63717 0,0.75596 0.0398,0.0797 0.14915,0.1093 0.18899,0.18899 0.0244,0.0489 0,0.99997 0,1.13392 0,0.063 -0.0282,0.13265 0,0.18899 0.0398,0.0797 0.14915,0.10931 0.18899,0.18899 0.0606,0.1211 -0.0587,1.01656 0,1.13393 0.0398,0.0797 0.14914,0.1093 0.18899,0.18899 0.0594,0.11878 -0.0594,0.63716 0,0.75595 0.0398,0.0797 0.14914,0.1093 0.18898,0.18899 0.0756,0.15119 -0.0756,0.41577 0,0.56696 0.0399,0.0797 0.14915,0.10931 0.18899,0.18899 0.0756,0.15119 -0.0756,0.41577 0,0.56696 0.0398,0.0797 0.14915,0.10931 0.18899,0.18899 0.15127,0.30253 -0.15126,0.0754 0,0.37798 0.0398,0.0797 0.14915,0.1093 0.18899,0.18899 0.0756,0.15119 -0.0756,0.41577 0,0.56696 0.0398,0.0797 0.14915,0.1093 0.18899,0.18899 0.0563,0.11269 -0.0564,0.26528 0,0.37797 0.0398,0.0797 0.14914,0.10931 0.18899,0.18899 0.0756,0.15119 -0.0756,0.41578 0,0.56697 0.0398,0.0797 0.14914,0.1093 0.18898,0.18899 0.0282,0.0563 -0.0199,0.12922 0,0.18898 0.0446,0.13364 0.14445,0.24434 0.18899,0.37798 0.0199,0.0598 -0.0282,0.13264 0,0.18899 0.0398,0.0797 0.14915,0.1093 0.18899,0.18899 0.0282,0.0563 -0.0282,0.13264 0,0.18898 0.0398,0.0797 0.14915,0.10931 0.18899,0.18899 0.0282,0.0564 -0.0282,0.13265 0,0.18899 0.20219,0.40438 0.17579,-0.0264 0.37797,0.37798 0.0282,0.0563 -0.0445,0.14444 0,0.18898 0.0446,0.0445 0.14445,-0.0445 0.18899,0 0.0446,0.0445 -0.0445,0.14445 0,0.18899 0.0446,0.0445 0.14445,-0.0445 0.18899,0 0.0445,0.0445 -0.0445,0.14445 0,0.18899 0.0445,0.0445 0.13264,-0.0282 0.18899,0 0.0797,0.0398 0.1093,0.14915 0.18899,0.18899 0.0563,0.0282 0.14444,-0.0446 0.18898,0 0.0446,0.0445 -0.0445,0.14444 0,0.18899 0.008,0.008 0.68655,0 0.75596,0 0.50397,0 1.00793,0 1.5119,0 0.0851,0 0.50945,0.0288 0.56697,0 0.0797,-0.0399 0.1093,-0.14915 0.18898,-0.18899 0.0563,-0.0282 0.126,0 0.18899,0 0.063,-0.063 0.10931,-0.14915 0.18899,-0.18899 0.0564,-0.0282 0.13264,0.0282 0.18899,0 0.0797,-0.0398 0.1093,-0.14915 0.18899,-0.18899 0.11269,-0.0563 0.28888,0.0891 0.37797,0 0.0445,-0.0445 -0.0445,-0.14444 0,-0.18899 0.50397,0 -0.063,0.063 0.18899,-0.18898 0.0445,-0.0445 0.13264,0.0282 0.18899,0 0.0502,-0.0251 0.54187,-0.51679 0.56696,-0.56697 0.0282,-0.0563 -0.0445,-0.14444 0,-0.18899 0.39103,-0.39102 -0.0153,0.59754 0.37798,-0.18898 0.0282,-0.0563 -0.0282,-0.13265 0,-0.18899 0.093,-0.18597 0.66297,-0.56998 0.75595,-0.75595 0.0282,-0.0563 -0.0445,-0.14445 0,-0.18899 0.0446,-0.0445 0.14444,0.0445 0.18899,0 0.0446,-0.0445 -0.0282,-0.13264 0,-0.18899 0.0398,-0.0797 0.14915,-0.10931 0.18899,-0.18899 0.10109,-0.20219 -0.1011,-0.17579 0,-0.37798 0.0398,-0.0797 0.14914,-0.1093 0.18899,-0.18898 0.0563,-0.11269 -0.0563,-0.26529 0,-0.37798 0.0398,-0.0797 0.14914,-0.1093 0.18898,-0.18899 0.0282,-0.0563 -0.0445,-0.14444 0,-0.18899 0.0446,-0.0445 0.14445,0.0445 0.18899,0 0.0891,-0.0891 -0.0891,-0.28888 0,-0.37797 0.0446,-0.0446 0.14445,0.0445 0.18899,0 0.12637,-0.12637 -0.12637,-0.25161 0,-0.37798 0.0445,-0.0445 0.14444,0.0446 0.18899,0 0.0891,-0.0891 -0.0891,-0.28888 0,-0.37797 0.0445,-0.0445 0.14444,0.0445 0.18899,0 0.0891,-0.0891 -0.0563,-0.26529 0,-0.37798 0.0398,-0.0797 0.14914,-0.1093 0.18898,-0.18899 0.0375,-0.0749 -0.0386,-0.52833 0,-0.56696 0.0446,-0.0445 0.14445,0.0445 0.18899,0 0.0559,-0.0559 -0.0585,-0.63889 0,-0.75596 0.0398,-0.0797 0.16082,-0.10447 0.18899,-0.18898 0.0945,-0.28348 -0.0945,-0.66146 0,-0.94494 0.0282,-0.0845 0.16082,-0.10447 0.18899,-0.18899 0.0398,-0.11953 -0.0398,-0.25845 0,-0.37798 0.0282,-0.0845 0.16081,-0.10447 0.18899,-0.18899 0.0669,-0.20082 -0.0669,-0.55513 0,-0.75595 0.0445,-0.13363 0.14444,-0.24434 0.18898,-0.37797 0.0669,-0.20083 -0.0669,-0.55513 0,-0.75596 0.0446,-0.13363 0.15483,-0.24131 0.18899,-0.37797 0.0306,-0.12223 -0.0398,-0.25845 0,-0.37798 0.0282,-0.0845 0.16082,-0.10447 0.18899,-0.18899 0.0762,-0.22863 -0.0644,-0.8765 0,-1.13393 0.0342,-0.13665 0.14444,-0.24434 0.18899,-0.37797 0.0567,-0.17009 -0.0567,-0.39688 0,-0.56697 0.0282,-0.0845 0.16082,-0.10447 0.18899,-0.18898 0.0398,-0.11953 -0.0399,-0.25845 0,-0.37798 0.0282,-0.0845 0.16081,-0.10447 0.18899,-0.18899 0.0288,-0.0864 -0.0421,-0.67186 0,-0.75595 0.0398,-0.0797 0.16081,-0.10447 0.18898,-0.18899 0.0567,-0.17009 -0.0567,-0.39688 0,-0.56696 0.0446,-0.13364 0.14445,-0.24435 0.18899,-0.37798 0.0398,-0.11953 -0.0563,-0.26529 0,-0.37798 0.0398,-0.0797 0.14915,-0.1093 0.18899,-0.18898 0.0282,-0.0563 0,-0.126 0,-0.18899 0,-0.12599 -0.0398,-0.25845 0,-0.37798 0.0282,-0.0845 0.14915,-0.1093 0.18899,-0.18899 0.10135,-0.20269 -0.10135,-0.17528 0,-0.37797 0.0398,-0.0797 0.14914,-0.10931 0.18899,-0.18899 0.0845,-0.16904 -0.0845,-0.39793 0,-0.56697 0.0282,-0.0563 0.14444,0.0445 0.18898,0 0.0891,-0.0891 -0.0563,-0.26528 0,-0.37797 0.0399,-0.0797 0.14915,-0.10931 0.18899,-0.18899 0.0563,-0.11269 -0.0563,-0.26528 0,-0.37798 0.0399,-0.0797 0.14915,-0.1093 0.18899,-0.18898 0.1011,-0.20219 -0.10109,-0.17579 0,-0.37798 0.0398,-0.0797 0.14915,-0.1093 0.18899,-0.18899 0.0756,-0.15119 -0.0756,-0.41577 0,-0.56696 0.0398,-0.0797 0.12599,-0.12599 0.18899,-0.18899 0,-0.12599 -0.0399,-0.25845 0,-0.37798 0.0282,-0.0845 0.14914,-0.1093 0.18898,-0.18898 0.0282,-0.0563 -0.0282,-0.13265 0,-0.18899 0.0399,-0.0797 0.16082,-0.10447 0.18899,-0.18899 0.0398,-0.11953 0,-0.25198 0,-0.37798 0,-0.063 -0.0282,-0.13264 0,-0.18899 0.6268,-0.62679 -0.0891,0.17819 0.18899,-0.37797 0.0398,-0.0797 0.16082,-0.10447 0.18899,-0.18899 0.0398,-0.11953 -0.0563,-0.26528 0,-0.37798 0.0282,-0.0563 0.14444,0.0445 0.18899,0 0.0445,-0.0445 -0.0446,-0.14444 0,-0.18898 0.0445,-0.0445 0.14444,0.0445 0.18898,0 0.0945,-0.0945 -0.0945,-0.47247 0,-0.56697 0.50397,0 -0.063,0.063 0.18899,-0.18899 0.0446,-0.0445 0.14444,0.0445 0.18899,0 0.0446,-0.0445 -0.0446,-0.14444 0,-0.18898 0.0446,-0.0445 0.14444,0.0445 0.18899,0 0.0445,-0.0445 -0.0446,-0.14445 0,-0.18899 0.0891,-0.0891 0.28888,0.0891 0.37798,0 0.0445,-0.0446 -0.0446,-0.14444 0,-0.18899 0.006,-0.006 0.52112,0 0.56696,0 0.063,0 0.14444,-0.0445 0.18899,0 0.0445,0.0445 -0.0282,0.13264 0,0.18899 0.0251,0.0502 0.51678,0.54187 0.56696,0.56696 0.0564,0.0282 0.14445,-0.0445 0.18899,0 0.39102,0.39102 -0.59753,-0.0153 0.18899,0.37798 0.0563,0.0282 0.14444,-0.0446 0.18899,0 0.12636,0.12637 -0.12637,0.25161 0,0.37797 0.0445,0.0445 0.14444,-0.0445 0.18898,0 0.0445,0.0445 0,0.126 0,0.18899 0.063,0 0.14445,-0.0445 0.18899,0 0.0446,0.0445 -0.0282,0.13265 0,0.18899 0.0398,0.0797 0.14915,0.1093 0.18899,0.18899 0.0282,0.0563 -0.0282,0.13264 0,0.18899 0.62679,0.62679 -0.0891,-0.17818 0.18899,0.37797 0.0398,0.0797 0.14914,0.10931 0.18899,0.18899 0.0596,0.11923 -0.0596,0.82571 0,0.94494 0.0398,0.0797 0.14914,0.10931 0.18898,0.18899 0.0244,0.0489 0,0.99997 0,1.13393 0,0.063 -0.0282,0.13264 0,0.18899 0.0399,0.0797 0.14915,0.1093 0.18899,0.18898 0.0564,0.1127 -0.0563,0.26529 0,0.37798 0.0398,0.0797 0.14915,0.1093 0.18899,0.18899 0.0375,0.0749 -0.0386,0.52833 0,0.56696 0.0445,0.0445 0.14444,-0.0445 0.18899,0 0.0891,0.0891 -0.0564,0.26529 0,0.37798 0.0398,0.0797 0.14914,0.1093 0.18899,0.18899 0.0282,0.0563 -0.0282,0.13264 0,0.18899 0.0398,0.0797 0.14914,0.1093 0.18898,0.18898 0.0282,0.0564 -0.0445,0.14445 0,0.18899 0.0445,0.0446 0.14445,-0.0445 0.18899,0 0.0891,0.0891 -0.0891,0.28889 0,0.37798 0.0446,0.0445 0.14445,-0.0446 0.18899,0 0.12637,0.12637 -0.12637,0.25161 0,0.37797 0.0446,0.0445 0.14444,-0.0445 0.18899,0 0.0445,0.0445 -0.0282,0.13265 0,0.18899 0.0398,0.0797 0.14915,0.10931 0.18899,0.18899 0.13034,0.26068 -0.22888,0.16904 0.18899,0.37798 0.0563,0.0282 0.14444,-0.0445 0.18898,0 0.0891,0.0891 -0.0891,0.28888 0,0.37797 0.0445,0.0445 0.14445,-0.0445 0.18899,0 0.0446,0.0445 -0.0445,0.14445 0,0.18899 0.0446,0.0445 0.13265,-0.0282 0.18899,0 0.0797,0.0398 0.1093,0.14915 0.18899,0.18899 0.11269,0.0563 0.28889,-0.0891 0.37797,0 0.0445,0.0445 -0.0445,0.14444 0,0.18899 0.0891,0.0891 0.28889,-0.0891 0.37798,0 0.0445,0.0445 -0.0445,0.14444 0,0.18898 0.0891,0.0891 0.26529,-0.0563 0.37798,0 0.0797,0.0399 0.1093,0.14915 0.18898,0.18899 0.15119,0.0756 0.41578,-0.0756 0.56697,0 0.0797,0.0398 0.1093,0.14915 0.18899,0.18899 0.0683,0.0342 0.81349,0 0.94494,0 0.13395,0 1.08506,0.0244 1.13393,0 0.0502,-0.0251 0.54187,-0.51678 0.56696,-0.56696 0.0563,-0.11269 -0.0891,-0.28889 0,-0.37798 0.0445,-0.0445 0.14444,0.0445 0.18899,0 0.0445,-0.0445 -0.0282,-0.13264 0,-0.18899 0.0398,-0.0797 0.14914,-0.1093 0.18899,-0.18899 0.0563,-0.11268 -0.0563,-0.26528 0,-0.37797 0.0398,-0.0797 0.14914,-0.1093 0.18898,-0.18899 0.0513,-0.10252 -0.0517,-0.70424 0,-0.75595 0.0445,-0.0446 0.14445,0.0445 0.18899,0 0.0455,-0.0455 -0.0455,-0.71048 0,-0.75595 0.0446,-0.0445 0.14444,0.0445 0.18899,0 0.0455,-0.0455 -0.0455,-0.71048 0,-0.75596 0.0445,-0.0445 0.14444,0.0445 0.18899,0 0.0445,-0.0445 -0.0282,-0.13264 0,-0.18899 0.0398,-0.0797 0.14914,-0.1093 0.18899,-0.18898 0.0282,-0.0564 0,-0.12599 0,-0.18899 0.063,-0.063 0.14914,-0.10931 0.18898,-0.18899 0.0282,-0.0563 -0.0445,-0.14444 0,-0.18899 0.0445,-0.0445 0.14445,0.0445 0.18899,0 0.0891,-0.0891 -0.0891,-0.28888 0,-0.37797 0.0446,-0.0445 0.14445,0.0445 0.18899,0 0.0446,-0.0445 0,-0.12599 0,-0.18899 0.063,0 0.14444,0.0445 0.18899,0 0.0445,-0.0446 -0.0446,-0.14445 0,-0.18899 0.0445,-0.0445 0.14444,0.0445 0.18899,0 0.0891,-0.0891 -0.0891,-0.28889 0,-0.37798 0.0445,-0.0445 0.14444,0.0445 0.18899,0 0.0445,-0.0445 -0.0446,-0.14444 0,-0.18898 0.0445,-0.0445 0.14444,0.0445 0.18898,0 0.0445,-0.0445 -0.0445,-0.14445 0,-0.18899 0.0445,-0.0446 0.14445,0.0445 0.18899,0 0.0446,-0.0446 -0.0445,-0.14444 0,-0.18899 0.0446,-0.0445 0.14445,0.0445 0.18899,0 0.0445,-0.0445 -0.0445,-0.14444 0,-0.18899 0.0445,-0.0445 0.13264,0.0282 0.18899,0 0.0797,-0.0398 0.1093,-0.14914 0.18899,-0.18899 0.11269,-0.0563 0.28888,0.0891 0.37797,0 0.0446,-0.0445 -0.0445,-0.14444 0,-0.18898 0.009,-0.009 0.85583,0 0.94494,0 0.31498,0 0.62996,0 0.94494,0 0.063,0 0.14445,-0.0445 0.18899,0 0.0446,0.0445 -0.0445,0.14444 0,0.18898 0.0945,0.0945 0.47247,-0.0945 0.56697,0 0.0445,0.0445 -0.0446,0.14445 0,0.18899 0.0891,0.0891 0.28888,-0.0891 0.37797,0 0.0446,0.0446 -0.0445,0.14445 0,0.18899 0.0446,0.0445 0.14445,-0.0445 0.18899,0 0.0445,0.0445 -0.0445,0.14444 0,0.18899 0.0445,0.0445 0.12599,0 0.18899,0 0.44097,0 0.88194,0 1.32291,0 0.13396,0 1.08507,0.0244 1.13393,0 0.0797,-0.0398 0.10931,-0.14915 0.18899,-0.18899 0.0564,-0.0282 0.14444,0.0445 0.18899,0 0.0445,-0.0445 -0.0282,-0.13264 0,-0.18899 0.0398,-0.0797 0.14915,-0.1093 0.18899,-0.18899 0.0282,-0.0563 -0.0445,-0.14444 0,-0.18898 0.0445,-0.0445 0.14444,0.0445 0.18899,0 0.0445,-0.0445 -0.0446,-0.14445 0,-0.18899 0.0445,-0.0445 0.14444,0.0445 0.18898,0 0.0445,-0.0445 -0.0282,-0.13264 0,-0.18899 0.0399,-0.0797 0.14915,-0.1093 0.18899,-0.18899 0.0564,-0.11269 -0.0891,-0.28888 0,-0.37798 0.0446,-0.0445 0.14445,0.0445 0.18899,0 0.0891,-0.0891 -0.0563,-0.26528 0,-0.37797 0.0398,-0.0797 0.12599,-0.12599 0.18899,-0.18899" id="path396" inkscape:connector-curvature="0" inkscape:export-xdpi="96" inkscape:export-ydpi="96" />
  </g>
  <g inkscape:groupmode="layer" id="layer2" inkscape:label="Layer 2" style="display:inline" sodipodi:insensitive="true" transform="translate(2.6306317,-58.58559)">
    <circle style="fill:#d76cff;fill-rule:evenodd;stroke-width:0.264583" id="path39-9-9" cx="163.66367" cy="137.68303" r="44.979164" />
    <circle style="fill:#d76cff;fill-rule:evenodd;stroke-width:0.264583" id="path39-9" cx="48.569942" cy="136.54912" r="44.979164" />
    <circle style="fill:#d76cff;fill-rule:evenodd;stroke-width:0.264583" id="path39" cx="105.83334" cy="187.3869" r="44.979164" />
    <path style="fill:#9ade00;fill-rule:evenodd;stroke-width:0.264583" id="path43" inkscape:path-effect="#path-effect343" sodipodi:type="arc" sodipodi:cx="109.5186" sodipodi:cy="185.9695" sodipodi:rx="37.136162" sodipodi:ry="37.136162" d="m 148.202,189.58339 c 0,10.25487 1.46901,13.08322 -5.25132,19.80354 -6.72032,6.72033 -26.38293,11.15068 -36.6378,11.15068 -10.254866,0 -18.800649,-1.35792 -24.719542,-7.43623 -5.918894,-6.07831 -8.172386,-15.09814 -8.172386,-25.35301 0,-10.25487 11.066473,-19.60826 17.527168,-26.7733 6.460695,-7.16504 0.943786,-17.40693 11.19865,-17.40693 10.25487,0 20.03681,5.9238 28.60009,13.96042 8.56328,8.03663 17.45514,21.79996 17.45514,32.05483 z" />
    <path style="fill:#9ade00;fill-rule:evenodd;stroke-width:0.264583" id="path43-1" inkscape:path-effect="#path-effect347" sodipodi:type="arc" sodipodi:cx="52.255215" sodipodi:cy="135.13171" sodipodi:rx="37.136162" sodipodi:ry="37.136162" d="m 95.045216,136.51843 c 0,10.25487 -5.274618,16.64447 -11.994942,23.36479 -6.720323,6.72033 -25.341369,12.07063 -35.596237,12.07063 -10.254868,0 -18.497306,-0.35496 -24.017335,-6.99677 -5.520029,-6.64182 -6.142356,-13.2143 -6.142356,-23.46916 0,-10.25487 5.003164,-18.34339 11.179664,-26.65276 6.1765,-8.30937 11.114227,-16.904458 21.369095,-16.904458 10.254868,0 18.625212,11.069788 25.948563,17.806328 7.323351,6.73654 19.253548,10.52653 19.253548,20.7814 z" />
    <path style="fill:#9ade00;fill-rule:evenodd;stroke-width:0.264583" id="path43-1-3" inkscape:path-effect="#path-effect345" sodipodi:type="arc" sodipodi:cx="167.34895" sodipodi:cy="136.26562" sodipodi:rx="37.136162" sodipodi:ry="37.136162" d="m 206.96848,144.35843 c 0,10.25487 -4.88903,3.80786 -11.60935,10.52818 -6.72032,6.72033 -17.75592,18.37174 -28.01079,18.37174 -10.25487,0 -22.80581,-0.48152 -29.52598,-7.16599 -6.72017,-6.68446 -5.93034,-16.40414 -5.93034,-26.65901 0,-10.25487 4.56688,-16.69681 10.86739,-24.20906 6.30052,-7.51226 12.48989,-16.674661 22.74476,-16.674661 10.25486,0 18.49101,5.607111 25.67253,12.472391 7.18152,6.86528 15.79178,23.08154 15.79178,33.33641 z" />
    <path style="fill:#ffffff;fill-rule:evenodd;stroke-width:0.264583" id="path202" inkscape:path-effect="#path-effect355" sodipodi:type="arc" sodipodi:cx="50.995342" sodipodi:cy="137.00241" sodipodi:rx="27.081972" sodipodi:ry="27.081972" d="m 78.077314,138.24829 c 0,7.47848 2.523862,7.33995 -2.377011,12.24082 -4.900873,4.90087 -25.140146,13.22357 -32.618627,13.22357 -7.47848,0 -15.999804,-1.16831 -18.922261,-5.97626 -2.922456,-4.80794 6.675342,-11.55021 6.675342,-19.02869 0,-7.47848 1.750735,-13.28889 4.921262,-18.61609 3.170526,-5.3272 1.985697,-12.86896 9.464177,-12.86896 7.47848,0 11.569835,11.94758 17.914494,17.52289 6.34466,5.57531 14.942624,6.02424 14.942624,13.50272 z" />
    <path style="fill:#ffffff;fill-rule:evenodd;stroke-width:0.264583" id="path202-1" inkscape:path-effect="#path-effect357" sodipodi:type="arc" sodipodi:cx="167.72365" sodipodi:cy="137.30507" sodipodi:rx="27.081974" sodipodi:ry="27.081974" d="m 201.74318,140.05684 c 0,7.47848 -5.71329,5.356 -10.61416,10.25687 -4.90087,4.90087 -23.90678,12.52884 -31.38526,12.52884 -7.47848,0 -16.55851,3.97718 -19.46441,-0.53757 -2.9059,-4.51475 1.7466,-15.89362 1.7466,-23.3721 0,-7.47848 4.01423,-13.12852 8.56903,-18.43635 4.5548,-5.30783 5.01152,-12.86743 12.49,-12.86743 7.47848,0 10.79438,11.12848 16.85492,16.67785 6.06054,5.54938 21.80328,8.27141 21.80328,15.74989 z" />
    <path style="fill:#ffffff;fill-rule:evenodd;stroke-width:0.264583" d="m 57.259283,170.64464 c 1.852963,11.00489 12.735745,20.89936 20.752668,27.68061 8.016924,6.78124 11.994435,10.87407 23.154229,10.87624 11.15178,-0.0125 20.20264,1.80381 29.22949,-4.77175 9.02685,-6.57555 22.77578,-15.41933 24.6274,-26.41632 l -46.25662,-0.86472 z" id="path202-2" inkscape:connector-curvature="0" inkscape:path-effect="#path-effect349" inkscape:original-d="M 60.158453,171.88976 A 45.724021,45.724021 0 0 0 105.2389,210.0218 45.724021,45.724021 0 0 0 150.27698,171.88976 Z" />
    <path style="fill:#0e232e;fill-rule:evenodd;stroke-width:0.264583" id="path359" inkscape:path-effect="#path-effect361" sodipodi:type="arc" sodipodi:cx="49.703873" sodipodi:cy="142.02977" sodipodi:rx="13.229167" sodipodi:ry="13.229167" d="m 69.870601,144.78154 c 0,3.65313 -4.162763,-1.93255 -6.556771,0.46146 -2.394008,2.39401 -17.936713,8.47144 -21.589846,8.47144 -3.653134,0 -9.269958,5.52772 -9.668994,3.51983 -0.399036,-2.00788 5.803993,-9.92356 5.803993,-13.57669 0,-3.65314 2.463696,-5.83997 4.511635,-8.64094 2.047939,-2.80096 -0.958551,-8.81003 2.694583,-8.81003 3.653133,0 3.505835,9.57795 7.059512,12.62046 3.553676,3.04251 17.745888,2.30134 17.745888,5.95447 z" />
    <path style="fill:#0e232e;fill-rule:evenodd;stroke-width:0.264583" id="path363" inkscape:path-effect="#path-effect365" sodipodi:type="arc" sodipodi:cx="169.8058" sodipodi:cy="143.63615" sodipodi:rx="11.811756" sodipodi:ry="11.811756" d="m 185.39441,147.50563 c 0,3.26173 -4.18249,-0.36584 -6.31999,1.77167 -2.13751,2.13751 -12.86419,5.44872 -16.12592,5.44872 -3.26172,0 -6.31675,2.68042 -6.73993,0.72338 -0.42318,-1.95703 3.30525,-6.38325 3.30525,-9.64497 0,-3.26173 4.88928,-1.77993 6.64684,-4.45951 1.75756,-2.67957 -2.48402,-11.3174 0.77771,-11.3174 3.26173,0 0.0736,4.34027 2.92798,6.92699 2.85436,2.58673 15.52806,7.28939 15.52806,10.55112 z" transform="translate(-2.078869,-2.4568452)" />
    <rect style="fill:#0e232e;fill-opacity:1;fill-rule:evenodd;stroke-width:0.264583" id="rect402" width="16.135736" height="1.408601" x="-143.03152" y="135.29906" rx="0.25319752" ry="0" transform="rotate(-65.332198)" />
    <rect style="display:inline;fill:#0e232e;fill-opacity:1;fill-rule:evenodd;stroke-width:0.27585" id="rect402-2" width="25.943438" height="1.6271267" x="-219.79121" y="-26.124228" rx="0.24371804" ry="0.22226952" transform="matrix(-0.25957831,-0.96572206,-0.78669732,0.61733891,0,0)" />
    <rect style="display:inline;fill:#0e232e;fill-opacity:1;fill-rule:evenodd;stroke-width:0.273365" id="rect402-2-2" width="24.508547" height="1.5909667" x="-120.97543" y="136.17822" rx="0.24359027" ry="0.22188905" transform="matrix(0.27477572,-0.96150835,0.80457765,0.59384746,0,0)" />
    <rect style="display:inline;fill:#0e232e;fill-opacity:1;fill-rule:evenodd;stroke-width:0.288372" id="rect402-2-2-2" width="32.304447" height="1.8008658" x="-250.14622" y="-54.764771" rx="0.24181812" ry="0.21268137" transform="matrix(-0.20846521,-0.97802978,-0.71080049,0.70339368,0,0)" />
    <rect style="display:inline;fill:#0e232e;fill-opacity:1;fill-rule:evenodd;stroke-width:0.289442" id="rect402-2-2-2-2" width="32.810532" height="1.8155131" x="-98.776283" y="156.10934" rx="0.24181297" ry="0.21265334" transform="matrix(0.20524975,-0.97870963,0.70506581,0.70914188,0,0)" />
    <rect style="display:inline;fill:#0e232e;fill-opacity:1;fill-rule:evenodd;stroke-width:0.289442" id="rect402-2-2-2-2-2" width="32.810532" height="1.8155131" x="-264.7869" y="-71.19175" rx="0.24181297" ry="0.21265334" transform="matrix(-0.20524975,-0.97870963,-0.70506581,0.70914188,0,0)" />
    <rect style="display:inline;fill:#0e232e;fill-opacity:1;fill-rule:evenodd;stroke-width:0.285999" id="rect402-2-2-2-2-2-2" width="31.167215" height="1.7683581" x="-92.205383" y="170.17659" rx="0.2417507" ry="0.21234702" transform="matrix(0.2160717,-0.9763775,0.72386711,0.68993942,0,0)" />
    <rect style="display:inline;fill:#0e232e;fill-opacity:1;fill-rule:evenodd;stroke-width:0.285999" id="rect402-2-2-2-2-2-2-2" width="31.167215" height="1.7683582" x="240.44977" y="80.18354" rx="0.2417507" ry="0.21234702" transform="matrix(0.2160717,0.9763775,0.72386711,-0.68993943,0,0)" />
    <rect style="display:inline;fill:#0e232e;fill-opacity:1;fill-rule:evenodd;stroke-width:0.285999" id="rect402-2-2-2-2-2-2-2-2" width="31.167215" height="1.7683583" x="50.180351" y="-187.31053" rx="0.2417507" ry="0.21234702" transform="matrix(-0.2160717,0.9763775,-0.72386711,-0.68993943,0,0)" />
    <rect style="display:inline;fill:#0e232e;fill-opacity:1;fill-rule:evenodd;stroke-width:0.277113" id="rect402-2-2-2-2-2-2-2-2-2" width="26.64006" height="1.6451212" x="238.09386" y="81.323845" rx="0.24094975" ry="0.20957854" transform="matrix(0.25279047,0.96752105,0.77809247,-0.62814975,0,0)" />
    <rect style="display:inline;fill:#0e232e;fill-opacity:1;fill-rule:evenodd;stroke-width:0.277113" id="rect402-2-2-2-2-2-2-2-2-2-2" width="26.640059" height="1.6451212" x="56.90044" y="-196.11806" rx="0.24094975" ry="0.20957854" transform="matrix(-0.25279047,0.96752105,-0.77809246,-0.62814976,0,0)" />
    <rect style="display:inline;fill:#0e232e;fill-opacity:1;fill-rule:evenodd;stroke-width:0.264734" id="rect402-2-2-2-2-2-2-2-2-2-2-2" width="17.005732" height="1.4249578" x="221.13016" y="54.953545" rx="0.22524308" ry="0.19375321" transform="matrix(0.3960049,0.9182484,0.89831183,-0.43935847,0,0)" />
    <rect style="display:inline;fill:#0e232e;fill-opacity:1;fill-rule:evenodd;stroke-width:0.264734" id="rect402-2-2-2-2-2-2-2-2-2-2-2-2" width="17.005732" height="1.4249576" x="93.616333" y="-210.12228" rx="0.22524308" ry="0.19375321" transform="matrix(-0.39600489,0.9182484,-0.89831183,-0.43935846,0,0)" />
    <rect style="display:inline;fill:#0e232e;fill-opacity:1;fill-rule:evenodd;stroke-width:0.264669" id="rect402-27" width="16.787567" height="1.4207931" x="-195.5585" y="15.441074" rx="0.25304282" ry="0.25302243" transform="matrix(-0.40115124,-0.91601183,-0.90094481,0.43393368,0,0)" />
  </g>
</svg>
