<?xml version="1.0" encoding="UTF-8" standalone="no"?>
<!-- Created with Inkscape (http://www.inkscape.org/) -->

<svg width="154.06781mm" height="154.06781mm" viewBox="0 0 154.06781 154.06781" version="1.1" id="svg1" inkscape:version="1.3 (0e150ed6c4, 2023-07-21)" sodipodi:docname="bounds.svg" xmlns:inkscape="http://www.inkscape.org/namespaces/inkscape" xmlns:sodipodi="http://sodipodi.sourceforge.net/DTD/sodipodi-0.dtd" xmlns="http://www.w3.org/2000/svg" xmlns:svg="http://www.w3.org/2000/svg">
  <sodipodi:namedview id="namedview1" pagecolor="#ffffff" bordercolor="#666666" borderopacity="1.0" inkscape:showpageshadow="2" inkscape:pageopacity="0.0" inkscape:pagecheckerboard="0" inkscape:deskcolor="#d1d1d1" inkscape:document-units="mm" inkscape:zoom="1.1652357" inkscape:cx="278.91353" inkscape:cy="341.5618" inkscape:current-layer="layer1" showgrid="false" />
  <defs id="defs1" />
  <g inkscape:label="Layer 1" inkscape:groupmode="layer" id="layer1" transform="translate(-29.637054,-288.92435)">
    <rect style="font-variation-settings:'wdth' 87, 'wght' 700;fill:#000000;fill-opacity:1;stroke-width:2.393;stroke-linecap:square;paint-order:markers stroke fill" id="rect1" width="148.5" height="148.5" x="28.837156" y="49.272934" />
    <path style="font-variation-settings:'wdth' 87, 'wght' 700;fill:#000000;fill-opacity:1;stroke:#22ff00;stroke-width:1.333;stroke-linecap:square;stroke-dasharray:none;stroke-opacity:1;paint-order:fill markers stroke" d="m 122.8962,145.61501 -0.93096,1.72595 0.62122,15.57877 3.452,9.45289" id="path21" sodipodi:nodetypes="cccc" />
    <path id="rect19" style="font-variation-settings:'wdth' 87, 'wght' 700;stroke:#22ff00;stroke-width:1.333;stroke-linecap:square;paint-order:fill markers stroke" d="m 119.60608,66.07569 14.81593,0.681193 2.79493,15.166085 -13.29664,2.03403 z" sodipodi:nodetypes="ccccc" />
    <path style="font-variation-settings:'wdth' 87, 'wght' 700;fill:#000000;fill-opacity:1;stroke:#22ff00;stroke-width:1.333;stroke-linecap:square;stroke-dasharray:none;stroke-opacity:1;paint-order:fill markers stroke" d="M 130.01608,82.842665 123.72491,67.234861" id="path19" />
    <path id="rect17" style="font-variation-settings:'wdth' 87, 'wght' 700;stroke:#22ff00;stroke-width:1.333;stroke-linecap:square;paint-order:fill markers stroke" d="m 97.612105,63.773677 5.192455,-5.030555 7.11884,2.492343 -4.10172,14.948195 -4.35806,0.709054 z" sodipodi:nodetypes="cccccc" />
    <path id="rect10" style="font-variation-settings:'wdth' 87, 'wght' 700;stroke:#22ff00;stroke-width:1.333;stroke-linecap:square;paint-order:fill markers stroke" d="m 111.82182,113.98885 23.06715,19.98196 -2.96362,12.61563 -28.17638,-25.70608 -8.328677,-43.090909 16.763107,-5.507217 z" sodipodi:nodetypes="ccccccc" />
    <path style="font-variation-settings:'wdth' 87, 'wght' 700;fill:#000000;fill-opacity:1;stroke:#22ff00;stroke-width:1.333;stroke-linecap:square;stroke-dasharray:none;stroke-opacity:1;paint-order:fill markers stroke" d="m 56.483244,112.92828 -1.57602,8.68388 2.185547,10.50808 1.229378,1.19489" id="path20" sodipodi:nodetypes="cccc" />
    <ellipse style="font-variation-settings:'wdth' 87, 'wght' 700;fill:none;fill-opacity:1;stroke:#22ff00;stroke-width:2.57027;stroke-linecap:square;stroke-opacity:1;paint-order:markers stroke fill" id="path1" cx="103.08716" cy="123.52293" rx="60.465008" ry="59.995712" />
    <path id="rect20-2" style="font-variation-settings:'wdth' 87, 'wght' 700;stroke:#22ff00;stroke-width:1.333;stroke-linecap:square;paint-order:fill markers stroke" d="m 75.134313,86.845564 -12.395654,4.458701 -10.104352,9.201985 -2.432526,14.37008 16.204416,-0.89664 -18.587001,10.21418 -5.690445,2.00032 1.177966,-13.2961 4.57091,-14.230889 16.876786,-21.549171 z" sodipodi:nodetypes="ccccccccccc" />
    <path id="rect6" style="font-variation-settings:'wdth' 87, 'wght' 700;stroke:#22ff00;stroke-width:1.333;stroke-linecap:square;paint-order:fill markers stroke" d="m 93.341085,105.3562 6.063228,4.97196 25.926577,40.21444 6.88431,4.3455 -10.62231,8.09493 -28.698537,-48.62793 -17.702903,6.64404 -16.869301,12.31599 1.348007,-1.29505 -0.512571,-8.49449 -2.674341,-10.59731 z" sodipodi:nodetypes="cccccccccccc" />
    <path id="rect15" style="font-variation-settings:'wdth' 87, 'wght' 700;stroke:#22ff00;stroke-width:1.333;stroke-linecap:square;stroke-dasharray:none;paint-order:fill markers stroke" d="m 130.81291,79.007321 10.68568,-8.530667 3.51541,-8.142268 3.79905,0.04836 -0.78759,6.229762 -4.01684,4.350588 -7.87587,4.99004 2.16839,7.939665 -4.40381,0.629678 z" sodipodi:nodetypes="cccccccccc" />
    <path id="rect7" style="font-variation-settings:'wdth' 87, 'wght' 700;stroke:#22ff00;stroke-width:1.333;stroke-linecap:square;paint-order:fill markers stroke" d="m 327.90593,114.09976 36.83124,10.85748 31.51509,5.49115 -0.68119,5.22247 -33.20622,-3.88619 -38.31901,-6.3317 z" sodipodi:nodetypes="ccccccc" />
    <ellipse style="font-variation-settings:'wdth' 87, 'wght' 700;fill:#000000;fill-opacity:1;stroke:#22ff00;stroke-width:1.15956;stroke-linecap:square;stroke-dasharray:none;stroke-opacity:1;paint-order:fill markers stroke" id="path3-5" cx="103.77183" cy="115.71698" rx="14.091538" ry="14.179749" />
    <path id="rect3" style="font-variation-settings:'wdth' 87, 'wght' 700;stroke:#22ff00;stroke-width:1.333;stroke-linecap:square;stroke-opacity:1;paint-order:fill markers stroke" d="m 125.22003,127.77512 6.98222,-2.21387 2.89507,8.87378 -2.89507,1.17381 z" sodipodi:nodetypes="ccccc" />
    <path id="path3-3" style="font-variation-settings:'wdth' 87, 'wght' 700;stroke:#22ff00;stroke-width:1.01528;stroke-linecap:square;stroke-opacity:1;paint-order:fill markers stroke" inkscape:transform-center-y="1.0925482" d="m 97.454171,115.25711 15.665119,1.79736 -12.08011,10.26809 -14.597021,-2.05147 z" inkscape:transform-center-x="-0.29880475" sodipodi:nodetypes="ccccc" />
    <path style="font-variation-settings:'wdth' 87, 'wght' 700;fill:#000000;fill-opacity:1;stroke:#22ff00;stroke-width:1.01528;stroke-linecap:square;stroke-dasharray:none;stroke-opacity:1;paint-order:fill markers stroke" d="m 111.90588,117.59738 -24.339811,7.27231" id="path3" sodipodi:nodetypes="cc" />
    <path id="path2" style="font-variation-settings:'wdth' 87, 'wght' 700;stroke:#22ff00;stroke-width:5.03811;stroke-linecap:square;stroke-opacity:1;paint-order:fill markers stroke" inkscape:transform-center-x="-1.8390411" inkscape:transform-center-y="-1.8390432" d="m 408.74448,133.1441 a 61.225719,61.608979 0 0 0 -61.22461,61.60937 61.225719,61.608979 0 0 0 7.28125,28.81641 L 337.91049,213.3023 v 78.70313 l 89.85938,-24.07813 -19.02344,-11.56445 a 61.225719,61.608979 0 0 0 61.22461,-61.60938 61.225719,61.608979 0 0 0 -61.22656,-61.60937 z" transform="matrix(0.26458333,0,0,0.26458333,21.344037,54.836009)" />
    <path id="path3-3-3" style="font-variation-settings:'wdth' 87, 'wght' 700;stroke:#22ff00;stroke-width:1.01528;stroke-linecap:square;stroke-opacity:1;paint-order:fill markers stroke" inkscape:transform-center-y="1.0925482" d="m 129.26166,104.57813 15.66512,1.79736 -12.08011,10.26809 -14.59702,-2.05147 z" inkscape:transform-center-x="-0.29880475" sodipodi:nodetypes="ccccc" />
    <path style="font-variation-settings:'wdth' 87, 'wght' 700;fill:#000000;fill-opacity:1;stroke:#22ff00;stroke-width:1.01528;stroke-linecap:square;stroke-dasharray:none;stroke-opacity:1;paint-order:fill markers stroke" d="m 143.71337,106.9184 -24.33981,7.27231" id="path3-1" sodipodi:nodetypes="cc" />
    <path style="font-variation-settings:'wdth' 87, 'wght' 700;fill:#000000;fill-opacity:1;stroke:#22ff00;stroke-width:1.333;stroke-linecap:square;stroke-dasharray:none;stroke-opacity:1;paint-order:fill markers stroke" d="m 101.14292,121.43678 1.30562,1.10694 -0.0426,-1.57526" id="path4" />
    <path style="font-variation-settings:'wdth' 87, 'wght' 700;fill:#000000;fill-opacity:1;stroke:#22ff00;stroke-width:1.333;stroke-linecap:square;stroke-dasharray:none;stroke-opacity:1;paint-order:fill markers stroke" d="m 134.69578,110.12508 1.30562,1.10694 -0.0426,-1.57526" id="path4-2" />
    <path id="rect20" style="font-variation-settings:'wdth' 87, 'wght' 700;stroke:#22ff00;stroke-width:1.333;stroke-linecap:square;paint-order:fill markers stroke" d="m 71.514584,160.9402 11.649811,8.86822 12.592431,6.59206 14.073214,1.1407 -12.580034,-14.87004 21.669144,11.72658 4.62466,5.08732 -12.46647,3.30952 -16.499029,-0.32249 -25.277572,-8.40663 z" sodipodi:nodetypes="ccccccccccc" />
    <path id="rect5" style="font-variation-settings:'wdth' 87, 'wght' 700;stroke:#22ff00;stroke-width:1.333;stroke-linecap:square;paint-order:fill markers stroke" d="m 66.963355,135.00886 61.345465,17.40649 6.21626,4.99242 -7.45411,8.77673 -51.9256,-23.03096 37.81738,25.78217 -6.48661,3.38523 -6.25154,4.28023 -4.349949,-6.13798 -35.004725,-26.53976 z" sodipodi:nodetypes="ccccccccccc" />
    <path id="rect4" style="font-variation-settings:'wdth' 87, 'wght' 700;stroke:#22ff00;stroke-width:1.333;stroke-linecap:square;paint-order:fill markers stroke" d="m 130.67367,135.55214 -6.36573,-4.44426 11.66455,-2.34605 2.42697,6.74128 5.16246,3.27982 0.36047,17.24956 -17.87952,16.71947 0.98368,-1.14236 1.2906,-10.97307 -4.64772,-14.74759 8.00273,2.1403 -3.54243,-8.52561 z" sodipodi:nodetypes="ccccccccccccc" />
    <path id="rect8" style="font-variation-settings:'wdth' 87, 'wght' 700;stroke:#22ff00;stroke-width:1.333;stroke-linecap:square;paint-order:fill markers stroke" d="m 322.6872,115.96527 4.2341,3.18946 -1.25846,3.15261 -2.77335,2.68525 12.66539,27.65134 -3.39079,4.29389 -10.98632,-26.94981 9.20404,31.35803 -12.44422,-3.32826 -3.84028,-21.66571 2.70006,-21.135 z" sodipodi:nodetypes="cccccccccccc" />
    <path id="rect11" style="font-variation-settings:'wdth' 87, 'wght' 700;stroke:#22ff00;stroke-width:1.333;stroke-linecap:square;paint-order:fill markers stroke" d="m 216.61927,65.451258 29.34804,12.431766 -0.28383,3.349198 -18.53581,-3.426055 -15.58058,-5.372684 -0.77173,-7.200726 z" sodipodi:nodetypes="ccccccc" />
    <path id="rect12" style="font-variation-settings:'wdth' 87, 'wght' 700;stroke:#22ff00;stroke-width:1.333;stroke-linecap:square;paint-order:fill markers stroke" d="m 220.9209,65.162213 5.94815,0.767805 9.89799,5.618898 9.995,3.495806 1.19209,6.811926 -14.00931,-5.116745 -13.67472,-5.242224 z" sodipodi:nodetypes="cccccccc" />
    <path id="rect9" style="font-variation-settings:'wdth' 87, 'wght' 700;stroke:#22ff00;stroke-width:1.333;stroke-linecap:square;paint-order:fill markers stroke" d="m 155.14975,116.10962 -15.22661,-36.023023 -12.90804,2.370464 19.63485,31.473189 -6.72459,18.30731 -4.3273,2.79115 0.99012,6.46997 7.07633,-0.52684 z" sodipodi:nodetypes="ccccccccc" />
    <path id="rect13" style="font-variation-settings:'wdth' 87, 'wght' 700;stroke:#22ff00;stroke-width:1.333;stroke-linecap:square;paint-order:fill markers stroke" d="m 236.03326,63.918577 2.82414,-4.233202 8.30201,3.154647 2.83624,7.117344 1.76181,10.5369 -4.93865,0.624426 -2.09827,-10.720408 z" sodipodi:nodetypes="cccccccc" />
    <path id="rect14" style="font-variation-settings:'wdth' 87, 'wght' 700;stroke:#22ff00;stroke-width:1.333;stroke-linecap:square;paint-order:fill markers stroke" d="m 121.16262,61.713869 6.53988,1.362626 2.42903,2.598973 1.11816,-2.971851 6.36127,3.577296 1.64157,2.776498 -2.93472,8.642619 -5.5049,1.307291 -3.14701,-7.125174 -2.61472,-4.673283 -5.18178,-2.679373 z" sodipodi:nodetypes="cccccccccccc" />
    <path style="font-variation-settings:'wdth' 87, 'wght' 700;fill:#000000;fill-opacity:1;stroke:#22ff00;stroke-width:1.333;stroke-linecap:square;stroke-dasharray:none;stroke-opacity:1;paint-order:fill markers stroke" d="m 127.81307,63.484394 5.30527,5.286976 0.11338,2.944304" id="path14" sodipodi:nodetypes="ccc" />
    <path id="rect18" style="font-variation-settings:'wdth' 87, 'wght' 700;stroke:#22ff00;stroke-width:1.333;stroke-linecap:square;stroke-dasharray:none;paint-order:fill markers stroke" d="m 111.50074,65.99217 5.25329,-3.656406 4.00307,-4.302274 -1.93464,-5.439982 -2.89783,2.150335 -1.47211,5.048633 -6.35759,2.766202 z" sodipodi:nodetypes="cccccccc" inkscape:transform-center-x="-2.4158478" inkscape:transform-center-y="-2.0035892" />
    <path id="rect16-3" style="font-variation-settings:'wdth' 87, 'wght' 700;stroke:#22ff00;stroke-width:1.333;stroke-linecap:square;paint-order:fill markers stroke" d="m 105.30413,60.468071 4.39201,-3.303152 2.79157,2.764371 3.27936,8.469355 3.48356,9.500303 -7.32875,2.465252 -1.35087,-9.808868 z" sodipodi:nodetypes="cccccccc" />
    <path id="rect16" style="font-variation-settings:'wdth' 87, 'wght' 700;stroke:#22ff00;stroke-width:1.333;stroke-linecap:square;paint-order:fill markers stroke" d="m 101.26845,59.934346 3.07223,-2.382447 2.61032,2.063539 2.23733,12.440177 -0.46426,7.422785 -7.72753,0.270921 1.76283,-9.355701 z" sodipodi:nodetypes="cccccccc" />
    <path style="font-variation-settings:'wdth' 87, 'wght' 700;fill:#000000;fill-opacity:1;stroke:#22ff00;stroke-width:1.333;stroke-linecap:square;stroke-dasharray:none;stroke-opacity:1;paint-order:fill markers stroke" d="m 115.44163,130.44674 5.90053,-7.74695" id="path22" />
    <path id="rect22" style="font-variation-settings:'wdth' 87, 'wght' 700;stroke-width:1.333;stroke-linecap:square;paint-order:fill markers stroke" d="m 133.26364,142.56892 0.19047,-8.86794 2.73973,-0.98635 3.73538,3.89329 3.46348,2.08638 -0.49554,7.78824 -9.63352,-2.30803 z" sodipodi:nodetypes="cccccccc" />
    <rect style="font-variation-settings:'wdth' 87, 'wght' 700;fill:#000000;fill-opacity:1;stroke-width:2.48272;stroke-linecap:square;paint-order:markers stroke fill" id="rect1-8-6" width="154.06781" height="154.06781" x="29.637054" y="288.92435" inkscape:export-filename="..\..\Users\Ivan\Desktop\яичко.png" inkscape:export-xdpi="494.58743" inkscape:export-ydpi="494.58743" />
    <path style="font-variation-settings:'wdth' 87, 'wght' 700;fill:#000000;fill-opacity:1;stroke:#22ff00;stroke-width:1.333;stroke-linecap:square;stroke-dasharray:none;stroke-opacity:1;paint-order:fill markers stroke" d="m 130.29434,393.28202 -0.0763,-0.30529 1.50846,18.46237 5.4491,6.32013" id="path21-9" sodipodi:nodetypes="cccc" inkscape:transform-center-x="-23.762718" inkscape:transform-center-y="38.084023" />
    <path id="rect18-3" style="font-variation-settings:'wdth' 87, 'wght' 700;stroke:#22ff00;stroke-width:1.333;stroke-linecap:square;stroke-dasharray:none;paint-order:fill markers stroke" d="m 110.4873,304.52925 5.78356,-2.74168 5.72274,-1.3358 3.75931,4.38221 -3.30608,1.44609 -5.11268,-1.23142 -5.55983,4.14235 z" sodipodi:nodetypes="cccccccc" inkscape:transform-center-x="-11.449138" inkscape:transform-center-y="-61.110688" />
    <path id="rect19-3" style="font-variation-settings:'wdth' 87, 'wght' 700;stroke:#22ff00;stroke-width:1.333;stroke-linecap:square;paint-order:fill markers stroke" d="m 123.18989,308.51101 14.81593,0.68119 2.79493,15.16609 -13.29664,2.03403 z" sodipodi:nodetypes="ccccc" inkscape:transform-center-x="-25.324353" inkscape:transform-center-y="-48.480408" />
    <path style="font-variation-settings:'wdth' 87, 'wght' 700;fill:#000000;fill-opacity:1;stroke:#22ff00;stroke-width:1.333;stroke-linecap:square;stroke-dasharray:none;stroke-opacity:1;paint-order:fill markers stroke" d="m 133.59989,325.27798 -6.29117,-15.6078" id="path19-6" inkscape:transform-center-x="-23.783338" inkscape:transform-center-y="-48.457993" />
    <path id="rect17-7" style="font-variation-settings:'wdth' 87, 'wght' 700;stroke:#22ff00;stroke-width:1.333;stroke-linecap:square;paint-order:fill markers stroke" d="m 101.19592,306.209 5.19245,-5.03056 7.11884,2.49234 -4.10172,14.9482 -4.35806,0.70905 z" sodipodi:nodetypes="cccccc" inkscape:transform-center-x="-0.68059791" inkscape:transform-center-y="-55.678838" />
    <path id="rect10-8" style="font-variation-settings:'wdth' 87, 'wght' 700;stroke:#22ff00;stroke-width:1.333;stroke-linecap:square;paint-order:fill markers stroke" d="m 119.2301,358.35422 27.89902,23.25373 -3.71445,6.90291 -29.17591,-24.10354 -12.50516,-44.66423 14.03361,-5.02554 z" sodipodi:nodetypes="ccccccc" inkscape:transform-center-x="-16.395645" inkscape:transform-center-y="-14.317867" />
    <path style="font-variation-settings:'wdth' 87, 'wght' 700;fill:#000000;fill-opacity:1;stroke:#22ff00;stroke-width:1.333;stroke-linecap:square;stroke-dasharray:none;stroke-opacity:1;paint-order:fill markers stroke" d="m 59.705798,355.5643 -1.214763,8.48318 2.185547,10.50808 1.229378,1.19489" id="path20-6" sodipodi:nodetypes="cccc" inkscape:transform-center-x="46.47247" inkscape:transform-center-y="-0.27469717" />
    <path id="rect20-2-2" style="font-variation-settings:'wdth' 87, 'wght' 700;stroke:#22ff00;stroke-width:1.333;stroke-linecap:square;paint-order:fill markers stroke" d="m 78.718124,329.28088 -12.395654,4.4587 -10.104352,9.20199 -2.432526,14.37008 16.204416,-0.89664 -18.587001,10.21418 -4.927791,1.43836 0.415312,-12.73414 4.57091,-14.23089 16.876786,-21.54917 z" sodipodi:nodetypes="ccccccccccc" inkscape:transform-center-x="44.074298" inkscape:transform-center-y="-22.121623" />
    <path id="rect20-2-2-9" style="font-variation-settings:'wdth' 87, 'wght' 700;stroke:#22ff00;stroke-width:1.333;stroke-linecap:square;paint-order:fill markers stroke" d="m 73.558459,334.55903 -13.278726,4.69954 -4.243962,9.60339 -0.7868,8.91108 13.996735,-0.89664 -17.46309,12.2613 -5.20877,-1.21085 0.375177,-12.17219 4.370212,-14.07033 11.859328,-16.85283 z" sodipodi:nodetypes="ccccccccccc" inkscape:transform-center-x="46.604815" inkscape:transform-center-y="-18.947472" />
    <path id="rect20-3" style="font-variation-settings:'wdth' 87, 'wght' 700;stroke:#22ff00;stroke-width:1.333;stroke-linecap:square;paint-order:fill markers stroke" d="m 75.098395,403.37552 11.649811,8.86822 12.592431,6.59206 14.073213,1.1407 -12.58003,-14.87004 21.66914,11.72658 4.62466,5.08732 -12.46647,3.30952 -16.499028,-0.32249 -9.360079,-1.73318 -16.198471,-8.2389 z" sodipodi:nodetypes="cccccccccccc" inkscape:transform-center-x="6.8053712" inkscape:transform-center-y="48.370629" />
    <ellipse style="font-variation-settings:'wdth' 87, 'wght' 700;fill:none;fill-opacity:1;stroke:#22ff00;stroke-width:2.57027;stroke-linecap:square;stroke-opacity:1;paint-order:markers stroke fill" id="path1-7" cx="106.67097" cy="365.95825" rx="60.465008" ry="59.995712" inkscape:transform-center-y="0.026179787" />
    <path id="rect6-5" style="font-variation-settings:'wdth' 87, 'wght' 700;stroke:#22ff00;stroke-width:1.333;stroke-linecap:square;paint-order:fill markers stroke" d="m 110.29831,355.26548 6.79981,6.20974 17.57504,37.89751 6.68893,4.08142 -4.36254,5.98445 -4.95917,-3.68037 -23.23924,-37.70124 -28.832493,-2.70668 -18.062687,10.4001 1.348007,-1.29505 -0.512571,-8.49449 -2.674341,-10.59731 z" sodipodi:nodetypes="ccccccccccccc" inkscape:transform-center-x="7.9148247" inkscape:transform-center-y="12.633658" />
    <path id="rect24" style="font-variation-settings:'wdth' 87, 'wght' 700;stroke:#22ff00;stroke-width:1.333;stroke-linecap:square;paint-order:fill markers stroke" d="m 105.47133,337.75803 25.1908,-11.88995 19.92024,9.03983 -2.04094,2.81482 -17.29831,-6.43603 -22.17419,9.68183 -2.68934,17.11174 -4.76835,-0.45413 z" sodipodi:nodetypes="ccccccccc" inkscape:transform-center-x="-19.425838" inkscape:transform-center-y="-23.957898" />
    <path id="rect23" style="font-variation-settings:'wdth' 87, 'wght' 700;stroke:#22ff00;stroke-width:1.333;stroke-linecap:square;paint-order:fill markers stroke" d="m 96.216451,360.15356 2.764137,-1.94335 -0.27385,-3.79894 3.127892,-2.51455 9.46674,21.96007 -4.26394,2.1775 -2.58088,-3.49164 -2.7041,1.61214 z" sodipodi:nodetypes="ccccccccc" inkscape:transform-center-x="2.9120566" inkscape:transform-center-y="-1.9665672" />
    <path id="rect15-6" style="font-variation-settings:'wdth' 87, 'wght' 700;stroke:#22ff00;stroke-width:1.333;stroke-linecap:square;stroke-dasharray:none;paint-order:fill markers stroke" d="m 124.7466,304.14936 -1.29346,2.81533 5.1816,2.67942 2.61482,4.67362 3.1471,7.12514 3.08457,7.51479 4.40386,-0.62942 -2.16834,-7.93957 7.87549,-4.99039 4.01681,-4.35064 0.78806,-6.22959 -3.79925,-0.0486 -3.51555,8.14266 -3.74241,2.98741 1.49655,-4.40696 -1.64176,-2.77658 -6.36137,-3.57704 -1.11776,2.97191 -2.42931,-2.59881 z" inkscape:transform-center-x="-31.254158" inkscape:transform-center-y="-49.378563" />
    <ellipse style="font-variation-settings:'wdth' 87, 'wght' 700;fill:#000000;fill-opacity:1;stroke:#22ff00;stroke-width:1.15956;stroke-linecap:square;stroke-dasharray:none;stroke-opacity:1;paint-order:fill markers stroke" id="path3-5-1" cx="87.589745" cy="368.93457" rx="14.091538" ry="14.179749" transform="rotate(-4.387021)" inkscape:transform-center-x="-8.8831228" inkscape:transform-center-y="-4.7784583" />
    <path id="rect3-6" style="font-variation-settings:'wdth' 87, 'wght' 700;stroke:#22ff00;stroke-width:1.333;stroke-linecap:square;stroke-opacity:1;paint-order:fill markers stroke" d="m 139.05391,371.36545 2.59173,-2.96854 7.76606,8.85339 -2.7968,1.39182 z" sodipodi:nodetypes="ccccc" inkscape:transform-center-x="-37.561839" inkscape:transform-center-y="7.587443" />
    <path id="path3-3-2" style="font-variation-settings:'wdth' 87, 'wght' 700;stroke:#22ff00;stroke-width:1.01528;stroke-linecap:square;stroke-opacity:1;paint-order:fill markers stroke" inkscape:transform-center-y="1.1241729" d="m 109.21977,361.17831 15.75671,0.59382 -11.25928,11.16205 -14.711183,-0.92889 z" inkscape:transform-center-x="-5.3202815" sodipodi:nodetypes="ccccc" />
    <path style="font-variation-settings:'wdth' 87, 'wght' 700;fill:#000000;fill-opacity:1;stroke:#22ff00;stroke-width:1.01528;stroke-linecap:square;stroke-dasharray:none;stroke-opacity:1;paint-order:fill markers stroke" d="m 317.28929,586.90766 -23.71221,9.11283" id="path3-8" sodipodi:nodetypes="cc" />
    <path style="font-variation-settings:'wdth' 87, 'wght' 700;fill:none;fill-opacity:1;stroke:#22ff00;stroke-width:1.333;stroke-linecap:square;stroke-dasharray:none;stroke-opacity:1;paint-order:fill markers stroke" d="m 100.65643,371.38283 21.92548,-8.95313" id="path42" sodipodi:nodetypes="cc" />
    <path id="path2-3" style="font-variation-settings:'wdth' 87, 'wght' 700;stroke:#22ff00;stroke-width:1.333;stroke-linecap:square;stroke-opacity:1;paint-order:fill markers stroke" inkscape:transform-center-x="-32.756037" inkscape:transform-center-y="-10.67628" d="m 139.23562,333.60813 a 16.300709,16.199305 85.612979 0 0 -14.90465,17.49217 16.300709,16.199305 85.612979 0 0 2.50407,7.45464 l -4.66369,-2.36683 1.59286,20.76253 23.21832,-8.17065 -5.25259,-2.66578 a 16.300709,16.199305 85.612979 0 0 14.90465,-17.49218 16.300709,16.199305 85.612979 0 0 -17.39897,-15.0139 z" />
    <path id="path3-3-3-5" style="font-variation-settings:'wdth' 87, 'wght' 700;stroke:#22ff00;stroke-width:1.01528;stroke-linecap:square;stroke-opacity:1;paint-order:fill markers stroke" inkscape:transform-center-y="-11.956577" d="m 140.1172,348.09756 15.75671,0.59382 -11.25928,11.16205 -14.71118,-0.92888 z" inkscape:transform-center-x="-36.217713" sodipodi:nodetypes="ccccc" />
    <path id="rect23-0" style="font-variation-settings:'wdth' 87, 'wght' 700;stroke:#22ff00;stroke-width:1.333;stroke-linecap:square;paint-order:fill markers stroke" d="m 155.5749,333.16293 -3.28847,0.77653 -2.65881,-2.7272 -3.95712,0.66924 10.13485,21.65985 4.45937,-1.74256 -0.89719,-4.24823 3.00095,-0.95156 z" sodipodi:nodetypes="ccccccccc" inkscape:transform-center-x="-47.348524" inkscape:transform-center-y="-23.555268" />
    <path style="font-variation-settings:'wdth' 87, 'wght' 700;fill:#000000;fill-opacity:1;stroke:#22ff00;stroke-width:1.01528;stroke-linecap:square;stroke-dasharray:none;stroke-opacity:1;paint-order:fill markers stroke" d="m 348.18672,573.82691 -23.71222,9.11283" id="path3-1-6" sodipodi:nodetypes="cc" />
    <path style="font-variation-settings:'wdth' 87, 'wght' 700;fill:#000000;fill-opacity:1;stroke:#22ff00;stroke-width:1.333;stroke-linecap:square;stroke-dasharray:none;stroke-opacity:1;paint-order:fill markers stroke" d="m 113.92659,366.65642 1.07999,0.8128 v -1.31656" id="path4-27" sodipodi:nodetypes="ccc" inkscape:transform-center-x="-4.531488" inkscape:transform-center-y="-3.2685922" />
    <path style="font-variation-settings:'wdth' 87, 'wght' 700;fill:#000000;fill-opacity:1;stroke:#22ff00;stroke-width:1.333;stroke-linecap:square;stroke-dasharray:none;stroke-opacity:1;paint-order:fill markers stroke" d="m 144.20176,353.5705 1.07999,0.8128 v -1.31656" id="path4-27-8" sodipodi:nodetypes="ccc" inkscape:transform-center-x="-4.531488" inkscape:transform-center-y="-3.2685922" />
    <path id="rect20-3-8" style="font-variation-settings:'wdth' 87, 'wght' 700;stroke:#22ff00;stroke-width:1.333;stroke-linecap:square;paint-order:fill markers stroke" d="m 84.526774,407.04476 8.517647,8.49501 10.272979,3.20216 10.09645,1.23457 -10.69053,-13.84 19.77964,10.69654 4.62466,5.08732 -8.4897,3.21565 -16.49904,-0.32249 -9.360076,-1.73318 -12.075997,-4.02558 z" sodipodi:nodetypes="cccccccccccc" inkscape:transform-center-x="2.7557536" inkscape:transform-center-y="49.704184" />
    <path id="rect5-6" style="font-variation-settings:'wdth' 87, 'wght' 700;stroke:#22ff00;stroke-width:1.333;stroke-linecap:square;paint-order:fill markers stroke" d="m 76.166719,374.71468 59.758861,28.1902 5.64604,4.09073 -3.9865,7.76065 -55.484207,-31.41522 39.116607,29.5007 -6.42109,3.76094 -10.7764,-0.0112 -3.13837,-3.74977 -31.611164,-33.06589 z" sodipodi:nodetypes="ccccccccccc" inkscape:transform-center-x="1.8743341" inkscape:transform-center-y="29.921723" />
    <path id="rect6-5-0" style="font-variation-settings:'wdth' 87, 'wght' 700;stroke:#22ff00;stroke-width:1.333;stroke-linecap:square;paint-order:fill markers stroke" d="m 97.423148,660.31073 1.65955,-7.85728 17.204862,-34.73764 0.80709,-7.25661 10.60369,-0.20473 -19.92883,46.86565 11.99058,21.15474 19.44155,7.63435 -1.81597,-0.44334 -6.89502,4.98777 -7.51068,7.94007 z" sodipodi:nodetypes="cccccccccccc" />
    <path id="rect6-5-0-4" style="font-variation-settings:'wdth' 87, 'wght' 700;stroke:#22ff00;stroke-width:1.333;stroke-linecap:square;paint-order:fill markers stroke" d="m 102.09091,633.18952 -5.467157,-5.88227 -18.487019,-34.07258 -5.467136,-4.83944 5.940177,-8.78604 26.832255,43.28484 24.19956,2.3829 17.43878,-11.49548 -1.40838,1.22913 0.1059,8.50929 2.16469,10.71303 z" sodipodi:nodetypes="cccccccccccc" />
    <path id="rect5-6-5" style="font-variation-settings:'wdth' 87, 'wght' 700;stroke:#22ff00;stroke-width:1.333;stroke-linecap:square;paint-order:fill markers stroke" d="m 161.3213,597.70191 55.74757,35.38594 4.5285,6.29308 -8.10122,7.48633 -46.7077,-38.99719 28.71082,35.64495 -7.18975,1.35772 -7.22445,2.28242 -2.38207,-7.136 -25.79937,-35.55394 z" sodipodi:nodetypes="ccccccccccc" />
    <path id="rect5-6-5-3" style="font-variation-settings:'wdth' 87, 'wght' 700;stroke:#22ff00;stroke-width:1.333;stroke-linecap:square;paint-order:fill markers stroke" d="m 157.14454,606.64388 -45.95377,-47.41527 -2.93539,-7.17593 9.62423,-5.38974 36.32086,48.81788 -19.60268,-41.35951 7.30811,0.3571 7.55758,-0.53398 0.65153,7.49481 16.79277,40.59178 z" sodipodi:nodetypes="ccccccccccc" />
    <path id="rect4-2" style="font-variation-settings:'wdth' 87, 'wght' 700;stroke:#22ff00;stroke-width:1.333;stroke-linecap:square;paint-order:fill markers stroke" d="m 143.78776,379.91728 -5.48179,-3.78905 11.95438,-3.06714 1.09701,8.40264 4.37444,-0.43696 1.90061,14.62276 -5.95931,9.14178 -13.82467,11.32575 0.1472,1.15809 -0.005,-9.04502 -3.67061,-9.83162 8.77527,-6.27257 -2.44227,-11.42173 z" sodipodi:nodetypes="cccccccccccccc" inkscape:transform-center-x="-37.934969" inkscape:transform-center-y="28.278768" />
    <path style="font-variation-settings:'wdth' 87, 'wght' 700;fill:none;fill-opacity:1;stroke:#22ff00;stroke-width:1.333;stroke-linecap:square;stroke-dasharray:none;stroke-opacity:1;paint-order:fill markers stroke" d="m 130.96175,358.51285 20.14799,-8.68281" id="path43" />
    <circle style="font-variation-settings:'wdth' 87, 'wght' 700;fill:#22ff00;fill-opacity:1;stroke:none;stroke-width:2.02698;stroke-linecap:square;stroke-dasharray:none;stroke-opacity:1;paint-order:fill markers stroke" id="path44-3" cx="138.0907" cy="336.53198" r="2.7771862" />
    <circle style="font-variation-settings:'wdth' 87, 'wght' 700;fill:#22ff00;fill-opacity:1;stroke:none;stroke-width:1.06369;stroke-linecap:square;stroke-dasharray:none;stroke-opacity:1;paint-order:fill markers stroke" id="path44-3-3" cx="136.1657" cy="341.0238" r="1.4573753" />
    <path id="rect9-2" style="font-variation-settings:'wdth' 87, 'wght' 700;stroke:#22ff00;stroke-width:1.333;stroke-linecap:square;paint-order:fill markers stroke" d="m 158.73356,358.54494 -15.22661,-36.02302 -12.90804,2.37046 19.79541,34.68436 0.65747,19.74065 v 0 l -1.3431,0.2537 -0.0568,8.32235 6.32664,-2.964 z" sodipodi:nodetypes="cccccccccc" inkscape:transform-center-x="-37.995269" inkscape:transform-center-y="-9.7238923" />
    <path style="font-variation-settings:'wdth' 87, 'wght' 700;fill:#000000;fill-opacity:1;stroke:#22ff00;stroke-width:1.333;stroke-linecap:square;stroke-dasharray:none;stroke-opacity:1;paint-order:fill markers stroke" d="m 131.39688,305.91971 5.30527,5.28698 0.11338,2.9443" id="path14-4" sodipodi:nodetypes="ccc" inkscape:transform-center-x="-27.435238" inkscape:transform-center-y="-55.896723" />
    <path id="rect16-3-6" style="font-variation-settings:'wdth' 87, 'wght' 700;stroke:#22ff00;stroke-width:1.333;stroke-linecap:square;paint-order:fill markers stroke" d="m 108.88794,302.90339 4.39201,-3.30315 2.79157,2.76437 3.27936,8.46935 3.48356,9.50031 -7.32875,2.46525 -1.35087,-9.80887 z" sodipodi:nodetypes="cccccccc" inkscape:transform-center-x="-9.190223" inkscape:transform-center-y="-54.732193" />
    <path id="rect16-5" style="font-variation-settings:'wdth' 87, 'wght' 700;stroke:#22ff00;stroke-width:1.333;stroke-linecap:square;paint-order:fill markers stroke" d="m 104.85226,302.36967 3.07223,-2.38245 2.61032,2.06354 2.23733,12.44017 -0.46426,7.42279 -7.72753,0.27092 1.76283,-9.3557 z" sodipodi:nodetypes="cccccccc" inkscape:transform-center-x="-2.0052779" inkscape:transform-center-y="-54.846143" />
    <path style="font-variation-settings:'wdth' 87, 'wght' 700;fill:#000000;fill-opacity:1;stroke:#22ff00;stroke-width:1.333;stroke-linecap:square;stroke-dasharray:none;stroke-opacity:1;paint-order:fill markers stroke" d="m 128.31643,374.94752 5.29065,-8.1756" id="path22-4" inkscape:transform-center-x="-24.290788" inkscape:transform-center-y="4.9276479" />
    <path id="rect22-7" style="font-variation-settings:'wdth' 87, 'wght' 700;stroke-width:1.333;stroke-linecap:square;paint-order:fill markers stroke" d="m 144.87387,387.31752 1.33533,-6.99151 3.81935,-3.36892 0.57549,3.36892 2.02214,2.53446 2.39067,-2.53446 1.65709,13.23583 -8.70605,1.00331 z" sodipodi:nodetypes="ccccccccc" inkscape:transform-center-x="-44.046174" inkscape:transform-center-y="19.829048" />
    <path style="font-variation-settings:'wdth' 87, 'wght' 700;fill:none;fill-opacity:1;stroke:#22ff00;stroke-width:1.333;stroke-linecap:square;stroke-dasharray:none;stroke-opacity:1;paint-order:fill markers stroke" d="m 387.67248,233.39375 -8.74606,5.61986 8.40546,10.16111 -5.90367,2.3274 v 0" id="path24" />
    <path style="font-variation-settings:'wdth' 87, 'wght' 700;fill:none;fill-opacity:1;stroke:#22ff00;stroke-width:1.333;stroke-linecap:square;stroke-dasharray:none;stroke-opacity:1;paint-order:fill markers stroke" d="m 384.08149,258.76819 6.65636,-7.75936 -6.65636,-10.46255 18.19778,-10.27465 1.458,3.80332 -17.37041,8.34473" id="path25" />
    <path style="font-variation-settings:'wdth' 87, 'wght' 700;fill:none;fill-opacity:1;stroke:#22ff00;stroke-width:1.333;stroke-linecap:square;stroke-dasharray:none;stroke-opacity:1;paint-order:fill markers stroke" d="m 405.44025,276.11788 11.46674,-4.48453" id="path26" />
    <path style="font-variation-settings:'wdth' 87, 'wght' 700;fill:none;fill-opacity:1;stroke:#22ff00;stroke-width:1.333;stroke-linecap:square;stroke-dasharray:none;stroke-opacity:1;paint-order:fill markers stroke" d="m 393.46261,242.41967 2.78154,8.58916 -8.45814,9.5191" id="path27" />
    <path style="font-variation-settings:'wdth' 87, 'wght' 700;fill:none;fill-opacity:1;stroke:#22ff00;stroke-width:1.333;stroke-linecap:square;stroke-dasharray:none;stroke-opacity:1;paint-order:fill markers stroke" d="m 380.17936,257.4058 10.27465,5.27923" id="path28" />
    <path style="font-variation-settings:'wdth' 87, 'wght' 700;fill:none;fill-opacity:1;stroke:#22ff00;stroke-width:1.333;stroke-linecap:square;stroke-dasharray:none;stroke-opacity:1;paint-order:fill markers stroke" d="m 400.78544,241.80298 3.46272,14.7054 -10.72878,3.19964 11.06005,3.20407 -0.38803,-6.40371" id="path29" />
    <path style="font-variation-settings:'wdth' 87, 'wght' 700;fill:none;fill-opacity:1;stroke:#22ff00;stroke-width:1.333;stroke-linecap:square;stroke-dasharray:none;stroke-opacity:1;paint-order:fill markers stroke" d="m 375.01365,262.17415 23.67144,4.08715 -32.92431,-1.30863 18.32071,3.29544" id="path30" />
    <path style="font-variation-settings:'wdth' 87, 'wght' 700;fill:none;fill-opacity:1;stroke:#22ff00;stroke-width:1.333;stroke-linecap:square;stroke-dasharray:none;stroke-opacity:1;paint-order:fill markers stroke" d="m 79.160263,319.81994 -1.901662,-3.15049 -4.711584,3.09871 8.202696,7.85713 2.44094,-1.47591 3.150516,5.44952 -8.827122,5.44954 -2.700467,-3.97361" id="path34" sodipodi:nodetypes="cccccccc" inkscape:transform-center-x="27.55328" inkscape:transform-center-y="-39.073128" />
    <path style="font-variation-settings:'wdth' 87, 'wght' 700;fill:none;fill-opacity:1;stroke:#22ff00;stroke-width:1.333;stroke-linecap:square;stroke-dasharray:none;stroke-opacity:1;paint-order:fill markers stroke" d="m 88.060187,330.21813 -8.445795,-14.62726 6.4306,-3.16226 -3.496817,7.39948" id="path35" sodipodi:nodetypes="cccc" inkscape:transform-center-x="22.833678" inkscape:transform-center-y="-44.608703" />
    <path style="font-variation-settings:'wdth' 87, 'wght' 700;fill:none;fill-opacity:1;stroke:#22ff00;stroke-width:1.333;stroke-linecap:square;stroke-dasharray:none;stroke-opacity:1;paint-order:fill markers stroke" d="m 84.694953,320.35924 3.54788,-7.49313" id="path36" inkscape:transform-center-x="20.202074" inkscape:transform-center-y="-49.319398" />
    <path style="font-variation-settings:'wdth' 87, 'wght' 700;fill:none;fill-opacity:1;stroke:#22ff00;stroke-width:1.333;stroke-linecap:square;stroke-dasharray:none;stroke-opacity:1;paint-order:fill markers stroke" d="m 86.086718,318.56901 4.99911,9.84104" id="path37" sodipodi:nodetypes="cc" inkscape:transform-center-x="18.084694" inkscape:transform-center-y="-42.442543" />
    <path style="font-variation-settings:'wdth' 87, 'wght' 700;fill:none;fill-opacity:1;stroke:#22ff00;stroke-width:1.333;stroke-linecap:square;stroke-dasharray:none;stroke-opacity:1;paint-order:fill markers stroke" d="m 89.834447,329.08316 2.843024,-1.52925" id="path38" sodipodi:nodetypes="cc" inkscape:transform-center-x="15.415008" inkscape:transform-center-y="-37.613538" />
    <path style="font-variation-settings:'wdth' 87, 'wght' 700;fill:none;fill-opacity:1;stroke:#22ff00;stroke-width:1.333;stroke-linecap:square;stroke-dasharray:none;stroke-opacity:1;paint-order:fill markers stroke" d="m 90.683773,311.04027 4.815376,13.91475 -3.518907,0.17865 -1.43431,-2.58 2.872714,-2.04245" id="path39" sodipodi:nodetypes="ccccc" inkscape:transform-center-x="13.648427" inkscape:transform-center-y="-47.845103" />
    <path style="font-variation-settings:'wdth' 87, 'wght' 700;fill:none;fill-opacity:1;stroke:#22ff00;stroke-width:1.333;stroke-linecap:square;stroke-dasharray:none;stroke-opacity:1;paint-order:fill markers stroke" d="m 93.048142,310.45355 6.410266,-1.43862 -3.039194,9.55408 5.873216,-1.70089" id="path40" sodipodi:nodetypes="cccc" inkscape:transform-center-x="9.0006813" inkscape:transform-center-y="-52.140103" />
    <path style="font-variation-settings:'wdth' 87, 'wght' 700;fill:none;fill-opacity:1;stroke:#22ff00;stroke-width:1.333;stroke-linecap:square;stroke-dasharray:none;stroke-opacity:1;paint-order:fill markers stroke" d="m 95.8211,313.46215 3.888475,1.22047" id="path41" inkscape:transform-center-x="8.9056297" inkscape:transform-center-y="-51.859688" />
    <path style="font-variation-settings:'wdth' 87, 'wght' 700;fill:#000000;fill-opacity:1;stroke:#22ff00;stroke-width:1.333;stroke-linecap:square;stroke-dasharray:none;stroke-opacity:1;paint-order:fill markers stroke" d="m 278.34348,379.67451 1.79619,2.04746 -0.2195,-1.60039" id="path4-27-7" sodipodi:nodetypes="ccc" inkscape:transform-center-x="-34.883898" inkscape:transform-center-y="-16.238632" />
    <circle style="font-variation-settings:'wdth' 87, 'wght' 700;fill:#22ff00;fill-opacity:1;stroke:none;stroke-width:1.58159;stroke-linecap:square;stroke-dasharray:none;stroke-opacity:1;paint-order:fill markers stroke" id="path44" cx="132.13962" cy="338.67447" r="2.1669509" />
  </g>
</svg>
