<?xml version="1.0" encoding="UTF-8" standalone="no"?>
<!-- Created with Inkscape (http://www.inkscape.org/) -->

<svg width="188.9528mm" height="144.59488mm" viewBox="0 0 188.9528 144.59488" version="1.1" id="svg1" xml:space="preserve" inkscape:version="1.3 (0e150ed6c4, 2023-07-21)" sodipodi:docname="braindance.svg" xmlns:inkscape="http://www.inkscape.org/namespaces/inkscape" xmlns:sodipodi="http://sodipodi.sourceforge.net/DTD/sodipodi-0.dtd" xmlns="http://www.w3.org/2000/svg" xmlns:svg="http://www.w3.org/2000/svg"><sodipodi:namedview id="namedview1" pagecolor="#ffffff" bordercolor="#666666" borderopacity="1.0" inkscape:showpageshadow="2" inkscape:pageopacity="0.0" inkscape:pagecheckerboard="0" inkscape:deskcolor="#d1d1d1" inkscape:document-units="mm" inkscape:zoom="0.20598652" inkscape:cx="-1068.0311" inkscape:cy="1665.1575" inkscape:current-layer="layer1" /><defs id="defs1" /><g inkscape:label="Layer 1" inkscape:groupmode="layer" id="layer1" transform="translate(-5.4713875,-6.0626072)"><g id="g9"><path id="path44-6" style="color:#000000;fill:#23a9da;stroke-linecap:square;-inkscape-stroke:none;paint-order:markers fill stroke" d="m 124.073,20.154727 -5.04517,5.08599 2.54299,2.5213 27.78746,27.56575 -0.76637,2.76108 c 1.9607,2.46094 3.72386,5.08458 5.25188,7.8574 l 1.34204,-4.83692 18.60041,18.45211 -13.91956,3.47007 c 0.40463,2.28938 0.68168,4.62159 0.79633,6.99699 l 27.03349,-6.95978 -61.08257,-60.39063 z" /><path id="path6" style="color:#000000;fill:#23a9da;stroke-linecap:square;-inkscape-stroke:none;paint-order:markers fill stroke" d="m 104.99974,38.808887 c -29.743992,0 -53.933143,24.18966 -53.933143,53.93366 0,3.3702 0.325321,6.66357 0.919331,9.863993 l 8.116819,3.26595 c -1.21228,-4.16552 -1.87431,-8.567633 -1.87431,-13.129943 0,-25.87338 20.89793,-46.77183 46.771303,-46.77183 25.87338,0 46.77182,20.89845 46.77182,46.77183 0,25.873373 -20.89844,46.769233 -46.77182,46.769233 -11.268463,0 -21.590943,-3.96604 -29.656583,-10.57816 l -5.71231,4.47621 c 9.47623,8.2514 21.84315,13.26431 35.368893,13.26431 29.744,0 53.93366,-24.18759 53.93366,-53.931593 0,-29.744 -24.18966,-53.93366 -53.93366,-53.93366 z" /><path id="circle5" style="font-variation-settings:'wdth' 75, 'wght' 700;fill:#23a9da;stroke-width:23.2138;stroke-linecap:square;paint-order:markers stroke fill" d="m 96.852127,90.930087 a 17.328398,17.328398 0 0 1 -17.328399,17.328403 17.328398,17.328398 0 0 1 -17.3284,-17.328403 17.328398,17.328398 0 0 1 17.3284,-17.3284 17.328398,17.328398 0 0 1 17.328399,17.3284 z" /><path id="circle4" style="font-variation-settings:'wdth' 75, 'wght' 700;fill:#23a9da;stroke-width:19.4895;stroke-linecap:square;paint-order:markers stroke fill" d="m 145.64181,65.151407 a 14.5482,14.5482 0 0 1 -14.5482,14.5482 14.5482,14.5482 0 0 1 -14.5482,-14.5482 14.5482,14.5482 0 0 1 14.5482,-14.5482 14.5482,14.5482 0 0 1 14.5482,14.5482 z" /><path style="color:#000000;fill:#23a9da;stroke-linecap:square;-inkscape-stroke:none;paint-order:markers stroke fill" d="m 137.8326,92.291287 -1.02149,2.7051 -2.79296,7.392503 -9.74219,-4.712903 -3.5293,12.111403 -11.33789,-5.5157 -2.94336,12.0879 -12.980473,-5.7617 -0.804679,3.3906 c 0,0 -1.75977,7.4169 -2.54297,11.0196 l -0.61524,2.8261 5.6543,1.2305 0.61523,-2.8281 c 0.51693,-2.3779 1.1621,-5.0818 1.73438,-7.5156 l 12.921872,5.7343 2.88477,-11.8398 11.05078,5.375 3.5332,-12.125 9.27735,4.4902 5.02929,-13.314403 1.02149,-2.7071 z" id="path33-2" /><path id="path42-6" style="color:#000000;fill:#23a9da;stroke-linecap:square;-inkscape-stroke:none;paint-order:markers fill stroke" d="m 41.051187,56.963087 -7.11326,0.83 0.416,3.5568 10.38431,89.307603 40.06687,-32.1922 -38.48137,-16.3147 -4.85655,-41.630603 z m 6.227011,53.370903 23.66368,10.0335 -20.577041,16.4254 z" sodipodi:nodetypes="cccccccccccc" /><path style="color:#000000;fill:#23a9da;stroke-linecap:square;-inkscape-stroke:none;paint-order:markers fill stroke" d="m 21.676467,115.68459 -3.74805,11.8379 -12.4570295,-1.3652 v 0 0 l 2.75781,2.6582 13.2773405,12.7949 4.28321,-13.5293 13.72656,0.4336 v 0 0 l -3.111331,-2.2364 z" id="path39-4" sodipodi:nodetypes="ccccccccccccc" /><path style="color:#000000;fill:#23a9da;stroke-linecap:square;-inkscape-stroke:none;paint-order:markers fill stroke" d="m 173.04303,45.520887 7.70671,9.736 -8.10898,9.5544 v 0 0 l 3.74684,-0.7955 18.03659,-3.8313 -8.80805,-11.1269 8.04838,-11.1279 v 0 0 l -3.5954,1.3247 z" id="path39-7-2" sodipodi:nodetypes="ccccccccccccc" /><path style="color:#000000;fill:#23a9da;stroke-linecap:square;-inkscape-stroke:none;paint-order:markers fill stroke" d="m 110.03706,6.0626072 -78.791012,32.0937498 1.316399,11.65625 0.42969,3.80664 7.61328,-0.85937 -0.42968,-3.80664 -0.66407,-5.89063 68.886723,-28.05859 5.53711,5.15625 2.80273,2.60937 5.2207,-5.60742 -2.80273,-2.60937 z" id="path40-0" /></g></g></svg>
