<?xml version="1.0" encoding="UTF-8" standalone="no"?>
<!-- Created with Inkscape (http://www.inkscape.org/) -->

<svg
   width="246.5793mm"
   height="330.55432mm"
   viewBox="0 0 246.5793 330.55432"
   version="1.1"
   id="svg5"
   inkscape:version="1.1 (c68e22c387, 2021-05-23)"
   sodipodi:docname="аптоповерт.svg"
   xmlns:inkscape="http://www.inkscape.org/namespaces/inkscape"
   xmlns:sodipodi="http://sodipodi.sourceforge.net/DTD/sodipodi-0.dtd"
   xmlns="http://www.w3.org/2000/svg"
   xmlns:svg="http://www.w3.org/2000/svg">
  <sodipodi:namedview
     id="namedview7"
     pagecolor="#505050"
     bordercolor="#ffffff"
     borderopacity="1"
     inkscape:pageshadow="0"
     inkscape:pageopacity="0"
     inkscape:pagecheckerboard="1"
     inkscape:document-units="mm"
     showgrid="false"
     inkscape:zoom="0.5366988"
     inkscape:cx="485.37466"
     inkscape:cy="661.45108"
     inkscape:window-width="2063"
     inkscape:window-height="1406"
     inkscape:window-x="-11"
     inkscape:window-y="-11"
     inkscape:window-maximized="1"
     inkscape:current-layer="layer1" />
  <defs
     id="defs2" />
  <g
     inkscape:label="Layer 1"
     inkscape:groupmode="layer"
     id="layer1"
     transform="translate(53.487591,6.4748602)">
    <rect
       style="fill:#fd795b;fill-opacity:1;stroke:none;stroke-width:4.45763;stroke-linecap:round;stroke-miterlimit:4;stroke-dasharray:none;stroke-opacity:1;paint-order:markers stroke fill"
       id="rect34568"
       width="246.57899"
       height="330.55432"
       x="-53.487591"
       y="-6.4748602"
       inkscape:export-filename="C:\Users\User_hw\Desktop\rect34568.png"
       inkscape:export-xdpi="206.01892"
       inkscape:export-ydpi="206.01892" />
    <path
       style="fill:#e2452a;fill-opacity:1;stroke:none;stroke-width:15.1748;stroke-linecap:round;stroke-miterlimit:4;stroke-dasharray:none;stroke-opacity:1;paint-order:markers stroke fill"
       id="path39280-3"
       sodipodi:type="arc"
       sodipodi:cx="57.484356"
       sodipodi:cy="-151.54756"
       sodipodi:rx="85.889595"
       sodipodi:ry="85.860497"
       sodipodi:start="0"
       sodipodi:end="4.712389"
       sodipodi:arc-type="slice"
       d="M 143.37395,-151.54756 A 85.889595,85.860497 0 0 1 90.352881,-72.222806 85.889595,85.860497 0 0 1 -3.2487597,-90.835023 85.889595,85.860497 0 0 1 -21.867282,-184.40495 85.889595,85.860497 0 0 1 57.484356,-237.40806 v 85.8605 z"
       transform="scale(1,-1)" />
    <path
       style="fill:#c24c38;fill-opacity:1;stroke:none;stroke-width:15.1748;stroke-linecap:round;stroke-miterlimit:4;stroke-dasharray:none;stroke-opacity:1;paint-order:markers stroke fill"
       id="path39280-3-2"
       sodipodi:type="arc"
       sodipodi:cx="392.40549"
       sodipodi:cy="86.452438"
       sodipodi:rx="23.999275"
       sodipodi:ry="23.991144"
       sodipodi:start="0"
       sodipodi:end="4.712389"
       sodipodi:arc-type="slice"
       d="m 416.40476,86.452438 a 23.999275,23.991144 0 0 1 -14.81515,22.164932 23.999275,23.991144 0 0 1 -26.15417,-5.20063 23.999275,23.991144 0 0 1 -5.20239,-26.145315 23.999275,23.991144 0 0 1 22.17244,-14.810131 v 23.991144 z" />
    <path
       id="path10024"
       style="fill:#320c08;stroke-width:3.96801;stroke-linecap:round;paint-order:markers stroke fill"
       inkscape:transform-center-x="14.716485"
       inkscape:transform-center-y="27.969881"
       d="m 41.484105,120.25534 11.453156,-19.17338 33.780858,94.46329 -45.809821,1.84233 8.022872,-57.69344 -22.558741,4.89837 z"
       sodipodi:nodetypes="ccccccc" />
    <path
       style="fill:#e2452a;fill-opacity:1;stroke:none;stroke-width:15.1748;stroke-linecap:round;stroke-miterlimit:4;stroke-dasharray:none;stroke-opacity:1;paint-order:markers stroke fill"
       id="path39280"
       sodipodi:type="arc"
       sodipodi:cx="-147.19421"
       sodipodi:cy="232.99979"
       sodipodi:rx="28.408955"
       sodipodi:ry="28.399332"
       sodipodi:start="0"
       sodipodi:end="4.712389"
       sodipodi:arc-type="slice"
       d="m -118.78526,232.99979 a 28.408955,28.399332 0 0 1 -17.53732,26.23756 28.408955,28.399332 0 0 1 -30.9598,-6.1562 28.408955,28.399332 0 0 1 -6.15829,-30.94932 28.408955,28.399332 0 0 1 26.24646,-17.53138 v 28.39934 z"
       transform="scale(-1,1)" />
    <path
       id="rect27429"
       style="fill:#ffc3ac;stroke-width:4.265;stroke-linecap:round;paint-order:markers stroke fill"
       d="m 56.106832,178.88998 15.487833,-1.45974 7.395288,26.08319 -21.332837,12.56507 z"
       sodipodi:nodetypes="ccccc" />
    <path
       id="path20074"
       style="fill:#accbae;stroke-width:2.86499;stroke-linecap:round;paint-order:markers stroke fill"
       inkscape:transform-center-x="-4.0597867"
       inkscape:transform-center-y="1.0862259"
       d="m 48.395744,286.48849 -2.430494,-83.6881 9.656751,0.0969 -4.53907,-8.70931 14.82938,3.66419 0.156056,5.07896 4.978574,5.9603 -0.422,-5.13514 -0.170973,-4.88755 12.223086,-5.13834 -1.208098,8.31851 11.603597,1.44389 -11.582468,68.79224 z"
       sodipodi:nodetypes="cccccccccccccc" />
    <g
       id="g20514"
       transform="rotate(-50.036283,137.61347,182.189)">
      <path
         id="path13359"
         style="fill:#320c08;stroke-width:3.96801;stroke-linecap:round;paint-order:markers stroke fill"
         inkscape:transform-center-x="-2.8411776"
         inkscape:transform-center-y="2.4207765"
         d="M 15.504295,116.4038 12.208767,130.87856 -11.497751,85.038827 C 10.049668,119.26508 17.312614,56.968056 46.839403,87.085942 Z"
         sodipodi:nodetypes="ccccc" />
      <path
         id="path13359-2"
         style="fill:#320c08;stroke-width:3.96801;stroke-linecap:round;paint-order:markers stroke fill"
         inkscape:transform-center-x="2.7747128"
         inkscape:transform-center-y="-4.5425528"
         d="m 35.529595,156.88794 25.536105,13.40942 -50.214494,4.8318 c 6.384916,-15.96015 -7.522136,-6.41708 -15.97281,-16.63748 -5.716618,-6.9138 -1.328448,-19.8984 10.498433,-32.1363 z"
         sodipodi:nodetypes="cccscc" />
      <path
         id="path13359-2-1"
         style="fill:#320c08;stroke-width:3.96801;stroke-linecap:round;paint-order:markers stroke fill"
         inkscape:transform-center-x="-6.5884126"
         inkscape:transform-center-y="-3.2039239"
         d="m 16.265243,191.76893 -16.208936,10.774 c 12.166303,-2.08727 0.694135,6.48386 5.485159,14.76296 -3.042155,-16.9186 37.107438,4.02925 47.442139,-4.28125 6.991096,-5.62182 25.219276,-14.40652 16.097356,-28.77427 z"
         sodipodi:nodetypes="cccscc" />
      <path
         id="path1547"
         style="fill:#4b150e;fill-opacity:1;stroke-width:0.168275;stroke-linecap:round;stroke-linejoin:round;paint-order:markers stroke fill"
         inkscape:transform-center-x="3.0402246"
         inkscape:transform-center-y="0.9911176"
         d="M 56.283652,116.95691 C 97.035451,171.1823 92.142951,192.80494 79.304571,223.79577 30.259234,198.26067 5.799441,199.43756 -34.924893,212.1747 -23.73776,199.80489 -12.736951,169.01669 35.654968,185.61318 30.887518,166.38026 23.082948,147.98877 -24.906756,140.73024 4.183098,82.954627 25.735883,88.967328 49.891371,83.822632 74.046861,78.677925 102.65395,96.21523 102.65395,96.21523 c -16.680859,3.8991 -35.032109,3.68416 -46.370298,20.74168 z"
         sodipodi:nodetypes="ccccczcc" />
    </g>
    <rect
       style="fill:none;fill-opacity:1;stroke:#db8949;stroke-width:2.75659;stroke-linecap:round;stroke-miterlimit:4;stroke-dasharray:none;stroke-opacity:1;paint-order:markers stroke fill"
       id="rect25871"
       width="209.30807"
       height="209.30807"
       x="248.45699"
       y="511.47641"
       transform="rotate(-3.9783474)" />
    <path
       id="rect18999"
       style="fill:#accbae;stroke-width:2.86499;stroke-linecap:round;paint-order:markers stroke fill"
       d="m 334.77777,207.8494 18.22587,-5.69373 66.57048,25.4222 14.24806,28.63691 -66.08587,-31.1355 51.12203,66.19519 -70.781,20.32998 z"
       sodipodi:nodetypes="cccccccc" />
    <path
       id="rect18999-5"
       style="fill:#accbae;stroke-width:2.86499;stroke-linecap:round;paint-order:markers stroke fill"
       d="m 316.59734,-29.075423 -18.22587,-5.69373 -73.96522,21.72483 -14.24806,28.63691 85.3122,-36.06533 -15.62726,46.22938 46.13186,1.84312 z"
       sodipodi:nodetypes="cccccccc" />
    <path
       id="path859"
       style="fill:#320c08;stroke-width:3.96801;stroke-linecap:round;paint-order:markers stroke fill"
       inkscape:transform-center-x="29.377575"
       inkscape:transform-center-y="-27.397575"
       d="m 22.218728,87.259715 11.146275,-12.391626 10.025956,6.352199 -5.64785,4.401089 0.763724,-3.973619 -5.369506,0.469948 -0.176724,5.627482 28.589036,3.776976 -16.113985,21.344376 z"
       sodipodi:nodetypes="cccccccccc" />
    <path
       id="path10024-2"
       style="fill:#320c08;stroke-width:3.96801;stroke-linecap:round;paint-order:markers stroke fill"
       inkscape:transform-center-x="-29.745424"
       inkscape:transform-center-y="19.823345"
       d="m 114.71918,98.852287 -9.46219,-14.779199 -38.147667,97.617982 27.547704,-3.27575 -0.567054,12.89052 14.975397,2.85067 -5.03358,-6.86694 4.82442,-5.48188 -2.98976,-55.29892 29.03859,-10.41381 -4.25563,-16.502027 -2.66419,10.591127 z"
       sodipodi:nodetypes="ccccccccccccc" />
    <path
       id="rect17123"
       style="fill:#050505;stroke-width:5.36794;stroke-linecap:round;paint-order:markers stroke fill"
       d="m 28.336229,159.04306 6.645715,-10.66796 -0.600515,-8.87724 22.921487,17.12459 -8.861737,1.80034 -2.897438,10.76915 z"
       sodipodi:nodetypes="ccccccc"
       inkscape:transform-center-x="31.897978"
       inkscape:transform-center-y="33.243816" />
    <path
       id="path846"
       style="fill:#ffdacc;fill-opacity:1;stroke-width:0.168275;stroke-linecap:round;stroke-linejoin:round;paint-order:markers stroke fill"
       inkscape:transform-center-x="-10.709734"
       inkscape:transform-center-y="33.71654"
       d="m 122.12243,185.40806 -29.608302,-16.66932 -6.777958,15.9134 -30.654677,1.42525 -9.693648,-90.799415 63.261965,-0.283049 5.12357,40.199264 z"
       sodipodi:nodetypes="cccccccc" />
    <path
       id="path15552"
       style="fill:#accbae;fill-opacity:1;stroke-width:2.86499;stroke-linecap:round;paint-order:markers stroke fill"
       inkscape:transform-center-x="3.3892586"
       inkscape:transform-center-y="1.7789631"
       d="m 311.01354,254.26171 -30.0301,-7.16075 3.40824,-12.07921 32.36816,2.02006 z"
       sodipodi:nodetypes="ccccc" />
    <path
       id="path15552-1"
       style="fill:#accbae;fill-opacity:1;stroke-width:2.86499;stroke-linecap:round;paint-order:markers stroke fill"
       inkscape:transform-center-x="-3.3892596"
       inkscape:transform-center-y="1.7789631"
       d="m 311.01354,254.26171 5.31138,-2.62102 1.3109,-13.11878 -14.00699,-3.44111 z"
       sodipodi:nodetypes="ccccc" />
    <path
       id="rect16756-4"
       style="fill:#edf1cb;stroke-width:2.86499;stroke-linecap:round;paint-order:markers stroke fill"
       d="m 317.6544,233.69374 -7.66378,2.69423 6.49315,13.29683 5.03511,-5.57734 z"
       sodipodi:nodetypes="ccccc" />
    <path
       id="path2970-5"
       style="fill:#ffffff;fill-opacity:1;stroke:#4b150e;stroke-width:4.015;stroke-linecap:round;stroke-linejoin:miter;stroke-miterlimit:4;stroke-dasharray:none;stroke-opacity:1;paint-order:markers stroke fill"
       inkscape:transform-center-x="-0.73322243"
       inkscape:transform-center-y="-0.56439015"
       d="m 56.829538,131.17145 23.663289,9.80411 -22.33286,14.83171 -24.445758,-9.67477 z"
       sodipodi:nodetypes="ccccc" />
    <path
       sodipodi:type="star"
       style="fill:#320c08;fill-opacity:1;stroke-width:14.9972;stroke-linecap:round;paint-order:markers stroke fill"
       id="path7034"
       inkscape:flatsided="true"
       sodipodi:sides="3"
       sodipodi:cx="358.03372"
       sodipodi:cy="471.33969"
       sodipodi:r1="24.604877"
       sodipodi:r2="12.302439"
       sodipodi:arg1="1.327441"
       sodipodi:arg2="2.3746386"
       inkscape:rounded="0"
       inkscape:randomized="0"
       d="m 363.96252,495.21958 -29.57379,-30.68534 41.36119,-10.26899 z"
       transform="matrix(0.33954205,0.04850403,-0.04850403,0.33954205,-42.076081,-34.253968)"
       inkscape:transform-center-x="-0.093299484"
       inkscape:transform-center-y="1.2625564" />
    <path
       id="path2970"
       style="fill:#4b150e;fill-opacity:1;stroke-width:0.132091;stroke-linecap:round;stroke-linejoin:round;paint-order:markers stroke fill"
       inkscape:transform-center-x="-0.73322393"
       inkscape:transform-center-y="-5.4017752"
       d="m 57.090982,130.0821 23.401845,10.89346 -46.778615,5.15694 z"
       sodipodi:nodetypes="cccc" />
    <path
       id="path2970-5-1"
       style="fill:#ffffff;fill-opacity:1;stroke:#4b150e;stroke-width:4.015;stroke-linecap:round;stroke-linejoin:miter;stroke-miterlimit:4;stroke-dasharray:none;stroke-opacity:1;paint-order:markers stroke fill"
       inkscape:transform-center-x="-0.73322243"
       inkscape:transform-center-y="-0.56439015"
       d="m 106.39015,116.96961 23.66329,9.80411 -22.33286,14.83171 -24.445755,-9.67477 z"
       sodipodi:nodetypes="ccccc" />
    <path
       sodipodi:type="star"
       style="fill:#320c08;fill-opacity:1;stroke-width:14.9972;stroke-linecap:round;paint-order:markers stroke fill"
       id="path7034-10"
       inkscape:flatsided="true"
       sodipodi:sides="3"
       sodipodi:cx="358.03372"
       sodipodi:cy="471.33969"
       sodipodi:r1="24.604877"
       sodipodi:r2="12.302439"
       sodipodi:arg1="1.327441"
       sodipodi:arg2="2.3746386"
       inkscape:rounded="0"
       inkscape:randomized="0"
       transform="matrix(0.33954205,0.04850403,-0.04850403,0.33954205,7.4845351,-48.455807)"
       inkscape:transform-center-x="-0.093299484"
       inkscape:transform-center-y="1.2625564"
       d="m 363.96252,495.21958 -29.57379,-30.68534 41.36119,-10.26899 z" />
    <path
       id="path2970-2"
       style="fill:#4b150e;fill-opacity:1;stroke-width:0.132091;stroke-linecap:round;stroke-linejoin:round;paint-order:markers stroke fill"
       inkscape:transform-center-x="-0.73322393"
       inkscape:transform-center-y="-5.4017752"
       d="m 106.6516,115.88026 23.40184,10.89346 -46.778612,5.15694 z"
       sodipodi:nodetypes="cccc" />
    <path
       id="path2970-5-8"
       style="fill:#ffffff;fill-opacity:1;stroke:#4b150e;stroke-width:3.968;stroke-linecap:round;stroke-linejoin:miter;stroke-miterlimit:4;stroke-dasharray:none;stroke-opacity:1;paint-order:markers stroke fill"
       inkscape:transform-center-x="1.0666454"
       inkscape:transform-center-y="-0.32530783"
       d="m 284.17592,167.31925 -25.90548,19.84062 32.36058,10.9195 26.91109,-19.93846 z"
       sodipodi:nodetypes="ccccc" />
    <path
       sodipodi:type="star"
       style="fill:#320c08;fill-opacity:1;stroke-width:14.9972;stroke-linecap:round;paint-order:markers stroke fill"
       id="path7034-1"
       inkscape:flatsided="true"
       sodipodi:sides="3"
       sodipodi:cx="358.03372"
       sodipodi:cy="471.33969"
       sodipodi:r1="24.604877"
       sodipodi:r2="12.302439"
       sodipodi:arg1="1.327441"
       sodipodi:arg2="2.3746386"
       inkscape:rounded="0"
       inkscape:randomized="0"
       transform="matrix(0.42967742,0.07936444,-0.07936444,0.42967742,159.4505,-70.271967)"
       inkscape:transform-center-x="-0.36085999"
       inkscape:transform-center-y="1.8339144"
       d="m 363.96252,495.21958 -29.57379,-30.68534 41.36119,-10.26899 z" />
    <path
       id="path2970-3"
       style="fill:#4b150e;fill-opacity:1;stroke-width:0.168275;stroke-linecap:round;stroke-linejoin:round;paint-order:markers stroke fill"
       inkscape:transform-center-x="1.0666454"
       inkscape:transform-center-y="-5.7850578"
       d="m 270.83527,145.53875 -25.90548,19.84062 59.27167,-9.01896 z"
       sodipodi:nodetypes="cccc" />
    <path
       id="path9586"
       style="fill:#4b150e;stroke:none;stroke-width:3.96801;stroke-linecap:round;paint-order:markers stroke fill"
       inkscape:transform-center-x="7.3936021"
       inkscape:transform-center-y="-22.951217"
       d="M 90.81843,115.26419 60.527944,104.17432 36.917884,130.11071 38.593049,96.445116 70.902955,66.516633 Z"
       sodipodi:nodetypes="cccccc" />
    <path
       id="path9586-7"
       style="fill:#4b150e;stroke:none;stroke-width:3.96801;stroke-linecap:round;paint-order:markers stroke fill"
       inkscape:transform-center-x="-22.916139"
       inkscape:transform-center-y="-25.450022"
       d="m 90.81843,115.26419 17.83138,-20.269264 8.88626,15.333664 -0.92584,-31.616926 -45.790505,-2.346121 z"
       sodipodi:nodetypes="cccccc" />
    <path
       sodipodi:type="star"
       style="fill:#320c08;fill-opacity:1;stroke:none;stroke-width:14.9972;stroke-linecap:round;stroke-linejoin:miter;stroke-miterlimit:4;stroke-dasharray:none;stroke-opacity:1;paint-order:markers stroke fill"
       id="path11576"
       inkscape:flatsided="true"
       sodipodi:sides="3"
       sodipodi:cx="429.5087"
       sodipodi:cy="-44.136631"
       sodipodi:r1="53.21262"
       sodipodi:r2="26.60631"
       sodipodi:arg1="1.0240075"
       sodipodi:arg2="2.071205"
       inkscape:rounded="0"
       inkscape:randomized="0"
       d="M 457.17644,1.3175123 376.31039,-42.902738 455.03927,-90.824667 Z"
       transform="matrix(0.24892075,-0.08968165,0.08968165,0.24892075,-53.522559,110.57724)"
       inkscape:transform-center-x="22.912951"
       inkscape:transform-center-y="-62.732248" />
    <path
       sodipodi:type="star"
       style="fill:#4b150e;fill-opacity:1;stroke:none;stroke-width:14.9972;stroke-linecap:round;stroke-linejoin:miter;stroke-miterlimit:4;stroke-dasharray:none;stroke-opacity:1;paint-order:markers stroke fill"
       id="path11578"
       inkscape:flatsided="true"
       sodipodi:sides="3"
       sodipodi:cx="492.74924"
       sodipodi:cy="-104.0834"
       sodipodi:r1="92.039742"
       sodipodi:r2="46.019871"
       sodipodi:arg1="1.8313987"
       sodipodi:arg2="2.8785963"
       inkscape:rounded="0"
       inkscape:randomized="0"
       d="m 469.03403,-15.151382 -41.44458,-153.935988 154.03477,41.07593 z"
       transform="matrix(0.24892075,-0.08968165,0.08968165,0.24892075,-48.300621,112.21586)"
       inkscape:transform-center-x="7.2774232"
       inkscape:transform-center-y="-73.97951" />
    <path
       id="path11578-8"
       style="fill:#4b150e;stroke-width:3.96801;stroke-linecap:round;paint-order:markers stroke fill"
       inkscape:transform-center-x="8.7141149"
       inkscape:transform-center-y="-72.184786"
       d="M 67.092884,66.380625 42.971235,31.779581 82.124054,47.63074 Z"
       sodipodi:nodetypes="cccc" />
    <path
       style="fill:none;stroke:#000000;stroke-width:2.865;stroke-linecap:butt;stroke-linejoin:miter;stroke-miterlimit:4;stroke-dasharray:none;stroke-opacity:1"
       d="m 296.71196,124.67928 -10.15416,6.04424 -8.81224,-6.43706"
       id="path15368"
       sodipodi:nodetypes="ccc"
       inkscape:transform-center-x="-2.3085726"
       inkscape:transform-center-y="1.1163501" />
    <path
       id="rect16756"
       style="fill:#edf1cb;stroke-width:2.86499;stroke-linecap:round;paint-order:markers stroke fill"
       d="m 271.68478,102.29468 25.28931,13.40095 -19.22853,8.59083 -16.63027,-14.8409 z"
       sodipodi:nodetypes="ccccc" />
    <path
       style="fill:#e2452a;fill-opacity:1;stroke:none;stroke-width:4.015;stroke-linecap:round;stroke-miterlimit:4;stroke-dasharray:none;stroke-opacity:1;paint-order:markers stroke fill"
       id="path35192"
       sodipodi:type="arc"
       sodipodi:cx="-53.487591"
       sodipodi:cy="-324.07947"
       sodipodi:rx="48.802814"
       sodipodi:ry="48.802814"
       sodipodi:start="0"
       sodipodi:end="1.5707963"
       sodipodi:arc-type="slice"
       d="m -4.6847763,-324.07947 a 48.802814,48.802814 0 0 1 -48.8028147,48.80282 v -48.80282 z"
       transform="scale(1,-1)" />
    <path
       style="fill:#e2452a;fill-opacity:1;stroke:none;stroke-width:4.015;stroke-linecap:round;stroke-miterlimit:4;stroke-dasharray:none;stroke-opacity:1;paint-order:markers stroke fill"
       id="path35192-8"
       sodipodi:type="arc"
       sodipodi:cx="-193.09171"
       sodipodi:cy="-324.07947"
       sodipodi:rx="48.802814"
       sodipodi:ry="48.802814"
       sodipodi:start="0"
       sodipodi:end="1.5707963"
       sodipodi:arc-type="slice"
       transform="scale(-1)"
       d="m -144.28889,-324.07947 a 48.802814,48.802814 0 0 1 -48.80282,48.80282 v -48.80282 z" />
    <path
       style="fill:#e2452a;fill-opacity:1;stroke:none;stroke-width:4.015;stroke-linecap:round;stroke-miterlimit:4;stroke-dasharray:none;stroke-opacity:1;paint-order:markers stroke fill"
       id="path35192-7"
       sodipodi:type="arc"
       sodipodi:cx="-53.487591"
       sodipodi:cy="-6.4748449"
       sodipodi:rx="48.802814"
       sodipodi:ry="48.802814"
       sodipodi:start="0"
       sodipodi:end="1.5707963"
       sodipodi:arc-type="slice"
       d="M -4.6847763,-6.4748449 A 48.802814,48.802814 0 0 1 -53.487591,42.32797 V -6.4748449 Z" />
    <path
       style="fill:#e2452a;fill-opacity:1;stroke:none;stroke-width:4.015;stroke-linecap:round;stroke-miterlimit:4;stroke-dasharray:none;stroke-opacity:1;paint-order:markers stroke fill"
       id="path35192-8-6"
       sodipodi:type="arc"
       sodipodi:cx="-193.09171"
       sodipodi:cy="-6.4748602"
       sodipodi:rx="48.802814"
       sodipodi:ry="48.802814"
       sodipodi:start="0"
       sodipodi:end="1.5707963"
       sodipodi:arc-type="slice"
       transform="scale(-1,1)"
       d="M -144.28889,-6.4748602 A 48.802814,48.802814 0 0 1 -193.09171,42.327954 V -6.4748602 Z" />
  </g>
</svg>
