<?xml version="1.0" encoding="UTF-8" standalone="no"?>
<!-- Created with Inkscape (http://www.inkscape.org/) -->

<svg
   width="210mm"
   height="297mm"
   viewBox="0 0 210 297"
   version="1.1"
   id="svg5"
   inkscape:version="1.1 (c68e22c387, 2021-05-23)"
   sodipodi:docname="fata.svg"
   xmlns:inkscape="http://www.inkscape.org/namespaces/inkscape"
   xmlns:sodipodi="http://sodipodi.sourceforge.net/DTD/sodipodi-0.dtd"
   xmlns="http://www.w3.org/2000/svg"
   xmlns:svg="http://www.w3.org/2000/svg">
  <sodipodi:namedview
     id="namedview7"
     pagecolor="#505050"
     bordercolor="#ffffff"
     borderopacity="1"
     inkscape:pageshadow="0"
     inkscape:pageopacity="0"
     inkscape:pagecheckerboard="1"
     inkscape:document-units="mm"
     showgrid="false"
     inkscape:snap-global="true"
     inkscape:zoom="2.8284271"
     inkscape:cx="478.00418"
     inkscape:cy="246.07316"
     inkscape:window-width="2035"
     inkscape:window-height="1406"
     inkscape:window-x="-11"
     inkscape:window-y="-11"
     inkscape:window-maximized="1"
     inkscape:current-layer="layer1"
     inkscape:object-nodes="true"
     inkscape:object-paths="false"
     inkscape:snap-smooth-nodes="true"
     inkscape:snap-intersection-paths="false" />
  <defs
     id="defs2" />
  <g
     inkscape:label="Слой 1"
     inkscape:groupmode="layer"
     id="layer1">
    <path
       id="path25919"
       style="fill:#cf6c13;fill-opacity:1;stroke-width:3.17;stroke-linecap:round;stroke-linejoin:round;paint-order:stroke markers fill"
       inkscape:transform-center-x="4.7707623"
       inkscape:transform-center-y="0.66254644"
       d="M 113.937,66.322931 83.017301,45.821252 114.82896,20.688771 Z"
       sodipodi:nodetypes="cccc" />
    <path
       id="path19068"
       style="fill:#ffdda8;fill-opacity:1;stroke-width:11.9811;stroke-linecap:round;stroke-linejoin:round;paint-order:stroke markers fill"
       inkscape:transform-center-x="0.92152741"
       inkscape:transform-center-y="0.28902608"
       d="M 573.24609,87.480469 334.16992,181.27539 363.39453,343.72852 318.875,345.875 306.84939,375.62851 453.92188,432.02148 620.79413,359.11302 593.125,319.9375 562.5957,337.56445 Z"
       transform="scale(0.26458333)"
       sodipodi:nodetypes="cccccccccc" />
    <path
       id="path10217"
       style="fill:#fffcf8;stroke:#4e2804;stroke-width:3.17;stroke-linecap:round;stroke-miterlimit:4;stroke-dasharray:none;stroke-opacity:1;paint-order:stroke markers fill"
       d="m 160.15326,71.163338 c 0.37267,3.255592 -3.86423,6.5168 -12.17559,8.713744 -2.78979,0.740655 -3.61425,-2.084988 -10.75273,-1.346335 -8.09611,0.837212 -11.34599,4.731629 -14.20272,4.670039 -8.64461,-0.185925 -9.71032,-3.190576 -10.09632,-6.457653 -0.51364,-4.347427 14.22108,-0.165972 22.66293,-10.22536 14.63108,-17.435229 24.04699,0.125683 24.56443,4.645565 z"
       sodipodi:nodetypes="sssssss" />
    <path
       id="path10217-4"
       style="fill:#fffcf8;stroke:#4e2804;stroke-width:3.17;stroke-linecap:round;stroke-miterlimit:4;stroke-dasharray:none;stroke-opacity:1;paint-order:stroke markers fill"
       d="m 77.111398,84.431126 c -0.289023,2.524869 4.510649,5.724857 7.789108,6.757928 3.19427,1.006542 4.456671,-1.617008 9.992906,-1.044148 6.278928,0.649299 7.180358,4.106311 11.014898,3.62184 3.07384,-0.388361 7.53082,-2.474445 7.83018,-5.00822 0.39835,-3.371639 -11.02913,-0.128719 -17.576195,-7.930259 -11.347106,-13.521858 -18.649597,0.09747 -19.050897,3.602859 z"
       sodipodi:nodetypes="sasasss" />
    <path
       id="path12360"
       style="fill:#4e2804;stroke-width:11.9811;stroke-linecap:round;paint-order:stroke markers fill"
       inkscape:transform-center-x="1.0914074"
       inkscape:transform-center-y="-0.063539314"
       transform="scale(0.26458333)"
       d="m 319.25,204 79.17018,100.09703 13.26927,-3.59237 -7.60756,13.51505 c -28.93504,-7.24734 -89.04805,-96.5542 -131.91378,-109.78942 z"
       sodipodi:nodetypes="cccccc" />
    <path
       id="path12360-2"
       style="fill:#4e2804;stroke-width:3.17;stroke-linecap:round;paint-order:stroke markers fill"
       inkscape:transform-center-x="-1.0914074"
       inkscape:transform-center-y="-0.063539314"
       d="m 143.2018,19.464073 -25.06306,41.357555 -3.51083,-0.950481 2.94828,4.791933 c 7.65573,-1.917526 22.62519,-26.762708 33.96674,-30.264527 z"
       sodipodi:nodetypes="cccccc" />
    <path
       id="path21708"
       style="fill:#e1700a;fill-opacity:1;stroke-width:11.9811;stroke-linecap:round;stroke-linejoin:round;paint-order:stroke markers fill"
       inkscape:transform-center-x="-0.33072767"
       inkscape:transform-center-y="0.37503726"
       transform="scale(0.26458333)"
       d="m 316.75,358.625 c 40.98825,-5.38835 105.63893,3.42075 122.96475,-16.16506 10.65479,17.4862 13.25672,16.82433 16.8205,18.33012 -1.30209,5.08536 -1.4673,10.29703 -14.36049,14.09449 l -84.57192,-10.96356 c 6.1959,15.3624 22.0935,30.87016 -10.75413,42.28184 C 350.37952,383.87787 335.75332,373.43858 316.75,358.625 Z"
       sodipodi:nodetypes="ccccccc" />
    <path
       id="path14816"
       style="fill:#4e2804;stroke-width:3.17;stroke-linecap:round;paint-order:stroke markers fill"
       inkscape:transform-center-x="0.29765733"
       inkscape:transform-center-y="0.38714291"
       d="m 110.1049,93.127649 -3.62094,0.700093 -0.56443,-8.651203 3.77362,0.688679 z"
       sodipodi:nodetypes="ccccc" />
    <path
       id="path14816-9"
       style="fill:#4e2804;stroke-width:3.17;stroke-linecap:round;paint-order:stroke markers fill"
       inkscape:transform-center-x="-0.29765733"
       inkscape:transform-center-y="0.38714291"
       d="m 154.32714,78.717331 3.22407,-1.218136 1.02745,-12.421515 -3.57518,-3.478509 z"
       sodipodi:nodetypes="ccccc" />
    <path
       id="path21708-4"
       style="fill:#e1700a;fill-opacity:1;stroke-width:3.17;stroke-linecap:round;stroke-linejoin:round;paint-order:stroke markers fill"
       inkscape:transform-center-x="0.33072767"
       inkscape:transform-center-y="0.37503726"
       d="m 155.7096,90.419362 c -9.71142,-0.645951 -21.61876,4.929853 -29.13359,-1.939774 -0.99248,2.460028 -3.45033,4.431601 -7.61739,5.833438 l 3.79954,3.72917 c 8.83735,1.100933 14.92023,-1.929835 22.37632,-2.90078 2.39158,6.812684 -0.48775,11.601204 -2.4463,16.743324 6.90009,-7.15513 9.89586,-14.310252 13.02142,-21.465378 z"
       sodipodi:nodetypes="ccccccc" />
    <path
       id="path15174"
       style="fill:#fffcf8;stroke:#4e2804;stroke-width:11.9811;stroke-linecap:round;stroke-linejoin:round;stroke-miterlimit:4;stroke-dasharray:none;stroke-opacity:1;paint-order:stroke markers fill"
       inkscape:transform-center-x="0.3741788"
       inkscape:transform-center-y="0.14367329"
       transform="scale(0.26458333)"
       d="m 446.53793,392.62105 c -38.95405,2.39002 -79.96102,-15.09572 -116.25561,-28.83999 43.31367,15.69539 75.61299,23.66822 117.72875,19.96393 44.37363,-3.90288 98.55457,-20.28193 143.95062,-34.58563 -49.59124,15.97233 -87.56892,39.912 -145.42376,43.46169 z"
       sodipodi:nodetypes="scscs" />
    <path
       id="path17040"
       style="fill:#4e2804;stroke-width:11.9811;stroke-linecap:round;stroke-linejoin:round;paint-order:stroke markers fill"
       inkscape:transform-center-x="0.14305211"
       inkscape:transform-center-y="-0.16564134"
       transform="scale(0.26458333)"
       d="m 374.75,385.875 -44.46768,-22.09394 49.79901,10.84186 c 3.0626,5.51059 -1.26202,8.33492 -5.33133,11.25208 z"
       sodipodi:nodetypes="cccc" />
    <path
       id="path17040-9"
       style="fill:#4e2804;stroke-width:3.17;stroke-linecap:round;stroke-linejoin:round;paint-order:stroke markers fill"
       inkscape:transform-center-x="-0.14304819"
       inkscape:transform-center-y="-0.16564134"
       d="m 142.18402,99.144969 14.43918,-6.763223 -15.56913,4.136902 c -0.81032,1.45801 0.0533,1.85449 1.12995,2.626321 z"
       sodipodi:nodetypes="cccc" />
    <path
       id="path22830"
       style="fill:#e1700a;stroke-width:11.9811;stroke-linecap:round;stroke-linejoin:round;paint-order:stroke markers fill"
       inkscape:transform-center-x="-0.21047323"
       inkscape:transform-center-y="1.6886088"
       transform="scale(0.26458333)"
       d="m 407.48033,442.82043 c -3.6966,-15.53902 -28.55502,-31.07804 -53.0366,-46.61706 l 19.75416,-2.08268 81.27791,16.28694 61.66872,-19.53568 47.05655,-3.70668 c -15.06535,17.64368 -64.16573,31.61291 -57.23844,54.14384 -26.7689,7.20693 -35.69457,-9.3771 -51.72298,-16.49082 -12.65325,16.6169 -29.83899,18.50325 -47.75932,18.00214 z"
       sodipodi:nodetypes="ccccccccc" />
    <path
       id="path24291"
       style="fill:#e1700a;stroke-width:11.9811;stroke-linecap:round;stroke-linejoin:round;paint-order:stroke markers fill"
       inkscape:transform-center-x="0.42994933"
       inkscape:transform-center-y="2.2900235"
       transform="scale(0.26458333)"
       d="m 368.5,330.5 c 15.66091,-72.31919 37.11004,-143.55308 11.76748,-223.56042 l 52.67261,35.58607 C 439.83149,210.43774 393.93607,268.57448 368.5,330.5 Z"
       sodipodi:nodetypes="cccc" />
  </g>
</svg>
