<?xml version="1.0" encoding="UTF-8" standalone="no"?>
<!-- Created with Inkscape (http://www.inkscape.org/) -->

<svg width="210mm" height="297mm" viewBox="0 0 210 297" version="1.1" id="svg1" inkscape:version="1.3 (0e150ed6c4, 2023-07-21)" sodipodi:docname="жаба.svg" xmlns:inkscape="http://www.inkscape.org/namespaces/inkscape" xmlns:sodipodi="http://sodipodi.sourceforge.net/DTD/sodipodi-0.dtd" xmlns="http://www.w3.org/2000/svg" xmlns:svg="http://www.w3.org/2000/svg">
  <sodipodi:namedview id="namedview1" pagecolor="#ffffff" bordercolor="#666666" borderopacity="1.0" inkscape:showpageshadow="2" inkscape:pageopacity="0.0" inkscape:pagecheckerboard="0" inkscape:deskcolor="#d1d1d1" inkscape:document-units="mm" inkscape:zoom="2.2984007" inkscape:cx="407.67479" inkscape:cy="427.6887" inkscape:current-layer="layer1" />
  <defs id="defs1" />
  <g inkscape:label="Layer 1" inkscape:groupmode="layer" id="layer1">
    <path id="rect9" style="fill:#554a41;stroke-width:2.84001;paint-order:fill markers stroke" d="m 89.952127,121.18866 30.275163,1.3814 2.18009,6.16308 -9.46999,17.33786 -15.389671,0.0874 -9.89392,-19.27584 z" sodipodi:nodetypes="ccccccc" />
    <path id="rect8" style="fill:#6c5d51;stroke-width:2.84001;paint-order:fill markers stroke" d="m 98.857152,115.85067 6.286158,0.62099 -9.735772,3.83588 9.515902,3.84596 0.21742,2.48248 -15.188733,-5.44732 z" sodipodi:nodetypes="ccccccc" />
    <path id="rect8-3" style="fill:#6c5d51;stroke-width:2.84001;paint-order:fill markers stroke" d="m 111.20715,115.85066 -6.28616,0.62099 8.98751,5.04461 -8.98506,2.63724 v 2.48248 l 15.30385,-4.06592 z" sodipodi:nodetypes="ccccccc" />
    <path id="path8" style="fill:#2e2e2e;stroke-width:2.84001;paint-order:fill markers stroke" inkscape:transform-center-x="1.0216583" inkscape:transform-center-y="0.24479609" d="m 104.92344,124.1535 -10.970165,-3.18631 11.818165,-5.36072 10.5619,6.13092 z" sodipodi:nodetypes="ccccc" />
    <path id="rect7" style="fill:#566885;stroke-width:2.84001;paint-order:fill markers stroke" d="m 92.208321,98.833374 23.925919,0.518024 -4.83487,21.837262 -11.98902,-0.86338 z" sodipodi:nodetypes="ccccc" />
    <path id="rect2" style="fill:#7486a3;fill-opacity:1;stroke-width:0.539999;paint-order:fill markers stroke" d="M 36.139135,111.04911 81.279671,103.83488 98.606492,81.575531 96.935484,41.902325 24.757582,46.737205 14.315871,77.650156 Z" sodipodi:nodetypes="ccccccc" />
    <path id="rect2-3" style="fill:#7486a3;fill-opacity:1;stroke-width:0.539999;paint-order:fill markers stroke" d="m 168.4531,106.65353 -44.48934,-2.81865 -17.32682,-22.259349 0.75008,-45.429018 72.12204,7.334714 7.34852,34.567607 z" sodipodi:nodetypes="ccccccc" />
    <path id="rect1" style="fill:#697d9c;stroke-width:0.539999;paint-order:fill markers stroke" d="m 89.913399,78.048834 28.088371,0.690698 22.01981,23.444788 -12.58027,8.90288 -40.751167,4.14419 -16.711728,-10.01784 z" sodipodi:nodetypes="ccccccc" />
    <path id="path2" style="fill:#22334f;stroke-width:0.539999;paint-order:fill markers stroke" inkscape:transform-center-x="1.668691" inkscape:transform-center-y="-0.38163645" d="m 105,103.72186 14.38301,4.44956 -14.11383,2.31952 -14.365573,-1.22214 z" sodipodi:nodetypes="ccccc" />
    <path id="rect3" style="fill:#b8b8b8;stroke-width:0.539999;paint-order:fill markers stroke" d="M 97.136933,106.81598 105,103.72186 l 7.19151,2.22478 -5.27726,2.34899 h -3.77006 z" sodipodi:nodetypes="cccccc" />
    <path id="rect5" style="fill:#22334f;stroke:#22334f;stroke-width:2.84001;paint-order:fill markers stroke" d="m 22.030616,64.575809 49.435633,-4.144186 6.96876,7.818304 5.25968,19.997986 -59.281181,9.318019 -8.738854,-15.37557 z" sodipodi:nodetypes="ccccccc" />
    <path id="rect4" style="fill:#b8b8b8;stroke:none;stroke-width:2.66062;paint-order:fill markers stroke" d="M 17.822775,82.235685 76.619097,69.175747 81.546568,87.910633 26.009671,96.640112 Z" sodipodi:nodetypes="ccccc" />
    <path id="rect5-0" style="fill:#22334f;stroke:#22334f;stroke-width:2.84001;paint-order:fill markers stroke" d="m 184.00336,63.585393 -49.43563,-4.144186 -6.96876,7.818304 -5.25968,19.997986 59.28118,9.318019 8.73885,-15.37557 z" sodipodi:nodetypes="ccccccc" />
    <path id="rect4-8" style="fill:#b8b8b8;stroke:none;stroke-width:2.66062;paint-order:fill markers stroke" d="m 188.2112,81.245269 -59.77311,-9.845247 -3.95068,15.520195 55.5369,8.729479 z" sodipodi:nodetypes="ccccc" />
    <path sodipodi:type="star" style="fill:#22334f;fill-opacity:1;stroke:none;stroke-width:2.84001;stroke-dasharray:none;stroke-opacity:1;paint-order:fill markers stroke" id="path5" inkscape:flatsided="true" sodipodi:sides="3" sodipodi:cx="55.514462" sodipodi:cy="69.175743" sodipodi:r1="11.124519" sodipodi:r2="5.5622592" sodipodi:arg1="1.485591" sodipodi:arg2="2.5327886" inkscape:rounded="0" inkscape:randomized="0" d="M 56.461183,80.259905 45.441935,64.453547 64.640267,62.813777 Z" inkscape:transform-center-x="0.47336139" inkscape:transform-center-y="2.3610971" />
    <path sodipodi:type="star" style="fill:#22334f;fill-opacity:1;stroke:none;stroke-width:2.84001;stroke-dasharray:none;stroke-opacity:1;paint-order:fill markers stroke" id="path5-8" inkscape:flatsided="true" sodipodi:sides="3" sodipodi:cx="55.514462" sodipodi:cy="69.175743" sodipodi:r1="11.124519" sodipodi:r2="5.5622592" sodipodi:arg1="1.485591" sodipodi:arg2="2.5327886" inkscape:rounded="0" inkscape:randomized="0" d="M 56.461183,80.259905 45.441935,64.453547 64.640267,62.813777 Z" inkscape:transform-center-x="0.47336139" inkscape:transform-center-y="2.3610971" transform="translate(97.77392,2.3848378)" />
    <path id="path6" style="fill:#7486a3;stroke-width:2.84001;paint-order:fill markers stroke" inkscape:transform-center-x="1.3075111" inkscape:transform-center-y="-0.75712973" d="M 93.333276,86.222988 88.397979,84.282864 93.409235,79.03925 Z" sodipodi:nodetypes="cccc" />
    <path id="path6-7" style="fill:#7486a3;stroke-width:2.84001;paint-order:fill markers stroke" inkscape:transform-center-x="-0.8704439" inkscape:transform-center-y="-0.84984123" d="m 96.339465,90.661137 0.611339,-8.202692 4.517976,3.591869 z" sodipodi:nodetypes="cccc" />
    <path id="path7" style="fill:#7486a3;stroke-width:2.84001;paint-order:fill markers stroke" inkscape:transform-center-x="0.69366136" inkscape:transform-center-y="-0.20872079" d="m 89.943082,92.705206 -0.177255,-6.5837 4.884988,2.445935 z" sodipodi:nodetypes="cccc" />
    <path id="path9" style="fill:#645447;stroke-width:2.84001;paint-order:fill markers stroke" inkscape:transform-center-x="0.71175251" inkscape:transform-center-y="0.15344381" d="m 90.452619,123.95145 -0.500492,-2.76279 15.188733,5.44732 -2.03736,1.57538 z" sodipodi:nodetypes="ccccc" />
  </g>
</svg>
