<?xml version="1.0" encoding="UTF-8" standalone="no"?>
<!-- Created with Inkscape (http://www.inkscape.org/) -->

<svg width="210mm" height="297mm" viewBox="0 0 210 297" version="1.1" id="svg1" inkscape:version="1.3 (0e150ed6c4, 2023-07-21)" sodipodi:docname="neighbour.svg" xmlns:inkscape="http://www.inkscape.org/namespaces/inkscape" xmlns:sodipodi="http://sodipodi.sourceforge.net/DTD/sodipodi-0.dtd" xmlns="http://www.w3.org/2000/svg" xmlns:svg="http://www.w3.org/2000/svg">
  <sodipodi:namedview id="namedview1" pagecolor="#ffffff" bordercolor="#666666" borderopacity="1.0" inkscape:showpageshadow="2" inkscape:pageopacity="0.0" inkscape:pagecheckerboard="0" inkscape:deskcolor="#d1d1d1" inkscape:document-units="mm" inkscape:zoom="0.35355339" inkscape:cx="-229.1026" inkscape:cy="342.23968" inkscape:current-layer="layer1" />
  <defs id="defs1" />
  <g inkscape:label="Layer 1" inkscape:groupmode="layer" id="layer1">
    <path id="path3-7" style="fill:#e9e7e3;stroke:#8d6f5f;stroke-width:4.68815;stroke-linecap:round;stroke-opacity:1;paint-order:markers stroke fill" inkscape:transform-center-x="-1.6212084" inkscape:transform-center-y="2.9194701" d="M 116.25251,125.82217 85.899338,84.649241 141.9516,79.194045 169.31124,114.33495 Z" sodipodi:nodetypes="ccccc" />
    <path sodipodi:type="star" style="fill:#8d6f5f;stroke-width:0.489;stroke-linecap:round;paint-order:markers stroke fill" id="path1-9" inkscape:flatsided="true" sodipodi:sides="5" sodipodi:cx="31.851847" sodipodi:cy="-22.63773" sodipodi:r1="1.9034892" sodipodi:r2="0.95174462" sodipodi:arg1="2.3996454" sodipodi:arg2="3.0279639" inkscape:rounded="0" inkscape:randomized="0" d="m 30.448682,-21.351495 -0.253719,-2.223256 2.036038,-0.928324 1.51206,1.649519 -1.101534,1.947784 z" inkscape:transform-center-x="-0.8128913" inkscape:transform-center-y="-1.1277964" transform="matrix(3.942932,0,0,3.942932,19.325592,184.331)" />
    <path id="path16-5" style="fill:#ebc0a1;stroke-width:1.92809;stroke-linecap:round;paint-order:markers stroke fill" inkscape:transform-center-x="4.5219258" inkscape:transform-center-y="3.2901556" d="M 141.9516,79.194045 169.31124,114.33495 139.6025,91.540651 85.899338,84.649241 Z" sodipodi:nodetypes="ccccc" />
    <path id="path12" style="fill:#ffecd7;stroke-width:1.92809;stroke-linecap:round;paint-order:markers stroke fill" inkscape:transform-center-x="0.64967176" inkscape:transform-center-y="6.6557157" d="M 102.14088,179.7058 36.497384,153.92049 49.35266,18.433968 157.48129,37.581898 118.99165,136.43007 Z" sodipodi:nodetypes="cccccc" />
    <path id="path3" style="fill:#e9e7e3;stroke:#8d6f5f;stroke-width:4.68815;stroke-linecap:round;stroke-opacity:1;paint-order:markers stroke fill" inkscape:transform-center-x="-1.3867132" inkscape:transform-center-y="1.1168341" d="M 62.424012,123.33031 16.309766,101.19433 63.26177,70.095698 l 40.642,18.211559 z" sodipodi:nodetypes="ccccc" />
    <path id="path9" style="fill:#ebc0a1;fill-opacity:1;stroke-width:1.92809;stroke-linecap:round;paint-order:markers stroke fill" inkscape:transform-center-x="5.7858246" inkscape:transform-center-y="0.3199879" d="M 110.87143,94.809002 83.969296,130.63513 50.89129,140.8961 80.477991,126.41066 Z" sodipodi:nodetypes="ccccc" />
    <path id="path10" style="fill:#f4d4ba;fill-opacity:1;stroke-width:2.24156;stroke-linecap:round;paint-order:markers stroke fill" inkscape:transform-center-x="1.5612852" inkscape:transform-center-y="-2.8424959" d="m 115.92028,84.174599 8.09932,2.688772 7.18064,26.638789 -1.48438,33.06726 -6.90398,-2.07412 -2.03992,-30.83755 z" sodipodi:nodetypes="ccccccc" />
    <path id="path11" style="fill:#ebc0a1;fill-opacity:1;stroke-width:2.24156;stroke-linecap:round;paint-order:markers stroke fill" inkscape:transform-center-x="-0.28558957" inkscape:transform-center-y="1.2189722" d="m 112.28707,129.22244 -6.60356,1.70386 6.64156,-18.20837 3.59521,-28.543331 4.85168,29.483151 2.03992,30.83755 z" sodipodi:nodetypes="ccccccc" />
    <path id="path14" style="fill:#ffb554;stroke-width:1.92809;stroke-linecap:round;paint-order:markers stroke fill" inkscape:transform-center-x="-4.7045769" inkscape:transform-center-y="-1.80111" d="m 23.811277,23.956714 40.705414,-9.370354 36.007959,1.139519 33.57196,8.028042 -120.387535,60.87378 14.839508,-35.62137 z" sodipodi:nodetypes="ccccccc" />
    <path sodipodi:type="star" style="fill:#8d6f5f;stroke-width:0.489;stroke-linecap:round;paint-order:markers stroke fill" id="path1" inkscape:flatsided="true" sodipodi:sides="5" sodipodi:cx="31.851847" sodipodi:cy="-22.63773" sodipodi:r1="1.9034892" sodipodi:r2="0.95174462" sodipodi:arg1="2.3996454" sodipodi:arg2="3.0279639" inkscape:rounded="0" inkscape:randomized="0" d="m 30.448682,-21.351495 -0.253719,-2.223256 2.036038,-0.928324 1.51206,1.649519 -1.101534,1.947784 z" inkscape:transform-center-x="-0.8128918" inkscape:transform-center-y="-1.1277891" transform="matrix(3.942932,0,0,3.942932,-56.832058,172.92155)" />
    <path id="path16" style="fill:#ebc0a1;stroke-width:1.92809;stroke-linecap:round;paint-order:markers stroke fill" inkscape:transform-center-x="1.1726813" inkscape:transform-center-y="-1.6703222" d="m 63.26177,70.095698 40.642,18.211559 -45.514766,-9.033722 -42.079238,21.920795 z" sodipodi:nodetypes="ccccc" />
    <path id="rect14" style="fill:#ff912e;stroke-width:1.92809;stroke-linecap:round;paint-order:markers stroke fill" d="M 11.023181,70.185522 100.52465,34.001085 134.09661,14.58636 148.68282,28.74261 123.65487,51.866427 11.247005,99.069884 Z" sodipodi:nodetypes="ccccccc" />
    <path id="path15" style="fill:#ff912e;stroke-width:1.92809;stroke-linecap:round;paint-order:markers stroke fill" inkscape:transform-center-x="-3.122569" inkscape:transform-center-y="-0.33573516" d="m 53.074366,43.653272 -21.341254,13.17485 1.627701,-8.26944 -4.381606,-10.854123 z" sodipodi:nodetypes="ccccc" />
    <path id="path18" style="fill:#8d6f5f;stroke-width:1.92809;stroke-linecap:round;paint-order:markers stroke fill" inkscape:transform-center-x="0.65798088" inkscape:transform-center-y="-1.6262668" d="m 112.99878,160.83872 -8.43307,6.50444 -43.407597,-17.94819 -0.05291,-8.99085 9.656659,-2.98492 20.791372,18.16998 z" sodipodi:nodetypes="ccccccc" />
    <path id="path19" style="fill:#e9e7e3;stroke-width:1.92809;stroke-linecap:round;paint-order:markers stroke fill" inkscape:transform-center-x="0.91013382" inkscape:transform-center-y="-1.059144" d="m 109.00033,162.08953 -2.71386,1.50375 -1.79176,1.87258 -38.248747,-15.91969 4.056417,-2.97675 2.455193,-4.08658 18.341904,14.41506 z" sodipodi:nodetypes="cccccccc" />
  </g>
</svg>
