<?xml version="1.0" encoding="UTF-8" standalone="no"?>
<!-- Created with Inkscape (http://www.inkscape.org/) -->

<svg width="210mm" height="297mm" viewBox="0 0 210 297" version="1.1" id="svg1" inkscape:version="1.3 (0e150ed6c4, 2023-07-21)" sodipodi:docname="олд.svg" xmlns:inkscape="http://www.inkscape.org/namespaces/inkscape" xmlns:sodipodi="http://sodipodi.sourceforge.net/DTD/sodipodi-0.dtd" xmlns="http://www.w3.org/2000/svg" xmlns:svg="http://www.w3.org/2000/svg">
  <sodipodi:namedview id="namedview1" pagecolor="#646464" bordercolor="#666666" borderopacity="1.0" inkscape:showpageshadow="false" inkscape:pageopacity="0.0" inkscape:pagecheckerboard="true" inkscape:deskcolor="#d1d1d1" inkscape:document-units="mm" showborder="false" borderlayer="false" labelstyle="default" inkscape:clip-to-page="false" inkscape:zoom="3.2957842" inkscape:cx="127.58724" inkscape:cy="162.63201" inkscape:current-layer="layer1" />
  <defs id="defs1" />
  <g inkscape:label="Layer 1" inkscape:groupmode="layer" id="layer1">
    <path id="rect11" style="fill:#3c1217;stroke-width:1.17;stroke-linecap:square;paint-order:markers stroke fill;fill-opacity:1" d="m 9.2670584,50.464718 1.5468746,0.695384 3.718177,1.390768 H 9.2670584 Z" sodipodi:nodetypes="ccccc" />
    <path id="path20" style="opacity:1;fill:#9a9a9a;stroke-width:1.17;stroke-linecap:square;paint-order:markers stroke fill" inkscape:transform-center-x="-0.31108223" inkscape:transform-center-y="0.052893056" d="M 11.339455,15.428255 9.5145334,13.678446 13.0504,13.33344 12.734008,14.963662 Z" sodipodi:nodetypes="ccccc" />
    <path id="rect11-2" style="fill:#3c1217;stroke-width:1.17;stroke-linecap:square;paint-order:markers stroke fill;fill-opacity:1" d="m 6.853174,50.464718 1.5468747,0.695384 3.7181773,1.390768 H 6.853174 Z" sodipodi:nodetypes="ccccc" />
    <path id="rect10-5" style="fill:#ab7a5c;stroke-width:1.17;stroke-linecap:square;paint-order:markers stroke fill" d="m 17.612656,24.008433 c 0.645571,-3.418605 -4.942265,-9.192749 -4.942265,-9.192749 l -0.80155,2.923045 c 0,0 3.882605,3.830489 3.367636,6.066988 -0.514968,2.2365 -5.139232,3.551202 -5.139232,3.551202 l 0.719485,2.424812 c 0,0 6.244368,-2.852537 6.795926,-5.773298 z" sodipodi:nodetypes="acczcca" />
    <path id="path10" style="fill:#4f262b;stroke-width:1.17;stroke-linecap:square;paint-order:markers stroke fill;fill-opacity:1" inkscape:transform-center-x="-0.070575373" inkscape:transform-center-y="0.52533336" d="m 7.9228363,32.006113 -0.165507,-5.258796 4.5688727,-0.571256 -0.09561,5.328638 z" sodipodi:nodetypes="ccccc" />
    <path id="rect9" style="fill:#4f262b;fill-opacity:1;stroke-width:1.17;stroke-linecap:square;paint-order:markers stroke fill" d="m 6.9635002,26.015495 1.87276,-2.84417 c 0,0 1.1741478,10.598562 1.087355,15.923861 -0.06628,4.066864 -1.1725041,12.121682 -1.1725041,12.121682 l -2.2583722,-0.05677 c 0,0 1.4433494,-8.050337 1.5141342,-12.121682 0.062014,-3.566889 0.8915443,-8.849196 0.4474927,-12.378255 -0.219305,-1.742907 -1.4908656,-0.64467 -1.4908656,-0.64467 z" sodipodi:nodetypes="ccsccssc" />
    <path id="rect9-2" style="fill:#4f262b;fill-opacity:1;stroke-width:1.17;stroke-linecap:square;paint-order:markers stroke fill" d="m 9.2313375,23.114559 2.3066505,0 c 0,0 1.174148,10.598562 1.087355,15.923861 -0.06628,4.066864 -1.172504,12.121682 -1.172504,12.121682 l -2.3066505,0 c 0,0 1.4433485,-8.050337 1.5141335,-12.121682 0.09264,-5.328478 -1.4289845,-15.923861 -1.4289845,-15.923861 z" sodipodi:nodetypes="ccsccsc" />
    <path id="path9" style="fill:#bc8a6b;stroke-width:1.17;stroke-linecap:square;paint-order:markers stroke fill" inkscape:transform-center-x="0.17909218" inkscape:transform-center-y="0.42692654" d="m 10.051632,29.727006 c -0.9381283,4.201075 -0.7913114,7.279618 -4.4107772,10.30482 0,0 0.8730902,-8.234105 1.2233929,-12.927885 C 7.1087162,23.828256 5.9036694,15.148038 5.9036694,15.148038 l 2.2952228,-0.880259 2.2329898,2.538966 z" sodipodi:nodetypes="ccscccc" />
    <path id="path8" style="fill:#ab7a5c;stroke-width:1.17;stroke-linecap:square;paint-order:markers stroke fill" inkscape:transform-center-x="-0.048839648" inkscape:transform-center-y="1.0902378" d="M 9.344698,29.365749 9.2166812,18.12721 l 2.3193058,-3.133147 1.372975,0.621173 c 0,0 -0.844647,7.515093 -0.835566,11.288065 0.01042,4.328146 1.020838,12.944284 1.020838,12.944284 -1.139811,-0.829019 -2.246978,-5.533262 -3.749536,-10.481836 z" sodipodi:nodetypes="ccccacc" transform="translate(0.70693396,0.36125696)" />
    <path id="path6" style="fill:#9a9a9a;stroke-width:1.17;stroke-linecap:square;paint-order:markers stroke fill" inkscape:transform-center-x="-0.20894102" inkscape:transform-center-y="0.058328692" d="m 9.4943911,15.77868 -2.4529531,0.555835 0.1011591,-2.451048 0.594325,-0.845629 4.7948549,1.366787 0.758496,2.40212 z" sodipodi:nodetypes="ccccccc" />
    <path id="rect10" style="fill:#ab7a5c;stroke-width:1.17;stroke-linecap:square;paint-order:markers stroke fill" d="M 0.96140651,24.340787 C 0.31583538,20.922182 5.9036694,15.148038 5.9036694,15.148038 l 0.8015492,2.923045 c 0,0 -3.8826022,3.830489 -3.3676343,6.066988 0.5149679,2.2365 5.1392301,3.551202 5.1392301,3.551202 l -0.7194851,2.424812 c 0,0 -6.2443648,-2.852537 -6.79592279,-5.773298 z" sodipodi:nodetypes="acczcca" />
    <path id="rect4" style="fill:#9b8c8e;stroke-width:1.17;stroke-linecap:square;paint-order:markers stroke fill" d="m 8.2648194,11.388577 3.6141046,-0.295454 -0.901893,4.463533 -1.9403138,0.09379 z" sodipodi:nodetypes="ccccc" />
    <path id="rect1" style="fill:#e3e3e3;fill-opacity:1;stroke-width:1.04073;stroke-linecap:square;paint-order:markers stroke fill" d="m 8.4957815,6.802587 5.4936805,0.939236 c 0,0 -0.60539,3.63593 -1.481442,5.271437 -0.315994,0.589933 -0.42933,1.470267 -1.082299,1.608831 -1.349766,0.286433 -3.4448754,-1.831207 -3.4448754,-1.831207 L 7.3097267,9.1843658 Z" sodipodi:nodetypes="ccssccc" />
    <path d="m 13.170256,11.296468 c 0.02322,-0.07688 0.04736,-0.152863 0.06976,-0.230477 0.04214,-0.145959 0.08283,-0.292799 0.121956,-0.439249 0.03912,-0.146451 0.07671,-0.292476 0.112655,-0.436666 0.03595,-0.14419 0.07023,-0.2866366 0.102836,-0.4258141 0.06521,-0.278355 0.123278,-0.5442069 0.174149,-0.7859986 0.05087,-0.2417916 0.09449,-0.4596433 0.129708,-0.6428548 0.07044,-0.3664229 0.108004,-0.5937622 0.108004,-0.5937622 L 8.4956055,6.8026855 7.3096313,9.1844523 7.5091024,10.256738 c 0.00597,0.003 0.011587,0.0063 0.01757,0.0093 0.085078,0.04219 0.1714392,0.08297 0.2594157,0.122473 0.087976,0.03951 0.1772814,0.07786 0.2676839,0.114722 0.090402,0.03686 0.1820459,0.07271 0.2744018,0.10697 0.092356,0.03426 0.1857326,0.06701 0.2795695,0.0987 0.093837,0.03169 0.1883415,0.06231 0.2831869,0.09147 0.094845,0.02916 0.1898725,0.05705 0.2852539,0.08372 0.095381,0.02667 0.1908426,0.05175 0.2862874,0.07597 0.095445,0.02421 0.1907349,0.04745 0.2857707,0.06925 0.095036,0.02179 0.1900662,0.04208 0.2842208,0.06149 0.188308,0.03883 0.374091,0.0733 0.556038,0.102836 0.181947,0.02954 0.359945,0.05438 0.53175,0.07493 0.171806,0.02055 0.337694,0.03671 0.495577,0.04858 0.157884,0.01187 0.307853,0.01925 0.448035,0.02274 0.140182,0.0035 0.270424,0.003 0.389124,-0.0015 0.1187,-0.0046 0.234626,-0.0097 0.347782,-0.01602 0.113156,-0.0063 0.223748,-0.01389 0.331246,-0.02222 0.01311,-0.001 0.02522,-0.0026 0.03824,-0.0036 z" style="fill:#9b8c8e;stroke-width:1.04073;stroke-linecap:square;paint-order:markers stroke fill" id="path11" />
    <path id="rect5" style="fill:#e3e3e3;stroke-width:1.17;stroke-linecap:square;paint-order:markers stroke fill" d="m 8.7608474,14.12729 c 0.7343617,0.383363 1.3268006,0.979611 2.3028516,1.000439 l -0.176984,1.041057 -1.8499996,-0.51834 z" sodipodi:nodetypes="ccccc" />
    <path id="rect6" style="fill:#b2b2b2;stroke-width:1.17;stroke-linecap:square;paint-order:markers stroke fill" d="m 7.3154533,14.911923 -0.00573,-0.927216 0.5379434,-0.446365 2.6689209,2.040571 1.799894,-1.235658 0.835052,0.64961 -1.69783,2.401536 c -0.35804,0.05373 -0.675224,0.271942 -1.046744,0.259044 C 9.9146736,17.636353 9.3647654,17.37193 8.8683797,17.334601 Z" sodipodi:nodetypes="cccccccscc" />
    <path id="path18" style="opacity:1;fill:#9a9a9a;stroke-width:1.17;stroke-linecap:square;paint-order:markers stroke fill" inkscape:transform-center-x="-0.15160544" inkscape:transform-center-y="-0.03206458" d="M 9.8241824,16.120698 7.7942756,16.103285 7.9755942,14.534409 Z" sodipodi:nodetypes="cccc" />
    <path id="path7" style="fill:#ab7a5c;fill-opacity:1;stroke-width:1.17;stroke-linecap:square;paint-order:markers stroke fill" inkscape:transform-center-x="0.0054086908" inkscape:transform-center-y="-0.6102353" d="m 5.9036694,16.806745 c 1.2099424,-0.699651 0.9843498,-2.023447 0.9400895,-3.268403 l 3.5881231,4.143881 C 9.7256886,18.102138 9.2794093,18.868604 8.1101781,18.671135 L 8.132304,17.14574 Z" sodipodi:nodetypes="cccccc" />
    <path id="path17" style="opacity:1;fill:#9a9a9a;stroke-width:1.17;stroke-linecap:square;paint-order:markers stroke fill" inkscape:transform-center-x="0.07820163" inkscape:transform-center-y="0.068181377" d="m 10.588285,17.35037 -0.422429,-0.268556 1.13521,-0.81382 0.480813,-1.119956 -0.0928,1.426928 z" sodipodi:nodetypes="cccccc" />
    <path id="path7-2" style="fill:#bc8a6b;fill-opacity:1;stroke-width:1.17;stroke-linecap:square;paint-order:markers stroke fill" inkscape:transform-center-x="-0.0054083092" inkscape:transform-center-y="-0.6102353" d="m 14.392434,16.902091 c -0.460289,-0.965568 -1.31513,-1.796989 -0.904611,-3.058632 -1.90552,1.489806 -4.6502223,5.745534 -4.8985808,8.454825 0.9516747,0.03377 1.3320734,-1.960454 2.3989228,-3.235916 0.391254,-0.467759 1.239673,-0.860443 1.543612,-1.058407 l 0.199686,-0.858221 z" sodipodi:nodetypes="cccsccc" />
    <path id="rect12" style="fill:#ab7a5c;stroke-width:1.17;stroke-linecap:square;paint-order:markers stroke fill" transform="rotate(5.4183348)" d="m 10.472184,25.300252 1.128935,0.149007 0,4.810923 h -1.110314 z" sodipodi:nodetypes="ccccc" />
    <path id="rect12-9" style="fill:#bc8a6b;stroke-width:1.17;stroke-linecap:square;paint-order:markers stroke fill" transform="matrix(-0.9955318,0.09442689,0.09442689,0.9955318,0,0)" d="m -10.104241,27.280351 0.8827367,0.143948 v 4.810924 l -0.7286948,-0.102229 z" sodipodi:nodetypes="ccccc" />
    <path id="path12" style="fill:#493b31;stroke-width:1.17;stroke-linecap:square;paint-order:markers stroke fill" inkscape:transform-center-x="-0.046539563" inkscape:transform-center-y="-0.15622297" d="m 9.6636238,12.603854 -0.1490904,-0.941686 1.0208106,0.158951 -0.03954,-0.988819 0.99503,1.18887 -1.324982,0.267728 z" sodipodi:nodetypes="ccccccc" />
    <path id="path13" style="fill:#493b31;stroke-width:1.17;stroke-linecap:square;paint-order:markers stroke fill" inkscape:transform-center-x="0.050174707" inkscape:transform-center-y="-0.12093427" d="m 11.299314,12.393121 -0.04683,1.8003 -0.37269,-1.376715 -0.2302,0.232431 -0.406485,0.637976 -0.6070524,-0.07346 0.4611884,-0.800929 z" sodipodi:nodetypes="cccccccc" />
    <path id="path14" style="fill:#493b31;stroke-width:1.17;stroke-linecap:square;paint-order:markers stroke fill" inkscape:transform-center-x="0.085071342" inkscape:transform-center-y="-0.043713893" d="M 10.168147,11.492709 9.3548622,11.198014 8.8609194,10.531987 10.016719,10.641036 Z" sodipodi:nodetypes="ccccc" />
    <path id="path14-2" style="fill:#493b31;stroke-width:1.17;stroke-linecap:square;paint-order:markers stroke fill" inkscape:transform-center-x="-0.085071658" inkscape:transform-center-y="-0.043713893" d="m 12.926909,11.492709 0.243347,-0.196241 0.205908,-0.464168 -0.255252,0.08034 z" sodipodi:nodetypes="ccccc" />
    <path id="path12-2" style="fill:#493b31;stroke-width:1.17;stroke-linecap:square;paint-order:markers stroke fill" inkscape:transform-center-x="0.046539537" inkscape:transform-center-y="-0.15622297" d="m 12.98767,12.026634 0.06273,-0.344656 -0.313031,0.219479 0.03954,-0.988819 -0.99503,1.18887 0.986761,0.371951 z" sodipodi:nodetypes="ccccccc" />
    <path id="path13-6" style="fill:#493b31;stroke-width:1.17;stroke-linecap:square;paint-order:markers stroke fill" inkscape:transform-center-x="-0.050174733" inkscape:transform-center-y="-0.12093427" d="m 11.9734,12.473459 -0.284322,1.719962 0.60851,-1.351569 0.05991,0.166391 -0.05757,0.479351 0.38341,-0.835005 2e-6,10e-7 z" sodipodi:nodetypes="cccccccc" />
    <path sodipodi:type="star" style="fill:#493b31;fill-opacity:1;stroke-width:1.17;stroke-linecap:square;paint-order:markers stroke fill" id="path15" inkscape:flatsided="true" sodipodi:sides="3" sodipodi:cx="11.560223" sodipodi:cy="11.693048" sodipodi:r1="0.78348923" sodipodi:r2="0.39174464" sodipodi:arg1="1.5707963" sodipodi:arg2="2.6179939" inkscape:rounded="0" inkscape:randomized="0" d="m 11.560223,12.476537 -0.678522,-1.175234 1.357043,0 z" inkscape:transform-center-y="0.083491921" transform="matrix(0.42625731,0,0,0.42625731,4.586904,8.0646295)" />
    <path id="path2" style="fill:#ab7a5c;fill-opacity:1;stroke-width:1.04073;stroke-linecap:square;paint-order:markers stroke fill" inkscape:transform-center-x="0.09669277" inkscape:transform-center-y="-0.40904246" d="M 5.5221871,7.2294084 C 5.4797422,6.452594 6.4501878,6.2913989 7.4867252,5.9693406 9.4681436,5.3537023 11.894847,5.5845647 13.673676,6.6526449 c 1.015473,0.60973 2.368504,1.4113605 2.136895,2.4769138 -0.261633,1.2036993 -1.458419,1.4700723 -3.357622,1.5435293 -1.899204,0.07346 -6.7900162,-0.8678095 -6.9307619,-3.4436796 z" sodipodi:nodetypes="assaza" />
    <path id="rect2" style="fill:#ab7a5c;fill-opacity:1;stroke-width:1.04073;stroke-linecap:square;paint-order:markers stroke fill" d="m 10.892592,3.4271158 c 0.827513,0.7095922 1.951715,1.0304302 3.043073,1.3943011 L 13.803586,8.6631537 12.233929,9.1425271 9.6030219,8.4293395 7.3585511,7.3528461 8.8992073,4.1217574 C 9.6789762,4.136895 10.424698,4.0791923 10.892592,3.4271158 Z" sodipodi:nodetypes="cccccccc" />
    <path id="rect3" style="fill:#853842;stroke-width:1.04073;stroke-linecap:square;paint-order:markers stroke fill" d="m 8.1288791,5.7373018 c 0,0 2.7588529,1.7857521 4.3023409,1.7225147 0.535365,-0.021934 1.438405,-0.7175313 1.438405,-0.7175313 l -0.06604,1.9208685 c 0,0 -1.02265,0.4707066 -1.569657,0.4793734 C 10.961576,9.1626861 8.7133358,8.0759281 7.35855,7.352846 Z" sodipodi:nodetypes="csccscc" />
    <path id="path16" style="opacity:1;fill:#9a9a9a;stroke-width:1.17;stroke-linecap:square;paint-order:markers stroke fill;fill-opacity:1" inkscape:transform-center-x="0.019010072" inkscape:transform-center-y="0.13656917" d="M 10.135265,16.65796 9.9617152,15.909616 8.1677757,14.498257 10.588285,15.842829 Z" sodipodi:nodetypes="ccccc" />
    <path id="path19" style="opacity:1;fill:#9a9a9a;stroke-width:1.17;stroke-linecap:square;paint-order:markers stroke fill" inkscape:transform-center-x="0.04505506" inkscape:transform-center-y="0.022346419" d="m 11.173879,16.168786 -0.624003,0.359842 0.256192,-0.698084 0.68477,-0.537402 z" sodipodi:nodetypes="ccccc" />
  </g>
</svg>
