<?xml version="1.0" encoding="UTF-8" standalone="no"?>
<!-- Created with Inkscape (http://www.inkscape.org/) -->

<svg width="210mm" height="297mm" viewBox="0 0 210 297" version="1.1" id="svg1" inkscape:version="1.3 (0e150ed6c4, 2023-07-21)" sodipodi:docname="рой.svg" xmlns:inkscape="http://www.inkscape.org/namespaces/inkscape" xmlns:sodipodi="http://sodipodi.sourceforge.net/DTD/sodipodi-0.dtd" xmlns="http://www.w3.org/2000/svg" xmlns:svg="http://www.w3.org/2000/svg">
  <sodipodi:namedview id="namedview1" pagecolor="#ffffff" bordercolor="#666666" borderopacity="1.0" inkscape:showpageshadow="2" inkscape:pageopacity="0.0" inkscape:pagecheckerboard="0" inkscape:deskcolor="#d1d1d1" inkscape:document-units="mm" inkscape:zoom="1.1652357" inkscape:cx="383.61338" inkscape:cy="214.54887" inkscape:current-layer="layer1" />
  <defs id="defs1">
    <inkscape:path-effect effect="powerstroke" id="path-effect7" is_visible="true" lpeversion="1.3" scale_width="1" interpolator_type="CubicBezierJohan" interpolator_beta="0" start_linecap_type="square" end_linecap_type="zerowidth" offset_points="0.2,0.58499998 | 0.5,0.58499998 | 0.8,0.58499998" linejoin_type="round" miter_limit="1.7" not_jump="false" sort_points="false" message="&lt;b&gt;Ctrl + click&lt;/b&gt; on existing node and move it" />
  </defs>
  <g inkscape:label="Layer 1" inkscape:groupmode="layer" id="layer1">
    <rect style="fill:#eaddd7;fill-opacity:1;stroke:none;stroke-width:1.99261;stroke-linecap:round;stroke-dasharray:none;stroke-opacity:1;paint-order:markers stroke fill" id="rect18-5" width="15.189602" height="97.873108" x="-94.777336" y="169.54536" transform="matrix(-0.99556917,0.09403206,0.09403206,0.99556917,0,0)" />
    <path id="rect17-0" style="fill:#527b41;fill-opacity:1;stroke-width:1.99261;stroke-linecap:round;paint-order:markers stroke fill" d="m 106.86255,112.30635 -11.014139,10.69963 -3.490718,20.70007 10.451677,69.7304 19.51404,-24.68734 -10.3435,-65.74313 z" sodipodi:nodetypes="ccccccc" />
    <rect style="fill:#eaddd7;fill-opacity:1;stroke:none;stroke-width:1.99261;stroke-linecap:round;stroke-dasharray:none;stroke-opacity:1;paint-order:markers stroke fill" id="rect18" width="15.189602" height="97.873108" x="80.017639" y="162.30217" transform="rotate(5.3956116)" />
    <path id="path2-5" style="fill:#e5c7b9;fill-opacity:1;stroke-width:1.72536;stroke-linecap:square;paint-order:markers stroke fill" inkscape:transform-center-x="-1.5715618" inkscape:transform-center-y="-2.2009991" d="m 65.789734,64.843329 c 7.303731,0.324008 12.103943,-6.315426 17.760689,-10.572444 L 94.727582,33.709539 101.67196,51.225522 93.951268,70.834267 C 85.051001,76.998444 76.565959,83.999404 64.503394,83.790978 68.951795,78.332737 74.863181,73.464392 74.368062,66.012877 71.279,68.276913 68.510104,66.840548 65.789734,64.843329 Z" sodipodi:nodetypes="cccccccc" />
    <path id="rect13" style="fill:#527b41;fill-opacity:1;stroke-width:1.99261;stroke-linecap:round;paint-order:markers stroke fill" d="m 75.945382,108.97961 27.124588,1.53414 3.79258,1.7926 -0.63501,68.19392 1.72566,71.22568 -9.060374,12.62291 -3.520134,-36.25395 -5.155459,38.0869 -20.656934,-16.23216 4.400105,-68.88401 -6.121373,-59.53405 z" sodipodi:nodetypes="cccccccccccc" />
    <path id="rect9" style="fill:#eaddd7;fill-opacity:1;stroke-width:1.99261;stroke-linecap:round;paint-order:markers stroke fill" d="m 69.450132,48.387493 21.767877,-0.967982 c 3.401026,22.506344 3.935697,45.894648 10.344661,67.475479 l -27.602266,0.37411 c 0.220612,-3.20764 2.02282,-1.51287 2.003048,-4.72051 -0.127729,-20.720366 -4.710669,-41.440734 -6.51332,-62.161097 z" sodipodi:nodetypes="ccccsc" />
    <path id="path13" style="fill:#eaddd7;stroke-width:1.99261;stroke-linecap:round;paint-order:markers stroke fill" inkscape:transform-center-x="4.0093876" inkscape:transform-center-y="-0.50793328" d="m 96.332788,148.5 -22.372384,-33.2309 20.817343,-8.99556 7.831863,5.85886 z" sodipodi:nodetypes="ccccc" />
    <path d="m 90.140166,47.467409 -20.690153,0.920017 c 0.130105,1.4955 0.27478,2.990922 0.431138,4.486421 0.156352,1.4955 0.324553,2.991227 0.501712,4.486727 0.354318,2.990999 0.744899,5.981842 1.149796,8.972841 0.40489,2.990997 0.824012,5.982149 1.235957,8.973149 0.294025,2.134826 0.572039,4.269551 0.850656,6.404371 l 22.713516,8.000576 c -0.387903,-2.726122 -0.74176,-5.462758 -1.070346,-8.207128 -0.33998,-2.839489 -0.656409,-5.686286 -0.966464,-8.534988 -0.310049,-2.848701 -0.613695,-5.699501 -0.92796,-8.546902 -0.314265,-2.847402 -0.639196,-5.691443 -0.991823,-8.527041 -0.30746,-2.472415 -0.648929,-4.934421 -1.009846,-7.390388 -0.293984,-0.253865 -0.569597,-0.515867 -0.872356,-0.765103 -0.113839,-0.09372 -0.238788,-0.179564 -0.353827,-0.272552 z" style="fill:#ecd3c8;fill-opacity:1;stroke-width:1.72536;stroke-linecap:square;paint-order:markers stroke fill" id="path10" />
    <path d="m 88.89638,48.680005 c 0.115039,0.09299 0.239988,0.178835 0.353827,0.272552 0.302759,0.249236 0.578372,0.511238 0.872356,0.765102 -0.05304,-0.360767 -0.09375,-0.725299 -0.148198,-1.085626 z" style="fill:#e5c7b9;stroke-width:1.99261;stroke-linecap:round;paint-order:markers stroke fill" id="path11" />
    <path id="path4-9" style="fill:#ffffff;fill-opacity:1;stroke:#48251b;stroke-width:1.99261;stroke-linecap:square;stroke-dasharray:none;stroke-opacity:1;paint-order:markers stroke fill" inkscape:transform-center-x="0.26576001" inkscape:transform-center-y="0.77454586" d="m 114.2224,49.710597 12.04348,10.394702 -15.40557,3.542715 -8.79221,-9.619734 z" sodipodi:nodetypes="ccccc" />
    <path id="path6-0" style="fill:#48251b;fill-opacity:1;stroke-width:1.88632;stroke-linecap:square;paint-order:markers stroke fill" inkscape:transform-center-x="-0.71487594" inkscape:transform-center-y="1.0507264" d="m 110.159,60.95619 -0.47727,-7.092265 4.67034,-0.483521 -1.06174,2.134059 z" sodipodi:nodetypes="ccccc" />
    <path id="path5-4" style="fill:#48251b;fill-opacity:1;stroke-width:1.51956;stroke-linecap:square;paint-order:markers stroke fill" inkscape:transform-center-x="1.0303664" inkscape:transform-center-y="1.7237672" d="M 114.23003,49.213846 126.26588,60.1053 c -9.29249,-4.85695 -13.5457,-5.479066 -24.19778,-6.077019 z" sodipodi:nodetypes="cccc" />
    <path id="path9-9" style="fill:#48251b;stroke-width:1.84361;stroke-linecap:round;paint-order:markers stroke fill" inkscape:transform-center-x="-0.2706554" inkscape:transform-center-y="-0.37632595" d="m 108.47365,66.20101 -4.8017,-5.140409 -0.75788,-5.745572 -2.59519,-1.721308 1.37204,8.251003 z" sodipodi:nodetypes="cccccc" />
    <path id="path7-9" style="fill:#ecd3c8;fill-opacity:1;stroke-width:1.72536;stroke-linecap:square;paint-order:markers stroke fill" inkscape:transform-center-x="1.5815557" inkscape:transform-center-y="-0.066409349" d="m 107.78329,22.810157 c 2.26129,8.03476 0.29548,16.170829 -5.64762,22.110851 L 89.442296,32.481002 C 99.45068,28.906766 105.06901,28.653669 107.78329,22.810157 Z" sodipodi:nodetypes="cccc" />
    <path id="path1" style="fill:#eaddd7;fill-opacity:1;stroke-width:1.72536;stroke-linecap:square;paint-order:markers stroke fill" inkscape:transform-center-x="0.63624599" inkscape:transform-center-y="-6.0181169" d="m 96.022046,18.985404 c -2.652251,5.709958 -7.948747,6.523263 -17.67334,9.439734 -3.006055,0.901536 -6.439917,1.615922 -6.439917,1.615922 L 57.785103,62.307825 138.39827,90.702991 c 0,0 17.884,-2.933517 17.59531,-9.610266 -0.34523,-7.984516 -23.00944,-10.651337 -44.29445,-22.086508 -8.06227,-4.331372 -2.66354,-11.787211 -8.61343,-18.077966 -2.2569,-2.386196 -4.976741,-4.716672 -7.957656,-6.748425 2.044949,-4.684625 2.366923,-9.960871 0.894002,-15.194422 z" sodipodi:nodetypes="cscccssscc" />
    <path id="path2" style="fill:#ecd3c8;stroke-width:1.72536;stroke-linecap:square;paint-order:markers stroke fill" inkscape:transform-center-x="-1.571562" inkscape:transform-center-y="-2.200999" d="m 42.970941,61.174874 c 7.30373,0.324008 12.103943,-6.315425 17.760688,-10.572444 l 11.17716,-20.561346 6.944381,17.515983 -7.720695,19.608744 c -8.900267,6.164177 -17.385309,13.165137 -29.447874,12.956711 4.448401,-5.458241 10.359787,-10.326589 9.864668,-17.7781 -3.089062,2.264038 -5.857958,0.827669 -8.578328,-1.169548 z" sodipodi:nodetypes="cccccccc" />
    <path id="path3" style="fill:#48251b;fill-opacity:1;stroke-width:1.72536;stroke-linecap:square;paint-order:markers stroke fill" inkscape:transform-center-x="-1.3975324" inkscape:transform-center-y="-0.34567105" d="m 149.14248,86.565628 c 0.88195,-3.176282 0.85916,-4.279822 -0.42774,-8.398756 3.29831,-1.275207 5.8812,-0.703954 7.27898,2.925963 -2.35303,2.484414 -2.99867,2.951938 -6.85124,5.472793 z" sodipodi:nodetypes="cccc" />
    <path id="path4" style="fill:#ffffff;fill-opacity:1;stroke:#48251b;stroke-width:1.99261;stroke-linecap:square;stroke-dasharray:none;stroke-opacity:1;paint-order:markers stroke fill" inkscape:transform-center-x="0.28254105" inkscape:transform-center-y="1.539293" d="M 85.506398,43.981199 70.083817,47.88492 82.273679,57.949191 94.442042,53.283015 Z" sodipodi:nodetypes="ccccc" />
    <path id="path6" style="fill:#48251b;fill-opacity:1;stroke-width:1.88632;stroke-linecap:square;paint-order:markers stroke fill" inkscape:transform-center-x="-0.093581992" inkscape:transform-center-y="0.79049562" d="m 80.418339,54.659573 -2.169386,-6.769184 4.41688,-1.592823 -0.517186,2.326803 z" sodipodi:nodetypes="ccccc" />
    <path id="path5" style="fill:#48251b;fill-opacity:1;stroke-width:1.51956;stroke-linecap:square;paint-order:markers stroke fill" inkscape:transform-center-x="0.92788625" inkscape:transform-center-y="1.9795348" d="M 85.721943,43.533581 70.083817,47.88492 c 10.483637,-0.183311 14.565386,1.164355 24.358225,5.398095 z" sodipodi:nodetypes="cccc" />
    <path id="path7-8" style="fill:#eaddd7;stroke-width:1.72536;stroke-linecap:square;paint-order:markers stroke fill" inkscape:transform-center-x="1.5815531" inkscape:transform-center-y="-0.066409159" d="m 103.8474,20.356679 c 2.26129,8.03476 0.29547,16.170829 -5.64763,22.110851 L 85.506398,30.027524 C 95.514782,26.453288 101.13311,26.200191 103.8474,20.356679 Z" sodipodi:nodetypes="cccc" />
    <path style="fill:#dfc5ba;fill-opacity:1;stroke:#48251b;stroke-width:1.84361;stroke-linecap:round;stroke-dasharray:none;stroke-opacity:1;paint-order:markers stroke fill" d="M 82.714046,77.051991 107.55184,73.292755" id="path8" />
    <path id="rect14" style="fill:#446d3e;fill-opacity:1;stroke-width:1.99261;stroke-linecap:round;paint-order:markers stroke fill" d="M 75.925273,107.97847 104.09433,160.93429 90.24157,267.6069 85.619392,262.56884 98.597984,162.34024 71.89221,115.2556 Z" sodipodi:nodetypes="ccccccc" />
    <path id="rect15" style="fill:#446d3e;fill-opacity:1;stroke-width:1.99261;stroke-linecap:round;paint-order:markers stroke fill" d="m 99.374157,107.35092 4.530303,3.647 -5.550325,46.1136 -6.034892,-5.50649 z" sodipodi:nodetypes="ccccc" />
    <path id="rect16" style="fill:#446d3e;fill-opacity:1;stroke-width:1.99261;stroke-linecap:round;paint-order:markers stroke fill" d="m 92.108688,212.45454 2.122586,-16.39191 9.191736,61.97478 -4.53019,6.31144 z" sodipodi:nodetypes="ccccc" />
    <path id="rect17" style="fill:#527b41;fill-opacity:1;stroke-width:1.99261;stroke-linecap:round;paint-order:markers stroke fill" d="m 67.839031,121.53159 11.014139,10.69963 3.490718,20.70007 -10.451678,69.7304 -19.514039,-24.68734 10.343504,-65.74313 z" sodipodi:nodetypes="ccccccc" />
    <path style="fill:none;fill-rule:nonzero;stroke:#48251b;stroke-width:1.17;stroke-linecap:square;stroke-dasharray:none;stroke-opacity:1;paint-order:markers stroke fill" d="m 95.438101,54.025989 c -1.213087,4.217708 -2.902305,6.152836 -9.624451,6.527244" id="path7" sodipodi:nodetypes="cc" />
    <path style="fill:none;fill-rule:nonzero;stroke:#48251b;stroke-width:1.17;stroke-linecap:square;stroke-dasharray:none;stroke-opacity:1;paint-order:markers stroke fill" d="m 111.33867,42.23074 c 3.77006,-2.246611 6.32597,-2.502576 11.48531,1.822768" id="path7-89" sodipodi:nodetypes="cc" />
    <path style="fill:none;fill-rule:nonzero;stroke:#48251b;stroke-width:1.17;stroke-linecap:square;stroke-dasharray:none;stroke-opacity:1;paint-order:markers stroke fill" d="m 79.647833,37.62749 c 3.77006,-2.246611 6.32597,-2.502576 11.48531,1.822768" id="path7-89-0" sodipodi:nodetypes="cc" />
  </g>
</svg>
