<?xml version="1.0" encoding="UTF-8" standalone="no"?>
<!-- Created with Inkscape (http://www.inkscape.org/) -->

<svg width="210mm" height="297mm" viewBox="0 0 210 297" version="1.1" id="svg1" inkscape:version="1.3 (0e150ed6c4, 2023-07-21)" sodipodi:docname="жензтга.svg" xmlns:inkscape="http://www.inkscape.org/namespaces/inkscape" xmlns:sodipodi="http://sodipodi.sourceforge.net/DTD/sodipodi-0.dtd" xmlns="http://www.w3.org/2000/svg" xmlns:svg="http://www.w3.org/2000/svg">
  <sodipodi:namedview id="namedview1" pagecolor="#ffffff" bordercolor="#666666" borderopacity="1.0" inkscape:showpageshadow="2" inkscape:pageopacity="0.0" inkscape:pagecheckerboard="0" inkscape:deskcolor="#d1d1d1" inkscape:document-units="mm" inkscape:zoom="1.6478921" inkscape:cx="554.04112" inkscape:cy="492.7507" inkscape:current-layer="layer1" />
  <defs id="defs1" />
  <g inkscape:label="Layer 1" inkscape:groupmode="layer" id="layer1">
    <rect style="fill:#a49a7d;fill-opacity:1;stroke:none;stroke-width:1.644;stroke-linecap:round;stroke-linejoin:miter;stroke-dasharray:none;stroke-opacity:1;paint-order:fill markers stroke" id="rect22" width="158.94495" height="192.09633" x="17.483946" y="32.016056" />
    <path id="path22" style="fill:#f5edd4;stroke-width:1.644;stroke-linecap:round;paint-order:fill markers stroke" inkscape:transform-center-x="1.2805064" inkscape:transform-center-y="-0.50206648" d="m 87.47161,197.31935 -0.384756,6.29092 -10.426887,8.63813 -4.625236,-5.13702 11.288529,-11.0768 z" sodipodi:nodetypes="cccccc" />
    <path id="path22-2" style="fill:#f5edd4;stroke-width:1.644;stroke-linecap:round;paint-order:fill markers stroke" inkscape:transform-center-x="1.2493582" inkscape:transform-center-y="1.4256468" d="m 99.71442,196.54149 1.33449,7.34396 -10.915787,9.60449 -7.302414,-2.93004 12.598805,-14.7248 z" sodipodi:nodetypes="cccccc" />
    <rect style="fill:#f5edd4;fill-opacity:1;stroke:none;stroke-width:1.644;stroke-linecap:round;stroke-linejoin:miter;stroke-dasharray:none;stroke-opacity:1;paint-order:fill markers stroke" id="rect19" width="11.224161" height="9.7940779" x="101.08116" y="123.27884" transform="rotate(5.6032643)" />
    <path id="rect11" style="fill:#f5edd4;stroke-width:1.644;stroke-linecap:round;paint-order:fill markers stroke" d="m 73.26617,135.22848 15.198051,-25.07885 6.213593,2.68241 -20.330702,25.98662 z" sodipodi:nodetypes="ccccc" />
    <path id="path11" style="fill:#807c71;stroke-width:1.644;stroke-linecap:round;paint-order:fill markers stroke" inkscape:transform-center-x="1.8001412" inkscape:transform-center-y="0.65408972" d="m 88.464221,110.14963 8.931045,2.23096 0.182976,6.95778 0.564465,10.28246 -14.826459,-11.73123 z" sodipodi:nodetypes="cccccc" />
    <path id="rect11-7" style="fill:#f5edd4;stroke-width:1.644;stroke-linecap:round;paint-order:fill markers stroke" d="m 113.45612,140.37414 -9.10737,-27.87445 -6.66034,1.20165 13.89989,29.92382 z" sodipodi:nodetypes="ccccc" />
    <path id="path11-5" style="fill:#807c71;stroke-width:1.644;stroke-linecap:round;paint-order:fill markers stroke" inkscape:transform-center-x="-0.72600877" inkscape:transform-center-y="0.46132231" d="m 104.34875,112.49969 -9.20433,0.14502 -1.75786,6.73456 -2.88422,9.8858 17.1027,-8.05875 z" sodipodi:nodetypes="cccccc" />
    <path id="path9" style="fill:#e8ddbe;stroke-width:1.644;stroke-linecap:round;paint-order:fill markers stroke" inkscape:transform-center-x="0.43144406" inkscape:transform-center-y="1.0713859" d="m 94.674371,109.62264 0.986783,-9.37319 4.961116,1.17961 -3.041439,8.50192 z" sodipodi:nodetypes="ccccc" />
    <path id="path5" style="fill:#eed37f;stroke-width:2.044;stroke-linecap:round;stroke-linejoin:round;paint-order:fill markers stroke" inkscape:transform-center-x="-3.1714513" inkscape:transform-center-y="1.4384259" d="M 63.736747,103.74851 82.388922,81.025446 79.075001,66.259462 105.67419,74.685052 95.097818,101.68771 Z" sodipodi:nodetypes="cccccc" />
    <path id="path5-9" style="fill:#eed37f;stroke-width:2.044;stroke-linecap:round;stroke-linejoin:round;paint-order:fill markers stroke" inkscape:transform-center-x="3.702491" inkscape:transform-center-y="2.4100079" d="M 133.02568,114.09614 115.0094,83.717221 119.73411,77.003802 92.445442,75.15728 100.3641,103.05527 Z" sodipodi:nodetypes="cccccc" />
    <path id="path3" style="fill:#e6c972;fill-opacity:1;stroke-width:2.044;stroke-linecap:round;stroke-linejoin:round;paint-order:fill markers stroke" inkscape:transform-center-x="-0.16155782" inkscape:transform-center-y="3.0961479" d="m 78.851324,56.818523 7.802711,11.366781 24.434355,2.95567 L 91.980155,90.804442 77.953728,76.503427 Z" sodipodi:nodetypes="cccccc" />
    <path id="path3-7" style="fill:#e6c972;fill-opacity:1;stroke-width:2.044;stroke-linecap:round;stroke-linejoin:round;paint-order:fill markers stroke" inkscape:transform-center-x="-2.664879" inkscape:transform-center-y="5.6136914" d="m 141.43324,70.574589 -12.94039,7.140781 -20.70451,-7.730394 7.4639,26.383075 18.68983,-6.874929 z" sodipodi:nodetypes="cccccc" />
    <path id="path1" style="fill:#f5edd4;fill-opacity:1;stroke-width:2.044;stroke-linecap:round;stroke-linejoin:round;paint-order:fill markers stroke" d="M 111.76652,70.574589 91.952742,87.12345 78.971105,84.986629 c -0.843377,5.122941 2.799562,10.584692 9.556523,14.327802 6.756896,3.742999 15.601122,5.198749 23.201172,3.818889 11.39226,-2.08571 13.32172,-8.590679 13.64464,-10.508399 L 115.31462,90.96921 Z" sodipodi:nodetypes="cccccccc" />
    <path id="rect1" style="fill:#f5d676;stroke-width:2.044;stroke-linecap:round;stroke-linejoin:round;paint-order:fill markers stroke" d="M 80.291434,80.179809 106.38221,71.027966 97.069814,89.331651 70.898753,90.455562 59.826612,65.826787 Z" sodipodi:nodetypes="cccccc" />
    <path id="rect1-9" style="fill:#f5d676;stroke-width:2.044;stroke-linecap:round;stroke-linejoin:round;paint-order:fill markers stroke" d="m 125.37361,92.624971 -12.93012,-24.439667 -5.59972,19.75826 18.44242,18.602826 24.85575,-10.552749 z" sodipodi:nodetypes="cccccc" />
    <path id="path2" style="fill:#ffe288;stroke-width:2.044;stroke-linecap:round;stroke-linejoin:round;paint-order:fill markers stroke" inkscape:transform-center-x="-1.4358918" inkscape:transform-center-y="-1.3262297" d="M 74.270483,111.6493 83.984284,89.893606 100.62227,65.826787 112.44349,68.185304 105,84.420648 Z" sodipodi:nodetypes="cccccc" />
    <path id="path4-9" style="fill:#ffe288;stroke-width:2.044;stroke-linecap:round;stroke-linejoin:round;paint-order:fill markers stroke" inkscape:transform-center-x="1.978573" inkscape:transform-center-y="-1.1939029" d="m 79.182536,83.654901 12.087083,-2.612336 9.352651,-15.215778 -8.989425,5.165513 -4.37946,6.043954 z" sodipodi:nodetypes="cccccc" />
    <path sodipodi:type="star" style="fill:#ffe288;fill-opacity:1;stroke-width:2.044;stroke-linecap:round;stroke-linejoin:round;paint-order:fill markers stroke" id="path6" inkscape:flatsided="true" sodipodi:sides="3" sodipodi:cx="65.588203" sodipodi:cy="30.746981" sodipodi:r1="12.455967" sodipodi:r2="6.2279835" sodipodi:arg1="2.17145" sodipodi:arg2="3.2186476" inkscape:rounded="0" inkscape:randomized="0" d="M 58.548317,41.022734 60.209083,19.512383 78.00721,31.705824 Z" inkscape:transform-center-x="-2.6895593" inkscape:transform-center-y="-0.47942226" transform="translate(55.244288,26.550964)" />
    <path id="path7" style="fill:#ffffff;fill-opacity:1;stroke:#4f421c;stroke-width:1.644;stroke-linecap:round;stroke-linejoin:miter;stroke-dasharray:none;stroke-opacity:1;paint-order:fill markers stroke" inkscape:transform-center-x="-1.4544837" inkscape:transform-center-y="1.4544836" d="M 102.93535,107.17247 94.207073,89.106557 123.18063,96.650201 Z" sodipodi:nodetypes="cccc" />
    <path id="path7-9" style="fill:#4f421c;fill-opacity:1;stroke:none;stroke-width:0.904066;stroke-linecap:round;stroke-linejoin:miter;stroke-dasharray:none;stroke-opacity:1;paint-order:fill markers stroke" inkscape:transform-center-x="-0.79984728" inkscape:transform-center-y="0.79984773" d="m 105.20169,100.88608 -0.99688,-9.93478 7.32031,2.762561 z" sodipodi:nodetypes="cccc" />
    <path id="path4" style="fill:#ffe288;stroke-width:2.044;stroke-linecap:round;stroke-linejoin:round;paint-order:fill markers stroke" inkscape:transform-center-x="-0.17029748" inkscape:transform-center-y="0.98029059" d="M 109.55159,95.918691 105,84.420648 l 7.44349,-16.235344 0.70688,10.343721 -2.58713,7.001129 z" sodipodi:nodetypes="cccccc" />
    <path id="path10" style="fill:#f5edd4;stroke-width:1.644;stroke-linecap:round;paint-order:fill markers stroke" inkscape:transform-center-x="0.48176177" inkscape:transform-center-y="-0.41707884" d="m 96.127601,109.77681 1.45323,0.15417 6.767919,2.56871 -8.50554,0.27432 -7.378989,-2.62438 6.21015,-0.52699 z" sodipodi:nodetypes="ccccccc" />
    <path id="rect10" style="fill:#4a463c;stroke-width:1.644;stroke-linecap:round;paint-order:fill markers stroke" d="m 100.23298,110.93758 1.59946,0.60707 -1.02282,6.48441 -1.95843,-1.27723 z" sodipodi:nodetypes="ccccc" />
    <path id="rect10-1" style="fill:#4a463c;stroke-width:1.644;stroke-linecap:round;paint-order:fill markers stroke" d="m 92.390757,109.81642 -1.69412,0.14377 0.07902,6.78538 2.125228,-0.97478 z" sodipodi:nodetypes="ccccc" />
    <path id="path8" style="fill:#807c71;stroke-width:1.644;stroke-linecap:round;paint-order:fill markers stroke" inkscape:transform-center-x="0.060210033" inkscape:transform-center-y="0.92124286" d="m 105.3336,140.89977 -21.494129,-7.34867 2.269911,-9.60957 2.354839,-13.7919 1.776904,-0.15079 -0.05465,0.76332 5.656735,2.01185 6.84683,-0.22082 0.35117,-0.54976 1.30754,0.49626 -0.54976,18.33276 z" sodipodi:nodetypes="cccccccccccc" />
    <circle style="fill:#f5edd4;fill-opacity:1;stroke:none;stroke-width:1.33628;stroke-linecap:round;stroke-linejoin:miter;stroke-dasharray:none;stroke-opacity:1;paint-order:fill markers stroke" id="path19" cx="71.723442" cy="140.20764" r="8.9974194" />
    <circle style="fill:#f5edd4;fill-opacity:1;stroke:none;stroke-width:1.33628;stroke-linecap:round;stroke-linejoin:miter;stroke-dasharray:none;stroke-opacity:1;paint-order:fill markers stroke" id="path19-0" cx="115.61337" cy="145.6167" r="8.9974194" />
    <path id="path20" style="fill:#25221a;fill-opacity:1;stroke-width:1.644;stroke-linecap:round;paint-order:fill markers stroke" inkscape:transform-center-x="0.52669339" inkscape:transform-center-y="0.82574317" d="m 92.900885,151.02157 -3.360642,49.28666 -7.801873,-0.0392 -1.794828,-9.17797 6.280218,-50.08418 14.39851,2.39562 -1.56858,8.79967 z" sodipodi:nodetypes="cccccccc" />
    <path id="path21" style="fill:#303030;fill-opacity:1;stroke-width:1.644;stroke-linecap:round;paint-order:fill markers stroke" inkscape:transform-center-x="-1.4074248" inkscape:transform-center-y="-4.4131246" d="m 91.933188,146.09635 8.689082,-2.69385 2.624,47.86647 -3.71862,9.18471 -10.752108,0.56979 z" sodipodi:nodetypes="cccccc" />
  </g>
</svg>
