<?xml version="1.0" encoding="UTF-8" standalone="no"?>
<!-- Created with Inkscape (http://www.inkscape.org/) -->

<svg width="210mm" height="297mm" viewBox="0 0 210 297" version="1.1" id="svg5" inkscape:version="1.3 (0e150ed6c4, 2023-07-21)" sodipodi:docname="рабстол.svg" inkscape:export-filename="..\..\..\wallpaper.png" inkscape:export-xdpi="25.4" inkscape:export-ydpi="25.4" xmlns:inkscape="http://www.inkscape.org/namespaces/inkscape" xmlns:sodipodi="http://sodipodi.sourceforge.net/DTD/sodipodi-0.dtd" xmlns="http://www.w3.org/2000/svg" xmlns:svg="http://www.w3.org/2000/svg">
  <sodipodi:namedview id="namedview7" pagecolor="#ffffff" bordercolor="#666666" borderopacity="1.0" inkscape:showpageshadow="2" inkscape:pageopacity="0.0" inkscape:pagecheckerboard="0" inkscape:deskcolor="#d1d1d1" inkscape:document-units="mm" showgrid="false" showguides="true" inkscape:zoom="0.05862926" inkscape:cx="14054.416" inkscape:cy="4417.5894" inkscape:window-width="2464" inkscape:window-height="1413" inkscape:window-x="87" inkscape:window-y="-9" inkscape:window-maximized="1" inkscape:current-layer="layer1">
    <sodipodi:guide position="253.68816,343.27017" orientation="0,-1" id="guide6565" inkscape:locked="false" />
    <sodipodi:guide position="346.22849,408.68661" orientation="0,-1" id="guide6567" inkscape:locked="false" />
  </sodipodi:namedview>
  <defs id="defs2" />
  <g inkscape:label="Слой 1" inkscape:groupmode="layer" id="layer1">
    <rect style="fill:none;stroke:none;stroke-width:52.3553;stroke-dasharray:none;stroke-opacity:1;paint-order:markers stroke fill" id="rect1" width="707.59167" height="707.59167" x="1812.2603" y="1519.4323" inkscape:export-filename="icon.png" inkscape:export-xdpi="3.5896413" inkscape:export-ydpi="3.5896413" />
    <path id="path6643-5-3" style="fill:#19cf4d;stroke-width:57.265;paint-order:markers stroke fill;stroke:#252928;stroke-opacity:1;stroke-dasharray:none" inkscape:transform-center-x="1.885598e-05" inkscape:transform-center-y="-27.010761" d="m 1989.5824,1717.2184 a 148.68962,148.68962 0 0 0 -148.6897,148.6897 148.68962,148.68962 0 0 0 148.6897,148.6896 h 206.3982 l 61.0764,0.1034 14.458,3.1584 31.6911,-3.2618 h 5e-4 l 40.6689,10.001 5.225,-10.4707 a 148.68962,148.68962 0 0 0 142.119,-148.2199 148.68962,148.68962 0 0 0 -148.6897,-148.6897 148.68962,148.68962 0 0 0 -148.6896,148.6897 148.68962,148.68962 0 0 0 0.9291,12.994 l -28.7135,-26.3689 -28.7134,26.3689 a 148.68962,148.68962 0 0 0 0.9296,-12.994 148.68962,148.68962 0 0 0 -148.6896,-148.6897 z" inkscape:export-filename="icon.png" inkscape:export-xdpi="36.757923" inkscape:export-ydpi="36.757923" />
    <rect style="fill:#252928;fill-opacity:1;fill-rule:evenodd;stroke-width:0.264583" id="rect4685" width="839.24487" height="839.24487" x="-1.4747657e-05" y="1440" />
    <rect style="fill:#252928;fill-rule:evenodd;stroke-width:0.264583;fill-opacity:1" id="rect234" width="2560" height="1440" x="0" y="-1.4210855e-14" inkscape:export-filename="wallpaper.png" inkscape:export-xdpi="29.765625" inkscape:export-ydpi="29.765625" />
    <path sodipodi:type="star" style="fill:#19cf4d;fill-opacity:1;stroke-width:2.14927;paint-order:markers stroke fill" id="path6643" inkscape:flatsided="true" sodipodi:sides="3" sodipodi:cx="1280" sodipodi:cy="720" sodipodi:r1="203.77438" sodipodi:r2="101.88719" sodipodi:arg1="-1.5707963" sodipodi:arg2="-0.52359878" inkscape:rounded="0" inkscape:randomized="0" d="m 1280,516.22562 176.4738,305.66158 -352.9476,-10e-6 z" inkscape:transform-center-x="1.885598e-05" inkscape:transform-center-y="-27.010761" transform="matrix(1,0,0,0.53020898,0,399.29851)" />
    <circle style="fill:#19cf4d;fill-opacity:1;fill-rule:evenodd;stroke-width:0.264583" id="path6645-2" cx="1456.4738" cy="686.38086" r="148.68962" />
    <circle style="fill:#252928;fill-opacity:1;fill-rule:evenodd;stroke-width:0.264583" id="path6645-9-1" cx="1456.4738" cy="686.38086" r="109.20244" />
    <circle style="fill:#19cf4d;fill-opacity:1;fill-rule:evenodd;stroke-width:0.264583" id="path6645-2-7" cx="1103.5262" cy="686.38086" r="148.68962" />
    <path id="path8663-6" style="fill:#252928;fill-rule:evenodd;stroke-width:0.264583;fill-opacity:1" d="m 2729.2139,315.89134 c -0.2543,-0.0266 -0.1375,0.3354 0.4625,1.19786 7.8007,11.21212 27.6029,66.78564 24.5319,78.37351 -3.6106,13.62404 -9.9208,15.43588 -7.8409,24.65844 2.0799,9.22258 5.8914,13.14513 12.0509,13.72371 6.1595,0.5786 14.2342,-6.30961 15.9562,-13.58263 1.722,-7.27302 -7.8405,-14.73043 -10.2092,-24.39283 -2.0449,-8.34169 -4.0934,-17.69414 1.9234,-21.84569 1.8295,-1.26237 5.6455,1.2829 6.4178,1.81091 25.023,17.10691 12.5472,48.19775 3.8063,56.94261 -5.1305,5.13304 -10.775,11.72193 -10.775,19.47116 0,10.88817 9.6527,19.51561 20.5409,19.51561 10.8882,0 16.723,-8.62744 16.723,-19.51561 0,-7.32269 -5.2059,-16.14855 -9.9467,-22.09891 -4.3233,-5.4263 -4.1529,-24.96166 2.3781,-28.63753 6.5311,-3.67586 6.2726,1.37713 8.3313,4.18114 0.3981,0.54215 0.6864,1.06111 0.8837,1.56115 l -2.3968,7.7835 c -0.9938,1.62077 -1.843,3.36305 -1.695,5.45859 0.4658,6.59454 4.1043,9.87174 9.556,9.87174 5.452,-5e-5 9.4997,-6.10597 9.3897,-9.87174 -0.094,-3.22568 -2.44,-5.77266 -3.8567,-8.46667 3.3663,-5.28108 11.0825,-6.90905 17.8853,-3.62355 16.9907,8.2061 15.5069,34.56595 8.7906,41.52098 -5.0415,5.22066 -9.5313,8.90293 -7.9028,16.47909 2.2975,10.68836 4.1986,14.2731 11.3435,14.5986 10.8765,0.49554 17.4904,-4.11456 17.4904,-15.00271 0,-7.32267 -6.2924,-9.81755 -7.6476,-17.30385 -1.5109,-8.34566 -0.9305,-15.71201 3.5734,-21.34908 10.2294,-12.80314 28.8009,-15.47686 45.7509,-18.7402 l -36.6398,-0.1217 c 3.8361,-15.39872 -8.4617,-50.1733 -15.2622,-50.27859 -0.9393,-0.0145 -1.7738,0.63208 -2.4463,2.08308 -0.3476,0.74987 -17.5408,13.41175 -29.6835,24.21764 -4.1082,0.3098 -8.3494,1.79879 -9.6717,1.38442 -1.2544,-0.3931 -8.8646,-0.83561 -15.4461,0.61391 2.8402,-8.96563 6.4629,-17.856 10.2965,-25.25117 4.5044,-8.68916 -1.9302,-14.35216 -9.0356,-14.44873 -4.5548,-0.0619 -9.3851,2.16368 -11.7869,7.3458 -0.2908,0.62745 -7.2103,3.10062 -13.0369,6.59185 -0.086,-0.28353 -0.3351,-0.42806 -0.7943,-0.4191 -2.7515,0.0537 -27.7568,-30.94825 -20.7186,-25.39018 0.4473,0.35322 -19.5094,-18.85863 -21.2897,-19.04483 z" sodipodi:nodetypes="sssssssacsssssssccssscsssssssccsscscssscsss" />
    <ellipse style="fill:#252928;fill-opacity:1;fill-rule:evenodd;stroke-width:0.264584" id="path8711" cx="2791.8345" cy="502.15125" rx="14.415864" ry="13.274444" />
    <ellipse style="fill:#252928;fill-opacity:1;fill-rule:evenodd;stroke-width:0.264584" id="path8711-7" cx="2817.6575" cy="465.08215" rx="10.028175" ry="9.2341642" />
    <path id="rect8588-3" style="fill:#19cf4d;fill-opacity:1;fill-rule:evenodd;stroke-width:0.264583" d="m 1185.407,761.16759 204.6584,42.66921 27.085,31.23368 -238.4132,-58.62831 z" sodipodi:nodetypes="ccccc" />
    <circle style="fill:#252928;fill-opacity:1;fill-rule:evenodd;stroke-width:0.264583" id="path6645-9-1-8" cx="1103.5262" cy="686.38086" r="109.20244" />
    <path sodipodi:type="star" style="fill:#19cf4d;fill-opacity:1;stroke:none;stroke-width:36.1651;stroke-dasharray:none;stroke-opacity:1;paint-order:markers stroke fill" id="path9574" inkscape:flatsided="true" sodipodi:sides="5" sodipodi:cx="1086.5511" sodipodi:cy="727.55847" sodipodi:r1="31.793072" sodipodi:r2="15.896536" sodipodi:arg1="-1.0471976" sodipodi:arg2="-0.41887907" inkscape:rounded="0" inkscape:randomized="0" d="m 1102.4477,700.02486 15.2018,34.14376 -27.7751,25.00876 -32.3677,-18.6875 7.7707,-36.55826 z" inkscape:transform-center-x="7.9482818" inkscape:transform-center-y="-9.166091e-06" transform="translate(-28.10274,-3.7502852)" />
    <path id="path9574-9" style="fill:#252928;stroke-width:36.1651;paint-order:markers stroke fill" inkscape:transform-center-x="7.9482818" inkscape:transform-center-y="-9.166091e-06" d="m 1288.9047,745.15747 7.8975,36.27445 -30.1562,-9.39254 16.6192,-3.7919 z" sodipodi:nodetypes="ccccc" />
    <path id="path9574-9-7" style="fill:#252928;stroke-width:36.1651;paint-order:markers stroke fill" inkscape:transform-center-x="-7.9483182" inkscape:transform-center-y="-9.166091e-06" d="m 1306.9294,756.05611 6.3648,32.90849 22.1773,-21.07114 -17.4654,4.84644 z" sodipodi:nodetypes="ccccc" />
    <path sodipodi:type="star" style="fill:#19cf4d;fill-opacity:1;stroke:none;stroke-width:36.1651;stroke-dasharray:none;stroke-opacity:1;paint-order:markers stroke fill" id="path9574-1" inkscape:flatsided="true" sodipodi:sides="5" sodipodi:cx="1086.5511" sodipodi:cy="727.55847" sodipodi:r1="31.793072" sodipodi:r2="15.896536" sodipodi:arg1="-1.0471976" sodipodi:arg2="-0.41887907" inkscape:rounded="0" inkscape:randomized="0" d="m 1102.4477,700.02486 15.2018,34.14376 -27.7751,25.00876 -32.3677,-18.6875 7.7707,-36.55826 z" inkscape:transform-center-x="-7.9482578" inkscape:transform-center-y="-9.166091e-06" transform="matrix(-1,0,0,1,2596.0505,-7.8624)" />
    <path sodipodi:type="star" style="fill:#252928;fill-opacity:1;stroke:none;stroke-width:63.8309;stroke-dasharray:none;stroke-opacity:1;paint-order:markers stroke fill" id="path9719" inkscape:flatsided="true" sodipodi:sides="5" sodipodi:cx="1237.9623" sodipodi:cy="711.61121" sodipodi:r1="19.868389" sodipodi:r2="9.9341946" sodipodi:arg1="1.1706858" sodipodi:arg2="1.7990043" inkscape:rounded="0" inkscape:randomized="0" d="m 1245.7014,729.91035 -22.7511,-5.28404 -2.0051,-23.27047 21.512,-9.0979 15.3001,17.64765 z" inkscape:transform-center-x="2.1924197" inkscape:transform-center-y="0.69327484" transform="matrix(0.56657653,0,0,0.56657653,529.18631,337.10207)" />
    <path sodipodi:type="star" style="fill:#252928;fill-opacity:1;stroke:none;stroke-width:44.1782;stroke-dasharray:none;stroke-opacity:1;paint-order:markers stroke fill" id="path9719-2" inkscape:flatsided="true" sodipodi:sides="5" sodipodi:cx="1237.9623" sodipodi:cy="711.61121" sodipodi:r1="19.868389" sodipodi:r2="9.9341946" sodipodi:arg1="1.1706858" sodipodi:arg2="1.7990043" inkscape:rounded="0" inkscape:randomized="0" d="m 1245.7014,729.91035 -22.7511,-5.28404 -2.0051,-23.27047 21.512,-9.0979 15.3001,17.64765 z" inkscape:transform-center-x="5.1589758" inkscape:transform-center-y="-2.5281983" transform="matrix(0.56979854,0.58776207,-0.58776207,0.56979854,973.97822,-418.78549)" />
    <path sodipodi:type="star" style="fill:#252928;fill-opacity:1;stroke:none;stroke-width:89.9363;stroke-dasharray:none;stroke-opacity:1;paint-order:markers stroke fill" id="path9719-2-1" inkscape:flatsided="true" sodipodi:sides="5" sodipodi:cx="1237.9623" sodipodi:cy="711.61121" sodipodi:r1="19.868389" sodipodi:r2="9.9341946" sodipodi:arg1="1.1706858" sodipodi:arg2="1.7990043" inkscape:rounded="0" inkscape:randomized="0" d="m 1245.7014,729.91035 -22.7511,-5.28404 -2.0051,-23.27047 21.512,-9.0979 15.3001,17.64765 z" inkscape:transform-center-x="2.534209" inkscape:transform-center-y="-1.2418926" transform="matrix(0.27989438,0.28871836,-0.28871836,0.27989438,1123.6252,187.53081)" />
    <path id="path11988" style="fill:#19cf4d;stroke-width:36.1651;paint-order:markers stroke fill" inkscape:transform-center-x="-1.7939688" inkscape:transform-center-y="-8.3859825" d="m 1429.9999,936.41024 14.9361,-43.45867 -56.567,38.88996 z" sodipodi:nodetypes="cccc" transform="rotate(7.5527384,2191.2345,788.40392)" />
    <path id="path11988-8" style="fill:#19cf4d;stroke-width:36.1651;paint-order:markers stroke fill" inkscape:transform-center-x="-1.7939688" inkscape:transform-center-y="-8.3859875" d="m 1457.8196,845.07147 20.5187,-41.11847 -61.1879,31.11748 z" sodipodi:nodetypes="cccc" />
    <path id="path12128" style="fill:#19cf4d;stroke-width:36.1651;paint-order:markers stroke fill" inkscape:transform-center-x="-4.281695" inkscape:transform-center-y="0.64423147" d="m 1309.9244,835.07048 10.8092,-10.87756 50.2671,10.98088 z" sodipodi:nodetypes="cccc" />
    <g id="g14001" transform="translate(1555.1363,-857.05684)">
      <rect style="fill:#19cf4d;fill-opacity:1;fill-rule:evenodd;stroke-width:0.264584" id="rect12222-0-1-7-7" width="19.088421" height="41.691639" x="1232.1061" y="1510.8837" rx="9.5442104" ry="9.5442104" />
      <rect style="fill:#252928;fill-opacity:1;fill-rule:evenodd;stroke-width:0.264583" id="rect12222" width="19.088421" height="42.498032" x="1177.8948" y="1477.698" rx="9.5442104" ry="9.5442104" />
      <rect style="fill:#252928;fill-opacity:1;fill-rule:evenodd;stroke-width:0.264583" id="rect12222-0" width="19.088421" height="74.807373" x="1203.8511" y="1488.3013" />
      <rect style="fill:#19cf4d;fill-opacity:1;fill-rule:evenodd;stroke-width:0.264584" id="rect12222-0-1-7" width="19.088421" height="41.691639" x="1203.8511" y="1535.6707" rx="9.5442104" ry="9.5442104" />
      <rect style="fill:#19cf4d;fill-opacity:1;fill-rule:evenodd;stroke-width:0.264584" id="rect12222-0-1-7-0" width="19.088421" height="22.230099" x="1177.8948" y="1545.3452" rx="9.5442104" ry="9.5442104" />
      <rect style="fill:#19cf4d;fill-opacity:1;fill-rule:evenodd;stroke-width:0.264584" id="rect12222-0-1-7-0-2" width="19.088421" height="22.230099" x="1232.1061" y="1568.6212" rx="9.5442104" ry="9.5442104" />
      <rect style="fill:#19cf4d;fill-opacity:1;fill-rule:evenodd;stroke-width:0.264584" id="rect12222-0-1-1" width="19.088421" height="28.728016" x="1203.8511" y="1527.7885" />
      <rect style="fill:#252928;fill-opacity:1;fill-rule:evenodd;stroke-width:0.264583" id="rect12222-0-5" width="19.088421" height="42.748856" x="1232.1061" y="1488.3013" />
      <rect style="fill:#19cf4d;fill-opacity:1;fill-rule:evenodd;stroke-width:0.264584" id="rect12222-0-1-1-9" width="19.088421" height="7.8822021" x="1232.1061" y="1527.7885" />
    </g>
    <path id="rect13849" style="fill:#19cf4d;fill-rule:evenodd;stroke-width:0.264583;fill-opacity:1" d="m 1393.0099,571.80921 113.1181,-4.51282 64.8718,78.03694 h -235.5284 z" sodipodi:nodetypes="ccccc" />
    <path id="rect13849-7" style="fill:#19cf4d;fill-rule:evenodd;stroke-width:0.264583" d="m 1042.6796,563.49602 113.1181,-3.90932 64.8718,67.60104 H 985.1411 Z" sodipodi:nodetypes="ccccc" />
    <path id="rect13849-7-1-2" style="fill:#19cf4d;fill-rule:evenodd;stroke-width:0.264583" d="m 1396.248,807.65145 113.1181,4.51282 64.8718,-54.33392 h -235.5283 z" sodipodi:nodetypes="ccccc" />
    <rect style="fill:#252928;fill-opacity:1;fill-rule:evenodd;stroke-width:0.264582" id="rect13921" width="252.47733" height="17.487181" x="1332.0868" y="645.33331" />
    <rect style="fill:#252928;fill-opacity:1;fill-rule:evenodd;stroke-width:0.264582" id="rect13921-9" width="252.47733" height="17.487181" x="976.66663" y="627.18774" />
    <path id="rect8588" style="fill:#252928;fill-rule:evenodd;stroke-width:0.264583" d="m 1178.7372,776.44217 238.4132,58.62831 v 0 l -31.6916,3.26169 -213.3914,-46.61542 z" sodipodi:nodetypes="cccccc" />
    <path id="path4507" style="opacity:0.182065;fill:#111111;fill-opacity:1;stroke-width:36.1651;paint-order:markers stroke fill" inkscape:transform-center-x="13.624105" inkscape:transform-center-y="-15.492695" d="m 830.46973,1949.9113 -39.8207,75.0375 C 570.76551,1856.5405 607.43797,1528.7566 124.76359,1523.5971 l 95.99815,-60.3751 c 373.85049,63.0353 407.69503,323.7485 609.70799,486.6893 z" sodipodi:nodetypes="ccccc" />
    <path id="path4507-2" style="opacity:0.182065;fill:#111111;fill-opacity:1;stroke-width:36.1651;paint-order:markers stroke fill" inkscape:transform-center-x="13.624105" inkscape:transform-center-y="-15.492695" d="m 931.62231,1881.2105 -39.8207,75.0375 C 671.91809,1787.8397 708.59055,1460.0558 225.91617,1454.8963 l 95.99815,-60.3751 c 373.85049,63.0353 407.69503,323.7485 609.70799,486.6893 z" sodipodi:nodetypes="ccccc" />
    <path id="path4507-4" style="opacity:0.182065;fill:#111111;fill-opacity:1;stroke-width:36.1651;paint-order:markers stroke fill" inkscape:transform-center-x="13.624106" inkscape:transform-center-y="-15.492695" d="m 758.85149,2049.9558 -39.8207,75.0375 C 499.14727,1956.585 535.81973,1628.8011 53.145352,1623.6416 l 95.998148,-60.3751 c 373.85049,63.0353 407.69503,323.7485 609.70799,486.6893 z" sodipodi:nodetypes="ccccc" />
    <path id="path4507-0" style="opacity:0.182065;fill:#111111;fill-opacity:1;stroke-width:36.1651;paint-order:markers stroke fill" inkscape:transform-center-x="13.624105" inkscape:transform-center-y="-15.492695" d="m 697.16148,2168.9029 -39.8207,75.0375 C 437.45726,2075.5321 474.12972,1747.7482 -8.5446584,1742.5887 l 95.9981504,-60.3751 c 373.850488,63.0353 407.695028,323.7485 609.707988,486.6893 z" sodipodi:nodetypes="ccccc" />
    <path id="path4507-1" style="opacity:0.182065;fill:#111111;fill-opacity:1;stroke-width:36.1651;paint-order:markers stroke fill" inkscape:transform-center-x="13.624105" inkscape:transform-center-y="-15.492695" d="m 621.3659,2280.5952 -39.8207,75.0375 C 361.66168,2187.2244 398.33414,1859.4405 -84.340237,1854.281 l 95.998148,-60.3751 C 385.5084,1856.9412 419.35294,2117.6544 621.3659,2280.5952 Z" sodipodi:nodetypes="ccccc" />
    <path id="path4507-49" style="opacity:0.182065;fill:#111111;fill-opacity:1;stroke-width:36.1651;paint-order:markers stroke fill" inkscape:transform-center-x="13.624105" inkscape:transform-center-y="-15.492695" d="m 597.67359,2434.0311 -39.8207,75.0375 C 337.96937,2340.6603 374.64183,2012.8764 -108.03255,2007.7169 l 95.998147,-60.3751 c 373.850493,63.0353 407.695033,323.7485 609.707993,486.6893 z" sodipodi:nodetypes="ccccc" />
    <g id="g1289" transform="translate(-54.247818,17.618101)">
      <path sodipodi:type="star" style="fill:#19cf4d;fill-opacity:1;stroke-width:2.14927;paint-order:markers stroke fill" id="path6643-1" inkscape:flatsided="true" sodipodi:sides="3" sodipodi:cx="1280" sodipodi:cy="720" sodipodi:r1="203.77438" sodipodi:r2="101.88719" sodipodi:arg1="-1.5707963" sodipodi:arg2="-0.52359878" inkscape:rounded="0" inkscape:randomized="0" d="m 1280,516.22562 176.4738,305.66158 -352.9476,-10e-6 z" inkscape:transform-center-x="1.885598e-05" inkscape:transform-center-y="-27.010761" transform="matrix(1,0,0,0.53020898,-806.12966,1568.297)" />
      <circle style="fill:#19cf4d;fill-opacity:1;fill-rule:evenodd;stroke-width:0.264583" id="path6645-2-74" cx="650.34406" cy="1855.3794" r="148.68962" />
      <circle style="fill:#252928;fill-opacity:1;fill-rule:evenodd;stroke-width:0.264583" id="path6645-9-1-2" cx="650.34406" cy="1855.3794" r="109.20244" />
      <circle style="fill:#19cf4d;fill-opacity:1;fill-rule:evenodd;stroke-width:0.264583" id="path6645-2-7-1" cx="297.39655" cy="1855.3794" r="148.68962" />
      <path id="rect8588-3-4" style="fill:#19cf4d;fill-opacity:1;fill-rule:evenodd;stroke-width:0.264583" d="m 379.27731,1930.1661 204.6584,42.6692 27.085,31.2337 -238.4132,-58.6283 z" sodipodi:nodetypes="ccccc" />
      <circle style="fill:#252928;fill-opacity:1;fill-rule:evenodd;stroke-width:0.264583" id="path6645-9-1-8-5" cx="297.39655" cy="1855.3794" r="109.20244" />
      <path sodipodi:type="star" style="fill:#19cf4d;fill-opacity:1;stroke:none;stroke-width:36.1651;stroke-dasharray:none;stroke-opacity:1;paint-order:markers stroke fill" id="path9574-4" inkscape:flatsided="true" sodipodi:sides="5" sodipodi:cx="1086.5511" sodipodi:cy="727.55847" sodipodi:r1="31.793072" sodipodi:r2="15.896536" sodipodi:arg1="-1.0471976" sodipodi:arg2="-0.41887907" inkscape:rounded="0" inkscape:randomized="0" d="m 1102.4477,700.02486 15.2018,34.14376 -27.7751,25.00876 -32.3677,-18.6875 7.7707,-36.55826 z" inkscape:transform-center-x="7.9482818" inkscape:transform-center-y="-9.166091e-06" transform="translate(-834.2324,1165.2482)" />
      <path id="path9574-9-9" style="fill:#252928;stroke-width:36.1651;paint-order:markers stroke fill" inkscape:transform-center-x="7.9482818" inkscape:transform-center-y="-9.166091e-06" d="m 482.77501,1914.156 7.8975,36.2744 -30.1562,-9.3925 16.6192,-3.7919 z" sodipodi:nodetypes="ccccc" />
      <path id="path9574-9-7-8" style="fill:#252928;stroke-width:36.1651;paint-order:markers stroke fill" inkscape:transform-center-x="-7.9483182" inkscape:transform-center-y="-9.166091e-06" d="m 500.79971,1925.0546 6.3648,32.9085 22.1773,-21.0711 -17.4654,4.8464 z" sodipodi:nodetypes="ccccc" />
      <path sodipodi:type="star" style="fill:#19cf4d;fill-opacity:1;stroke:none;stroke-width:36.1651;stroke-dasharray:none;stroke-opacity:1;paint-order:markers stroke fill" id="path9574-1-6" inkscape:flatsided="true" sodipodi:sides="5" sodipodi:cx="1086.5511" sodipodi:cy="727.55847" sodipodi:r1="31.793072" sodipodi:r2="15.896536" sodipodi:arg1="-1.0471976" sodipodi:arg2="-0.41887907" inkscape:rounded="0" inkscape:randomized="0" d="m 1102.4477,700.02486 15.2018,34.14376 -27.7751,25.00876 -32.3677,-18.6875 7.7707,-36.55826 z" inkscape:transform-center-x="-7.9482578" inkscape:transform-center-y="-9.166091e-06" transform="matrix(-1,0,0,1,1789.9208,1161.1361)" />
      <path sodipodi:type="star" style="fill:#252928;fill-opacity:1;stroke:none;stroke-width:63.8309;stroke-dasharray:none;stroke-opacity:1;paint-order:markers stroke fill" id="path9719-1" inkscape:flatsided="true" sodipodi:sides="5" sodipodi:cx="1237.9623" sodipodi:cy="711.61121" sodipodi:r1="19.868389" sodipodi:r2="9.9341946" sodipodi:arg1="1.1706858" sodipodi:arg2="1.7990043" inkscape:rounded="0" inkscape:randomized="0" d="m 1245.7014,729.91035 -22.7511,-5.28404 -2.0051,-23.27047 21.512,-9.0979 15.3001,17.64765 z" inkscape:transform-center-x="2.1924197" inkscape:transform-center-y="0.69327484" transform="matrix(0.56657653,0,0,0.56657653,-276.94339,1506.1005)" />
      <path sodipodi:type="star" style="fill:#252928;fill-opacity:1;stroke:none;stroke-width:44.1782;stroke-dasharray:none;stroke-opacity:1;paint-order:markers stroke fill" id="path9719-2-7" inkscape:flatsided="true" sodipodi:sides="5" sodipodi:cx="1237.9623" sodipodi:cy="711.61121" sodipodi:r1="19.868389" sodipodi:r2="9.9341946" sodipodi:arg1="1.1706858" sodipodi:arg2="1.7990043" inkscape:rounded="0" inkscape:randomized="0" d="m 1245.7014,729.91035 -22.7511,-5.28404 -2.0051,-23.27047 21.512,-9.0979 15.3001,17.64765 z" inkscape:transform-center-x="5.1589758" inkscape:transform-center-y="-2.5281983" transform="matrix(0.56979854,0.58776207,-0.58776207,0.56979854,167.84851,750.21302)" />
      <path sodipodi:type="star" style="fill:#252928;fill-opacity:1;stroke:none;stroke-width:89.9363;stroke-dasharray:none;stroke-opacity:1;paint-order:markers stroke fill" id="path9719-2-1-4" inkscape:flatsided="true" sodipodi:sides="5" sodipodi:cx="1237.9623" sodipodi:cy="711.61121" sodipodi:r1="19.868389" sodipodi:r2="9.9341946" sodipodi:arg1="1.1706858" sodipodi:arg2="1.7990043" inkscape:rounded="0" inkscape:randomized="0" d="m 1245.7014,729.91035 -22.7511,-5.28404 -2.0051,-23.27047 21.512,-9.0979 15.3001,17.64765 z" inkscape:transform-center-x="2.534209" inkscape:transform-center-y="-1.2418926" transform="matrix(0.27989438,0.28871836,-0.28871836,0.27989438,317.49551,1356.5293)" />
      <path id="path11988-2" style="fill:#19cf4d;stroke-width:36.1651;paint-order:markers stroke fill" inkscape:transform-center-x="-1.7939688" inkscape:transform-center-y="-8.3859825" d="m 611.02071,2004.069 20.5187,-41.1185 -61.1879,31.1175 z" sodipodi:nodetypes="cccc" />
      <path id="path11988-8-5" style="fill:#19cf4d;stroke-width:36.1651;paint-order:markers stroke fill" inkscape:transform-center-x="-1.7939688" inkscape:transform-center-y="-8.3859875" d="m 651.68991,2014.07 20.5187,-41.1185 -61.1879,31.1175 z" sodipodi:nodetypes="cccc" />
      <path id="path12128-6" style="fill:#19cf4d;stroke-width:36.1651;paint-order:markers stroke fill" inkscape:transform-center-x="-4.281695" inkscape:transform-center-y="0.64423147" d="m 503.79471,2004.069 10.8092,-10.8776 50.2671,10.9809 z" sodipodi:nodetypes="cccc" />
      <path id="rect13849-3" style="fill:#19cf4d;fill-opacity:1;fill-rule:evenodd;stroke-width:0.264583" d="m 586.88021,1740.8077 113.1181,-4.5128 64.8718,78.0369 h -235.5284 z" sodipodi:nodetypes="ccccc" />
      <path id="rect13849-7-9" style="fill:#19cf4d;fill-rule:evenodd;stroke-width:0.264583" d="m 236.54991,1732.4945 113.1181,-3.9093 64.8718,67.601 h -235.5284 z" sodipodi:nodetypes="ccccc" />
      <path id="rect13849-7-1-2-8" style="fill:#19cf4d;fill-rule:evenodd;stroke-width:0.264583" d="m 590.11831,1976.65 113.1181,4.5128 64.8718,-54.3339 h -235.5283 z" sodipodi:nodetypes="ccccc" />
      <rect style="fill:#252928;fill-opacity:1;fill-rule:evenodd;stroke-width:0.264582" id="rect13921-92" width="252.47733" height="17.487181" x="525.95709" y="1814.3319" />
      <rect style="fill:#252928;fill-opacity:1;fill-rule:evenodd;stroke-width:0.264582" id="rect13921-9-3" width="252.47733" height="17.487181" x="170.53694" y="1796.1863" />
      <path id="rect8588-6" style="fill:#252928;fill-rule:evenodd;stroke-width:0.264583" d="m 372.60751,1945.4407 238.4132,58.6283 v 0 l -31.6916,3.2617 -213.3914,-46.6154 z" sodipodi:nodetypes="cccccc" />
    </g>
    <rect style="fill:#19cf4d;fill-opacity:1;fill-rule:evenodd;stroke-width:0.264583" id="rect504-3" width="839.24506" height="839.24506" x="839.24506" y="1440" />
    <path id="path6643-1-3" style="fill:#ffffff;fill-opacity:1;stroke-width:1.565;paint-order:markers stroke fill" inkscape:transform-center-x="-1.14402e-06" inkscape:transform-center-y="-27.010761" d="m 1082.3972,1724.3084 a 148.68962,148.68962 0 0 0 -148.68957,148.6891 148.68962,148.68962 0 0 0 148.68957,148.6896 h 267.0008 l -198.4598,-43.3534 6.6699,-15.2745 238.4113,58.6279 v 0 l -10e-4,5e-4 40.6688,10.001 5.1113,-10.2428 a 148.68962,148.68962 0 0 0 142.2327,-148.4483 148.68962,148.68962 0 0 0 -148.6897,-148.6891 148.68962,148.68962 0 0 0 -148.6896,148.6891 148.68962,148.68962 0 0 0 0.5933,12.6855 l -28.3776,-26.0604 -28.3771,26.0599 a 148.68962,148.68962 0 0 0 0.5932,-12.685 148.68962,148.68962 0 0 0 -148.6896,-148.6891 z m -126.85997,89.4963 h 252.47767 v 17.4873 h -24.7737 a 109.20244,109.20244 0 0 1 8.3581,41.7055 109.20244,109.20244 0 0 1 -109.2021,109.2026 109.20244,109.20244 0 0 1 -109.20257,-109.2026 109.20244,109.20244 0 0 1 8.4051,-41.7055 h -26.0625 z m 355.42017,18.1457 h 252.4776 v 17.4873 h -21.5149 a 109.20244,109.20244 0 0 1 2.6272,23.5598 109.20244,109.20244 0 0 1 -26.6201,71.4499 h -165.163 a 109.20244,109.20244 0 0 1 -26.6222,-71.4499 109.20244,109.20244 0 0 1 2.65,-23.5598 h -17.8346 z m 161.5162,46.8292 -15.2016,34.1436 27.775,25.0088 32.3676,-18.6877 -7.7706,-36.558 z m -419.2576,4.1119 -37.1703,3.9067 -7.7706,36.5585 32.3675,18.6872 27.7751,-25.0088 z m 183.0953,2.1967 17.6051,7.46 -1.6546,19.0485 -18.6273,4.3124 -9.8578,-16.383 z m -24.307,30.8478 8.6687,9.9988 -6.8306,11.3342 -12.8902,-2.9936 -1.1363,-13.1847 z m 29.733,7.0264 8.6481,3.6644 -0.8129,9.357 -9.1503,2.1188 -4.8421,-8.0481 z m 26.0382,8.8119 7.8978,36.2742 -30.1563,-9.3921 16.6191,-3.7921 z m 18.0248,10.8985 11.0768,16.6838 17.4651,-4.8462 -22.1769,21.071 z" />
    <path id="rect504" style="fill:#1d1d1d;fill-opacity:1;fill-rule:evenodd;stroke-width:0.264583" d="m 1.5999999e-6,1440 v 839.2449 H 839.2449 V 1440 Z M 419.62245,1471.9107 c 214.79225,0 387.71225,172.9194 387.71225,387.7117 0,214.7923 -172.92,387.7123 -387.71225,387.7123 -214.79225,0 -387.711738,-172.92 -387.711738,-387.7123 0,-214.7923 172.919488,-387.7117 387.711738,-387.7117 z" inkscape:export-filename="..\..\..\SP1DZMAIN\identity\spidz2023\icon.png" inkscape:export-xdpi="15.495834" inkscape:export-ydpi="15.495834" />
    <path id="rect504-2" style="fill:#ffffff;fill-opacity:1;fill-rule:evenodd;stroke-width:0.264583" d="m 1678.4898,1440 v 839.2449 H 839.24483 V 1440 Z m -419.6225,31.9107 c -214.7922,0 -387.71227,172.9194 -387.71227,387.7117 0,214.7923 172.92007,387.7123 387.71227,387.7123 214.7923,0 387.7118,-172.92 387.7118,-387.7123 0,-214.7923 -172.9195,-387.7117 -387.7118,-387.7117 z" inkscape:export-filename="..\..\..\SP1DZMAIN\identity\spidz2023\icon_alt.png" inkscape:export-xdpi="15.495834" inkscape:export-ydpi="15.495834" />
    <path sodipodi:type="star" style="fill:#19cf4d;fill-opacity:1;stroke-width:2.14927;paint-order:markers stroke fill" id="path6643-5" inkscape:flatsided="true" sodipodi:sides="3" sodipodi:cx="1280" sodipodi:cy="720" sodipodi:r1="203.77438" sodipodi:r2="101.88719" sodipodi:arg1="-1.5707963" sodipodi:arg2="-0.52359878" inkscape:rounded="0" inkscape:randomized="0" d="m 1280,516.22562 176.4738,305.66158 -352.9476,-10e-6 z" inkscape:transform-center-x="1.885598e-05" inkscape:transform-center-y="-27.010761" transform="matrix(1,0,0,0.53020898,886.05598,1578.8257)" />
    <circle style="fill:#19cf4d;fill-opacity:1;fill-rule:evenodd;stroke-width:0.264583" id="path6645-2-5" cx="2342.5298" cy="1865.9081" r="148.68962" />
    <circle style="fill:#252928;fill-opacity:1;fill-rule:evenodd;stroke-width:0.264583" id="path6645-9-1-7" cx="2342.5298" cy="1865.9081" r="109.20244" />
    <circle style="fill:#19cf4d;fill-opacity:1;fill-rule:evenodd;stroke-width:0.264583" id="path6645-2-7-9" cx="1989.5823" cy="1865.9081" r="148.68962" />
    <path id="rect8588-3-8" style="fill:#19cf4d;fill-opacity:1;fill-rule:evenodd;stroke-width:0.264583" d="m 2071.463,1940.6948 204.6584,42.6692 27.085,31.2337 -238.4132,-58.6283 z" sodipodi:nodetypes="ccccc" />
    <circle style="fill:#252928;fill-opacity:1;fill-rule:evenodd;stroke-width:0.264583" id="path6645-9-1-8-6" cx="1989.5823" cy="1865.9081" r="109.20244" />
    <path sodipodi:type="star" style="fill:#19cf4d;fill-opacity:1;stroke:none;stroke-width:36.1651;stroke-dasharray:none;stroke-opacity:1;paint-order:markers stroke fill" id="path9574-7" inkscape:flatsided="true" sodipodi:sides="5" sodipodi:cx="1086.5511" sodipodi:cy="727.55847" sodipodi:r1="31.793072" sodipodi:r2="15.896536" sodipodi:arg1="-1.0471976" sodipodi:arg2="-0.41887907" inkscape:rounded="0" inkscape:randomized="0" d="m 1102.4477,700.02486 15.2018,34.14376 -27.7751,25.00876 -32.3677,-18.6875 7.7707,-36.55826 z" inkscape:transform-center-x="7.9482818" inkscape:transform-center-y="-9.166091e-06" transform="translate(857.95324,1175.7769)" />
    <path id="path9574-9-4" style="fill:#252928;stroke-width:36.1651;paint-order:markers stroke fill" inkscape:transform-center-x="7.9482818" inkscape:transform-center-y="-9.166091e-06" d="m 2174.9607,1924.6847 7.8975,36.2744 -30.1562,-9.3925 16.6192,-3.7919 z" sodipodi:nodetypes="ccccc" />
    <path id="path9574-9-7-9" style="fill:#252928;stroke-width:36.1651;paint-order:markers stroke fill" inkscape:transform-center-x="-7.9483182" inkscape:transform-center-y="-9.166091e-06" d="m 2192.9854,1935.5833 6.3648,32.9085 22.1773,-21.0711 -17.4654,4.8464 z" sodipodi:nodetypes="ccccc" />
    <path sodipodi:type="star" style="fill:#19cf4d;fill-opacity:1;stroke:none;stroke-width:36.1651;stroke-dasharray:none;stroke-opacity:1;paint-order:markers stroke fill" id="path9574-1-7" inkscape:flatsided="true" sodipodi:sides="5" sodipodi:cx="1086.5511" sodipodi:cy="727.55847" sodipodi:r1="31.793072" sodipodi:r2="15.896536" sodipodi:arg1="-1.0471976" sodipodi:arg2="-0.41887907" inkscape:rounded="0" inkscape:randomized="0" d="m 1102.4477,700.02486 15.2018,34.14376 -27.7751,25.00876 -32.3677,-18.6875 7.7707,-36.55826 z" inkscape:transform-center-x="-7.9482578" inkscape:transform-center-y="-9.166091e-06" transform="matrix(-1,0,0,1,3482.1065,1171.6648)" />
    <path sodipodi:type="star" style="fill:#252928;fill-opacity:1;stroke:none;stroke-width:63.8309;stroke-dasharray:none;stroke-opacity:1;paint-order:markers stroke fill" id="path9719-5" inkscape:flatsided="true" sodipodi:sides="5" sodipodi:cx="1237.9623" sodipodi:cy="711.61121" sodipodi:r1="19.868389" sodipodi:r2="9.9341946" sodipodi:arg1="1.1706858" sodipodi:arg2="1.7990043" inkscape:rounded="0" inkscape:randomized="0" d="m 1245.7014,729.91035 -22.7511,-5.28404 -2.0051,-23.27047 21.512,-9.0979 15.3001,17.64765 z" inkscape:transform-center-x="2.1924197" inkscape:transform-center-y="0.69327484" transform="matrix(0.56657653,0,0,0.56657653,1415.2423,1516.6293)" />
    <path sodipodi:type="star" style="fill:#252928;fill-opacity:1;stroke:none;stroke-width:44.1782;stroke-dasharray:none;stroke-opacity:1;paint-order:markers stroke fill" id="path9719-2-5" inkscape:flatsided="true" sodipodi:sides="5" sodipodi:cx="1237.9623" sodipodi:cy="711.61121" sodipodi:r1="19.868389" sodipodi:r2="9.9341946" sodipodi:arg1="1.1706858" sodipodi:arg2="1.7990043" inkscape:rounded="0" inkscape:randomized="0" d="m 1245.7014,729.91035 -22.7511,-5.28404 -2.0051,-23.27047 21.512,-9.0979 15.3001,17.64765 z" inkscape:transform-center-x="5.1589758" inkscape:transform-center-y="-2.5281983" transform="matrix(0.56979854,0.58776207,-0.58776207,0.56979854,1860.0342,760.74168)" />
    <path sodipodi:type="star" style="fill:#252928;fill-opacity:1;stroke:none;stroke-width:89.9363;stroke-dasharray:none;stroke-opacity:1;paint-order:markers stroke fill" id="path9719-2-1-8" inkscape:flatsided="true" sodipodi:sides="5" sodipodi:cx="1237.9623" sodipodi:cy="711.61121" sodipodi:r1="19.868389" sodipodi:r2="9.9341946" sodipodi:arg1="1.1706858" sodipodi:arg2="1.7990043" inkscape:rounded="0" inkscape:randomized="0" d="m 1245.7014,729.91035 -22.7511,-5.28404 -2.0051,-23.27047 21.512,-9.0979 15.3001,17.64765 z" inkscape:transform-center-x="2.534209" inkscape:transform-center-y="-1.2418926" transform="matrix(0.27989438,0.28871836,-0.28871836,0.27989438,2009.6812,1367.058)" />
    <path id="path11988-3" style="fill:#19cf4d;stroke-width:36.1651;paint-order:markers stroke fill" inkscape:transform-center-x="-1.7939688" inkscape:transform-center-y="-8.3859825" d="m 2303.2063,2014.5977 20.5187,-41.1185 -61.1879,31.1175 z" sodipodi:nodetypes="cccc" />
    <path id="path11988-8-3" style="fill:#19cf4d;stroke-width:36.1651;paint-order:markers stroke fill" inkscape:transform-center-x="-1.7939688" inkscape:transform-center-y="-8.3859875" d="m 2343.8756,2024.5987 20.5187,-41.1185 -61.1879,31.1175 z" sodipodi:nodetypes="cccc" />
    <path id="path12128-62" style="fill:#19cf4d;stroke-width:36.1651;paint-order:markers stroke fill" inkscape:transform-center-x="-4.281695" inkscape:transform-center-y="0.64423147" d="m 2195.9804,2014.5977 10.8092,-10.8776 50.2671,10.9809 z" sodipodi:nodetypes="cccc" />
    <path id="rect13849-5" style="fill:#19cf4d;fill-opacity:1;fill-rule:evenodd;stroke-width:0.264583" d="m 2279.0659,1751.3364 113.1181,-4.5128 64.8718,78.0369 h -235.5284 z" sodipodi:nodetypes="ccccc" />
    <path id="rect13849-7-95" style="fill:#19cf4d;fill-rule:evenodd;stroke-width:0.264583" d="m 1928.7356,1743.0232 113.1181,-3.9093 64.8718,67.601 h -235.5284 z" sodipodi:nodetypes="ccccc" />
    <path id="rect13849-7-1-2-89" style="fill:#19cf4d;fill-rule:evenodd;stroke-width:0.264583" d="m 2282.304,1987.1786 113.1181,4.5129 64.8718,-54.3339 h -235.5283 z" sodipodi:nodetypes="ccccc" />
    <rect style="fill:#252928;fill-opacity:1;fill-rule:evenodd;stroke-width:0.264582" id="rect13921-3" width="252.47733" height="17.487181" x="2218.1428" y="1824.8605" />
    <rect style="fill:#252928;fill-opacity:1;fill-rule:evenodd;stroke-width:0.264582" id="rect13921-9-4" width="252.47733" height="17.487181" x="1862.7225" y="1806.715" />
    <path id="rect8588-0" style="fill:#252928;fill-rule:evenodd;stroke-width:0.264583" d="m 2064.7932,1955.9694 238.4132,58.6283 v 0 l -31.6916,3.2617 -213.3914,-46.6154 z" sodipodi:nodetypes="cccccc" />
  </g>
</svg>
