<?xml version="1.0" encoding="UTF-8" standalone="no"?>
<!-- Created with Inkscape (http://www.inkscape.org/) -->

<svg width="127.46183mm" height="192.94283mm" viewBox="0 0 127.46183 192.94283" version="1.1" id="svg5" inkscape:version="1.3 (0e150ed6c4, 2023-07-21)" sodipodi:docname="дамочка.svg" xmlns:inkscape="http://www.inkscape.org/namespaces/inkscape" xmlns:sodipodi="http://sodipodi.sourceforge.net/DTD/sodipodi-0.dtd" xmlns="http://www.w3.org/2000/svg" xmlns:svg="http://www.w3.org/2000/svg">
  <sodipodi:namedview id="namedview7" pagecolor="#ffffff" bordercolor="#666666" borderopacity="1.0" inkscape:showpageshadow="2" inkscape:pageopacity="0.0" inkscape:pagecheckerboard="0" inkscape:deskcolor="#d1d1d1" inkscape:document-units="mm" showgrid="false" inkscape:zoom="0.66331437" inkscape:cx="284.93277" inkscape:cy="485.44101" inkscape:window-width="2467" inkscape:window-height="1413" inkscape:window-x="84" inkscape:window-y="-9" inkscape:window-maximized="1" inkscape:current-layer="layer1" />
  <defs id="defs2" />
  <g inkscape:label="Слой 1" inkscape:groupmode="layer" id="layer1" transform="translate(-51.485449,-16.102701)">
    <path id="path14350-9-4" style="fill:#6e446e;fill-opacity:1;stroke-width:2.065;stroke-linecap:square;stroke-dashoffset:44.0315;paint-order:markers stroke fill" inkscape:transform-center-x="4.2867375" inkscape:transform-center-y="0.1430317" d="m 112.19406,126.44482 -36.536954,11.90407 -7.915095,-12.43283 10.864799,1.55748 16.927648,-16.88686 8.911152,-1.10722 z" sodipodi:nodetypes="ccccccc" />
    <path id="path14350-9-4-6" style="fill:#6e446e;fill-opacity:1;stroke-width:2.065;stroke-linecap:square;stroke-dashoffset:44.0315;paint-order:markers stroke fill" inkscape:transform-center-x="-0.148116" inkscape:transform-center-y="4.2838167" d="m 107.10865,117.20289 11.94825,36.52254 -12.42325,7.93012 1.54434,-10.86667 -16.907328,-16.90722 -1.117995,-8.9098 z" sodipodi:nodetypes="ccccccc" />
    <path id="path14350-9-4-6-9" style="fill:#6e446e;fill-opacity:1;stroke-width:2.065;stroke-linecap:square;stroke-dashoffset:44.0315;paint-order:markers stroke fill" inkscape:transform-center-x="-0.1938225" inkscape:transform-center-y="3.7691157" d="m 111.09872,118.32347 9.00358,37.35763 14.73676,0.22775 -7.01904,-8.43816 5.51455,-23.26589 -3.72577,-8.17025 z" sodipodi:nodetypes="ccccccc" />
    <path id="path18235-6" style="fill:#583358;stroke-width:2.065;stroke-linecap:square;stroke-dashoffset:44.0315;paint-order:markers stroke fill" inkscape:transform-center-x="2.8159736" inkscape:transform-center-y="-2.5444446" d="m 127.75812,153.0028 c -2.36847,6.7478 -5.22289,13.54019 5.33953,19.10169 l 0.93434,-32.43067 z" sodipodi:nodetypes="cccc" />
    <path id="path14350-9-4-9" style="fill:#583358;fill-opacity:1;stroke-width:2.065;stroke-linecap:square;stroke-dashoffset:44.0315;paint-order:markers stroke fill" inkscape:transform-center-x="-4.56771" inkscape:transform-center-y="-0.3843033" d="m 117.24003,125.80296 37.99349,-5.75767 1.49421,-14.66258 -9.01051,6.2674 -22.70547,-7.49487 -8.4604,3.00938 z" sodipodi:nodetypes="ccccccc" />
    <path id="path14350-9-2-1" style="fill:#6d3c6d;fill-opacity:1;stroke-width:2.065;stroke-linecap:square;stroke-dashoffset:44.0315;paint-order:markers stroke fill" inkscape:transform-center-x="-4.6447595" inkscape:transform-center-y="-3.0320868" d="M 123.72311,121.62359 137.70977,85.832115 113.88594,58.129944 126.68271,88.151153 108.84982,104.07909 Z" sodipodi:nodetypes="cccccc" />
    <path id="path14350-2-9" style="fill:#735273;stroke-width:2.065;stroke-linecap:square;stroke-dashoffset:44.0315;paint-order:markers stroke fill" inkscape:transform-center-x="3.3058815" inkscape:transform-center-y="-0.6352543" d="M 113.88594,119.20009 76.817505,109.07165 53.652171,80.409254 85.257385,101.60558 108.67929,96.796644 Z" sodipodi:nodetypes="cccccc" />
    <path id="path16127-9" style="fill:#735273;fill-opacity:1;stroke-width:2.065;stroke-linecap:square;stroke-dashoffset:44.0315;paint-order:markers stroke fill" inkscape:transform-center-x="2.556757" inkscape:transform-center-y="-0.531077" d="m 81.188125,69.242606 2.623159,-14.235873 3.644025,-10.863451 -4.213491,1.01795 2.126216,-12.577247 -4.28578,2.12536 -9.601594,-11.660895 -2.679973,4.315542 -6.195487,-6.718284 -1.936379,2.635291 -8.947346,-3.506442 6.785899,7.095934 -1.740495,2.518229 6.629782,2.185849 -1.703996,4.536621 8.267812,4.689267 -2.037348,1.488718 6.002995,5.27481 -5.189506,-0.879503 3.900439,6.897305 -3.960076,0.442244 z" sodipodi:nodetypes="cccccccccccccccccccccc" />
    <path id="path16127" style="fill:#583358;stroke-width:2.065;stroke-linecap:square;stroke-dashoffset:44.0315;paint-order:markers stroke fill" inkscape:transform-center-x="5.5824958" inkscape:transform-center-y="-7.5337561" d="M 112.07463,108.92686 91.746536,95.839207 74.355914,87.850969 l 6.057757,-3.96458 -17.740867,-11.795691 7.488387,-2.786097 -3.213151,-25.02303 8.317866,1.673288 -1.092254,-15.224515 5.422232,0.656809 5.964383,-14.900959 0.876718,16.375071 5.055725,0.761369 -4.921387,10.569702 7.470805,3.114099 -3.747483,15.426535 4.142074,-0.777351 -0.444631,13.339407 4.864347,-7.322593 3.934855,12.635678 5.06718,-4.314516 z" sodipodi:nodetypes="cccccccccccccccccccccc" />
    <path id="path16127-1" style="fill:#6e446e;fill-opacity:1;stroke-width:2.065;stroke-linecap:square;stroke-dashoffset:44.0315;paint-order:markers stroke fill" inkscape:transform-center-x="2.2808703" inkscape:transform-center-y="-2.4464258" d="m 108.07258,107.77357 -1.29572,-21.206946 5.24205,-22.359272 -7.12277,0.594638 2.19009,-19.799562 -7.423245,3.770641 -5.136742,-18.664934 -5.297006,4.142165 -3.464663,-9.771939 -2.88098,5.472768 -14.351505,-13.848428 12.395208,20.435681 -5.475953,2.594501 10.796594,10.059004 -5.338218,2.745373 9.279086,8.913491 -6.463113,0.60799 6.368624,9.607146 -9.494825,-3.256467 9.708829,14.369603 -7.636176,1.181688 z" sodipodi:nodetypes="cccccccccccccccccccccc" />
    <path id="rect7061" style="fill:#ffb77c;fill-rule:evenodd;stroke-width:0.264583" d="m 111.10421,140.17282 8.44389,-2.24716 c 1.7537,5.34826 2.7686,10.77989 5.35521,16.03416 l -9.48306,2.47087 c 1.10726,-6.39193 -2.84188,-10.85213 -4.31604,-16.25787 z" sodipodi:nodetypes="ccccc" />
    <circle style="fill:#ffe4c1;fill-opacity:1;fill-rule:evenodd;stroke-width:0.264583" id="path234" cx="102.00351" cy="144.99118" r="16.681263" transform="rotate(-6.4382608)" />
    <path id="rect6920" style="fill:#ffb77c;fill-opacity:1;fill-rule:evenodd;stroke-width:0.264583" d="m 101.37948,106.22776 27.60452,2.4815 3.39639,13.46049 -30.89933,-0.81937 z" sodipodi:nodetypes="ccccc" />
    <path id="path14350-9-2" style="fill:#6d3c6d;fill-opacity:1;stroke-width:2.065;stroke-linecap:square;stroke-dashoffset:44.0315;paint-order:markers stroke fill" inkscape:transform-center-x="-2.9408935" inkscape:transform-center-y="4.4929967" d="m 114.34086,115.81386 34.90758,16.06599 29.69884,-19.52619 -31.3658,8.38189 -14.85234,-18.73817 z" sodipodi:nodetypes="cccccc" />
    <path id="path3322" style="fill:#ffffff;fill-opacity:1;stroke:#5c1d5e;stroke-width:2.065;stroke-linecap:square;stroke-dashoffset:44.0315;stroke-opacity:1;paint-order:markers stroke fill" inkscape:transform-center-x="-0.86310029" inkscape:transform-center-y="1.5040677" d="m 111.49518,144.00646 c -3.66703,-0.44517 -7.69297,-7.52142 -7.69297,-7.52142 l 17.02615,1.98211 c 0,0 -5.6242,5.98884 -9.33318,5.5393 z" sodipodi:nodetypes="sccs" />
    <path id="path3546" style="fill:#5c1d5e;stroke-width:2.065;stroke-linecap:square;stroke-dashoffset:44.0315;paint-order:markers stroke fill" inkscape:transform-center-x="-0.59394996" inkscape:transform-center-y="0.70885772" d="m 106.35259,141.12299 -0.7529,-4.55404 3.15769,0.16837 z" sodipodi:nodetypes="cccc" />
    <path id="path3322-7" style="fill:#ffffff;fill-opacity:1;stroke:#5c1d5e;stroke-width:2.065;stroke-linecap:square;stroke-dashoffset:44.0315;stroke-opacity:1;paint-order:markers stroke fill" inkscape:transform-center-x="-0.86310705" inkscape:transform-center-y="1.5040787" d="m 133.4763,146.26238 c -3.66704,-0.44517 -7.69296,-7.52142 -7.69296,-7.52142 l 17.02615,1.9821 c 0,0 -5.62421,5.98884 -9.33319,5.53932 z" sodipodi:nodetypes="sccs" />
    <path id="path3546-7" style="fill:#5c1d5e;stroke-width:2.065;stroke-linecap:square;stroke-dashoffset:44.0315;paint-order:markers stroke fill" inkscape:transform-center-x="-0.59352902" inkscape:transform-center-y="0.70929373" d="m 128.4741,143.24679 -0.89329,-4.42194 3.15769,0.16837 z" sodipodi:nodetypes="cccc" />
    <path id="path3791" style="fill:#5c1d5e;stroke-width:2.065;stroke-linecap:square;stroke-dashoffset:44.0315;paint-order:markers stroke fill" inkscape:transform-center-x="0.40706091" inkscape:transform-center-y="-0.70004238" d="m 113.03605,128.29488 c 2.29321,0.52808 4.30188,5.94598 4.30188,5.94598 0,0 -2.80064,-3.21475 -4.74956,-3.60908 -2.08411,-0.42169 -6.17988,1.58141 -6.17988,1.58141 0,0 4.10089,-4.50015 6.62756,-3.91831 z" sodipodi:nodetypes="scscs" />
    <path id="path3791-1" style="fill:#5c1d5e;stroke-width:2.065;stroke-linecap:square;stroke-dashoffset:44.0315;paint-order:markers stroke fill" inkscape:transform-center-x="0.40707301" inkscape:transform-center-y="-0.70004932" d="m 135.15268,131.19588 c 2.2932,0.52809 4.30187,5.94599 4.30187,5.94599 0,0 -2.80062,-3.21475 -4.74955,-3.60909 -2.08411,-0.42167 -6.17989,1.58143 -6.17989,1.58143 0,0 4.1009,-4.50016 6.62757,-3.91833 z" sodipodi:nodetypes="scscs" />
    <path id="path4569" style="fill:#5c1d5e;stroke-width:2.065;stroke-linecap:square;stroke-dashoffset:44.0315;paint-order:markers stroke fill" inkscape:transform-center-x="0.33353631" inkscape:transform-center-y="0.55468611" d="m 100.20934,131.8274 c 0.84577,3.10766 4.70817,3.71173 7.89653,4.87517 l -4.53575,-0.35519 c -2.32967,-0.61828 -3.651869,-1.97659 -3.36078,-4.51998 z m 5.46548,5.79135" sodipodi:nodetypes="cccc" />
    <path id="path4569-7" style="fill:#5c1d5e;stroke-width:2.065;stroke-linecap:square;stroke-dashoffset:44.0315;paint-order:markers stroke fill" inkscape:transform-center-x="0.3335312" inkscape:transform-center-y="0.55468695" d="m 102.9551,131.96057 c 0.84576,3.10767 4.70815,3.71174 7.89652,4.87517 l -4.53575,-0.35518 c -2.32966,-0.61829 -3.65186,-1.9766 -3.36077,-4.51999 z m 5.46546,5.79135" sodipodi:nodetypes="cccc" />
    <path id="path4569-1" style="fill:#5c1d5e;stroke-width:2.065;stroke-linecap:square;stroke-dashoffset:44.0315;paint-order:markers stroke fill" inkscape:transform-center-x="0.24544287" inkscape:transform-center-y="-1.138149" d="m 96.991703,137.61055 c 2.056795,-2.4784 5.822577,-1.42869 9.206517,-1.16729 l -4.27563,-1.55508 c -2.376555,-0.40202 -4.142565,0.28679 -4.930887,2.72237 z m 7.373127,-3.00798" sodipodi:nodetypes="cccc" />
    <path id="path4569-9" style="fill:#5c1d5e;stroke-width:2.065;stroke-linecap:square;stroke-dashoffset:44.0315;paint-order:markers stroke fill" inkscape:transform-center-x="-0.28836853" inkscape:transform-center-y="0.84557695" d="m 147.03968,136.88845 c -1.44248,2.87962 -5.34813,2.70947 -8.7034,3.22075 l 4.51658,0.54745 c 2.40587,-0.14631 3.97017,-1.21694 4.18677,-3.76776 z m -6.50097,4.59872" sodipodi:nodetypes="cccc" />
    <path id="path4569-7-6" style="fill:#5c1d5e;stroke-width:2.065;stroke-linecap:square;stroke-dashoffset:44.0315;paint-order:markers stroke fill" inkscape:transform-center-x="-0.28837309" inkscape:transform-center-y="0.845579" d="m 144.32166,136.47708 c -1.44248,2.87962 -5.34812,2.70945 -8.7034,3.22074 l 4.51657,0.54744 c 2.40589,-0.14631 3.97017,-1.21694 4.18678,-3.76775 z m -6.50097,4.59871" sodipodi:nodetypes="cccc" />
    <path id="path4569-1-9" style="fill:#5c1d5e;stroke-width:2.065;stroke-linecap:square;stroke-dashoffset:44.0315;paint-order:markers stroke fill" inkscape:transform-center-x="-0.2836058" inkscape:transform-center-y="-0.8863958" d="m 149.05263,143.19291 c -1.52718,-2.8356 -5.42608,-2.54979 -8.79504,-2.96141 l 4.49844,-0.68061 c 2.40915,0.0749 4.00448,1.09876 4.2966,3.64202 z m -6.63443,-4.40405" sodipodi:nodetypes="cccc" />
    <path id="path7980" style="fill:#4b2f4b;fill-opacity:1;stroke-width:2.065;stroke-linecap:square;stroke-dashoffset:44.0315;paint-order:markers stroke fill" inkscape:transform-center-x="-0.063805857" inkscape:transform-center-y="-0.8343377" d="m 120.91596,152.54905 -5.09806,5.51132 -3.67912,-8.71944 z" sodipodi:nodetypes="cccc" />
    <path id="path7980-7" style="fill:#4b2f4b;fill-opacity:1;stroke-width:2.065;stroke-linecap:square;stroke-dashoffset:44.0315;paint-order:markers stroke fill" inkscape:transform-center-x="0.23929324" inkscape:transform-center-y="-1.2442398" d="m 119.70719,154.73226 6.6378,-0.29437 -1.25618,-6.5583 z" sodipodi:nodetypes="cccc" />
    <path id="path18235" style="fill:#583358;stroke-width:2.065;stroke-linecap:square;stroke-dashoffset:44.0315;paint-order:markers stroke fill" inkscape:transform-center-x="1.4265638" inkscape:transform-center-y="-1.4265646" d="m 110.5829,157.35317 c 5.99291,3.90224 12.39809,7.54338 7.42086,18.39337 L 97.480836,150.61825 Z" sodipodi:nodetypes="cccc" />
    <path id="path12529" style="fill:#3d263d;stroke-width:2.065;stroke-linecap:square;stroke-dashoffset:44.0315;paint-order:markers stroke fill" inkscape:transform-center-x="0.35956093" inkscape:transform-center-y="0.66736962" d="m 123.08368,209.04552 c -0.32494,-11.11371 3.55255,-15.53648 -12.50078,-51.69235 l 17.67307,-5.26367 c 6.16531,18.70217 5.61536,37.73955 8.34815,55.24365 z" sodipodi:nodetypes="ccccc" />
    <path id="path14350-9" style="fill:#6d3c6d;fill-opacity:1;stroke-width:2.065;stroke-linecap:square;stroke-dashoffset:44.0315;paint-order:markers stroke fill" inkscape:transform-center-x="-3.13729" inkscape:transform-center-y="-1.2205633" d="m 112.24552,121.26407 34.63661,-16.64214 -2.86963,-14.456467 -6.77745,8.633411 -23.90505,-0.50973 -7.20656,5.357256 z" sodipodi:nodetypes="ccccccc" />
    <rect style="fill:#ff008e;fill-opacity:1;fill-rule:evenodd;stroke-width:0.33676" id="rect16021" width="7.477272" height="7.9971828" x="233.39075" y="166.21558" transform="matrix(0.99960598,-0.02806926,-0.76910466,0.63912286,0,0)" />
    <path id="path14350" style="fill:#735273;stroke-width:2.065;stroke-linecap:square;stroke-dashoffset:44.0315;paint-order:markers stroke fill" inkscape:transform-center-x="3.3571035" inkscape:transform-center-y="-0.24943227" d="m 114.22794,124.67669 -37.989774,-5.78205 -8.986555,-15.76572 16.508245,7.37536 22.710264,-7.4803 z" sodipodi:nodetypes="cccccc" />
    <path id="path14350-2" style="fill:#735273;stroke-width:2.065;stroke-linecap:square;stroke-dashoffset:44.0315;paint-order:markers stroke fill" inkscape:transform-center-x="2.232925" inkscape:transform-center-y="3.3413157" d="m 113.59561,119.87728 -27.622362,26.71442 -34.487799,-8.59562 10.553838,-0.806 3.294398,-0.25159 18.523943,-1.41467 7.81307,-22.59795 z" sodipodi:nodetypes="cccccccc" />
    <path id="path18232" style="fill:#583358;stroke-width:2.065;stroke-linecap:square;stroke-dashoffset:44.0315;paint-order:markers stroke fill" inkscape:transform-center-x="-0.73579642" inkscape:transform-center-y="-0.73580016" d="m 126.61763,169.37973 c 1.1829,4.2225 2.6465,6.85439 4.39351,7.88032 -1.57048,1.56241 -2.51828,3.3739 -2.21339,5.68646 -0.56886,-2.94929 -2.61068,-3.32092 -4.64728,-3.70168 1.96862,-2.03794 2.56153,-5.57664 2.46716,-9.8651 z" sodipodi:nodetypes="ccccc" />
  </g>
</svg>
