<?xml version="1.0" encoding="UTF-8" standalone="no"?>
<!-- Created with Inkscape (http://www.inkscape.org/) -->

<svg width="77.364563mm" height="120.69556mm" viewBox="0 0 77.364563 120.69556" version="1.1" id="svg5" xml:space="preserve" inkscape:version="1.3 (0e150ed6c4, 2023-07-21)" sodipodi:docname="женщина.svg" xmlns:inkscape="http://www.inkscape.org/namespaces/inkscape" xmlns:sodipodi="http://sodipodi.sourceforge.net/DTD/sodipodi-0.dtd" xmlns="http://www.w3.org/2000/svg" xmlns:svg="http://www.w3.org/2000/svg"><sodipodi:namedview id="namedview7" pagecolor="#ffffff" bordercolor="#666666" borderopacity="1.0" inkscape:showpageshadow="2" inkscape:pageopacity="0.0" inkscape:pagecheckerboard="0" inkscape:deskcolor="#d1d1d1" inkscape:document-units="mm" showgrid="false" showguides="false" inkscape:zoom="0.66331435" inkscape:cx="31.659197" inkscape:cy="366.34214" inkscape:window-width="2467" inkscape:window-height="1413" inkscape:window-x="84" inkscape:window-y="-9" inkscape:window-maximized="1" inkscape:current-layer="layer1" /><defs id="defs2" /><g inkscape:label="Слой 1" inkscape:groupmode="layer" id="layer1" transform="translate(-217.45862,-9.6697448)"><path id="path34728-0" style="fill:#322330;stroke-width:2.065;stroke-linecap:square;stroke-dashoffset:44.0315;paint-order:markers stroke fill" inkscape:transform-center-x="1.2292104" inkscape:transform-center-y="0.23102726" d="m 268.61741,102.08711 0.49643,-9.399646 7.02334,5.65128 -3.4933,5.610976 z" sodipodi:nodetypes="ccccc" /><path id="path37977-6" style="fill:#e4b8cb;fill-opacity:1;stroke-width:2.065;stroke-linecap:square;stroke-dashoffset:44.0315;paint-order:markers stroke fill" inkscape:transform-center-x="1.3953793" inkscape:transform-center-y="2.0972255" d="m 255.05656,54.860305 -3.63486,-4.068268 -4.57372,-11.851011 -7.23264,-9.167529 c -0.88903,-8.288066 -0.4172,-14.476726 0.41872,-20.1037522 l 7.88086,3.6694592 c -1.49578,13.407609 1.30101,14.890093 2.10943,21.89648 l 6.76074,15.327244 z" sodipodi:nodetypes="ccccccccc" /><path id="path37350-8" style="fill:#322330;fill-opacity:1;stroke-width:2.065;stroke-linecap:square;stroke-dashoffset:44.0315;paint-order:markers stroke fill" inkscape:transform-center-x="8.237296" inkscape:transform-center-y="1.0097013" d="m 276.10365,108.92809 -2.613,-1.99406 -1.89136,-3.99597 -30.18268,-59.026695 23.03681,5.226434 c 3.88342,19.930098 10.01267,37.064165 11.65023,59.790291 z" sodipodi:nodetypes="cccccc" /><path id="rect36539" style="fill:#322330;fill-opacity:1;fill-rule:evenodd;stroke-width:0.264583" d="m 260.54452,106.0284 2.84751,-3.14255 10.9985,-1.74162 c 1.48895,5.54128 3.62404,7.12644 3.23354,14.74975 -0.17608,3.43765 0.61887,8.63838 0.46839,14.47133 l -7.50237,-0.26526 c -0.26276,-8.15181 -5.03941,-16.3216 -10.04557,-24.07165 z" sodipodi:nodetypes="cccsccc" /><path id="path35669" style="opacity:1;fill:#322330;stroke-width:2.065;stroke-linecap:square;stroke-dashoffset:44.0315;paint-order:markers stroke fill" inkscape:transform-center-x="0.35583781" inkscape:transform-center-y="-0.3007372" d="m 271.27883,99.596504 -7.02333,-5.65128 5.61772,-1.34701 z" sodipodi:nodetypes="cccc" /><path id="path36398" style="opacity:1;fill:#e4b8cb;fill-opacity:1;stroke-width:2.065;stroke-linecap:square;stroke-dashoffset:44.0315;paint-order:markers stroke fill" inkscape:transform-center-x="-0.10740573" inkscape:transform-center-y="0.8399049" d="m 271.2924,108.22374 -6.56227,-7.44223 6.8964,1.68744 z" sodipodi:nodetypes="cccc" /><path id="path32380" style="opacity:1;fill:#ffffff;stroke-width:2.065;stroke-linecap:square;stroke-dashoffset:44.0315;paint-order:markers stroke fill" inkscape:transform-center-x="0.77838401" inkscape:transform-center-y="-0.026674408" d="m 267.76717,89.582667 3.85936,12.886283 -0.3477,4.47292 -3.75988,-5.54834 z" sodipodi:nodetypes="ccccc" /><path id="rect13649" style="fill:#322330;fill-opacity:1;fill-rule:evenodd;stroke-width:0.264583" d="m 273.99465,63.578243 13.10002,2.905396 4.70925,8.439668 -12.84242,0.762289 z" sodipodi:nodetypes="ccccc" /><path id="rect13649-7" style="fill:#322330;fill-opacity:1;fill-rule:evenodd;stroke-width:0.264583" d="m 255.28675,51.484975 18.11439,-26.993445 10.27389,-0.609129 11.14815,6.871113 -27.24229,25.216091 z" sodipodi:nodetypes="cccccc" /><path id="path4757" style="opacity:1;fill:#ac3d62;stroke-width:2.065;stroke-linecap:square;stroke-dashoffset:44.0315;paint-order:markers stroke fill" inkscape:transform-center-x="5.9063441" inkscape:transform-center-y="0.58014963" d="m 217.45862,56.09768 c 32.46812,15.53824 36.01156,8.86563 31.77753,-14.637898 l 20.95907,22.412521 c -2.71434,34.344081 -37.39299,21.841091 -52.7366,-7.774623 z" sodipodi:nodetypes="cccc" /><path id="path4757-0" style="fill:#9b3663;fill-opacity:1;stroke-width:2.065;stroke-linecap:square;stroke-dashoffset:44.0315;paint-order:markers stroke fill" inkscape:transform-center-x="0.81826864" inkscape:transform-center-y="-8.0578505" d="m 265.75812,21.203949 c -0.14793,35.994353 -6.95461,36.659746 -26.27008,22.614985 l 11.05147,28.626372 c 32.09985,12.509338 35.1996,-24.534119 15.21861,-51.241357 z" sodipodi:nodetypes="cccc" /><path id="path32377" style="opacity:1;fill:#e4b8cb;fill-opacity:1;stroke-width:2.065;stroke-linecap:square;stroke-dashoffset:44.0315;paint-order:markers stroke fill" inkscape:transform-center-x="-0.42304662" inkscape:transform-center-y="0.18152658" d="m 271.62653,102.46895 -3.85936,-12.886283 3.35317,-1.741317 z" sodipodi:nodetypes="cccc" /><path id="path234" style="opacity:1;fill:#ffffff;fill-opacity:1;stroke-width:2.065;stroke-linecap:square;stroke-dashoffset:44.0315;paint-order:markers stroke fill" inkscape:transform-center-x="3.0040524" inkscape:transform-center-y="1.407654" d="m 276.36511,94.088524 c 0,0 -11.2639,-1.42252 -16.01208,-4.24034 -7.78342,-4.61908 -12.84858,-24.076264 -12.84858,-24.076264 l 11.91289,-6.894821 10.27173,-9.844586 c 4.0262,10.432318 7.37883,22.09586 15.1067,30.526058 z" sodipodi:nodetypes="csccccc" /><path id="rect4903" style="fill:#41363b;fill-rule:evenodd;stroke-width:0.264583" d="m 245.30902,73.88314 7.72736,-11.243284 c 1.43771,10.586773 2.90496,19.624328 6.37983,22.041928 l -4.56266,1.71993 c -6.18628,-5.989529 -9.73802,-12.748462 -9.54453,-12.518574 z" sodipodi:nodetypes="ccccc" /><path id="path468" style="fill:#e4b8cb;fill-opacity:1;stroke-width:2.065;stroke-linecap:square;stroke-dashoffset:44.0315;paint-order:markers stroke fill" inkscape:transform-center-x="0.083278781" inkscape:transform-center-y="0.63698947" d="m 269.17602,66.060562 c -5.93785,0.507152 -6.76074,-3.051387 -6.76074,-3.051387 l 11.92001,-1.616077 0.6671,1.647823 c 0,0 -1.0263,2.609667 -5.82637,3.019641 z" sodipodi:nodetypes="ccccc" /><path id="path468-5" style="fill:#e4b8cb;fill-opacity:1;stroke-width:2.06501;stroke-linecap:square;stroke-dashoffset:44.0315;paint-order:markers stroke fill" inkscape:transform-center-x="-0.16029056" inkscape:transform-center-y="-0.36379536" d="m 263.4889,70.591095 c -2.50015,7.635915 -6.80139,7.080741 -6.80139,7.080741 l 5.23025,-15.623938 c 0,0 3.59223,2.370435 1.57114,8.543197 z" sodipodi:nodetypes="cccc" /><path id="path3532" style="opacity:1;fill:#9b3663;stroke-width:2.065;stroke-linecap:square;stroke-dashoffset:44.0315;paint-order:markers stroke fill" inkscape:transform-center-x="-0.80423524" inkscape:transform-center-y="-2.1461311" d="m 261.48587,58.788025 c 9.06188,22.051722 -26.49132,28.881149 -41.4518,17.112885 11.19135,-5.086482 30.93465,-5.123534 14.20841,-31.60707 z" sodipodi:nodetypes="cccc" /><path id="path3532-3" style="fill:#ac3d62;fill-opacity:1;stroke-width:2.065;stroke-linecap:square;stroke-dashoffset:44.0315;paint-order:markers stroke fill" inkscape:transform-center-x="-0.15198188" inkscape:transform-center-y="2.6290803" d="m 260.37599,61.709138 c 14.72335,10.505263 24.81933,-10.234163 18.71181,-23.319376 -5.6916,7.387902 -8.0376,17.622552 -24.71006,0.68969 z" sodipodi:nodetypes="cccc" /><path id="path13394" style="opacity:1;fill:#322330;stroke-width:2.065;stroke-linecap:square;stroke-dashoffset:44.0315;paint-order:markers stroke fill" inkscape:transform-center-x="0.29171673" inkscape:transform-center-y="0.31160688" d="m 254.7101,79.275599 -2.77381,3.646335 -1.36729,-2.649596 z" sodipodi:nodetypes="cccc" /><path id="path13394-2" style="fill:#322330;stroke-width:2.065;stroke-linecap:square;stroke-dashoffset:44.0315;paint-order:markers stroke fill" inkscape:transform-center-x="0.24285798" inkscape:transform-center-y="0.25941702" d="m 256.15442,81.292024 -2.30923,3.03559 -1.13828,-2.2058 z" sodipodi:nodetypes="cccc" /><path id="path13394-6" style="fill:#322330;stroke-width:2.065;stroke-linecap:square;stroke-dashoffset:44.0315;paint-order:markers stroke fill" inkscape:transform-center-x="0.17218707" inkscape:transform-center-y="0.18392431" d="m 257.36089,83.178454 -1.63728,2.1523 -0.80707,-1.56396 z" sodipodi:nodetypes="cccc" /><path id="rect13649-6" style="fill:#322330;fill-opacity:1;fill-rule:evenodd;stroke-width:0.264583" d="m 268.92809,73.652637 18.16658,-7.168998 -15.97437,8.913544 4.70927,8.439671 -4.09299,-2.31485 z" sodipodi:nodetypes="cccccc" /><path id="rect13649-6-9" style="fill:#322330;fill-opacity:1;fill-rule:evenodd;stroke-width:0.264583" d="m 260.42625,56.865696 23.24878,-32.983295 -20.45455,33.186811 11.14815,6.871114 -4.17341,-0.06802 z" sodipodi:nodetypes="cccccc" /><path style="fill:#ffc1c1;fill-opacity:1;fill-rule:evenodd;stroke-width:0.264583" id="path27098" sodipodi:type="arc" sodipodi:cx="203.15634" sodipodi:cy="186.64246" sodipodi:rx="6.1159754" sodipodi:ry="6.126121" sodipodi:start="0" sodipodi:end="3.1415927" sodipodi:arc-type="slice" d="m 209.27232,186.64246 a 6.1159754,6.126121 0 0 1 -3.05799,5.30537 6.1159754,6.126121 0 0 1 -6.11598,0 6.1159754,6.126121 0 0 1 -3.05798,-5.30537 h 6.11597 z" transform="rotate(-25.499318)" /><path id="path27098-2" style="fill:#642828;fill-opacity:1;fill-rule:evenodd;stroke-width:0.264583" d="m 257.57877,81.437974 0.61771,2.19774 0.487,-0.23253 3.3e-4,4e-4 a 4.1515384,4.1446629 64.500682 0 0 3.41779,2.35286 4.1515384,4.1446629 64.500682 0 0 3.7412,-1.78436 4.1515384,4.1446629 64.500682 0 0 0.3227,-4.137309 l -1.71509,0.817996 -3.05838,-1.033884 0.47636,1.695157 -2.35845,-0.797494 0.48925,1.739674 z" /><path id="path34565" style="opacity:1;fill:#642828;stroke-width:2.065;stroke-linecap:square;stroke-dashoffset:44.0315;paint-order:markers stroke fill" inkscape:transform-center-x="0.18994685" inkscape:transform-center-y="0.33654426" d="m 275.0422,90.754954 -4.20436,0.99096 -0.3507,-0.93479 z" sodipodi:nodetypes="cccc" /><path id="path34565-8" style="fill:#642828;stroke-width:2.065;stroke-linecap:square;stroke-dashoffset:44.0315;paint-order:markers stroke fill" inkscape:transform-center-x="-0.13072542" inkscape:transform-center-y="-0.13810811" d="m 275.0422,90.754954 3.46854,-2.30443 -0.0684,-0.86643 z" sodipodi:nodetypes="cccc" /><path id="path34728" style="opacity:1;fill:#322330;stroke-width:2.065;stroke-linecap:square;stroke-dashoffset:44.0315;paint-order:markers stroke fill" inkscape:transform-center-x="1.2292172" inkscape:transform-center-y="0.23102544" d="m 263.75906,103.34487 0.49644,-9.399646 7.02333,5.65128 -3.4933,5.610976 z" sodipodi:nodetypes="ccccc" /><path id="path37350" style="opacity:1;fill:#41363b;fill-opacity:1;stroke-width:2.065;stroke-linecap:square;stroke-dashoffset:44.0315;paint-order:markers stroke fill" inkscape:transform-center-x="-0.27727345" inkscape:transform-center-y="-4.7357484" d="m 265.78341,113.21727 0.61976,-3.22798 -1.25227,-4.23992 -16.82426,-64.125585 -13.69535,19.247014 c 10.38404,17.448824 17.23038,34.309185 31.15212,52.346471 z" sodipodi:nodetypes="cccccc" /><path id="path37905" style="opacity:1;fill:#322330;stroke-width:2.065;stroke-linecap:square;stroke-dashoffset:44.0315;paint-order:markers stroke fill" inkscape:transform-center-x="-0.16406334" inkscape:transform-center-y="-0.68498035" d="m 247.63595,45.055193 2.19538,19.22656 -13.40071,-3.120874 z" sodipodi:nodetypes="cccc" /><path id="path37977" style="opacity:1;fill:#ffffff;stroke-width:2.065;stroke-linecap:square;stroke-dashoffset:44.0315;paint-order:markers stroke fill" inkscape:transform-center-x="-0.9320717" inkscape:transform-center-y="0.5223202" d="m 245.14525,59.087826 0.32884,-5.445633 -3.76075,-12.133509 -0.0107,-11.677096 c -4.44204,-7.053419 -8.64984,-11.615935 -12.795,-15.512069 l -3.9072,7.76574 c 9.48764,9.59094 8.21283,12.48827 11.92331,18.486215 l 4.20064,16.216861 z" sodipodi:nodetypes="ccccccccc" /><path id="path37977-8" style="fill:#ffffff;stroke-width:2.065;stroke-linecap:square;stroke-dashoffset:44.0315;paint-order:markers stroke fill" inkscape:transform-center-x="0.78673833" inkscape:transform-center-y="0.7501177" d="m 190.67388,44.61165 -0.78726,-5.398451 2.72332,-12.407613 -0.9748,-11.636342 C 195.46605,7.7661 199.27378,2.86474 203.07533,-1.367328 l 4.54866,7.408282 c -8.64435,10.35744 -7.12957,13.136845 -10.32061,19.426541 l -2.81702,16.513521 z" sodipodi:nodetypes="ccccccccc" /><path id="path493" style="fill:#e4b8cb;fill-opacity:1;stroke-width:2.065;stroke-linecap:square;stroke-dashoffset:44.0315;paint-order:markers stroke fill" inkscape:transform-center-x="3.5025055e-06" inkscape:transform-center-y="0.34502739" d="m 284.56661,78.961671 -8.73701,4.875177 8.96617,-4.278277 z" sodipodi:nodetypes="cccc" /><rect style="opacity:1;fill:#41363b;fill-opacity:1;fill-rule:evenodd;stroke-width:0.264583" id="rect13647" width="18.292929" height="9.6646299" x="200.01796" y="197.94896" transform="rotate(-29.161148)" /><rect style="fill:#e24277;fill-opacity:1;fill-rule:evenodd;stroke-width:0.264583" id="rect13647-9" width="13.079562" height="6.9102726" x="202.62462" y="199.32613" transform="rotate(-29.161148)" /><rect style="fill:#41363b;fill-opacity:1;fill-rule:evenodd;stroke-width:0.264583" id="rect551" width="38.984013" height="13.095546" x="89.526718" y="254.02142" transform="rotate(-58.352577)" /><rect style="fill:#e24277;fill-opacity:1;fill-rule:evenodd;stroke-width:0.264583" id="rect13647-9-3" width="9.1885004" height="4.8545237" x="256.78271" y="-123.16721" transform="rotate(31.228304)" /><rect style="fill:#e24277;fill-opacity:1;fill-rule:evenodd;stroke-width:0.264583" id="rect13647-9-3-7" width="9.1885004" height="4.8545237" x="256.90887" y="-115.35014" transform="rotate(31.228304)" /><rect style="fill:#e24277;fill-opacity:1;fill-rule:evenodd;stroke-width:0.264583" id="rect13647-9-3-7-5" width="9.1885004" height="4.8545237" x="256.50153" y="-106.7282" transform="rotate(31.228304)" /><rect style="fill:#e24277;fill-opacity:1;fill-rule:evenodd;stroke-width:0.264583" id="rect13647-9-3-7-3" width="9.1885004" height="4.8545237" x="256.39252" y="-97.54451" transform="rotate(31.228304)" /><path id="path1903" style="fill:#e4b8cb;stroke-width:2.065;stroke-linecap:square;stroke-dashoffset:44.0315;paint-order:markers stroke fill" inkscape:transform-center-x="0.19369093" inkscape:transform-center-y="0.17165756" d="m 273.87524,86.43955 -3.11413,0.132428 4.62544,-1.869671 z" sodipodi:nodetypes="cccc" /></g><g inkscape:groupmode="layer" id="layer2" inkscape:label="Слой 2" style="display:inline" sodipodi:insensitive="true" transform="translate(-217.45862,-9.6697448)" /></svg>
