<?xml version="1.0" encoding="UTF-8" standalone="no"?>
<!-- Created with Inkscape (http://www.inkscape.org/) -->

<svg width="345.3002mm" height="305.4071mm" viewBox="0 0 345.3002 305.4071" version="1.1" id="svg8" inkscape:version="1.3 (0e150ed6c4, 2023-07-21)" sodipodi:docname="kdm.svg" xmlns:inkscape="http://www.inkscape.org/namespaces/inkscape" xmlns:sodipodi="http://sodipodi.sourceforge.net/DTD/sodipodi-0.dtd" xmlns="http://www.w3.org/2000/svg" xmlns:svg="http://www.w3.org/2000/svg" xmlns:rdf="http://www.w3.org/1999/02/22-rdf-syntax-ns#" xmlns:cc="http://creativecommons.org/ns#" xmlns:dc="http://purl.org/dc/elements/1.1/">
  <defs id="defs2" />
  <sodipodi:namedview id="base" pagecolor="#ffffff" bordercolor="#666666" borderopacity="1.0" inkscape:pageopacity="0.0" inkscape:pageshadow="2" inkscape:zoom="0.49497475" inkscape:cx="692.96465" inkscape:cy="551.54329" inkscape:document-units="mm" inkscape:current-layer="layer1" showgrid="false" showguides="false" inkscape:window-width="2467" inkscape:window-height="1413" inkscape:window-x="84" inkscape:window-y="-9" inkscape:window-maximized="1" inkscape:showpageshadow="2" inkscape:pagecheckerboard="0" inkscape:deskcolor="#d1d1d1" />
  <metadata id="metadata5">
    <rdf:RDF>
      <cc:Work rdf:about="">
        <dc:format>image/svg+xml</dc:format>
        <dc:type rdf:resource="http://purl.org/dc/dcmitype/StillImage" />
        <dc:title />
      </cc:Work>
    </rdf:RDF>
  </metadata>
  <g inkscape:label="Layer 1" inkscape:groupmode="layer" id="layer1" transform="translate(31.324774,129.99739)">
    <rect style="fill:#010101;fill-opacity:1;fill-rule:evenodd;stroke-width:0.264583" id="rect1039" width="345.3002" height="305.4071" x="-31.324774" y="-129.99739" inkscape:export-xdpi="134.80443" inkscape:export-ydpi="134.80443" />
    <path style="fill:#910d0d;fill-opacity:1;fill-rule:evenodd;stroke-width:0.264583" d="m 32.397741,-37.014665 v 21.54493 21.5449301 h 21.54442 V -15.469735 a 21.544643,21.544643 0 0 0 -21.54442,-21.54493 z m 21.54442,21.54493 h 5.3e-4 V 6.0751951 h 21.54442 v -21.5449301 -21.54441 a 21.544643,21.544643 0 0 0 -21.54495,21.54441 z" id="path817-0-7-6-7" inkscape:connector-curvature="0" />
    <path style="fill:#237725;fill-opacity:1;fill-rule:evenodd;stroke-width:0.264583" d="m 32.397741,-37.014665 v 21.54493 21.5449401 a 21.544643,21.544643 0 0 0 21.54443,-21.5449401 21.544643,21.544643 0 0 0 -21.54443,-21.54493 z" id="path817-2-3-4-0" inkscape:connector-curvature="0" />
    <path style="fill:#910d0d;fill-opacity:1;fill-rule:evenodd;stroke-width:0.264583" d="m 10.853321,-37.014665 v 21.54493 a 21.544643,21.544643 0 0 0 21.54442,-21.54493 z m 0,21.54493 V 6.0752051 h 21.54442 A 21.544643,21.544643 0 0 0 10.853321,-15.469735 Z" id="path817-6-17-2-0" inkscape:connector-curvature="0" />
    <path style="fill:#910d0d;fill-opacity:1;fill-rule:evenodd;stroke-width:1" d="m 368.13867,-139.89648 v 81.42773 81.427734 h 17.14258 V -8.5507812 A 81.427688,81.427703 0 0 0 449.56641,22.958984 V 5.8164062 a 64.284779,64.28482 0 0 1 -64.28516,-64.2851562 64.284779,64.28482 0 0 1 64.28516,-64.28516 v -17.14257 a 81.427688,81.427703 0 0 0 -64.28516,31.51171 v -31.51171 z" transform="scale(0.26458333)" id="rect1056-3" />
    <path style="fill:#910d0d;fill-opacity:1;fill-rule:evenodd;stroke-width:0.264583" d="m 135.9566,-37.014356 v 15.35565 6.18876 a 17.008681,17.008692 0 0 1 -17.00878,17.00878 v 4.53564 a 21.544409,21.544413 0 0 0 17.00878,-8.33696 v 3.56516 c 0,0.0796 0.004,0.1582 0.0119,0.23564 a 17.008681,17.008692 0 0 1 -0.0119,5.2e-4 v 4.53564 a 21.544409,21.544413 0 0 0 17.00465,-8.33179 21.544409,21.544413 0 0 0 0.004,-0.005 v 6.06888 2.26808 h 2.26757 2.26808 v -2.26808 -19.27634 -19.27685 -2.26756 h -2.26757 -5.1e-4 -2.26757 v 2.26756 13.08757 3.9212 2.26808 a 17.008681,17.008692 0 0 1 -0.75964,5.02657 17.008681,17.008692 0 0 1 -2.21123,4.57698 17.008681,17.008692 0 0 1 0,5.2e-4 17.008681,17.008692 0 0 1 -2.18798,2.59725 17.008681,17.008692 0 0 1 -2.66031,2.11099 17.008681,17.008692 0 0 1 -4.65398,2.07997 v -14.1242 c 0,-0.19806 -0.0277,-0.38917 -0.0749,-0.57206 a 21.544409,21.544413 0 0 0 0.0749,-1.69602 v -6.18876 -15.35565 z" id="path1088-5-2-40" inkscape:connector-curvature="0" />
    <path style="fill:#237725;fill-opacity:1;fill-rule:evenodd;stroke-width:1" d="M 434.38672,-115.43164 V -1.5058594 h 6.45117 6.44922 A 56.963414,56.963426 0 0 0 504.25,-58.46875 56.963414,56.963426 0 0 0 447.28711,-115.43164 h -6.44922 z m 12.90039,11.99219 a 44.970951,44.970981 0 0 1 44.9707,44.9707 44.970951,44.970981 0 0 1 -44.9707,44.970703 z" transform="scale(0.26458333)" id="path1088-0-5" />
    <path style="fill:#237725;fill-opacity:1;fill-rule:evenodd;stroke-width:0.264583" d="m 239.63182,-37.016533 -9.35428,21.545225 -9.35504,21.5459562 h 4.5358 17.00942 v -7.303e-4 l 1.9693,-4.5350697 a 13.713101,21.098517 51.124256 0 1 -9.6237,-17.0101562 13.713101,21.098517 51.124256 0 1 24.39445,-17.00944 l 1.97003,-4.535785 h -17.00942 z" id="rect1056-3-9-4" inkscape:connector-curvature="0" />
    <path style="fill:#237725;fill-opacity:1;fill-rule:evenodd;stroke-width:0.264583" d="m 280.19202,-37.016533 -9.35501,21.545956 A 13.713101,21.098515 51.124256 0 1 246.44183,1.5388482 l -1.9693,4.5358 h 17.00942 17.01017 4.5358 l 9.3543,-21.5452252 7.6e-4,-7.31e-4 9.35429,-21.545225 h -4.5358 l -9.35505,21.545225 v 7.31e-4 l -0.003,0.0072 A 13.713101,21.098515 51.124256 0 1 268.2543,0.9228902 c 0.004,-0.008593 0.009,-0.0167555 0.0115,-0.0252048 l 5.94631,-13.6947154 c 0.11843,-0.272885 0.1976,-0.535374 0.24125,-0.782983 a 17.36999,26.724881 51.124285 0 0 0.91915,-1.890106 l 9.35502,-21.545956 z" id="path1088-5-2-40-6-1" inkscape:connector-curvature="0" />
    <path style="fill:#910d0d;fill-opacity:1;fill-rule:evenodd;stroke-width:0.264583" d="m 254.63792,-30.543268 -13.0886,30.14466473 h 1.70657 v 7.3037e-4 h 1.70657 a 12.15132,18.695612 51.124285 0 0 21.61702,-15.0734351 12.15132,18.695612 51.124285 0 0 -8.5284,-15.07196 h -1.70659 z" id="path1088-0-5-3-6" inkscape:connector-curvature="0" />
    <path style="fill:#910d0d;fill-opacity:1;fill-rule:evenodd;stroke-width:0.264583" d="m 185.42832,-36.825686 a 11.289609,11.289617 0 0 1 -11.28989,11.289407 v 3.010864 a 14.300224,14.300228 0 0 0 11.28989,-5.534355 v 11.068227 a 14.300224,14.300228 0 0 0 -11.28989,-5.533872 v 3.01038 a 11.289609,11.289617 0 0 1 11.28989,11.2898916 h 3.01038 A 14.300224,14.300228 0 0 0 202.73897,-22.525415 14.300224,14.300228 0 0 0 188.4387,-36.825686 Z m 3.01038,3.01038 a 11.289609,11.289617 0 0 1 11.28941,11.289891 11.289609,11.289617 0 0 1 -11.28941,11.289408 z M 174.13843,-8.2251434 V -5.2147637 6.074644 h 3.01038 V -4.8053132 a 11.289609,11.289617 0 0 1 8.27951,10.8799572 h 3.01038 a 11.289609,11.289617 0 0 1 0.0562,-1.1267144 11.289609,11.289618 0 0 1 8.22289,-9.7532428 V 6.074644 h 3.01037 V -5.2147637 -8.2251434 a 14.300226,14.300229 0 0 0 -12.79465,7.92668778 14.300225,14.300228 0 0 0 -12.79508,-7.92668778 z" id="path1088-2-4-40" inkscape:connector-curvature="0" />
    <rect style="fill:#910d0d;fill-opacity:1;fill-rule:evenodd;stroke-width:0.264583" id="rect6302-9" width="9.5954914" height="43.08987" x="-31.324776" y="-20.383711" />
    <rect style="fill:#46804d;fill-opacity:1;fill-rule:evenodd;stroke-width:0.264583" id="rect6302" width="9.5954914" height="43.08987" x="-31.324776" y="-37.014664" />
    <rect style="fill:#910d0d;fill-opacity:1;fill-rule:evenodd;stroke-width:0.264583" id="rect6302-9-4" width="9.5954914" height="43.08987" x="-31.324776" y="10.555748" transform="scale(1,-1)" />
    <rect style="fill:#237725;fill-opacity:1;fill-rule:evenodd;stroke-width:0.264583" id="rect6302-4" width="9.5954914" height="43.08987" x="-31.324776" y="-6.0752068" transform="scale(1,-1)" />
    <path style="fill:#6f348b;fill-opacity:1;fill-rule:evenodd;stroke-width:0.264583" d="m 32.397744,39.337113 v 21.544931 21.544928 h 21.54442 V 60.882044 A 21.544643,21.544643 0 0 0 32.397744,39.337113 Z m 21.54442,21.544931 h 5.3e-4 V 82.426972 H 75.487117 V 60.882044 39.337633 A 21.544643,21.544643 0 0 0 53.942164,60.882044 Z" id="path817-0-7-6-7-5" inkscape:connector-curvature="0" />
    <path style="fill:#423c8a;fill-opacity:1;fill-rule:evenodd;stroke-width:0.264583" d="M 32.397744,39.337113 V 60.882044 82.426983 A 21.544643,21.544643 0 0 0 53.942175,60.882044 21.544643,21.544643 0 0 0 32.397744,39.337113 Z" id="path817-2-3-4-0-3" inkscape:connector-curvature="0" />
    <path style="fill:#6f348b;fill-opacity:1;fill-rule:evenodd;stroke-width:0.264583" d="m 10.853324,39.337113 v 21.544931 a 21.544643,21.544643 0 0 0 21.54442,-21.544931 z m 0,21.544931 v 21.544939 h 21.54442 A 21.544643,21.544643 0 0 0 10.853324,60.882044 Z" id="path817-6-17-2-0-1" inkscape:connector-curvature="0" />
    <path inkscape:connector-curvature="0" style="fill:#6f348b;fill-opacity:1;fill-rule:evenodd;stroke-width:0.264583" d="M 97.403358,39.337501 V 60.881922 82.426343 H 101.939 v -8.33696 a 21.544409,21.544413 0 0 0 17.00878,8.33696 V 77.890702 A 17.008681,17.008692 0 0 1 101.939,60.881922 17.008681,17.008692 0 0 1 118.94778,43.873139 V 39.337501 A 21.544409,21.544413 0 0 0 101.939,47.674974 v -8.337473 z" id="rect1056-3-1" />
    <path style="fill:#6f348b;fill-opacity:1;fill-rule:evenodd;stroke-width:0.264583" d="m 135.95661,39.337422 v 15.35565 6.18876 a 17.008681,17.008692 0 0 1 -17.00878,17.00878 v 4.535641 a 21.544409,21.544413 0 0 0 17.00878,-8.33696 v 3.56516 c 0,0.0796 0.004,0.158199 0.0119,0.23564 a 17.008681,17.008692 0 0 1 -0.0119,5.29e-4 v 4.535641 a 21.544409,21.544413 0 0 0 17.00465,-8.33179 21.544409,21.544413 0 0 0 0.004,-0.005 v 6.06888 2.26808 h 2.26757 2.26808 v -2.26808 -19.276341 -19.27685 -2.26756 h -2.26757 -5.3e-4 -2.26757 v 2.26756 13.087572 3.921199 2.268079 a 17.008681,17.008692 0 0 1 -0.75964,5.02657 17.008681,17.008692 0 0 1 -2.21123,4.57698 17.008681,17.008692 0 0 1 0,5.29e-4 17.008681,17.008692 0 0 1 -2.18798,2.597251 17.008681,17.008692 0 0 1 -2.66031,2.110988 17.008681,17.008692 0 0 1 -4.65398,2.079969 V 63.1501 c 0,-0.198059 -0.0277,-0.38917 -0.0749,-0.572061 a 21.544409,21.544413 0 0 0 0.0749,-1.696019 v -6.188778 -15.35565 z" id="path1088-5-2-40-2" inkscape:connector-curvature="0" />
    <path inkscape:connector-curvature="0" style="fill:#423c8a;fill-opacity:1;fill-rule:evenodd;stroke-width:0.264583" d="m 114.93149,45.81049 v 30.142864 h 1.70687 1.70636 A 15.07157,15.071573 0 0 0 133.41615,60.881922 15.07157,15.071573 0 0 0 118.34472,45.81049 h -1.70636 z m 3.41323,3.172934 a 11.898564,11.898572 0 0 1 11.8985,11.898498 11.898564,11.898572 0 0 1 -11.8985,11.898498 z" id="path1088-0-5-8" />
    <path style="fill:#423c8a;fill-opacity:1;fill-rule:evenodd;stroke-width:0.264583" d="m 239.63182,39.335245 -9.35427,21.545225 -9.35504,21.545957 h 4.5358 17.00942 v -7.93e-4 l 1.96929,-4.535073 a 13.713101,21.098517 51.124256 0 1 -9.62369,-17.010155 13.713101,21.098517 51.124256 0 1 24.39446,-17.00944 l 1.97003,-4.535785 h -17.00943 z" id="rect1056-3-9-4-7" inkscape:connector-curvature="0" />
    <path style="fill:#423c8a;fill-opacity:1;fill-rule:evenodd;stroke-width:0.264583" d="m 280.19202,39.335245 -9.355,21.545955 a 13.713101,21.098515 51.124256 0 1 -24.39517,17.009425 l -1.96932,4.535802 h 17.00943 17.01017 4.5358 L 292.38222,60.8812 v -7.94e-4 l 9.35429,-21.545225 h -4.5358 l -9.35506,21.545225 v 7.94e-4 l -0.003,0.0072 a 13.713101,21.098515 51.124256 0 1 -19.58902,16.386262 c 0.004,-0.0086 0.009,-0.01675 0.0114,-0.02522 l 5.94633,-13.694714 c 0.11842,-0.272886 0.19759,-0.535374 0.24124,-0.782984 a 17.36999,26.724883 51.124285 0 0 0.91917,-1.890107 l 9.355,-21.545955 z" id="path1088-5-2-40-6-1-3" inkscape:connector-curvature="0" />
    <path style="fill:#6f348b;fill-opacity:1;fill-rule:evenodd;stroke-width:0.264583" d="m 254.63793,45.80851 -13.0886,30.144664 h 1.70657 v 7.94e-4 h 1.70656 a 12.15132,18.695612 51.124285 0 0 21.61704,-15.073435 12.15132,18.695612 51.124285 0 0 -8.52842,-15.07196 h -1.70659 z" id="path1088-0-5-3-6-8" inkscape:connector-curvature="0" />
    <path style="fill:#6f348b;fill-opacity:1;fill-rule:evenodd;stroke-width:0.264583" d="m 185.36151,39.526092 a 11.289609,11.289617 0 0 1 -11.28989,11.289406 v 3.010865 a 14.300224,14.300228 0 0 0 11.28989,-5.534355 v 11.068227 a 14.300224,14.300228 0 0 0 -11.28989,-5.533872 v 3.010379 a 11.289609,11.289617 0 0 1 11.28989,11.289893 h 3.01038 A 14.300224,14.300228 0 0 0 202.67216,53.826363 14.300224,14.300228 0 0 0 188.37189,39.526092 Z m 3.01038,3.01038 a 11.289609,11.289617 0 0 1 11.28941,11.289891 11.289609,11.289617 0 0 1 -11.28941,11.289409 z m -14.30027,25.590163 v 3.010379 11.289408 H 177.082 V 71.546464 a 11.289609,11.289617 0 0 1 8.27951,10.879958 h 3.01038 a 11.289609,11.289617 0 0 1 0.0562,-1.126715 11.289609,11.289618 0 0 1 8.22289,-9.753243 v 10.879958 h 3.01037 V 71.137014 68.126635 a 14.300226,14.300229 0 0 0 -12.79465,7.926686 14.300225,14.300228 0 0 0 -12.79508,-7.926686 z" id="path1088-2-4-40-6" inkscape:connector-curvature="0" />
    <rect style="fill:#6f348b;fill-opacity:1;fill-rule:evenodd;stroke-width:0.264583" id="rect6302-9-2" width="9.5954924" height="43.08987" x="-31.324774" y="55.968063" />
    <rect style="fill:#46804d;fill-opacity:1;fill-rule:evenodd;stroke-width:0.264583" id="rect6302-8" width="9.5954924" height="43.08987" x="-31.324774" y="39.337112" />
    <rect style="fill:#6f348b;fill-opacity:1;fill-rule:evenodd;stroke-width:0.264583" id="rect6302-9-4-7" width="9.5954924" height="43.08987" x="-31.324774" y="-65.796028" transform="scale(1,-1)" />
    <rect style="fill:#423c8a;fill-opacity:1;fill-rule:evenodd;stroke-width:0.264583" id="rect6302-4-2" width="9.5954924" height="43.08987" x="-31.324774" y="-82.426987" transform="scale(1,-1)" />
    <path style="fill:#a54127;fill-opacity:1;fill-rule:evenodd;stroke-width:0.264583" d="m 32.397742,115.6889 v 21.54493 21.54492 h 21.54442 V 137.23383 A 21.544643,21.544643 0 0 0 32.397742,115.6889 Z m 21.54442,21.54493 h 5.3e-4 v 21.54492 H 75.487115 V 137.23383 115.68942 A 21.544643,21.544643 0 0 0 53.94216,137.23383 Z" id="path817-0-7-6-7-5-6" inkscape:connector-curvature="0" />
    <path style="fill:#87180c;fill-opacity:1;fill-rule:evenodd;stroke-width:0.264583" d="m 32.397742,115.6889 v 21.54493 21.54493 A 21.544643,21.544643 0 0 0 53.942176,137.23383 21.544643,21.544643 0 0 0 32.397742,115.6889 Z" id="path817-2-3-4-0-3-6" inkscape:connector-curvature="0" />
    <path style="fill:#a54127;fill-opacity:1;fill-rule:evenodd;stroke-width:0.264583" d="m 10.853322,115.6889 v 21.54493 a 21.544643,21.544643 0 0 0 21.54442,-21.54493 z m 0,21.54493 v 21.54493 h 21.54442 a 21.544643,21.544643 0 0 0 -21.54442,-21.54493 z" id="path817-6-17-2-0-1-8" inkscape:connector-curvature="0" />
    <path inkscape:connector-curvature="0" style="fill:#a54127;fill-opacity:1;fill-rule:evenodd;stroke-width:0.264583" d="m 97.403356,115.68928 v 21.54442 21.54442 H 101.939 v -8.33696 a 21.544409,21.544413 0 0 0 17.00878,8.33696 v -4.53564 A 17.008681,17.008692 0 0 1 101.939,137.2337 17.008681,17.008692 0 0 1 118.94778,120.22492 v -4.53564 a 21.544409,21.544413 0 0 0 -17.00878,8.33748 v -8.33748 z" id="rect1056-3-1-2" />
    <path style="fill:#a54127;fill-opacity:1;fill-rule:evenodd;stroke-width:0.264583" d="m 135.95662,115.6892 v 15.35566 6.18875 a 17.008681,17.008692 0 0 1 -17.00879,17.00878 v 4.53564 a 21.544409,21.544413 0 0 0 17.00879,-8.33696 v 3.56516 c 0,0.0796 0.004,0.1582 0.0119,0.23564 a 17.008681,17.008692 0 0 1 -0.0119,5.3e-4 v 4.53564 a 21.544409,21.544413 0 0 0 17.00465,-8.33179 21.544409,21.544413 0 0 0 0.004,-0.005 v 6.06888 2.26808 h 2.26757 2.26808 v -2.26808 -19.27633 -19.27686 -2.26755 h -2.26757 -5.3e-4 -2.26757 v 2.26755 13.08758 3.9212 2.26808 a 17.008681,17.008692 0 0 1 -0.75964,5.02657 17.008681,17.008692 0 0 1 -2.21123,4.57697 17.008681,17.008692 0 0 1 0,5.3e-4 17.008681,17.008692 0 0 1 -2.18798,2.59725 17.008681,17.008692 0 0 1 -2.66031,2.11099 17.008681,17.008692 0 0 1 -4.65398,2.07997 v -14.1242 c 0,-0.19806 -0.0277,-0.38917 -0.0749,-0.57206 a 21.544409,21.544413 0 0 0 0.0749,-1.69602 v -6.18878 -15.35565 z" id="path1088-5-2-40-2-9" inkscape:connector-curvature="0" />
    <path inkscape:connector-curvature="0" style="fill:#87180c;fill-opacity:1;fill-rule:evenodd;stroke-width:0.264583" d="m 114.9315,122.16227 v 30.14286 h 1.70687 1.70635 a 15.07157,15.071573 0 0 0 15.07144,-15.07143 15.07157,15.071573 0 0 0 -15.07144,-15.07143 h -1.70635 z m 3.41322,3.17294 a 11.898564,11.898572 0 0 1 11.89851,11.89849 11.898564,11.898572 0 0 1 -11.89851,11.8985 z" id="path1088-0-5-8-7" />
    <path style="fill:#87180c;fill-opacity:1;fill-rule:evenodd;stroke-width:0.264583" d="m 239.63182,115.68703 -9.35426,21.54522 -9.35504,21.54596 h 4.5358 17.00941 v -8e-4 l 1.96929,-4.53507 a 13.713101,21.098517 51.124256 0 1 -9.62369,-17.01015 13.713101,21.098517 51.124256 0 1 24.39446,-17.00944 l 1.97003,-4.53579 h -17.00943 z" id="rect1056-3-9-4-7-7" inkscape:connector-curvature="0" />
    <path style="fill:#87180c;fill-opacity:1;fill-rule:evenodd;stroke-width:0.264583" d="m 280.19202,115.68703 -9.355,21.54595 a 13.713101,21.098515 51.124256 0 1 -24.39517,17.00943 l -1.96932,4.5358 h 17.00943 17.01017 4.5358 l 9.35429,-21.54523 v -7.9e-4 l 9.35429,-21.54523 h -4.5358 l -9.35506,21.54523 v 7.9e-4 l -0.003,0.007 a 13.713101,21.098515 51.124256 0 1 -19.58904,16.38626 c 0.004,-0.009 0.009,-0.0168 0.0114,-0.0252 l 5.94635,-13.69471 c 0.1184,-0.27288 0.19757,-0.53537 0.24122,-0.78298 a 17.36999,26.724883 51.124285 0 0 0.91919,-1.89011 l 9.35498,-21.54597 z" id="path1088-5-2-40-6-1-3-1" inkscape:connector-curvature="0" />
    <path style="fill:#a54127;fill-opacity:1;fill-rule:evenodd;stroke-width:0.264583" d="m 254.63793,122.16029 -13.0886,30.14466 h 1.70657 v 8e-4 h 1.70656 a 12.15132,18.695612 51.124285 0 0 21.61704,-15.07343 12.15132,18.695612 51.124285 0 0 -8.52842,-15.07197 h -1.70659 z" id="path1088-0-5-3-6-8-7" inkscape:connector-curvature="0" />
    <path style="fill:#a54127;fill-opacity:1;fill-rule:evenodd;stroke-width:0.264583" d="m 185.36152,115.87787 a 11.289609,11.289617 0 0 1 -11.28989,11.28941 v 3.01086 a 14.300224,14.300228 0 0 0 11.28989,-5.53435 v 11.06823 a 14.300224,14.300228 0 0 0 -11.28989,-5.53388 v 3.01039 a 11.289609,11.289617 0 0 1 11.28989,11.28989 h 3.01037 a 14.300224,14.300228 0 0 0 14.30028,-14.30028 14.300224,14.300228 0 0 0 -14.30028,-14.30027 z m 3.01037,3.01038 a 11.289609,11.289617 0 0 1 11.28942,11.28989 11.289609,11.289617 0 0 1 -11.28942,11.28941 z m -14.30026,25.59017 v 3.01037 11.28941 h 3.01038 v -10.87996 a 11.289609,11.289617 0 0 1 8.27951,10.87996 h 3.01037 a 11.289609,11.289617 0 0 1 0.0562,-1.12671 11.289609,11.289618 0 0 1 8.22289,-9.75325 v 10.87996 h 3.01037 v -11.28941 -3.01037 a 14.300226,14.300229 0 0 0 -12.79465,7.92668 14.300225,14.300228 0 0 0 -12.79508,-7.92668 z" id="path1088-2-4-40-6-5" inkscape:connector-curvature="0" />
    <rect style="fill:#a54127;fill-opacity:1;fill-rule:evenodd;stroke-width:0.264583" id="rect6302-9-2-2" width="9.5954933" height="43.08987" x="-31.324776" y="132.31984" />
    <rect style="fill:#46804d;fill-opacity:1;fill-rule:evenodd;stroke-width:0.264583" id="rect6302-8-3" width="9.5954933" height="43.08987" x="-31.324776" y="115.68889" />
    <rect style="fill:#a54127;fill-opacity:1;fill-rule:evenodd;stroke-width:0.264583" id="rect6302-9-4-7-0" width="9.5954933" height="43.08987" x="-31.324776" y="-142.14781" transform="scale(1,-1)" />
    <rect style="fill:#87180c;fill-opacity:1;fill-rule:evenodd;stroke-width:0.264583" id="rect6302-4-2-0" width="9.5954933" height="43.08987" x="-31.324776" y="-158.77876" transform="scale(1,-1)" />
    <path style="fill:#ffffff;fill-opacity:1;fill-rule:evenodd;stroke-width:0.264583" d="m 32.39774,-113.36644 v 21.544928 21.544928 H 53.942157 V -91.821512 A 21.544643,21.544643 0 0 0 32.39774,-113.36644 Z m 21.544417,21.544928 h 5.3e-4 v 21.544928 H 75.48711 v -21.544928 -21.544408 a 21.544643,21.544643 0 0 0 -21.544953,21.544408 z" id="path817-0-7-6-7-4" inkscape:connector-curvature="0" />
    <path style="fill:#ffffff;fill-opacity:1;fill-rule:evenodd;stroke-width:0.264583" d="m 32.39774,-113.36644 v 21.544928 21.544939 A 21.544643,21.544643 0 0 0 53.942168,-91.821512 21.544643,21.544643 0 0 0 32.39774,-113.36644 Z" id="path817-2-3-4-0-5" inkscape:connector-curvature="0" />
    <path style="fill:#ffffff;fill-opacity:1;fill-rule:evenodd;stroke-width:0.264583" d="m 10.85332,-113.36644 v 21.544928 a 21.544643,21.544643 0 0 0 21.54442,-21.544928 z m 0,21.544928 v 21.544939 H 32.39774 A 21.544643,21.544643 0 0 0 10.85332,-91.821512 Z" id="path817-6-17-2-0-6" inkscape:connector-curvature="0" />
    <path inkscape:connector-curvature="0" style="fill:#ffffff;fill-opacity:1;fill-rule:evenodd;stroke-width:0.264583" d="m 97.40335,-113.36605 v 21.544416 21.544421 h 4.53564 v -8.33696 a 21.544409,21.544413 0 0 0 17.00878,8.33696 v -4.535641 a 17.008681,17.008692 0 0 1 -17.00878,-17.00878 17.008681,17.008692 0 0 1 17.00878,-17.008786 v -4.53563 a 21.544409,21.544413 0 0 0 -17.00878,8.33747 v -8.33747 z" id="rect1056-3-5" />
    <path style="fill:#ffffff;fill-opacity:1;fill-rule:evenodd;stroke-width:0.264583" d="m 135.9566,-113.36613 v 15.355646 6.18876 a 17.008681,17.008692 0 0 1 -17.00878,17.00878 v 4.535641 a 21.544409,21.544413 0 0 0 17.00878,-8.33696 v 3.56516 c 0,0.0796 0.004,0.158199 0.0119,0.23564 a 17.008681,17.008692 0 0 1 -0.0119,5.29e-4 v 4.535641 a 21.544409,21.544413 0 0 0 17.00465,-8.33179 21.544409,21.544413 0 0 0 0.004,-0.005 v 6.06888 2.26808 h 2.26757 2.26808 v -2.26808 -19.276341 -19.276846 -2.26756 h -2.26757 -5.3e-4 -2.26757 v 2.26756 13.087568 3.921199 2.268079 a 17.008681,17.008692 0 0 1 -0.75964,5.02657 17.008681,17.008692 0 0 1 -2.21123,4.57698 17.008681,17.008692 0 0 1 0,5.29e-4 17.008681,17.008692 0 0 1 -2.18798,2.597251 17.008681,17.008692 0 0 1 -2.66031,2.110988 17.008681,17.008692 0 0 1 -4.65398,2.079969 v -14.124199 c 0,-0.198059 -0.0277,-0.38917 -0.0749,-0.572061 a 21.544409,21.544413 0 0 0 0.0749,-1.696019 v -6.188778 -15.355646 z" id="path1088-5-2-40-1" inkscape:connector-curvature="0" />
    <path inkscape:connector-curvature="0" style="fill:#ffffff;fill-opacity:1;fill-rule:evenodd;stroke-width:0.264583" d="m 114.93148,-106.89307 v 30.142868 h 1.70687 1.70636 a 15.07157,15.071573 0 0 0 15.07143,-15.071432 15.07157,15.071573 0 0 0 -15.07143,-15.071436 h -1.70636 z m 3.41323,3.17294 a 11.898564,11.898572 0 0 1 11.8985,11.898496 11.898564,11.898572 0 0 1 -11.8985,11.898498 z" id="path1088-0-5-0" />
    <path style="fill:#ffffff;fill-opacity:1;fill-rule:evenodd;stroke-width:0.264583" d="m 239.63181,-113.36831 -9.35427,21.545224 -9.35504,21.545957 h 4.5358 17.00942 v -7.93e-4 l 1.96929,-4.535073 a 13.713101,21.098517 51.124256 0 1 -9.62369,-17.010155 13.713101,21.098517 51.124256 0 1 24.39446,-17.00944 l 1.97003,-4.53578 h -17.00943 z" id="rect1056-3-9-4-4" inkscape:connector-curvature="0" />
    <path style="fill:#ffffff;fill-opacity:1;fill-rule:evenodd;stroke-width:0.264583" d="m 280.19201,-113.36831 -9.355,21.545954 a 13.713101,21.098515 51.124256 0 1 -24.39517,17.009425 l -1.96932,4.535802 h 17.00943 17.01017 4.5358 l 9.35429,-21.545227 v -7.94e-4 l 9.35429,-21.54522 h -4.5358 l -9.35506,21.54522 v 7.94e-4 l -0.003,0.0072 a 13.713101,21.098515 51.124256 0 1 -19.58902,16.386262 c 0.004,-0.0086 0.009,-0.01675 0.0114,-0.02522 l 5.94633,-13.694714 c 0.11842,-0.272886 0.19759,-0.535374 0.24124,-0.782984 a 17.36999,26.724883 51.124285 0 0 0.91917,-1.890107 l 9.355,-21.545951 z" id="path1088-5-2-40-6-1-2" inkscape:connector-curvature="0" />
    <path style="fill:#ffffff;fill-opacity:1;fill-rule:evenodd;stroke-width:0.264583" d="m 254.63792,-106.89505 -13.0886,30.144668 h 1.70657 v 7.94e-4 h 1.70656 a 12.15132,18.695612 51.124285 0 0 21.61704,-15.073435 12.15132,18.695612 51.124285 0 0 -8.52842,-15.071957 h -1.70659 z" id="path1088-0-5-3-6-86" inkscape:connector-curvature="0" />
    <path style="fill:#ffffff;fill-opacity:1;fill-rule:evenodd;stroke-width:0.264583" d="m 185.42832,-113.17746 a 11.289609,11.289617 0 0 1 -11.28989,11.2894 v 3.010867 a 14.300224,14.300228 0 0 0 11.28989,-5.534357 v 11.068229 a 14.300224,14.300228 0 0 0 -11.28989,-5.533872 v 3.010379 a 11.289609,11.289617 0 0 1 11.28989,11.289893 h 3.01038 a 14.300224,14.300228 0 0 0 14.30027,-14.300272 14.300224,14.300228 0 0 0 -14.30027,-14.300267 z m 3.01038,3.01038 a 11.289609,11.289617 0 0 1 11.28941,11.289887 11.289609,11.289617 0 0 1 -11.28941,11.289409 z m -14.30027,25.590159 v 3.010379 11.289408 h 3.01038 v -10.879958 a 11.289609,11.289617 0 0 1 8.27951,10.879958 h 3.01038 a 11.289609,11.289617 0 0 1 0.0562,-1.126715 11.289609,11.289618 0 0 1 8.22289,-9.753243 v 10.879958 h 3.01037 v -11.289408 -3.010379 a 14.300226,14.300229 0 0 0 -12.79465,7.926686 14.300225,14.300228 0 0 0 -12.79508,-7.926686 z" id="path1088-2-4-40-3" inkscape:connector-curvature="0" />
    <rect style="fill:#ffffff;fill-opacity:1;fill-rule:evenodd;stroke-width:0.264583" id="rect6302-9-7" width="9.5954924" height="43.08987" x="-31.324776" y="-96.735489" />
    <rect style="fill:#ffffff;fill-opacity:1;fill-rule:evenodd;stroke-width:0.264583" id="rect6302-6" width="9.5954924" height="43.08987" x="-31.324774" y="-113.36644" />
    <rect style="fill:#ffffff;fill-opacity:1;fill-rule:evenodd;stroke-width:0.264583" id="rect6302-9-4-5" width="9.5954924" height="43.08987" x="-31.324774" y="86.907524" transform="scale(1,-1)" />
    <rect style="fill:#ffffff;fill-opacity:1;fill-rule:evenodd;stroke-width:0.264583" id="rect6302-4-8" width="9.5954924" height="43.08987" x="-31.324774" y="70.276573" transform="scale(1,-1)" />
  </g>
</svg>
