<?xml version="1.0" encoding="UTF-8" standalone="no"?>
<!-- Created with Inkscape (http://www.inkscape.org/) -->

<svg width="1072.6185mm" height="991.12482mm" viewBox="0 0 1072.6185 991.12482" version="1.1" id="svg8" inkscape:version="1.3 (0e150ed6c4, 2023-07-21)" sodipodi:docname="пинг.svg" xmlns:inkscape="http://www.inkscape.org/namespaces/inkscape" xmlns:sodipodi="http://sodipodi.sourceforge.net/DTD/sodipodi-0.dtd" xmlns="http://www.w3.org/2000/svg" xmlns:svg="http://www.w3.org/2000/svg" xmlns:rdf="http://www.w3.org/1999/02/22-rdf-syntax-ns#" xmlns:cc="http://creativecommons.org/ns#" xmlns:dc="http://purl.org/dc/elements/1.1/">
  <defs id="defs2" />
  <sodipodi:namedview id="base" pagecolor="#ffffff" bordercolor="#666666" borderopacity="1.0" inkscape:pageopacity="0.0" inkscape:pageshadow="2" inkscape:zoom="0.13939082" inkscape:cx="2374.6184" inkscape:cy="1994.3925" inkscape:document-units="mm" inkscape:current-layer="layer1" showgrid="false" showguides="false" inkscape:window-width="2467" inkscape:window-height="1413" inkscape:window-x="84" inkscape:window-y="-9" inkscape:window-maximized="1" inkscape:showpageshadow="2" inkscape:pagecheckerboard="0" inkscape:deskcolor="#d1d1d1" />
  <metadata id="metadata5">
    <rdf:RDF>
      <cc:Work rdf:about="">
        <dc:format>image/svg+xml</dc:format>
        <dc:type rdf:resource="http://purl.org/dc/dcmitype/StillImage" />
        <dc:title />
      </cc:Work>
    </rdf:RDF>
  </metadata>
  <g inkscape:label="Layer 1" inkscape:groupmode="layer" id="layer1" transform="translate(278.04333,221.08456)">
    <rect style="fill:#8ec6f9;fill-opacity:1;fill-rule:evenodd;stroke-width:0.264583" id="rect1401" width="1072.6185" height="991.12482" x="-278.04333" y="-221.08456" inkscape:export-xdpi="51.254894" inkscape:export-ydpi="51.254894" />
    <path style="fill:#f75b42;fill-opacity:1;fill-rule:evenodd;stroke-width:0.264583" d="m -116.68659,84.650096 83.428405,-62.2059 61.9031,41.24803 -29.64174003,52.010634 C -20.935585,103.65375 -31.415745,82.278006 -37.034945,56.109116 Z" id="rect831-1" inkscape:connector-curvature="0" sodipodi:nodetypes="cccccc" />
    <path style="fill:#c8232e;fill-opacity:1;fill-rule:evenodd;stroke-width:0.264583" d="m 210.12886,311.08941 h 18.70887 c 16.15217,103.37266 47.16063,211.584 23.52859,312.89064 h -95.68248 c 70.68068,-99.18433 54.07248,-193.49239 53.44502,-312.89064 z" id="rect900-3" inkscape:connector-curvature="0" sodipodi:nodetypes="ccccc" />
    <path transform="rotate(18.312659)" style="fill:#f75b42;fill-opacity:1;fill-rule:evenodd;stroke-width:0.264583" d="m 263.23175,240.56456 17.76138,-5.87837 c 15.99976,108.58168 16.70082,217.67705 7.4826,327.10548 l -90.83675,30.06365 c 34.02987,-116.13498 60.68861,-232.8528 65.59277,-351.29076 z" id="rect900" inkscape:connector-curvature="0" sodipodi:nodetypes="ccccc" />
    <path style="opacity:1;fill:#f79557;fill-opacity:1;fill-rule:nonzero;stroke:none;stroke-width:0.865;stroke-linecap:square;stroke-linejoin:miter;stroke-miterlimit:4;stroke-dasharray:none;stroke-dashoffset:44.0315;stroke-opacity:1;paint-order:markers stroke fill" inkscape:transform-center-x="14.797324" inkscape:transform-center-y="25.481572" d="M 147.51045,135.38295 C -278.77988,362.14231 -119.58976,158.7231 -114.49385,-6.1826596 l 10.24843,43.3008756 37.962265,-57.491327 c -10.87948,28.8744569 -31.8431,77.205787 11.83616,66.033147 C -192.89864,307.44342 -63.216182,145.0537 147.51045,135.38295 Z" id="path870-7" inkscape:connector-curvature="0" sodipodi:nodetypes="cccccc" />
    <path style="fill:#f75b42;fill-opacity:1;fill-rule:evenodd;stroke-width:0.264583" d="m 71.819206,121.7932 63.255674,18.8885 c 110.29658,104.32141 96.04166,168.88452 82.39346,178.12231 l -66.01747,3.43806 C 185.00711,279.32687 127.04151,200.01455 71.819206,121.7932 Z" id="rect822" inkscape:connector-curvature="0" sodipodi:nodetypes="ccccc" />
    <path style="fill:#f75b42;fill-opacity:1;fill-rule:evenodd;stroke-width:0.264583" d="M 365.47193,62.204508 274.43675,11.781613 218.64219,60.978746 255.00826,108.53132 C 273.14578,93.910598 280.65651,71.31978 282.70592,44.632963 Z" id="rect831" inkscape:connector-curvature="0" sodipodi:nodetypes="cccccc" />
    <path style="fill:#f75b42;fill-opacity:1;fill-rule:evenodd;stroke-width:0.264583" d="m 353.4393,33.854143 -30.96221,-87.88273 -60.53959,-52.608803 -31.80951,39.0922 c 18.59041,27.87496 45.99548,26.661563 71.27645,32.457677 z" id="rect831-2" inkscape:connector-curvature="0" sodipodi:nodetypes="cccccc" />
    <path style="fill:#f75b42;fill-opacity:1;fill-rule:evenodd;stroke-width:0.264583" d="m 347.89904,35.02839 17.58527,-99.960162 -39.0989,-65.964418 -42.64515,14.55615 c 5.3003,26.276131 36.11331,40.350522 55.96823,59.665742 z" id="rect831-2-4" inkscape:connector-curvature="0" sodipodi:nodetypes="cccccc" />
    <path style="opacity:1;fill:#f75b42;fill-opacity:1;fill-rule:nonzero;stroke:none;stroke-width:0.865;stroke-linecap:square;stroke-linejoin:miter;stroke-miterlimit:4;stroke-dasharray:none;stroke-dashoffset:44.0315;stroke-opacity:1;paint-order:markers stroke fill" inkscape:transform-center-x="-25.906909" inkscape:transform-center-y="12.197061" d="M 111.82266,145.42705 C 564.73251,312.80658 378.30885,135.21444 351.08541,-27.508511 l -4.33297,44.285677 -45.348,-51.864679 c 14.66324,27.149338 41.93528,72.222909 -2.84962,67.025001 172.39462,240.789302 23.38113,94.737432 -186.73216,113.489562 z" id="path870" inkscape:connector-curvature="0" sodipodi:nodetypes="cccccc" />
    <path style="fill:#290714;fill-opacity:1;fill-rule:evenodd;stroke-width:0.264583" d="m 152.03577,295.02778 79.98957,1.88989 c 50.63254,47.00631 45.76796,123.31824 40.13345,166.05321 l -72.42912,9.87329 c 1.78551,-37.44534 22.09312,-75.23152 0.55548,-130.39026 2.25302,44.76345 -7.18577,88.31409 -10.70601,126.34207 L 76.774665,441.54807 c 21.642693,-38.9526 78.914885,-83.38814 75.261105,-146.52029 z" id="rect897" inkscape:connector-curvature="0" sodipodi:nodetypes="cccccccc" />
    <path style="fill:#c8232e;fill-opacity:1;fill-rule:evenodd;stroke-width:0.264583" d="m 156.68384,623.98005 c 87.77971,-17.51717 226.13474,-7.85459 193.32211,66.87113 H 297.08929 149.43714 Z" id="rect971" inkscape:connector-curvature="0" sodipodi:nodetypes="ccccc" />
    <path style="fill:#f75b42;fill-opacity:1;fill-rule:evenodd;stroke-width:0.264583" d="M 1.6675146,623.98005 C 89.447235,606.46288 227.80225,616.12546 194.98962,690.85118 H 142.07296 -5.5791854 Z" id="rect971-6" inkscape:connector-curvature="0" sodipodi:nodetypes="ccccc" />
    <path style="fill:#ffffff;fill-opacity:1;fill-rule:evenodd;stroke-width:1" d="m 611.43363,1116.1738 c -19.44303,214.4501 -132.68354,391.7383 -222.1934,576.5996 l 55.39258,13.3809 c 76.47508,-192.3892 173.23742,-379.5503 215.94925,-588.8184 z" transform="scale(0.26458333)" id="rect989" inkscape:connector-curvature="0" sodipodi:nodetypes="ccccc" />
    <path style="fill:#ffffff;fill-opacity:1;fill-rule:evenodd;stroke-width:1" d="m 683.78711,1117.6445 c -16.33185,179.5438 -85.59594,424.2364 -160.21875,607.5762 l 48.25,11.6543 c 63.98446,-190.1344 125.18051,-442.2129 161.08398,-618.0684 z" transform="scale(0.26458333)" id="rect989-0" />
    <path style="fill:#830732;fill-opacity:1;fill-rule:evenodd;stroke-width:0.264583" d="m 148.61663,283.69646 95.61136,5.59136 c 0,0 1.0391,5.30081 0.9593,7.97816 -0.0723,2.42579 -1.29813,7.16393 -1.29813,7.16393 l -95.12686,-6.47284 c 0,0 -1.29791,-4.85242 -1.21376,-7.32788 0.0842,-2.47546 1.06809,-6.93273 1.06809,-6.93273 z" id="rect1039" inkscape:connector-curvature="0" sodipodi:nodetypes="ccacccc" />
    <path style="fill:#f75b42;fill-opacity:1;fill-rule:evenodd;stroke-width:0.264583" d="m -108.57533,54.939246 18.864015,-91.247918 52.91583,-60.271409 36.77710997,34.459969 C -14.691785,-31.998564 -42.011135,-29.51596 -66.283155,-20.373111 Z" id="rect831-2-5" inkscape:connector-curvature="0" sodipodi:nodetypes="cccccc" />
    <path style="fill:#f75b42;fill-opacity:1;fill-rule:evenodd;stroke-width:0.264583" d="m -102.92749,55.357866 -30.86657,-96.687804 29.87402,-70.622742 44.215145,8.68974 c -1.71897,26.750203 -30.35967,44.840007 -47.437095,66.649581 z" id="rect831-2-4-6" inkscape:connector-curvature="0" sodipodi:nodetypes="cccccc" />
    <path style="opacity:1;fill:#f75b42;fill-opacity:1;fill-rule:nonzero;stroke:none;stroke-width:0.865;stroke-linecap:square;stroke-linejoin:miter;stroke-miterlimit:4;stroke-dasharray:none;stroke-dashoffset:44.0315;stroke-opacity:1;paint-order:markers stroke fill" inkscape:transform-center-x="14.797324" inkscape:transform-center-y="25.481572" d="m -125.58816,72.602456 c 0,0 10.2918,-52.81572 11.09431,-78.7851156 l 10.24843,43.3008756 37.962265,-57.491327 c -10.87948,28.8744569 -31.8431,77.205787 11.83616,66.033147 -8.85708,16.74691 -23.34776,45.15614 -23.34776,45.15614 -18.02574,1.25987 -35.702465,1.29821 -47.793405,-18.21372 z" id="path870-7-8" inkscape:connector-curvature="0" sodipodi:nodetypes="ccccccc" />
    <path style="fill:#290714;fill-opacity:1;fill-rule:evenodd;stroke-width:0.264583" d="m 82.91635,127.85145 c -3.336657,0.0359 -6.724065,0.71258 -9.992954,2.09368 l -0.0013,-0.002 -0.218558,0.0953 c -0.0099,0.003 -0.01971,0.009 -0.0296,0.0118 -0.0097,0.003 -0.0187,0.009 -0.02829,0.0117 l -24.128571,10.47893 10.491595,24.15612 1.452732,3.34548 10.490933,24.15615 24.140393,-10.48389 0.01639,-0.007 c 0.0053,-0.002 0.01056,-0.003 0.01572,-0.007 l 0.232354,-0.10086 -0.0013,-0.003 C 108.56562,175.7024 114.55048,160.35958 108.77433,147.0598 l -1.45271,-3.34482 C 102.96247,133.67789 93.180789,127.74085 82.916332,127.8514 Z" id="rect1238" inkscape:connector-curvature="0" />
    <path style="fill:#f75b42;fill-opacity:1;fill-rule:evenodd;stroke-width:0.264583" d="M 124.57176,12.221578 A 69.56703,63.688991 0.81181646 0 0 117.632,11.805403 69.56703,63.688991 0.81181646 0 0 47.169286,74.501937 69.56703,63.688991 0.81181646 0 0 64.223723,117.02835 69.925591,38.931545 8.2415205 0 0 120.21276,143.59198 69.925591,38.931545 8.2415205 0 0 194.99673,115.08611 69.925591,38.931545 8.2415205 0 0 184.4617,89.995259 69.56703,63.688991 0.81181646 0 0 186.28967,76.47352 69.56703,63.688991 0.81181646 0 0 124.57176,12.221578 Z" id="path815" inkscape:connector-curvature="0" />
    <ellipse style="fill:#ffffff;fill-opacity:1;fill-rule:evenodd;stroke:#290714;stroke-width:2.365;stroke-miterlimit:4;stroke-dasharray:none;stroke-opacity:1" id="path1256" cx="92.510902" cy="60.422672" rx="41.87772" ry="19.04072" transform="rotate(9.4132788)" />
    <ellipse style="fill:#ffffff;fill-opacity:1;fill-rule:evenodd;stroke:#290714;stroke-width:2.365;stroke-miterlimit:4;stroke-dasharray:none;stroke-opacity:1" id="path1256-1" cx="182.72734" cy="42.53484" rx="41.87772" ry="19.04072" transform="rotate(9.4132789)" />
    <path style="fill:#290714;fill-opacity:1;fill-rule:evenodd;stroke-width:0.264583" d="m 43.74498,62.242426 c 14.383715,-13.959359 37.502939,-8.06529 61.5775,0 l 5.57579,3.565698 H 40.601185 Z" id="rect1344" inkscape:connector-curvature="0" sodipodi:nodetypes="ccccc" />
    <path style="fill:#290714;fill-opacity:1;fill-rule:evenodd;stroke-width:0.264583" d="m 134.84597,59.222503 c 18.74049,-10.967108 39.71926,-8.184785 61.5775,0 l 5.57579,3.565698 h -70.29708 z" id="rect1344-4" inkscape:connector-curvature="0" sodipodi:nodetypes="ccccc" />
    <path style="fill:#290714;fill-opacity:1;fill-rule:evenodd;stroke-width:0.264583" d="m 66.102753,62.62043 h 7.885354 c 0,0 5.101252,16.541528 0,21.64278 -1.858596,1.858596 -6.026758,1.858596 -7.885354,0 -5.101252,-5.101252 0,-21.64278 0,-21.64278 z" id="rect1362" inkscape:connector-curvature="0" sodipodi:nodetypes="ccssc" />
    <path style="fill:#290714;fill-opacity:1;fill-rule:evenodd;stroke-width:0.264583" d="m 161.06255,60.245722 h 7.88536 c 0,0 5.10125,16.541528 0,21.64278 -1.8586,1.858596 -6.02676,1.858596 -7.88536,0 -5.10125,-5.101252 0,-21.64278 0,-21.64278 z" id="rect1362-9" inkscape:connector-curvature="0" sodipodi:nodetypes="ccssc" />
    <path style="fill:#290714;fill-opacity:1;fill-rule:evenodd;stroke-width:0.264583" d="m 30.702548,39.299914 c 22.913244,6.812188 44.978982,7.056206 66.102755,0 v 5.704299 c -21.260574,5.028903 -43.059209,6.560414 -66.102755,0 z" id="rect1380" inkscape:connector-curvature="0" sodipodi:nodetypes="ccccc" />
    <path style="fill:#290714;fill-opacity:1;fill-rule:evenodd;stroke-width:0.264583" d="m 136.39985,32.924521 c 22.91324,-6.812188 44.97897,-7.056206 66.10275,0 v -5.704299 c -21.26058,-5.028903 -43.05921,-6.560414 -66.10275,0 z" id="rect1380-3" inkscape:connector-curvature="0" sodipodi:nodetypes="ccccc" />
    <path style="fill:#290714;fill-opacity:1;fill-rule:evenodd;stroke-width:0.264583" d="M 122.36034,94.390092 140.396,109.15416 154.06954,94.390092 v 7.382028 l -12.91856,15.77071 -18.79064,-15.77071 z" id="rect1398" inkscape:connector-curvature="0" sodipodi:nodetypes="ccccccc" />
  </g>
</svg>
