<?xml version="1.0" encoding="UTF-8" standalone="no"?>
<!-- Created with Inkscape (http://www.inkscape.org/) -->

<svg width="148.54465mm" height="278.56845mm" viewBox="0 0 148.54465 278.56845" version="1.1" id="svg8" inkscape:version="1.3 (0e150ed6c4, 2023-07-21)" sodipodi:docname="чурка.svg" xmlns:inkscape="http://www.inkscape.org/namespaces/inkscape" xmlns:sodipodi="http://sodipodi.sourceforge.net/DTD/sodipodi-0.dtd" xmlns="http://www.w3.org/2000/svg" xmlns:svg="http://www.w3.org/2000/svg" xmlns:rdf="http://www.w3.org/1999/02/22-rdf-syntax-ns#" xmlns:cc="http://creativecommons.org/ns#" xmlns:dc="http://purl.org/dc/elements/1.1/">
  <defs id="defs2" />
  <sodipodi:namedview id="base" pagecolor="#ffffff" bordercolor="#666666" borderopacity="1.0" inkscape:pageopacity="0.0" inkscape:pageshadow="2" inkscape:zoom="0.49497475" inkscape:cx="181.82746" inkscape:cy="717.20831" inkscape:document-units="mm" inkscape:current-layer="layer1" showgrid="false" inkscape:window-width="2467" inkscape:window-height="1413" inkscape:window-x="84" inkscape:window-y="-9" inkscape:window-maximized="1" inkscape:showpageshadow="2" inkscape:pagecheckerboard="0" inkscape:deskcolor="#d1d1d1" />
  <metadata id="metadata5">
    <rdf:RDF>
      <cc:Work rdf:about="">
        <dc:format>image/svg+xml</dc:format>
        <dc:type rdf:resource="http://purl.org/dc/dcmitype/StillImage" />
        <dc:title />
      </cc:Work>
    </rdf:RDF>
  </metadata>
  <g inkscape:label="Layer 1" inkscape:groupmode="layer" id="layer1" transform="translate(-21.922617,-7.0922618)">
    <rect style="fill:#20412c;fill-opacity:1;fill-rule:evenodd;stroke-width:0.264583" id="rect1174" width="148.54465" height="278.56845" x="21.922617" y="7.0922618" inkscape:export-xdpi="114" inkscape:export-ydpi="114" />
    <path style="opacity:1;fill:#fcdbb2;fill-opacity:1;fill-rule:nonzero;stroke:#010101;stroke-width:3.365;stroke-linecap:round;stroke-linejoin:round;stroke-miterlimit:4;stroke-dasharray:none;stroke-dashoffset:44.0315;stroke-opacity:1;paint-order:markers stroke fill" d="m 80.371513,15.424476 c 4.209441,13.707161 0.872357,26.47119 -3.466968,39.109758 l 2.228797,6.047693 c -2.129155,1.440731 -3.95142,3.396554 -6.110208,4.728394 2.010198,1.240173 3.729646,3.019618 5.675603,4.422469 l -6.37532,8.080643 13.905097,2.021065 0.86405,2.344043 c -1.976913,0.937289 -4.313078,1.578472 -5.970719,2.779159 3.016408,0.919139 5.428747,1.252949 7.434712,1.193725 l 1.534768,4.164087 c 0.587058,-0.143696 1.152922,-0.308586 1.702753,-0.490409 v 7.792289 l -0.294561,-0.01292 -1.361678,-5.712829 c 1.095216,5.011054 -4.364249,5.53778 -8.068231,7.265189 -7.577613,36.426028 -3.924934,88.473988 -23.54999,101.789138 l 8.38709,0.17466 c -8.69134,4.88409 -18.422223,7.69862 -22.129919,6.97426 -4.562401,-0.89134 -5.248219,4.44569 -1.881539,4.94078 2.726978,0.40103 10.662782,-1.69431 18.773529,-4.0442 -2.195312,1.99934 -4.448263,3.7568 -6.765994,4.9382 -5.452891,2.77946 -12.272685,2.23661 -13.517004,4.67103 -3.675531,7.19093 6.989654,4.33373 16.471863,-1.2485 5.488593,-3.23116 11.157079,-6.98069 14.69522,-9.08058 0.357372,-0.0975 -0.06226,15.21161 6.720522,13.53974 1.537256,-0.37892 -2.040572,-11.09214 -1.89394,-13.29169 0.185234,-2.77825 -0.07194,-5.21691 -0.467678,-7.19026 l 6.761877,0.14056 c -0.836639,17.71834 -0.844391,41.53338 -0.844391,41.53338 l 1.653645,-0.1602 c -4.87963,10.78959 -7.009738,21.05507 -6.147434,31.21463 0.372215,4.38535 6.206357,-0.13671 7.902866,-4.46174 3.61897,-9.22592 4.837932,-25.69484 11.944508,-24.19956 l -2.279465,-3.66179 3.681439,-0.35708 c 0,0 -5.730584,-30.43722 -5.791385,-46.12173 -0.01048,-2.70367 0.120042,-5.84157 0.346763,-9.21288 0.29173,-2.15277 0.469556,-4.43288 0.553455,-6.8187 0.780468,-8.37391 1.934475,-17.30243 2.927456,-24.35821 0.860187,6.44153 1.746039,13.76969 2.358523,20.64422 -0.333878,6.28116 -0.162799,11.92314 0.782905,16.54008 -0.002,16.08947 0.7121,44.32184 0.7121,44.32184 l 4.19819,0.40721 -2.89597,4.65243 c 7.1066,-1.49528 8.32557,14.97312 11.94451,24.19904 1.69654,4.32503 7.53068,8.84709 7.90287,4.46174 0.89154,-10.50411 -1.41349,-21.12099 -6.65128,-32.31379 l 2.25774,0.21911 c 0,0 -1.53723,-8.01362 -3.27835,-18.18339 3.72766,-2.69465 3.49332,-13.11688 3.78841,-13.03641 3.53814,2.09989 9.20713,5.84941 14.69575,9.08058 9.48219,5.58223 20.14686,8.43944 16.47135,1.24851 -1.24431,-2.43443 -8.0636,-1.89158 -13.51651,-4.67104 -1.64798,-0.84001 -3.26318,-1.97227 -4.84827,-3.27422 8.10823,2.34905 16.04012,4.44356 18.76628,4.04265 3.36669,-0.49509 2.68087,-5.83263 -1.88153,-4.9413 -3.74933,0.7325 -13.65692,-2.15538 -22.42137,-7.14117 l 8.44444,-0.17621 c -19.62505,-13.31515 -15.97237,-65.36311 -23.54998,-101.789138 -6.48602,-1.714979 -8.42798,-4.417909 -8.71418,-7.48068 l -0.98084,3.8809 v -7.211446 c 2.29756,3.029963 4.8909,5.933177 7.88686,8.66407 -3.08277,-5.07438 -4.86868,-10.309919 -5.82806,-15.64814 l 13.79244,-2.005046 -5.01211,-6.353617 c 1.18727,-0.999584 2.35773,-2.019079 3.64837,-2.815332 -0.88879,-0.548337 -1.71948,-1.204302 -2.53887,-1.885156 7.97193,-7.009313 15.27985,-14.805276 20.27267,-25.342638 -5.58633,6.264855 -12.23698,10.148187 -19.41018,12.862263 3.91494,-6.792464 7.07549,-14.112938 8.64235,-22.54901 -3.65709,7.210872 -8.83311,12.540162 -14.78512,16.90801 3.43587,-5.555327 6.28822,-11.588097 8.10596,-18.466573 -3.12423,5.16413 -7.01638,9.216898 -11.39259,12.568227 1.56662,-5.308568 2.59575,-10.881614 2.77243,-16.872873 -1.84007,5.643041 -4.64693,10.408041 -8.069787,14.613061 1.668727,-5.49049 2.771937,-11.25851 2.955367,-17.47852 C 99.856196,31.872106 95.839425,37.720689 90.955375,42.78198 89.071224,33.403284 86.158559,24.186926 80.371513,15.424476 Z M 114.12502,201.36971 c -0.23392,1.6584 -0.35031,3.5566 -0.21032,5.65651 0.0397,0.59619 -0.20127,1.83652 -0.53279,3.30832 -0.47586,-2.98362 -0.93401,-5.98925 -1.35496,-8.92142 z" id="path1136-9-3-5" inkscape:connector-curvature="0" />
    <path style="opacity:1;fill:#fcdbb2;fill-opacity:1;fill-rule:nonzero;stroke:none;stroke-width:8.165;stroke-linecap:round;stroke-linejoin:round;stroke-miterlimit:4;stroke-dasharray:none;stroke-dashoffset:44.0315;stroke-opacity:1;paint-order:markers stroke fill" inkscape:transform-center-x="2.8610143" inkscape:transform-center-y="0.57475755" d="m 42.895256,213.03566 c -3.366685,-0.49509 -2.681003,-5.83226 1.881394,-4.94093 4.562398,0.89134 18.244901,-3.57552 27.88823,-10.66367 l 2.12197,7.70567 c -10.475568,3.00383 -27.608783,8.52876 -31.891594,7.89893 z" id="path1136-9-3" inkscape:connector-curvature="0" sodipodi:nodetypes="szccs" />
    <path style="opacity:1;fill:#fcdbb2;fill-opacity:1;fill-rule:nonzero;stroke:none;stroke-width:8.165;stroke-linecap:round;stroke-linejoin:round;stroke-miterlimit:4;stroke-dasharray:none;stroke-dashoffset:44.0315;stroke-opacity:1;paint-order:markers stroke fill" inkscape:transform-center-x="-2.8610161" inkscape:transform-center-y="0.57475778" d="m 150.30912,213.20448 c 3.36669,-0.49509 2.68101,-5.83226 -1.88139,-4.94093 -4.5624,0.89134 -18.2449,-3.57552 -27.88823,-10.66367 l -2.12197,7.70567 c 10.47557,3.00383 27.60878,8.52876 31.89159,7.89893 z" id="path1136-9" inkscape:connector-curvature="0" sodipodi:nodetypes="szccs" />
    <path style="opacity:1;fill:#fbcc92;fill-opacity:1;fill-rule:nonzero;stroke:none;stroke-width:8.165;stroke-linecap:round;stroke-linejoin:round;stroke-miterlimit:4;stroke-dasharray:none;stroke-dashoffset:44.0315;stroke-opacity:1;paint-order:markers stroke fill" inkscape:transform-center-x="0.57476402" inkscape:transform-center-y="-1.8911049" d="m 75.160974,195.96635 c 0,0 2.718522,5.04767 2.218149,12.55328 -0.146637,2.19956 3.43154,12.91259 1.894302,13.29151 -6.782779,1.67187 -6.363122,-13.63673 -6.720496,-13.53926 -3.538141,2.09989 -9.206781,5.84921 -14.695378,9.08037 -9.482214,5.58223 -20.147182,8.43952 -16.471652,1.24859 1.244312,-2.43442 8.063763,-1.89185 13.516654,-4.67131 7.326265,-3.73437 14.00654,-13.21033 20.258421,-17.96318 z" id="path1127" inkscape:connector-curvature="0" sodipodi:nodetypes="csscsssc" />
    <path style="opacity:1;fill:#4a2408;fill-opacity:1;fill-rule:nonzero;stroke:none;stroke-width:8.165;stroke-linecap:round;stroke-linejoin:round;stroke-miterlimit:4;stroke-dasharray:none;stroke-dashoffset:44.0315;stroke-opacity:1;paint-order:markers stroke fill" inkscape:transform-center-x="2.1553644" inkscape:transform-center-y="-1.1329484" d="m 110.94035,228.31715 -8.16354,13.11455 c 7.10658,-1.49528 8.32531,14.97343 11.94426,24.19935 1.69653,4.32503 7.53103,8.84681 7.90323,4.46146 1.13897,-13.41925 -2.93877,-27.0221 -11.68395,-41.77536 z" id="path1109-2" inkscape:connector-curvature="0" sodipodi:nodetypes="ccssc" />
    <path style="opacity:1;fill:#4a2408;fill-opacity:1;fill-rule:nonzero;stroke:none;stroke-width:8.165;stroke-linecap:round;stroke-linejoin:round;stroke-miterlimit:4;stroke-dasharray:none;stroke-dashoffset:44.0315;stroke-opacity:1;paint-order:markers stroke fill" inkscape:transform-center-x="-2.1553627" inkscape:transform-center-y="-1.1329484" d="m 90.019156,232.28217 8.163531,13.11455 c -7.106575,-1.49528 -8.325302,14.97343 -11.944253,24.19935 -1.696536,4.32503 -7.531023,8.84681 -7.903232,4.46146 -1.138966,-13.41925 2.938764,-27.0221 11.683954,-41.77536 z" id="path1109" inkscape:connector-curvature="0" sodipodi:nodetypes="ccssc" />
    <path style="fill:#11ac86;fill-opacity:1;fill-rule:evenodd;stroke-width:0.264583" d="m 104.20894,151.08711 -9.23706,-14.32629 c 0,0 5.85968,35.89554 5.79147,53.49 -0.0608,15.68452 0.71124,46.12147 0.71124,46.12147 l 16.75582,1.62568 c 0,0 -6.50916,-33.90246 -7.92518,-50.8969 -0.99889,-11.98836 -6.09629,-36.01396 -6.09629,-36.01396 z" id="rect1091-9" inkscape:connector-curvature="0" sodipodi:nodetypes="ccsccsc" />
    <path style="opacity:1;fill:#fbcc92;fill-opacity:1;fill-rule:nonzero;stroke:none;stroke-width:8.165;stroke-linecap:round;stroke-linejoin:round;stroke-miterlimit:4;stroke-dasharray:none;stroke-dashoffset:44.0315;stroke-opacity:1;paint-order:markers stroke fill" inkscape:transform-center-x="-0.57476275" inkscape:transform-center-y="-1.8911013" d="m 116.13279,194.47286 c 0,0 -2.71852,5.04766 -2.21816,12.55327 0.14665,2.19956 -3.43153,12.9126 -1.89429,13.29151 6.78278,1.67187 6.36312,-13.63672 6.72049,-13.53926 3.53815,2.09989 9.20678,5.84921 14.69538,9.08038 9.48221,5.58223 20.14718,8.43951 16.47165,1.24858 -1.24431,-2.43442 -8.06376,-1.89185 -13.51665,-4.67131 -7.32626,-3.73436 -14.00654,-13.21033 -20.25842,-17.96317 z" id="path1127-4" inkscape:connector-curvature="0" sodipodi:nodetypes="csscsssc" />
    <path style="fill:#21a7b5;fill-opacity:1;fill-rule:evenodd;stroke-width:0.264583" d="m 82.069604,99.156833 6.42346,14.205707 c 2.443781,32.40348 13.175066,74.099 -0.711236,88.19298 L 58.519642,200.94589 C 78.144691,187.63074 74.491997,135.58286 82.069604,99.156833 Z" id="rect1073" inkscape:connector-curvature="0" sodipodi:nodetypes="ccccc" />
    <path style="fill:#11ac86;fill-opacity:1;fill-rule:evenodd;stroke-width:0.264583" d="m 90.347753,156.09232 9.237056,-14.3263 c 0,0 -5.859677,35.89555 -5.791473,53.49001 0.0608,15.68452 5.791473,46.12147 5.791473,46.12147 l -16.755818,1.62568 c 0,0 0.0065,-33.90246 1.422466,-50.8969 0.998892,-11.98836 6.096296,-36.01396 6.096296,-36.01396 z" id="rect1091" inkscape:connector-curvature="0" sodipodi:nodetypes="ccsccsc" />
    <path style="opacity:1;fill:#25b7c6;fill-opacity:1;fill-rule:nonzero;stroke:none;stroke-width:8.165;stroke-linecap:round;stroke-linejoin:round;stroke-miterlimit:4;stroke-dasharray:none;stroke-dashoffset:44.0315;stroke-opacity:1;paint-order:markers stroke fill" inkscape:transform-center-y="6.5022371" d="M 90.347753,156.09232 88.092237,134.68397 82.069604,99.156833 91.793976,98.02697 h 9.411754 l 9.69518,1.129863 c 4.69559,30.691757 -1.43641,35.216827 -2.52494,51.930277 z" id="path1067" inkscape:connector-curvature="0" sodipodi:nodetypes="cccccccc" />
    <path style="opacity:1;fill:#543003;fill-opacity:1;fill-rule:nonzero;stroke:none;stroke-width:8.165;stroke-linecap:round;stroke-linejoin:round;stroke-miterlimit:4;stroke-dasharray:none;stroke-dashoffset:44.0315;stroke-opacity:1;paint-order:markers stroke fill" inkscape:transform-center-x="2.6251022" inkscape:transform-center-y="1.45499" d="M 109.09286,97.009772 C 96.062991,85.132765 90.572889,70.027232 84.495377,55.173228 l 18.359223,3.072347 c -1.10454,13.317018 -1.20672,26.509492 6.23826,38.764197 z" id="path906-3-4" inkscape:connector-curvature="0" sodipodi:nodetypes="cccc" />
    <rect style="fill:#f1cbb5;fill-opacity:1;fill-rule:evenodd;stroke-width:0.264583" id="rect1046" width="9.4117546" height="24.427454" x="91.793976" y="73.599518" />
    <path sodipodi:type="star" style="opacity:1;fill:#fbcc92;fill-opacity:1;fill-rule:nonzero;stroke:none;stroke-width:8.165;stroke-linecap:round;stroke-linejoin:round;stroke-miterlimit:4;stroke-dasharray:none;stroke-dashoffset:44.0315;stroke-opacity:1;paint-order:markers stroke fill" id="path984-1" sodipodi:sides="3" sodipodi:cx="-82.758522" sodipodi:cy="73.654549" sodipodi:r1="11.233357" sodipodi:r2="5.6166787" sodipodi:arg1="-1.7151621" sodipodi:arg2="-0.6679646" inkscape:flatsided="true" inkscape:rounded="0" inkscape:randomized="0" d="m -84.374607,62.538048 12.0513,15.27518 -19.254345,2.799142 z" inkscape:transform-center-x="0.80804257" inkscape:transform-center-y="-2.0793403" transform="scale(-1,1)" />
    <path sodipodi:type="star" style="opacity:1;fill:#fbcc92;fill-opacity:1;fill-rule:nonzero;stroke:none;stroke-width:8.165;stroke-linecap:round;stroke-linejoin:round;stroke-miterlimit:4;stroke-dasharray:none;stroke-dashoffset:44.0315;stroke-opacity:1;paint-order:markers stroke fill" id="path984" sodipodi:sides="3" sodipodi:cx="106.62193" sodipodi:cy="75.197792" sodipodi:r1="11.233357" sodipodi:r2="5.6166787" sodipodi:arg1="-1.7151621" sodipodi:arg2="-0.6679646" inkscape:flatsided="true" inkscape:rounded="0" inkscape:randomized="0" d="m 105.00585,64.081291 12.0513,15.275181 -19.254347,2.799141 z" inkscape:transform-center-x="-0.80804325" inkscape:transform-center-y="-2.0793418" />
    <path sodipodi:type="star" style="opacity:1;fill:#c29b6c;fill-opacity:0.324428;fill-rule:nonzero;stroke:none;stroke-width:8.165;stroke-linecap:round;stroke-linejoin:round;stroke-miterlimit:4;stroke-dasharray:none;stroke-dashoffset:44.0315;stroke-opacity:1;paint-order:markers stroke fill" id="path984-1-1-9" sodipodi:sides="3" sodipodi:cx="101.3218" sodipodi:cy="72.887093" sodipodi:r1="11.233357" sodipodi:r2="5.6166787" sodipodi:arg1="-1.7151621" sodipodi:arg2="-0.6679646" inkscape:flatsided="true" inkscape:rounded="0" inkscape:randomized="0" d="m 99.705715,61.770592 12.051295,15.27518 -19.254339,2.799142 z" inkscape:transform-center-x="-0.80804582" inkscape:transform-center-y="-2.0793412" />
    <path style="opacity:1;fill:#6b3d04;fill-opacity:1;fill-rule:nonzero;stroke:none;stroke-width:8.165;stroke-linecap:round;stroke-linejoin:round;stroke-miterlimit:4;stroke-dasharray:none;stroke-dashoffset:44.0315;stroke-opacity:1;paint-order:markers stroke fill" inkscape:transform-center-x="-0.94444446" inkscape:transform-center-y="2.0851023" d="M 133.42686,42.959899 C 125.87764,58.89257 113.03684,68.558622 100.60831,78.712883 L 98.179548,60.257486 C 111.23775,57.420853 123.88383,53.662054 133.42686,42.959899 Z" id="path906-9" inkscape:connector-curvature="0" sodipodi:nodetypes="cccc" />
    <path style="opacity:1;fill:#543003;fill-opacity:1;fill-rule:nonzero;stroke:none;stroke-width:8.165;stroke-linecap:round;stroke-linejoin:round;stroke-miterlimit:4;stroke-dasharray:none;stroke-dashoffset:44.0315;stroke-opacity:1;paint-order:markers stroke fill" inkscape:transform-center-x="0.91525391" inkscape:transform-center-y="1.4630619" d="M 122.65942,33.272969 C 119.43986,50.607185 109.50099,63.23799 100.0856,76.23522 L 93.013865,59.016317 C 104.91098,52.931768 116.17365,46.061255 122.65942,33.272969 Z" id="path906-2" inkscape:connector-curvature="0" sodipodi:nodetypes="cccc" />
    <path style="opacity:1;fill:#6b3d04;fill-opacity:1;fill-rule:nonzero;stroke:none;stroke-width:8.165;stroke-linecap:round;stroke-linejoin:round;stroke-miterlimit:4;stroke-dasharray:none;stroke-dashoffset:44.0315;stroke-opacity:1;paint-order:markers stroke fill" inkscape:transform-center-x="2.0017031" inkscape:transform-center-y="1.0433267" d="M 107.35972,27.410043 C 106.83995,45.033055 98.958341,59.040148 91.650285,73.328951 L 82.01851,57.400073 c 10.821772,-7.839151 20.89595,-16.357526 25.34121,-29.99003 z" id="path906-3-6" inkscape:connector-curvature="0" sodipodi:nodetypes="cccc" />
    <path style="opacity:1;fill:#7b4704;fill-opacity:1;fill-rule:nonzero;stroke:none;stroke-width:8.165;stroke-linecap:round;stroke-linejoin:round;stroke-miterlimit:4;stroke-dasharray:none;stroke-dashoffset:44.0315;stroke-opacity:1;paint-order:markers stroke fill" inkscape:transform-center-x="0.37925256" inkscape:transform-center-y="1.6545986" d="M 115.97986,31.714627 C 111.47536,48.760159 100.62138,60.613822 90.262066,72.87198 L 84.495377,55.173228 C 96.81349,49.993729 108.55761,43.983103 115.97986,31.714627 Z" id="path906-3-2" inkscape:connector-curvature="0" sodipodi:nodetypes="cccc" />
    <path style="opacity:1;fill:#543003;fill-opacity:1;fill-rule:nonzero;stroke:none;stroke-width:8.165;stroke-linecap:round;stroke-linejoin:round;stroke-miterlimit:4;stroke-dasharray:none;stroke-dashoffset:44.0315;stroke-opacity:1;paint-order:markers stroke fill" inkscape:transform-center-x="2.0017038" inkscape:transform-center-y="1.0433266" d="M 102.24573,24.544106 C 101.72595,42.167118 93.844345,56.174211 86.53629,70.463015 L 76.904513,54.534136 C 87.726286,46.694985 97.800468,38.17661 102.24573,24.544106 Z" id="path906-3" inkscape:connector-curvature="0" sodipodi:nodetypes="cccc" />
    <path style="opacity:1;fill:#6b3d04;fill-opacity:1;fill-rule:nonzero;stroke:none;stroke-width:8.165;stroke-linecap:round;stroke-linejoin:round;stroke-miterlimit:4;stroke-dasharray:none;stroke-dashoffset:44.0315;stroke-opacity:1;paint-order:markers stroke fill" inkscape:transform-center-x="-1.1684549" inkscape:transform-center-y="-0.76617263" d="M 80.371451,15.424555 C 90.087628,30.13634 91.702263,46.127317 93.94807,62.018634 L 76.904515,54.534136 c 4.339315,-12.638568 7.676361,-25.40242 3.466936,-39.109581 z" id="path906" inkscape:connector-curvature="0" sodipodi:nodetypes="cccc" />
    <path sodipodi:type="star" style="opacity:1;fill:#c29b6c;fill-opacity:0.324428;fill-rule:nonzero;stroke:none;stroke-width:8.165;stroke-linecap:round;stroke-linejoin:round;stroke-miterlimit:4;stroke-dasharray:none;stroke-dashoffset:44.0315;stroke-opacity:1;paint-order:markers stroke fill" id="path984-1-1" sodipodi:sides="3" sodipodi:cx="-88.209595" sodipodi:cy="71.909958" sodipodi:r1="11.233357" sodipodi:r2="5.6166787" sodipodi:arg1="-1.7151621" sodipodi:arg2="-0.6679646" inkscape:flatsided="true" inkscape:rounded="0" inkscape:randomized="0" d="m -89.82568,60.793457 12.0513,15.275181 -19.254344,2.799141 z" inkscape:transform-center-x="0.80804461" inkscape:transform-center-y="-2.079339" transform="scale(-1,1)" />
    <path style="opacity:1;fill:#fcdbb2;fill-opacity:1;fill-rule:nonzero;stroke:none;stroke-width:8.165;stroke-linecap:round;stroke-linejoin:round;stroke-miterlimit:4;stroke-dasharray:none;stroke-dashoffset:44.0315;stroke-opacity:1;paint-order:markers stroke fill" inkscape:transform-center-x="-1.8679808" inkscape:transform-center-y="3.8066115" d="m 90.091005,90.315566 -13.186492,-35.78143 37.580877,6.47088 C 107.31188,71.75652 104.3523,86.824732 90.091005,90.315566 Z" id="path852" inkscape:connector-curvature="0" sodipodi:nodetypes="cccc" />
    <path style="opacity:1;fill:#e0cece;fill-opacity:1;fill-rule:nonzero;stroke:none;stroke-width:8.165;stroke-linecap:round;stroke-linejoin:round;stroke-miterlimit:4;stroke-dasharray:none;stroke-dashoffset:44.0315;stroke-opacity:1;paint-order:markers stroke fill" d="m 103.93317,63.570688 c -5.214545,0 -7.965602,4.275962 -11.760033,6.61689 3.794431,2.340929 6.545488,6.61689 11.760033,6.61689 5.21453,0 7.96584,-4.275961 11.76026,-6.61689 -3.79442,-2.340928 -6.54573,-6.61689 -11.76026,-6.61689 z" id="path817" inkscape:connector-curvature="0" sodipodi:nodetypes="scscs" />
    <path inkscape:connector-curvature="0" style="opacity:1;fill:#341e02;fill-opacity:1;fill-rule:nonzero;stroke:none;stroke-width:8.165;stroke-linecap:round;stroke-linejoin:round;stroke-miterlimit:4;stroke-dasharray:none;stroke-dashoffset:44.0315;stroke-opacity:1;paint-order:markers stroke fill" d="m 102.77177,62.909628 -2.10926,7.13734 2.10926,7.137344 2.10897,-7.137344 z" id="path870-5" />
    <path style="opacity:1;fill:#e0cece;fill-opacity:1;fill-rule:nonzero;stroke:none;stroke-width:8.165;stroke-linecap:round;stroke-linejoin:round;stroke-miterlimit:4;stroke-dasharray:none;stroke-dashoffset:44.0315;stroke-opacity:1;paint-order:markers stroke fill" d="m 84.78276,58.693655 c -5.214544,0 -7.9656,4.275964 -11.760031,6.616892 3.794431,2.340929 6.545487,6.61689 11.760031,6.61689 5.214531,0 7.965835,-4.275961 11.760256,-6.61689 -3.794421,-2.340928 -6.545719,-6.616892 -11.760256,-6.616892 z" id="path817-6" inkscape:connector-curvature="0" sodipodi:nodetypes="scscs" />
    <path style="opacity:1;fill:#341e02;fill-opacity:1;fill-rule:nonzero;stroke:none;stroke-width:8.165;stroke-linecap:round;stroke-linejoin:round;stroke-miterlimit:4;stroke-dasharray:none;stroke-dashoffset:44.0315;stroke-opacity:1;paint-order:markers stroke fill" d="m 84.366638,58.032597 -2.109254,7.137341 2.109254,7.137342 2.10897,-7.137342 z" id="path870" inkscape:connector-curvature="0" />
    <path style="opacity:1;fill:#fbcc92;fill-opacity:1;fill-rule:nonzero;stroke:none;stroke-width:8.165;stroke-linecap:round;stroke-linejoin:round;stroke-miterlimit:4;stroke-dasharray:none;stroke-dashoffset:44.0315;stroke-opacity:1;paint-order:markers stroke fill" inkscape:transform-center-y="-0.80551338" d="m 81.121915,84.957585 c 3.427639,-2.48277 9.77042,-2.560543 9.795307,-7.850584 l 6.885574,5.048615 c -3.643563,2.789873 -7.159553,5.703265 -16.680881,2.801969 z" id="path903" inkscape:connector-curvature="0" sodipodi:nodetypes="cccc" />
    <path style="opacity:1;fill:#b8ecdd;fill-opacity:1;fill-rule:nonzero;stroke:none;stroke-width:8.165;stroke-linecap:round;stroke-linejoin:round;stroke-miterlimit:4;stroke-dasharray:none;stroke-dashoffset:44.0315;stroke-opacity:1;paint-order:markers stroke fill" inkscape:transform-center-x="1.1360967e-06" inkscape:transform-center-y="1.7426241" d="M 95.959407,116.31386 89.638614,97.524054 101.20573,98.02697 Z" id="path1070" inkscape:connector-curvature="0" sodipodi:nodetypes="cccc" />
    <path style="opacity:1;fill:#4feec7;fill-opacity:1;fill-rule:nonzero;stroke:none;stroke-width:8.165;stroke-linecap:round;stroke-linejoin:round;stroke-miterlimit:4;stroke-dasharray:none;stroke-dashoffset:44.0315;stroke-opacity:1;paint-order:markers stroke fill" inkscape:transform-center-x="1.3883445" inkscape:transform-center-y="-0.50505765" d="M 95.959407,116.31386 82.069604,99.156833 c 3.703983,-1.727407 9.163161,-2.253893 8.06797,-7.264949 z" id="path1048" inkscape:connector-curvature="0" sodipodi:nodetypes="cccc" />
    <path style="opacity:1;fill:#4feec7;fill-opacity:1;fill-rule:nonzero;stroke:none;stroke-width:8.165;stroke-linecap:round;stroke-linejoin:round;stroke-miterlimit:4;stroke-dasharray:none;stroke-dashoffset:44.0315;stroke-opacity:1;paint-order:markers stroke fill" inkscape:transform-center-x="-1.3883474" inkscape:transform-center-y="-0.50505794" d="M 95.959407,116.31386 110.90091,99.156833 c -6.48604,-1.714977 -8.42838,-4.417717 -8.71458,-7.480489 z" id="path1048-9" inkscape:connector-curvature="0" sodipodi:nodetypes="cccc" />
    <path style="fill:#2bc7d7;fill-opacity:1;fill-rule:evenodd;stroke-width:0.264583" d="m 110.90091,99.156833 v 0 C 108.45712,131.5603 91.302377,187.46154 105.18868,201.55552 l 29.26219,-0.60963 C 114.82582,187.63074 118.47852,135.58286 110.90091,99.156833 Z" id="rect1073-6" inkscape:connector-curvature="0" sodipodi:nodetypes="ccccc" />
  </g>
</svg>
