<?xml version="1.0" encoding="UTF-8" standalone="no"?>
<svg
   viewBox="0 0 5 5"
   id="svg5"
   version="1.1"
   sodipodi:docname="laterem moment.svg"
   inkscape:version="1.2.1 (9c6d41e410, 2022-07-14)"
   xmlns:inkscape="http://www.inkscape.org/namespaces/inkscape"
   xmlns:sodipodi="http://sodipodi.sourceforge.net/DTD/sodipodi-0.dtd"
   xmlns="http://www.w3.org/2000/svg"
   xmlns:svg="http://www.w3.org/2000/svg">
  <sodipodi:namedview
     id="namedview7"
     pagecolor="#ffffff"
     bordercolor="#666666"
     borderopacity="1.0"
     inkscape:showpageshadow="2"
     inkscape:pageopacity="0.0"
     inkscape:pagecheckerboard="0"
     inkscape:deskcolor="#d1d1d1"
     showgrid="false"
     inkscape:zoom="90.509668"
     inkscape:cx="3.5797281"
     inkscape:cy="2.4362038"
     inkscape:window-width="1690"
     inkscape:window-height="1239"
     inkscape:window-x="413"
     inkscape:window-y="97"
     inkscape:window-maximized="0"
     inkscape:current-layer="layer1" />
  <defs
     id="defs2" />
  <g
     inkscape:label="Слой 1"
     inkscape:groupmode="layer"
     id="layer1">
    <path
       id="rect234"
       style="stroke-width:0.232916"
       d="M 2.5,0.82697681 A 0.84058659,0.84058659 0 0 0 1.6589244,1.6680524 0.84058659,0.84058659 0 0 0 2.5,2.5065402 0.84058659,0.84058659 0 0 0 3.3410756,1.6680524 0.84058659,0.84058659 0 0 0 2.5,0.82697681 Z M 2.3576641,2.9283719 C 1.7334111,2.9598476 1.2396805,3.4735821 1.2396805,4.1058778 v 0.5046454 h 2.520639 V 4.1058778 c 0,-0.6526924 -0.5248135,-1.1775059 -1.1775059,-1.1775059 H 2.4171864 c -0.020397,0 -0.039385,-0.00102 -0.059522,0 z" />
    <path
       id="text3405"
       style="font-style:normal;font-variant:normal;font-weight:normal;font-stretch:normal;font-size:2.16839px;line-height:1.25;font-family:'Franklin Gothic Medium';-inkscape-font-specification:'Franklin Gothic Medium, Normal';font-variant-ligatures:normal;font-variant-caps:normal;font-variant-numeric:normal;font-feature-settings:normal;text-align:center;letter-spacing:0px;word-spacing:0px;writing-mode:lr-tb;text-anchor:middle;fill:#ffffff;fill-opacity:1;stroke:none;stroke-width:0.999997"
       d="M 2.3844596,3.1851624 V 3.703411 H 1.8841589 V 3.9367351 H 2.3844596 V 4.4527406 H 2.6155403 V 3.9367351 H 3.1158409 V 3.703411 H 2.6155403 V 3.1851624 Z" />
  </g>
</svg>
