<?xml version="1.0" encoding="UTF-8" standalone="no"?>
<!-- Created with Inkscape (http://www.inkscape.org/) -->

<svg width="79.697411mm" height="69.914406mm" viewBox="0 0 79.697411 69.914406" version="1.1" id="svg8" inkscape:version="1.3 (0e150ed6c4, 2023-07-21)" sodipodi:docname="дебило.svg" xmlns:inkscape="http://www.inkscape.org/namespaces/inkscape" xmlns:sodipodi="http://sodipodi.sourceforge.net/DTD/sodipodi-0.dtd" xmlns="http://www.w3.org/2000/svg" xmlns:svg="http://www.w3.org/2000/svg" xmlns:rdf="http://www.w3.org/1999/02/22-rdf-syntax-ns#" xmlns:cc="http://creativecommons.org/ns#" xmlns:dc="http://purl.org/dc/elements/1.1/">
  <defs id="defs2" />
  <sodipodi:namedview id="base" pagecolor="#ffffff" bordercolor="#666666" borderopacity="1.0" inkscape:pageopacity="0.0" inkscape:pageshadow="2" inkscape:zoom="1.0573754" inkscape:cx="170.23282" inkscape:cy="17.96902" inkscape:document-units="mm" inkscape:current-layer="layer1" showgrid="false" inkscape:window-width="2467" inkscape:window-height="1413" inkscape:window-x="84" inkscape:window-y="-9" inkscape:window-maximized="1" inkscape:showpageshadow="2" inkscape:pagecheckerboard="0" inkscape:deskcolor="#d1d1d1" />
  <metadata id="metadata5">
    <rdf:RDF>
      <cc:Work rdf:about="">
        <dc:format>image/svg+xml</dc:format>
        <dc:type rdf:resource="http://purl.org/dc/dcmitype/StillImage" />
        <dc:title />
      </cc:Work>
    </rdf:RDF>
  </metadata>
  <g inkscape:label="Layer 1" inkscape:groupmode="layer" id="layer1" transform="translate(-72.080389,-112.13587)">
    <path style="fill:#4d4d4d;fill-opacity:1;fill-rule:evenodd;stroke-width:0.264583" d="m 109.6026,142.36181 v 6.04148 l -10.634314,-4.03139 1.421834,3.03463 H 87.093975 c -0.143833,-1.71988 -0.430929,-3.12374 -0.868396,-3.53648 -1.303504,-1.22984 -11.864058,-1.22984 -13.167563,0 -1.303502,1.22983 -1.303502,11.19356 0,12.42339 1.303505,1.22984 11.864059,1.22984 13.167563,0 0.449381,-0.42398 0.74019,-1.89432 0.879725,-3.67865 h 15.725166 l 1.88691,4.02765 -0.0606,0.002 0.81062,20.68073 -9.347297,4.72511 15.040307,-0.91392 -0.4594,-11.72433 0.36763,0.78511 0.56307,-1.0828 -0.4713,12.02202 15.03974,0.91392 -9.34673,-4.72511 0.77379,-19.74543 2.38313,-4.58455 h 16.74255 c 0.13954,1.7842 0.43037,3.25415 0.87972,3.67811 1.30351,1.22984 11.86407,1.22984 13.16756,0 1.30351,-1.22983 1.30351,-11.19356 0,-12.4234 -1.30349,-1.22983 -11.86405,-1.22983 -13.16756,0 -0.43748,0.41276 -0.72457,1.81705 -0.8684,3.53703 h -14.04614 l 2.36953,-4.5589 -12.65377,4.82345 v -5.6898 z" id="rect375-2-0" inkscape:connector-curvature="0" inkscape:export-xdpi="96" inkscape:export-ydpi="96" />
    <rect style="fill:#501616;fill-opacity:1;fill-rule:evenodd;stroke-width:0.264583" id="rect375-2" width="17.461075" height="5.0357957" x="-136.55287" y="148.26419" transform="scale(-1,1)" inkscape:export-xdpi="96" inkscape:export-ydpi="96" />
    <path sodipodi:type="star" style="fill:#66ff00;fill-opacity:1;fill-rule:evenodd;stroke-width:0.345941" id="path10-52-4" sodipodi:sides="4" sodipodi:cx="110.69977" sodipodi:cy="135.60416" sodipodi:r1="11.105563" sodipodi:r2="5.5527821" sodipodi:arg1="-0.52359878" sodipodi:arg2="0.26179938" inkscape:flatsided="true" inkscape:rounded="0.14" inkscape:randomized="0" d="m 120.31747,130.05137 c 1.09939,1.90421 -2.16071,14.07109 -4.06492,15.17049 -1.90421,1.09939 -14.07109,-2.16071 -15.17048,-4.06492 -1.099396,-1.90421 2.16071,-14.07109 4.06492,-15.17048 1.9042,-1.0994 14.07108,2.16071 15.17048,4.06491 z" inkscape:transform-center-x="0.37646894" inkscape:transform-center-y="1.4049934" transform="matrix(-0.73876048,-0.19795028,-0.19795028,0.73876048,250.00689,72.584576)" inkscape:export-xdpi="96" inkscape:export-ydpi="96" />
    <rect style="fill:#501616;fill-opacity:1;fill-rule:evenodd;stroke-width:0.264583" id="rect375" width="17.461075" height="5.0357957" x="87.305374" y="147.89665" inkscape:export-xdpi="96" inkscape:export-ydpi="96" />
    <path style="fill:#501616;fill-opacity:1;fill-rule:evenodd;stroke-width:0.264583" d="m 117.16066,156.82866 -5.05034,-0.18676 -0.88266,23.86803 v 0 l 13.72023,0.88345 -8.5267,-4.56841 z" id="rect357-3" inkscape:connector-curvature="0" sodipodi:nodetypes="ccccccc" inkscape:export-xdpi="96" inkscape:export-ydpi="96" />
    <path transform="rotate(-2.1178677)" style="fill:#501616;fill-opacity:1;fill-rule:evenodd;stroke-width:0.264583" d="m 99.427086,160.61273 h 5.053794 v 23.88435 0 l -13.743503,0.37581 8.689709,-4.25018 z" id="rect357" inkscape:connector-curvature="0" sodipodi:nodetypes="ccccccc" inkscape:export-xdpi="96" inkscape:export-ydpi="96" />
    <path sodipodi:type="star" style="fill:#4d4d4d;fill-opacity:1;fill-rule:evenodd;stroke-width:0.19509" id="path10-5-4" sodipodi:sides="4" sodipodi:cx="110.69977" sodipodi:cy="135.60416" sodipodi:r1="11.105563" sodipodi:r2="5.5527821" sodipodi:arg1="-0.52359878" sodipodi:arg2="0.26179938" inkscape:flatsided="true" inkscape:rounded="0.14" inkscape:randomized="0" d="m 120.31747,130.05137 c 1.09939,1.90421 -2.16071,14.07109 -4.06492,15.17049 -1.90421,1.09939 -14.07109,-2.16071 -15.17048,-4.06492 -1.099396,-1.90421 2.16071,-14.07109 4.06492,-15.17048 1.9042,-1.0994 14.07108,2.16071 15.17048,4.06491 z" inkscape:transform-center-x="-13.342461" inkscape:transform-center-y="-3.6528538" transform="matrix(1.3100012,-0.35101377,0.35101377,1.3100012,-67.916046,-14.41704)" inkscape:export-xdpi="96" inkscape:export-ydpi="96" />
    <path sodipodi:type="star" style="fill:#4d4d4d;fill-opacity:1;fill-rule:evenodd;stroke-width:0.249767" id="path10-0" sodipodi:sides="4" sodipodi:cx="110.69977" sodipodi:cy="135.60416" sodipodi:r1="11.105563" sodipodi:r2="5.5527821" sodipodi:arg1="-0.52359878" sodipodi:arg2="0.26179938" inkscape:flatsided="true" inkscape:rounded="0.14" inkscape:randomized="0" d="m 120.31747,130.05137 c 1.09939,1.90421 -2.16071,14.07109 -4.06492,15.17049 -1.90421,1.09939 -14.07109,-2.16071 -15.17048,-4.06492 -1.099396,-1.90421 2.16071,-14.07109 4.06492,-15.17048 1.9042,-1.0994 14.07108,2.16071 15.17048,4.06491 z" inkscape:transform-center-x="0.17505537" inkscape:transform-center-y="7.9650966" transform="matrix(1.0232237,-0.27417197,0.27417197,1.0232237,-39.267293,27.582762)" inkscape:export-xdpi="96" inkscape:export-ydpi="96" />
    <path sodipodi:type="star" style="fill:#4d4d4d;fill-opacity:1;fill-rule:evenodd;stroke-width:0.337211" id="path10-2-6" sodipodi:sides="4" sodipodi:cx="110.69977" sodipodi:cy="135.60416" sodipodi:r1="11.105563" sodipodi:r2="5.5527821" sodipodi:arg1="-0.52359878" sodipodi:arg2="0.26179938" inkscape:flatsided="true" inkscape:rounded="0.14" inkscape:randomized="0" d="m 120.31747,130.05137 c 1.09939,1.90421 -2.16071,14.07109 -4.06492,15.17049 -1.90421,1.09939 -14.07109,-2.16071 -15.17048,-4.06492 -1.099396,-1.90421 2.16071,-14.07109 4.06492,-15.17048 1.9042,-1.0994 14.07108,2.16071 15.17048,4.06491 z" inkscape:transform-center-x="12.77305" inkscape:transform-center-y="-1.3265974" transform="matrix(0.67950345,-0.3923115,0.3923115,0.67950345,-29.835747,77.978981)" inkscape:export-xdpi="96" inkscape:export-ydpi="96" />
    <path sodipodi:type="star" style="fill:#55d400;fill-opacity:1;fill-rule:evenodd;stroke-width:0.357214" id="path10-2" sodipodi:sides="4" sodipodi:cx="110.69977" sodipodi:cy="135.60416" sodipodi:r1="11.105563" sodipodi:r2="5.5527821" sodipodi:arg1="-0.52359878" sodipodi:arg2="0.26179938" inkscape:flatsided="true" inkscape:rounded="0.14" inkscape:randomized="0" d="m 120.31747,130.05137 c 1.09939,1.90421 -2.16071,14.07109 -4.06492,15.17049 -1.90421,1.09939 -14.07109,-2.16071 -15.17048,-4.06492 -1.099396,-1.90421 2.16071,-14.07109 4.06492,-15.17048 1.9042,-1.0994 14.07108,2.16071 15.17048,4.06491 z" inkscape:transform-center-x="-0.70432717" inkscape:transform-center-y="1.2199317" transform="matrix(0.64145301,-0.37034307,0.37034307,0.64145301,-21.929301,80.781166)" inkscape:export-xdpi="96" inkscape:export-ydpi="96" />
    <path sodipodi:type="star" style="fill:#66ff00;fill-opacity:1;fill-rule:evenodd;stroke-width:0.206662" id="path10-5" sodipodi:sides="4" sodipodi:cx="110.69977" sodipodi:cy="135.60416" sodipodi:r1="11.105563" sodipodi:r2="5.5527821" sodipodi:arg1="-0.52359878" sodipodi:arg2="0.26179938" inkscape:flatsided="true" inkscape:rounded="0.14" inkscape:randomized="0" d="m 120.31747,130.05137 c 1.09939,1.90421 -2.16071,14.07109 -4.06492,15.17049 -1.90421,1.09939 -14.07109,-2.16071 -15.17048,-4.06492 -1.099396,-1.90421 2.16071,-14.07109 4.06492,-15.17048 1.9042,-1.0994 14.07108,2.16071 15.17048,4.06491 z" inkscape:transform-center-x="-0.63017749" inkscape:transform-center-y="2.351878" transform="matrix(1.2366445,-0.3313579,0.3313579,1.2366445,-57.877206,-6.4409111)" inkscape:export-xdpi="96" inkscape:export-ydpi="96" />
    <path sodipodi:type="star" style="fill:#66ff00;fill-opacity:1;fill-rule:evenodd;stroke-width:0.264583" id="path10" sodipodi:sides="4" sodipodi:cx="110.69977" sodipodi:cy="135.60416" sodipodi:r1="11.105563" sodipodi:r2="5.5527821" sodipodi:arg1="-0.52359878" sodipodi:arg2="0.26179938" inkscape:flatsided="true" inkscape:rounded="0.14" inkscape:randomized="0" d="m 120.31747,130.05137 c 1.09939,1.90421 -2.16071,14.07109 -4.06492,15.17049 -1.90421,1.09939 -14.07109,-2.16071 -15.17048,-4.06492 -1.099396,-1.90421 2.16071,-14.07109 4.06492,-15.17048 1.9042,-1.0994 14.07108,2.16071 15.17048,4.06491 z" inkscape:transform-center-x="-0.49222777" inkscape:transform-center-y="1.8370233" transform="rotate(-15,110.69977,133.70233)" inkscape:export-xdpi="96" inkscape:export-ydpi="96" />
    <rect style="fill:#4d4d4d;fill-opacity:1;fill-rule:evenodd;stroke-width:0.264583" id="rect194-5" width="19.587667" height="9.3864546" x="101.38003" y="132.72426" inkscape:export-xdpi="96" inkscape:export-ydpi="96" />
    <rect style="fill:#f9f9f9;fill-opacity:1;fill-rule:evenodd;stroke-width:0.264583" id="rect194" width="18.055033" height="7.8074036" x="102.21439" y="133.59363" inkscape:export-xdpi="96" inkscape:export-ydpi="96" />
    <rect style="fill:#ffaaaa;fill-opacity:1;fill-rule:evenodd;stroke-width:0.285816" id="rect33" width="10.180721" height="10.180721" x="179.96681" y="67.774055" transform="matrix(0.87046254,0.49223467,-0.87046254,0.49223467,0,0)" inkscape:export-xdpi="96" inkscape:export-ydpi="96" />
    <rect style="fill:#ffaaaa;fill-opacity:1;fill-rule:evenodd;stroke-width:0.285816" id="rect33-7" width="16.851662" height="16.851662" x="190.03746" y="46.85717" transform="matrix(0.87046255,0.49223466,-0.87046255,0.49223466,0,0)" inkscape:export-xdpi="96" inkscape:export-ydpi="96" />
    <rect style="fill:#000000;fill-opacity:1;fill-rule:evenodd;stroke-width:0.264583" id="rect50-9" width="0.61421132" height="6.2366071" x="124.43661" y="121.50847" inkscape:export-xdpi="96" inkscape:export-ydpi="96" />
    <rect style="fill:#4d4d4d;fill-opacity:1;fill-rule:evenodd;stroke-width:0.27898" id="rect82" width="0.42395294" height="8.9011097" x="139.46327" y="52.550354" transform="matrix(0.81347364,0.58160178,-0.16762219,0.98585131,0,0)" inkscape:export-xdpi="96" inkscape:export-ydpi="96" />
    <rect style="fill:#4d4d4d;fill-opacity:1;fill-rule:evenodd;stroke-width:0.278145" id="rect82-1" width="0.42017049" height="8.9275465" x="-93.475929" y="186.33527" transform="matrix(-0.83334992,0.55274579,0.14539962,0.98937301,0,0)" inkscape:export-xdpi="96" inkscape:export-ydpi="96" />
    <rect style="fill:#4d4d4d;fill-opacity:1;fill-rule:evenodd;stroke-width:0.27898" id="rect82-4" width="0.42395294" height="8.9011097" x="142.53207" y="50.798244" transform="matrix(0.81347364,0.58160178,-0.16762219,0.98585131,0,0)" inkscape:export-xdpi="96" inkscape:export-ydpi="96" />
    <rect style="fill:#4d4d4d;fill-opacity:1;fill-rule:evenodd;stroke-width:0.278145" id="rect82-1-7" width="0.42017049" height="8.9275465" x="-96.517357" y="188.09258" transform="matrix(-0.83334995,0.55274575,0.14539962,0.98937301,0,0)" inkscape:export-xdpi="96" inkscape:export-ydpi="96" />
    <rect style="fill:#4d4d4d;fill-opacity:1;fill-rule:evenodd;stroke-width:0.27898" id="rect82-18" width="0.42395294" height="8.9011097" x="145.60089" y="49.04612" transform="matrix(0.81347364,0.58160178,-0.16762219,0.98585131,0,0)" inkscape:export-xdpi="96" inkscape:export-ydpi="96" />
    <rect style="fill:#4d4d4d;fill-opacity:1;fill-rule:evenodd;stroke-width:0.278145" id="rect82-1-6" width="0.42017049" height="8.9275465" x="-99.558777" y="189.84985" transform="matrix(-0.83334995,0.55274575,0.14539962,0.98937301,0,0)" inkscape:export-xdpi="96" inkscape:export-ydpi="96" />
    <rect style="fill:#4d4d4d;fill-opacity:1;fill-rule:evenodd;stroke-width:0.27898" id="rect82-3" width="0.42395294" height="8.9011097" x="148.66966" y="47.293991" transform="matrix(0.81347364,0.58160178,-0.16762219,0.98585131,0,0)" inkscape:export-xdpi="96" inkscape:export-ydpi="96" />
    <rect style="fill:#4d4d4d;fill-opacity:1;fill-rule:evenodd;stroke-width:0.278145" id="rect82-1-9" width="0.42017049" height="8.9275465" x="-102.60019" y="191.60716" transform="matrix(-0.83334995,0.55274575,0.14539962,0.98937301,0,0)" inkscape:export-xdpi="96" inkscape:export-ydpi="96" />
    <rect style="fill:#4d4d4d;fill-opacity:1;fill-rule:evenodd;stroke-width:0.27898" id="rect82-7" width="0.42395294" height="8.9011097" x="151.73845" y="45.541904" transform="matrix(0.81347364,0.58160178,-0.16762219,0.98585131,0,0)" inkscape:export-xdpi="96" inkscape:export-ydpi="96" />
    <rect style="fill:#4d4d4d;fill-opacity:1;fill-rule:evenodd;stroke-width:0.278145" id="rect82-1-0" width="0.42017049" height="8.9275465" x="-105.64162" y="193.36453" transform="matrix(-0.83334995,0.55274575,0.14539962,0.98937301,0,0)" inkscape:export-xdpi="96" inkscape:export-ydpi="96" />
    <rect style="fill:#4d4d4d;fill-opacity:1;fill-rule:evenodd;stroke-width:0.27898" id="rect82-3-4" width="0.42395294" height="8.9011097" x="154.80728" y="43.789799" transform="matrix(0.81347364,0.58160178,-0.16762219,0.98585131,0,0)" inkscape:export-xdpi="96" inkscape:export-ydpi="96" />
    <rect style="fill:#4d4d4d;fill-opacity:1;fill-rule:evenodd;stroke-width:0.278145" id="rect82-1-66" width="0.42017049" height="8.9275465" x="-90.434509" y="184.57797" transform="matrix(-0.83334992,0.55274579,0.14539962,0.98937301,0,0)" inkscape:export-xdpi="96" inkscape:export-ydpi="96" />
    <rect style="fill:#4d4d4d;fill-opacity:1;fill-rule:evenodd;stroke-width:0.278145" id="rect82-1-3" width="0.42017049" height="8.9275465" x="-108.60043" y="195.33167" transform="matrix(-0.83334992,0.55274579,0.14539962,0.98937301,0,0)" inkscape:export-xdpi="96" inkscape:export-ydpi="96" />
    <path style="fill:#44aa00;fill-opacity:1;fill-rule:evenodd;stroke-width:0.264583" d="m 108.29427,129.07122 0.68488,-1.1359 v 1.83748 h -1.62032 z" id="rect196" inkscape:connector-curvature="0" sodipodi:nodetypes="ccccc" inkscape:export-xdpi="96" inkscape:export-ydpi="96" />
    <path style="fill:#44aa00;fill-opacity:1;fill-rule:evenodd;stroke-width:0.264583" d="m 110.94977,129.80897 -0.4348,-1.25311 -0.38052,1.79765 1.5852,0.33555 z" id="rect196-9" inkscape:connector-curvature="0" sodipodi:nodetypes="ccccc" inkscape:transform-center-x="-4.9611906" inkscape:transform-center-y="2.8731474" inkscape:export-xdpi="96" inkscape:export-ydpi="96" />
    <rect style="fill:#000000;fill-opacity:1;fill-rule:evenodd;stroke-width:0.264583" id="rect50" width="0.61421132" height="6.2366071" x="97.441818" y="123.8529" inkscape:export-xdpi="96" inkscape:export-ydpi="96" />
    <rect style="fill:#66ff00;fill-opacity:1;fill-rule:evenodd;stroke-width:0.264583" id="rect352" width="2.5827332" height="6.8757396" x="109.80654" y="143.01881" inkscape:export-xdpi="96" inkscape:export-ydpi="96" />
    <path style="fill:#c83737;fill-opacity:1;fill-rule:evenodd;stroke-width:0.264583" inkscape:transform-center-x="1.387279e-06" inkscape:transform-center-y="-1.9209589e-06" d="m 111.14427,169.93267 -11.03856,-24.97056 10.57458,4.24916 13.25251,-5.35496 z" id="path354" inkscape:connector-curvature="0" sodipodi:nodetypes="ccccc" inkscape:export-xdpi="96" inkscape:export-ydpi="96" />
    <path sodipodi:type="star" style="fill:#66ff00;fill-opacity:1;fill-rule:evenodd;stroke-width:0.345941" id="path10-52" sodipodi:sides="4" sodipodi:cx="110.69977" sodipodi:cy="135.60416" sodipodi:r1="11.105563" sodipodi:r2="5.5527821" sodipodi:arg1="-0.52359878" sodipodi:arg2="0.26179938" inkscape:flatsided="true" inkscape:rounded="0.14" inkscape:randomized="0" d="m 120.31747,130.05137 c 1.09939,1.90421 -2.16071,14.07109 -4.06492,15.17049 -1.90421,1.09939 -14.07109,-2.16071 -15.17048,-4.06492 -1.099396,-1.90421 2.16071,-14.07109 4.06492,-15.17048 1.9042,-1.0994 14.07108,2.16071 15.17048,4.06491 z" inkscape:transform-center-x="-0.37646607" inkscape:transform-center-y="1.4049934" transform="matrix(0.73876049,-0.19795028,0.19795028,0.73876049,-26.148654,72.217028)" inkscape:export-xdpi="96" inkscape:export-ydpi="96" />
  </g>
</svg>
