<?xml version="1.0" encoding="UTF-8" standalone="no"?>
<!-- Created with Inkscape (http://www.inkscape.org/) -->

<svg width="287.2619mm" height="237.76196mm" viewBox="0 0 287.2619 237.76196" version="1.1" id="svg8" inkscape:version="1.3 (0e150ed6c4, 2023-07-21)" sodipodi:docname="жжбрп персонажеки.svg" xmlns:inkscape="http://www.inkscape.org/namespaces/inkscape" xmlns:sodipodi="http://sodipodi.sourceforge.net/DTD/sodipodi-0.dtd" xmlns="http://www.w3.org/2000/svg" xmlns:svg="http://www.w3.org/2000/svg" xmlns:rdf="http://www.w3.org/1999/02/22-rdf-syntax-ns#" xmlns:cc="http://creativecommons.org/ns#" xmlns:dc="http://purl.org/dc/elements/1.1/">
  <defs id="defs2" />
  <sodipodi:namedview id="base" pagecolor="#ffffff" bordercolor="#666666" borderopacity="1.0" inkscape:pageopacity="0.0" inkscape:pageshadow="2" inkscape:zoom="0.35" inkscape:cx="537.14285" inkscape:cy="594.28571" inkscape:document-units="mm" inkscape:current-layer="layer1" showgrid="false" showguides="false" inkscape:window-width="821" inkscape:window-height="462" inkscape:window-x="303" inkscape:window-y="210" inkscape:window-maximized="0" inkscape:showpageshadow="2" inkscape:pagecheckerboard="0" inkscape:deskcolor="#d1d1d1" />
  <metadata id="metadata5">
    <rdf:RDF>
      <cc:Work rdf:about="">
        <dc:format>image/svg+xml</dc:format>
        <dc:type rdf:resource="http://purl.org/dc/dcmitype/StillImage" />
        <dc:title />
      </cc:Work>
    </rdf:RDF>
  </metadata>
  <g inkscape:label="Layer 1" inkscape:groupmode="layer" id="layer1" transform="translate(58.208332,234.0715)">
    <rect style="fill:#d5f6ff;fill-rule:evenodd;stroke-width:0.264583" id="rect921" width="287.2619" height="237.76196" x="-58.208332" y="-234.0715" inkscape:export-filename="D:\Спайд\Артеги\к.png" inkscape:export-xdpi="96" inkscape:export-ydpi="96" />
    <path style="fill:#2a7fff;fill-rule:evenodd;stroke-width:0.264583" d="m -58.208332,-72.008588 c 60.9178459,51.975226 103.272484,13.756883 141.363094,13.04931 49.294838,-0.915696 96.277468,31.703879 145.898808,-13.04931 V 3.6904602 H -58.208332 Z" id="rect923" inkscape:connector-curvature="0" sodipodi:nodetypes="cscccc" />
    <path style="fill:#442178;fill-rule:evenodd;stroke-width:0.264583" d="m 343.71206,70.483532 9.79909,-9.978065 5.36229,11.897268 5.42265,-10.321178 -2.42484,25.327981 -12.80861,-3.35673 -15.44344,2.071536 7.78083,-26.734477 z" id="rect917" inkscape:connector-curvature="0" sodipodi:nodetypes="ccccccccc" />
    <path style="fill:#440055;fill-rule:evenodd;stroke-width:0.264583" d="m 333.6192,86.124344 10.09286,-15.640812 5.35058,13.569276 9.8108,-11.650073 2.99781,15.006803 -0.81472,25.116822 -12.23692,-11.63247 -5.05809,-0.30742 -16.2227,6.71898 z" id="rect894" inkscape:connector-curvature="0" sodipodi:nodetypes="cccccccccc" />
    <rect style="fill:#ff9955;fill-rule:evenodd;stroke-width:0.264646" id="rect892" width="15.160697" height="22.031158" x="342.43286" y="92.957466" transform="matrix(0.99983999,0.01788861,-0.04853074,0.99882169,0,0)" />
    <path style="fill:#917c6f;fill-rule:evenodd;stroke-width:0.264583" d="m 207.62685,-206.8596 -8.50413,3.65416 2.08414,-24.63675 -5.89353,23.48475 -10.94439,-1.71873 6.04589,6.66359 -18.2826,-4.03965 16.99608,12.01293 -11.77182,14.20064 9.61679,-6.93423 -10.91471,19.58625 7.92257,-5.12657 -10.99727,29.81983 7.87482,-10.33156 -9.09505,25.44652 14.2889,-26.57153 5.39713,28.6629 2.02265,-31.35923 10.05313,8.97485 -5.22787,-16.55856 14.1786,2.66618 -9.86363,-15.8602 14.86707,-9.77121 -10.72937,-1.23262 6.63773,-12.33401 -9.13423,-1.81811 z" id="rect4865-3" inkscape:connector-curvature="0" sodipodi:nodetypes="ccccccccccccccccccccccccccc" />
    <rect style="fill:#f4e3d7;fill-opacity:1;fill-rule:evenodd;stroke-width:0.264583" id="rect4928-4" width="4.7550411" height="5.0627556" x="128.65756" y="-192.26804" transform="rotate(28.353144)" />
    <rect style="fill:#2d5016;fill-opacity:1;fill-rule:evenodd;stroke-width:0.264583" id="rect4891-3" width="9.2839165" height="73.563988" x="-212.14369" y="-172.81992" transform="matrix(-0.99942178,0.03400143,0.03400143,0.99942178,0,0)" />
    <path style="fill:#000000;fill-rule:evenodd;stroke-width:0.264583" d="m 193.0607,-132.15062 8.90042,0.44102 2.32862,52.483358 -1.07176,44.45028 -8.30715,-0.17964 1.1231,-44.04568 z" id="rect4908-8" inkscape:connector-curvature="0" sodipodi:nodetypes="ccccccc" />
    <path style="fill:#000000;fill-rule:evenodd;stroke-width:0.264583" d="m 186.39488,-130.37955 h 8.30908 l -1.24046,54.356268 -3.16949,43.27473 -9.37816,-0.66817 4.66613,-43.93585 z" id="rect4908" inkscape:connector-curvature="0" sodipodi:nodetypes="ccccccc" />
    <path style="fill:#ac9d93;fill-rule:evenodd;stroke-width:0.264583" d="m 192.88001,-218.42751 7.27805,3.18728 5.04782,-13.08015 -0.98517,13.06312 11.21425,0.77526 -7.83919,2.53191 19.06963,0.68973 -20.10382,3.63658 7.44392,9.14816 -7.42403,-5.05585 5.05471,11.8077 -6.28474,-3.86154 2.19088,17.12172 -4.74025,-6.5507 1.58613,14.56665 -6.34963,-15.93991 -13.534,14.02729 7.04243,-16.55334 -11.00142,5.77443 8.45743,-10.4375 -6.30965,4.78863 5.87982,-12.28044 -11.75017,-7.32457 10.86376,0.99437 -2.95236,-7.39978 9.46984,0.44828 z" id="rect4865" inkscape:connector-curvature="0" sodipodi:nodetypes="ccccccccccccccccccccccccccc" />
    <rect style="fill:#e9c6af;fill-rule:evenodd;stroke-width:0.264583" id="rect4863-5" width="4.6815429" height="14.044627" x="175.94897" y="-211.38284" transform="rotate(5.7611726)" />
    <rect style="fill:#ff6600;fill-rule:evenodd;stroke-width:0.264583" id="rect4844" width="18.0945" height="28.669209" x="68.75415" y="-174.40808" transform="rotate(8.7526112)" />
    <rect style="fill:#2b1100;fill-opacity:1;fill-rule:evenodd;stroke-width:0.264583" id="rect4792-7" width="43.933395" height="10.917386" x="-148.92291" y="-72.294151" transform="rotate(108.49153)" />
    <rect style="fill:#ffccaa;fill-rule:evenodd;stroke-width:0.264583" id="rect4698-1-9" width="5.1620336" height="36.593613" x="38.576233" y="-236.86906" transform="rotate(23.909837)" />
    <rect style="fill:#aa4400;fill-rule:evenodd;stroke-width:0.264583" id="rect4664" width="11.599296" height="19.101717" x="-12.04274" y="192.02139" transform="matrix(0.79838746,0.60214405,0.60214405,-0.79838746,0,0)" />
    <rect style="fill:#ffccaa;fill-opacity:1;fill-rule:evenodd;stroke-width:0.264583" id="rect4734-5" width="6.6453652" height="9.374712" x="4.71315" y="-249.30904" transform="rotate(31.881477)" />
    <rect style="fill:#ffccaa;fill-opacity:1;fill-rule:evenodd;stroke-width:0.264583" id="rect4734-7-4" width="2.6766186" height="4.6129994" x="206.28625" y="-127.23715" transform="rotate(-26.264358)" />
    <rect style="fill:#ffccaa;fill-rule:evenodd;stroke-width:0.264583" id="rect4698-1" width="5.1620336" height="36.593613" x="-181.90912" y="-104.1686" transform="matrix(-0.75737102,0.65298479,0.65298479,0.75737102,0,0)" />
    <path style="fill:#000000;fill-rule:evenodd;stroke-width:0.264583" d="m 115.84828,-189.08919 -5.85525,-1.82608 -7.95861,-1.09165 -5.673219,5.15261 -4.08827,2.9972 4.59132,2.14646 -3.217,11.74742 6.909999,-0.0567 14.42656,-5.76261 9.09412,3.4128 -12.18158,-13.34351 z" id="rect4700" inkscape:connector-curvature="0" sodipodi:nodetypes="cccccccccccc" />
    <rect style="fill:#ffccaa;fill-rule:evenodd;stroke-width:0.264583" id="rect4698" width="5.1620307" height="10.086715" x="-125.43167" y="-163.4435" transform="matrix(-0.99581704,0.09136969,0.09136969,0.99581704,0,0)" />
    <path style="fill:#00ccff;fill-rule:evenodd;stroke-width:0.264583" d="m -8.8915326,-190.23942 14.205817,4.22612 -0.426807,10.62445 2.150227,10.30557 -12.767508,-10.63847 -17.5251954,2.69265 7.339186,-7.68136 z" id="rect818-7-1" inkscape:connector-curvature="0" sodipodi:nodetypes="cccccccc" />
    <path style="fill:#ffe6d5;fill-opacity:1;fill-rule:evenodd;stroke-width:0.264583" d="m 7.9105912,-158.27379 4.0152738,-4.33713 12.782496,11.83391 20.101473,-25.22916 -0.80248,9.72329 -19.404386,23.46273 z" id="rect856-6-3" inkscape:connector-curvature="0" sodipodi:nodetypes="ccccccc" />
    <rect style="fill:#333333;fill-opacity:1;fill-rule:evenodd;stroke-width:0.264583" id="rect4599-5" width="10.623874" height="21.513874" x="109.53559" y="-127.85476" transform="rotate(-41.626595)" />
    <rect style="fill:#0066ff;fill-rule:evenodd;stroke-width:0.264583" id="rect4635" width="9.588294" height="9.588294" x="-13.754975" y="-124.84656" transform="rotate(-20.155218)" />
    <rect style="fill:#ffe6d5;fill-opacity:1;fill-rule:evenodd;stroke-width:0.264583" id="rect856-6" width="5.9104233" height="51.637543" x="-100.78007" y="-129.27664" transform="rotate(29.676864)" />
    <rect style="fill:#000000;fill-rule:evenodd;stroke-width:0.264583" id="rect4601" width="16.158482" height="6.0476193" x="-5.5005436" y="-40.79163" transform="rotate(30.427355)" />
    <rect style="fill:#000000;fill-rule:evenodd;stroke-width:0.264583" id="rect4601-9" width="16.158482" height="6.0476193" x="42.175835" y="-30.909857" transform="rotate(-97.548695)" />
    <path style="fill:#1a1a1a;fill-rule:evenodd;stroke-width:0.264583" d="m -7.4115446,-131.88238 8.27984603,3.2517 -1.045454,53.089918 -31.27065243,25.93141 -8.279846,-3.2517 28.672608,-27.18001 z" id="rect4581-3" inkscape:connector-curvature="0" sodipodi:nodetypes="ccccccc" />
    <rect style="fill:#333333;fill-rule:evenodd;stroke-width:0.264583" id="rect4581" width="8.8954725" height="98.152786" x="21.724159" y="-125.81979" transform="rotate(-16.707876)" />
    <path style="fill:#c83737;fill-rule:evenodd;stroke-width:0.264583" d="m -7.3371716,-195.53834 14.205818,4.22613 -1.388621,10.68403 5.8995736,11.48447 -14.3222686,-9.97345 -23.6564014,1.74241 12.241847,-5.86833 z" id="rect818-74" inkscape:connector-curvature="0" sodipodi:nodetypes="cccccccc" />
    <path style="fill:#00ccff;fill-rule:evenodd;stroke-width:0.264583" d="m -6.5576276,-198.51459 14.205817,4.22613 -0.426808,10.62445 6.9933166,11.15678 -17.8957476,-10.09804 -25.9303774,0.68809 16.029519,-7.06844 z" id="rect818-7" inkscape:connector-curvature="0" sodipodi:nodetypes="cccccccc" />
    <rect style="fill:#ffccaa;fill-rule:evenodd;stroke-width:0.264583" id="rect856" width="5.9104199" height="14.847301" x="-37.296692" y="-180.68518" transform="rotate(9.7984342)" />
    <path style="fill:#c83737;fill-rule:evenodd;stroke-width:0.264583" d="m -5.2203096,-204.31993 14.205818,4.22613 -1.38862,10.68402 7.9551276,11.09721 -18.4123696,-7.72028 -25.4137564,-1.68967 16.03375,-4.30216 z" id="rect818" inkscape:connector-curvature="0" sodipodi:nodetypes="cccccccc" />
    <path style="fill:#ffe6d5;fill-rule:evenodd;stroke-width:0.264583" d="m -4.7298846,-200.0141 0.904533,4.96974 5.739546,-2.72208 1.470518,2.39695 3.868788,-1.94263 -4.371897,19.38952 -6.706095,1.14366 -5.277291,-3.84563 z" id="rect815" inkscape:connector-curvature="0" sodipodi:nodetypes="ccccccccc" />
    <rect style="fill:#c83737;fill-rule:evenodd;stroke-width:0.264583" id="rect858" width="16.437077" height="43.832203" x="-2.8261716" y="-171.46159" transform="rotate(-4.3870135)" />
    <path style="fill:#4d4d4d;fill-rule:evenodd;stroke-width:0.264583" d="m -16.247646,-175.17734 1.120405,32.70234 -12.792721,27.20189 -11.353911,19.969711 23.88543,0.43956 3.276724,-17.780751 5.8494611,-59.24581 z" id="rect860" inkscape:connector-curvature="0" sodipodi:nodetypes="cccccccc" />
    <path style="fill:#333333;fill-rule:evenodd;stroke-width:0.264583" d="m 4.8874774,-175.38885 0.391738,34.60891 6.3360916,30.90798 -1.341392,9.41256 -11.4573966,6.720398 1.93503203,-19.117098 -2.77840603,-59.95451 z" id="rect860-1" inkscape:connector-curvature="0" sodipodi:nodetypes="cccccccc" />
    <rect style="fill:#4d4d4d;fill-opacity:1;fill-rule:evenodd;stroke-width:0.264583" id="rect4599" width="10.623874" height="21.513874" x="-114.38769" y="-133.66579" transform="rotate(35.257042)" />
    <rect style="fill:#80b3ff;fill-rule:evenodd;stroke-width:0.264583" id="rect4633" width="9.008441" height="5.9490271" x="-98.204651" y="-85.150307" transform="rotate(26.58071)" />
    <rect style="fill:#ff2a2a;fill-rule:evenodd;stroke-width:0.264583" id="rect4635-3" width="9.588295" height="9.588295" x="-71.353363" y="163.46252" transform="rotate(173.33215)" />
    <rect style="fill:#ff5555;fill-rule:evenodd;stroke-width:0.264583" id="rect4633-7" width="9.008441" height="5.9490271" x="72.267067" y="154.38907" transform="rotate(-139.93192)" />
    <rect style="fill:#d45500;fill-rule:evenodd;stroke-width:0.264583" id="rect4662" width="17.117723" height="48.569355" x="-110.39468" y="-171.4975" transform="matrix(-0.9993646,-0.03564248,-0.03564248,0.9993646,0,0)" />
    <path style="fill:#ffe6d5;fill-rule:evenodd;stroke-width:0.264583" d="m 110.93773,-187.59567 -0.99309,7.56509 -2.42132,-5.21731 -7.40556,5.09213 -2.466399,-4.19282 3.784929,15.48717 13.28638,-3.24708 z" id="rect4696" inkscape:connector-curvature="0" sodipodi:nodetypes="cccccccc" />
    <rect style="fill:#d45500;fill-opacity:1;fill-rule:evenodd;stroke-width:0.264583" id="rect4664-5" width="11.599296" height="19.101715" x="-194.82845" y="-24.097878" transform="matrix(-0.56398408,0.82578566,0.82578566,0.56398408,0,0)" />
    <rect style="fill:#ffe6d5;fill-opacity:1;fill-rule:evenodd;stroke-width:0.264583" id="rect4734" width="6.6453652" height="9.374712" x="-195.31683" y="-85.163307" transform="matrix(-0.65949452,0.75170937,0.75170937,0.65949452,0,0)" />
    <rect style="fill:#ffe6d5;fill-opacity:1;fill-rule:evenodd;stroke-width:0.264583" id="rect4734-7" width="2.6766186" height="4.6129994" x="-38.705799" y="-210.51208" transform="matrix(-0.98655169,-0.16344955,-0.16344955,0.98655169,0,0)" />
    <rect style="fill:#552200;fill-rule:evenodd;stroke-width:0.264583" id="rect4790" width="18.244263" height="9.5846786" x="105.24525" y="-119.83353" transform="rotate(-3.8565557)" />
    <rect style="fill:#552200;fill-opacity:1;fill-rule:evenodd;stroke-width:0.264583" id="rect4792" width="43.933399" height="10.917386" x="-40.791637" y="-157.77586" transform="rotate(55.336572)" />
    <rect style="fill:#2b1100;fill-opacity:1;fill-rule:evenodd;stroke-width:0.264583" id="rect4792-2-9" width="43.933392" height="10.917386" x="73.316299" y="39.100086" transform="rotate(-60.060354)" />
    <rect style="fill:#552200;fill-opacity:1;fill-rule:evenodd;stroke-width:0.264583" id="rect4792-2" width="43.933395" height="10.917386" x="-59.668083" y="-146.09181" transform="rotate(78.693858)" />
    <rect style="fill:#d45500;fill-rule:evenodd;stroke-width:0.264583" id="rect4827" width="16.971615" height="7.6171813" x="138.98932" y="6.4614043" transform="rotate(-20.828556)" />
    <rect style="fill:#d45500;fill-rule:evenodd;stroke-width:0.264583" id="rect4827-8" width="16.971615" height="7.6171813" x="5.9292336" y="-87.568481" transform="rotate(55.20659)" />
    <rect style="fill:#ff6600;fill-opacity:1;fill-rule:evenodd;stroke-width:0.264583" id="rect4846" width="3.7797618" height="30.238094" x="62.349106" y="-187.79832" transform="rotate(13.140682)" />
    <rect style="fill:#ff6600;fill-opacity:1;fill-rule:evenodd;stroke-width:0.264583" id="rect4846-8" width="3.7797618" height="30.238094" x="-132.91698" y="-153.45132" transform="matrix(-0.99285323,0.1193418,0.1193418,0.99285323,0,0)" />
    <path style="fill:#f4e3d7;fill-rule:evenodd;stroke-width:0.264583" d="m 197.16177,-213.99255 0.66615,10.42047 7.37931,-9.60875 -0.76014,13.9223 -1.67502,10.21407 -8.04546,-0.81173 0.19756,-13.1187 z" id="rect4863" inkscape:connector-curvature="0" sodipodi:nodetypes="cccccccc" />
    <path style="fill:#447821;fill-rule:evenodd;stroke-width:0.264583" d="m 187.4123,-181.54251 8.00698,-1.58573 4.62992,0.53014 6.09571,2.66493 -1.50848,52.72949 -0.28173,4.6323 1.30736,6.50689 -23.94172,-0.3233 0.58768,-6.56753 0.85864,-3.49679 z" id="rect4882" inkscape:connector-curvature="0" sodipodi:nodetypes="ccccccccccc" />
    <rect style="fill:#447821;fill-opacity:1;fill-rule:evenodd;stroke-width:0.264583" id="rect4885" width="7.8725123" height="5.3768158" x="181.87476" y="-196.83449" transform="rotate(3.5198254)" />
    <rect style="fill:#502d16;fill-rule:evenodd;stroke-width:0.264583" id="rect4999" width="47.697536" height="4.3239441" x="201.67969" y="108.29345" transform="rotate(-65.41969)" />
    <rect style="fill:#f4e3d7;fill-opacity:1;fill-rule:evenodd;stroke-width:0.264583" id="rect4928" width="3.0067821" height="9.6551113" x="209.58559" y="-53.411041" transform="rotate(-17.624033)" />
    <rect style="fill:#000000;fill-opacity:1;fill-rule:evenodd;stroke-width:0.264583" id="rect4930" width="3.7955365" height="7.5394187" x="120.52015" y="-184.50154" transform="rotate(26.326663)" />
    <rect style="fill:#1a1a1a;fill-rule:evenodd;stroke-width:0.264583" id="rect4982" width="17.148628" height="7.7763348" x="129.3709" y="-138.58302" transform="rotate(34.851106)" />
    <rect style="fill:#1a1a1a;fill-rule:evenodd;stroke-width:0.264583" id="rect4982-8" width="17.148628" height="7.7763348" x="139.97636" y="-147.84326" transform="rotate(34.851107)" />
    <rect style="fill:#784421;fill-rule:evenodd;stroke-width:0.264583" id="rect5016" width="6.5508623" height="7.6528769" x="199.33711" y="-178.51857" />
    <path sodipodi:type="star" style="fill:#a05a2c;fill-opacity:1;fill-rule:evenodd;stroke-width:0.320412" id="path5018" sodipodi:sides="3" sodipodi:cx="251.95654" sodipodi:cy="121.43551" sodipodi:r1="3.6961548" sodipodi:r2="1.8480774" sodipodi:arg1="1.5707963" sodipodi:arg2="2.6179939" inkscape:flatsided="true" inkscape:rounded="0" inkscape:randomized="0" d="m 251.95654,125.13166 -3.20096,-5.54423 6.40193,0 z" inkscape:transform-center-x="-1.5569261e-06" inkscape:transform-center-y="0.61575651" transform="matrix(1.0232659,0,0,0.66637537,-55.205988,-258.20867)" />
    <rect style="fill:#784421;fill-rule:evenodd;stroke-width:0.264583" id="rect5016-3" width="6.5508623" height="7.6528769" x="194.78612" y="-169.21169" />
    <path sodipodi:type="star" style="fill:#a05a2c;fill-opacity:1;fill-rule:evenodd;stroke-width:0.320412" id="path5018-7" sodipodi:sides="3" sodipodi:cx="251.95654" sodipodi:cy="121.43551" sodipodi:r1="3.6961548" sodipodi:r2="1.8480774" sodipodi:arg1="1.5707963" sodipodi:arg2="2.6179939" inkscape:flatsided="true" inkscape:rounded="0" inkscape:randomized="0" d="m 251.95654,125.13166 -3.20096,-5.54423 6.40193,0 z" inkscape:transform-center-x="-1.7908515e-06" inkscape:transform-center-y="0.61575565" transform="matrix(1.0232659,0,0,0.66637535,-59.756985,-248.90179)" />
    <rect style="fill:#784421;fill-rule:evenodd;stroke-width:0.264583" id="rect5016-3-1" width="6.5508623" height="7.6528769" x="189.80667" y="-157.60963" />
    <path sodipodi:type="star" style="fill:#a05a2c;fill-opacity:1;fill-rule:evenodd;stroke-width:0.320412" id="path5018-7-8" sodipodi:sides="3" sodipodi:cx="251.95654" sodipodi:cy="121.43551" sodipodi:r1="3.6961548" sodipodi:r2="1.8480774" sodipodi:arg1="1.5707963" sodipodi:arg2="2.6179939" inkscape:flatsided="true" inkscape:rounded="0" inkscape:randomized="0" d="m 251.95654,125.13166 -3.20096,-5.54423 6.40193,0 z" inkscape:transform-center-x="-1.4249936e-06" inkscape:transform-center-y="0.61575566" transform="matrix(1.0232659,0,0,0.66637535,-64.736436,-237.29974)" />
    <path style="fill:#502d16;fill-rule:evenodd;stroke-width:0.264583" d="m 185.90737,-133.37193 19.723,10.23359 -0.11089,5.34609 -22.65232,-10.42257 z" id="rect4999-3-3" inkscape:connector-curvature="0" sodipodi:nodetypes="ccccc" />
    <path style="fill:#502d16;fill-rule:evenodd;stroke-width:0.264583" d="m 185.41236,-143.51376 19.723,10.23359 -0.11089,5.3461 -22.65232,-10.42258 z" id="rect4999-3" inkscape:connector-curvature="0" sodipodi:nodetypes="ccccc" />
    <rect style="fill:#784421;fill-rule:evenodd;stroke-width:0.264583" id="rect5016-3-1-6-4" width="11.803192" height="6.8610268" x="124.19951" y="-192.85185" transform="rotate(21.866536)" />
    <path style="fill:#438418;fill-opacity:1;fill-rule:evenodd;stroke-width:0.264583" d="m 187.41231,-181.54251 5.99399,-1.23592 -5.58546,36.48406 0.50817,33.6053 -6.74437,6.1342 -2.46685,-43.00437 z" id="rect4891" inkscape:connector-curvature="0" sodipodi:nodetypes="ccccccc" />
    <path sodipodi:type="star" style="fill:#a05a2c;fill-opacity:1;fill-rule:evenodd;stroke-width:0.252102" id="path5018-7-8-8-8" sodipodi:sides="3" sodipodi:cx="251.95654" sodipodi:cy="121.43551" sodipodi:r1="3.6961548" sodipodi:r2="1.8480774" sodipodi:arg1="1.5707963" sodipodi:arg2="2.6179939" inkscape:flatsided="true" inkscape:rounded="0" inkscape:randomized="0" d="m 251.95654,125.13166 -3.20096,-5.54423 6.40193,0 z" inkscape:transform-center-x="-0.4112257" inkscape:transform-center-y="-0.58668765" transform="matrix(1.71105,0.68667709,-0.22250841,0.55444255,-211.93331,-369.83845)" />
    <rect style="fill:#784421;fill-rule:evenodd;stroke-width:0.264583" id="rect5016-3-1-6" width="11.803192" height="6.8610272" x="129.9518" y="-201.40858" transform="rotate(21.866536)" />
    <path sodipodi:type="star" style="fill:#a05a2c;fill-opacity:1;fill-rule:evenodd;stroke-width:0.252102" id="path5018-7-8-8" sodipodi:sides="3" sodipodi:cx="251.95654" sodipodi:cy="121.43551" sodipodi:r1="3.6961548" sodipodi:r2="1.8480774" sodipodi:arg1="1.5707963" sodipodi:arg2="2.6179939" inkscape:flatsided="true" inkscape:rounded="0" inkscape:randomized="0" d="m 251.95654,125.13166 -3.20096,-5.54423 6.40193,0 z" inkscape:transform-center-x="-0.4112257" inkscape:transform-center-y="-0.58668765" transform="matrix(1.71105,0.68667709,-0.22250841,0.55444255,-203.40798,-375.63714)" />
    <path transform="rotate(6.3530489)" style="fill:#ffb380;fill-rule:evenodd;stroke-width:0.264583" d="m 343.38574,55.967413 2.27976,0.113064 1.63746,-6.603953 9.15755,3.10961 10.04306,-3.10961 -0.3677,4.889223 1.64243,-0.190916 v 22.005202 h -23.30876 z" id="rect5158" inkscape:connector-curvature="0" sodipodi:nodetypes="cccccccccc" />
    <path transform="rotate(3.4951573)" style="fill:#7137c8;fill-rule:evenodd;stroke-width:0.264583" d="m 332.12323,98.448891 h 38.60082 l -2.6303,67.975519 -28.6146,-0.79928 z" id="rect897" inkscape:connector-curvature="0" sodipodi:nodetypes="ccccc" />
    <rect style="fill:#5d536c;fill-rule:evenodd;stroke-width:0.264583" id="rect900" width="15.119047" height="78.808037" x="328.75052" y="186.01312" />
    <rect style="fill:#5d536c;fill-rule:evenodd;stroke-width:0.264583" id="rect900-8" width="15.119047" height="78.808037" x="343.86957" y="186.01312" />
  </g>
</svg>
