<?xml version="1.0" encoding="UTF-8" standalone="no"?>
<!-- Created with Inkscape (http://www.inkscape.org/) -->

<svg width="1034.2745mm" height="535.3891mm" viewBox="0 0 1034.2745 535.3891" version="1.1" id="svg8" inkscape:version="1.3 (0e150ed6c4, 2023-07-21)" sodipodi:docname="rp logo.svg" xmlns:inkscape="http://www.inkscape.org/namespaces/inkscape" xmlns:sodipodi="http://sodipodi.sourceforge.net/DTD/sodipodi-0.dtd" xmlns="http://www.w3.org/2000/svg" xmlns:svg="http://www.w3.org/2000/svg" xmlns:rdf="http://www.w3.org/1999/02/22-rdf-syntax-ns#" xmlns:cc="http://creativecommons.org/ns#" xmlns:dc="http://purl.org/dc/elements/1.1/">
  <defs id="defs2" />
  <sodipodi:namedview id="base" pagecolor="#ffffff" bordercolor="#666666" borderopacity="1.0" inkscape:pageopacity="0.0" inkscape:pageshadow="2" inkscape:zoom="0.175" inkscape:cx="2045.7143" inkscape:cy="1011.4286" inkscape:document-units="mm" inkscape:current-layer="layer1" showgrid="false" showguides="false" inkscape:window-width="2467" inkscape:window-height="1413" inkscape:window-x="84" inkscape:window-y="-9" inkscape:window-maximized="1" inkscape:showpageshadow="2" inkscape:pagecheckerboard="0" inkscape:deskcolor="#d1d1d1" />
  <metadata id="metadata5">
    <rdf:RDF>
      <cc:Work rdf:about="">
        <dc:format>image/svg+xml</dc:format>
        <dc:type rdf:resource="http://purl.org/dc/dcmitype/StillImage" />
        <dc:title />
      </cc:Work>
    </rdf:RDF>
  </metadata>
  <g inkscape:label="Layer 1" inkscape:groupmode="layer" id="layer1" transform="translate(597.63501,72.770378)">
    <rect style="fill:#ff7f2a;fill-rule:evenodd;stroke-width:0.264583" id="rect1386-3" width="1273.8452" height="659.40222" x="-717.42041" y="-162.57294" />
    <rect style="fill:#ffffff;fill-rule:evenodd;stroke-width:0.264583" id="rect1386" width="1034.2745" height="535.3891" x="-597.63501" y="-72.770378" inkscape:export-xdpi="96" inkscape:export-ydpi="96" />
    <path style="fill:#0044aa;fill-rule:evenodd;stroke-width:0.264583" d="m 118.40069,48.512801 c 16.75234,4.2e-5 36.50824,9.520475 43.83195,24.587128 13.90414,28.604221 -14.69988,94.274351 -14.69988,94.274351 H 89.268093 c 0,0 -28.60409,-65.67017 -14.69987,-94.274351 7.32381,-15.066772 27.079977,-24.587171 43.832467,-24.587128 z" id="rect815" inkscape:connector-curvature="0" sodipodi:nodetypes="ssccss" />
    <rect style="fill:#0044aa;fill-opacity:1;fill-rule:evenodd;stroke-width:0.264583" id="rect869" width="55.591869" height="40.624954" x="-177.73402" y="126.74931" rx="20.312477" ry="20.312477" transform="scale(-1,1)" />
    <path style="fill:#0044aa;fill-opacity:1;fill-rule:evenodd;stroke-width:0.264583" d="m 255.50972,179.13413 c -22.15126,62.11143 -108.50697,52.65184 -106.82763,-24.02751 l -26.53993,12.26765 v 42.49585 c 22.80808,35.68803 51.10463,45.76404 93.5444,40.62498 23.56428,-2.85342 40.35441,-29.7718 39.82316,-71.36097 z" id="rect916" inkscape:connector-curvature="0" sodipodi:nodetypes="ccccsc" />
    <path style="fill:#0044aa;fill-opacity:1;fill-rule:evenodd;stroke-width:0.264583" d="m -18.708867,179.13413 c 22.1512504,62.11143 108.50697,52.65184 106.82763,-24.02751 l 26.539937,12.26765 v 42.49585 c -22.808087,35.68803 -51.104637,45.76404 -93.544407,40.62498 -23.5642796,-2.85342 -40.35441,-29.7718 -39.82316,-71.36097 z" id="rect916-2" inkscape:connector-curvature="0" sodipodi:nodetypes="ccccsc" />
    <rect style="fill:#0044aa;fill-opacity:1;fill-rule:evenodd;stroke-width:0.264583" id="rect869-7" width="55.591869" height="40.624954" x="-114.6587" y="126.74932" rx="20.312477" ry="20.312477" transform="scale(-1,1)" />
    <path style="fill:#0066ff;fill-opacity:1;fill-rule:evenodd;stroke-width:0.264583" d="m -18.708862,179.13412 c 11.3971774,47.47075 36.412002,62.98347 61.848587,62.98347 26.654499,0 38.822509,-10.98128 51.896099,-25.05531 12.119536,-13.04696 19.622876,-49.68802 19.622876,-49.68802 v 42.49586 c -22.808085,35.68802 -51.104634,45.76403 -93.544407,40.62497 -23.5642786,-2.85342 -40.354405,-29.7718 -39.823155,-71.36097 z" id="rect916-2-2" inkscape:connector-curvature="0" sodipodi:nodetypes="csaccsc" />
    <path style="fill:#0044aa;fill-opacity:1;fill-rule:evenodd;stroke-width:0.264583" d="m 13.933413,256.66793 c 21.1759,30.04624 47.1468,40.61294 65.49382,30.44183 33.043437,-18.31834 48.076747,-40.19762 45.905937,-77.56599 l -3.22647,-4.45603 -32.016457,2.72998 c 12.034157,43.78446 -35.26974,76.91409 -76.15683,48.85021 z" id="rect916-8-0" inkscape:connector-curvature="0" />
    <path style="fill:#0066ff;fill-opacity:1;fill-rule:evenodd;stroke-width:0.264583" d="m 255.50973,179.13412 c -11.39718,47.47075 -36.41201,62.98347 -61.84859,62.98347 -26.6545,0 -38.82252,-10.98128 -51.89611,-25.05531 -12.11953,-13.04696 -19.62287,-49.68802 -19.62287,-49.68802 v 42.49586 c 22.80808,35.68802 51.10463,45.76403 93.54441,40.62497 23.56428,-2.85342 40.35441,-29.7718 39.82316,-71.36097 z" id="rect916-2-2-4" inkscape:connector-curvature="0" sodipodi:nodetypes="csaccsc" />
    <path style="fill:#0044aa;fill-opacity:1;fill-rule:evenodd;stroke-width:0.264583" d="m 222.86744,256.66793 c -21.17591,30.04624 -47.1468,40.61294 -65.49383,30.44183 -33.04343,-18.31834 -48.07674,-40.19762 -45.90593,-77.56599 l 3.22648,-4.45603 32.01645,2.72998 c -12.03416,43.78446 35.26974,76.91409 76.15683,48.85021 z" id="rect916-8" inkscape:connector-curvature="0" />
    <path style="fill:#0066ff;fill-opacity:1;fill-rule:evenodd;stroke-width:0.264583" d="m 116.8261,247.68875 c -7.02663,13.88111 -17.8632,25.94799 -30.857549,31.10715 -23.346383,9.26923 -48.866455,0.96499 -72.035396,-22.12785 21.1759,30.04625 47.147172,40.61267 65.494193,30.44156 18.732147,-10.3846 31.669972,-21.91705 38.972812,-36.76365 7.30283,14.84671 20.2411,26.37902 38.97333,36.76365 18.34702,10.17111 44.3183,-0.39531 65.4942,-30.44156 -23.16894,23.09284 -48.68902,31.39708 -72.0354,22.12785 -12.99435,-5.15916 -23.83092,-17.22604 -30.85755,-31.10715 h -0.33899 -2.47065 z" id="rect916-8-0-5" inkscape:connector-curvature="0" />
    <rect style="fill:#0044aa;fill-opacity:1;fill-rule:evenodd;stroke-width:0.264583" id="rect1016" width="59.560333" height="50.97699" x="-148.18059" y="156.84071" transform="scale(-1,1)" />
    <path sodipodi:type="star" style="fill:#0066ff;fill-opacity:1;fill-rule:evenodd;stroke-width:1.3308" id="path1380" sodipodi:sides="3" sodipodi:cx="113.68229" sodipodi:cy="241.47981" sodipodi:r1="12.417888" sodipodi:r2="6.2089438" sodipodi:arg1="-1.5707963" sodipodi:arg2="-0.52359878" inkscape:flatsided="true" inkscape:rounded="0" inkscape:randomized="0" d="m 113.68229,229.06192 10.75421,18.62684 -21.50842,0 z" inkscape:transform-center-y="-0.83825344" transform="matrix(0.14639131,0,0,0.27001322,101.75832,180.80951)" />
    <text xml:space="preserve" style="font-style:normal;font-variant:normal;font-weight:normal;font-stretch:normal;font-size:251.341px;line-height:1.25;font-family:Yandex-UI-Icons-Private;-inkscape-font-specification:Yandex-UI-Icons-Private;letter-spacing:0px;word-spacing:0px;fill:#0044aa;fill-opacity:1;stroke:none;stroke-width:0.264583" x="-394.01047" y="247.10478" id="text1384"><tspan sodipodi:role="line" id="tspan1382" x="-394.01047" y="247.10478" style="font-style:normal;font-variant:normal;font-weight:normal;font-stretch:normal;font-family:'Times New Roman';-inkscape-font-specification:'Times New Roman, ';fill:#0044aa;fill-opacity:1;stroke-width:0.264583">JOJ</tspan></text>
    <text xml:space="preserve" style="font-style:normal;font-variant:normal;font-weight:normal;font-stretch:normal;font-size:10.5833px;line-height:1.25;font-family:Yandex-UI-Icons-Private;-inkscape-font-specification:Yandex-UI-Icons-Private;letter-spacing:0px;word-spacing:0px;fill:#0066ff;fill-opacity:1;stroke:none;stroke-width:0.264583" x="-417.28574" y="370.32736" id="text1420" />
    <text xml:space="preserve" style="font-style:normal;font-variant:normal;font-weight:normal;font-stretch:normal;font-size:40.2978px;line-height:1.25;font-family:Yandex-UI-Icons-Private;-inkscape-font-specification:Yandex-UI-Icons-Private;letter-spacing:0px;word-spacing:0px;fill:#000000;fill-opacity:1;stroke:none;stroke-width:0.264583" x="-396.62637" y="387.44479" id="text1384-8" transform="scale(1.0524894,0.95012834)"><tspan sodipodi:role="line" id="tspan1382-5" x="-396.62637" y="387.44479" style="font-style:normal;font-variant:normal;font-weight:normal;font-stretch:normal;font-family:'Times New Roman';-inkscape-font-specification:'Times New Roman, ';fill:#000000;fill-opacity:1;stroke-width:0.264583">JOJO's Bizzare Role Play Sapphire Rain</tspan></text>
    <text xml:space="preserve" style="font-style:normal;font-variant:normal;font-weight:normal;font-stretch:normal;font-size:24.1544px;line-height:1.25;font-family:Yandex-UI-Icons-Private;-inkscape-font-specification:Yandex-UI-Icons-Private;letter-spacing:0px;word-spacing:0px;fill:#0044aa;fill-opacity:1;stroke:none;stroke-width:0.264583" x="-349.30585" y="399.42828" id="text1442"><tspan sodipodi:role="line" id="tspan1440" x="-349.30585" y="399.42828" style="fill:#0044aa;fill-opacity:1;stroke-width:0.264583">ジョジョの奇妙なロールプレイ サファイアの雨</tspan></text>
  </g>
</svg>
