<?xml version="1.0" encoding="UTF-8" standalone="no"?>
<!-- Created with Inkscape (http://www.inkscape.org/) -->

<svg width="1066.7544mm" height="579.72162mm" viewBox="0 0 1066.7544 579.72162" version="1.1" id="svg8" inkscape:version="1.3 (0e150ed6c4, 2023-07-21)" sodipodi:docname="голуб.svg" xmlns:inkscape="http://www.inkscape.org/namespaces/inkscape" xmlns:sodipodi="http://sodipodi.sourceforge.net/DTD/sodipodi-0.dtd" xmlns="http://www.w3.org/2000/svg" xmlns:svg="http://www.w3.org/2000/svg" xmlns:rdf="http://www.w3.org/1999/02/22-rdf-syntax-ns#" xmlns:cc="http://creativecommons.org/ns#" xmlns:dc="http://purl.org/dc/elements/1.1/">
  <defs id="defs2" />
  <sodipodi:namedview id="base" pagecolor="#ffffff" bordercolor="#666666" borderopacity="1.0" inkscape:pageopacity="0.0" inkscape:pageshadow="2" inkscape:zoom="0.12374369" inkscape:cx="1769.7872" inkscape:cy="1187.9394" inkscape:document-units="mm" inkscape:current-layer="layer2" showgrid="false" showguides="false" inkscape:window-width="2467" inkscape:window-height="1413" inkscape:window-x="84" inkscape:window-y="-9" inkscape:window-maximized="1" inkscape:showpageshadow="2" inkscape:pagecheckerboard="0" inkscape:deskcolor="#d1d1d1" />
  <metadata id="metadata5">
    <rdf:RDF>
      <cc:Work rdf:about="">
        <dc:format>image/svg+xml</dc:format>
        <dc:type rdf:resource="http://purl.org/dc/dcmitype/StillImage" />
        <dc:title />
      </cc:Work>
    </rdf:RDF>
  </metadata>
  <g inkscape:label="Layer 1" inkscape:groupmode="layer" id="layer1" sodipodi:insensitive="true" transform="translate(479.69194,59.710403)">
    <rect style="fill:#0000ff;fill-rule:evenodd;stroke-width:0.264583" id="rect815" width="590.02081" height="328.4613" x="-162.52975" y="30.90476" />
  </g>
  <g inkscape:groupmode="layer" id="layer2" inkscape:label="Layer 2" transform="translate(479.69194,59.710403)">
    <path style="fill:#1a1a1a;fill-rule:evenodd;stroke-width:0.264583" d="m -479.69194,404.39037 32.92691,-60.41853 255.50755,-222.20611 36.16285,7.21499 8.23185,34.51345 -22.433,40.00067 -261.60937,263.02082 -43.13351,-9.91913 z" id="rect1208-8-0" inkscape:connector-curvature="0" sodipodi:nodetypes="ccccccccc" inkscape:export-filename="D:\Спайд\Артеги\Ассеты для анимации\отсаду оф ор димешосу.png" inkscape:export-xdpi="96" inkscape:export-ydpi="96" />
    <path style="fill:#1a1a1a;fill-rule:evenodd;stroke-width:0.264583" d="m -446.18812,412.15223 32.92696,-60.41851 255.50755,-222.20612 36.16279,7.21497 8.23185,34.51347 -22.43295,40.00068 -261.60942,263.02077 -43.13346,-9.91909 z" id="rect1208-1" inkscape:connector-curvature="0" sodipodi:nodetypes="ccccccccc" inkscape:export-filename="D:\Спайд\Артеги\Ассеты для анимации\отсаду оф ор димешосу.png" inkscape:export-xdpi="96" inkscape:export-ydpi="96" />
    <path style="fill:#4d4d4d;fill-rule:evenodd;stroke-width:0.264583" d="m -422.17456,417.64374 32.92702,-60.41853 255.50755,-222.20611 36.16279,7.21498 8.231893,34.51347 -22.432983,40.00067 -261.60944,263.02082 -43.13351,-9.91914 z" id="rect1208-3-4" inkscape:connector-curvature="0" sodipodi:nodetypes="ccccccccc" inkscape:export-filename="D:\Спайд\Артеги\Ассеты для анимации\отсаду оф ор димешосу.png" inkscape:export-xdpi="96" inkscape:export-ydpi="96" />
    <path style="fill:#338000;fill-opacity:1;fill-rule:evenodd;stroke-width:0.264583" d="m -374.89406,339.5503 176.70008,25.33706 -64.29693,61.17016 -47.7383,-4.42471 z" id="rect1262" inkscape:connector-curvature="0" sodipodi:nodetypes="ccccc" inkscape:export-filename="D:\Спайд\Артеги\Ассеты для анимации\отсаду оф ор димешосу.png" inkscape:export-xdpi="96" inkscape:export-ydpi="96" />
    <path style="fill:#1a1a1a;fill-rule:evenodd;stroke-width:0.264583" d="m -279.45403,444.63257 32.9269,-60.41853 255.5075989,-222.20609 36.1628301,7.21498 8.231862,34.51346 -22.432968,40.00067 -261.609443,263.0208 -43.13345,-9.91912 z" id="rect1208-8" inkscape:connector-curvature="0" sodipodi:nodetypes="ccccccccc" inkscape:export-filename="D:\Спайд\Артеги\Ассеты для анимации\отсаду оф ор димешосу.png" inkscape:export-xdpi="96" inkscape:export-ydpi="96" />
    <path style="fill:#1a1a1a;fill-rule:evenodd;stroke-width:0.264583" d="m -245.95016,452.39444 32.92691,-60.41852 255.507573,-222.20611 36.162821,7.21498 8.23186,34.51347 -22.43297,40.00067 -261.609414,263.02079 -43.13351,-9.91913 z" id="rect1208" inkscape:connector-curvature="0" sodipodi:nodetypes="ccccccccc" inkscape:export-filename="D:\Спайд\Артеги\Ассеты для анимации\отсаду оф ор димешосу.png" inkscape:export-xdpi="96" inkscape:export-ydpi="96" />
    <path style="fill:#4d4d4d;fill-rule:evenodd;stroke-width:0.264583" d="m -221.9366,457.88595 32.92695,-60.41854 255.507594,-222.2061 36.162826,7.21499 8.23187,34.51346 -22.432976,40.00068 -261.609484,263.0208 -43.13346,-9.91911 z" id="rect1208-3" inkscape:connector-curvature="0" sodipodi:nodetypes="ccccccccc" inkscape:export-filename="D:\Спайд\Артеги\Ассеты для анимации\отсаду оф ор димешосу.png" inkscape:export-xdpi="96" inkscape:export-ydpi="96" />
    <path style="fill:#338000;fill-rule:evenodd;stroke-width:0.264583" d="M 66.497944,175.26131 -28.217269,162.74788 -234.8824,367.2255 l 87.46528,24.79076 z" id="rect1139-0" inkscape:connector-curvature="0" sodipodi:nodetypes="ccccc" inkscape:export-filename="D:\Спайд\Артеги\Ассеты для анимации\отсаду оф ор димешосу.png" inkscape:export-xdpi="96" inkscape:export-ydpi="96" />
    <path style="fill:#338000;fill-rule:evenodd;stroke-width:0.264583" d="m -245.08551,126.79888 88.67058,18.63838 -198.32952,205.89358 -104.25616,-7.77702 z" id="rect1139" inkscape:connector-curvature="0" sodipodi:nodetypes="ccccc" inkscape:export-filename="D:\Спайд\Артеги\Ассеты для анимации\отсаду оф ор димешосу.png" inkscape:export-xdpi="96" inkscape:export-ydpi="96" />
    <path style="fill:#112b00;fill-rule:evenodd;stroke-width:0.264583" d="m 377.44589,-728.569 -249.08372,81.83713 64.52158,59.25398 249.08372,-81.83713 z" id="rect976-8" inkscape:connector-curvature="0" sodipodi:nodetypes="ccccc" />
    <rect style="fill:#483e37;fill-rule:evenodd;stroke-width:0.264588" id="rect1009" width="265.2724" height="120.45956" x="151.8877" y="-494.93225" rx="19.654057" ry="19.654165" transform="matrix(0.94873342,-0.31607736,0.30835203,0.95127232,0,0)" />
    <rect style="fill:#666666;fill-rule:evenodd;stroke-width:0.275514" id="rect1009-5" width="227.39854" height="127.70947" x="408.6449" y="-334.32159" rx="40.612988" ry="40.612988" transform="matrix(0.75545652,-0.65519878,0.31213725,0.95003702,0,0)" />
    <path style="fill:#008000;fill-rule:evenodd;stroke-width:0.264583" d="M 128.36219,-646.73187 377.44589,-728.569 246.26191,-617.4034 -2.8217851,-535.56626 Z" id="rect976-2" inkscape:connector-curvature="0" sodipodi:nodetypes="ccccc" />
    <rect style="fill:#808080;fill-rule:evenodd;stroke-width:0.275514" id="rect1009-5-7" width="172.33937" height="96.787643" x="436.1745" y="-318.86069" rx="17.115007" ry="19.654762" transform="matrix(0.75545653,-0.65519877,0.31213725,0.95003702,0,0)" />
    <path style="fill:#005500;fill-rule:evenodd;stroke-width:0.264583" d="m -2.8217851,-535.56626 249.0837051,-81.83714 -16.80637,85.97449 -249.083685,81.83713 z" id="rect976" inkscape:connector-curvature="0" sodipodi:nodetypes="ccccc" />
    <path style="fill:#225500;fill-rule:evenodd;stroke-width:0.264583" d="m 58.422865,-687.96805 113.440165,-18.87869 34.06196,85.42794 -113.440165,18.87869 z" id="rect1081" inkscape:connector-curvature="0" sodipodi:nodetypes="ccccc" />
    <path style="fill:#008000;fill-opacity:1;fill-rule:evenodd;stroke-width:0.264583" d="m 288.99193,-673.36254 -83.06694,51.94374 -34.06196,-85.42794 83.06692,-51.94375 z" id="rect1081-6" inkscape:connector-curvature="0" sodipodi:nodetypes="ccccc" />
    <path style="fill:#008000;fill-opacity:1;fill-rule:evenodd;stroke-width:0.264583" d="m 141.48977,-739.9118 113.44018,-18.87869 -83.06692,51.94375 -113.440165,18.87869 z" id="rect1081-3" inkscape:connector-curvature="0" sodipodi:nodetypes="ccccc" />
    <path style="fill:#338000;fill-rule:evenodd;stroke-width:0.264583" d="m -130.84523,-669.81915 256.73044,1.45904 16.73141,43.68907 -272.57563,4.8331 z" id="rect1114" inkscape:connector-curvature="0" sodipodi:nodetypes="ccccc" />
    <rect style="fill:#338000;fill-opacity:1;fill-rule:evenodd;stroke-width:0.264583" id="rect1117" width="84.991699" height="62.080135" x="-144.78433" y="-680.61023" transform="rotate(-2.3985374)" />
    <g id="g1439" transform="matrix(1.5512842,0,0,1.5512842,-295.82507,-152.0223)" style="stroke-width:0.644627" inkscape:export-filename="D:\Спайд\Артеги\Ассеты для анимации\дурачок.png" inkscape:export-xdpi="96" inkscape:export-ydpi="96">
      <rect transform="rotate(-147.78912)" y="-78.740921" x="-495.54086" height="11.893495" width="52.117554" id="rect919-20" style="fill:#1c2224;fill-opacity:1;fill-rule:evenodd;stroke-width:0.170558" />
      <path sodipodi:nodetypes="cccccc" inkscape:connector-curvature="0" id="rect1036-4-3-1-3-99-0-7-3-7" d="m 422.18083,279.32569 10.94052,46.58865 -53.70262,8.05421 -15.21326,-11.94114 30.17816,-17.99433 z" style="fill:#1c2224;fill-opacity:1;fill-rule:evenodd;stroke-width:0.170558" />
      <path sodipodi:nodetypes="ccccc" inkscape:connector-curvature="0" id="rect919-2-5" d="m 339.08593,304.80474 -17.36047,-4.18611 -34.25946,-9.70911 52.07876,2.01057 z" style="fill:#1c2224;fill-opacity:1;fill-rule:evenodd;stroke-width:0.170558" />
      <path sodipodi:nodetypes="ccccc" inkscape:connector-curvature="0" id="rect919-2-6-6" d="m 344.82794,308.88357 -17.788,1.58002 -35.56586,1.74583 49.99145,-14.73415 z" style="fill:#1c2224;fill-opacity:1;fill-rule:evenodd;stroke-width:0.170558" />
      <rect transform="rotate(78.322699)" y="-329.9675" x="404.29874" height="11.893495" width="52.117554" id="rect919" style="fill:#ff5555;fill-rule:evenodd;stroke-width:0.170558" />
      <path inkscape:connector-curvature="0" id="rect1080-8-4-3-9-1-9-2-0-5" d="m 568.42628,314.83684 -56.41096,-53.1153 -65.50675,2.6795 2.69292,29.95688 24.03078,1.43026 4.018,9.45902 14.42713,33.96346 3.39006,-0.43259 0.0454,0.0435 12.70371,42.87091 16.27949,-1.71434 16.26751,28.74738 1.76499,-25.31503 18.22382,9.12265 8.7809,-53.69868 -7.54284,-11.77383 5.90019,2.37758 z" style="fill:#1c2224;fill-rule:evenodd;stroke-width:0.170558" />
      <path sodipodi:nodetypes="cccccc" inkscape:connector-curvature="0" id="rect1036-3-5-6-3-3-8-7-0-2" d="m 426.71056,280.4746 1.05607,37.93475 -21.18725,-4.72679 -9.9093,-11.7052 4.50272,-6.7518 z" style="fill:#666666;fill-opacity:1;fill-rule:evenodd;stroke-width:0.170558" />
      <path sodipodi:nodetypes="cccccc" inkscape:connector-curvature="0" id="rect854-1-6-2-9-2-4-3-3" d="m 493.84902,196.00675 40.68062,9.34651 27.55694,27.30268 -32.12179,-5.19978 -40.33869,-18.11711 z" style="fill:#6f8a91;fill-rule:evenodd;stroke-width:0.170558" />
      <path sodipodi:nodetypes="cccccccccc" inkscape:connector-curvature="0" id="rect851-7-0-2-4-3-1-0-4" d="m 459.44881,213.29214 26.13062,-38.00382 37.50957,8.81205 11.44064,21.25289 3.43888,14.88579 -19.04032,13.78035 -21.67791,57.48094 -75.08599,-0.88133 31.03646,-49.71694 z" style="fill:#4d4d4d;fill-rule:evenodd;stroke-width:0.170558" />
      <path sodipodi:nodetypes="ccccccccccccc" inkscape:connector-curvature="0" id="rect851-5-9-3-4-7-5-1-1-8" d="m 466.34589,230.13028 0.45534,-24.46243 26.71245,-25.9906 -10.78054,22.24478 7.75791,24.47888 15.70722,1.86496 -0.82371,14.01406 7.54788,-2.16548 -22.31127,49.51473 -6.42362,-1.20244 -62.02325,2.19227 33.27342,-38.58633 z" style="fill:#374548;fill-rule:evenodd;stroke-width:0.170558" />
      <path sodipodi:nodetypes="ccccccccccccccccccc" inkscape:connector-curvature="0" id="rect818-4-6-0-5-6-5-8-1-0-9" d="m 295.92591,153.19277 24.39519,36.5383 -4.859,-26.78432 34.98599,51.4664 83.50911,26.46443 29.21754,-0.70285 6.3899,10.69794 18.81394,2.5209 1.33455,16.81396 14.92841,13.77487 -16.6683,18.6703 -24.27265,20.08387 -26.02408,6.08846 -67.27961,-48.12781 -75.0699,-65.99757 -20.36135,-41.01322 28.30009,30.75872 -3.51245,-19.09542 z" style="fill:#666666;fill-rule:evenodd;stroke-width:0.170558" />
      <path sodipodi:nodetypes="ccccccccccccccccc" inkscape:connector-curvature="0" id="rect818-4-1-9-9-5-4-9-0-6" d="m 327.26652,221.43958 -6.94542,-31.70851 -4.859,-26.78432 34.98599,51.4664 83.50911,26.46443 23.06347,29.51408 32.69243,-0.18412 -25.32659,28.87739 23.58671,3.56779 -24.27265,20.08386 -26.02407,6.08847 -77.20378,-30.67235 -65.14573,-83.45304 30.97453,18.4473 -23.0358,-28.70179 -3.51245,-19.09544 z" style="fill:#999999;fill-rule:evenodd;stroke-width:0.170558" />
      <path sodipodi:nodetypes="ccccc" inkscape:connector-curvature="0" id="rect857-6-0-7-3-0-7-9-2" d="m 515.15738,192.73275 5.56736,12.14114 -16.74934,11.91503 -16.58856,-24.54203 z" style="fill:#999999;fill-rule:evenodd;stroke-width:0.170558" />
      <rect transform="rotate(59.047493)" ry="7.1069293" rx="7.1069293" y="-342.12253" x="423.70816" height="20.783802" width="20.783802" id="rect860-7-9-5-4-9-2-8-0" style="fill:#550000;fill-rule:evenodd;stroke-width:0.170558" />
      <rect transform="rotate(59.047493)" ry="7.1069293" rx="7.1069293" y="-340.98746" x="424.84326" height="18.513632" width="18.513632" id="rect860-0-62-4-7-5-0-3-5-5" style="fill:#aa0000;fill-rule:evenodd;stroke-width:0.170558" />
      <rect transform="rotate(59.047493)" ry="7.1069293" rx="7.1069293" y="-331.66644" x="429.38684" height="4.4819837" width="4.4819837" id="rect860-0-6-3-0-1-26-3-9-0-1" style="fill:#1a1a1a;fill-rule:evenodd;stroke-width:0.170558" />
      <rect transform="rotate(59.047493)" ry="7.1069293" rx="7.1069293" y="-333.68378" x="430.32227" height="2.0765579" width="2.0765579" id="rect860-0-6-1-7-7-6-0-8-0-1-7" style="fill:#ffffff;fill-rule:evenodd;stroke-width:0.170558" />
      <path sodipodi:nodetypes="cccccc" inkscape:connector-curvature="0" id="rect854-0-8-6-8-2-9-4-4-4" d="m 538.11082,212.75937 7.52876,4.11352 6.13045,7.53114 -5.83765,-2.7548 -7.9003,-6.08103 z" style="fill:#374548;fill-rule:evenodd;stroke-width:0.170558" />
      <g style="stroke-width:0.59805" transform="matrix(0.71147836,0.80970717,-0.80970717,0.71147836,398.03761,-10.787059)" id="g1140-1-1-8-4-47-0-7-1">
        <path style="fill:#1a1a1a;fill-rule:evenodd;stroke-width:0.158234" d="M -14.246023,115.01253 41.513153,63.418516 121.25635,62.241978 144.86542,135.44777 38.850452,167.8304 28.304848,147.55488 l -46.004624,3.20572 28.11569,-21.55738 z" id="rect1080-83-4-5-06-6-1-8-7" inkscape:connector-curvature="0" sodipodi:nodetypes="ccccccccc" />
        <path style="fill:#6f8a91;fill-rule:evenodd;stroke-width:0.158234" d="m 96.48772,134.04694 23.85825,-5.01927 2.96412,11.48345 -22.24652,9.65099 -12.6771,-2.87148 z" id="rect955-2-8-05-5-4-8-8-3-3-5-0" inkscape:connector-curvature="0" sodipodi:nodetypes="cccccc" />
        <path style="fill:#6f8a91;fill-rule:evenodd;stroke-width:0.158234" d="m 80.56936,112.91939 23.85826,-5.01927 2.96412,11.48346 -22.24652,9.65099 -12.677107,-2.87148 z" id="rect955-2-8-8-2-0-7-1-9-0-7-4" inkscape:connector-curvature="0" sodipodi:nodetypes="cccccc" />
        <path style="fill:#6f8a91;fill-rule:evenodd;stroke-width:0.158234" d="m 56.40625,95.01086 23.85825,-5.01928 2.96412,11.48346 -22.246517,9.65099 -12.6771,-2.87147 z" id="rect955-2-8-4-5-5-2-1-2-1-4-1" inkscape:connector-curvature="0" sodipodi:nodetypes="cccccc" />
        <path style="fill:#6f8a91;fill-rule:evenodd;stroke-width:0.158234" d="M 59.413976,71.110191 83.27223,66.090913 86.23635,77.574371 63.989828,87.22536 51.312729,84.35388 Z" id="rect955-2-8-5-6-9-9-3-7-8-5-7" inkscape:connector-curvature="0" sodipodi:nodetypes="cccccc" />
        <path style="fill:#6f8a91;fill-rule:evenodd;stroke-width:0.158234" d="m 70.890013,103.71369 23.858257,-5.01927 2.96412,11.48346 -22.24652,9.65099 -12.677104,-2.87149 z" id="rect955-2-8-2-2-0-9-7-8-8-7" inkscape:connector-curvature="0" sodipodi:nodetypes="cccccc" />
        <path style="fill:#b7c4c8;fill-rule:evenodd;stroke-width:0.158234" d="M 68.268093,75.619441 103.20133,68.270219 107.5414,85.08429 74.968052,99.21529 56.40625,95.01086 Z" id="rect955-2-7-5-1-9-8-4-9-7" inkscape:connector-curvature="0" sodipodi:nodetypes="cccccc" />
        <path style="fill:#93aca7;fill-rule:evenodd;stroke-width:0.158234" d="M 69.999269,45.753716 106.3115,54.487362 106.67902,71.629695 71.118478,70.078675 53.719606,58.092491 Z" id="rect955-3-4-4-2-8-6-4-9" inkscape:connector-curvature="0" sodipodi:nodetypes="cccccc" />
        <path style="fill:#6f8a91;fill-rule:evenodd;stroke-width:0.158234" d="M 69.999269,45.753716 175.30271,70.5155 l 58.37075,65.52841 -13.12703,22.33564 -53.05375,-11.61941 -16.08543,-2.234 -50.65979,9.3675 -20.1781,-40.97426 4.26848,-51.141545 z" id="rect937-2-2-0-0-0-2-1-2" inkscape:connector-curvature="0" sodipodi:nodetypes="cccccccccc" />
        <path style="fill:#6f8a91;fill-rule:evenodd;stroke-width:0.158234" d="m 88.80262,119.88601 20.77537,-14.73616 5.20454,10.212 -18.29481,18.68509 -12.23913,2.32097 z" id="rect955-2-8-0-1-4-9-3-8-4-5-0" inkscape:connector-curvature="0" sodipodi:nodetypes="cccccc" />
        <path style="fill:#53676c;fill-rule:evenodd;stroke-width:0.158234" d="m 69.999269,45.753716 99.226461,29.838595 53.42379,73.259579 -19.72476,1.14411 -32.10616,-25.87701 -22.3105,17.2312 7.32111,-13.04002 0.0982,-16.19321 -20.13919,15.76103 -10.5559,15.26175 -24.48487,10.75391 14.03507,-38.5318 L 99.62787,131.65269 94.60164,117.029 80.56935,112.91939 106.20276,89.11137 90.35939,83.72549 84.83783,61.777844 Z" id="rect937-4-7-6-1-4-7-1-3-6" inkscape:connector-curvature="0" sodipodi:nodetypes="ccccccccccccccccccc" />
      </g>
      <path sodipodi:nodetypes="cccccc" inkscape:connector-curvature="0" id="rect1036-4-3-1-3-99-0-7-3" d="m 360.47272,298.1527 47.44265,-6.27631 2.70014,54.23605 -13.38804,13.95688 -14.91952,-31.81078 z" style="fill:#808080;fill-opacity:1;fill-rule:evenodd;stroke-width:0.170558" />
      <path sodipodi:nodetypes="ccccccccccccccc" inkscape:connector-curvature="0" id="rect818-2-1-6-1-3-6-3-2" d="m 327.26652,221.43958 42.57482,11.23366 67.4788,27.48112 19.70053,10.2373 -5.70806,12.17157 13.0739,16.5217 -14.41321,14.53148 13.72727,9.12017 -26.02407,6.08847 -77.20378,-30.67235 -36.49104,-55.4785 33.28746,14.81064 -30.96762,-24.33788 24.89495,13.60026 z" style="fill:#808080;fill-rule:evenodd;stroke-width:0.170558" />
      <path sodipodi:nodetypes="ccccc" inkscape:connector-curvature="0" id="rect919-2" d="m 412.75247,374.68353 9.01829,15.41363 16.7532,31.42146 -34.65476,-38.92669 z" style="fill:#ff5555;fill-rule:evenodd;stroke-width:0.170558" />
      <path sodipodi:nodetypes="ccccc" inkscape:connector-curvature="0" id="rect919-2-6" d="m 411.7114,367.71763 13.4703,11.72435 25.91435,24.42181 -45.27555,-25.81405 z" style="fill:#ff5555;fill-rule:evenodd;stroke-width:0.170558" />
    </g>
    <rect style="fill:#800000;fill-rule:evenodd;stroke-width:0.330518" id="rect1332-8" width="19.480064" height="193.44624" x="-91.756073" y="262.70224" transform="matrix(0.99647863,-0.08384714,-0.71125778,0.70293127,0,0)" inkscape:export-filename="D:\Спайд\Артеги\Ассеты для анимации\отсаду оф ор димешосу.png" inkscape:export-xdpi="96" inkscape:export-ydpi="96" />
    <path style="fill:#44aa00;fill-rule:evenodd;stroke-width:0.264583" d="m -186.42338,147.82338 178.5225639,-30.50711 4.829794,57.39955 -22.1811329,18.98938 -72.758556,62.28897 -100.183269,108.89319 -176.70008,-25.33706 -4.82979,-57.39954 120.01958,-48.94633 z" id="rect1136" inkscape:connector-curvature="0" sodipodi:nodetypes="cccccccccc" inkscape:export-filename="D:\Спайд\Артеги\Ассеты для анимации\отсаду оф ор димешосу.png" inkscape:export-xdpi="96" inkscape:export-ydpi="96" />
    <path style="fill:#44aa00;fill-opacity:1;fill-rule:evenodd;stroke-width:0.264583" d="m -459.00061,343.55382 104.25616,7.77702 -26.10837,62.02712 -91.98283,-33.57952 z" id="rect1157" inkscape:connector-curvature="0" sodipodi:nodetypes="ccccc" inkscape:export-filename="D:\Спайд\Артеги\Ассеты для анимации\отсаду оф ор димешосу.png" inkscape:export-xdpi="96" inkscape:export-ydpi="96" />
    <path style="fill:#44aa00;fill-opacity:1;fill-rule:evenodd;stroke-width:0.264583" d="m -147.41712,392.01626 -87.46528,-24.79076 -24.17635,60.52469 86.33936,18.16802 z" id="rect1157-0" inkscape:connector-curvature="0" sodipodi:nodetypes="ccccc" inkscape:export-filename="D:\Спайд\Артеги\Ассеты для анимации\отсаду оф ор димешосу.png" inkscape:export-xdpi="96" inkscape:export-ydpi="96" />
    <path style="fill:#55d400;fill-rule:evenodd;stroke-width:0.264583" d="m -191.25317,90.42382 183.3523539,26.89245 -94.9397039,81.27835 -100.18325,108.89319 -176.70008,-25.33705 115.1898,-106.34588 z" id="rect1136-8" inkscape:connector-curvature="0" sodipodi:nodetypes="ccccccc" inkscape:export-filename="D:\Спайд\Артеги\Ассеты для анимации\отсаду оф ор димешосу.png" inkscape:export-xdpi="96" inkscape:export-ydpi="96" />
    <rect style="fill:#338000;fill-rule:evenodd;stroke-width:0.27076" id="rect1280-7" width="161.91133" height="89.616249" x="-316.14749" y="67.451973" transform="matrix(0.9973007,-0.07342558,0.36624529,0.93051834,0,0)" inkscape:export-filename="D:\Спайд\Артеги\Ассеты для анимации\отсаду оф ор димешосу.png" inkscape:export-xdpi="96" inkscape:export-ydpi="96" />
    <path style="fill:#66ff00;fill-opacity:1;fill-rule:evenodd;stroke-width:0.264583" d="m -185.15837,162.73607 56.04243,-88.6459 c 38.102091,10.408758 65.661376,27.56656 32.821575,83.38957 l -56.042435,88.64588 z" id="rect1297" inkscape:connector-curvature="0" sodipodi:nodetypes="ccccc" inkscape:export-filename="D:\Спайд\Артеги\Ассеты для анимации\отсаду оф ор димешосу.png" inkscape:export-xdpi="96" inkscape:export-ydpi="96" />
    <path style="fill:#44aa00;fill-rule:evenodd;stroke-width:0.264583" d="m -346.63259,174.6245 56.04244,-88.645877 32.82152,83.389547 -56.04244,88.64589 z" id="rect1301" inkscape:connector-curvature="0" sodipodi:nodetypes="ccccc" inkscape:export-filename="D:\Спайд\Артеги\Ассеты для анимации\отсаду оф ор димешосу.png" inkscape:export-xdpi="96" inkscape:export-ydpi="96" />
    <path style="fill:#338000;fill-opacity:1;fill-rule:evenodd;stroke-width:0.264583" d="m -346.63259,174.6245 161.47428,-11.88843 c 36.85939,36.16757 27.21708,57.31643 32.82151,83.38955 l -161.47427,11.88844 z" id="rect1280" inkscape:connector-curvature="0" sodipodi:nodetypes="ccccc" inkscape:export-filename="D:\Спайд\Артеги\Ассеты для анимации\отсаду оф ор димешосу.png" inkscape:export-xdpi="96" inkscape:export-ydpi="96" />
    <path style="fill:#44aa00;fill-rule:evenodd;stroke-width:0.264583" d="m -290.59015,85.978623 161.47421,-11.888453 -56.04237,88.6459 -161.47428,11.88843 c 3.85466,-35.1134 -4.93934,-74.974259 56.04244,-88.645877 z" id="rect1304" inkscape:connector-curvature="0" sodipodi:nodetypes="ccccc" inkscape:export-filename="D:\Спайд\Артеги\Ассеты для анимации\отсаду оф ор димешосу.png" inkscape:export-xdpi="96" inkscape:export-ydpi="96" />
    <path style="fill:#44aa00;fill-rule:evenodd;stroke-width:0.264583" d="m -135.93372,127.42856 355.88299,-69.315145 5.55753,27.332619 -348.15823,73.996686 -15.93209,-1.83588 z" id="rect1307" inkscape:connector-curvature="0" sodipodi:nodetypes="cccccc" inkscape:export-filename="D:\Спайд\Артеги\Ассеты для анимации\отсаду оф ор димешосу.png" inkscape:export-xdpi="96" inkscape:export-ydpi="96" />
    <rect style="fill:#800000;fill-rule:evenodd;stroke-width:0.330518" id="rect1332" width="19.480064" height="193.44624" x="211.95428" y="332.48108" transform="matrix(0.99647863,-0.08384714,-0.71125778,0.70293127,0,0)" inkscape:export-filename="D:\Спайд\Артеги\Ассеты для анимации\отсаду оф ор димешосу.png" inkscape:export-xdpi="96" inkscape:export-ydpi="96" />
    <path style="fill:#800000;fill-opacity:1;fill-rule:evenodd;stroke-width:0.264583" d="m -346.63259,174.6245 120.2699,17.04204 46.64158,-11.94809 -18.91632,19.75005 29.43097,18.54412 -52.4702,-6.16994 -92.13441,46.17138 75.8522,-55.5734 z" id="rect1364" inkscape:connector-curvature="0" sodipodi:nodetypes="ccccccccc" inkscape:export-filename="D:\Спайд\Артеги\Ассеты для анимации\отсаду оф ор димешосу.png" inkscape:export-xdpi="96" inkscape:export-ydpi="96" />
    <path style="fill:#800000;fill-opacity:1;fill-rule:evenodd;stroke-width:0.264583" d="m -234.8824,367.2255 -60.9592,44.81101 -58.90285,-60.70567 56.39341,40.85656 z" id="rect1364-8" inkscape:connector-curvature="0" sodipodi:nodetypes="ccccc" inkscape:export-filename="D:\Спайд\Артеги\Ассеты для анимации\отсаду оф ор димешосу.png" inkscape:export-xdpi="96" inkscape:export-ydpi="96" />
    <path style="fill:#d40000;fill-rule:evenodd;stroke-width:0.264583" d="M -165.50356,285.053 -3.0710221,174.71582 -135.73104,274.55057 l -62.46294,90.33679 -94.02933,-42.85611 -82.67075,17.51905 65.60109,-25.29895 -70.43088,-32.10059 86.32286,31.54087 90.37722,-6.20382 -80.68467,9.71181 85.51446,47.68774 z" id="rect1382" inkscape:connector-curvature="0" sodipodi:nodetypes="ccccccccccccc" inkscape:export-filename="D:\Спайд\Артеги\Ассеты для анимации\отсаду оф ор димешосу.png" inkscape:export-xdpi="96" inkscape:export-ydpi="96" />
    <path style="fill:#d40000;fill-opacity:1;fill-rule:evenodd;stroke-width:0.264583" d="M -19.999587,115.64614 104.56778,91.384219 207.3903,75.184165 -15.350465,126.85183 -138.58352,157.60684 Z" id="rect1307-9" inkscape:connector-curvature="0" sodipodi:nodetypes="cccccc" inkscape:export-filename="D:\Спайд\Артеги\Ассеты для анимации\отсаду оф ор димешосу.png" inkscape:export-xdpi="96" inkscape:export-ydpi="96" />
    <rect style="fill:#44aa00;fill-rule:evenodd;stroke-width:0.264583" id="rect1309" width="72.351357" height="44.715603" x="169.5898" y="92.583061" rx="38.175594" ry="38.175594" transform="rotate(-11.49324)" inkscape:export-filename="D:\Спайд\Артеги\Ассеты для анимации\отсаду оф ор димешосу.png" inkscape:export-xdpi="96" inkscape:export-ydpi="96" />
    <rect style="fill:#000000;fill-rule:evenodd;stroke-width:0.264583" id="rect1309-4" width="27.163668" height="32.193344" x="209.49454" y="98.844185" rx="38.175594" ry="38.175594" transform="rotate(-11.49324)" inkscape:export-filename="D:\Спайд\Артеги\Ассеты для анимации\отсаду оф ор димешосу.png" inkscape:export-xdpi="96" inkscape:export-ydpi="96" />
    <path style="fill:#d40000;fill-opacity:1;fill-rule:evenodd;stroke-width:0.264583" d="m -290.59015,85.978623 65.33733,21.032627 96.13688,-32.92108 -83.67572,38.60234 27.63329,50.04356 -41.89246,-44.14957 -119.58176,56.038 95.92083,-62.00195 z" id="rect1402" inkscape:connector-curvature="0" sodipodi:nodetypes="ccccccccc" inkscape:export-filename="D:\Спайд\Артеги\Ассеты для анимации\отсаду оф ор димешосу.png" inkscape:export-xdpi="96" inkscape:export-ydpi="96" />
  </g>
</svg>
