<?xml version="1.0" encoding="UTF-8" standalone="no"?>
<!-- Created with Inkscape (http://www.inkscape.org/) -->

<svg width="295.43332mm" height="278.94644mm" viewBox="0 0 295.43332 278.94644" version="1.1" id="svg8" inkscape:version="1.3 (0e150ed6c4, 2023-07-21)" sodipodi:docname="шизоголова.svg" xmlns:inkscape="http://www.inkscape.org/namespaces/inkscape" xmlns:sodipodi="http://sodipodi.sourceforge.net/DTD/sodipodi-0.dtd" xmlns:xlink="http://www.w3.org/1999/xlink" xmlns="http://www.w3.org/2000/svg" xmlns:svg="http://www.w3.org/2000/svg" xmlns:rdf="http://www.w3.org/1999/02/22-rdf-syntax-ns#" xmlns:cc="http://creativecommons.org/ns#" xmlns:dc="http://purl.org/dc/elements/1.1/">
  <defs id="defs2">
    <linearGradient inkscape:collect="always" id="linearGradient1344">
      <stop style="stop-color:#01617a;stop-opacity:1;" offset="0" id="stop1340" />
      <stop style="stop-color:#01617a;stop-opacity:0;" offset="1" id="stop1342" />
    </linearGradient>
    <inkscape:path-effect effect="bend_path" id="path-effect1248" is_visible="true" bendpath="m 151.15147,115.87102 c 44.37467,44.25035 100.7264,47.12025 153.30101,-5.29558" prop_scale="1.2346993" scale_y_rel="false" vertical="false" bendpath-nodetypes="cc" lpeversion="0" hide_knot="false" />
    <linearGradient inkscape:collect="always" id="linearGradient1241">
      <stop style="stop-color:#a05f00;stop-opacity:1;" offset="0" id="stop1237" />
      <stop style="stop-color:#a05f00;stop-opacity:0;" offset="1" id="stop1239" />
    </linearGradient>
    <linearGradient inkscape:collect="always" id="linearGradient1218">
      <stop style="stop-color:#a05f00;stop-opacity:1;" offset="0" id="stop1214" />
      <stop style="stop-color:#a05f00;stop-opacity:0;" offset="1" id="stop1216" />
    </linearGradient>
    <linearGradient inkscape:collect="always" id="linearGradient912">
      <stop style="stop-color:#2aff2a;stop-opacity:1;" offset="0" id="stop908" />
      <stop style="stop-color:#2aff2a;stop-opacity:0;" offset="1" id="stop910" />
    </linearGradient>
    <linearGradient inkscape:collect="always" id="linearGradient846">
      <stop style="stop-color:#ffffff;stop-opacity:1;" offset="0" id="stop842" />
      <stop style="stop-color:#ffffff;stop-opacity:0;" offset="1" id="stop844" />
    </linearGradient>
    <radialGradient inkscape:collect="always" xlink:href="#linearGradient846" id="radialGradient848" cx="166.99669" cy="50.668465" fx="166.99669" fy="50.668465" r="56.129463" gradientUnits="userSpaceOnUse" gradientTransform="matrix(7.0717735e-8,0.88215537,-0.72390575,5.8031699e-8,189.94853,-100.34826)" />
    <radialGradient inkscape:collect="always" xlink:href="#linearGradient912" id="radialGradient914" cx="178.1476" cy="70.669067" fx="178.1476" fy="70.669067" r="56.129463" gradientUnits="userSpaceOnUse" gradientTransform="matrix(0,-1.7344518,1.6047311,0,36.476144,356.94107)" />
    <radialGradient inkscape:collect="always" xlink:href="#linearGradient846" id="radialGradient848-9" cx="168.2821" cy="-85.086517" fx="168.2821" fy="-85.086517" r="56.129463" gradientUnits="userSpaceOnUse" gradientTransform="matrix(7.0717735e-8,0.88215538,-0.72390576,5.8031699e-8,189.94853,-100.34826)" />
    <radialGradient inkscape:collect="always" xlink:href="#linearGradient912" id="radialGradient914-6" cx="173.78915" cy="132.61574" fx="173.78915" fy="132.61574" r="56.129463" gradientUnits="userSpaceOnUse" gradientTransform="matrix(0,-1.7344518,1.6047311,0,36.476141,356.94106)" />
    <radialGradient inkscape:collect="always" xlink:href="#linearGradient846" id="radialGradient848-4" cx="215.41368" cy="-7.2884612" fx="215.41368" fy="-7.2884612" r="56.129463" gradientUnits="userSpaceOnUse" gradientTransform="matrix(7.0717737e-8,0.8821554,-0.72390578,5.8031701e-8,189.94853,-100.34826)" />
    <radialGradient inkscape:collect="always" xlink:href="#linearGradient912" id="radialGradient914-3" cx="148.51013" cy="98.698166" fx="148.51013" fy="98.698166" r="56.129463" gradientUnits="userSpaceOnUse" gradientTransform="matrix(0,-1.7344519,1.6047312,0,36.476138,356.94106)" />
    <linearGradient inkscape:collect="always" xlink:href="#linearGradient1218" id="linearGradient1220" x1="33.208183" y1="145.87898" x2="154.21428" y2="69.458328" gradientUnits="userSpaceOnUse" />
    <linearGradient inkscape:collect="always" xlink:href="#linearGradient1241" id="linearGradient1243" x1="366.69379" y1="113.11857" x2="227.17909" y2="53.784729" gradientUnits="userSpaceOnUse" />
    <inkscape:path-effect effect="bend_path" id="path-effect1248-2" is_visible="true" bendpath="m 151.15147,115.87102 c 45.15577,48.77072 92.58644,58.79775 144.05828,0" prop_scale="1" scale_y_rel="false" vertical="false" bendpath-nodetypes="cc" lpeversion="0" hide_knot="false" />
    <inkscape:path-effect effect="bend_path" id="path-effect1248-2-8" is_visible="true" bendpath="m 151.15147,115.87102 c 45.15577,48.77072 92.58644,58.79775 144.05828,0" prop_scale="1" scale_y_rel="false" vertical="false" bendpath-nodetypes="cc" lpeversion="0" hide_knot="false" />
    <linearGradient inkscape:collect="always" xlink:href="#linearGradient1344" id="linearGradient1346" x1="203.65938" y1="205.3511" x2="203.65938" y2="269.73849" gradientUnits="userSpaceOnUse" gradientTransform="translate(8.1762431e-6)" />
    <radialGradient inkscape:collect="always" xlink:href="#linearGradient846" id="radialGradient894" cx="227.48814" cy="104.46557" fx="227.48814" fy="104.46557" r="147.71666" gradientTransform="matrix(0,-0.88037519,0.88363012,0,108.06051,283.42908)" gradientUnits="userSpaceOnUse" />
  </defs>
  <sodipodi:namedview id="base" pagecolor="#ffffff" bordercolor="#666666" borderopacity="1.0" inkscape:pageopacity="0.0" inkscape:pageshadow="2" inkscape:zoom="0.35" inkscape:cx="211.42857" inkscape:cy="782.85714" inkscape:document-units="mm" inkscape:current-layer="layer1" showgrid="false" inkscape:window-width="2467" inkscape:window-height="1413" inkscape:window-x="84" inkscape:window-y="-9" inkscape:window-maximized="1" inkscape:showpageshadow="2" inkscape:pagecheckerboard="0" inkscape:deskcolor="#d1d1d1" />
  <metadata id="metadata5">
    <rdf:RDF>
      <cc:Work rdf:about="">
        <dc:format>image/svg+xml</dc:format>
        <dc:type rdf:resource="http://purl.org/dc/dcmitype/StillImage" />
        <dc:title />
      </cc:Work>
    </rdf:RDF>
  </metadata>
  <g inkscape:label="Layer 1" inkscape:groupmode="layer" id="layer1" transform="translate(-46.491058,48.848206)">
    <rect style="fill:#8a8aad;fill-opacity:1;fill-rule:evenodd;stroke-width:0.264583" id="rect860" width="295.43332" height="278.94644" x="46.491074" y="-48.848209" />
    <rect style="opacity:0.573;fill:url(#radialGradient894);fill-opacity:1;fill-rule:evenodd;stroke-width:0.264583" id="rect860-1" width="295.43332" height="278.94644" x="46.491058" y="-48.848206" inkscape:export-xdpi="85.975403" inkscape:export-ydpi="85.975403" />
    <rect style="fill:#01bc44;fill-opacity:1;fill-rule:evenodd;stroke-width:0.264583" id="rect1313" width="40.3577" height="107.97688" x="174.02887" y="129.67052" rx="4.5435839" ry="4.5435839" />
    <rect rx="56.129463" style="fill:#006d8e;fill-opacity:1;fill-rule:evenodd;stroke-width:0.264583" id="rect817-2" width="112.25893" height="112.25893" x="199.85768" y="19.408913" ry="56.129463" />
    <rect rx="56.129463" style="fill:url(#radialGradient914-6);fill-opacity:1;fill-rule:evenodd;stroke-width:0.264583" id="rect817-4-7-8" width="112.25893" height="112.25893" x="199.85768" y="19.408913" ry="56.129463" />
    <rect rx="56.129463" style="fill:url(#radialGradient848-9);fill-opacity:1;fill-rule:evenodd;stroke-width:0.264583" id="rect817-4-6" width="112.25893" height="112.25893" x="199.85768" y="19.408913" ry="56.129463" />
    <rect style="fill:#006d8e;fill-opacity:1;fill-rule:evenodd;stroke-width:0.264583" id="rect817" width="112.25893" height="112.25893" x="70.589844" y="28.102364" ry="56.129463" rx="56.129463" />
    <rect rx="56.129463" style="fill:url(#radialGradient914);fill-opacity:1;fill-rule:evenodd;stroke-width:0.264583" id="rect817-4-7" width="112.25893" height="112.25893" x="70.589844" y="28.102364" ry="56.129463" />
    <path style="fill:#ffd34c;fill-opacity:1;fill-rule:evenodd;stroke-width:1" d="m 646.59766,188.07812 -377.65821,99.98633 c -1.40268,9.89132 -2.14257,20.0022 -2.14257,30.29297 -10e-6,48.64753 16.22195,93.35909 43.55859,129.07031 L 689.14844,347.14062 c 1.26609,-9.41067 1.93359,-19.0148 1.93359,-28.7832 0,-49.19589 -16.58659,-94.37161 -44.48437,-130.2793 z" id="rect1027" transform="scale(0.26458333)" />
    <rect rx="56.129463" style="fill:url(#radialGradient848);fill-opacity:1;fill-rule:evenodd;stroke-width:0.264583" id="rect817-4" width="112.25893" height="112.25893" x="70.589844" y="28.102364" ry="56.129463" />
    <path inkscape:connector-curvature="0" style="fill:#ffd34c;fill-opacity:1;fill-rule:evenodd;stroke-width:0.264583" d="m 204.87178,52.246248 106.67795,15.277353 c 0.37112,2.617079 0.56689,5.292249 0.56689,8.015015 0,10.593596 -2.90741,20.481758 -7.96885,28.917444 -1.08826,1.81376 1.27993,-1.67204 0,0 L 200.36943,83.154171 c -0.33498,-2.489906 -0.51159,-5.030999 -0.51159,-7.615555 0,-8.3195 1.7928,-16.204471 5.01394,-23.292368 1.81856,-4.00159 -2.6635,3.428239 0,0 z" id="rect1027-2" sodipodi:nodetypes="ccssccssc" />
    <rect style="fill:#1b0f00;fill-opacity:1;fill-rule:evenodd;stroke-width:0.264583" id="rect1105" width="17.008928" height="34.017857" x="46.337925" y="103.38231" transform="rotate(-18.799885)" rx="8.5044641" ry="8.5044641" />
    <rect style="fill:#271500;fill-opacity:1;fill-rule:evenodd;stroke-width:0.264583" id="rect1105-4" width="17.008928" height="34.017857" x="-312.8595" y="-33.299858" transform="matrix(-0.94664991,-0.3222638,-0.3222638,0.94664991,0,0)" rx="8.5044641" ry="8.5044641" />
    <path inkscape:connector-curvature="0" style="fill:url(#linearGradient1220);fill-opacity:1;fill-rule:evenodd;stroke-width:0.264583" d="M 171.07896,49.762335 71.156892,76.217051 c -0.37113,2.617079 -0.56689,5.292249 -0.56689,8.015015 0,12.871326 4.29206,24.701264 11.52488,34.149854 L 182.33718,91.847621 c 0.33499,-2.489906 0.5116,-5.030999 0.5116,-7.615555 0,-13.016412 -4.38854,-24.969154 -11.76982,-34.469731 z" id="rect1027-3" />
    <path inkscape:connector-curvature="0" style="fill:url(#linearGradient1243);fill-opacity:1;fill-rule:evenodd;stroke-width:0.264583" d="M 204.87178,52.246247 311.54973,67.5236 c 0.37112,2.617079 0.56689,5.292249 0.56689,8.015015 0,10.593597 -2.90741,20.481758 -7.96885,28.917445 -1.08826,1.81376 1.27993,-1.67204 0,0 L 200.36943,83.15417 c -0.33498,-2.489906 -0.51159,-5.030999 -0.51159,-7.615555 0,-8.3195 1.7928,-16.20447 5.01394,-23.292368 1.81856,-4.00159 -2.6635,3.428239 0,0 z" id="rect1027-2-0" sodipodi:nodetypes="ccssccssc" />
    <rect style="fill:url(#linearGradient1346);fill-opacity:1;fill-rule:evenodd;stroke-width:0.264583" id="rect1313-7" width="40.3577" height="107.97689" x="174.02887" y="129.67052" rx="4.5435839" ry="4.5435839" />
    <rect rx="70.681549" style="fill:#006d8e;fill-opacity:1;fill-rule:evenodd;stroke-width:0.264583" id="rect817-8" width="141.3631" height="141.3631" x="126.17363" y="59.739349" ry="70.681549" />
    <rect rx="70.681549" style="fill:url(#radialGradient914-3);fill-opacity:1;fill-rule:evenodd;stroke-width:0.264583" id="rect817-4-7-6" width="141.3631" height="141.3631" x="126.17363" y="59.739349" ry="70.681549" />
    <rect rx="70.681549" style="fill:url(#radialGradient848-4);fill-opacity:1;fill-rule:evenodd;stroke-width:0.264583" id="rect817-4-0" width="141.3631" height="141.3631" x="126.17365" y="59.739349" ry="70.681549" />
    <path transform="rotate(4.6092476,-113.42158,-247.07516)" style="fill:#461a00;fill-opacity:1;fill-rule:evenodd;stroke-width:0.264583" d="m 158.84441,115.48307 c 8.99368,8.34306 18.99027,15.50148 29.93007,20.50211 11.27422,5.16862 23.61854,8.03888 35.88761,7.87829 0,0 0,0 0,0 12.83833,-0.11987 25.68298,-3.55433 37.4719,-9.18348 l 1e-5,-1e-5 c 12.60122,-6.01118 24.04682,-14.52719 34.43669,-24.28775 2.1532,-2.02278 5.60312,-1.93383 7.79618,0.26851 2.19047,2.19976 2.21062,5.73697 -0.0988,7.91286 -11.01757,10.38034 -23.41197,19.54158 -37.28308,26.22343 0,0 -1e-5,0 -1e-5,0 -13.05864,6.28482 -27.47701,10.08666 -42.19304,10.2856 l -1e-5,0 c -14.08189,0.14429 -28.03112,-3.06736 -40.70234,-8.90246 -12.21187,-5.6383 -23.19485,-13.45191 -32.88923,-22.46769 -2.31493,-2.15289 -2.33056,-5.7279 -0.13439,-7.92683 2.19617,-2.19892 5.63086,-2.29484 7.77848,-0.30258 z" id="rect1245" inkscape:path-effect="#path-effect1248" inkscape:original-d="m 155.69506,111.32744 h 134.97111 c 2.51714,0 4.54358,2.02644 4.54358,4.54358 0,2.51714 -2.02644,4.54358 -4.54358,4.54358 H 155.69506 c -2.51715,0 -4.54359,-2.02644 -4.54359,-4.54358 0,-2.51714 2.02644,-4.54358 4.54359,-4.54358 z" inkscape:connector-curvature="0" />
  </g>
</svg>
