<?xml version="1.0" encoding="UTF-8" standalone="no"?>
<!-- Created with Inkscape (http://www.inkscape.org/) -->

<svg width="156.21902mm" height="159.42627mm" viewBox="0 0 156.21902 159.42627" version="1.1" id="svg8" inkscape:version="1.3 (0e150ed6c4, 2023-07-21)" sodipodi:docname="khevizi_gift.svg" xmlns:inkscape="http://www.inkscape.org/namespaces/inkscape" xmlns:sodipodi="http://sodipodi.sourceforge.net/DTD/sodipodi-0.dtd" xmlns="http://www.w3.org/2000/svg" xmlns:svg="http://www.w3.org/2000/svg" xmlns:rdf="http://www.w3.org/1999/02/22-rdf-syntax-ns#" xmlns:cc="http://creativecommons.org/ns#" xmlns:dc="http://purl.org/dc/elements/1.1/">
  <defs id="defs2" />
  <sodipodi:namedview id="base" pagecolor="#ffffff" bordercolor="#666666" borderopacity="1.0" inkscape:pageopacity="0.0" inkscape:pageshadow="2" inkscape:zoom="0.98994949" inkscape:cx="287.89348" inkscape:cy="437.39605" inkscape:document-units="mm" inkscape:current-layer="layer2" showgrid="false" inkscape:window-width="2467" inkscape:window-height="1413" inkscape:window-x="84" inkscape:window-y="-9" inkscape:window-maximized="1" showguides="false" inkscape:showpageshadow="2" inkscape:pagecheckerboard="0" inkscape:deskcolor="#d1d1d1" />
  <metadata id="metadata5">
    <rdf:RDF>
      <cc:Work rdf:about="">
        <dc:format>image/svg+xml</dc:format>
        <dc:type rdf:resource="http://purl.org/dc/dcmitype/StillImage" />
        <dc:title />
      </cc:Work>
    </rdf:RDF>
  </metadata>
  <g inkscape:label="Layer 1" inkscape:groupmode="layer" id="layer1" style="display:inline" transform="translate(-11.893495,8.6227055)" />
  <g inkscape:groupmode="layer" id="layer3" inkscape:label="Layer 3" style="display:inline" transform="translate(-11.893495,8.6227055)" />
  <g inkscape:groupmode="layer" id="layer2" inkscape:label="Layer 2" style="display:inline" transform="translate(-11.893495,8.6227055)">
    <rect style="fill:#827060;fill-opacity:1;fill-rule:evenodd;stroke-width:0.264583" id="rect1234" width="156.21902" height="159.42627" x="11.893495" y="-8.6227055" inkscape:export-xdpi="487.77667" inkscape:export-ydpi="487.77667" />
    <rect style="display:inline;fill:#8c7867;fill-opacity:1;fill-rule:evenodd;stroke-width:0.264583" id="rect1234-4" width="114.52499" height="159.42627" x="32.740505" y="-8.6227055" />
    <rect style="display:inline;fill:#998574;fill-opacity:1;fill-rule:evenodd;stroke-width:0.264583" id="rect1234-4-3" width="86.728966" height="159.42627" x="46.638508" y="-8.6227055" />
    <path sodipodi:type="star" style="opacity:1;fill:#fcc24f;fill-opacity:1;fill-rule:nonzero;stroke:none;stroke-width:5.26435;stroke-linecap:square;stroke-linejoin:round;stroke-miterlimit:4;stroke-dasharray:none;stroke-dashoffset:44.0315;stroke-opacity:1;paint-order:fill markers stroke" id="path1271" sodipodi:sides="6" sodipodi:cx="89.690125" sodipodi:cy="13.764228" sodipodi:r1="44.773865" sodipodi:r2="38.775303" sodipodi:arg1="-1.5707963" sodipodi:arg2="-1.0471976" inkscape:flatsided="true" inkscape:rounded="0" inkscape:randomized="0" d="m 89.690126,-31.009637 38.775304,22.3869335 0,44.7738645 -38.775307,22.386932 -38.775303,-22.386934 1e-6,-44.7738645 z" inkscape:transform-center-x="2.5367493e-06" transform="matrix(0.91546394,0,0,0.90813654,7.8949117,41.026193)" />
    <path style="display:inline;opacity:1;fill:#aeaebe;fill-opacity:1;fill-rule:nonzero;stroke:none;stroke-width:4.8;stroke-linecap:square;stroke-linejoin:round;stroke-miterlimit:4;stroke-dasharray:none;stroke-dashoffset:44.0315;stroke-opacity:1;paint-order:fill markers stroke" inkscape:transform-center-x="4.1893668" inkscape:transform-center-y="-3.1443082" d="m 72.003659,103.0198 c -2.56674,-7.20774 -8.79769,-12.886942 -5.5082,-22.537595 -15.60577,13.038698 -19.70227,35.548545 -29.030586,37.766355 8.784966,11.19494 23.729746,-8.51024 34.538786,-15.22876 z" id="path1475-8-5-8" inkscape:connector-curvature="0" sodipodi:nodetypes="cccc" />
    <path sodipodi:type="star" style="display:inline;opacity:1;fill:#998574;fill-opacity:1;fill-rule:nonzero;stroke:none;stroke-width:6.38639;stroke-linecap:square;stroke-linejoin:round;stroke-miterlimit:4;stroke-dasharray:none;stroke-dashoffset:44.0315;stroke-opacity:1;paint-order:fill markers stroke" id="path1271-4" sodipodi:sides="6" sodipodi:cx="89.690125" sodipodi:cy="13.764228" sodipodi:r1="44.773865" sodipodi:r2="38.775303" sodipodi:arg1="-1.5707963" sodipodi:arg2="-1.0471976" inkscape:flatsided="true" inkscape:rounded="0" inkscape:randomized="0" d="m 89.690126,-31.009637 38.775304,22.3869335 0,44.7738645 -38.775307,22.386932 -38.775303,-22.386934 1e-6,-44.7738645 z" inkscape:transform-center-x="2.1623743e-06" transform="matrix(0.75462426,0,0,0.74858424,22.320643,43.222308)" />
    <path style="display:inline;opacity:1;fill:#c2c2cd;fill-opacity:1;fill-rule:nonzero;stroke:none;stroke-width:4.8;stroke-linecap:square;stroke-linejoin:round;stroke-miterlimit:4;stroke-dasharray:none;stroke-dashoffset:44.0315;stroke-opacity:1;paint-order:fill markers stroke" inkscape:transform-center-x="2.3965923" inkscape:transform-center-y="-1.9442003" d="m 77.603449,100.85119 c -4.33064,-6.307547 -11.81045,-10.197336 -11.10799,-20.368985 -11.73665,16.607195 -9.91875,39.414425 -18.36541,43.952075 11.3639,8.56528 20.75074,-14.31546 29.4734,-23.58309 z" id="path1475-8-8" inkscape:connector-curvature="0" sodipodi:nodetypes="cccc" />
    <path sodipodi:type="star" style="display:inline;opacity:1;fill:#fcc24f;fill-opacity:1;fill-rule:nonzero;stroke:none;stroke-width:4.8;stroke-linecap:square;stroke-linejoin:round;stroke-miterlimit:4;stroke-dasharray:none;stroke-dashoffset:44.0315;stroke-opacity:1;paint-order:fill markers stroke" id="path1288-6-3-0" sodipodi:sides="3" sodipodi:cx="67.374252" sodipodi:cy="23.061756" sodipodi:r1="4.7076631" sodipodi:r2="4.0769558" sodipodi:arg1="-2.3561945" sodipodi:arg2="-1.3089969" inkscape:flatsided="true" inkscape:rounded="0" inkscape:randomized="0" d="m 64.045432,19.732936 7.876074,2.110387 -5.765686,5.765686 z" transform="rotate(-165,99.6748,48.763468)" inkscape:transform-center-x="10.677836" inkscape:transform-center-y="9.0714274" />
    <path style="display:inline;opacity:1;fill:#8eaa9b;fill-opacity:1;fill-rule:nonzero;stroke:none;stroke-width:11.265;stroke-linecap:square;stroke-linejoin:round;stroke-miterlimit:4;stroke-dasharray:none;stroke-dashoffset:44.0315;stroke-opacity:1;paint-order:fill markers stroke" d="m 138.31415,88.360081 -24.58558,6.012037 -15.026472,-0.468704 -21.720123,0.0046 -15.026989,0.468707 -24.585062,-6.012037 -1.00924,2.366264 -3.861782,-0.58601 -1.527037,10.062432 3.716052,1.603 0.700217,5.86011 6.491076,3.51038 17.847489,-4.22816 16.036748,4.71754 0.445966,4.36459 -2.958476,12.40906 -0.962731,16.1556 3.200839,2.28772 26.278505,0.56689 2.71249,-2.56935 -3.82819,-19.0624 -1.636072,-8.14628 1.076932,-6.06113 15.86415,-4.6669 17.84801,4.22817 6.49056,-3.51038 0.70021,-5.86011 3.71605,-1.603 -1.52704,-10.062433 -3.86178,0.586009 z" id="path853-2" inkscape:connector-curvature="0" />
    <path style="display:inline;opacity:1;fill:#cbcbd6;fill-opacity:1;fill-rule:nonzero;stroke:none;stroke-width:4.8;stroke-linecap:square;stroke-linejoin:round;stroke-miterlimit:4;stroke-dasharray:none;stroke-dashoffset:44.0315;stroke-opacity:1;paint-order:fill markers stroke" inkscape:transform-center-x="1.1551483" inkscape:transform-center-y="-0.97260028" d="m 82.200939,100.96217 c -5.31522,-5.50344 -13.33585,-8.101079 -14.32724,-18.248644 -8.82494,18.321254 -3.25585,40.512684 -10.83461,46.386254 12.62523,6.56549 18.09406,-17.55365 25.16185,-28.13761 z" id="path1475-80" inkscape:connector-curvature="0" sodipodi:nodetypes="cccc" />
    <path style="display:inline;opacity:1;fill:#aeaebe;fill-opacity:1;fill-rule:nonzero;stroke:none;stroke-width:4.8;stroke-linecap:square;stroke-linejoin:round;stroke-miterlimit:4;stroke-dasharray:none;stroke-dashoffset:44.0315;stroke-opacity:1;paint-order:fill markers stroke" inkscape:transform-center-x="-4.1893658" inkscape:transform-center-y="-3.1443082" d="m 103.37412,102.88179 c 2.56674,-7.207735 8.79769,-12.88694 5.5082,-22.537593 15.60577,13.038698 19.70227,35.548543 29.03059,37.766353 -8.78497,11.19494 -23.72975,-8.51024 -34.53879,-15.22876 z" id="path1475-8-5" inkscape:connector-curvature="0" sodipodi:nodetypes="cccc" />
    <path style="display:inline;opacity:1;fill:#c2c2cd;fill-opacity:1;fill-rule:nonzero;stroke:none;stroke-width:4.8;stroke-linecap:square;stroke-linejoin:round;stroke-miterlimit:4;stroke-dasharray:none;stroke-dashoffset:44.0315;stroke-opacity:1;paint-order:fill markers stroke" inkscape:transform-center-x="-2.3965908" inkscape:transform-center-y="-1.9442003" d="m 97.774333,100.71318 c 4.330637,-6.307545 11.810447,-10.197334 11.107987,-20.368983 11.73665,16.607193 9.91875,39.414423 18.36541,43.952073 -11.3639,8.56528 -20.75074,-14.31546 -29.473397,-23.58309 z" id="path1475-8" inkscape:connector-curvature="0" sodipodi:nodetypes="cccc" />
    <path style="opacity:1;fill:#cbcbd6;fill-opacity:1;fill-rule:nonzero;stroke:none;stroke-width:4.8;stroke-linecap:square;stroke-linejoin:round;stroke-miterlimit:4;stroke-dasharray:none;stroke-dashoffset:44.0315;stroke-opacity:1;paint-order:fill markers stroke" inkscape:transform-center-x="-1.1551463" inkscape:transform-center-y="-0.97260028" d="m 93.176842,100.82416 c 5.315224,-5.503443 13.335848,-8.101077 14.327238,-18.248642 8.82494,18.321252 3.25585,40.512682 10.83461,46.386252 -12.62523,6.56549 -18.09406,-17.55365 -25.161848,-28.13761 z" id="path1475" inkscape:connector-curvature="0" sodipodi:nodetypes="cccc" />
    <path style="display:inline;opacity:1;fill:#e2e2e8;fill-opacity:1;fill-rule:nonzero;stroke:none;stroke-width:4.8;stroke-linecap:square;stroke-linejoin:round;stroke-miterlimit:4;stroke-dasharray:none;stroke-dashoffset:44.0315;stroke-opacity:1;paint-order:fill markers stroke" inkscape:transform-center-x="-1.6941618" inkscape:transform-center-y="-1.533487" d="m 107.56377,63.169302 -5.31216,20.938418 c 6.65432,1.148893 10.27522,5.351622 18.25423,3.703926 -1.66129,-0.49817 -2.51196,-2.751391 -3.10142,-4.474518 2.50281,1.576236 2.9883,-1.284486 5.06218,-1.709832 -8.39979,-3.534389 -9.65766,-10.478436 -14.90283,-18.457994 z" id="path895-4" inkscape:connector-curvature="0" sodipodi:nodetypes="cccccc" />
    <path sodipodi:type="star" style="display:inline;opacity:1;fill:#fcc24f;fill-opacity:1;fill-rule:nonzero;stroke:none;stroke-width:4.8;stroke-linecap:square;stroke-linejoin:round;stroke-miterlimit:4;stroke-dasharray:none;stroke-dashoffset:44.0315;stroke-opacity:1;paint-order:fill markers stroke" id="path1288-6-3-0-4" sodipodi:sides="3" sodipodi:cx="67.374252" sodipodi:cy="23.061756" sodipodi:r1="4.7076631" sodipodi:r2="4.0769558" sodipodi:arg1="-2.3561945" sodipodi:arg2="-1.3089969" inkscape:flatsided="true" inkscape:rounded="0" inkscape:randomized="0" d="m 64.045432,19.732936 7.876074,2.110387 -5.765686,5.765686 z" transform="matrix(0.96592583,-0.25881905,-0.25881905,-0.96592583,-3.3263887,121.66309)" inkscape:transform-center-x="-10.677836" inkscape:transform-center-y="9.0714274" />
    <path style="opacity:1;fill:#dadae1;fill-opacity:1;fill-rule:nonzero;stroke:none;stroke-width:4.8;stroke-linecap:square;stroke-linejoin:round;stroke-miterlimit:4;stroke-dasharray:none;stroke-dashoffset:44.0315;stroke-opacity:1;paint-order:fill markers stroke" inkscape:transform-center-x="1.6941599" inkscape:transform-center-y="-1.533487" d="m 71.194862,63.169302 5.312159,20.938418 c -6.654314,1.148893 -10.275216,5.351622 -18.254232,3.703926 1.661295,-0.49817 2.511961,-2.751391 3.101417,-4.474518 -2.502802,1.576236 -2.988283,-1.284486 -5.062175,-1.709832 8.399796,-3.534389 9.657672,-10.478436 14.902831,-18.457994 z" id="path895" inkscape:connector-curvature="0" sodipodi:nodetypes="cccccc" />
    <path style="display:inline;opacity:1;fill:#dadae1;fill-opacity:1;fill-rule:nonzero;stroke:none;stroke-width:4.8;stroke-linecap:square;stroke-linejoin:round;stroke-miterlimit:4;stroke-dasharray:none;stroke-dashoffset:44.0315;stroke-opacity:1;paint-order:fill markers stroke" inkscape:transform-center-x="3.1268527" inkscape:transform-center-y="1.2107879" d="M 118.74934,91.321162 C 111.45638,82.796883 110.79213,70.961001 107.8306,58.755007 L 86.453923,72.412513 c 10.935419,8.529891 15.833507,21.636412 32.295417,18.908649 z" id="path877-3" inkscape:connector-curvature="0" sodipodi:nodetypes="cccc" />
    <path style="opacity:1;fill:#e2e2e8;fill-opacity:1;fill-rule:nonzero;stroke:none;stroke-width:4.8;stroke-linecap:square;stroke-linejoin:round;stroke-miterlimit:4;stroke-dasharray:none;stroke-dashoffset:44.0315;stroke-opacity:1;paint-order:fill markers stroke" inkscape:transform-center-x="-3.12686" inkscape:transform-center-y="1.2107881" d="m 61.136639,91.599082 c 7.292964,-8.524279 6.751193,-21.623604 9.712729,-33.829597 L 92.226037,71.42699 C 81.290617,79.956882 77.598544,94.326845 61.136639,91.599082 Z" id="path877" inkscape:connector-curvature="0" sodipodi:nodetypes="cccc" />
    <path style="opacity:1;fill:#f1dfcd;fill-opacity:1;fill-rule:nonzero;stroke:none;stroke-width:11.265;stroke-linecap:square;stroke-linejoin:round;stroke-miterlimit:4;stroke-dasharray:none;stroke-dashoffset:44.0315;stroke-opacity:1;paint-order:fill markers stroke" inkscape:transform-center-x="-0.30471263" inkscape:transform-center-y="2.6515044" d="m 35.656078,91.893137 -3.088966,7.187039 c -6.033125,-1.087073 -7.117038,5.289104 -10.952332,4.407534 -3.033116,-0.69719 -7.202079,-3.94845 -6.270229,-6.917886 2.080248,-6.628915 14.817545,-4.07026 20.311527,-4.676687 z" id="path867" inkscape:connector-curvature="0" sodipodi:nodetypes="ccaac" />
    <path style="fill:#7a9b89;fill-opacity:1;fill-rule:evenodd;stroke-width:0.264583" d="m 79.707252,87.877545 5.624925,-0.549448 8.769696,0.01262 4.050436,2.724427 L 95.04513,96.477543 81.512,96.011152 Z" id="rect847" inkscape:connector-curvature="0" sodipodi:nodetypes="ccccccc" />
    <rect style="fill:#f1dfcd;fill-opacity:1;fill-rule:evenodd;stroke-width:0.264583" id="rect842" width="11.528275" height="26.153551" x="83.482826" y="65.705048" />
    <path style="opacity:1;fill:#736e67;fill-opacity:1;fill-rule:nonzero;stroke:none;stroke-width:11.265;stroke-linecap:square;stroke-linejoin:round;stroke-miterlimit:4;stroke-dasharray:none;stroke-dashoffset:44.0315;stroke-opacity:1;paint-order:fill markers stroke" inkscape:transform-center-x="0.11811851" inkscape:transform-center-y="2.0710692" d="m 83.482824,91.858602 2e-6,-26.153554 H 95.0111 v 20.221726 z" id="path850" inkscape:connector-curvature="0" sodipodi:nodetypes="ccccc" />
    <path style="fill:#f7ede2;fill-opacity:1;fill-rule:evenodd;stroke-width:0.264583" d="m 74.347229,59.765533 h 29.920731 c 0,0 1.81906,16.138596 -3.46721,22.217831 -2.522812,2.901247 -11.685776,4.738402 -11.685776,4.738402 0,0 -8.867561,-1.900265 -11.300537,-4.738402 -5.236269,-6.108257 -3.467208,-22.217831 -3.467208,-22.217831 z" id="rect836" inkscape:connector-curvature="0" sodipodi:nodetypes="ccscsc" />
    <g id="g1126" transform="translate(-3.137467,3.02241)">
      <rect y="68.404526" x="95.127159" height="8.4523983" width="9.0871639" id="rect940" style="fill:#b7b1a5;fill-opacity:1;fill-rule:evenodd;stroke-width:0.264583" />
      <path inkscape:connector-curvature="0" id="rect940-4" d="m 95.127269,68.40458 v 0.91054 l 3.133143,3.13314 -3.133143,3.133143 v 1.275374 h 1.748732 l 2.896462,-2.896463 2.896467,2.896463 h 1.54564 v -1.477944 l -2.93005,-2.930573 2.93005,-2.930051 v -1.023194 l -0.0904,-0.09043 h -1.82005 l -2.531627,2.531629 -2.531628,-2.531629 z" style="display:inline;fill:#8f8572;fill-opacity:1;fill-rule:evenodd;stroke-width:0.264583" />
    </g>
    <path style="fill:#e2e2e8;fill-opacity:1;fill-rule:evenodd;stroke-width:0.264583" d="m 95.076336,46.744702 c 5.434774,0.781321 10.587414,0.39879 14.805384,-3.839197 -0.47152,3.405445 -0.24598,7.096054 -3.92414,9.18969 3.98891,-1.636142 7.91234,-2.595531 11.44737,0.458413 -3.85377,-0.93236 -5.69867,1.605159 -7.95833,3.426251 l 9.64213,21.444317 -12.55828,-13.203907 c 4.64907,8.287446 2.35788,12.635828 1.67597,17.897579 -0.3606,-6.701964 -5.26962,-11.805826 -11.244657,-16.535147 l -4.768241,-2.17498 z" id="rect874" inkscape:connector-curvature="0" sodipodi:nodetypes="ccccccccccc" />
    <path style="opacity:1;fill:#8eaa9b;fill-opacity:1;fill-rule:nonzero;stroke:none;stroke-width:11.265;stroke-linecap:square;stroke-linejoin:round;stroke-miterlimit:4;stroke-dasharray:none;stroke-dashoffset:44.0315;stroke-opacity:1;paint-order:fill markers stroke" inkscape:transform-center-x="-0.59058683" inkscape:transform-center-y="1.366604" d="m 81.512,96.011154 -1.804743,-8.133605 9.160418,3.248833 9.284634,-1.061236 -3.107179,6.412397 z" id="path844" inkscape:connector-curvature="0" sodipodi:nodetypes="cccccc" />
    <path style="opacity:1;fill:#8eaa9b;fill-opacity:1;fill-rule:nonzero;stroke:none;stroke-width:11.265;stroke-linecap:square;stroke-linejoin:round;stroke-miterlimit:4;stroke-dasharray:none;stroke-dashoffset:44.0315;stroke-opacity:1;paint-order:fill markers stroke" inkscape:transform-center-x="2.4864795" inkscape:transform-center-y="0.67740069" d="m 96.71745,130.61563 -19.771465,-7.37223 -2.653072,-25.97157 2.688917,-3.364056 21.720058,-0.0046 3.906272,3.551755 z" id="path853" inkscape:connector-curvature="0" sodipodi:nodetypes="ccccccc" />
    <path style="fill:#3b3b4a;fill-opacity:1;fill-rule:evenodd;stroke-width:0.264583" d="m 73.76638,140.78094 h 28.46421 l 1.73725,14.43255 -31.537808,-0.53453 z" id="rect1236" inkscape:connector-curvature="0" sodipodi:nodetypes="ccccc" />
    <path style="opacity:1;fill:#8eaa9b;fill-opacity:1;fill-rule:nonzero;stroke:none;stroke-width:11.265;stroke-linecap:square;stroke-linejoin:round;stroke-miterlimit:4;stroke-dasharray:none;stroke-dashoffset:44.0315;stroke-opacity:1;paint-order:fill markers stroke" inkscape:transform-center-x="-0.013064374" inkscape:transform-center-y="-4.3708629" d="m 76.633607,114.25572 21.804701,0.5448 2.213482,11.02198 3.82817,19.06231 -2.71234,2.56942 -26.278419,-0.56697 -3.200849,-2.28795 0.962585,-16.15537 z" id="path856" inkscape:connector-curvature="0" sodipodi:nodetypes="ccccccccc" />
    <path style="opacity:1;fill:#8eaa9b;fill-opacity:1;fill-rule:nonzero;stroke:none;stroke-width:11.265;stroke-linecap:square;stroke-linejoin:round;stroke-miterlimit:4;stroke-dasharray:none;stroke-dashoffset:44.0315;stroke-opacity:1;paint-order:fill markers stroke" inkscape:transform-center-x="-1.6628945" inkscape:transform-center-y="-0.2728307" d="M 76.98183,93.907774 86.707482,114.88941 58.884686,106.7052 61.955105,94.376664 Z" id="path859" inkscape:connector-curvature="0" sodipodi:nodetypes="ccccc" />
    <path style="opacity:1;fill:#8eaa9b;fill-opacity:1;fill-rule:nonzero;stroke:none;stroke-width:11.265;stroke-linecap:square;stroke-linejoin:round;stroke-miterlimit:4;stroke-dasharray:none;stroke-dashoffset:44.0315;stroke-opacity:1;paint-order:fill markers stroke" inkscape:transform-center-x="-3.4309641" inkscape:transform-center-y="0.53689503" d="m 66.838944,105.26775 -24.959931,5.91289 -6.490959,-3.51027 -0.700039,-5.86008 -3.71598,-1.60295 1.527102,-10.062559 3.861566,0.58622 1.009038,-2.366243 24.585364,6.011906 z" id="path862" inkscape:connector-curvature="0" sodipodi:nodetypes="cccccccccc" />
    <path style="opacity:1;fill:#f1dfcd;fill-opacity:1;fill-rule:nonzero;stroke:none;stroke-width:11.265;stroke-linecap:square;stroke-linejoin:round;stroke-miterlimit:4;stroke-dasharray:none;stroke-dashoffset:44.0315;stroke-opacity:1;paint-order:fill markers stroke" inkscape:transform-center-x="0.30471274" inkscape:transform-center-y="2.6515044" d="m 140.02764,91.888534 3.08896,7.18704 c 6.03313,-1.08707 7.11704,5.289106 10.95234,4.407536 3.03311,-0.69719 7.20207,-3.948446 6.27023,-6.917886 -2.08025,-6.62891 -14.81755,-4.07026 -20.31153,-4.67669 z" id="path867-2" inkscape:connector-curvature="0" sodipodi:nodetypes="ccaac" />
    <path style="opacity:1;fill:#8eaa9b;fill-opacity:1;fill-rule:nonzero;stroke:none;stroke-width:11.265;stroke-linecap:square;stroke-linejoin:round;stroke-miterlimit:4;stroke-dasharray:none;stroke-dashoffset:44.0315;stroke-opacity:1;paint-order:fill markers stroke" inkscape:transform-center-x="1.6628946" inkscape:transform-center-y="-0.2728307" d="m 98.701888,93.903174 -9.72565,20.981636 27.822792,-8.18421 -3.07042,-12.328536 z" id="path859-0" inkscape:connector-curvature="0" sodipodi:nodetypes="ccccc" />
    <path style="fill:#dde5e1;fill-opacity:1;fill-rule:evenodd;stroke-width:0.264583" d="m 88.449086,103.45836 1.386887,0.4394 0.434313,13.36347 -1.634869,11.61877 -1.538956,-12.01967 z" id="rect865" inkscape:connector-curvature="0" sodipodi:nodetypes="cccccc" />
    <path style="opacity:1;fill:#8eaa9b;fill-opacity:1;fill-rule:nonzero;stroke:none;stroke-width:11.265;stroke-linecap:square;stroke-linejoin:round;stroke-miterlimit:4;stroke-dasharray:none;stroke-dashoffset:44.0315;stroke-opacity:1;paint-order:fill markers stroke" inkscape:transform-center-x="3.4309642" inkscape:transform-center-y="0.53689503" d="m 108.84478,105.26315 24.95992,5.91289 6.49096,-3.51027 0.70004,-5.86008 3.71598,-1.60295 -1.5271,-10.062556 -3.86157,0.58622 -1.00903,-2.36624 -24.58537,6.0119 z" id="path862-7" inkscape:connector-curvature="0" sodipodi:nodetypes="cccccccccc" />
    <path style="opacity:1;fill:#dde5e1;fill-opacity:1;fill-rule:nonzero;stroke:none;stroke-width:11.265;stroke-linecap:square;stroke-linejoin:round;stroke-miterlimit:4;stroke-dasharray:none;stroke-dashoffset:44.0315;stroke-opacity:1;paint-order:fill markers stroke" inkscape:transform-center-x="-0.68160054" inkscape:transform-center-y="-0.10022736" d="m 91.057273,97.497301 -1.247878,5.092179 -0.02584,7.93453 -0.807317,2.23468 -1.000435,-3.00607 0.125781,-7.06363 -1.331269,-5.178439 z" id="path955" inkscape:connector-curvature="0" sodipodi:nodetypes="cccccccc" />
    <path style="opacity:1;fill:#dde5e1;fill-opacity:1;fill-rule:nonzero;stroke:none;stroke-width:11.265;stroke-linecap:square;stroke-linejoin:round;stroke-miterlimit:4;stroke-dasharray:none;stroke-dashoffset:44.0315;stroke-opacity:1;paint-order:fill markers stroke" inkscape:transform-center-x="-0.35565414" inkscape:transform-center-y="-0.8032007" d="m 89.809395,101.45555 -0.875216,0.72503 -5.193801,-0.48136 -3.921342,-1.802096 1.506695,-1.94433 3.741547,2.344976 z" id="path958" inkscape:connector-curvature="0" sodipodi:nodetypes="ccccccc" />
    <path style="display:inline;opacity:1;fill:#dde5e1;fill-opacity:1;fill-rule:nonzero;stroke:none;stroke-width:11.265;stroke-linecap:square;stroke-linejoin:round;stroke-miterlimit:4;stroke-dasharray:none;stroke-dashoffset:44.0315;stroke-opacity:1;paint-order:fill markers stroke" inkscape:transform-center-x="0.35565414" inkscape:transform-center-y="-0.8032007" d="m 88.058963,101.45555 0.875216,0.72503 5.193801,-0.48136 3.921342,-1.802096 -1.506695,-1.94433 -3.741547,2.344976 z" id="path958-3" inkscape:connector-curvature="0" sodipodi:nodetypes="ccccccc" />
    <path style="display:inline;opacity:1;fill:#dde5e1;fill-opacity:1;fill-rule:nonzero;stroke:none;stroke-width:11.265;stroke-linecap:square;stroke-linejoin:round;stroke-miterlimit:4;stroke-dasharray:none;stroke-dashoffset:44.0315;stroke-opacity:1;paint-order:fill markers stroke" inkscape:transform-center-x="-0.35565414" inkscape:transform-center-y="-0.8032007" d="m 88.449086,103.45836 -0.173633,1.66047 -5.62574,0.0694 -6.345643,-2.01332 0.821614,-2.38409 5.339024,2.99596 z" id="path958-4" inkscape:connector-curvature="0" sodipodi:nodetypes="ccccccc" />
    <path style="display:inline;opacity:1;fill:#dde5e1;fill-opacity:1;fill-rule:nonzero;stroke:none;stroke-width:11.265;stroke-linecap:square;stroke-linejoin:round;stroke-miterlimit:4;stroke-dasharray:none;stroke-dashoffset:44.0315;stroke-opacity:1;paint-order:fill markers stroke" inkscape:transform-center-x="0.35565414" inkscape:transform-center-y="-0.8032007" d="m 88.449086,103.45836 0.173633,1.66047 5.62574,0.0694 6.416521,-1.9897 -0.892492,-2.40771 -5.339024,2.99596 z" id="path958-4-5" inkscape:connector-curvature="0" sodipodi:nodetypes="ccccccc" />
    <path style="display:inline;opacity:1;fill:#dde5e1;fill-opacity:1;fill-rule:nonzero;stroke:none;stroke-width:11.265;stroke-linecap:square;stroke-linejoin:round;stroke-miterlimit:4;stroke-dasharray:none;stroke-dashoffset:44.0315;stroke-opacity:1;paint-order:fill markers stroke" inkscape:transform-center-x="-0.37676114" inkscape:transform-center-y="-0.5294757" d="m 88.669966,105.5913 0.351932,1.632 -5.797035,1.74649 -6.249116,-1.53274 -0.959985,-2.46194 7.541931,2.5551 z" id="path958-4-4" inkscape:connector-curvature="0" sodipodi:nodetypes="ccccccc" />
    <path style="display:inline;opacity:1;fill:#dde5e1;fill-opacity:1;fill-rule:nonzero;stroke:none;stroke-width:11.265;stroke-linecap:square;stroke-linejoin:round;stroke-miterlimit:4;stroke-dasharray:none;stroke-dashoffset:44.0315;stroke-opacity:1;paint-order:fill markers stroke" inkscape:transform-center-x="0.37676114" inkscape:transform-center-y="-0.5294757" d="m 88.669966,105.5913 -0.351932,1.632 5.797035,1.74649 6.249121,-1.53274 0.95999,-2.46194 -7.541941,2.5551 z" id="path958-4-4-2" inkscape:connector-curvature="0" sodipodi:nodetypes="ccccccc" />
    <path style="display:inline;opacity:1;fill:#dde5e1;fill-opacity:1;fill-rule:nonzero;stroke:none;stroke-width:11.265;stroke-linecap:square;stroke-linejoin:round;stroke-miterlimit:4;stroke-dasharray:none;stroke-dashoffset:44.0315;stroke-opacity:1;paint-order:fill markers stroke" inkscape:transform-center-x="-0.37676114" inkscape:transform-center-y="-0.5294757" d="m 88.2032,108.32505 0.351932,1.632 -4.852094,3.68361 -4.784458,-1.34375 -0.959985,-2.46194 6.077273,2.12988 z" id="path958-4-4-8" inkscape:connector-curvature="0" sodipodi:nodetypes="ccccccc" />
    <path style="display:inline;opacity:1;fill:#dde5e1;fill-opacity:1;fill-rule:nonzero;stroke:none;stroke-width:11.265;stroke-linecap:square;stroke-linejoin:round;stroke-miterlimit:4;stroke-dasharray:none;stroke-dashoffset:44.0315;stroke-opacity:1;paint-order:fill markers stroke" inkscape:transform-center-x="0.37676114" inkscape:transform-center-y="-0.5294757" d="m 88.907064,108.32505 -0.351932,1.632 4.852094,3.68361 4.784458,-1.34375 0.959984,-2.46194 -6.077272,2.12988 z" id="path958-4-4-8-2" inkscape:connector-curvature="0" sodipodi:nodetypes="ccccccc" />
    <path style="fill:#dadae1;fill-opacity:1;fill-rule:evenodd;stroke-width:0.264583" d="m 67.792304,46.647777 c 7.281965,3.328151 17.214335,1.837378 27.284032,0.09692 l -1.621505,17.321494 c -4.746642,0.12401 -11.650764,3.966042 -18.782557,5.828771 -8.311556,2.170863 -16.689303,2.590821 -18.573761,5.760137 0,0 0.04558,-7.185241 8.931467,-8.944118 -2.654389,-1.871165 -6.14555,-0.674166 -9.546988,0.193848 5.043438,-3.159569 7.776834,-9.679203 15.366376,-9.135349 -3.937637,-2.572218 -3.695624,-6.769857 -3.057064,-11.121708 z" id="rect868" inkscape:connector-curvature="0" sodipodi:nodetypes="cccsccccc" />
    <path style="opacity:1;fill:#ffffff;fill-opacity:1;fill-rule:nonzero;stroke:none;stroke-width:4.8;stroke-linecap:square;stroke-linejoin:round;stroke-miterlimit:4;stroke-dasharray:none;stroke-dashoffset:44.0315;stroke-opacity:1;paint-order:fill markers stroke" d="m 82.487114,74.285767 -5.687921,1.869467 5.687921,3.333569 5.128525,-3.333569 z" id="path1150" inkscape:connector-curvature="0" sodipodi:nodetypes="ccccc" />
    <path style="opacity:1;fill:#dadae1;fill-opacity:1;fill-rule:nonzero;stroke:none;stroke-width:4.8;stroke-linecap:square;stroke-linejoin:round;stroke-miterlimit:4;stroke-dasharray:none;stroke-dashoffset:44.0315;stroke-opacity:1;paint-order:fill markers stroke" d="m 80.640977,73.523703 c 4.472452,-5.251145 4.523572,-12.270822 6.020013,-18.71237 l 14.51797,4.450591 -8.048728,14.923261 0.324599,-10.118989 c -3.223094,3.585719 -7.015657,7.373929 -12.813854,9.457507 z" id="path871" inkscape:connector-curvature="0" sodipodi:nodetypes="cccccc" inkscape:transform-center-y="2.3844356e-06" />
    <path style="opacity:1;fill:#709387;fill-opacity:0.358779;fill-rule:nonzero;stroke:none;stroke-width:4.8;stroke-linecap:square;stroke-linejoin:round;stroke-miterlimit:4;stroke-dasharray:none;stroke-dashoffset:44.0315;stroke-opacity:1;paint-order:fill markers stroke" inkscape:transform-center-x="-0.90203335" inkscape:transform-center-y="-0.90595573" d="m 100.09271,111.61494 -1.076932,6.06113 5.464262,27.20868 -2.71249,2.56935 -26.278349,-0.56684 14.59588,-10.72627 z" id="path1225" inkscape:connector-curvature="0" sodipodi:nodetypes="ccccccc" />
    <path style="opacity:1;fill:#709387;fill-opacity:0.358779;fill-rule:nonzero;stroke:none;stroke-width:4.8;stroke-linecap:square;stroke-linejoin:round;stroke-miterlimit:4;stroke-dasharray:none;stroke-dashoffset:44.0315;stroke-opacity:1;paint-order:fill markers stroke" inkscape:transform-center-x="-0.10022431" inkscape:transform-center-y="1.1827307" d="m 133.80487,111.17621 -17.00584,-4.47561 16.40935,-3.6808 5.1056,-14.659636 1.00903,2.36624 1.67263,11.079316 -0.69998,5.86005 z" id="path1228" inkscape:connector-curvature="0" sodipodi:nodetypes="cccccccc" />
    <path sodipodi:type="star" style="opacity:1;fill:#25252f;fill-opacity:1;fill-rule:nonzero;stroke:none;stroke-width:4.8;stroke-linecap:square;stroke-linejoin:round;stroke-miterlimit:4;stroke-dasharray:none;stroke-dashoffset:44.0315;stroke-opacity:1;paint-order:fill markers stroke" id="path1239" sodipodi:sides="3" sodipodi:cx="88.126587" sodipodi:cy="154.77779" sodipodi:r1="6.9931979" sodipodi:r2="3.496599" sodipodi:arg1="-1.5707963" sodipodi:arg2="-0.52359878" inkscape:flatsided="true" inkscape:rounded="0" inkscape:randomized="0" d="m 88.126587,147.78459 6.056287,10.4898 -12.112574,0 z" inkscape:transform-center-x="1.1464286e-06" inkscape:transform-center-y="-1.7483014" />
    <path sodipodi:type="star" style="opacity:1;fill:#fcc24f;fill-opacity:1;fill-rule:nonzero;stroke:none;stroke-width:4.8;stroke-linecap:square;stroke-linejoin:round;stroke-miterlimit:4;stroke-dasharray:none;stroke-dashoffset:44.0315;stroke-opacity:1;paint-order:fill markers stroke" id="path1288" sodipodi:sides="3" sodipodi:cx="67.374252" sodipodi:cy="23.061756" sodipodi:r1="4.7076631" sodipodi:r2="4.0769558" sodipodi:arg1="-2.3561945" sodipodi:arg2="-1.3089969" inkscape:flatsided="true" inkscape:rounded="0" inkscape:randomized="0" d="m 64.045432,19.732936 7.876074,2.110387 -5.765686,5.765686 z" transform="rotate(15,53.828014,-19.938737)" inkscape:transform-center-x="-10.677827" inkscape:transform-center-y="-9.0714286" />
    <path sodipodi:type="star" style="display:inline;opacity:1;fill:#fcc24f;fill-opacity:1;fill-rule:nonzero;stroke:none;stroke-width:4.8;stroke-linecap:square;stroke-linejoin:round;stroke-miterlimit:4;stroke-dasharray:none;stroke-dashoffset:44.0315;stroke-opacity:1;paint-order:fill markers stroke" id="path1288-1" sodipodi:sides="3" sodipodi:cx="67.374252" sodipodi:cy="23.061756" sodipodi:r1="4.7076631" sodipodi:r2="4.0769558" sodipodi:arg1="-2.3561945" sodipodi:arg2="-1.3089969" inkscape:flatsided="true" inkscape:rounded="0" inkscape:randomized="0" d="m 64.045432,19.732936 7.876074,2.110387 -5.765686,5.765686 z" transform="matrix(-0.96592583,0.25881905,0.25881905,0.96592583,107.24541,-1.365031)" inkscape:transform-center-x="0.92248926" inkscape:transform-center-y="0.81754431" />
    <path sodipodi:type="star" style="display:inline;opacity:1;fill:#fcc24f;fill-opacity:1;fill-rule:nonzero;stroke:none;stroke-width:4.8;stroke-linecap:square;stroke-linejoin:round;stroke-miterlimit:4;stroke-dasharray:none;stroke-dashoffset:44.0315;stroke-opacity:1;paint-order:fill markers stroke" id="path1288-6" sodipodi:sides="3" sodipodi:cx="67.374252" sodipodi:cy="23.061756" sodipodi:r1="4.7076631" sodipodi:r2="4.0769558" sodipodi:arg1="-2.3561945" sodipodi:arg2="-1.3089969" inkscape:flatsided="true" inkscape:rounded="0" inkscape:randomized="0" d="m 64.045432,19.732936 7.876074,2.110387 -5.765686,5.765686 z" transform="rotate(75,91.072351,36.221964)" inkscape:transform-center-x="-11.429628" inkscape:transform-center-y="3.6923159" />
    <path sodipodi:type="star" style="display:inline;opacity:1;fill:#fcc24f;fill-opacity:1;fill-rule:nonzero;stroke:none;stroke-width:4.8;stroke-linecap:square;stroke-linejoin:round;stroke-miterlimit:4;stroke-dasharray:none;stroke-dashoffset:44.0315;stroke-opacity:1;paint-order:fill markers stroke" id="path1288-1-2" sodipodi:sides="3" sodipodi:cx="67.374252" sodipodi:cy="23.061756" sodipodi:r1="4.7076631" sodipodi:r2="4.0769558" sodipodi:arg1="-2.3561945" sodipodi:arg2="-1.3089969" inkscape:flatsided="true" inkscape:rounded="0" inkscape:randomized="0" d="m 64.045432,19.732936 7.876074,2.110387 -5.765686,5.765686 z" transform="matrix(-0.70710679,-0.70710678,-0.70710678,0.70710679,146.30327,41.25891)" inkscape:transform-center-x="-0.59611563" inkscape:transform-center-y="0.62911259" />
    <path sodipodi:type="star" style="display:inline;opacity:1;fill:#fcc24f;fill-opacity:1;fill-rule:nonzero;stroke:none;stroke-width:4.8;stroke-linecap:square;stroke-linejoin:round;stroke-miterlimit:4;stroke-dasharray:none;stroke-dashoffset:44.0315;stroke-opacity:1;paint-order:fill markers stroke" id="path1288-6-3" sodipodi:sides="3" sodipodi:cx="67.374252" sodipodi:cy="23.061756" sodipodi:r1="4.7076631" sodipodi:r2="4.0769558" sodipodi:arg1="-2.3561945" sodipodi:arg2="-1.3089969" inkscape:flatsided="true" inkscape:rounded="0" inkscape:randomized="0" d="m 64.045432,19.732936 7.876074,2.110387 -5.765686,5.765686 z" transform="rotate(135,96.456246,44.062773)" inkscape:transform-center-x="-4.282548" inkscape:transform-center-y="12.763744" />
    <path sodipodi:type="star" style="display:inline;opacity:1;fill:#fcc24f;fill-opacity:1;fill-rule:nonzero;stroke:none;stroke-width:4.8;stroke-linecap:square;stroke-linejoin:round;stroke-miterlimit:4;stroke-dasharray:none;stroke-dashoffset:44.0315;stroke-opacity:1;paint-order:fill markers stroke" id="path1288-1-2-7" sodipodi:sides="3" sodipodi:cx="67.374252" sodipodi:cy="23.061756" sodipodi:r1="4.7076631" sodipodi:r2="4.0769558" sodipodi:arg1="-2.3561945" sodipodi:arg2="-1.3089969" inkscape:flatsided="true" inkscape:rounded="0" inkscape:randomized="0" d="m 64.045432,19.732936 7.876074,2.110387 -5.765686,5.765686 z" transform="matrix(0.25881905,-0.96592583,-0.96592583,-0.25881905,129.06085,96.149927)" inkscape:transform-center-x="2.0121462" inkscape:transform-center-y="-0.18842883" />
    <path sodipodi:type="star" style="display:inline;opacity:1;fill:#fcc24f;fill-opacity:1;fill-rule:nonzero;stroke:none;stroke-width:4.8;stroke-linecap:square;stroke-linejoin:round;stroke-miterlimit:4;stroke-dasharray:none;stroke-dashoffset:44.0315;stroke-opacity:1;paint-order:fill markers stroke" id="path1288-1-2-7-4" sodipodi:sides="3" sodipodi:cx="67.374252" sodipodi:cy="23.061756" sodipodi:r1="4.7076631" sodipodi:r2="4.0769558" sodipodi:arg1="-2.3561945" sodipodi:arg2="-1.3089969" inkscape:flatsided="true" inkscape:rounded="0" inkscape:randomized="0" d="m 64.045432,19.732936 7.876074,2.110387 -5.765686,5.765686 z" transform="matrix(0.96592583,-0.25881904,-0.25881904,-0.96592583,72.760571,108.41701)" inkscape:transform-center-x="-0.92248424" inkscape:transform-center-y="-0.81754178" />
    <path sodipodi:type="star" style="display:inline;opacity:1;fill:#fcc24f;fill-opacity:1;fill-rule:nonzero;stroke:none;stroke-width:4.8;stroke-linecap:square;stroke-linejoin:round;stroke-miterlimit:4;stroke-dasharray:none;stroke-dashoffset:44.0315;stroke-opacity:1;paint-order:fill markers stroke" id="path1288-1-2-7-4-3" sodipodi:sides="3" sodipodi:cx="67.374252" sodipodi:cy="23.061756" sodipodi:r1="4.7076631" sodipodi:r2="4.0769558" sodipodi:arg1="-2.3561945" sodipodi:arg2="-1.3089969" inkscape:flatsided="true" inkscape:rounded="0" inkscape:randomized="0" d="m 64.045432,19.732936 7.876074,2.110387 -5.765686,5.765686 z" transform="rotate(-165,60.759378,47.148939)" inkscape:transform-center-x="0.92248429" inkscape:transform-center-y="-0.81754216" />
    <path style="opacity:1;fill:#dde5e1;fill-opacity:1;fill-rule:nonzero;stroke:none;stroke-width:4.8;stroke-linecap:square;stroke-linejoin:round;stroke-miterlimit:4;stroke-dasharray:none;stroke-dashoffset:44.0315;stroke-opacity:1;paint-order:fill markers stroke" inkscape:transform-center-x="-0.17447342" inkscape:transform-center-y="-0.26575034" d="m 92.174578,119.49963 2.256929,-2.80329 2.95462,-1.87023 -1.31792,3.73839 z" id="path1529" inkscape:connector-curvature="0" sodipodi:nodetypes="ccccc" />
    <path style="display:inline;opacity:1;fill:#dde5e1;fill-opacity:1;fill-rule:nonzero;stroke:none;stroke-width:4.8;stroke-linecap:square;stroke-linejoin:round;stroke-miterlimit:4;stroke-dasharray:none;stroke-dashoffset:44.0315;stroke-opacity:1;paint-order:fill markers stroke" inkscape:transform-center-x="0.17447342" inkscape:transform-center-y="-0.26575034" d="m 84.958301,119.49963 -2.256929,-2.80329 -2.95462,-1.87023 1.365167,3.50216 z" id="path1529-8" inkscape:connector-curvature="0" sodipodi:nodetypes="ccccc" />
    <path sodipodi:type="star" style="opacity:1;fill:#ceeef4;fill-opacity:1;fill-rule:nonzero;stroke:none;stroke-width:4.8;stroke-linecap:square;stroke-linejoin:round;stroke-miterlimit:4;stroke-dasharray:none;stroke-dashoffset:44.0315;stroke-opacity:1;paint-order:fill markers stroke" id="path1547" sodipodi:sides="3" sodipodi:cx="82.487114" sodipodi:cy="75.640182" sodipodi:r1="2.7570176" sodipodi:r2="1.3785086" sodipodi:arg1="1.5707963" sodipodi:arg2="2.6179939" inkscape:flatsided="true" inkscape:rounded="0" inkscape:randomized="0" d="m 82.487114,78.3972 -2.387647,-4.135526 4.775294,0 z" inkscape:transform-center-x="1.3866571e-06" inkscape:transform-center-y="0.68925724" />
  </g>
</svg>
