<?xml version="1.0" encoding="UTF-8" standalone="no"?>
<!-- Created with Inkscape (http://www.inkscape.org/) -->

<svg width="204.48511mm" height="359.45535mm" viewBox="0 0 204.48511 359.45535" version="1.1" id="svg8" inkscape:version="1.3 (0e150ed6c4, 2023-07-21)" sodipodi:docname="снежаба.svg" xmlns:inkscape="http://www.inkscape.org/namespaces/inkscape" xmlns:sodipodi="http://sodipodi.sourceforge.net/DTD/sodipodi-0.dtd" xmlns="http://www.w3.org/2000/svg" xmlns:svg="http://www.w3.org/2000/svg" xmlns:rdf="http://www.w3.org/1999/02/22-rdf-syntax-ns#" xmlns:cc="http://creativecommons.org/ns#" xmlns:dc="http://purl.org/dc/elements/1.1/">
  <defs id="defs2" />
  <sodipodi:namedview id="base" pagecolor="#ffffff" bordercolor="#666666" borderopacity="1.0" inkscape:pageopacity="0.0" inkscape:pageshadow="2" inkscape:zoom="0.35" inkscape:cx="502.85714" inkscape:cy="328.57143" inkscape:document-units="mm" inkscape:current-layer="layer1" showgrid="false" showguides="false" inkscape:window-width="2467" inkscape:window-height="1413" inkscape:window-x="-32000" inkscape:window-y="-32000" inkscape:window-maximized="0" inkscape:showpageshadow="2" inkscape:pagecheckerboard="0" inkscape:deskcolor="#d1d1d1">
    <sodipodi:guide position="54.23958,237.84673" orientation="0,1" id="guide933" inkscape:locked="false" />
  </sodipodi:namedview>
  <metadata id="metadata5">
    <rdf:RDF>
      <cc:Work rdf:about="">
        <dc:format>image/svg+xml</dc:format>
        <dc:type rdf:resource="http://purl.org/dc/dcmitype/StillImage" />
        <dc:title />
      </cc:Work>
    </rdf:RDF>
  </metadata>
  <g inkscape:label="Layer 1" inkscape:groupmode="layer" id="layer1" transform="translate(49.136902,-33.928574)">
    <rect style="fill:#e3f0f4;fill-opacity:1;fill-rule:evenodd;stroke-width:0.264583" id="rect1133" width="204.48511" height="359.45535" x="-49.136902" y="33.928574" inkscape:export-xdpi="145" inkscape:export-ydpi="145" />
    <path style="opacity:1;fill:#87c5dc;fill-opacity:0.442748;fill-rule:nonzero;stroke:none;stroke-width:11.265;stroke-linecap:square;stroke-linejoin:round;stroke-miterlimit:4;stroke-dasharray:none;stroke-dashoffset:44.0315;stroke-opacity:1;paint-order:fill markers stroke" d="m 121.02448,56.472602 6.84081,11.848626 -15.25688,-0.007 0.002,3.902931 0.001,3.90225 0.002,3.90293 22.01318,0.0102 10.94338,18.95451 -22.52502,-2.8e-4 -10.35348,-17.93275 -3.38206,1.95264 -3.38275,1.95303 -3.38274,1.95303 6.97128,12.07462 -13.036017,-7.3e-4 -1.9e-4,16.056151 13.680347,-6.5e-4 -7.63359,13.20981 3.38037,1.95051 3.38068,1.94943 3.32572,1.9183 -0.002,3.83929 -0.002,3.90316 -0.001,3.35482 -2.90939,1.68113 -3.37869,1.95208 -3.37937,1.95246 10.99654,19.06889 -10.94326,18.95536 -11.262257,-19.50682 10.354097,-17.93312 -3.381977,-1.95329 -3.38266,-1.95289 -3.38268,-1.9529 -6.971966,12.07455 -6.517837,-11.28921 -13.903332,8.02846 6.840808,11.84864 -15.256873,-0.007 0.0019,3.90296 0.0014,3.90223 0.0019,3.90292 22.013173,0.01 10.943407,18.95454 -22.525067,-2.5e-4 -10.35277,-17.93152 -3.382048,1.95264 -3.382749,1.95302 -2.604302,1.5036 -2.609266,-1.50659 -3.383073,-1.9536 -3.382258,-1.95218 -10.354116,17.9331 -22.5246143,4.3e-4 11.2626693,-19.5067 20.707977,3.3e-4 7.8e-5,-3.90593 8.4e-5,-3.90592 -3.19e-4,-3.90661 -13.94216,2.2e-4 6.51778,-11.28919 -13.904036,-8.02763 -6.8403413,11.8479 -7.62466901,-13.21591 -3.37817299,1.95454 -3.3781775,1.95454 -3.3781791,1.95456 10.9972796,19.06849 -10.9432571,18.95534 -11.2620646,-19.50646 10.354101,-17.93311 -3.382663,-1.95289 -3.382673,-1.9529 -3.382659,-1.95287 -6.971281,12.07414 -6.518239,-11.28992 -13.904335,8.02674 6.840405,11.84793 -15.257556,-0.006 0.0024,3.90293 0.0024,3.90295 0.0024,3.90291 22.013862,0.01 10.943385,18.9545 -22.525021,-2.8e-4 -10.353862,-17.93341 -3.38275,1.95303 -3.38275,1.95303 -3.382065,1.95264 6.971279,12.07461 -13.036322,3.6e-4 1.2e-4,16.05506 13.680739,4e-5 -7.634276,13.2102 3.380674,1.94943 3.381069,1.95011 3.325714,1.91829 -0.0012,3.8393 -0.0012,3.90316 -0.0024,3.90245 15.257505,-0.006 -6.840337,11.84789 13.904039,8.02763 6.518071,-11.2903 6.971681,12.07531 3.382063,-1.95263 3.382751,-1.95304 3.382747,-1.95303 -10.353872,-17.93343 11.2622727,-19.50738 10.943385,18.95449 -10.9984457,19.06947 3.3790924,1.9531 3.3790953,1.95312 3.37909399,1.9531 7.62314001,-13.21669 6.8400093,11.84724 13.903934,-8.02744 -6.517849,-11.28925 13.94256,4.8e-4 -3.24e-4,-3.90663 9.2e-5,-3.90591 7.6e-5,-3.90593 -20.707573,3.8e-4 -11.2623533,-19.50698 21.8870363,-1.5e-4 11.01556,19.05886 3.380579,-1.95039 3.380578,-1.95039 2.586184,-1.49175 2.587665,1.49319 3.380661,1.94941 3.325725,1.91829 -0.0016,3.83931 -0.0017,3.90317 -9.94e-4,3.90274 15.256415,-0.007 -6.840336,11.8479 13.904729,8.02722 6.517378,-11.2899 6.971682,12.07532 3.38276,-1.95303 3.38274,-1.95303 3.382057,-1.95263 -10.353867,-17.93344 11.262277,-19.50737 10.94337,18.95448 -10.99775,19.06907 3.37909,1.9531 3.3791,1.95312 3.3791,1.9531 7.62243,-13.21631 6.84042,11.84794 13.90392,-8.02744 -6.51823,-11.28991 13.94324,5e-5 9e-5,-3.90591 8e-5,-3.90593 -6.1e-4,-3.90551 -20.70799,-3.4e-4 -11.26233,-19.50694 21.88703,-1.7e-4 11.01628,19.05843 3.38058,-1.95039 3.37988,-1.95 3.38127,-1.95078 -7.63362,-13.21076 13.68077,4e-5 -1.1e-4,-16.05506 -13.03563,-4e-5 6.97127,-12.07414 -3.38236,-1.95399 -3.38268,-1.95289 -3.38266,-1.95288 -10.35441,17.93419 -22.52391,2e-5 11.26157,-19.50697 20.70907,6.1e-4 8e-5,-3.90593 8e-5,-3.90591 -10e-4,-3.38013 2.92941,-1.6913 3.38275,-1.95303 3.38206,-1.95263 -10.35386,-17.93342 11.26226,-19.50738 10.94337,18.95448 -10.99775,19.06907 3.3791,1.95311 3.3791,1.95311 3.37909,1.9531 7.62244,-13.2163 6.84041,11.84794 13.90393,-8.02744 -6.51823,-11.28992 13.94325,7e-5 7e-5,-3.90593 9e-5,-3.90593 8e-5,-3.90591 -20.70866,8e-5 -11.26221,-19.50671 21.88703,-1.5e-4 11.01597,19.05861 3.38057,-1.95039 3.3799,-1.94999 3.38127,-1.9508 -7.63403,-13.21052 13.68074,5e-5 -8e-5,-16.055061 -13.03563,-4e-5 6.97128,-12.07415 -3.38237,-1.95399 -3.38268,-1.95287 -3.38267,-1.9529 -10.35439,17.93419 -22.52393,2e-5 11.26159,-19.50698 20.70906,6.1e-4 8e-5,-3.9059 8e-5,-3.90593 -0.001,-3.906908 -13.94147,-1.67e-4 6.51709,-11.288805 -13.90643,-8.026869 -6.84032,11.847901 -7.62363,-13.216516 -3.38007,1.952871 -3.37749,1.954151 -3.37938,1.952469 10.99686,19.068728 -10.94325,18.955335 -11.26183,-19.506065 10.35482,-17.933521 -3.38268,-1.952896 -3.38265,-1.952876 -3.38268,-1.952896 -6.97196,12.07455 -6.51785,-11.289235 z m 2.65883,58.569738 9.6131,-2e-5 12.27393,-1.4e-4 -2.94038,5.0933 -8.00328,13.86134 -21.90366,0.01 z m -168.788458,97.82069 9.612404,3.9e-4 12.273937,-1.5e-4 -2.939682,5.0929 -8.003285,13.86134 -21.903672,0.01 z m 158.657168,-67.14793 14.31295,-0.006 -0.32058,0.55571 -0.001,-3e-4 -6.84033,11.84791 z m -66.710895,40.36128 6.194476,10.72915 -12.38871,-1.3e-4 z m 94.605615,-31.78239 6.51624,11.28646 -13.03165,4.5e-4 z m -101.443071,58.56958 13.677474,-8.4e-4 -6.839995,11.83569 z m 27.201163,-6.8e-4 9.6131,-3e-5 12.273931,-1.5e-4 -2.940356,5.09333 -8.00329,13.86134 -21.903687,0.01 z" id="path1398" inkscape:connector-curvature="0" />
    <path style="fill:#c3efe2;fill-opacity:1;fill-rule:evenodd;stroke:#ffffff;stroke-width:11.265;stroke-linecap:square;stroke-linejoin:round;stroke-miterlimit:4;stroke-dasharray:none;stroke-opacity:1;paint-order:fill markers stroke" d="m 40.091351,96.041715 c -1.062752,0.009 -2.1413,0.124153 -3.223049,0.353984 l -39.74486,8.444441 c -1.554531,0.33028 -3.004976,0.87715 -4.331002,1.59681 l -0.800984,0.0786 0.0072,0.3793 c -5.203876,3.22644 -8.21377,9.26643 -7.393864,15.59078 -1.812612,0.45323 -3.814519,0.64896 -7.32255,1.52445 2.506584,1.81797 5.359527,3.00594 8.404654,3.84473 l 0.366903,1.72599 c 0.117636,0.55368 0.262988,1.09392 0.433049,1.62058 -2.681465,2.53502 -5.76648,4.7054 -8.697145,5.99808 3.372286,0.26445 8.185036,0.34932 12.164634,-0.0729 1.182257,1.27645 2.564032,2.34581 4.083471,3.17241 -0.610859,0.62295 -1.311354,1.21415 -2.115632,1.8371 1.921711,0.003 3.682907,-0.18516 5.359879,-0.50953 2.428592,0.69246 5.059584,0.81967 7.711157,0.25631 l 37.214269,-7.90649 a 16.347471,16.981962 0 0 0 4.337208,5.43326 l 0.09043,1.04955 c -10.542296,0.99703 -21.054454,6.07865 -22.597081,13.56713 -0.566301,2.74905 7.298238,1.93441 10.323404,4.1491 0.953109,0.69778 1.425787,1.69635 1.003036,3.20187 -0.925195,3.2949 0.563906,5.36869 3.303164,6.46162 -0.342715,1.9111 -0.677096,3.9671 -1.000972,6.14795 -11.738732,44.97699 -20.692041,71.55272 -67.960715,83.77886 6.03428,6.67596 12.486661,12.26492 19.419485,16.60467 a 16.347471,16.981962 0 0 0 -0.394806,3.65352 16.347471,16.981962 0 0 0 16.347321,16.98191 16.347471,16.981962 0 0 0 15.027507,-10.30531 c 6.392833,0.4916 13.11769,0.1202 20.204978,-1.19372 -0.92255,-8.44285 -1.415415,-16.88584 -1.611789,-25.32869 1.67767,0.57864 3.564202,1.07389 5.587762,1.48209 -0.643943,33.84822 -0.173937,68.0679 -9.265074,99.1004 h 41.275 12.962519 L 57.737815,345.66731 c 5.632979,-27.41417 7.703238,-56.38747 10.181299,-85.18189 1.176073,-0.1579 2.308463,-0.34981 3.381719,-0.57671 0.58891,7.46532 0.813858,14.88916 0.417539,22.27204 9.165352,-2.34228 18.076016,-5.19451 26.34308,-9.33328 a 16.347471,16.981962 0 0 0 10.047478,3.61167 16.347471,16.981962 0 0 0 16.3473,-16.98192 16.347471,16.981962 0 0 0 -1.37303,-6.76187 c 5.40031,-6.89508 10.00655,-15.37836 13.57022,-25.94673 -53.823157,-13.92147 -55.696751,-19.4047 -70.843723,-76.52298 l -2.871682,0.49609 c -0.01278,-0.10271 -0.02241,-0.20428 -0.02635,-0.30334 -0.1016,-2.55828 3.44035,-5.15242 1.720321,-6.38927 -0.933979,-0.67162 -1.975406,-1.24647 -3.097477,-1.73219 a 16.347471,16.981962 0 0 0 9.202023,-7.55148 l 34.959608,7.42745 c 2.18265,0.46374 4.35165,0.46043 6.40529,0.0589 1.89167,0.42438 3.88777,0.67498 6.10661,0.67128 -0.85862,-0.66503 -1.59961,-1.2937 -2.23864,-1.9637 1.58668,-0.76685 3.03893,-1.79231 4.29382,-3.03651 3.96261,0.41178 8.72958,0.3266 12.07728,0.0641 -2.82387,-1.24558 -5.78985,-3.30683 -8.40103,-5.72317 0.28779,-0.76019 0.52171,-1.55227 0.69607,-2.37298 l 0.29559,-1.39009 c 2.86211,-0.82931 5.54533,-1.98327 7.91737,-3.70365 -3.20593,-0.8001 -5.15308,-1.03267 -6.84869,-1.41232 1.40415,-8.40311 -4.01468,-16.4459 -12.43335,-18.23455 L 73.821095,96.705756 C 65.805755,95.0028 57.971945,99.586613 55.39792,107.14801 53.263526,100.43243 47.011184,95.98289 40.091351,96.041715 Z" id="path908-1-0-2" inkscape:connector-curvature="0" />
    <ellipse style="fill:#c3efe2;fill-opacity:1;fill-rule:evenodd;stroke-width:0.264583" id="path908-1-0" cx="108.10889" cy="259.47711" rx="16.347471" ry="16.981962" />
    <ellipse style="fill:#c3efe2;fill-opacity:1;fill-rule:evenodd;stroke-width:0.264583" id="path908-1" cx="5.078124" cy="278.02386" rx="16.347471" ry="16.981962" />
    <path transform="rotate(6.0983247)" style="fill:#6f6f90;fill-opacity:1;fill-rule:evenodd;stroke-width:0.264583" d="m 69.46711,220.36005 25.465969,-0.68144 c -0.446739,43.18475 3.588228,87.78526 -2.126057,129.30602 l -19.87083,4.02522 c 7.632736,-42.29438 -2.127121,-88.39261 -3.469082,-132.6498 z" id="rect1001" inkscape:connector-curvature="0" sodipodi:nodetypes="ccccc" />
    <path style="opacity:1;fill:#77bdff;fill-opacity:1;fill-rule:nonzero;stroke:none;stroke-width:2.365;stroke-linecap:square;stroke-linejoin:miter;stroke-miterlimit:4;stroke-dasharray:none;stroke-dashoffset:44.0315;stroke-opacity:1;paint-order:markers stroke fill" inkscape:transform-center-x="-8.5324451" inkscape:transform-center-y="0.52940331" d="m 65.809697,150.24564 c -10.181677,45.3759 8.195395,89.33994 5.908798,131.93517 C 99.100044,275.18326 124.2156,263.65373 136.65333,226.76855 82.830171,212.84708 80.956664,207.36391 65.809697,150.24564 Z" id="path983-0" inkscape:connector-curvature="0" sodipodi:nodetypes="cccc" />
    <path style="fill:#77bdff;fill-opacity:1;fill-rule:evenodd;stroke-width:0.264583" d="m 24.037939,154.02651 c 2.534514,-12.30345 29.280991,-18.1125 40.593767,-9.97756 1.72002,1.23685 -1.821891,3.83108 -1.720279,6.38936 0.101611,2.55828 3.287614,6.39879 2.936086,8.23726 -1.915742,10.01929 -34.042608,15.37865 -30.482904,2.70152 0.422749,-1.50552 -0.04998,-2.50407 -1.003118,-3.20185 -3.025172,-2.21469 -10.889857,-1.39968 -10.323552,-4.14873 z" id="rect977" inkscape:connector-curvature="0" sodipodi:nodetypes="sszssss" />
    <path style="fill:#435c93;fill-opacity:0.492366;fill-rule:evenodd;stroke-width:0.264583" d="m 61.338358,146.39362 c 1e-5,2.62006 -2.869161,10.28649 -10.42351,9.15399 -6.899914,-1.03439 -21.865337,-2.06142 -21.916101,-4.6104 -0.05217,-2.61954 10.268303,-7.28309 17.907058,-7.28309 7.638754,0 14.432547,0.11945 14.432553,2.7395 z" id="path980" inkscape:connector-curvature="0" sodipodi:nodetypes="sssss" />
    <rect style="fill:#a6dae7;fill-opacity:1;fill-rule:evenodd;stroke-width:0.264583" id="rect931" width="11.359431" height="36.002232" x="34.372559" y="122.73725" transform="rotate(-4.9375602)" />
    <rect style="fill:#a6dae7;fill-opacity:1;fill-rule:evenodd;stroke-width:0.264583" id="rect833-1" width="72.571426" height="37.869484" x="-148.90884" y="79.252769" rx="15.969494" ry="15.969494" transform="matrix(-0.9781663,-0.2078237,-0.2078237,0.9781663,0,0)" />
    <path style="opacity:1;fill:#2a91a4;fill-opacity:1;fill-rule:nonzero;stroke:none;stroke-width:2.365;stroke-linecap:square;stroke-linejoin:miter;stroke-miterlimit:4;stroke-dasharray:none;stroke-dashoffset:44.0315;stroke-opacity:1;paint-order:markers stroke fill" d="m 115.91685,117.63219 -1.53427,3.72433 -39.142313,6.28747 c 4.081354,0.98583 5.987544,4.72573 10.597361,5.6297 15.388862,3.01772 20.951402,9.66849 32.370552,9.64947 -2.69082,-2.08414 -4.23826,-3.80806 -5.04982,-7.58249 1.26785,3.02177 12.81106,3.14597 19.18229,2.64635 -3.88774,-1.71484 -8.0487,-4.97206 -11.17554,-8.57983 4.27311,-0.84837 8.29536,-2.1527 11.68352,-4.61006 -8.27146,-2.06429 -8.18383,-0.33573 -16.93178,-7.16494 z" id="path1108-0" inkscape:connector-curvature="0" sodipodi:nodetypes="cccscccccc" />
    <rect style="fill:#fcfefe;fill-opacity:1;fill-rule:evenodd;stroke-width:0.264583" id="rect833-3-5" width="50.593674" height="26.400974" x="-125.45928" y="102.71718" rx="15.969494" ry="15.969494" transform="matrix(-0.99802509,-0.06281663,-0.06281663,0.99802509,0,0)" />
    <rect style="fill:#2a91a4;fill-opacity:1;fill-rule:evenodd;stroke-width:0.264583" id="rect891-6" width="17.812902" height="11.237598" x="112.13446" y="77.01532" rx="5.6187992" ry="5.6187992" transform="matrix(0,1,1,0,0,0)" />
    <path style="fill:#a6dae7;fill-opacity:1;fill-rule:evenodd;stroke-width:0.264583" d="m 118.85233,108.1256 -51.969042,-5.10686 -1.13527,14.09817 52.909352,1.02941 z" id="rect870-4" inkscape:connector-curvature="0" sodipodi:nodetypes="ccccc" />
    <ellipse style="fill:#c3ebef;fill-opacity:1;fill-rule:evenodd;stroke-width:0.264583" id="path908" cx="56.689713" cy="126.11633" rx="16.347471" ry="16.981962" />
    <rect style="fill:#c3ebef;fill-opacity:1;fill-rule:evenodd;stroke-width:0.264583" id="rect833" width="72.571426" height="37.869484" x="-40.571793" y="101.95328" rx="15.969494" ry="15.969494" transform="rotate(-11.994846)" />
    <path style="opacity:1;fill:#7fd0ff;fill-opacity:1;fill-rule:nonzero;stroke:none;stroke-width:2.365;stroke-linecap:square;stroke-linejoin:miter;stroke-miterlimit:4;stroke-dasharray:none;stroke-dashoffset:44.0315;stroke-opacity:1;paint-order:markers stroke fill" inkscape:transform-center-x="2.1922879" inkscape:transform-center-y="-8.0032598" d="m 42.817438,154.21735 22.992259,-3.97171 c -6.374554,68.01795 18.440671,75.79523 14.776969,91.61169 -1.208307,5.21634 5.846095,5.73028 -0.216322,13.7058 -6.125763,8.07341 -40.683555,6.75524 -47.884859,-0.86305 -7.201304,-7.61828 2.09788,-8.25362 1.654002,-11.99481 -2.630466,-22.17064 3.437518,-84.41203 8.677951,-88.48792 z" id="path935" inkscape:connector-curvature="0" sodipodi:nodetypes="ccsccsc" />
    <path style="opacity:1;fill:#7fd0ff;fill-opacity:1;fill-rule:nonzero;stroke:none;stroke-width:2.365;stroke-linecap:square;stroke-linejoin:miter;stroke-miterlimit:4;stroke-dasharray:none;stroke-dashoffset:44.0315;stroke-opacity:1;paint-order:markers stroke fill" inkscape:transform-center-x="8.5324451" inkscape:transform-center-y="0.52940331" d="m 42.817438,154.21735 c -0.835671,43.09645 -7.21613,86.1929 -2.507012,129.28934 -28.895363,5.35701 -51.779734,-4.91455 -70.604483,-25.74113 53.823163,-13.92147 57.964528,-46.42994 73.111495,-103.54821 z" id="path983" inkscape:connector-curvature="0" sodipodi:nodetypes="cccc" />
    <path transform="rotate(30,77.332292,370.69439)" style="opacity:1;fill:#3e3e52;fill-opacity:1;fill-rule:nonzero;stroke:none;stroke-width:2.365;stroke-linecap:square;stroke-linejoin:miter;stroke-miterlimit:4;stroke-dasharray:none;stroke-dashoffset:44.0315;stroke-opacity:1;paint-order:markers stroke fill" inkscape:transform-center-y="-4.0865305" d="m 45.258496,359.15595 36.435603,-4.75986 -35.745073,20.63743 z" id="path1004" inkscape:connector-curvature="0" sodipodi:nodetypes="cccc" />
    <path style="opacity:1;fill:#3e3e52;fill-opacity:1;fill-rule:nonzero;stroke:none;stroke-width:2.365;stroke-linecap:square;stroke-linejoin:miter;stroke-miterlimit:4;stroke-dasharray:none;stroke-dashoffset:44.0315;stroke-opacity:1;paint-order:markers stroke fill" inkscape:transform-center-y="-4.0865305" d="m 42.362218,344.66491 33.934088,14.09565 H 35.021449 Z" id="path1004-1" inkscape:connector-curvature="0" sodipodi:nodetypes="cccc" />
    <path style="fill:#5d8dc9;fill-opacity:1;fill-rule:evenodd;stroke-width:0.264583" d="m 48.837553,157.98998 2.247041,0.30657 c 3.54784,17.59664 4.859368,34.51592 -7.016352,47.44087 l -2.247041,-0.30656 c 12.081462,-14.10818 10.112624,-30.67585 7.016352,-47.44088 z" id="rect1082" inkscape:connector-curvature="0" sodipodi:nodetypes="ccccc" />
    <circle style="fill:#5d8dc9;fill-opacity:1;fill-rule:evenodd;stroke-width:0.264583" id="path1085" cx="42.876675" cy="205.69513" r="2.9056919" />
    <path style="fill:#5d8dc9;fill-opacity:1;fill-rule:evenodd;stroke-width:0.264583" d="m 59.225,154.21426 -2.176574,0.63694 c -0.894682,17.92843 0.321525,34.85483 13.985369,45.87238 l 2.176577,-0.63694 C 59.167312,187.92955 58.653351,171.25322 59.225,154.21426 Z" id="rect1082-1" inkscape:connector-curvature="0" sodipodi:nodetypes="ccccc" />
    <circle style="fill:#5d8dc9;fill-opacity:1;fill-rule:evenodd;stroke-width:0.264583" id="path1085-2" cx="-41.621918" cy="209.00591" r="2.9056919" transform="matrix(-0.98890644,0.14853975,0.14853975,0.98890644,0,0)" />
    <path style="opacity:1;fill:#7b7b84;fill-opacity:1;fill-rule:nonzero;stroke:none;stroke-width:2.365;stroke-linecap:square;stroke-linejoin:miter;stroke-miterlimit:4;stroke-dasharray:none;stroke-dashoffset:44.0315;stroke-opacity:1;paint-order:markers stroke fill" inkscape:transform-center-x="1.6200862" inkscape:transform-center-y="1.3697548" d="m -22.717909,124.00979 c 8.27146,-2.06429 8.183819,-0.33579 16.9317721,-7.165 l 5.48498806,13.31169 C -8.3408833,129.13937 -16.570839,128.46811 -22.717909,124.00979 Z" id="path1108" inkscape:connector-curvature="0" sodipodi:nodetypes="cccc" />
    <path style="opacity:1;fill:#7b7b84;fill-opacity:1;fill-rule:nonzero;stroke:none;stroke-width:2.365;stroke-linecap:square;stroke-linejoin:miter;stroke-miterlimit:4;stroke-dasharray:none;stroke-dashoffset:44.0315;stroke-opacity:1;paint-order:markers stroke fill" inkscape:transform-center-x="-1.0995481" inkscape:transform-center-y="-0.23620952" d="m -22.210168,137.19961 c 6.866123,-3.02857 14.5877557,-10.86763 15.9515609,-16.95303 l 41.1491591,6.61013 c -4.081353,0.98583 -5.727898,4.74938 -10.337714,5.65335 -15.388867,3.01772 -21.2112869,9.64489 -32.6304323,9.62587 2.6908177,-2.08414 4.238249,-3.80799 5.0498027,-7.58241 -1.2678445,3.02177 -12.8111314,3.14571 -19.1823764,2.64609 z" id="path1105" inkscape:connector-curvature="0" sodipodi:nodetypes="cccsccc" />
    <rect style="fill:#fcfefe;fill-opacity:1;fill-rule:evenodd;stroke-width:0.264583" id="rect833-3" width="50.593674" height="26.400974" x="-14.733048" y="108.07313" rx="15.969494" ry="15.969494" transform="rotate(-3.6014992)" />
    <rect style="fill:#7b7b84;fill-opacity:1;fill-rule:evenodd;stroke-width:0.264583" id="rect891" width="17.812902" height="11.237598" x="113.06345" y="-15.38709" rx="5.6187992" ry="5.6187992" transform="rotate(90)" />
    <path style="fill:#c3ebef;fill-opacity:1;fill-rule:evenodd;stroke-width:0.264583" d="m -8.0083246,106.51553 51.9690376,-5.10687 1.13528,14.09818 -52.9093555,1.02941 z" id="rect870" inkscape:connector-curvature="0" sodipodi:nodetypes="ccccc" />
  </g>
</svg>
