<?xml version="1.0" encoding="UTF-8" standalone="no"?>
<!-- Created with Inkscape (http://www.inkscape.org/) -->

<svg width="182.29791mm" height="186.00208mm" viewBox="0 0 182.29791 186.00208" version="1.1" id="svg8" inkscape:version="1.3 (0e150ed6c4, 2023-07-21)" sodipodi:docname="егор.svg" xmlns:inkscape="http://www.inkscape.org/namespaces/inkscape" xmlns:sodipodi="http://sodipodi.sourceforge.net/DTD/sodipodi-0.dtd" xmlns="http://www.w3.org/2000/svg" xmlns:svg="http://www.w3.org/2000/svg" xmlns:rdf="http://www.w3.org/1999/02/22-rdf-syntax-ns#" xmlns:cc="http://creativecommons.org/ns#" xmlns:dc="http://purl.org/dc/elements/1.1/">
  <defs id="defs2" />
  <sodipodi:namedview id="base" pagecolor="#ffffff" bordercolor="#666666" borderopacity="1.0" inkscape:pageopacity="0.0" inkscape:pageshadow="2" inkscape:zoom="0.50000001" inkscape:cx="489.99999" inkscape:cy="433.99999" inkscape:document-units="mm" inkscape:current-layer="layer1" showgrid="false" showguides="false" inkscape:window-width="2467" inkscape:window-height="1413" inkscape:window-x="84" inkscape:window-y="-9" inkscape:window-maximized="1" inkscape:showpageshadow="2" inkscape:pagecheckerboard="0" inkscape:deskcolor="#d1d1d1" />
  <metadata id="metadata5">
    <rdf:RDF>
      <cc:Work rdf:about="">
        <dc:format>image/svg+xml</dc:format>
        <dc:type rdf:resource="http://purl.org/dc/dcmitype/StillImage" />
        <dc:title />
      </cc:Work>
    </rdf:RDF>
  </metadata>
  <g inkscape:label="Layer 1" inkscape:groupmode="layer" id="layer1" transform="translate(-14.287499,-46.968746)">
    <rect style="fill:#4e1832;fill-opacity:1;fill-rule:evenodd;stroke-width:0.264583" id="rect1723" width="182.29791" height="186.00208" x="14.287499" y="46.968746" inkscape:export-xdpi="278.66473" inkscape:export-ydpi="278.66473" />
    <rect style="fill:#610c36;fill-opacity:1;fill-rule:evenodd;stroke-width:0.264583" id="rect1723-1" width="130.1562" height="132.80089" x="40.358376" y="73.569344" />
    <g id="g2050" transform="translate(1.566619,14.456039)">
      <path sodipodi:nodetypes="cccc" inkscape:connector-curvature="0" id="path1720" d="m 62.898424,136.13882 -18.595044,6.49077 2.772524,-8.5731 z" inkscape:transform-center-y="1.653644" inkscape:transform-center-x="-0.2546189" style="opacity:1;fill:#d64820;fill-opacity:1;fill-rule:nonzero;stroke:none;stroke-width:2.365;stroke-linecap:square;stroke-linejoin:round;stroke-miterlimit:4;stroke-dasharray:none;stroke-dashoffset:44.0315;stroke-opacity:1;paint-order:markers stroke fill" />
      <path sodipodi:nodetypes="ccccccc" inkscape:connector-curvature="0" id="path1717" d="m 54.352425,137.51807 -4.814101,-16.71956 0.866363,-9.6526 8.649858,2.92245 -5.233252,6.63674 3.716405,12.19735 z" inkscape:transform-center-y="-0.96952104" inkscape:transform-center-x="0.14248162" style="opacity:1;fill:#fcc58c;fill-opacity:1;fill-rule:nonzero;stroke:none;stroke-width:2.365;stroke-linecap:square;stroke-linejoin:round;stroke-miterlimit:4;stroke-dasharray:none;stroke-dashoffset:44.0315;stroke-opacity:1;paint-order:markers stroke fill" />
      <path sodipodi:nodetypes="ccccc" inkscape:connector-curvature="0" id="path1711" d="m 58.674107,153.96956 -3.931952,0.0744 -1.619208,-26.51029 7.530446,0.68266 z" inkscape:transform-center-y="1.6979534" inkscape:transform-center-x="-0.33072845" style="opacity:1;fill:#fcc58c;fill-opacity:1;fill-rule:nonzero;stroke:none;stroke-width:2.365;stroke-linecap:square;stroke-linejoin:round;stroke-miterlimit:4;stroke-dasharray:none;stroke-dashoffset:44.0315;stroke-opacity:1;paint-order:markers stroke fill" />
      <path sodipodi:nodetypes="ccsc" inkscape:connector-curvature="0" id="path1702" d="M 110.85003,192.28352 93.55699,162.54601 c 0,0 44.59123,-15.54529 57.97217,0.54208 13.61881,16.37336 -40.67913,29.19543 -40.67913,29.19543 z" inkscape:transform-center-y="5.7481784" inkscape:transform-center-x="4.6772182" style="opacity:1;fill:#f46519;fill-opacity:1;fill-rule:nonzero;stroke:none;stroke-width:2.365;stroke-linecap:square;stroke-linejoin:round;stroke-miterlimit:4;stroke-dasharray:none;stroke-dashoffset:44.0315;stroke-opacity:1;paint-order:markers stroke fill" />
      <rect transform="rotate(25.291686)" ry="2.1515203" rx="2.1515203" y="42.889866" x="155.8363" height="12.964584" width="41.064632" id="rect1473" style="fill:#8f7576;fill-opacity:1;fill-rule:evenodd;stroke-width:0.264583" />
      <path sodipodi:nodetypes="ccccccc" inkscape:connector-curvature="0" id="rect815" d="m 54.894325,165.5773 109.613095,4.34673 14.27532,15.84746 v 13.04018 l -152.324407,-6.04762 -1e-6,-13.04018 z" style="fill:#9b5428;fill-opacity:1;fill-rule:evenodd;stroke-width:0.264583" />
      <path sodipodi:nodetypes="ccccc" inkscape:connector-curvature="0" id="rect1600-4-4" d="m 133.82817,175.72693 -7.373,0.59119 -0.5539,6.10319 12.15035,0.84782 z" style="fill:#fdcd67;fill-opacity:1;fill-rule:evenodd;stroke-width:0.264583" />
      <path sodipodi:nodetypes="ccccc" inkscape:connector-curvature="0" id="rect1600-4" d="m 62.742782,168.9007 12.00072,0.96226 -2.904892,9.9339 -19.548227,-0.29488 z" style="fill:#fdcd67;fill-opacity:1;fill-rule:evenodd;stroke-width:0.264583" />
      <path sodipodi:nodetypes="ccccc" inkscape:connector-curvature="0" id="rect815-0" d="m 26.458332,179.72387 152.324408,6.04762 v 13.04018 L 26.458333,192.76405 Z" style="fill:#833e05;fill-opacity:1;fill-rule:evenodd;stroke-width:0.264583" />
      <path sodipodi:nodetypes="ccccc" inkscape:connector-curvature="0" id="rect1600-7" d="m 138.53974,171.45812 -10.97106,-0.11797 9.33154,10.18757 12.20088,-0.1294 z" style="fill:#ffffa7;fill-opacity:1;fill-rule:evenodd;stroke-width:0.264583" />
      <path sodipodi:nodetypes="ccccsccsssccssscccssscccccccccccsssssssssssssssssssss" inkscape:connector-curvature="0" id="path985" d="m 106.58226,173.4595 c -2.62866,0.0273 -5.37876,-0.82971 -5.43636,-0.2222 -0.0534,0.59335 -0.70249,2.31963 1.65106,2.86183 0.62707,0.14448 4.54056,0.4025 5.27203,0.54002 0.34051,0.064 1.52522,0.37436 1.09554,0.6196 -0.76848,0.43861 -1.46377,0.0364 -1.66967,0.6904 -0.4818,2.17602 3.28559,2.74392 5.52525,2.37557 v 8.79429 c 0,0.66075 0.53194,1.19269 1.19269,1.19269 0.66075,0 1.19269,-0.53194 1.19269,-1.19269 v -10.03815 c 0.63151,-0.12009 1.43612,0.20795 2.42311,0.54726 v 9.47384 c 0,0.66075 0.53194,1.19269 1.19269,1.19269 0.66075,0 1.19269,-0.53194 1.19269,-1.19269 v -8.89868 c 0.015,0.002 0.0294,0.004 0.0444,0.006 0.60915,0.0579 1.22066,0.0246 1.82625,-0.045 v 4.86896 c 0,0.66075 0.53194,1.19269 1.19269,1.19269 0.66075,0 1.19269,-0.53194 1.19269,-1.19269 v -5.21984 c 0.89702,-0.1174 1.75549,-0.15745 2.54145,0.0853 0.77497,0.23933 1.7043,1.58649 3.44527,1.92081 1.96166,0.37671 3.58443,0.0161 3.62251,-0.80512 0.0271,-0.58415 -1.52685,-0.50097 -2.02623,-1.75493 -0.36802,-0.92408 1.47031,-0.66163 1.51567,-1.08417 0.14352,-1.50218 -5.59388,-3.27838 -12.81472,-3.9672 -2.79596,-0.26552 -5.53426,-0.33743 -7.81296,-0.20516 -0.89506,-0.16012 -1.85227,-0.29 -2.82205,-0.38292 -1.22345,-0.11672 -2.43531,-0.17162 -3.53673,-0.1602 z m 16.6951,15.46469 c -0.66075,0 -1.19269,0.53194 -1.19269,1.19269 v 0.55811 c 0,0.66075 0.53194,1.19269 1.19269,1.19269 0.66075,0 1.19269,-0.53194 1.19269,-1.19269 v -0.55811 c 0,-0.66075 -0.53194,-1.19269 -1.19269,-1.19269 z m -4.25607,2.91404 c -0.66075,0 -1.19269,0.53194 -1.19269,1.19269 v 0.5581 c 0,0.66075 0.53194,1.1927 1.19269,1.1927 0.66075,0 1.19269,-0.53195 1.19269,-1.1927 v -0.5581 c 0,-0.66075 -0.53194,-1.19269 -1.19269,-1.19269 z m -4.80849,1.2516 c -0.66075,0 -1.19269,0.53194 -1.19269,1.19269 v 2.94349 c 0,0.66075 0.53194,1.19269 1.19269,1.19269 0.66075,0 1.19269,-0.53194 1.19269,-1.19269 v -2.94349 c 0,-0.66075 -0.53194,-1.19269 -1.19269,-1.19269 z" style="fill:#a7728c;fill-opacity:1;fill-rule:evenodd;stroke-width:0.264583" />
      <path sodipodi:nodetypes="sccccss" inkscape:connector-curvature="0" id="path858-9" d="m 121.14907,146.681 c -15.59235,3.13323 -16.0903,3.71494 -16.31823,10.53913 l 12.86321,4.6891 1.34409,4.91317 c 10.09902,1.21275 22.34231,7.10498 27.85689,3.27805 -3.2022,1.07471 -12.95305,-7.0494 -14.14998,-20.34687 -0.33681,-3.7418 -7.44323,-3.90707 -11.59598,-3.07258 z" inkscape:transform-center-y="1.2018744" inkscape:transform-center-x="2.5883697" style="opacity:1;fill:#d8853e;fill-opacity:1;fill-rule:nonzero;stroke:none;stroke-width:4.565;stroke-linecap:square;stroke-linejoin:round;stroke-miterlimit:4;stroke-dasharray:none;stroke-dashoffset:44.0315;stroke-opacity:1;paint-order:markers stroke fill" />
      <path sodipodi:nodetypes="ccccc" inkscape:connector-curvature="0" id="rect1600" d="m 58.576873,166.07438 13.644956,3.01606 -12.158972,9.02835 -16.602261,-1.94721 z" style="fill:#ffffa7;fill-opacity:1;fill-rule:evenodd;stroke-width:0.264583" />
      <path sodipodi:nodetypes="ccccc" inkscape:connector-curvature="0" id="path1705" d="M 92.178972,160.89034 66.026827,172.50581 56.422706,161.2667 87.253891,154.50884 Z" inkscape:transform-center-y="3.4879705" inkscape:transform-center-x="0.74061899" style="opacity:1;fill:#f46519;fill-opacity:1;fill-rule:nonzero;stroke:none;stroke-width:2.365;stroke-linecap:square;stroke-linejoin:round;stroke-miterlimit:4;stroke-dasharray:none;stroke-dashoffset:44.0315;stroke-opacity:1;paint-order:markers stroke fill" />
      <path sodipodi:nodetypes="sccccss" inkscape:connector-curvature="0" id="path858" d="m 97.394529,146.05695 c 15.086031,5.03491 15.508321,5.67367 14.891731,12.47376 l -13.343849,3.0646 -1.940586,4.70956 c -10.171474,-0.0438 -23.048736,4.29131 -28.048474,-0.18738 3.044955,1.46195 13.724498,-5.39573 16.554508,-18.44358 0.796343,-3.67155 7.868767,-2.95791 11.88667,-1.61696 z" inkscape:transform-center-y="0.54794156" inkscape:transform-center-x="-1.9033278" style="opacity:1;fill:#d8853e;fill-opacity:1;fill-rule:nonzero;stroke:none;stroke-width:4.565;stroke-linecap:square;stroke-linejoin:round;stroke-miterlimit:4;stroke-dasharray:none;stroke-dashoffset:44.0315;stroke-opacity:1;paint-order:markers stroke fill" />
      <path sodipodi:nodetypes="zzzzz" inkscape:connector-curvature="0" id="path855" d="m 137.49961,172.34469 c -2.59652,10.76163 -23.2711,2.90519 -33.30487,1.85789 -10.033783,-1.04732 -25.829485,2.20586 -26.297435,-7.92653 -0.467951,-10.13239 19.864277,-13.50514 30.947945,-12.5429 11.08366,0.96223 31.25088,7.8499 28.65436,18.61154 z" style="fill:#fcc58c;fill-opacity:1;fill-rule:evenodd;stroke-width:0.264583" />
      <path sodipodi:nodetypes="zsscscz" inkscape:connector-curvature="0" id="path864-9" d="m 104.0795,150.94698 c -0.78236,5.24322 8.85429,3.86791 12.47855,6.01375 5.97815,3.53956 6.99082,11.22422 13.16968,14.40042 5.67782,2.91863 16.99107,-5.97771 16.99107,-5.97771 0,0 -8.37779,2.61354 -12.92772,-1.95677 -4.33711,-4.35653 -5.85183,-11.01516 -10.61868,-14.89678 -5.47721,-6.01875 -18.31056,-2.82617 -19.0929,2.41709 z" inkscape:transform-center-y="-1.0748981" inkscape:transform-center-x="1.2471777" style="opacity:1;fill:#e08d4b;fill-opacity:1;fill-rule:nonzero;stroke:none;stroke-width:4.565;stroke-linecap:square;stroke-linejoin:round;stroke-miterlimit:4;stroke-dasharray:none;stroke-dashoffset:44.0315;stroke-opacity:1;paint-order:markers stroke fill" />
      <path sodipodi:nodetypes="zsscscz" inkscape:connector-curvature="0" id="path864-6-2" d="m 105.82401,151.52566 c -0.14583,4.41052 7.69148,2.35232 10.89352,3.7804 5.28173,2.35564 6.85351,8.61351 12.2665,10.6495 4.97406,1.87088 13.47908,-6.56689 13.47908,-6.56689 0,0 -6.67805,2.96185 -10.87726,-0.38264 -4.00278,-3.18804 -5.89169,-8.54947 -10.20445,-11.30373 -5.10444,-4.45362 -15.41153,-0.58722 -15.55739,3.82336 z" inkscape:transform-center-y="-0.61786211" inkscape:transform-center-x="1.1586989" style="opacity:1;fill:#e08d4b;fill-opacity:1;fill-rule:nonzero;stroke:none;stroke-width:4.565;stroke-linecap:square;stroke-linejoin:round;stroke-miterlimit:4;stroke-dasharray:none;stroke-dashoffset:44.0315;stroke-opacity:1;paint-order:markers stroke fill" />
      <path sodipodi:nodetypes="zsscscz" inkscape:connector-curvature="0" id="path864" d="m 107.4286,152.60349 c -0.25367,4.801 -8.568418,1.83477 -12.177474,3.08576 -5.953068,2.06349 -8.24377,8.70921 -14.309451,10.41349 -5.573831,1.56605 -14.017297,-8.38719 -14.017297,-8.38719 0,0 6.97194,3.83877 11.842381,0.60079 4.642621,-3.0865 7.193776,-8.72955 12.132341,-11.31625 5.956631,-4.3573 16.78321,0.80238 16.5295,5.6034 z" inkscape:transform-center-y="-0.4724458" inkscape:transform-center-x="-1.3650613" style="opacity:1;fill:#e08d4b;fill-opacity:1;fill-rule:nonzero;stroke:none;stroke-width:4.565;stroke-linecap:square;stroke-linejoin:round;stroke-miterlimit:4;stroke-dasharray:none;stroke-dashoffset:44.0315;stroke-opacity:1;paint-order:markers stroke fill" />
      <path sodipodi:nodetypes="zsscscz" inkscape:connector-curvature="0" id="path864-6" d="m 106.37158,153.89439 c -1.25414,3.80047 -7.283262,-0.40104 -10.455613,-0.1859 -5.232747,0.35487 -8.526533,5.19129 -13.77113,5.23302 -4.819323,0.0383 -9.423171,-9.80304 -9.423171,-9.80304 0,0 4.759735,4.60851 9.379909,3.07348 4.404058,-1.46323 7.68767,-5.43737 12.220067,-6.43443 5.737458,-2.19639 13.304078,4.31636 12.049938,8.11687 z" inkscape:transform-center-y="0.015687298" inkscape:transform-center-x="-1.4099836" style="opacity:1;fill:#e08d4b;fill-opacity:1;fill-rule:nonzero;stroke:none;stroke-width:4.565;stroke-linecap:square;stroke-linejoin:round;stroke-miterlimit:4;stroke-dasharray:none;stroke-dashoffset:44.0315;stroke-opacity:1;paint-order:markers stroke fill" />
      <path sodipodi:nodetypes="cccc" inkscape:connector-curvature="0" id="path945" d="m 92.178972,160.89034 c 3.707567,-3.24137 6.258182,-7.53619 8.100898,-12.47558 l 8.69385,3.90384 c -3.98307,4.78318 -9.128876,8.17995 -16.794748,8.57174 z" inkscape:transform-center-y="-1.3315293" inkscape:transform-center-x="-0.95825219" style="opacity:1;fill:#e08d4b;fill-opacity:1;fill-rule:nonzero;stroke:none;stroke-width:4.565;stroke-linecap:square;stroke-linejoin:round;stroke-miterlimit:4;stroke-dasharray:none;stroke-dashoffset:44.0315;stroke-opacity:1;paint-order:markers stroke fill" />
      <path sodipodi:nodetypes="cccc" inkscape:connector-curvature="0" id="path945-6" d="m 108.02886,160.19555 c -0.41092,-2.59419 0.0119,-5.22451 0.94486,-7.87695 l -4.89422,-1.37162 c -0.003,3.31975 0.94379,6.46896 3.94936,9.24857 z" inkscape:transform-center-y="-0.073330278" inkscape:transform-center-x="0.13197387" style="opacity:1;fill:#e08d4b;fill-opacity:1;fill-rule:nonzero;stroke:none;stroke-width:4.565;stroke-linecap:square;stroke-linejoin:round;stroke-miterlimit:4;stroke-dasharray:none;stroke-dashoffset:44.0315;stroke-opacity:1;paint-order:markers stroke fill" />
      <rect transform="rotate(-2.7876591)" rx="1.2733073" ry="1.2733073" y="168.2791" x="73.453026" height="2.5466146" width="15.345833" id="rect965" style="fill:#532d2a;fill-opacity:1;fill-rule:evenodd;stroke-width:0.264583" />
      <rect transform="matrix(-0.9918375,-0.12750829,-0.12750829,0.9918375,0,0)" rx="1.2733073" ry="1.2733073" y="152.39787" x="-148.52039" height="2.5466146" width="15.345832" id="rect965-7" style="fill:#532d2a;fill-opacity:1;fill-rule:evenodd;stroke-width:0.264583" />
      <path sodipodi:nodetypes="ssss" inkscape:connector-curvature="0" id="path982" d="m 106.79117,167.98357 c 1.0659,-0.0161 0.58878,2.5891 -0.29554,3.18439 -0.44183,0.29742 -1.91817,-0.0977 -1.52959,-0.46191 0.19012,-0.17819 1.04356,-2.71066 1.82513,-2.72248 z" inkscape:transform-center-y="-0.11809699" inkscape:transform-center-x="0.12256208" style="opacity:1;fill:#e5a977;fill-opacity:1;fill-rule:nonzero;stroke:none;stroke-width:4.565;stroke-linecap:square;stroke-linejoin:round;stroke-miterlimit:4;stroke-dasharray:none;stroke-dashoffset:44.0315;stroke-opacity:1;paint-order:markers stroke fill" />
      <g style="stroke-width:0.923953" transform="matrix(0.99463249,0.10347081,-0.12120436,1.1650996,-28.384496,62.231126)" id="g1332">
        <path style="opacity:1;fill:#fa9c00;fill-opacity:1;fill-rule:nonzero;stroke:none;stroke-width:4.21784;stroke-linecap:square;stroke-linejoin:round;stroke-miterlimit:4;stroke-dasharray:none;stroke-dashoffset:44.0315;stroke-opacity:1;paint-order:markers stroke fill" inkscape:transform-center-x="0.2445854" inkscape:transform-center-y="-0.60311605" d="m 144.05913,62.370505 5.32024,2.235951 c -3.89335,1.271326 -7.71615,1.774626 -11.27304,-0.616687 z" id="path1163" inkscape:connector-curvature="0" sodipodi:nodetypes="cccc" />
        <path style="opacity:1;fill:#fa9c00;fill-opacity:1;fill-rule:nonzero;stroke:none;stroke-width:4.21784;stroke-linecap:square;stroke-linejoin:round;stroke-miterlimit:4;stroke-dasharray:none;stroke-dashoffset:44.0315;stroke-opacity:1;paint-order:markers stroke fill" inkscape:transform-center-x="0.2445854" inkscape:transform-center-y="-0.60311605" d="m 144.07683,61.719255 5.32025,2.235951 c -3.89336,1.271327 -7.71615,1.774627 -11.27305,-0.616686 z" id="path1163-1" inkscape:connector-curvature="0" sodipodi:nodetypes="cccc" />
        <path style="fill:#d64820;fill-opacity:1;fill-rule:evenodd;stroke-width:0.244463" d="m 178.12872,56.963172 c -13.40749,1.949891 -23.35214,-0.768196 -34.12969,-0.734284 l 0.32468,7.596825 c 12.23981,2.981264 27.10063,3.178188 38.63797,1.135357 l 0.12039,-1.119441 z" id="rect1127-3-8" inkscape:connector-curvature="0" sodipodi:nodetypes="cccccc" />
        <path style="fill:#d64820;fill-opacity:1;fill-rule:evenodd;stroke-width:0.244463" d="m 111.70991,54.068935 c 12.87325,4.224011 23.62709,0.443899 34.23861,2.328646 l -1.62481,7.428132 c -12.56999,0.834428 -27.73384,1.286365 -38.74878,-2.707956 l 0.0737,-1.12348 z" id="rect1127-3" inkscape:connector-curvature="0" sodipodi:nodetypes="cccccc" />
        <path style="fill:#fdcd67;fill-opacity:1;fill-rule:evenodd;stroke-width:0.244463" d="m 111.70991,54.068935 c 12.87325,4.224011 23.62708,0.443899 34.23861,2.328646 l -1.55112,6.304652 c -12.56998,0.834428 -27.73383,1.286365 -38.74877,-2.707956 v 0 z" id="rect1127-3-7" inkscape:connector-curvature="0" sodipodi:nodetypes="cccccc" />
        <path style="fill:#ffffa7;fill-opacity:1;fill-rule:evenodd;stroke-width:0.244463" d="m 112.30103,52.059998 c 13.05647,4.876062 24.7625,-5.247272 33.64749,4.337583 l -1.55112,6.304652 c -7.21572,-7.719549 -25.90784,-0.485279 -38.64521,-5.185563 v 0 z" id="rect1127-3-7-5" inkscape:connector-curvature="0" sodipodi:nodetypes="cccccc" />
        <path style="fill:#fdcd67;fill-opacity:1;fill-rule:evenodd;stroke-width:0.244463" d="m 178.12872,56.963172 c -13.40749,1.949891 -23.35213,-0.768195 -34.12969,-0.734284 l 0.39837,6.473345 c 12.2398,2.981263 27.14732,3.182227 38.68467,1.139396 v 0 z" id="rect1127-3-7-1" inkscape:connector-curvature="0" sodipodi:nodetypes="cccccc" />
        <path style="fill:#ffffa7;fill-opacity:1;fill-rule:evenodd;stroke-width:0.244463" d="m 175.64165,56.774674 c -13.15907,1.213203 -20.5172,-9.697541 -31.64262,-0.545786 l 0.39837,6.473345 c 11.26692,-8.248562 24.34939,2.711518 35.99363,1.243032 v 0 z" id="rect1127-3-7-5-9" inkscape:connector-curvature="0" sodipodi:nodetypes="cccccc" />
      </g>
      <rect transform="rotate(9.3460713)" ry="3.1528113" rx="3.1528113" y="143.98708" x="172.56892" height="8.353755" width="25.964373" id="rect1423" style="fill:#8f7576;fill-opacity:1;fill-rule:evenodd;stroke-width:0.264583" />
      <rect transform="rotate(-46.573254)" ry="4.1768799" rx="4.1768799" y="231.5547" x="-20.409941" height="7.0999537" width="39.619011" id="rect1423-7" style="fill:none;fill-opacity:1;fill-rule:evenodd;stroke:#8f7576;stroke-width:2.365;stroke-miterlimit:4;stroke-dasharray:none;stroke-opacity:1" />
      <rect transform="rotate(54.828952)" ry="4.1768799" rx="4.1768799" y="-66.010803" x="190.52792" height="7.0999537" width="39.619011" id="rect1423-7-4" style="fill:none;fill-opacity:1;fill-rule:evenodd;stroke:#8f7576;stroke-width:2.365;stroke-miterlimit:4;stroke-dasharray:none;stroke-opacity:1" />
      <circle r="5.3554134" cy="149.41684" cx="181.3123" id="path1471" style="fill:#763839;fill-opacity:1;fill-rule:evenodd;stroke-width:0.264583" />
      <circle r="5.3554134" cy="121.80856" cx="162.0573" id="path1471-8" style="fill:#763839;fill-opacity:1;fill-rule:evenodd;stroke-width:0.264583" />
      <rect transform="rotate(25.291686)" ry="2.1515203" rx="2.1515203" y="48.065556" x="155.8363" height="7.7888947" width="41.064636" id="rect1473-8" style="fill:#fdcd67;fill-opacity:1;fill-rule:evenodd;stroke-width:0.264583" />
      <rect transform="rotate(60.55167)" ry="1.1906267" rx="1.1906267" y="-41.447311" x="161.06696" height="14.816666" width="2.3812535" id="rect1517" style="fill:#f29545;fill-opacity:1;fill-rule:evenodd;stroke-width:0.264583" />
      <rect transform="rotate(89.35344)" ry="1.1906267" rx="1.1906267" y="-114.20162" x="116.67887" height="14.816666" width="2.3812535" id="rect1517-0" style="fill:#f29545;fill-opacity:1;fill-rule:evenodd;stroke-width:0.264583" />
      <rect transform="rotate(113.95596)" ry="1.1906267" rx="1.1906267" y="-151.33461" x="54.275089" height="14.816666" width="2.3812535" id="rect1517-0-5" style="fill:#f29545;fill-opacity:1;fill-rule:evenodd;stroke-width:0.264583" />
      <rect transform="rotate(-38.60295)" ry="0.63370943" rx="0.63370943" y="202.78429" x="37.960632" height="7.8861499" width="1.2674189" id="rect1517-2" style="fill:#f29545;fill-opacity:1;fill-rule:evenodd;stroke-width:0.264583" />
      <rect transform="rotate(-9.8011788)" ry="0.63370943" rx="0.63370943" y="159.25899" x="128.57007" height="7.8861494" width="1.2674189" id="rect1517-0-1" style="fill:#f29545;fill-opacity:1;fill-rule:evenodd;stroke-width:0.264583" />
      <rect transform="rotate(14.801342)" ry="0.63370943" rx="0.63370943" y="91.847099" x="180.92998" height="7.8861499" width="1.2674189" id="rect1517-0-5-9" style="fill:#f29545;fill-opacity:1;fill-rule:evenodd;stroke-width:0.264583" />
      <rect transform="rotate(25.291686)" ry="0" rx="0" y="50.570812" x="155.8363" height="2.7513003" width="41.064636" id="rect1473-8-0" style="fill:#f29545;fill-opacity:1;fill-rule:evenodd;stroke-width:0.264583" />
      <path transform="matrix(0.56801634,0,0,1,14.483334,-5.9102674)" inkscape:transform-center-y="1.3934911" inkscape:transform-center-x="-0.018785419" d="m 36.243383,193.31217 -4.827203,-8.5901 9.852843,0.11457 z" inkscape:randomized="0" inkscape:rounded="0" inkscape:flatsided="true" sodipodi:arg2="2.6296213" sodipodi:arg1="1.5824237" sodipodi:r2="2.8444631" sodipodi:r1="5.6889262" sodipodi:cy="187.62363" sodipodi:cx="36.309528" sodipodi:sides="3" id="path1636" style="opacity:1;fill:#9b5428;fill-opacity:1;fill-rule:nonzero;stroke:none;stroke-width:3.13798;stroke-linecap:square;stroke-linejoin:round;stroke-miterlimit:4;stroke-dasharray:none;stroke-dashoffset:44.0315;stroke-opacity:1;paint-order:markers stroke fill" sodipodi:type="star" />
      <path transform="matrix(0.56801634,0,0,1,17.756757,-8.6371074)" inkscape:transform-center-y="1.3934911" inkscape:transform-center-x="-0.018785419" d="m 36.243383,193.31217 -4.827203,-8.5901 9.852843,0.11457 z" inkscape:randomized="0" inkscape:rounded="0" inkscape:flatsided="true" sodipodi:arg2="2.6296213" sodipodi:arg1="1.5824237" sodipodi:r2="2.8444631" sodipodi:r1="5.6889262" sodipodi:cy="187.62363" sodipodi:cx="36.309528" sodipodi:sides="3" id="path1636-4" style="opacity:1;fill:#9b5428;fill-opacity:1;fill-rule:nonzero;stroke:none;stroke-width:3.13798;stroke-linecap:square;stroke-linejoin:round;stroke-miterlimit:4;stroke-dasharray:none;stroke-dashoffset:44.0315;stroke-opacity:1;paint-order:markers stroke fill" sodipodi:type="star" />
      <path transform="matrix(-0.95291638,0,0,1.6776214,120.85657,-130.39428)" inkscape:transform-center-y="2.3377426" inkscape:transform-center-x="0.031516176" d="m 36.243383,193.31217 -4.827203,-8.5901 9.852843,0.11457 z" inkscape:randomized="0" inkscape:rounded="0" inkscape:flatsided="true" sodipodi:arg2="2.6296213" sodipodi:arg1="1.5824237" sodipodi:r2="2.8444631" sodipodi:r1="5.6889262" sodipodi:cy="187.62363" sodipodi:cx="36.309528" sodipodi:sides="3" id="path1636-8" style="opacity:1;fill:#9b5428;fill-opacity:1;fill-rule:nonzero;stroke:none;stroke-width:1.8705;stroke-linecap:square;stroke-linejoin:round;stroke-miterlimit:4;stroke-dasharray:none;stroke-dashoffset:44.0315;stroke-opacity:1;paint-order:markers stroke fill" sodipodi:type="star" />
      <path transform="matrix(-0.56801634,0,0,1,102.09558,-5.2044334)" inkscape:transform-center-y="1.3934911" inkscape:transform-center-x="0.018784104" d="m 36.243383,193.31217 -4.827203,-8.5901 9.852843,0.11457 z" inkscape:randomized="0" inkscape:rounded="0" inkscape:flatsided="true" sodipodi:arg2="2.6296213" sodipodi:arg1="1.5824237" sodipodi:r2="2.8444631" sodipodi:r1="5.6889262" sodipodi:cy="187.62363" sodipodi:cx="36.309528" sodipodi:sides="3" id="path1636-4-1" style="opacity:1;fill:#9b5428;fill-opacity:1;fill-rule:nonzero;stroke:none;stroke-width:3.13798;stroke-linecap:square;stroke-linejoin:round;stroke-miterlimit:4;stroke-dasharray:none;stroke-dashoffset:44.0315;stroke-opacity:1;paint-order:markers stroke fill" sodipodi:type="star" />
      <path sodipodi:nodetypes="cccc" inkscape:connector-curvature="0" id="path1636-8-9" d="m 174.63651,194.29545 4.14623,-8.52396 -10.56764,-1.64027 z" inkscape:transform-center-y="1.3827564" inkscape:transform-center-x="0.028407382" style="opacity:1;fill:#9b5428;fill-opacity:1;fill-rule:nonzero;stroke:none;stroke-width:2.365;stroke-linecap:square;stroke-linejoin:round;stroke-miterlimit:4;stroke-dasharray:none;stroke-dashoffset:44.0315;stroke-opacity:1;paint-order:markers stroke fill" />
      <path transform="matrix(-0.56801634,0,0,1,178.35894,-2.6268837)" inkscape:transform-center-y="1.3934911" inkscape:transform-center-x="0.018784104" d="m 36.243383,193.31217 -4.827203,-8.5901 9.852843,0.11457 z" inkscape:randomized="0" inkscape:rounded="0" inkscape:flatsided="true" sodipodi:arg2="2.6296213" sodipodi:arg1="1.5824237" sodipodi:r2="2.8444631" sodipodi:r1="5.6889262" sodipodi:cy="187.62363" sodipodi:cx="36.309528" sodipodi:sides="3" id="path1636-4-1-1" style="opacity:1;fill:#9b5428;fill-opacity:1;fill-rule:nonzero;stroke:none;stroke-width:3.13798;stroke-linecap:square;stroke-linejoin:round;stroke-miterlimit:4;stroke-dasharray:none;stroke-dashoffset:44.0315;stroke-opacity:1;paint-order:markers stroke fill" sodipodi:type="star" />
      <path sodipodi:nodetypes="ccccc" inkscape:connector-curvature="0" id="path1708" d="M 66.026827,172.50581 58.206293,172.19398 44.30338,142.62959 62.898424,136.13882 Z" inkscape:transform-center-y="2.6569577" inkscape:transform-center-x="2.8998751" style="opacity:1;fill:#f46519;fill-opacity:1;fill-rule:nonzero;stroke:none;stroke-width:2.365;stroke-linecap:square;stroke-linejoin:round;stroke-miterlimit:4;stroke-dasharray:none;stroke-dashoffset:44.0315;stroke-opacity:1;paint-order:markers stroke fill" />
      <path sodipodi:nodetypes="ccccccccccccccccc" inkscape:connector-curvature="0" id="path1714" d="m 54.759185,130.00836 8.295322,-15.56337 11.607995,-3.0156 0.270394,8.90356 -10.132227,-1.70855 -4.75303,7.30602 7.925463,-2.34575 10.431864,2.14978 -3.158589,6.95004 -6.770282,-5.62534 -7.491973,2.3478 6.275917,1.2734 7.661084,7.88003 -6.857518,2.05649 -2.538386,-7.06184 -5.630409,-0.0639 z" inkscape:transform-center-y="-0.6878949" inkscape:transform-center-x="-0.1517543" style="opacity:1;fill:#fcc58c;fill-opacity:1;fill-rule:nonzero;stroke:none;stroke-width:2.365;stroke-linecap:square;stroke-linejoin:round;stroke-miterlimit:4;stroke-dasharray:none;stroke-dashoffset:44.0315;stroke-opacity:1;paint-order:markers stroke fill" />
    </g>
    <path sodipodi:type="star" style="opacity:1;fill:#610c36;fill-opacity:1;fill-rule:nonzero;stroke:#000000;stroke-width:2.865;stroke-linecap:square;stroke-linejoin:round;stroke-miterlimit:4;stroke-dasharray:none;stroke-dashoffset:44.0315;stroke-opacity:0;paint-order:markers stroke fill" id="path1926" sodipodi:sides="3" sodipodi:cx="46.460667" sodipodi:cy="70.046188" sodipodi:r1="7.0463166" sodipodi:r2="3.5231583" sodipodi:arg1="-1.5707963" sodipodi:arg2="-0.52359878" inkscape:flatsided="true" inkscape:rounded="0" inkscape:randomized="0" d="m 46.460667,62.999872 6.102289,10.569475 -12.204579,0 z" inkscape:transform-center-y="-1.76158" />
    <path sodipodi:type="star" style="opacity:1;fill:#610c36;fill-opacity:1;fill-rule:nonzero;stroke:#000000;stroke-width:2.09658;stroke-linecap:square;stroke-linejoin:round;stroke-miterlimit:4;stroke-dasharray:none;stroke-dashoffset:44.0315;stroke-opacity:0;paint-order:markers stroke fill" id="path1926-3" sodipodi:sides="3" sodipodi:cx="51.979782" sodipodi:cy="70.046188" sodipodi:r1="7.0463166" sodipodi:r2="3.5231583" sodipodi:arg1="-1.5707963" sodipodi:arg2="-0.52359878" inkscape:flatsided="true" inkscape:rounded="0" inkscape:randomized="0" d="m 51.979782,62.999872 6.102289,10.569475 -12.204578,0 z" inkscape:transform-center-y="-3.2894915" transform="matrix(1,0,0,1.8673533,3.1805074,-63.810615)" />
    <path style="opacity:1;fill:#4e1832;fill-opacity:1;fill-rule:nonzero;stroke:#000000;stroke-width:2.865;stroke-linecap:square;stroke-linejoin:round;stroke-miterlimit:4;stroke-dasharray:none;stroke-dashoffset:44.0315;stroke-opacity:0;paint-order:markers stroke fill" d="m 67.365049,93.306128 4.87981,-15.78353 3.8194,6.61613 6.10248,-10.56938 h -8.69973 -3.5047 -8.69973 z" id="path1926-0" inkscape:connector-curvature="0" />
  </g>
</svg>
