<?xml version="1.0" encoding="UTF-8" standalone="no"?>
<!-- Created with Inkscape (http://www.inkscape.org/) -->

<svg width="477.87793mm" height="895.88745mm" viewBox="0 0 477.87793 895.88745" version="1.1" id="svg8" inkscape:version="1.3 (0e150ed6c4, 2023-07-21)" sodipodi:docname="тн.svg" xmlns:inkscape="http://www.inkscape.org/namespaces/inkscape" xmlns:sodipodi="http://sodipodi.sourceforge.net/DTD/sodipodi-0.dtd" xmlns="http://www.w3.org/2000/svg" xmlns:svg="http://www.w3.org/2000/svg" xmlns:rdf="http://www.w3.org/1999/02/22-rdf-syntax-ns#" xmlns:cc="http://creativecommons.org/ns#" xmlns:dc="http://purl.org/dc/elements/1.1/">
  <defs id="defs2" />
  <sodipodi:namedview id="base" pagecolor="#ffffff" bordercolor="#666666" borderopacity="1.0" inkscape:pageopacity="0.0" inkscape:pageshadow="2" inkscape:zoom="0.175" inkscape:cx="1211.4286" inkscape:cy="1702.8572" inkscape:document-units="mm" inkscape:current-layer="layer1" showgrid="false" showguides="false" inkscape:window-width="2467" inkscape:window-height="1413" inkscape:window-x="84" inkscape:window-y="-9" inkscape:window-maximized="1" inkscape:showpageshadow="2" inkscape:pagecheckerboard="0" inkscape:deskcolor="#d1d1d1" />
  <metadata id="metadata5">
    <rdf:RDF>
      <cc:Work rdf:about="">
        <dc:format>image/svg+xml</dc:format>
        <dc:type rdf:resource="http://purl.org/dc/dcmitype/StillImage" />
        <dc:title />
      </cc:Work>
    </rdf:RDF>
  </metadata>
  <g inkscape:label="Layer 1" inkscape:groupmode="layer" id="layer1" transform="translate(153.94724,82.522728)">
    <rect style="fill:#ffde00;fill-opacity:1;fill-rule:evenodd;stroke-width:0.264583" id="rect1236" width="477.87793" height="895.88745" x="-153.94724" y="-82.522728" inkscape:export-xdpi="53.151649" inkscape:export-ydpi="53.151649" />
    <path style="opacity:1;fill:#ffeeda;fill-opacity:1;fill-rule:nonzero;stroke:none;stroke-width:1.4;stroke-linecap:round;stroke-linejoin:miter;stroke-miterlimit:4;stroke-dasharray:none;stroke-dashoffset:44.0315;stroke-opacity:1;paint-order:fill markers stroke" inkscape:transform-center-x="2.9361767e-06" inkscape:transform-center-y="11.853195" d="m 176.98828,175.29782 239.95221,-680.1064 h 214.99637 z" id="path1238-1-4" inkscape:connector-curvature="0" sodipodi:nodetypes="cccc" />
    <path style="opacity:1;fill:#ffeeda;fill-opacity:1;fill-rule:nonzero;stroke:none;stroke-width:1.4;stroke-linecap:round;stroke-linejoin:miter;stroke-miterlimit:4;stroke-dasharray:none;stroke-dashoffset:44.0315;stroke-opacity:1;paint-order:fill markers stroke" inkscape:transform-center-x="-2.9361767e-06" inkscape:transform-center-y="-11.853195" d="M 86.004973,133.25836 -153.94724,813.36475 h -214.99637 z" id="path1238-8" inkscape:connector-curvature="0" sodipodi:nodetypes="cccc" />
    <path style="opacity:1;fill:#ffeeda;fill-opacity:1;fill-rule:nonzero;stroke:none;stroke-width:1.4;stroke-linecap:round;stroke-linejoin:miter;stroke-miterlimit:4;stroke-dasharray:none;stroke-dashoffset:44.0315;stroke-opacity:1;paint-order:fill markers stroke" inkscape:transform-center-x="2.9361767e-06" inkscape:transform-center-y="11.853195" d="M -298.86315,597.58367 -58.910943,-82.522728 H 156.08543 Z" id="path1238-1" inkscape:connector-curvature="0" sodipodi:nodetypes="cccc" />
    <path style="opacity:1;fill:#ffeeda;fill-opacity:1;fill-rule:nonzero;stroke:none;stroke-width:1.4;stroke-linecap:round;stroke-linejoin:miter;stroke-miterlimit:4;stroke-dasharray:none;stroke-dashoffset:44.0315;stroke-opacity:1;paint-order:fill markers stroke" inkscape:transform-center-x="-2.9361767e-06" inkscape:transform-center-y="-11.853195" d="M 301.00134,133.25836 61.049132,813.36477 -153.94724,813.36476 Z" id="path1238" inkscape:connector-curvature="0" sodipodi:nodetypes="cccc" />
    <path style="opacity:1;fill:#ff8c00;fill-opacity:1;fill-rule:nonzero;stroke:none;stroke-width:1.4;stroke-linecap:round;stroke-linejoin:miter;stroke-miterlimit:4;stroke-dasharray:none;stroke-dashoffset:44.0315;stroke-opacity:1;paint-order:fill markers stroke" d="m 70.165132,74.506523 -6.29936,18.141529 -3.67626,-5.462199 -24.111706,-1.910479 5.303036,21.095356 -6.681764,-9.543606 -24.038324,4.205946 4.796605,10.72648 -2.426724,-0.85473 -18.1265426,14.24667 20.6607536,12.54342 7.268807,29.73876 -9.164298,-2.54558 3.660759,14.18156 -4.603337,-1.8247 -11.1677956,8.84391 0.939996,6.38669 -4.26589,1.76527 -2.52956,19.16213 15.3132766,11.75897 0.650089,4.41576 13.243118,5.2498 11.167795,-8.8439 -1.163754,-7.90546 4.658114,0.22738 -5.961909,18.55287 -41.4548336,-3.78013 11.068057,9.54412 -42.3038764,79.0143 -3.663341,-0.92811 2.27893,3.514 -5.937107,11.08872 -32.187182,-0.0403 23.058541,17.09042 -66.691535,124.56553 22.99963,-3.13211 -12.18375,14.47456 20.845235,33.47394 28.111463,-6.96341 29.019933,135.33281 18.800402,-5.42755 -31.302998,53.59103 32.845025,18.99523 -14.380001,36.10684 91.871913,10.71873 -17.317292,-71.63544 7.778332,2.24536 11.9755,-238.3069 29.08298,5.99858 4.231258,26.50279 4.09124,1.80816 -11.700068,1.22939 -8.19898,38.5718 34.150878,19.71715 29.30467,-26.3865 -7.69514,-17.28372 21.23075,9.38239 -56.08029,-262.11476 11.5693,-6.7076 -44.394178,-3.16828 -1.43712,-24.10861 5.22397,0.25529 -2.84013,3.66385 5.38726,13.18783 14.11439,1.92805 8.237738,-10.6283 5.29992,-0.63096 7.61712,-17.76378 -3.50264,-4.68395 4.68188,-10.63759 -10.73679,-14.64769 -11.185888,1.22318 3.1843,-12.33619 -5.87096,2.16937 8.86045,-23.13605 19.878378,2.41122 -6.52415,-6.84558 10.85927,-0.0202 2.68046,-35.86603 -22.04362,7.47707 -1.49603,-13.44001 -1.3255,0.40566 9.07437,-12.500531 z m -76.5482986,251.261667 -0.572577,4.00802 -0.410311,-0.10387 z m -33.7901864,108.55875 9.24233,1.90635 -23.539648,34.66713 -5.904032,-2.39572 4.432287,-0.60359 z M 7.2583764,444.1103 32.806688,449.37977 9.7719184,563.99912 -16.623886,491.44852 Z" id="path1213-1-59" inkscape:connector-curvature="0" />
    <path style="opacity:1;fill:#95663b;fill-opacity:1;fill-rule:nonzero;stroke:none;stroke-width:1.4;stroke-linecap:round;stroke-linejoin:miter;stroke-miterlimit:4;stroke-dasharray:none;stroke-dashoffset:44.0315;stroke-opacity:1;paint-order:fill markers stroke" d="m 117.44449,74.610909 -6.29936,18.141526 -3.67626,-5.462198 -24.111189,-1.910477 5.302517,21.09483 -6.681761,-9.543598 -24.038327,4.205948 4.796607,10.72647 -2.426726,-0.85421 -18.126543,14.24668 20.660756,12.5429 7.268806,29.73927 -9.164299,-2.5461 3.660759,14.18208 -4.602819,-1.82469 -11.168311,8.8434 0.940512,6.3872 -4.266406,1.76527 -2.529562,19.1616 15.313794,11.75949 0.65009,4.41523 13.242602,5.25034 11.168311,-8.84391 -1.16427,-7.90546 4.658111,0.22739 -5.961909,18.55287 -41.454316,-3.78066 11.06754,9.54413 -42.3038771,79.01429 -3.6633414,-0.9281 2.2789303,3.51398 -5.93710445,11.08925 -32.18666535,-0.0403 23.0580219,17.08991 -66.6915359,124.56552 22.999631,-3.13158 -12.183753,14.47456 20.84524,33.47341 28.111461,-6.96288 29.019933,135.33231 18.800921,-5.42758 -31.3029991,53.59156 32.8450231,18.99523 -14.380001,36.10684 91.871389,10.71872 -17.317284,-71.63593 7.778334,2.24533 11.97602,-238.3069 29.08297,5.99861 4.23127,26.50276 4.09122,1.80816 -11.70057,1.22991 -8.19847,38.57181 34.15036,19.71662 29.30467,-26.386 -7.69512,-17.2842 21.23073,9.3829 -56.08029,-262.11477 11.56933,-6.70759 -44.3942,-3.16881 -1.4366,-24.10809 5.22345,0.2553 -2.84014,3.66384 5.38727,13.18731 14.11439,1.92858 8.23774,-10.62882 5.30044,-0.63098 7.61658,-17.76375 -3.5026,-4.68344 4.68238,-10.6376 -10.73732,-14.6482 -11.18588,1.2237 3.18482,-12.3362 -5.87096,2.16938 8.86044,-23.13657 19.87786,2.41122 -6.52415,-6.84558 10.85929,-0.0202 2.68044,-35.86551 -22.0436,7.47654 -1.49552,-13.43949 -1.32654,0.40618 9.07491,-12.501563 z m -76.548301,251.261661 -0.572574,4.00752 -0.410311,-0.10388 z M 7.1060032,434.4308 l 9.2423298,1.90635 -23.5396483,34.66764 -5.9029967,-2.39573 4.4312519,-0.60356 z m 47.4317288,9.78339 25.548312,5.26944 -23.034251,114.61885 -26.396323,-72.5501 z" id="path1213-1-5" inkscape:connector-curvature="0" />
    <path sodipodi:type="star" style="opacity:1;fill:#95663b;fill-opacity:1;fill-rule:nonzero;stroke:none;stroke-width:1.4;stroke-linecap:round;stroke-linejoin:miter;stroke-miterlimit:4;stroke-dasharray:none;stroke-dashoffset:44.0315;stroke-opacity:1;paint-order:fill markers stroke" id="path1213-1" sodipodi:sides="5" sodipodi:cx="149.38686" sodipodi:cy="384.83392" sodipodi:r1="33.544201" sodipodi:r2="16.7721" sodipodi:arg1="-1.0471976" sodipodi:arg2="-0.41887907" inkscape:flatsided="true" inkscape:rounded="-3.46945e-18" inkscape:randomized="0" d="m 166.15896,355.78379 16.03908,36.02436 -29.30486,26.38622 -34.15048,-19.71679 8.1987,-38.57185 z" inkscape:transform-center-x="-7.203643" inkscape:transform-center-y="-0.1855672" transform="matrix(-0.96083838,-0.27710939,-0.27710939,0.96083838,219.5098,162.39798)" />
    <path style="opacity:1;fill:#451f53;fill-opacity:1;fill-rule:nonzero;stroke:none;stroke-width:1.4;stroke-linecap:round;stroke-linejoin:miter;stroke-miterlimit:4;stroke-dasharray:none;stroke-dashoffset:44.0315;stroke-opacity:1;paint-order:fill markers stroke" inkscape:transform-center-x="-1.5453818" inkscape:transform-center-y="-14.309667" d="m 53.600831,236.93952 -128.543446,240.09124 66.27966,-9.02562 29.690728,-63.2151 z" id="path1190-71" inkscape:connector-curvature="0" sodipodi:nodetypes="ccccc" />
    <path style="opacity:1;fill:#542766;fill-opacity:1;fill-rule:nonzero;stroke:none;stroke-width:1.4;stroke-linecap:round;stroke-linejoin:miter;stroke-miterlimit:4;stroke-dasharray:none;stroke-dashoffset:44.0315;stroke-opacity:1;paint-order:fill markers stroke" inkscape:transform-center-x="-2.6060936" inkscape:transform-center-y="-15.252596" d="m 53.600831,236.93952 8.660384,4.07121 -41.233442,163.77931 -29.690728,63.2151 z" id="path1190-7-0" inkscape:connector-curvature="0" sodipodi:nodetypes="ccccc" />
    <path sodipodi:type="star" style="opacity:1;fill:#95663b;fill-opacity:1;fill-rule:nonzero;stroke:none;stroke-width:1.4;stroke-linecap:round;stroke-linejoin:miter;stroke-miterlimit:4;stroke-dasharray:none;stroke-dashoffset:44.0315;stroke-opacity:1;paint-order:fill markers stroke" id="path1213" sodipodi:sides="5" sodipodi:cx="162.27159" sodipodi:cy="516.97113" sodipodi:r1="33.544201" sodipodi:r2="16.7721" sodipodi:arg1="-1.0471976" sodipodi:arg2="-0.41887907" inkscape:flatsided="true" inkscape:rounded="-3.46945e-18" inkscape:randomized="0" d="m 179.04369,487.921 16.03908,36.02436 -29.30485,26.38621 -34.15048,-19.71678 8.1987,-38.57186 z" inkscape:transform-center-x="8.3860534" inkscape:transform-center-y="-2.4716301e-06" />
    <path style="opacity:1;fill:#5c2b6f;fill-opacity:1;fill-rule:nonzero;stroke:none;stroke-width:1.4;stroke-linecap:round;stroke-linejoin:miter;stroke-miterlimit:4;stroke-dasharray:none;stroke-dashoffset:44.0315;stroke-opacity:1;paint-order:fill markers stroke" inkscape:transform-center-x="-0.37796754" inkscape:transform-center-y="-14.177517" d="m 151.64029,249.73454 -9.4494,1.5119 -5.76611,168.79162 11.01049,68.96707 61.18296,27.03888 z" id="path1190-7" inkscape:connector-curvature="0" sodipodi:nodetypes="cccccc" />
    <path style="opacity:1;fill:#110f14;fill-opacity:1;fill-rule:nonzero;stroke:none;stroke-width:1.4;stroke-linecap:round;stroke-linejoin:miter;stroke-miterlimit:4;stroke-dasharray:none;stroke-dashoffset:44.0315;stroke-opacity:1;paint-order:fill markers stroke" inkscape:transform-center-x="3.0109217" inkscape:transform-center-y="0.6433379" d="M 44.787671,624.0102 55.057522,729.44205 1.347433,698.38026 Z" id="path1114" inkscape:connector-curvature="0" sodipodi:nodetypes="cccc" />
    <path style="opacity:1;fill:#110f14;fill-opacity:1;fill-rule:nonzero;stroke:none;stroke-width:1.4;stroke-linecap:round;stroke-linejoin:miter;stroke-miterlimit:4;stroke-dasharray:none;stroke-dashoffset:44.0315;stroke-opacity:1;paint-order:fill markers stroke" inkscape:transform-center-x="3.2072353" inkscape:transform-center-y="-7.2450699" d="M 75.370007,613.98167 111.68405,764.20113 19.812559,753.48226 Z" id="path1111" inkscape:connector-curvature="0" sodipodi:nodetypes="cccc" />
    <path style="opacity:1;fill:#5b2a6e;fill-opacity:1;fill-rule:nonzero;stroke:none;stroke-width:1.4;stroke-linecap:round;stroke-linejoin:miter;stroke-miterlimit:4;stroke-dasharray:none;stroke-dashoffset:44.0315;stroke-opacity:1;paint-order:fill markers stroke" inkscape:transform-center-x="-6.0135632" inkscape:transform-center-y="5.1487891" d="M 117.15181,396.19213 62.941974,375.44361 -10.806344,430.73593 146.80065,463.24431 Z" id="path1084" inkscape:connector-curvature="0" sodipodi:nodetypes="ccccc" />
    <path style="opacity:1;fill:#443848;fill-opacity:1;fill-rule:nonzero;stroke:none;stroke-width:1.4;stroke-linecap:round;stroke-linejoin:miter;stroke-miterlimit:4;stroke-dasharray:none;stroke-dashoffset:44.0315;stroke-opacity:1;paint-order:fill markers stroke" inkscape:transform-center-x="-8.5526257" inkscape:transform-center-y="-15.444762" d="M 43.610179,396.18786 -20.40588,490.46602 13.849733,650.21659 81.298227,630.74566 30.65547,491.55238 86.484649,380.88994 Z" id="path1090-8" inkscape:connector-curvature="0" sodipodi:nodetypes="ccccccc" />
    <path style="opacity:1;fill:#6d3283;fill-opacity:1;fill-rule:nonzero;stroke:none;stroke-width:1.4;stroke-linecap:round;stroke-linejoin:miter;stroke-miterlimit:4;stroke-dasharray:none;stroke-dashoffset:44.0315;stroke-opacity:1;paint-order:fill markers stroke" inkscape:transform-center-x="0.467721" inkscape:transform-center-y="-13.459553" d="m 119.71297,244.05315 -2.56116,152.13898 29.64884,67.05218 -6.97124,-112.19884 2.36148,-99.79903 z" id="path1066-4" inkscape:connector-curvature="0" sodipodi:nodetypes="cccccc" />
    <path style="opacity:1;fill:#4d4052;fill-opacity:1;fill-rule:nonzero;stroke:none;stroke-width:1.4;stroke-linecap:round;stroke-linejoin:miter;stroke-miterlimit:4;stroke-dasharray:none;stroke-dashoffset:44.0315;stroke-opacity:1;paint-order:fill markers stroke" inkscape:transform-center-x="1.1684098e-06" inkscape:transform-center-y="6.9084083" d="M 117.33132,421.38523 43.610179,396.18786 62.941974,375.44361 117.15181,396.19213 Z" id="path1087" inkscape:connector-curvature="0" sodipodi:nodetypes="ccccc" />
    <path style="opacity:1;fill:#6d3283;fill-opacity:1;fill-rule:nonzero;stroke:none;stroke-width:1.4;stroke-linecap:round;stroke-linejoin:miter;stroke-miterlimit:4;stroke-dasharray:none;stroke-dashoffset:44.0315;stroke-opacity:1;paint-order:fill markers stroke" inkscape:transform-center-x="-0.467721" inkscape:transform-center-y="-13.459553" d="m 80.889597,236.96251 -17.947623,138.4811 -73.748318,55.29232 51.07071,-100.43898 13.336465,-93.35743 z" id="path1066" inkscape:connector-curvature="0" sodipodi:nodetypes="cccccc" />
    <path style="opacity:1;fill:#612d75;fill-opacity:1;fill-rule:nonzero;stroke:none;stroke-width:1.4;stroke-linecap:round;stroke-linejoin:miter;stroke-miterlimit:4;stroke-dasharray:none;stroke-dashoffset:44.0315;stroke-opacity:1;paint-order:fill markers stroke" inkscape:transform-center-x="-2.2717917" inkscape:transform-center-y="3.0438716" d="m 115.34359,275.49281 48.76383,-28.27113 -44.39445,-3.16853 z" id="path1048-4" inkscape:connector-curvature="0" sodipodi:nodetypes="cccc" />
    <path style="opacity:1;fill:#612d75;fill-opacity:1;fill-rule:nonzero;stroke:none;stroke-width:1.4;stroke-linecap:round;stroke-linejoin:miter;stroke-miterlimit:4;stroke-dasharray:none;stroke-dashoffset:44.0315;stroke-opacity:1;paint-order:fill markers stroke" inkscape:transform-center-x="2.2717917" inkscape:transform-center-y="3.0438716" d="m 81.517206,269.47125 -42.082095,-36.28922 41.454486,3.78048 z" id="path1048" inkscape:connector-curvature="0" sodipodi:nodetypes="cccc" />
    <path style="opacity:1;fill:#95663b;fill-opacity:1;fill-rule:nonzero;stroke:none;stroke-width:1.4;stroke-linecap:round;stroke-linejoin:miter;stroke-miterlimit:4;stroke-dasharray:none;stroke-dashoffset:44.0315;stroke-opacity:1;paint-order:fill markers stroke" inkscape:transform-center-x="1.923741" inkscape:transform-center-y="-2.2000956" d="m 90.966219,205.60533 26.311711,-2.40966 2.43504,40.85748 -38.823373,-7.09064 z" id="path1033" inkscape:connector-curvature="0" sodipodi:nodetypes="ccccc" />
    <path style="opacity:1;fill:#a97443;fill-opacity:1;fill-rule:nonzero;stroke:none;stroke-width:2.165;stroke-linecap:round;stroke-linejoin:round;stroke-miterlimit:4;stroke-dasharray:none;stroke-dashoffset:44.0315;stroke-opacity:1;paint-order:stroke fill markers" inkscape:transform-center-x="1.9495462" inkscape:transform-center-y="1.8204607" d="m 143.75738,168.87464 -19.30162,7.13139 12.99536,17.29823 z" id="path943-5" inkscape:connector-curvature="0" sodipodi:nodetypes="cccc" />
    <path sodipodi:type="star" style="opacity:1;fill:#a97443;fill-opacity:1;fill-rule:nonzero;stroke:none;stroke-width:2.165;stroke-linecap:round;stroke-linejoin:round;stroke-miterlimit:4;stroke-dasharray:none;stroke-dashoffset:44.0315;stroke-opacity:1;paint-order:stroke fill markers" id="path943" sodipodi:sides="3" sodipodi:cx="71.154022" sodipodi:cy="175.38615" sodipodi:r1="14.566802" sodipodi:r2="7.283401" sodipodi:arg1="-2.3470204" sodipodi:arg2="-1.2998229" inkscape:flatsided="true" inkscape:rounded="-3.46945e-18" inkscape:randomized="0" d="m 60.948666,164.99181 24.309802,6.75342 -18.003535,17.67619 z" inkscape:transform-center-x="-1.9495433" inkscape:transform-center-y="1.8204607" />
    <path style="opacity:1;fill:#5f2b26;fill-opacity:1;fill-rule:nonzero;stroke:none;stroke-width:2.165;stroke-linecap:round;stroke-linejoin:round;stroke-miterlimit:4;stroke-dasharray:none;stroke-dashoffset:44.0315;stroke-opacity:1;paint-order:stroke fill markers" inkscape:transform-center-x="-8.8047853" inkscape:transform-center-y="1.8693965" d="m 91.931849,119.48969 -8.574324,-34.110255 24.111305,1.91057 15.283,22.708545 27.34931,-8.37404 3.08497,27.71704 -40.40893,14.70133 z" id="path880-7-6-4" inkscape:connector-curvature="0" sodipodi:nodetypes="cccccccc" />
    <path style="opacity:1;fill:#5f2b26;fill-opacity:1;fill-rule:nonzero;stroke:none;stroke-width:2.165;stroke-linecap:round;stroke-linejoin:round;stroke-miterlimit:4;stroke-dasharray:none;stroke-dashoffset:44.0315;stroke-opacity:1;paint-order:stroke fill markers" inkscape:transform-center-x="-6.5774153" inkscape:transform-center-y="5.4322085" d="m 70.069319,128.26018 -12.12927,-27.12343 24.038576,-4.205761 10.898164,15.566141 38.365121,5.41624 -33.544861,26.90264 z" id="path880-7-6" inkscape:connector-curvature="0" sodipodi:nodetypes="ccccccc" />
    <path style="opacity:1;fill:#5f2b26;fill-opacity:1;fill-rule:nonzero;stroke:none;stroke-width:2.165;stroke-linecap:round;stroke-linejoin:round;stroke-miterlimit:4;stroke-dasharray:none;stroke-dashoffset:44.0315;stroke-opacity:1;paint-order:stroke fill markers" inkscape:transform-center-x="2.1450838" inkscape:transform-center-y="4.5190735" d="m 170.95996,143.45316 2.6805,-35.86573 -27.94962,9.48 -36.54856,-12.86159 17.38535,39.32886 z" id="path880-7" inkscape:connector-curvature="0" sodipodi:nodetypes="cccccc" />
    <path sodipodi:type="star" style="opacity:1;fill:#763322;fill-opacity:1;fill-rule:nonzero;stroke:none;stroke-width:2.30404;stroke-linecap:round;stroke-linejoin:round;stroke-miterlimit:4;stroke-dasharray:none;stroke-dashoffset:44.0315;stroke-opacity:1;paint-order:stroke fill markers" id="path824-8-2" sodipodi:sides="6" sodipodi:cx="64.066963" sodipodi:cy="196.26935" sodipodi:r1="19.327976" sodipodi:r2="9.6639881" sodipodi:arg1="2.7492525" sodipodi:arg2="3.2728513" inkscape:flatsided="true" inkscape:rounded="-3.469447e-18" inkscape:randomized="0" d="m 46.207588,203.65943 2.529685,-19.16171 17.859375,-7.39009 15.32969,11.77163 -2.529684,19.16172 -17.859376,7.39008 z" inkscape:transform-center-x="0.62623169" inkscape:transform-center-y="-3.6160151" transform="matrix(-0.82404184,0.45155505,0.45155505,0.82404184,108.60938,5.9460687)" />
    <path sodipodi:type="star" style="opacity:1;fill:#5f2b26;fill-opacity:1;fill-rule:nonzero;stroke:none;stroke-width:2.93741;stroke-linecap:round;stroke-linejoin:round;stroke-miterlimit:4;stroke-dasharray:none;stroke-dashoffset:44.0315;stroke-opacity:1;paint-order:stroke fill markers" id="path824-8" sodipodi:sides="6" sodipodi:cx="64.066963" sodipodi:cy="196.26935" sodipodi:r1="19.327976" sodipodi:r2="9.6639881" sodipodi:arg1="2.7492525" sodipodi:arg2="3.2728513" inkscape:flatsided="true" inkscape:rounded="-3.469447e-18" inkscape:randomized="0" d="m 46.207588,203.65943 2.529685,-19.16171 17.859375,-7.39009 15.32969,11.77163 -2.529684,19.16172 -17.859376,7.39008 z" inkscape:transform-center-x="-1.2259731" inkscape:transform-center-y="-2.6044196" transform="matrix(0.52925358,0.51295615,-0.51295615,0.52925358,128.85138,54.702828)" />
    <path style="fill:#34003a;fill-opacity:1;fill-rule:evenodd;stroke-width:0.264583" d="m 69.222804,121.67119 75.637286,8.8199 -16.83799,55.85933 -48.910323,3.74177 z" id="rect815" inkscape:connector-curvature="0" sodipodi:nodetypes="ccccc" />
    <path style="opacity:1;fill:#a97443;fill-opacity:1;fill-rule:nonzero;stroke:none;stroke-width:2.165;stroke-linecap:round;stroke-linejoin:round;stroke-miterlimit:4;stroke-dasharray:none;stroke-dashoffset:44.0315;stroke-opacity:1;paint-order:stroke fill markers" inkscape:transform-center-x="-0.66817245" inkscape:transform-center-y="2.9626629" d="m 76.171813,217.88821 2.939964,-27.79602 48.910323,-3.74177 0.0202,34.07149 z" id="path818" inkscape:connector-curvature="0" sodipodi:nodetypes="ccccc" />
    <path style="opacity:1;fill:#5f2b26;fill-opacity:1;fill-rule:nonzero;stroke:none;stroke-width:2.165;stroke-linecap:round;stroke-linejoin:round;stroke-miterlimit:4;stroke-dasharray:none;stroke-dashoffset:44.0315;stroke-opacity:1;paint-order:stroke fill markers" inkscape:transform-center-x="-0.89835813" inkscape:transform-center-y="-2.3182551" d="m 66.901787,198.34822 5.428361,-21.74094 -12.555451,-51.36847 9.448107,-3.56762 9.888973,68.421 -2.939964,27.79602 z" id="path821" inkscape:connector-curvature="0" sodipodi:nodetypes="ccccccc" />
    <path sodipodi:type="star" style="opacity:1;fill:#763322;fill-opacity:1;fill-rule:nonzero;stroke:none;stroke-width:2.165;stroke-linecap:round;stroke-linejoin:round;stroke-miterlimit:4;stroke-dasharray:none;stroke-dashoffset:44.0315;stroke-opacity:1;paint-order:stroke fill markers" id="path824" sodipodi:sides="6" sodipodi:cx="60.842121" sodipodi:cy="206.11658" sodipodi:r1="19.327976" sodipodi:r2="9.6639881" sodipodi:arg1="2.7492525" sodipodi:arg2="3.2728513" inkscape:flatsided="true" inkscape:rounded="-3.469447e-18" inkscape:randomized="0" d="m 42.982746,213.50666 2.529685,-19.16171 17.859375,-7.39009 15.32969,11.77163 -2.529685,19.16172 -17.859375,7.39008 z" inkscape:transform-center-x="1.2648412" inkscape:transform-center-y="-3.695038" />
    <path sodipodi:type="star" style="opacity:1;fill:#5f2b26;fill-opacity:1;fill-rule:nonzero;stroke:none;stroke-width:2.93741;stroke-linecap:round;stroke-linejoin:round;stroke-miterlimit:4;stroke-dasharray:none;stroke-dashoffset:44.0315;stroke-opacity:1;paint-order:stroke fill markers" id="path824-8-5" sodipodi:sides="6" sodipodi:cx="64.066963" sodipodi:cy="196.26935" sodipodi:r1="19.327976" sodipodi:r2="9.6639881" sodipodi:arg1="2.7492525" sodipodi:arg2="3.2728513" inkscape:flatsided="true" inkscape:rounded="-3.469447e-18" inkscape:randomized="0" d="m 46.207588,203.65943 2.529685,-19.16171 17.859375,-7.39009 15.32969,11.77163 -2.529684,19.16172 -17.859376,7.39008 z" inkscape:transform-center-x="-1.2259731" inkscape:transform-center-y="-2.6044196" transform="matrix(0.52925358,0.51295615,-0.51295615,0.52925358,136.88448,84.098)" />
    <path style="opacity:1;fill:#5f2b26;fill-opacity:1;fill-rule:nonzero;stroke:none;stroke-width:2.165;stroke-linecap:round;stroke-linejoin:round;stroke-miterlimit:4;stroke-dasharray:none;stroke-dashoffset:44.0315;stroke-opacity:1;paint-order:stroke fill markers" inkscape:transform-center-x="0.89835903" inkscape:transform-center-y="-2.3182551" d="m 137.31233,200.88192 -3.60753,-18.9197 16.6211,-43.39874 -5.46581,-8.07239 -16.83799,55.85933 0.0202,34.07149 z" id="path821-9" inkscape:connector-curvature="0" sodipodi:nodetypes="ccccccc" />
    <path sodipodi:type="star" style="opacity:1;fill:#5f2b26;fill-opacity:1;fill-rule:nonzero;stroke:none;stroke-width:2.165;stroke-linecap:round;stroke-linejoin:round;stroke-miterlimit:4;stroke-dasharray:none;stroke-dashoffset:44.0315;stroke-opacity:1;paint-order:stroke fill markers" id="path824-1" sodipodi:sides="6" sodipodi:cx="-143.37199" sodipodi:cy="208.65028" sodipodi:r1="19.327976" sodipodi:r2="9.6639881" sodipodi:arg1="2.7492525" sodipodi:arg2="3.2728513" inkscape:flatsided="true" inkscape:rounded="-3.469447e-18" inkscape:randomized="0" d="m -161.23137,216.04037 2.52969,-19.16172 17.85937,-7.39008 15.32969,11.77163 -2.52968,19.16171 -17.85938,7.39009 z" inkscape:transform-center-x="0.70328383" inkscape:transform-center-y="-3.8416778" transform="matrix(-0.87232084,0.48893389,0.48893389,0.87232084,-84.958627,100.33162)" />
    <path sodipodi:type="star" style="opacity:1;fill:#763322;fill-opacity:1;fill-rule:nonzero;stroke:none;stroke-width:2.93741;stroke-linecap:round;stroke-linejoin:round;stroke-miterlimit:4;stroke-dasharray:none;stroke-dashoffset:44.0315;stroke-opacity:1;paint-order:stroke fill markers" id="path824-8-5-4" sodipodi:sides="6" sodipodi:cx="64.066963" sodipodi:cy="196.26935" sodipodi:r1="19.327976" sodipodi:r2="9.6639881" sodipodi:arg1="2.7492525" sodipodi:arg2="3.2728513" inkscape:flatsided="true" inkscape:rounded="-3.469447e-18" inkscape:randomized="0" d="m 46.207588,203.65943 2.529685,-19.16171 17.859375,-7.39009 15.32969,11.77163 -2.529684,19.16172 -17.859376,7.39008 z" inkscape:transform-center-x="2.3808937" inkscape:transform-center-y="-1.6178283" transform="matrix(-0.19448344,0.71092162,0.71092162,0.19448344,7.7019844,142.07454)" />
    <path style="opacity:1;fill:#6b302b;fill-opacity:1;fill-rule:nonzero;stroke:none;stroke-width:2.165;stroke-linecap:round;stroke-linejoin:round;stroke-miterlimit:4;stroke-dasharray:none;stroke-dashoffset:44.0315;stroke-opacity:1;paint-order:stroke fill markers" inkscape:transform-center-x="1.2023809e-06" inkscape:transform-center-y="-1.5107799e-06" d="m 76.351191,145.99851 -34.167784,-20.74304 18.126721,-14.24654 23.678849,8.33778 33.098213,-20.142634 -8.87527,42.074214 z" id="path880" inkscape:connector-curvature="0" sodipodi:nodetypes="ccccccc" />
    <path style="opacity:1;fill:#763322;fill-opacity:1;fill-rule:nonzero;stroke:none;stroke-width:2.165;stroke-linecap:round;stroke-linejoin:round;stroke-miterlimit:4;stroke-dasharray:none;stroke-dashoffset:44.0315;stroke-opacity:1;paint-order:stroke fill markers" inkscape:transform-center-x="2.3614298" inkscape:transform-center-y="-8.559088" d="m 122.17717,144.92743 44.44766,5.39152 -30.029,-31.51049 21.25382,-29.279188 -40.40498,-14.91877 -16.81585,48.427648 z" id="path880-3" inkscape:connector-curvature="0" sodipodi:nodetypes="ccccccc" />
    <path style="opacity:1;fill:#e2e2e2;fill-opacity:1;fill-rule:nonzero;stroke:none;stroke-width:1.4;stroke-linecap:round;stroke-linejoin:miter;stroke-miterlimit:4;stroke-dasharray:none;stroke-dashoffset:44.0315;stroke-opacity:1;paint-order:fill markers stroke" inkscape:transform-center-x="-0.63476405" inkscape:transform-center-y="0.83673572" d="m 82.912692,188.29728 -11.338496,-7.15429 30.139584,0.53633 z" id="path961" inkscape:connector-curvature="0" sodipodi:nodetypes="cccc" />
    <path style="opacity:1;fill:#e2e2e2;fill-opacity:1;fill-rule:nonzero;stroke:none;stroke-width:1.4;stroke-linecap:round;stroke-linejoin:miter;stroke-miterlimit:4;stroke-dasharray:none;stroke-dashoffset:44.0315;stroke-opacity:1;paint-order:fill markers stroke" inkscape:transform-center-x="0.63476405" inkscape:transform-center-y="0.83673572" d="m 127.70749,189.35765 10.11007,-8.00473 -28.53318,0.81981 z" id="path961-1" inkscape:connector-curvature="0" sodipodi:nodetypes="cccc" />
    <path style="fill:#e2e2e2;fill-opacity:1;fill-rule:evenodd;stroke:none;stroke-width:1.4;stroke-linecap:round;stroke-miterlimit:4;stroke-dasharray:none;stroke-opacity:1;paint-order:fill markers stroke" d="m 71.507371,171.19403 30.101399,0.42522 1.87228,7.72877 -32.824125,-2.4444 z" id="rect979" inkscape:connector-curvature="0" sodipodi:nodetypes="ccccc" />
    <path style="fill:#e2e2e2;fill-opacity:1;fill-rule:evenodd;stroke:none;stroke-width:1.4;stroke-linecap:round;stroke-miterlimit:4;stroke-dasharray:none;stroke-opacity:1;paint-order:fill markers stroke" d="m 138.9065,173.78761 -30.1014,0.42522 -1.80546,6.39242 32.82413,-2.4444 z" id="rect979-2" inkscape:connector-curvature="0" sodipodi:nodetypes="ccccc" />
    <path style="opacity:1;fill:#5f2b26;fill-opacity:1;fill-rule:nonzero;stroke:none;stroke-width:1.4;stroke-linecap:round;stroke-linejoin:miter;stroke-miterlimit:4;stroke-dasharray:none;stroke-dashoffset:44.0315;stroke-opacity:1;paint-order:fill markers stroke" inkscape:transform-center-x="-0.18898686" inkscape:transform-center-y="-0.78127477" d="m 88.918893,211.01041 6.202684,10.3505 -4.751351,0.27669 z" id="path997" inkscape:connector-curvature="0" sodipodi:nodetypes="cccc" />
    <path style="opacity:1;fill:#5f2b26;fill-opacity:1;fill-rule:nonzero;stroke:none;stroke-width:1.4;stroke-linecap:round;stroke-linejoin:miter;stroke-miterlimit:4;stroke-dasharray:none;stroke-dashoffset:44.0315;stroke-opacity:1;paint-order:fill markers stroke" inkscape:transform-center-x="0.18898686" inkscape:transform-center-y="-0.78127477" d="m 120.14288,213.07622 -10.40767,8.88584 6.83022,1.12714 z" id="path997-9" inkscape:connector-curvature="0" sodipodi:nodetypes="cccc" />
    <path style="opacity:1;fill:#5f2b26;fill-opacity:1;fill-rule:nonzero;stroke:none;stroke-width:1.4;stroke-linecap:round;stroke-linejoin:miter;stroke-miterlimit:4;stroke-dasharray:none;stroke-dashoffset:44.0315;stroke-opacity:1;paint-order:fill markers stroke" inkscape:transform-center-x="0.18898686" inkscape:transform-center-y="-0.78127477" d="m 102.60357,213.1146 -3.509598,7.51568 7.397178,1.03265 z" id="path997-9-3" inkscape:connector-curvature="0" sodipodi:nodetypes="cccc" />
    <path style="opacity:1;fill:#a97443;fill-opacity:1;fill-rule:nonzero;stroke:none;stroke-width:1.4;stroke-linecap:round;stroke-linejoin:miter;stroke-miterlimit:4;stroke-dasharray:none;stroke-dashoffset:44.0315;stroke-opacity:1;paint-order:fill markers stroke" inkscape:transform-center-x="1.3339285e-06" inkscape:transform-center-y="-1.3465425" d="m 103.28199,183.60713 11.65711,8.7407 -23.077985,-0.75595 z" id="path1030" inkscape:connector-curvature="0" sodipodi:nodetypes="cccc" />
    <path style="opacity:1;fill:#180912;fill-opacity:1;fill-rule:nonzero;stroke:none;stroke-width:1.4;stroke-linecap:round;stroke-linejoin:miter;stroke-miterlimit:4;stroke-dasharray:none;stroke-dashoffset:44.0315;stroke-opacity:1;paint-order:fill markers stroke" inkscape:transform-center-x="-0.86862461" inkscape:transform-center-y="3.9583701" d="m 62.941974,375.44361 17.947623,-138.4811 38.823373,7.09064 -2.56116,152.13898 z" id="path1036" inkscape:connector-curvature="0" sodipodi:nodetypes="ccccc" />
    <path style="opacity:1;fill:#b14485;fill-opacity:1;fill-rule:nonzero;stroke:none;stroke-width:1.4;stroke-linecap:round;stroke-linejoin:miter;stroke-miterlimit:4;stroke-dasharray:none;stroke-dashoffset:44.0315;stroke-opacity:1;paint-order:fill markers stroke" inkscape:transform-center-x="-1.899588" inkscape:transform-center-y="-1.6898981" d="m 99.691534,238.20069 3.474326,9.86938 -0.94801,106.72502 -46.319635,45.21554 -87.207633,-64.6357 93.783601,0.11709 z" id="path1041" inkscape:connector-curvature="0" sodipodi:nodetypes="ccccccc" />
    <path style="opacity:1;fill:#bf5796;fill-opacity:1;fill-rule:nonzero;stroke:none;stroke-width:1.4;stroke-linecap:round;stroke-linejoin:miter;stroke-miterlimit:4;stroke-dasharray:none;stroke-dashoffset:44.0315;stroke-opacity:1;paint-order:fill markers stroke" inkscape:transform-center-x="-4.9113851" inkscape:transform-center-y="4.9113811" d="M 4.5357118,320.81249 62.474183,335.49202 103.16586,248.07007 55.898215,400.01063 Z" id="path1045" inkscape:connector-curvature="0" sodipodi:nodetypes="ccccc" />
    <path transform="rotate(-17.696824,96.278686,257.09739)" style="opacity:1;fill:#b14485;fill-opacity:1;fill-rule:nonzero;stroke:none;stroke-width:1.4;stroke-linecap:round;stroke-linejoin:miter;stroke-miterlimit:4;stroke-dasharray:none;stroke-dashoffset:44.0315;stroke-opacity:1;paint-order:fill markers stroke" inkscape:transform-center-x="2.3453642" inkscape:transform-center-y="-2.4773509" d="m 99.482892,234.89059 18.912958,7.99642 -6.04678,18.61009 H 92.781259 l -6.046784,-18.61009 z" id="path1039" inkscape:connector-curvature="0" sodipodi:nodetypes="cccccc" />
    <path style="opacity:1;fill:#4d4052;fill-opacity:1;fill-rule:nonzero;stroke:none;stroke-width:1.4;stroke-linecap:round;stroke-linejoin:miter;stroke-miterlimit:4;stroke-dasharray:none;stroke-dashoffset:44.0315;stroke-opacity:1;paint-order:fill markers stroke" inkscape:transform-center-x="8.5526257" inkscape:transform-center-y="-15.444762" d="M 117.15181,396.19213 102.14525,694.81085 34.696756,675.33993 91.83004,391.04618 Z" id="path1090" inkscape:connector-curvature="0" sodipodi:nodetypes="ccccc" />
    <path style="opacity:1;fill:#28212b;fill-opacity:1;fill-rule:nonzero;stroke:none;stroke-width:1.4;stroke-linecap:round;stroke-linejoin:miter;stroke-miterlimit:4;stroke-dasharray:none;stroke-dashoffset:44.0315;stroke-opacity:1;paint-order:fill markers stroke" inkscape:transform-center-x="2.9399656" inkscape:transform-center-y="-4.0020284" d="m 55.057522,729.44205 34.654637,5.29446 21.971891,29.46462 -91.871491,-10.71887 z" id="path1108" inkscape:connector-curvature="0" sodipodi:nodetypes="ccccc" />
    <path style="opacity:1;fill:#823c9c;fill-opacity:1;fill-rule:nonzero;stroke:none;stroke-width:1.4;stroke-linecap:round;stroke-linejoin:miter;stroke-miterlimit:4;stroke-dasharray:none;stroke-dashoffset:44.0315;stroke-opacity:1;paint-order:fill markers stroke" inkscape:transform-center-x="-0.37796754" inkscape:transform-center-y="-14.177517" d="m 151.64029,249.73454 56.97794,266.30947 -61.18296,-27.03888 z" id="path1190" inkscape:connector-curvature="0" sodipodi:nodetypes="cccc" />
    <path style="opacity:1;fill:#ffeeda;fill-opacity:1;fill-rule:nonzero;stroke:none;stroke-width:1.4;stroke-linecap:round;stroke-linejoin:miter;stroke-miterlimit:4;stroke-dasharray:none;stroke-dashoffset:44.0315;stroke-opacity:1;paint-order:fill markers stroke" inkscape:transform-center-x="-2.9361767e-06" inkscape:transform-center-y="-11.853195" d="M 407.07941,334.33137 167.1272,1014.4378 H -47.869167 Z" id="path1238-2" inkscape:connector-curvature="0" sodipodi:nodetypes="cccc" />
  </g>
</svg>
