<?xml version="1.0" encoding="UTF-8" standalone="no"?>
<!-- Created with Inkscape (http://www.inkscape.org/) -->

<svg width="216.95833mm" height="330.3512mm" viewBox="0 0 216.95833 330.3512" version="1.1" id="svg8" inkscape:version="1.3 (0e150ed6c4, 2023-07-21)" sodipodi:docname="зенщина.svg" xmlns:inkscape="http://www.inkscape.org/namespaces/inkscape" xmlns:sodipodi="http://sodipodi.sourceforge.net/DTD/sodipodi-0.dtd" xmlns:xlink="http://www.w3.org/1999/xlink" xmlns="http://www.w3.org/2000/svg" xmlns:svg="http://www.w3.org/2000/svg" xmlns:rdf="http://www.w3.org/1999/02/22-rdf-syntax-ns#" xmlns:cc="http://creativecommons.org/ns#" xmlns:dc="http://purl.org/dc/elements/1.1/">
  <defs id="defs2">
    <linearGradient inkscape:collect="always" id="linearGradient2456">
      <stop id="stop2454" offset="0" style="stop-color:#a51b00;stop-opacity:0;" />
      <stop id="stop2452" offset="1" style="stop-color:#a51b00;stop-opacity:1;" />
    </linearGradient>
    <linearGradient inkscape:collect="always" id="linearGradient1465">
      <stop style="stop-color:#fac3a5;stop-opacity:1;" offset="0" id="stop1461" />
      <stop style="stop-color:#fac3a5;stop-opacity:0;" offset="1" id="stop1463" />
    </linearGradient>
    <linearGradient inkscape:collect="always" xlink:href="#linearGradient1465" id="linearGradient1451" x1="-26.454868" y1="302.09238" x2="55.875065" y2="195.33012" gradientUnits="userSpaceOnUse" gradientTransform="translate(-3e-6)" />
    <linearGradient inkscape:collect="always" xlink:href="#linearGradient1465" id="linearGradient1467" x1="190.5" y1="152.61308" x2="121.35688" y2="163.94775" gradientUnits="userSpaceOnUse" />
    <radialGradient inkscape:collect="always" xlink:href="#linearGradient2456" id="radialGradient2458" cx="116.88815" cy="161.78923" fx="116.88815" fy="161.78923" r="108.47916" gradientTransform="matrix(0,-4.6417746,3.4936776,0,-457.79705,665.83019)" gradientUnits="userSpaceOnUse" />
  </defs>
  <sodipodi:namedview id="base" pagecolor="#ffffff" bordercolor="#666666" borderopacity="1.0" inkscape:pageopacity="0.0" inkscape:pageshadow="2" inkscape:zoom="0.35" inkscape:cx="371.42857" inkscape:cy="1140" inkscape:document-units="mm" inkscape:current-layer="layer2" showgrid="false" showguides="false" inkscape:window-width="2467" inkscape:window-height="1413" inkscape:window-x="84" inkscape:window-y="-9" inkscape:window-maximized="1" inkscape:showpageshadow="2" inkscape:pagecheckerboard="0" inkscape:deskcolor="#d1d1d1" />
  <metadata id="metadata5">
    <rdf:RDF>
      <cc:Work rdf:about="">
        <dc:format>image/svg+xml</dc:format>
        <dc:type rdf:resource="http://purl.org/dc/dcmitype/StillImage" />
        <dc:title />
      </cc:Work>
    </rdf:RDF>
  </metadata>
  <g inkscape:groupmode="layer" id="layer2" inkscape:label="Layer 2" style="display:inline" transform="translate(5.7804933,13.56107)">
    <rect style="fill:#c8a69e;fill-opacity:1;fill-rule:evenodd;stroke-width:0.264583" id="rect2124" width="216.95833" height="330.3512" x="-5.7804933" y="-13.56107" />
    <rect style="fill:#e1ecee;fill-opacity:1;fill-rule:evenodd;stroke-width:0.264583" id="rect2124-9-8" width="141.85042" height="167.93056" x="31.773447" y="19.646271" />
    <circle style="fill:#fbffff;fill-opacity:1;fill-rule:evenodd;stroke-width:0.264583" id="path2284" cx="60.78772" cy="130.7928" r="35.413212" />
    <path sodipodi:type="star" style="opacity:1;fill:#dec1a3;fill-opacity:1;fill-rule:nonzero;stroke:none;stroke-width:4.065;stroke-linecap:square;stroke-linejoin:round;stroke-miterlimit:4;stroke-dasharray:none;stroke-dashoffset:44.0315;stroke-opacity:0.980916;paint-order:markers stroke fill" id="path2175" sodipodi:sides="3" sodipodi:cx="72.684731" sodipodi:cy="169.8759" sodipodi:r1="35.401863" sodipodi:r2="17.700932" sodipodi:arg1="-1.5707963" sodipodi:arg2="-0.52359878" inkscape:flatsided="true" inkscape:rounded="0" inkscape:randomized="0" d="m 72.684731,134.47404 30.658909,53.10279 -61.317823,0 z" inkscape:transform-center-y="-8.8504681" />
    <path sodipodi:type="star" style="opacity:1;fill:#dec1a3;fill-opacity:1;fill-rule:nonzero;stroke:none;stroke-width:3.24553;stroke-linecap:square;stroke-linejoin:round;stroke-miterlimit:4;stroke-dasharray:none;stroke-dashoffset:44.0315;stroke-opacity:0.980916;paint-order:markers stroke fill" id="path2175-5" sodipodi:sides="3" sodipodi:cx="42.763126" sodipodi:cy="169.81027" sodipodi:r1="35.401863" sodipodi:r2="17.700932" sodipodi:arg1="-1.5707963" sodipodi:arg2="-0.52359878" inkscape:flatsided="true" inkscape:rounded="0" inkscape:randomized="0" d="m 42.763127,134.40841 30.658912,53.10279 -61.317826,0 z" inkscape:transform-center-y="-13.884049" transform="matrix(1,0,0,1.5687357,7.0728397,-106.5787)" />
    <path sodipodi:type="star" style="opacity:1;fill:#dec1a3;fill-opacity:1;fill-rule:nonzero;stroke:none;stroke-width:3.87434;stroke-linecap:square;stroke-linejoin:round;stroke-miterlimit:4;stroke-dasharray:none;stroke-dashoffset:44.0315;stroke-opacity:0.980916;paint-order:markers stroke fill" id="path2175-5-3" sodipodi:sides="3" sodipodi:cx="42.763126" sodipodi:cy="169.81027" sodipodi:r1="35.401863" sodipodi:r2="17.700932" sodipodi:arg1="-1.5707963" sodipodi:arg2="-0.52359878" inkscape:flatsided="true" inkscape:rounded="0" inkscape:randomized="0" d="m 42.763127,134.40841 30.658912,53.10279 -61.317826,0 z" inkscape:transform-center-y="-8.3088978" transform="matrix(1.172598,0,0,0.93880854,82.993624,11.539709)" />
    <path sodipodi:type="star" style="opacity:1;fill:#dec1a3;fill-opacity:1;fill-rule:nonzero;stroke:none;stroke-width:3.87019;stroke-linecap:square;stroke-linejoin:round;stroke-miterlimit:4;stroke-dasharray:none;stroke-dashoffset:44.0315;stroke-opacity:0.980916;paint-order:markers stroke fill" id="path2175-7" sodipodi:sides="3" sodipodi:cx="159.56059" sodipodi:cy="169.97508" sodipodi:r1="35.401863" sodipodi:r2="17.700932" sodipodi:arg1="-1.5707963" sodipodi:arg2="-0.52359878" inkscape:flatsided="true" inkscape:rounded="0" inkscape:randomized="0" d="m 159.56059,134.57322 30.65891,53.10279 -61.31782,0 z" inkscape:transform-center-y="-9.7639115" transform="matrix(1,0,0,1.1032084,-2.4215261,-19.468933)" />
    <path sodipodi:type="star" style="opacity:1;fill:#dec1a3;fill-opacity:1;fill-rule:nonzero;stroke:none;stroke-width:3.5425;stroke-linecap:square;stroke-linejoin:round;stroke-miterlimit:4;stroke-dasharray:none;stroke-dashoffset:44.0315;stroke-opacity:0.980916;paint-order:markers stroke fill" id="path2175-7-0" sodipodi:sides="3" sodipodi:cx="159.56059" sodipodi:cy="169.97508" sodipodi:r1="35.401863" sodipodi:r2="17.700932" sodipodi:arg1="-1.5707963" sodipodi:arg2="-0.52359878" inkscape:flatsided="true" inkscape:rounded="0" inkscape:randomized="0" d="m 159.56059,134.57322 30.65891,53.10279 -61.31782,0 z" inkscape:transform-center-y="-11.653798" transform="matrix(1,0,0,1.316743,-13.0595,-61.724682)" />
    <rect style="fill:#a45d5d;fill-opacity:1;fill-rule:evenodd;stroke-width:0.264583" id="rect2237" width="155.21391" height="15.820439" x="31.773447" y="3.8258324" />
    <rect style="fill:#a45d5d;fill-opacity:1;fill-rule:evenodd;stroke-width:0.264583" id="rect2237-5" width="199.57143" height="17.899195" x="3.8258314" y="-186.98734" transform="rotate(90)" />
    <rect style="fill:#a45d5d;fill-opacity:1;fill-rule:evenodd;stroke-width:0.264583" id="rect2237-3" width="173.11313" height="15.82044" x="13.874238" y="187.57683" />
    <rect style="fill:#a45d5d;fill-opacity:1;fill-rule:evenodd;stroke-width:0.264583" id="rect2237-5-1" width="199.57143" height="18.709845" x="3.8258324" y="-32.584084" transform="rotate(90)" />
    <rect style="fill:#a45d5d;fill-opacity:1;fill-rule:evenodd;stroke-width:0.264583" id="rect2237-5-2" width="199.57143" height="17.899195" x="3.8258314" y="-110.28099" transform="rotate(90)" />
    <rect style="fill:#a45d5d;fill-opacity:1;fill-rule:evenodd;stroke-width:0.264583" id="rect2237-3-0" width="154.40327" height="15.82044" x="22.686281" y="60.418137" />
    <path style="fill:#ffffff;fill-opacity:0.385496;fill-rule:evenodd;stroke-width:0.264583" d="m 61.043157,23.439732 h 6.142112 L 50.554317,54.150295 h -6.142112 z" id="rect2414" inkscape:connector-curvature="0" sodipodi:nodetypes="ccccc" />
    <path style="fill:#ffffff;fill-opacity:0.385496;fill-rule:evenodd;stroke-width:0.264583" d="m 74.933781,23.439732 h 6.142112 L 64.444941,54.150295 h -6.142112 z" id="rect2414-5" inkscape:connector-curvature="0" sodipodi:nodetypes="ccccc" />
    <path style="fill:#ffffff;fill-opacity:0.385496;fill-rule:evenodd;stroke-width:0.264583" d="m 140.82752,98.126575 h 6.14211 l -16.63095,30.710565 h -6.14211 z" id="rect2414-4" inkscape:connector-curvature="0" sodipodi:nodetypes="ccccc" />
    <path style="fill:#ffffff;fill-opacity:0.385496;fill-rule:evenodd;stroke-width:0.264583" d="m 154.71814,98.126575 h 6.14211 L 144.2293,128.83714 h -6.14211 z" id="rect2414-5-9" inkscape:connector-curvature="0" sodipodi:nodetypes="ccccc" />
    <path style="opacity:1;fill:#b67061;fill-opacity:0.198473;fill-rule:nonzero;stroke:none;stroke-width:15.3638;stroke-linecap:square;stroke-linejoin:round;stroke-miterlimit:4;stroke-dasharray:none;stroke-dashoffset:44.0315;stroke-opacity:0.980916;paint-order:markers stroke fill" d="m 739.21484,1006.7422 -36.48828,117.9863 -15.35156,-49.6387 -27.56445,89.1309 -13.3125,-43.0449 -18.4336,59.6074 -33.41406,-108.043 -34.375,111.1524 -30.95508,-100.0918 -24.80664,80.2129 -17.62109,-56.9785 -19.53711,63.1718 -44.91992,-145.25 -30.93946,100.043 -17.74023,-57.3613 -9.96094,32.207 -19.33203,-62.5117 -26.81641,86.709 -23.6914,-76.6075 -39.00586,126.125 -24.94727,-80.6679 -16.25586,52.5605 -37.35351,-120.7851 -42.68164,138.0136 -21.58399,-69.789 -16.255856,52.5605 -37.353516,-120.7851 -21.390625,69.164 -12.744141,-41.209 -58.9375,190.5743 H 65.642578 l -12.453125,40.2695 H 171.06445 l -21.09961,-68.2246 h 42.19922 l -21.09961,68.2246 h 117.875 l -14.05859,-45.457 h 46.18555 l -6.24805,20.2031 h 117.875 l -13.19922,-42.6817 h 33.84375 l -25.38281,82.0782 h 117.875 l -7.18555,-23.2344 h 49.61328 l -3.41992,-11.0605 h 17.70313 l -14.98047,48.4375 h 117.875 l -14.25391,-46.0879 h 55.13086 l -12.49219,-40.3926 h 98.4668 l -58.9375,-190.5742 -12.74414,41.2089 z" transform="scale(0.26458333)" id="path2462" inkscape:connector-curvature="0" />
    <rect style="opacity:0.634;fill:url(#radialGradient2458);fill-opacity:1;fill-rule:evenodd;stroke-width:0.264583" id="rect2450" width="216.95833" height="330.3512" x="-5.7804933" y="-13.56107" inkscape:export-xdpi="234.14635" inkscape:export-ydpi="234.14635" />
  </g>
  <g inkscape:label="Layer 1" inkscape:groupmode="layer" id="layer1" sodipodi:insensitive="true" transform="translate(5.7804933,13.56107)">
    <path style="opacity:1;fill:#f0d8b1;fill-opacity:1;fill-rule:nonzero;stroke:none;stroke-width:4.065;stroke-linecap:square;stroke-linejoin:round;stroke-miterlimit:4;stroke-dasharray:none;stroke-dashoffset:44.0315;stroke-opacity:0.980916;paint-order:markers stroke fill" d="m 175.49475,209.81173 -14.42236,11.26468 -12.99512,2.71865 -12.91303,-7.00321 -17.77713,16.67937 -7.08737,16.22586 1.46988,21.48949 16.95155,-2.54847 -5.74186,-17.42806 2.42471,-11.65374 12.56844,9.53938 3.30175,7.27174 4.19906,25.25064 16.95158,-2.54894 -12.68657,-27.46191 -3.24633,-7.00989 15.62138,9.20578 19.62602,15.59829 11.84363,-13.67265 -27.27676,-10.68441 -12.03573,-6.97273 0.21343,-0.1628 17.2498,3.51362 20.35741,2.03911 -2.21417,-14.22289 -20.29111,2.90172 -11.2751,-2.79498 -0.69822,-0.3787 7.468,-2.54953 18.48806,-8.76211 z" id="path1229-0" inkscape:connector-curvature="0" />
    <path style="opacity:1;fill:#f0d8b1;fill-opacity:1;fill-rule:nonzero;stroke:none;stroke-width:4.065;stroke-linecap:square;stroke-linejoin:round;stroke-miterlimit:4;stroke-dasharray:none;stroke-dashoffset:44.0315;stroke-opacity:0.980916;paint-order:markers stroke fill" inkscape:transform-center-x="-2.5790116" inkscape:transform-center-y="-4.6982919" d="m 108.41188,84.811536 5.89338,79.877004 5.13737,69.63003 15.72161,-17.52672 -13.80736,-52.8441 c -5.32709,-51.42793 -8.72927,-55.21445 -12.945,-79.136214 z" id="path1181-1" inkscape:connector-curvature="0" sodipodi:nodetypes="cccccc" />
    <path style="opacity:1;fill:#b86f5e;fill-opacity:1;fill-rule:nonzero;stroke:none;stroke-width:4.065;stroke-linecap:square;stroke-linejoin:round;stroke-miterlimit:4;stroke-dasharray:none;stroke-dashoffset:44.0315;stroke-opacity:0.980916;paint-order:markers stroke fill" inkscape:transform-center-x="-3.2162295" inkscape:transform-center-y="-3.3787093" d="M 115.82342,98.893703 120.6112,258.9936 c -17.90677,-32.46683 -53.291995,-4.78516 -50.578046,-4.91202 z" id="path1492" inkscape:connector-curvature="0" sodipodi:nodetypes="cccc" />
    <path style="opacity:1;fill:#f0d8b1;fill-opacity:1;fill-rule:nonzero;stroke:none;stroke-width:4.065;stroke-linecap:square;stroke-linejoin:round;stroke-miterlimit:4;stroke-dasharray:none;stroke-dashoffset:44.0315;stroke-opacity:0.980916;paint-order:markers stroke fill" inkscape:transform-center-x="1.9628271" inkscape:transform-center-y="-0.9319764" d="m 94.496239,192.04278 -0.360689,27.68065 -5.836211,4.11837 -5.634557,-6.83914 6.108603,-24.38429 z" id="path1337" inkscape:connector-curvature="0" sodipodi:nodetypes="cccccc" />
    <path style="fill:#f0d8b1;fill-opacity:1;fill-rule:evenodd;stroke-width:0.264583" d="m 161.03014,166.93672 c 0,-0.15889 1.50281,0.99218 1.14643,1.81045 -6.16834,14.16318 -74.239095,38.01833 -72.644933,34.43985 l 4.964602,-11.14424 c 17.499421,-11.63543 32.890891,-14.60446 54.673651,-25.91797 3.98808,-2.07134 7.04926,2.04968 11.86025,0.81191 z" id="rect1145-8" inkscape:connector-curvature="0" sodipodi:nodetypes="csscsc" />
    <path style="opacity:1;fill:#f0d8b1;fill-opacity:1;fill-rule:nonzero;stroke:none;stroke-width:4.065;stroke-linecap:square;stroke-linejoin:round;stroke-miterlimit:4;stroke-dasharray:none;stroke-dashoffset:44.0315;stroke-opacity:0.980916;paint-order:markers stroke fill" inkscape:transform-center-x="-1.9014946" inkscape:transform-center-y="0.65025764" d="m 90.252114,159.07199 c -4.509792,-5.78673 1.407701,-16.95984 6.832869,-19.41905 6.950547,-3.15066 21.572647,7.665 21.572647,7.665 l 42.37251,19.61878 -9.43989,6.16675 c 0.50227,-0.87107 -48.13641,2.90829 -61.338136,-14.03148 z" id="path1142-0" inkscape:connector-curvature="0" sodipodi:nodetypes="sscccs" />
    <path style="opacity:1;fill:#fbe6c5;fill-opacity:1;fill-rule:nonzero;stroke:none;stroke-width:15.3638;stroke-linecap:square;stroke-linejoin:round;stroke-miterlimit:4;stroke-dasharray:none;stroke-dashoffset:44.0315;stroke-opacity:0.980916;paint-order:markers stroke fill" d="M 367.86719,332.63086 C 357.03963,499.03308 347.62116,514.9934 337.4082,546.65234 l 10.4375,-0.0742 c -14.44341,17.01865 -21.45362,51.36315 1.10157,65.09961 43.3643,26.40963 129.41513,10.289 187.63671,-4.57031 -45.04867,49.47012 -83.50031,86.26359 -119.45898,139.38086 l -24.75,18.1836 -26.99414,77.82421 10.0293,26.95313 25.79296,9.33789 27.19141,-97.84375 42.79102,-39.72266 c 0,0 107.40623,-110.47584 144.36914,-167.53711 5.89776,-14.84356 -0.33917,-19.31308 -2.95899,-18.62695 L 436.56836,542.38672 c 0,0 -4.12146,-1.16441 -10.61914,-2.5918 15.0806,-54.56959 -43.33426,-89.29929 11.80859,-166.02344 z" transform="scale(0.26458333)" id="path1139" inkscape:connector-curvature="0" />
    <path style="opacity:1;fill:#c88b68;fill-opacity:1;fill-rule:nonzero;stroke:none;stroke-width:4.065;stroke-linecap:square;stroke-linejoin:round;stroke-miterlimit:4;stroke-dasharray:none;stroke-dashoffset:44.0315;stroke-opacity:0.980916;paint-order:markers stroke fill" inkscape:transform-center-x="-2.2678559" inkscape:transform-center-y="-10.792676" d="m 101.4866,87.601184 11.77943,56.353486 c -12.77695,4.61891 -13.682133,27.11033 -17.736907,40.64121 -7.711755,25.7343 -11.654736,49.50956 -25.495969,69.4857 10.909982,-39.36565 8.018362,-52.52784 21.663619,-110.41066 8.398877,-35.62784 1.06594,-60.039134 9.789827,-56.069736 z" id="path1489" inkscape:connector-curvature="0" sodipodi:nodetypes="ccscsc" />
    <path style="opacity:1;fill:url(#linearGradient1467);fill-opacity:1;fill-rule:nonzero;stroke:none;stroke-width:4.065;stroke-linecap:square;stroke-linejoin:round;stroke-miterlimit:4;stroke-dasharray:none;stroke-dashoffset:44.0315;stroke-opacity:0.980916;paint-order:markers stroke fill" d="m 97.331526,88.009074 c -2.86479,44.027246 -5.35676,48.249556 -8.05894,56.625986 l 2.76159,-0.0196 c -3.82157,4.5028 -5.67634,13.58979 0.29145,17.22427 11.473484,6.98754 34.241094,2.7223 49.645554,-1.20923 -11.91913,13.08898 -22.09278,22.82391 -31.60685,36.87785 l -6.54844,4.81108 -7.142204,20.59099 2.65358,7.13134 6.824394,2.47065 7.19388,-25.88782 11.32231,-10.50944 c 0,0 28.4179,-29.23058 38.19767,-44.32804 1.56044,-3.92736 -0.0903,-5.10992 -0.78342,-4.92838 l -46.57338,-3.35225 c 0,0 -1.09068,-0.30751 -2.81017,-0.68523 3.9906,-14.43851 -11.46518,-23.62685 3.12487,-43.927025 z" id="path1139-1" inkscape:connector-curvature="0" />
    <rect style="fill:#f0d8b1;fill-opacity:1;fill-rule:evenodd;stroke-width:0.264583" id="rect1102" width="11.0153" height="22.342436" x="124.399" y="47.357567" transform="rotate(13.256121)" />
    <path style="opacity:1;fill:#dec1a3;fill-opacity:1;fill-rule:nonzero;stroke:none;stroke-width:4.065;stroke-linecap:square;stroke-linejoin:round;stroke-miterlimit:4;stroke-dasharray:none;stroke-dashoffset:44.0315;stroke-opacity:0.980916;paint-order:markers stroke fill" inkscape:transform-center-x="-4.3835448" inkscape:transform-center-y="-2.0100737" d="m 122.97917,73.128436 c -53.467692,19.605839 11.3133,45.657484 -10.66485,76.632214 0.96968,-25.28718 -23.285188,-66.395777 -0.69494,-81.468914 3.42342,-2.28425 9.47791,-7.141837 11.35979,4.8367 z" id="path880-2-6" inkscape:connector-curvature="0" sodipodi:nodetypes="ccac" />
    <path style="opacity:1;fill:#dec1a3;fill-opacity:1;fill-rule:nonzero;stroke:none;stroke-width:4.065;stroke-linecap:square;stroke-linejoin:round;stroke-miterlimit:4;stroke-dasharray:none;stroke-dashoffset:44.0315;stroke-opacity:0.980916;paint-order:markers stroke fill" inkscape:transform-center-x="-3.8303446" inkscape:transform-center-y="-1.6747206" d="m 128.28345,50.009125 c -53.005788,24.150771 -5.67169,63.410725 -22.23757,95.124635 7.46171,-24.57741 -26.432424,-68.166237 -13.21374,-98.565846 7.49361,-17.233393 31.36165,-8.936774 35.45131,3.441211 z" id="path880-216-2" inkscape:connector-curvature="0" sodipodi:nodetypes="ccsc" />
    <path style="opacity:1;fill:#dec1a3;fill-opacity:1;fill-rule:nonzero;stroke:none;stroke-width:4.065;stroke-linecap:square;stroke-linejoin:round;stroke-miterlimit:4;stroke-dasharray:none;stroke-dashoffset:44.0315;stroke-opacity:0.980916;paint-order:markers stroke fill" inkscape:transform-center-x="2.0169936" inkscape:transform-center-y="-1.8969357" d="M 127.85008,45.071627 C 79.114111,76.972705 130.22855,113.46067 118.65763,147.31794 122.31042,121.89387 79.743959,80.309347 88.205385,48.258225 93.002127,30.088599 121.93268,33.455942 127.85008,45.071627 Z" id="path880-216" inkscape:connector-curvature="0" sodipodi:nodetypes="ccsc" />
    <path style="opacity:1;fill:#dec1a3;fill-opacity:1;fill-rule:nonzero;stroke:none;stroke-width:4.065;stroke-linecap:square;stroke-linejoin:round;stroke-miterlimit:4;stroke-dasharray:none;stroke-dashoffset:44.0315;stroke-opacity:0.980916;paint-order:markers stroke fill" inkscape:transform-center-x="2.0169936" inkscape:transform-center-y="-1.8969344" d="M 127.85008,45.071627 C 80.77152,76.588028 140.40015,111.07308 122.40752,147.90386 128.27978,120.87309 79.795314,74.633526 97.462935,41.227174 c 5.065025,-9.577075 25.744295,-7.356915 30.387145,3.844453 z" id="path880-2-4" inkscape:connector-curvature="0" sodipodi:nodetypes="ccsc" />
    <path style="opacity:1;fill:#dec1a3;fill-opacity:1;fill-rule:nonzero;stroke:none;stroke-width:4.065;stroke-linecap:square;stroke-linejoin:round;stroke-miterlimit:4;stroke-dasharray:none;stroke-dashoffset:44.0315;stroke-opacity:0.980916;paint-order:markers stroke fill" inkscape:transform-center-x="2.0169935" inkscape:transform-center-y="-1.8969363" d="M 127.85008,45.071627 C 79.104622,76.972705 118.37468,86.742695 113.26716,120.59996 108.27003,95.792495 78.118559,61.1766 96.385727,41.227179 c 7.135583,-7.792709 26.821503,-7.35692 31.464353,3.844448 z" id="path880-2" inkscape:connector-curvature="0" sodipodi:nodetypes="ccac" />
    <path style="opacity:1;fill:#fbe6c5;fill-opacity:1;fill-rule:nonzero;stroke:none;stroke-width:4.065;stroke-linecap:square;stroke-linejoin:round;stroke-miterlimit:4;stroke-dasharray:none;stroke-dashoffset:44.0315;stroke-opacity:0.980916;paint-order:markers stroke fill" inkscape:transform-center-x="-1.4503123e-06" inkscape:transform-center-y="5.569276" d="m 123.93639,84.398728 c -15.68743,0.60748 -13.46759,-5.120201 -16.67518,-9.754249 0,0 -6.33405,-18.633151 -0.86553,-24.756037 4.42378,-4.953132 14.76837,-4.869093 19.91189,-0.668205 2.45136,2.002093 1.58329,9.362182 1.58329,9.362182 0.29473,8.169343 -0.74922,24.466789 -3.95447,25.816309 z" id="path815" inkscape:connector-curvature="0" sodipodi:nodetypes="ccsacc" />
    <path style="opacity:1;fill:#dec1a3;fill-opacity:1;fill-rule:nonzero;stroke:none;stroke-width:4.065;stroke-linecap:square;stroke-linejoin:round;stroke-miterlimit:4;stroke-dasharray:none;stroke-dashoffset:44.0315;stroke-opacity:0.980916;paint-order:markers stroke fill" inkscape:transform-center-x="2.0169932" inkscape:transform-center-y="-1.8969374" d="m 127.85008,45.071627 c -48.745456,31.901078 11.149,53.506668 6.04148,87.363933 -4.99713,-24.80747 -53.988896,-51.663973 -33.26465,-84.411703 4.88105,-7.712868 22.10908,-12.425736 27.22317,-2.95223 z" id="path880" inkscape:connector-curvature="0" sodipodi:nodetypes="ccsc" />
    <path style="opacity:1;fill:#f0d8b1;fill-opacity:1;fill-rule:nonzero;stroke:none;stroke-width:4.065;stroke-linecap:square;stroke-linejoin:round;stroke-miterlimit:4;stroke-dasharray:none;stroke-dashoffset:44.0315;stroke-opacity:0.980916;paint-order:markers stroke fill" inkscape:transform-center-x="-1.1040837" inkscape:transform-center-y="-1.1361495" d="m 124.61076,60.303528 c -0.40846,6.50776 0.22694,11.245011 3.40996,14.41171 l -3.94481,2.87934 1.73691,-2.884049 c -3.12445,-4.271468 -1.9173,-10.16989 -1.20206,-14.407001 z" id="path829" inkscape:connector-curvature="0" sodipodi:nodetypes="ccccc" />
    <path style="opacity:1;fill:#dec1a3;fill-opacity:1;fill-rule:nonzero;stroke:none;stroke-width:4.065;stroke-linecap:square;stroke-linejoin:round;stroke-miterlimit:4;stroke-dasharray:none;stroke-dashoffset:44.0315;stroke-opacity:0.980916;paint-order:markers stroke fill" inkscape:transform-center-x="-0.23436561" inkscape:transform-center-y="1.1739428" d="m 121.44474,59.859376 c 1.28203,-4.365002 0.83654,-8.346109 0.79648,-12.417311 l 5.60886,-2.370438 c 0.44678,7.319894 -2.68544,11.325891 -6.40534,14.787749 z" id="path1036" inkscape:connector-curvature="0" sodipodi:nodetypes="cccc" />
    <path style="opacity:1;fill:#dec1a3;fill-opacity:1;fill-rule:nonzero;stroke:none;stroke-width:4.065;stroke-linecap:square;stroke-linejoin:round;stroke-miterlimit:4;stroke-dasharray:none;stroke-dashoffset:44.0315;stroke-opacity:0.980916;paint-order:markers stroke fill" inkscape:transform-center-x="-0.0074201063" inkscape:transform-center-y="1.1931031" d="m 115.81712,61.625862 c 2.01561,-4.07851 2.26337,-8.076795 2.92602,-12.093906 l 5.93362,-1.367623 c -0.82228,7.287266 -4.59844,10.693064 -8.85964,13.461529 z" id="path1036-4" inkscape:connector-curvature="0" sodipodi:nodetypes="cccc" />
    <path style="opacity:1;fill:#dec1a3;fill-opacity:1;fill-rule:nonzero;stroke:none;stroke-width:4.065;stroke-linecap:square;stroke-linejoin:round;stroke-miterlimit:4;stroke-dasharray:none;stroke-dashoffset:44.0315;stroke-opacity:0.980916;paint-order:markers stroke fill" inkscape:transform-center-x="0.23436486" inkscape:transform-center-y="1.1739431" d="m 130.85708,55.494277 c -1.28203,-4.365011 2.07687,-9.532858 -0.79648,-12.41732 -5.20959,-5.229727 -15.22368,-8.132142 -17.20949,-7.093553 -6.49841,3.398695 14.28607,16.049007 18.00597,19.510873 z" id="path1036-3" inkscape:connector-curvature="0" sodipodi:nodetypes="cssc" />
    <path style="opacity:1;fill:#dec1a3;fill-opacity:1;fill-rule:nonzero;stroke:none;stroke-width:4.065;stroke-linecap:square;stroke-linejoin:round;stroke-miterlimit:4;stroke-dasharray:none;stroke-dashoffset:44.0315;stroke-opacity:0.980916;paint-order:markers stroke fill" inkscape:transform-center-x="0.0074215939" inkscape:transform-center-y="1.1931028" d="m 135.189,56.69703 c -2.01559,-4.078518 -0.50389,-8.017685 -3.25747,-11.016712 0,0 -1.48208,-2.623899 -2.79375,-3.042801 -0.91175,-0.291182 -2.80842,0.597976 -2.80842,0.597976 0.82229,7.287266 4.59845,10.693066 8.85964,13.461537 z" id="path1036-4-0" inkscape:connector-curvature="0" sodipodi:nodetypes="csscc" />
    <path style="opacity:1;fill:#dec1a3;fill-opacity:1;fill-rule:nonzero;stroke:none;stroke-width:4.065;stroke-linecap:square;stroke-linejoin:round;stroke-miterlimit:4;stroke-dasharray:none;stroke-dashoffset:44.0315;stroke-opacity:0.980916;paint-order:markers stroke fill" inkscape:transform-center-x="2.0169914" inkscape:transform-center-y="-1.8969362" d="M 127.85008,45.071627 C 69.72368,64.409418 148.9382,113.16708 126.00894,152.83619 137.87476,123.55487 79.617056,76.57576 97.643883,44.543664 c 4.476557,-7.954452 25.092107,-8.945541 30.206197,0.527963 z" id="path880-21" inkscape:connector-curvature="0" sodipodi:nodetypes="ccsc" />
    <path style="opacity:1;fill:#fbe6c5;fill-opacity:1;fill-rule:nonzero;stroke:none;stroke-width:4.065;stroke-linecap:square;stroke-linejoin:round;stroke-miterlimit:4;stroke-dasharray:none;stroke-dashoffset:44.0315;stroke-opacity:0.980916;paint-order:markers stroke fill" d="m 104.17334,80.893768 c 0,0 -6.937491,11.099837 -9.078518,18.132227 C 89.53726,117.28032 85.61323,158.85232 85.61323,158.85232 l -21.251931,58.18042 -13.366628,6.09214 -12.775962,-3.61218 -13.607439,-12.23647 -8.597925,7.26519 17.836638,10.02161 7.273973,3.0608 -0.721403,0.32866 -11.443229,2.00763 -20.0411529,-4.3 -3.1941204,14.03584 20.4499143,-0.62425 17.451647,-2.31045 0.201539,0.17673 -12.489678,6.12262 -27.9512642,8.77001 10.8680702,14.46009 20.659205,-14.20171 16.222265,-8.10234 -3.72432,6.76857 -14.558285,26.51725 16.734377,3.71658 5.937623,-24.89927 3.797702,-7.02541 13.198676,-8.64598 1.611789,11.79359 -6.934978,16.98864 16.73438,3.71604 2.954859,-21.33616 -5.946926,-16.67754 11.573973,-73.06324 z" id="path1181" inkscape:connector-curvature="0" />
    <path style="opacity:1;fill:url(#linearGradient1451);fill-opacity:1;fill-rule:nonzero;stroke:none;stroke-width:4.065;stroke-linecap:square;stroke-linejoin:round;stroke-miterlimit:4;stroke-dasharray:none;stroke-dashoffset:44.0315;stroke-opacity:0.980916;paint-order:markers stroke fill" d="m 104.17334,80.89377 c 0,0 -6.937494,11.09984 -9.078524,18.13223 -5.55756,18.25433 -9.48159,59.82633 -9.48159,59.82633 l -21.25192,58.18041 -13.36663,6.09214 -12.77596,-3.61218 -13.60744,-12.23647 -8.59793,7.26519 17.83664,10.02161 7.27397,3.0608 -0.7214,0.32866 -11.44323,2.00763 -20.04115,-4.3 -3.19412,14.03584 20.44991,-0.62425 17.45165,-2.31045 0.20154,0.17673 -12.48968,6.12263 -27.95127,8.77 10.86807,14.46009 20.65921,-14.20171 16.22227,-8.10234 -3.72433,6.76857 -14.55828,26.51725 16.73437,3.71658 5.93763,-24.89927 3.7977,-7.02541 13.19868,-8.64598 1.61179,11.79359 -6.93498,16.98864 16.73438,3.71604 2.95486,-21.33616 -5.94693,-16.67754 11.57397,-73.06323 z" id="path1181-9" inkscape:connector-curvature="0" />
    <path style="opacity:1;fill:#dec1a3;fill-opacity:1;fill-rule:nonzero;stroke:none;stroke-width:4.065;stroke-linecap:square;stroke-linejoin:round;stroke-miterlimit:4;stroke-dasharray:none;stroke-dashoffset:44.0315;stroke-opacity:0.980916;paint-order:markers stroke fill" inkscape:transform-center-x="-3.8303447" inkscape:transform-center-y="-1.6747202" d="m 128.28345,50.009125 c -24.53352,11.178086 -24.92,16.229599 -22.74763,31.634906 0.21499,1.524531 -2.17058,12.422124 -1.86932,13.963874 0.54051,2.76623 1.19448,5.556675 1.87075,8.358765 3.36705,13.95109 11.67854,-15.394475 4.9003,-2.41815 3.22594,-10.625595 -5.66966,18.78058 -10.75451,3.65014 -6.67659,-19.866807 -14.35472,-41.37387 -6.8509,-58.630748 7.49361,-17.233393 31.36165,-8.936769 35.45131,3.441213 z" id="path880-216-2-1" inkscape:connector-curvature="0" sodipodi:nodetypes="cssscssc" />
    <path style="opacity:1;fill:#b86f5e;fill-opacity:1;fill-rule:nonzero;stroke:none;stroke-width:15.3638;stroke-linecap:square;stroke-linejoin:round;stroke-miterlimit:4;stroke-dasharray:none;stroke-dashoffset:44.0315;stroke-opacity:0.980916;paint-order:markers stroke fill" d="m 485.75,141.32227 -13.81836,9.88867 -3.10937,-0.4961 0.11328,-9.17187 -4.69727,8.44141 -5.79101,-0.92188 -6.35547,6.98047 -6.8711,-8.00586 2.72852,12.55664 -8.3711,9.19531 -11.07812,-8.58594 6.17578,13.97071 -12.1875,-0.69727 -2.21875,-0.75 -4.9082,-17.91601 -3.98438,18.03125 -15.43359,-0.88282 -11.84766,-4.07617 8.4043,8.32422 -4.12109,5.08789 -16.49414,-10.10937 11.20703,16.63281 -3.95703,4.88086 -6.47852,-12.76563 -0.39648,21.25 -2.41602,2.98047 -10.56641,2.02149 -8.49609,-20.2168 -0.27539,21.89453 -8.50195,1.62695 -2.41211,-0.81054 0.19336,1.23437 -8.57032,1.64063 -28.29492,-8.76953 22.17774,17.41406 0.61718,3.82031 15.66602,-3.86719 3.11914,20.02149 4.68945,-21.94727 14.82617,-3.66015 14.1836,16.75586 -6.53906,-18.64258 0.0449,-0.0117 9.57226,-10.99805 2.42578,0.0274 -0.90234,-1.7793 1.51953,-1.74414 12.40039,12.17969 -6.37695,-19.10157 8.70117,-10 2.94141,0.12891 10.83008,14.56055 -4.21094,-14.27344 11.70117,0.50976 1.86914,14.49024 5.28125,-14.17969 7.14063,0.31055 13.47851,7.67969 -7.9082,-12.67774 5.74805,-5.15625 8.32617,4.74219 -4.88477,-7.83008 7.5625,-6.78516 1.47461,8.72461 4.91992,-14.46093 3.95508,0.66406 10.7168,8.97461 -3.05664,-7.6875 8.03125,1.34961 11.16015,12.24218 -4.32812,-11.09374 1.2793,0.21484 -1.33399,-1.96289 13.9961,2.34179 -17.55665,-10.35937 -0.74023,1.68555 -0.79492,-1.16992 -6.09961,-0.97071 z" transform="scale(0.26458333)" id="path1769" inkscape:connector-curvature="0" />
    <path style="fill:#c88b68;fill-opacity:1;fill-rule:evenodd;stroke-width:0.264583" d="m 111.40974,36.334731 1.06091,5.034836 -2.37246,1.48518 -2.96881,-1.858801 1.33015,2.885096 -1.65726,1.861386 -1.70688,-2.715598 -0.21807,4.877739 -2.11202,2.372981 -0.78548,-3.631303 -1.21026,3.961517 -4.022497,0.399976 -3.26698,-4.287594 1.08314,4.504634 -2.86597,0.285253 -3.48506,3.829224 -4.92425,-3.258198 3.15691,5.200197 -1.30431,1.432989 -5.89887,1.018543 5.89887,1.091922 v 1.4981 l 6.50864,-5.994466 2.81844,3.976502 -0.94361,-5.312855 4.04781,-0.633036 4.100527,3.38429 -1.761647,-3.750675 4.674127,-0.731223 5.84874,0.501779 -4.37751,-2.580203 3.94033,-5.564518 0.91364,-0.382924 0.19016,3.933092 2.05311,-4.872569 2.35696,-0.98702 1.05369,0.251664 2.53421,3.736207 -0.19741,-3.178101 2.76935,0.661975 -0.97617,4.169253 2.96829,-3.693313 3.38946,0.809771 3.69693,1.31568 -2.28152,-2.626712 2.44378,-2.263428 2.33061,-1.715141 -3.55741,0.02325 -1.70532,-2.669088 0.0212,3.793048 -1.6707,1.31155 -1.43867,-0.340032 -0.24546,-4.381645 -1.25781,4.026112 -2.81791,-0.66611 -0.55449,-3.198254 -1.06608,2.814814 -3.09956,-0.732771 -0.031,-3.088182 -1.5384,2.403985 z" id="rect1495" inkscape:connector-curvature="0" />
  </g>
</svg>
