<?xml version="1.0" encoding="UTF-8" standalone="no"?>
<!-- Created with Inkscape (http://www.inkscape.org/) -->

<svg width="398.91089mm" height="583.88354mm" viewBox="0 0 398.91089 583.88354" version="1.1" id="svg8" inkscape:version="1.3 (0e150ed6c4, 2023-07-21)" sodipodi:docname="янис2.svg" xmlns:inkscape="http://www.inkscape.org/namespaces/inkscape" xmlns:sodipodi="http://sodipodi.sourceforge.net/DTD/sodipodi-0.dtd" xmlns="http://www.w3.org/2000/svg" xmlns:svg="http://www.w3.org/2000/svg" xmlns:rdf="http://www.w3.org/1999/02/22-rdf-syntax-ns#" xmlns:cc="http://creativecommons.org/ns#" xmlns:dc="http://purl.org/dc/elements/1.1/">
  <defs id="defs2">
    <inkscape:path-effect effect="bend_path" id="path-effect1014" is_visible="true" bendpath="m 70.398886,132.19656 3.335938,3.71371 8.849787,-1.45218 9.401796,7.06872 10.862663,-7.87711 6.79941,3.28683 7.8783,-5.45763 4.63249,8.06596 10.64149,-8.32903 6.91061,3.37711 3.11046,-3.1372" prop_scale="1" scale_y_rel="false" vertical="false" bendpath-nodetypes="ccccccccccc" lpeversion="0" hide_knot="false" />
  </defs>
  <sodipodi:namedview id="base" pagecolor="#ffffff" bordercolor="#666666" borderopacity="1.0" inkscape:pageopacity="0.0" inkscape:pageshadow="2" inkscape:zoom="0.35" inkscape:cx="925.71428" inkscape:cy="1182.8571" inkscape:document-units="mm" inkscape:current-layer="layer1" showgrid="false" inkscape:window-width="2467" inkscape:window-height="1413" inkscape:window-x="84" inkscape:window-y="-9" inkscape:window-maximized="1" inkscape:showpageshadow="2" inkscape:pagecheckerboard="0" inkscape:deskcolor="#d1d1d1" />
  <metadata id="metadata5">
    <rdf:RDF>
      <cc:Work rdf:about="">
        <dc:format>image/svg+xml</dc:format>
        <dc:type rdf:resource="http://purl.org/dc/dcmitype/StillImage" />
        <dc:title />
      </cc:Work>
    </rdf:RDF>
  </metadata>
  <g inkscape:label="Layer 1" inkscape:groupmode="layer" id="layer1" transform="translate(90.314842,312.94736)">
    <rect style="fill:#ffc43d;fill-opacity:1;fill-rule:evenodd;stroke-width:0.264583" id="rect928" width="398.91089" height="583.88354" x="-90.314842" y="-312.94736" />
    <path style="opacity:1;fill:#ff8913;fill-opacity:1;fill-rule:nonzero;stroke:#ff8913;stroke-width:12.565;stroke-linecap:square;stroke-linejoin:miter;stroke-miterlimit:4;stroke-dasharray:none;stroke-dashoffset:0;stroke-opacity:1;paint-order:stroke fill markers" d="m 199.09725,-229.51645 -187.194767,10.51925 -23.825938,37.22823 54.367742,256.94711 -1.986441,13.143362 -28.106812,26.314158 16.239318,-4.61417 -8.709028,11.16986 9.43405,0.5493 -23.8946663,39.0307 14.4296103,-8.7638 -5.427575,13.0824 14.915885,-3.19205 -7.793839,51.56946 1.388544,1.41025 -1.457275,11.03395 -2.39572,8.86354 1.366327,10.79986 3.747055,-4.49223 1.34669,-13.23279 2.571419,-7.71115 2.223119,2.25826 -0.03255,5.20847 -1.27176,9.0935 0.719336,2.8081 -12.574426,271.02944 64.556783,26.37824 0.529685,-27.25725 h 16.591229 l 0.414444,28.01327 44.108421,-46.15635 -4.95784,-263.15293 -30.31546,-14.66835 5.66788,-22.52679 -10.05057,-1.3348 0.13335,-3.81063 a 59.066562,59.066562 0 0 0 6.44766,-0.57464 l 38.12997,24.12308 -0.56636,-14.15263 4.29532,5.40277 0.14367,53.29132 4.34753,-4.41678 0.70178,3.49901 -0.30025,13.29738 3.16259,4.92166 2.69132,-10.54767 -1.28106,-9.09195 -0.0512,-7.07916 3.67366,-3.73259 0.96327,4.82968 -0.31422,13.29738 3.15743,4.92425 2.7027,-10.54509 -1.27178,-9.09299 -0.0542,-8.67854 2.99154,-3.03909 0.18397,0.92191 -0.3142,13.29738 3.15796,4.92424 2.70217,-10.54457 -1.27178,-9.0935 -0.0249,-4.00854 2.51611,-2.55696 2.27119,6.80993 1.34617,13.23226 3.74705,4.49224 1.36634,-10.79935 -2.39572,-8.86354 -1.3162,-9.96941 1.51514,-1.53944 -7.30187,-45.4732 8.22431,1.7601 -5.42758,-13.0824 14.4291,8.7638 -23.89468,-39.03122 9.43407,-0.5493 -8.70906,-11.16936 16.23986,4.61367 -21.32118,-19.96104 -0.81235,-5.060153 z m -48.96083,396.69516 1.93424,0.41393 0.0259,9.45214 z m -83.577326,26.81336 2.446362,19.3585 -12.776481,4.70566 0.04754,-17.55862 z" id="path861-1-9-3-3" inkscape:connector-curvature="0" />
    <path sodipodi:type="star" style="opacity:1;fill:#ff8913;fill-opacity:1;fill-rule:nonzero;stroke:none;stroke-width:0.626863;stroke-linecap:square;stroke-linejoin:miter;stroke-miterlimit:4;stroke-dasharray:none;stroke-dashoffset:0;stroke-opacity:1;paint-order:stroke fill markers" id="path996" sodipodi:sides="3" sodipodi:cx="-31.956991" sodipodi:cy="-271.69495" sodipodi:r1="67.385849" sodipodi:r2="47.648994" sodipodi:arg1="1.5707963" sodipodi:arg2="2.6179939" inkscape:flatsided="true" inkscape:rounded="0" inkscape:randomized="0" d="m -31.956989,-204.3091 -58.35786,-101.07877 116.715714,0 z" transform="matrix(3.4177993,0,0,0.69336724,218.36318,-101.20144)" />
    <path style="opacity:1;fill:#ff8913;fill-opacity:1;fill-rule:nonzero;stroke:none;stroke-width:0.965;stroke-linecap:square;stroke-linejoin:miter;stroke-miterlimit:4;stroke-dasharray:none;stroke-dashoffset:0;stroke-opacity:1;paint-order:stroke fill markers" inkscape:transform-center-y="5.3291341e-06" d="m 273.18874,-272.37578 35.4073,-40.5716 H -90.314842 v 0 z" id="path945" inkscape:connector-curvature="0" sodipodi:nodetypes="ccccc" />
    <path style="opacity:1;fill:#bbb6a6;fill-opacity:1;fill-rule:nonzero;stroke:none;stroke-width:0.965;stroke-linecap:square;stroke-linejoin:miter;stroke-miterlimit:4;stroke-dasharray:none;stroke-dashoffset:0;stroke-opacity:1;paint-order:stroke fill markers" inkscape:transform-center-x="5.984045" inkscape:transform-center-y="-1.6806425" d="m 148.4312,209.5693 -0.56664,-14.15222 10.50659,13.21437 -12.4963,-62.90717 -46.865301,32.5781 z" id="path861-1-9-3" inkscape:connector-curvature="0" sodipodi:nodetypes="cccccc" />
    <path style="opacity:1;fill:#bbb6a6;fill-opacity:1;fill-rule:nonzero;stroke:none;stroke-width:0.965;stroke-linecap:square;stroke-linejoin:miter;stroke-miterlimit:4;stroke-dasharray:none;stroke-dashoffset:0;stroke-opacity:1;paint-order:stroke fill markers" inkscape:transform-center-x="-5.984046" inkscape:transform-center-y="-1.6806425" d="m 51.067366,203.79328 0.566643,-14.15222 -10.506584,13.21437 12.496298,-62.90717 46.865297,32.5781 z" id="path861-1-9" inkscape:connector-curvature="0" sodipodi:nodetypes="cccccc" />
    <path style="fill:#236b7d;fill-opacity:1;fill-rule:evenodd;stroke-width:0.264583" d="m 65.389877,184.74106 48.380963,6.4256 -7.37054,29.29315 -36.663698,-1.3229 z" id="rect1181" inkscape:connector-curvature="0" sodipodi:nodetypes="ccccc" />
    <rect style="fill:#009767;fill-opacity:1;fill-rule:evenodd;stroke-width:0.264583" id="rect1199" width="35.907745" height="290.52078" x="69.736603" y="219.13692" />
    <path sodipodi:type="star" style="opacity:1;fill:#ebdaa5;fill-opacity:1;fill-rule:nonzero;stroke:none;stroke-width:0.965;stroke-linecap:square;stroke-linejoin:miter;stroke-miterlimit:4;stroke-dasharray:none;stroke-dashoffset:0;stroke-opacity:1;paint-order:stroke fill markers" id="path1219" sodipodi:sides="3" sodipodi:cx="86.745529" sodipodi:cy="220.64879" sodipodi:r1="21.222279" sodipodi:r2="10.61114" sodipodi:arg1="1.3089969" sodipodi:arg2="2.3561945" inkscape:flatsided="true" inkscape:rounded="0" inkscape:randomized="0" d="M 92.23826,241.14794 66.246382,215.15606 101.75195,205.64237 Z" inkscape:transform-center-x="2.7463662" inkscape:transform-center-y="2.7463623" />
    <rect style="fill:#ebdaa5;fill-opacity:1;fill-rule:evenodd;stroke-width:0.264583" id="rect1176" width="25.925148" height="63.253521" x="84.363884" y="158.77301" transform="rotate(2.0021528)" />
    <path style="fill:#33a1bc;fill-opacity:1;fill-rule:evenodd;stroke-width:0.264583" d="M 30.302558,227.60564 71.07295,212.58881 87.879456,220.45982 81.732257,536.91484 17.175535,510.53635 Z" id="rect1201" inkscape:connector-curvature="0" sodipodi:nodetypes="cccccc" />
    <path style="fill:#009567;fill-opacity:1;fill-rule:evenodd;stroke-width:0.264583" d="m 161.52185,237.46811 -7.18339,0.68809 3.01486,15.03693 -0.3007,13.2976 3.16281,4.92123 2.69154,-10.54766 -1.28115,-9.09197 z" id="rect1017-3-5" inkscape:connector-curvature="0" sodipodi:nodetypes="cccccccc" />
    <path style="fill:#009567;fill-opacity:1;fill-rule:evenodd;stroke-width:0.264583" d="m 177.7918,217.85756 -7.1841,0.68073 2.99944,15.04001 -0.31435,13.29727 3.15776,4.92449 2.70236,-10.54491 -1.27183,-9.09326 z" id="rect1017-9-7" inkscape:connector-curvature="0" sodipodi:nodetypes="cccccccc" />
    <path style="fill:#009567;fill-opacity:1;fill-rule:evenodd;stroke-width:0.264583" d="m 184.83493,216.28626 -7.04313,1.5713 4.85158,14.54857 1.34633,13.23267 3.74721,4.49226 1.36627,-10.79958 -2.39586,-8.86369 z" id="rect1017-98" inkscape:connector-curvature="0" sodipodi:nodetypes="cccccccc" />
    <path style="fill:#009567;fill-opacity:1;fill-rule:evenodd;stroke-width:0.264583" d="m 170.39617,230.06965 -7.18409,0.68072 2.99943,15.04002 -0.31435,13.29727 3.15777,4.92449 2.70235,-10.54491 -1.27182,-9.09326 z" id="rect1017-9-4-8" inkscape:connector-curvature="0" sodipodi:nodetypes="cccccccc" />
    <path style="fill:#009567;fill-opacity:1;fill-rule:evenodd;stroke-width:0.264583" d="m 46.661787,232.91186 7.183396,0.68809 -3.014865,15.03693 0.300707,13.2976 -3.162813,4.92123 -2.691535,-10.54766 1.281149,-9.09197 z" id="rect1017-3" inkscape:connector-curvature="0" sodipodi:nodetypes="cccccccc" />
    <path style="fill:#009567;fill-opacity:1;fill-rule:evenodd;stroke-width:0.264583" d="m 30.391841,213.30131 7.184098,0.68073 -2.999436,15.04001 0.31435,13.29727 -3.157764,4.92449 -2.702352,-10.54491 1.271821,-9.09326 z" id="rect1017-9" inkscape:connector-curvature="0" sodipodi:nodetypes="cccccccc" />
    <path style="fill:#009567;fill-opacity:1;fill-rule:evenodd;stroke-width:0.264583" d="m 23.348712,211.73001 7.043129,1.5713 -4.851577,14.54857 -1.346333,13.23267 -3.747217,4.49226 -1.366265,-10.79958 2.395863,-8.86369 z" id="rect1017" inkscape:connector-curvature="0" sodipodi:nodetypes="cccccccc" />
    <path style="opacity:1;fill:#bbb6a6;fill-opacity:1;fill-rule:nonzero;stroke:none;stroke-width:0.965;stroke-linecap:square;stroke-linejoin:miter;stroke-miterlimit:4;stroke-dasharray:none;stroke-dashoffset:0;stroke-opacity:1;paint-order:stroke fill markers" inkscape:transform-center-x="0.7230895" inkscape:transform-center-y="-5.8937825" d="m 187.8287,175.24573 -5.42753,-13.08237 14.42929,8.76376 -33.48709,-54.69995 -32.7014,46.77935 z" id="path861-1-1" inkscape:connector-curvature="0" sodipodi:nodetypes="cccccc" />
    <path style="opacity:1;fill:#bbb6a6;fill-opacity:1;fill-rule:nonzero;stroke:none;stroke-width:0.965;stroke-linecap:square;stroke-linejoin:miter;stroke-miterlimit:4;stroke-dasharray:none;stroke-dashoffset:0;stroke-opacity:1;paint-order:stroke fill markers" inkscape:transform-center-x="-3.3786339" inkscape:transform-center-y="-6.9396236" d="m 182.36986,131.34684 -8.70903,-11.16954 16.23942,4.61402 -46.81955,-43.833779 -19.09381,53.787679 z" id="path861-14" inkscape:connector-curvature="0" sodipodi:nodetypes="cccccc" />
    <path style="fill:#009163;fill-opacity:1;fill-rule:evenodd;stroke-width:0.264583" d="m 167.76671,99.769838 -15.88958,-4.277613 0.42681,158.618515 34.60233,-35.15178 z" id="rect909-7" inkscape:connector-curvature="0" sodipodi:nodetypes="ccccc" />
    <path style="opacity:1;fill:#bbb6a6;fill-opacity:1;fill-rule:nonzero;stroke:none;stroke-width:0.965;stroke-linecap:square;stroke-linejoin:miter;stroke-miterlimit:4;stroke-dasharray:none;stroke-dashoffset:0;stroke-opacity:1;paint-order:stroke fill markers" inkscape:transform-center-x="-0.7230895" inkscape:transform-center-y="-5.8937825" d="M 14.422771,165.09017 19.850307,152.0078 5.4210154,160.77156 38.908103,106.07161 71.609502,152.85096 Z" id="path861-1" inkscape:connector-curvature="0" sodipodi:nodetypes="cccccc" />
    <path sodipodi:type="star" style="opacity:1;fill:#bbb6a6;fill-opacity:1;fill-rule:nonzero;stroke:none;stroke-width:0.965;stroke-linecap:square;stroke-linejoin:miter;stroke-miterlimit:4;stroke-dasharray:none;stroke-dashoffset:0;stroke-opacity:1;paint-order:stroke fill markers" id="path861-9" sodipodi:sides="3" sodipodi:cx="38.994343" sodipodi:cy="111.88498" sodipodi:r1="32.95293" sodipodi:r2="16.476465" sodipodi:arg1="2.2345755" sodipodi:arg2="3.281773" inkscape:flatsided="true" inkscape:rounded="0" inkscape:randomized="0" d="M 18.692109,137.841 26.666888,81.324719 71.624032,116.48922 Z" inkscape:transform-center-x="-4.7813319" inkscape:transform-center-y="-3.7429781" transform="rotate(5.0988493,-383.97536,298.54723)" />
    <path style="opacity:1;fill:#bbb6a6;fill-opacity:1;fill-rule:nonzero;stroke:none;stroke-width:0.965;stroke-linecap:square;stroke-linejoin:miter;stroke-miterlimit:4;stroke-dasharray:none;stroke-dashoffset:0;stroke-opacity:1;paint-order:stroke fill markers" inkscape:transform-center-x="3.3786349" inkscape:transform-center-y="-6.9396236" d="m 19.881612,121.19128 8.709029,-11.16954 -16.239418,4.61402 46.819551,-43.83378 19.093814,53.78768 z" id="path861" inkscape:connector-curvature="0" sodipodi:nodetypes="cccccc" />
    <circle style="fill:#f2e8c6;fill-opacity:1;fill-rule:evenodd;stroke-width:0.264583" id="path817" cx="102.09696" cy="127.01659" r="59.066563" />
    <path style="fill:#ffffff;fill-opacity:1;fill-rule:evenodd;stroke-width:0.264583" d="m 54.884659,122.38433 c 15.455786,1.50967 37.50908,-4.31562 44.382979,6.60789 3.149292,5.00463 8.934162,4.57998 9.700382,12.74473 -29.551359,6.39562 -38.705398,-1.16174 -55.344297,-1.78869 z" id="rect945" inkscape:connector-curvature="0" sodipodi:nodetypes="csccc" />
    <path style="fill:#887070;fill-opacity:1;fill-rule:evenodd;stroke-width:0.264583" d="m 83.193906,105.50248 66.531914,10.63591 -20.69616,2.98158 -1.58095,-2.00966 -1.25757,1.5562 -1.51336,-0.16046 -0.37194,-2.77589 -3.79917,2.85032 -3.11087,-1.45352 -2.76946,1.42029 -0.378,-1.92943 -1.27096,1.15759 -8.51258,0.80965 -0.89108,-1.55252 -14.273485,1.7914 -22.398446,4.77948 z" id="rect1089-8" inkscape:connector-curvature="0" sodipodi:nodetypes="ccccccccccccccccc" />
    <rect style="fill:#241f1c;fill-opacity:1;fill-rule:evenodd;stroke-width:0.264583" id="rect968" width="4.299479" height="12.331473" x="77.307602" y="130.44" rx="2.1497395" ry="2.1497395" />
    <rect style="fill:#f2e8c6;fill-opacity:1;fill-rule:evenodd;stroke-width:0.264583" id="rect994" width="61.421127" height="15.497025" x="55.956608" y="115.77392" transform="rotate(2.0424327)" />
    <path style="fill:#009567;fill-opacity:1;fill-rule:evenodd;stroke-width:0.264583" d="m 37.787468,225.5134 7.184098,0.68072 -2.999436,15.04002 0.314349,13.29727 -3.157763,4.92449 -2.702352,-10.54491 1.27182,-9.09326 z" id="rect1017-9-4" inkscape:connector-curvature="0" sodipodi:nodetypes="cccccccc" />
    <path style="fill:#00b179;fill-opacity:1;fill-rule:evenodd;stroke-width:0.264583" d="M 42.444287,75.17814 56.573778,90.000529 56.146964,248.61905 21.544643,213.46726 Z" id="rect909" inkscape:connector-curvature="0" sodipodi:nodetypes="ccccc" />
    <path style="fill:#782121;fill-rule:evenodd;stroke-width:0.264583" d="m 83.532741,108.95684 66.193079,7.18155 -61.515624,-1.41741 -21.308407,8.88244 z" id="rect1089" inkscape:connector-curvature="0" sodipodi:nodetypes="ccccc" />
    <path style="fill:#f2e8c6;fill-opacity:1;fill-rule:evenodd;stroke-width:0.264583" d="m 107.39215,113.01718 1.12709,-2.88378 0.31682,1.37883 1.2648,-2.70289 3.4719,2.87149 0.30664,-2.06081 3.50676,1.36103 -0.99281,2.82036 1.77001,-2.43939 0.48328,1.24989 11.84955,-0.32483 6.58953,1.67184 0.80845,0.90907 1.12351,-0.62884 7.42923,0.2146 -13.11262,-1.12422 -1.2854,0.56168 -0.67671,-0.81783 -30.59495,-7.74019 5.81061,4.26531 z" id="rect1122-2" inkscape:connector-curvature="0" sodipodi:nodetypes="ccccccccccccccccccccc" />
    <path style="fill:#f2e8c6;fill-opacity:1;fill-rule:evenodd;stroke-width:0.264583" d="m 130.52775,114.8224 1.12709,2.88378 1.41931,-2.91563 0.16231,4.23969 3.4719,-2.87149 0.30664,2.06081 2.61418,-2.91186 4.22864,4.8935 -13.4303,0.0334 z" id="rect1122" inkscape:connector-curvature="0" sodipodi:nodetypes="cccccccccc" />
    <path style="fill:#ff0000;fill-opacity:0.083004;fill-rule:evenodd;stroke-width:0.264583" d="m 81.684569,106.33724 33.040871,0.83458 36.95001,9.82216 -18.51135,3.77834 -46.368484,-1.84302 -22.985015,6.6173 z" id="rect1140" inkscape:connector-curvature="0" sodipodi:nodetypes="ccccccc" />
    <path style="fill:#ffffff;fill-opacity:1;fill-rule:evenodd;stroke-width:0.264583" d="m 154.25495,128.6752 c -11.63829,3.24892 -20.91478,2.1561 -31.81527,-1.23511 -1.85585,4.77656 -6.68644,5.00663 -7.71601,14.8236 29.27137,6.6756 24.82139,0.0601 41.92615,-1.03275 z" id="rect945-2" inkscape:connector-curvature="0" sodipodi:nodetypes="ccccc" />
    <path style="fill:#cac6b9;fill-opacity:1;fill-rule:evenodd;stroke-width:0.264583" d="m 48.146537,137.47353 8.427241,-47.473001 -9.899424,-19.812476 84.333396,-13.56417 15.54745,24.600928 -39.5381,39.241849 13.48676,-29.396367 -53.918374,38.823577 5.1971,-11.97702 -6.261542,0.14275 7.276813,-13.45961 z" id="rect819-3" inkscape:connector-curvature="0" sodipodi:nodetypes="cccccccccccc" />
    <path style="fill:#a400d6;fill-opacity:1;fill-rule:evenodd;stroke-width:0.264583" d="M -11.923536,-181.76869 11.902637,-218.99726 56.573778,90.000529 42.444287,75.17814 Z" id="rect825" inkscape:connector-curvature="0" sodipodi:nodetypes="ccccc" />
    <rect style="fill:#241f1c;fill-opacity:1;fill-rule:evenodd;stroke-width:0.264583" id="rect968-9" width="4.299479" height="12.331473" x="129.61414" y="130.73981" rx="2.1497395" ry="2.1497395" />
    <path style="fill:#d8d5cc;fill-opacity:1;fill-rule:evenodd;stroke-width:0.264583" d="m 61.21162,130.00966 8.88276,-47.272768 61.00079,-19.452614 30.9427,27.779907 -41.71519,26.602455 0.26861,-19.935957 -47.389363,39.762147 -0.316637,-26.23244 z" id="rect819" inkscape:connector-curvature="0" sodipodi:nodetypes="ccccccccc" />
    <rect style="fill:#f2e8c6;fill-opacity:1;fill-rule:evenodd;stroke-width:0.264632" id="rect994-5" width="45.438751" height="10.243968" x="106.60932" y="127.14648" transform="matrix(0.99978039,-0.02095647,0.04797743,0.99884842,0,0)" />
    <path style="fill:#d8d5cc;fill-opacity:1;fill-rule:evenodd;stroke-width:0.264583" d="m 151.87713,95.492225 12.96707,-4.027136 2.10159,64.231871 -11.32689,-51.78574 4.88129,41.83368 -15.22307,-51.716652 z" id="rect1143" inkscape:connector-curvature="0" sodipodi:nodetypes="ccccccc" />
    <path style="fill:#c400ff;fill-opacity:1;fill-rule:evenodd;stroke-width:0.264583" d="M 11.902637,-218.99726 199.09732,-229.51625 167.76671,99.769838 56.573778,90.000529 Z" id="rect822" inkscape:connector-curvature="0" sodipodi:nodetypes="ccccc" />
    <path style="fill:#2e1400;fill-opacity:1;fill-rule:evenodd;stroke-width:0.289817" d="m 63.644527,127.78264 10.498621,6.96647 8.749471,-1.54411 9.529739,3.88241 v 0 l 10.320192,-4.63733 6.5155,2.21087 8.4776,-4.10818 v 1e-5 l 5.94991,3.98593 8.99082,-4.5057 6.84482,3.43562 9.49674,-9.00032 -5.34548,8.09722 -3.77092,3.15172 -6.9764,-3.3186 -10.94183,8.0481 -4.16557,-6.0422 v 0 l -8.07508,3.74035 -6.47827,-0.0133 -11.287728,4.52391 -4e-6,1e-5 -9.700055,-6.94437 -8.950103,1.36025 -4.102304,-4.0669 z" id="rect1011" inkscape:connector-curvature="0" sodipodi:nodetypes="ccccccccccccccccccccccccccc" transform="matrix(0.90422401,0.12578392,-0.12578392,0.90422401,28.675238,24.638344)" />
    <path style="fill:#2c89a0;fill-rule:evenodd;stroke-width:0.264583" d="m 65.389875,184.74107 13.141635,13.62934 9.158961,1.30072 0.188988,20.7887 -18.142857,-1.32292 z" id="rect1178" inkscape:connector-curvature="0" sodipodi:nodetypes="cccccc" />
    <path style="fill:#33a1bc;fill-opacity:1;fill-rule:evenodd;stroke-width:0.264583" d="m 138.41818,228.36159 -31.03591,-15.01683 -12.793729,7.87101 4.679472,316.45503 44.108357,-46.15645 z" id="rect1201-9" inkscape:connector-curvature="0" sodipodi:nodetypes="cccccc" />
    <path style="fill:#2c89a0;fill-rule:evenodd;stroke-width:0.264583" d="m 113.77084,191.16666 -13.897593,7.7707 -3.583811,1.67869 -1.700895,20.59972 11.811759,-0.75596 z" id="rect1178-5" inkscape:connector-curvature="0" sodipodi:nodetypes="cccccc" />
    <path style="opacity:1;fill:#a400d6;fill-opacity:1;fill-rule:nonzero;stroke:none;stroke-width:0.965;stroke-linecap:square;stroke-linejoin:miter;stroke-miterlimit:4;stroke-dasharray:none;stroke-dashoffset:0;stroke-opacity:1;paint-order:stroke fill markers" inkscape:transform-center-x="3.1764628" d="m 75.711551,33.970851 -27.563235,-50.313111 83.155774,-32.59067 -85.139178,-78.92029 97.707278,-60.73666 -110.031135,-25.79044 148.955995,9.37515 -104.268885,92.748 100.748865,29.915788 z" id="path877" inkscape:connector-curvature="0" sodipodi:nodetypes="cccccccccc" />
    <path sodipodi:type="star" style="opacity:1;fill:#a400d6;fill-opacity:1;fill-rule:nonzero;stroke:none;stroke-width:0.965;stroke-linecap:square;stroke-linejoin:miter;stroke-miterlimit:4;stroke-dasharray:none;stroke-dashoffset:0;stroke-opacity:1;paint-order:stroke fill markers" id="path880" sodipodi:sides="4" sodipodi:cx="145.12733" sodipodi:cy="6.745296" sodipodi:r1="26.738976" sodipodi:r2="13.369488" sodipodi:arg1="-1.5707963" sodipodi:arg2="-0.78539814" inkscape:flatsided="true" inkscape:rounded="0" inkscape:randomized="0" d="M 145.12734,-19.99368 171.86631,6.7452967 145.12733,33.484272 118.38836,6.7452953 Z" inkscape:transform-center-x="1.7610326e-06" inkscape:transform-center-y="-6.6847446" />
    <path sodipodi:type="star" style="opacity:1;fill:#a400d6;fill-opacity:1;fill-rule:nonzero;stroke:none;stroke-width:0.965;stroke-linecap:square;stroke-linejoin:miter;stroke-miterlimit:4;stroke-dasharray:none;stroke-dashoffset:0;stroke-opacity:1;paint-order:stroke fill markers" id="path880-1" sodipodi:sides="4" sodipodi:cx="68.413689" sodipodi:cy="-65.101189" sodipodi:r1="26.738977" sodipodi:r2="13.369488" sodipodi:arg1="-1.5707963" sodipodi:arg2="-0.78539814" inkscape:flatsided="true" inkscape:rounded="0" inkscape:randomized="0" d="M 68.413689,-91.840166 95.152666,-65.101188 68.413688,-38.362211 41.674711,-65.101189 Z" inkscape:transform-center-x="1.7610326e-06" inkscape:transform-center-y="-6.6847446" />
    <path sodipodi:type="star" style="opacity:1;fill:#a400d6;fill-opacity:1;fill-rule:nonzero;stroke:none;stroke-width:0.965;stroke-linecap:square;stroke-linejoin:miter;stroke-miterlimit:4;stroke-dasharray:none;stroke-dashoffset:0;stroke-opacity:1;paint-order:stroke fill markers" id="path880-7" sodipodi:sides="4" sodipodi:cx="152.70238" sodipodi:cy="-138.05058" sodipodi:r1="26.738977" sodipodi:r2="13.369488" sodipodi:arg1="-1.5707963" sodipodi:arg2="-0.78539814" inkscape:flatsided="true" inkscape:rounded="0" inkscape:randomized="0" d="m 152.70238,-164.78956 26.73897,26.73898 -26.73897,26.73897 -26.73898,-26.73897 z" inkscape:transform-center-x="1.7610326e-06" inkscape:transform-center-y="-6.6847446" />
    <path sodipodi:type="star" style="opacity:1;fill:#a400d6;fill-opacity:1;fill-rule:nonzero;stroke:none;stroke-width:0.965;stroke-linecap:square;stroke-linejoin:miter;stroke-miterlimit:4;stroke-dasharray:none;stroke-dashoffset:0;stroke-opacity:1;paint-order:stroke fill markers" id="path880-71" sodipodi:sides="4" sodipodi:cx="66.145836" sodipodi:cy="-177.36011" sodipodi:r1="26.738977" sodipodi:r2="13.369488" sodipodi:arg1="-1.5707963" sodipodi:arg2="-0.78539814" inkscape:flatsided="true" inkscape:rounded="0" inkscape:randomized="0" d="m 66.145837,-204.09908 26.738976,26.73897 -26.738978,26.73898 -26.738977,-26.73898 z" inkscape:transform-center-x="1.7610326e-06" inkscape:transform-center-y="-6.6847446" />
    <path style="opacity:1;fill:#ffc080;fill-opacity:0.217391;fill-rule:nonzero;stroke:none;stroke-width:0.965;stroke-linecap:square;stroke-linejoin:miter;stroke-miterlimit:4;stroke-dasharray:none;stroke-dashoffset:0;stroke-opacity:1;paint-order:stroke fill markers" inkscape:transform-center-y="2.6709705e-06" d="M -90.314842,270.93618 H 308.59604 L -90.31485,-312.9474 v 1e-5 z" id="path945-6-9" inkscape:connector-curvature="0" sodipodi:nodetypes="ccccc" />
    <path style="opacity:1;fill:#ff8913;fill-opacity:1;fill-rule:nonzero;stroke:none;stroke-width:0.965;stroke-linecap:square;stroke-linejoin:miter;stroke-miterlimit:4;stroke-dasharray:none;stroke-dashoffset:0;stroke-opacity:1;paint-order:stroke fill markers" d="m -54.90754,-272.37579 -35.407309,-40.5716 H 308.59604 v 10e-6 z" id="path945-4" inkscape:connector-curvature="0" sodipodi:nodetypes="ccccc" />
  </g>
</svg>
