<?xml version="1.0" encoding="UTF-8" standalone="no"?>
<!-- Created with Inkscape (http://www.inkscape.org/) -->

<svg
   width="143.54379mm"
   height="313.37985mm"
   viewBox="0 0 143.54379 313.37985"
   version="1.1"
   id="svg5"
   inkscape:version="1.1 (c68e22c387, 2021-05-23)"
   sodipodi:docname="кто-то.svg"
   xmlns:inkscape="http://www.inkscape.org/namespaces/inkscape"
   xmlns:sodipodi="http://sodipodi.sourceforge.net/DTD/sodipodi-0.dtd"
   xmlns="http://www.w3.org/2000/svg"
   xmlns:svg="http://www.w3.org/2000/svg">
  <sodipodi:namedview
     id="namedview7"
     pagecolor="#505050"
     bordercolor="#ffffff"
     borderopacity="1"
     inkscape:pageshadow="0"
     inkscape:pageopacity="0"
     inkscape:pagecheckerboard="1"
     inkscape:document-units="mm"
     showgrid="false"
     showguides="false"
     inkscape:zoom="0.67081229"
     inkscape:cx="183.35979"
     inkscape:cy="589.58371"
     inkscape:window-width="2004"
     inkscape:window-height="1406"
     inkscape:window-x="-11"
     inkscape:window-y="-11"
     inkscape:window-maximized="1"
     inkscape:current-layer="layer1" />
  <defs
     id="defs2" />
  <g
     inkscape:label="Слой 1"
     inkscape:groupmode="layer"
     id="layer1"
     transform="translate(-59.163349,-48.305418)">
    <path
       id="path52269"
       style="fill:#383443;stroke-width:7.4948;stroke-linecap:round;paint-order:fill markers stroke"
       inkscape:transform-center-x="7.3399133"
       inkscape:transform-center-y="5.6044172"
       transform="matrix(0.25786164,0.05925972,-0.05925972,0.25786164,-9.0210776,-13.637091)"
       d="M 652.95717,90.158622 650.3492,459.67012 414.57375,396.24796 526.17637,143.98211 Z"
       sodipodi:nodetypes="ccccc" />
    <path
       id="path52269-7"
       style="fill:#383443;stroke-width:1.983;stroke-linecap:round;paint-order:fill markers stroke"
       inkscape:transform-center-x="-1.2877333"
       inkscape:transform-center-y="-9.7109208"
       d="m 154.00875,48.305418 -37.30581,90.371772 86.0042,-10.81086 -20.45045,-59.630448 z"
       sodipodi:nodetypes="ccccc" />
    <rect
       style="fill:#f39f64;fill-opacity:1;stroke-width:1.983;stroke-linecap:round;paint-order:fill markers stroke"
       id="rect31043"
       width="97.816734"
       height="166.0518"
       x="59.163349"
       y="195.63347" />
    <path
       id="rect1044"
       style="fill:#ffbe93;fill-opacity:1;stroke-width:1.983;stroke-linecap:round;paint-order:fill markers stroke"
       d="m 147.04891,78.280555 7.97568,3.891686 -14.84622,38.263919 -12.47316,-7.75704 z"
       sodipodi:nodetypes="ccccc" />
    <circle
       style="fill:#fad5bc;fill-opacity:1;stroke-width:1.83955;stroke-linecap:round;paint-order:fill markers stroke"
       id="path846"
       cx="147.26599"
       cy="86.96431"
       r="27.075689" />
    <path
       id="rect6673-3"
       style="fill:#798097;stroke-width:1.983;stroke-linecap:round;paint-order:fill markers stroke"
       d="m 116.30295,174.01322 20.00526,6.6589 25.77569,18.39402 25.4803,18.42564 -19.5922,9.70806 -34.60028,-17.27276 -17.63031,-16.39903 z"
       sodipodi:nodetypes="cccccccc" />
    <path
       id="rect6673"
       style="fill:#6d758c;fill-opacity:1;stroke-width:1.983;stroke-linecap:round;paint-order:fill markers stroke"
       transform="rotate(27.560592)"
       d="m 180.53671,108.439 20.18851,6.08075 26.29409,17.64504 25.99972,17.68513 -19.30486,10.26756 -35.08277,-16.27042 -18.09469,-15.88515 z"
       sodipodi:nodetypes="cccccccc" />
    <path
       id="path51493-2"
       style="fill:#343843;stroke-width:2.3678;stroke-linecap:round;paint-order:fill markers stroke"
       inkscape:transform-center-x="2.7600921"
       inkscape:transform-center-y="-0.1938639"
       d="m 131.80009,346.3851 -9.99504,-8.57574 -10.85212,-20.51418 22.06282,-9.94858 z"
       sodipodi:nodetypes="ccccc" />
    <path
       id="rect6673-9"
       style="fill:#6d758c;fill-opacity:1;stroke-width:1.983;stroke-linecap:round;paint-order:fill markers stroke"
       d="m 154.97342,249.91372 -3.457,27.2038 -10.1544,30.86407 -5.54617,17.7691 -15.95472,-14.95152 8.00558,-40.43029 5.24187,-20.28484 z"
       sodipodi:nodetypes="cccccccc" />
    <path
       id="path51493"
       style="fill:#343843;stroke-width:2.3678;stroke-linecap:round;paint-order:fill markers stroke"
       inkscape:transform-center-x="-4.7981294"
       inkscape:transform-center-y="1.8688711"
       d="m 80.398638,257.27801 -3.001575,-12.82321 3.357039,-22.96368 23.679838,5.00074 z"
       sodipodi:nodetypes="ccccc" />
    <path
       id="rect6673-9-6"
       style="fill:#798097;stroke-width:1.983;stroke-linecap:round;paint-order:fill markers stroke"
       d="m 167.972,227.19984 -25.96908,8.80936 -32.19334,4.3922 -18.403,2.7983 6.4514,-20.89212 39.85151,-10.51448 20.53121,-4.17391 z"
       sodipodi:nodetypes="cccccccc" />
    <path
       id="rect11393-6"
       style="fill:#fad5bc;stroke-width:1.983;stroke-linecap:round;paint-order:fill markers stroke"
       d="m 151.90147,161.71823 9.04357,-6.23802 10.18102,53.14231 -6.82233,0.95923 -10.75908,-37.79615 z"
       sodipodi:nodetypes="cccccc" />
    <path
       id="rect11095-4"
       style="fill:#3d414f;fill-opacity:1;stroke-width:1.983;stroke-linecap:round;paint-order:fill markers stroke"
       d="m 151.03869,121.3788 -6.74542,-0.83105 -2.51133,18.3826 9.13527,37.98032 18.958,-5.6563 z"
       sodipodi:nodetypes="cccccc" />
    <path
       id="rect1879"
       style="fill:#53586c;fill-opacity:1;stroke-width:1.983;stroke-linecap:round;paint-order:fill markers stroke"
       d="m 109.53354,115.95916 18.17166,-3.28004 13.75504,4.01003 9.57845,4.68965 -9.7865,40.89745 5.79982,25.1568 -6.50797,2.76096 -26.22908,9.66335 -13.47143,-2.88443 10.61588,-36.18243 z"
       sodipodi:nodetypes="ccccccccccc" />
    <path
       id="path48378-2"
       style="fill:#444858;stroke-width:1.983;stroke-linecap:round;paint-order:fill markers stroke"
       inkscape:transform-center-x="0.44372342"
       inkscape:transform-center-y="3.3380814"
       d="M 109.18747,204.39322 98.674207,201.50879 111.45941,160.7905 133.2711,198.0104 Z"
       sodipodi:nodetypes="ccccc" />
    <path
       id="rect11393"
       style="fill:#fad5bc;stroke-width:1.983;stroke-linecap:round;paint-order:fill markers stroke"
       transform="rotate(-15.336508)"
       d="m 58.444435,202.32837 12.319108,-4.52723 2.674868,49.15657 -9.485679,0.7916 z"
       sodipodi:nodetypes="ccccc" />
    <path
       id="path13577"
       style="fill:#f9cfb2;stroke-width:7.4948;stroke-linecap:round;paint-order:fill markers stroke"
       inkscape:transform-center-x="-4.6754521"
       inkscape:transform-center-y="-2.9128442e-06"
       transform="scale(0.26458333)"
       d="m 494.87295,812.63911 75.45699,48.5649 -76.5111,29.59101 -13.05561,-51.69444 z"
       sodipodi:nodetypes="ccccc" />
    <path
       id="path13577-1"
       style="fill:#f9cfb2;stroke-width:1.983;stroke-linecap:round;paint-order:fill markers stroke"
       inkscape:transform-center-x="-4.690259"
       inkscape:transform-center-y="-0.45287775"
       d="m 168.89266,203.10902 18.17866,15.27196 -21.07139,5.20536 -1.6962,-14.00459 z"
       sodipodi:nodetypes="ccccc" />
    <path
       id="path31462"
       style="fill:#444858;fill-opacity:1;stroke-width:1.983;stroke-linecap:round;paint-order:fill markers stroke"
       inkscape:transform-center-x="1.9974781"
       inkscape:transform-center-y="-2.1879694"
       d="m 151.72089,153.25483 -16.40595,3.53924 -16.13881,-3.09051 -4.1562,-31.98652 -5.48639,-5.75788 18.17167,-3.28004 13.75503,4.01003 9.57845,4.68965 -1.97761,9.37581 z"
       sodipodi:nodetypes="cccccccccc" />
    <path
       id="rect11095"
       style="fill:#3d414f;fill-opacity:1;stroke-width:1.983;stroke-linecap:round;paint-order:fill markers stroke"
       transform="rotate(-13.809092)"
       d="m 71.192735,148.83872 7.496884,-10.0869 3.953481,6.90099 -2.763791,62.95513 -16.939219,-1.12973 z"
       sodipodi:nodetypes="cccccc" />
    <path
       id="path48378"
       style="fill:#444858;stroke-width:7.4948;stroke-linecap:round;paint-order:fill markers stroke"
       inkscape:transform-center-x="-0.44372342"
       inkscape:transform-center-y="3.3380814"
       transform="scale(0.26458333)"
       d="m 522.50087,742.38352 50.42966,-36.95659 -39.06398,-92.09936 z"
       sodipodi:nodetypes="cccc" />
    <path
       id="path53454"
       style="fill:#383443;stroke-width:7.4948;stroke-linecap:round;paint-order:fill markers stroke"
       inkscape:transform-center-x="-2.1566775"
       inkscape:transform-center-y="-3.166913"
       transform="scale(0.26458333)"
       d="m 516.91063,307.83574 65.16971,-125.26408 106.76385,75.32774 z m 13.9756,35.03216"
       sodipodi:nodetypes="cccc" />
    <path
       id="path53454-3"
       style="fill:#383443;stroke-width:1.983;stroke-linecap:round;paint-order:fill markers stroke"
       inkscape:transform-center-x="2.1566775"
       inkscape:transform-center-y="-3.166913"
       d="M 128.12002,83.266229 155.68505,58.856215 118.12728,54.671436 Z"
       sodipodi:nodetypes="cccc" />
  </g>
</svg>
