<?xml version="1.0" encoding="UTF-8" standalone="no"?>
<!-- Created with Inkscape (http://www.inkscape.org/) -->

<svg width="147.79414mm" height="147.79414mm" viewBox="0 0 147.79414 147.79414" version="1.1" id="svg1" xml:space="preserve" inkscape:export-filename="ферно.png" inkscape:export-xdpi="449" inkscape:export-ydpi="449" inkscape:version="1.3 (0e150ed6c4, 2023-07-21)" sodipodi:docname="inferno.svg" xmlns:inkscape="http://www.inkscape.org/namespaces/inkscape" xmlns:sodipodi="http://sodipodi.sourceforge.net/DTD/sodipodi-0.dtd" xmlns:xlink="http://www.w3.org/1999/xlink" xmlns="http://www.w3.org/2000/svg" xmlns:svg="http://www.w3.org/2000/svg"><sodipodi:namedview id="namedview1" pagecolor="#ffffff" bordercolor="#666666" borderopacity="1.0" inkscape:showpageshadow="2" inkscape:pageopacity="0.0" inkscape:pagecheckerboard="0" inkscape:deskcolor="#d1d1d1" inkscape:document-units="mm" inkscape:zoom="1.1652357" inkscape:cx="343.27819" inkscape:cy="309.80856" inkscape:current-layer="layer1" /><defs id="defs1"><linearGradient id="linearGradient24" inkscape:collect="always"><stop style="stop-color:#484848;stop-opacity:0;" offset="0" id="stop25" /><stop style="stop-color:#030303;stop-opacity:1;" offset="1" id="stop24" /></linearGradient><radialGradient inkscape:collect="always" xlink:href="#linearGradient24" id="radialGradient25" cx="78.164749" cy="69.128494" fx="78.164749" fy="69.128494" r="73.897072" gradientUnits="userSpaceOnUse" gradientTransform="matrix(0.61615898,-1.5606792,2.1636542,0.85418549,-119.56752,132.07002)" /><filter inkscape:collect="always" style="color-interpolation-filters:sRGB" id="filter25" x="-0.15817099" y="-0.14547013" width="1.316342" height="1.2909403"><feGaussianBlur inkscape:collect="always" stdDeviation="6.558348" id="feGaussianBlur25" /></filter><filter inkscape:collect="always" style="color-interpolation-filters:sRGB" id="filter26" x="-0.17768722" y="-0.36811578" width="1.3553744" height="1.7369094"><feGaussianBlur inkscape:collect="always" stdDeviation="3.0840759" id="feGaussianBlur26" /></filter></defs><g inkscape:label="Layer 1" inkscape:groupmode="layer" id="layer1"><rect style="font-variation-settings:'wdth' 87, 'wght' 700;fill:#636363;fill-opacity:1;stroke:none;stroke-width:2.163;stroke-linecap:square;stroke-dasharray:none;stroke-opacity:1;paint-order:markers stroke fill" id="rect20" width="147.79414" height="147.79414" x="0" y="0" /><path id="path20" style="font-variation-settings:'wdth' 87, 'wght' 700;fill:#262626;stroke-width:2.163;stroke-linecap:square;paint-order:markers stroke fill" inkscape:transform-center-x="-2.1057757" inkscape:transform-center-y="-19.036706" d="m 31.476925,73.897072 51.268324,-53.454419 40.096491,17.074972 4.92692,73.960615 -22.43664,27.24678 -95.9625662,-19.6505 z" sodipodi:nodetypes="ccccccc" /><path id="path22" style="font-variation-settings:'wdth' 87, 'wght' 700;fill:#858585;stroke-width:2.163;stroke-linecap:square;paint-order:markers stroke fill" inkscape:transform-center-x="0.5676622" inkscape:transform-center-y="-4.6614357" d="m 120.11698,93.896742 21.89675,13.331548 5.78041,40.56585 h -38.06109 z" sodipodi:nodetypes="ccccc" /><path id="path21" style="font-variation-settings:'wdth' 87, 'wght' 700;fill:#858585;stroke-width:2.163;stroke-linecap:square;paint-order:markers stroke fill" inkscape:transform-center-x="1.5861088" inkscape:transform-center-y="3.4575102" d="M 136.91973,76.037009 132.54827,53.404463 73.897072,0 h 58.651198 l 8.27649,43.859973 z" sodipodi:nodetypes="cccccc" /><path id="path21-8" style="font-variation-settings:'wdth' 87, 'wght' 700;fill:#858585;stroke-width:2.163;stroke-linecap:square;paint-order:markers stroke fill" inkscape:transform-center-x="-1.5861102" inkscape:transform-center-y="-3.4575098" d="M 0,9.9477151 32.857021,18.406998 24.661794,66.25526 8.6583509,85.491747 109.73305,147.79414 H 0 L 0.38186094,95.036237 Z" sodipodi:nodetypes="cccccccc" /><path id="rect19" style="font-variation-settings:'wdth' 87, 'wght' 700;fill:#ebc6aa;stroke-width:2.163;stroke-linecap:square;paint-order:markers stroke fill" d="m 90.461123,125.6461 16.173847,-14.16786 16.20677,51.78094 -20.90754,-3.06537 z" sodipodi:nodetypes="ccccc" /><path id="rect19-5" style="font-variation-settings:'wdth' 87, 'wght' 700;fill:#ebc6aa;stroke-width:2.163;stroke-linecap:square;paint-order:markers stroke fill" d="M 56.279491,121.60965 41.098623,106.3826 21.434398,156.9518 42.50114,155.30435 Z" sodipodi:nodetypes="ccccc" /><path id="rect16" style="font-variation-settings:'wdth' 87, 'wght' 700;fill:#f4dfcf;stroke-width:2.163;stroke-linecap:square;paint-order:markers stroke fill" d="m 9.3694538,119.07452 15.2923402,-6.46184 7.026644,12.24063 1.168583,33.86459 H 7.947248 Z" sodipodi:nodetypes="cccccc" /><path id="rect15" style="font-variation-settings:'wdth' 87, 'wght' 700;fill:#e9d2bf;stroke-width:2.163;stroke-linecap:square;paint-order:markers stroke fill" d="m 41.098623,106.3826 16.348625,-5.16935 H 89.541934 L 106.63497,111.47824 92.188072,166.8922 H 42.233944 c 0,-20.77638 -1.135321,-18.26695 -1.135321,-60.5096 z" sodipodi:nodetypes="ccccccc" /><rect style="font-variation-settings:'wdth' 87, 'wght' 700;fill:#7f8475;fill-opacity:1;stroke:none;stroke-width:2.163;stroke-linecap:square;stroke-dasharray:none;stroke-opacity:1;paint-order:markers stroke fill" id="rect18" width="56.125072" height="47.347267" x="42.233944" y="119.54493" /><path id="rect17" style="font-variation-settings:'wdth' 87, 'wght' 700;fill:#7f8475;stroke-width:2.163;stroke-linecap:square;paint-order:markers stroke fill" d="m 41.558457,102.89082 7.033286,-6.944164 10.719045,2.718095 3.423322,38.027919 -14.142367,8.74197 z" sodipodi:nodetypes="cccccc" /><path id="rect17-0" style="font-variation-settings:'wdth' 87, 'wght' 700;fill:#7f8475;stroke-width:2.163;stroke-linecap:square;paint-order:markers stroke fill" d="m 106.63497,107.22829 -7.087213,-8.30282 -11.656461,2.28778 -8.631182,35.45513 12.62855,10.81427 z" sodipodi:nodetypes="cccccc" /><path id="path2-9-3" style="font-variation-settings:'wdth' 87, 'wght' 700;opacity:0.95852;mix-blend-mode:normal;fill:#ffc5f9;fill-opacity:1;stroke-width:1.363;stroke-linecap:square;paint-order:markers stroke fill;filter:url(#filter25)" inkscape:transform-center-x="1.7867393" inkscape:transform-center-y="-3.3875573" d="m 88.984465,-14.304548 -8.07341,13.9743396 -2.67994,-13.2456996 -9.14362,21.8849696 -1.33791,1.67277 -5.76709,-9.98182 V 17.191722 l -5.92987,7.4135 v -8.05842 L 61.982495,1.16e-5 48.002475,15.210452 l -3.53312,10.48721 5.13767,11.12904 -2.08824,7.11533 -3.04943,-18.24437 -2.43396,7.08071 -5.40122,-10.75852 0.96325,16.37161 -9.34155,6.81767 2.57142,15.482262 10.51925,20.228223 13.08034,7.318416 7.94267,4.166154 23.99078,1.492416 7.24762,-4.556828 24.878585,-6.656441 6.63215,-18.28829 -7.07088,0.955498 -0.16382,-6.474024 3.33571,-7.818644 -3.6313,-19.021062 10.18026,-20.15536 -10.18026,-22.37486 3.6313,23.56807 -3.64318,3.9858 v -5.02553 l -11.33575,14.12317 -0.1173,-1.55288 7.61349,-16.2961604 -3.11609,-20.4338896 -4.4974,14.2099796 -9.065075,3.33623 4.256065,-18.9972896 -12.329995,16.4356896 z" /><path id="rect14" style="font-variation-settings:'wdth' 87, 'wght' 700;fill:#ffb0f9;stroke-width:2.163;stroke-linecap:square;paint-order:markers stroke fill" d="m 61.057779,96.559494 15.758224,-2.481861 7.797349,3.204375 -4.164921,8.756672 -17.062551,-2.68886 z" sodipodi:nodetypes="cccccc" /><path id="path2-9" style="font-variation-settings:'wdth' 87, 'wght' 700;fill:#de2acf;stroke-width:1.363;stroke-linecap:square;paint-order:markers stroke fill" inkscape:transform-center-x="1.7867393" inkscape:transform-center-y="-3.3875573" d="m 117.57647,12.035153 -14.128,17.602557 -7.474138,7.056849 -6.989675,-27.92228 V -14.304525 L 77.070508,6.317404 73.360746,41.76103 l 4.937886,34.039498 15.309323,13.539247 24.878975,-6.656329 6.63214,-18.288347 -7.07084,0.955383 -0.47176,-18.639283 z" sodipodi:nodetypes="cccccccccccccc" /><path id="rect4" style="font-variation-settings:'wdth' 87, 'wght' 700;fill:#ff90f7;stroke-width:2.163;stroke-linecap:square;paint-order:markers stroke fill" d="m 168.0846,48.50682 19.52808,-1.503329 4.25481,31.991367 -28.01749,0.4014 z" sodipodi:nodetypes="ccccc" /><path id="path1" style="font-variation-settings:'wdth' 87, 'wght' 700;fill:#e35cd8;stroke-width:1.363;stroke-linecap:square;paint-order:markers stroke fill" inkscape:transform-center-x="-3.7742578" inkscape:transform-center-y="0.045695553" d="M 30.827264,60.69117 28.256056,45.209204 37.597544,38.39126 36.634192,22.020036 45.43127,39.542125 36.634192,48.492149 45.43127,51.057648 49.606958,36.826822 44.469663,25.697443 48.002535,15.210298 61.982923,0 56.052999,16.546933 v 8.058246 L 69.087688,8.3093282 78.231253,-13.575743 82.96153,9.804036 l -3.831805,12.216 7.231049,-3.154766 1.627628,-14.6773413 13.326368,-17.7636717 -4.256374,18.9973054 9.065514,-3.3362869 4.49736,-14.2101375 3.11567,20.4341902 -7.61303,16.2958508 1.12701,14.936946 5.13788,10.610821 -3.35996,-23.741419 12.19131,-13.336638 -3.63135,-23.568466 10.17986,22.374917 -10.17986,20.155708 3.63135,19.0206 L 109.41882,78.71893 93.607955,89.339775 86.360774,93.896742 62.369578,92.404185 54.427123,88.23809 41.346585,80.919459 Z" sodipodi:nodetypes="cccccccccccccccccccccccccccccccccccccccc" /><path id="path2" style="font-variation-settings:'wdth' 87, 'wght' 700;fill:#e865ef;fill-opacity:1;stroke-width:1.363;stroke-linecap:square;paint-order:markers stroke fill" inkscape:transform-center-x="-1.7867397" inkscape:transform-center-y="-3.3875573" d="m 44.469663,25.697443 3.049451,18.244792 7.474134,7.056849 6.989675,-27.92228 V 0 L 73.897072,20.621929 77.606834,56.065555 85.819742,28.214589 103.83797,9.0886164 99.711401,33.166134 105,48.492149 l 6.40821,5.808963 -0.82678,8.611406 -6.74346,18.206726 -31.169022,8.98581 L 45.96758,82.004783 V 68.729649 l -9.333388,-20.2375 z" sodipodi:nodetypes="ccccccccccccccccccc" /><path id="rect1" style="font-variation-settings:'wdth' 87, 'wght' 700;fill:#ffb0f9;fill-opacity:1;stroke-width:1.363;stroke-linecap:square;paint-order:markers stroke fill" d="M 62.445903,89.976943 58.380859,79.567988 50.695898,69.880464 54.631541,45.685669 74.248245,33.281727 98.4077,44.121485 l 7.22551,25.188237 -8.42484,8.833006 -10.928913,14.261457 z" sodipodi:nodetypes="cccccccccc" /><path id="path3-2" style="font-variation-settings:'wdth' 87, 'wght' 700;fill:#ffffff;stroke:#ffffff;stroke-width:2.663;stroke-linecap:square;stroke-dasharray:none;stroke-opacity:1;paint-order:markers stroke fill;filter:url(#filter26)" inkscape:transform-center-x="-0.12041825" inkscape:transform-center-y="2.6592422" d="m 62.096985,55.935087 c -2.757781,-0.04305 -5.970857,1.959148 -9.665043,6.01617 0,0 -0.306609,16.344534 5.948991,17.616496 4.867551,0.989727 13.828096,-6.42183 13.828096,-6.42183 C 70.024634,61.759102 66.693287,56.006835 62.096985,55.935087 Z m 31.151587,2.664954 c -4.406855,-0.181848 -8.390326,3.351631 -11.674223,15.218709 0,0 9.187407,6.730462 14.054956,5.740735 C 101.8849,78.287523 101.5783,61.942472 101.5783,61.942472 98.689026,60.155505 95.892684,58.70915 93.248572,58.600041 Z" /><path id="path3" style="font-variation-settings:'wdth' 87, 'wght' 700;fill:#ffffff;stroke:#77056e;stroke-width:2.163;stroke-linecap:square;paint-order:markers stroke fill" inkscape:transform-center-x="-0.12041825" inkscape:transform-center-y="2.6592422" d="m 58.380859,79.567988 c -6.255606,-1.271963 -5.949154,-17.616902 -5.949154,-17.616902 9.851173,-10.818737 16.282078,-7.023901 19.777113,11.195031 0,0 -8.960403,7.411599 -13.827959,6.421871 z" sodipodi:nodetypes="sccs" /><path id="path3-5" style="font-variation-settings:'wdth' 87, 'wght' 700;fill:#ffffff;stroke:#77056e;stroke-width:2.163;stroke-linecap:square;paint-order:markers stroke fill" inkscape:transform-center-x="0.12041857" inkscape:transform-center-y="2.6592422" d="m 95.629335,79.559631 c 6.255595,-1.271963 5.949145,-17.616902 5.949145,-17.616902 -7.70473,-4.765251 -14.749927,-7.11112 -20.004168,11.876223 0,0 9.187467,6.730407 14.055023,5.740679 z" sodipodi:nodetypes="sccs" /><path id="path23" style="font-variation-settings:'wdth' 87, 'wght' 700;fill:#ebc6aa;stroke-width:2.163;stroke-linecap:square;paint-order:markers stroke fill" inkscape:transform-center-x="-1.015235" inkscape:transform-center-y="0.81870495" d="m 62.353546,108.00495 -3.042758,-9.340199 13.00151,6.091769 z" sodipodi:nodetypes="cccc" /><path sodipodi:type="star" style="font-variation-settings:'wdth' 87, 'wght' 700;fill:#f4c567;fill-opacity:1;stroke:none;stroke-width:2.163;stroke-linecap:square;stroke-dasharray:none;stroke-opacity:1;paint-order:markers stroke fill" id="path24-3" inkscape:flatsided="true" sodipodi:sides="5" sodipodi:cx="49.933743" sodipodi:cy="148.49998" sodipodi:r1="7.6865478" sodipodi:r2="3.8432736" sodipodi:arg1="-1.8420465" sodipodi:arg2="-1.213728" inkscape:rounded="0" inkscape:randomized="0" d="m 47.874239,141.09448 8.466133,3.15837 -0.387611,9.02777 -8.70569,2.42109 -4.992801,-7.53145 z" inkscape:transform-center-x="1.0297517" inkscape:transform-center-y="-0.95958621" transform="matrix(-1,0,0,1,134.5566,3.2327748)" /><path sodipodi:type="star" style="font-variation-settings:'wdth' 87, 'wght' 700;fill:#f4c567;fill-opacity:1;stroke:none;stroke-width:2.163;stroke-linecap:square;stroke-dasharray:none;stroke-opacity:1;paint-order:markers stroke fill" id="path24" inkscape:flatsided="true" sodipodi:sides="5" sodipodi:cx="49.933743" sodipodi:cy="148.49998" sodipodi:r1="7.6865478" sodipodi:r2="3.8432736" sodipodi:arg1="-1.8420465" sodipodi:arg2="-1.213728" inkscape:rounded="0" inkscape:randomized="0" d="m 47.874239,141.09448 8.466133,3.15837 -0.387611,9.02777 -8.70569,2.42109 -4.992801,-7.53145 z" inkscape:transform-center-x="-1.0297511" inkscape:transform-center-y="-0.95958621" transform="translate(4.4122621,0.52835398)" /><path id="path5" style="font-variation-settings:'wdth' 87, 'wght' 700;fill:#89dfff;fill-opacity:1;stroke-width:2.163;stroke-linecap:square;paint-order:markers stroke fill" inkscape:transform-center-x="4.1205951" inkscape:transform-center-y="-1.3336327" d="M 88.422319,156.12775 33.846808,137.64859 37.224339,124.1227 50.238093,113.54166 74.469001,102.46825 90.453138,100.02116 101.9342,106.3826 Z" sodipodi:nodetypes="cccccccc" /><path id="path6" style="font-variation-settings:'wdth' 87, 'wght' 700;fill:#caf1ff;fill-opacity:1;stroke-width:2.163;stroke-linecap:square;paint-order:markers stroke fill" inkscape:transform-center-x="1.0916685" inkscape:transform-center-y="-0.65496289" d="M 87.891296,155.32353 53.709583,131.60946 66.075472,127.67263 Z" sodipodi:nodetypes="cccc" /><path id="path6-4" style="font-variation-settings:'wdth' 87, 'wght' 700;fill:#fafafa;fill-opacity:1;stroke-width:2.163;stroke-linecap:square;paint-order:markers stroke fill" inkscape:transform-center-x="1.2072277" inkscape:transform-center-y="-0.83773535" d="M 87.891296,155.32353 37.576925,137.43304 51.734927,134.11763 Z" sodipodi:nodetypes="cccc" /><path id="path6-5" style="font-variation-settings:'wdth' 87, 'wght' 700;fill:#caf1ff;fill-opacity:1;stroke-width:2.163;stroke-linecap:square;paint-order:markers stroke fill" inkscape:transform-center-x="0.98933437" inkscape:transform-center-y="-0.40203706" d="M 87.891296,155.32353 70.084328,126.29444 80.085384,121.98946 Z" sodipodi:nodetypes="cccc" /><path id="path6-5-4" style="font-variation-settings:'wdth' 87, 'wght' 700;fill:#f5fcff;fill-opacity:1;stroke-width:2.163;stroke-linecap:square;paint-order:markers stroke fill" inkscape:transform-center-x="1.7429938" inkscape:transform-center-y="0.19870943" d="m 87.891296,155.32353 2.569827,-39.81674 -8.947363,4.83364 z" sodipodi:nodetypes="cccc" /><path id="path6-5-4-5" style="font-variation-settings:'wdth' 87, 'wght' 700;fill:#caf1ff;fill-opacity:1;stroke-width:2.163;stroke-linecap:square;paint-order:markers stroke fill" inkscape:transform-center-x="-1.4457752" inkscape:transform-center-y="0.1987104" d="m 87.891296,155.32353 12.525034,-48.09524 -7.582649,6.38629 z" sodipodi:nodetypes="cccc" /><path id="path7" style="font-variation-settings:'wdth' 87, 'wght' 700;fill:#89dfff;fill-opacity:1;stroke-width:2.163;stroke-linecap:square;paint-order:markers stroke fill" inkscape:transform-center-x="0.15950883" inkscape:transform-center-y="0.74326675" d="M 55.522965,134.5079 33.846808,137.64859 101.9342,106.3826 90.697505,119.50439 Z" sodipodi:nodetypes="ccccc" /><path id="path8" style="font-variation-settings:'wdth' 87, 'wght' 700;fill:#fafafa;fill-opacity:1;stroke-width:2.163;stroke-linecap:square;paint-order:markers stroke fill" inkscape:transform-center-x="-0.078789631" inkscape:transform-center-y="-0.73617994" d="m 39.174223,125.23823 12.974949,-2.10555 -0.411039,9.33439 -14.527462,3.40193 z" sodipodi:nodetypes="ccccc" /><path id="path8-1" style="font-variation-settings:'wdth' 87, 'wght' 700;fill:#caf1ff;fill-opacity:1;stroke-width:2.163;stroke-linecap:square;paint-order:markers stroke fill" inkscape:transform-center-x="0.29158898" inkscape:transform-center-y="-1.1783419" d="m 54.179196,122.49456 10.840402,-2.72558 1.055874,7.90365 -10.30673,3.85059 z" sodipodi:nodetypes="ccccc" /><path id="path8-1-4" style="font-variation-settings:'wdth' 87, 'wght' 700;fill:#caf1ff;fill-opacity:1;stroke-width:2.163;stroke-linecap:square;paint-order:markers stroke fill" inkscape:transform-center-x="0.070140212" inkscape:transform-center-y="-1.0194449" d="m 68.194986,118.22626 8.725795,-3.26688 3.160131,7.19641 -9.992112,3.97232 z" sodipodi:nodetypes="ccccc" /><path id="path8-1-4-2" style="font-variation-settings:'wdth' 87, 'wght' 700;fill:#f5fcff;fill-opacity:1;stroke-width:2.163;stroke-linecap:square;paint-order:markers stroke fill" inkscape:transform-center-x="0.085637653" inkscape:transform-center-y="-1.1758406" d="m 78.55455,113.9888 8.570579,-3.64808 2.416805,6.44758 -8.470168,4.17308 z" sodipodi:nodetypes="ccccc" /><path id="path8-1-4-0" style="font-variation-settings:'wdth' 87, 'wght' 700;fill:#caf1ff;fill-opacity:1;stroke-width:2.163;stroke-linecap:square;paint-order:markers stroke fill" inkscape:transform-center-x="0.15423638" inkscape:transform-center-y="-0.9323687" d="m 88.534071,109.52053 6.177395,-5.69917 4.836291,4.13847 -8.019188,7.297 z" sodipodi:nodetypes="ccccc" /><path id="path9" style="font-variation-settings:'wdth' 87, 'wght' 700;fill:#fafafa;stroke-width:2.163;stroke-linecap:square;paint-order:markers stroke fill" inkscape:transform-center-x="-1.1909342" inkscape:transform-center-y="0.018790548" d="m 71.354928,110.86411 3.738225,-7.04275 14.448781,-2.60811 z" sodipodi:nodetypes="cccc" /><path id="path9-4" style="font-variation-settings:'wdth' 87, 'wght' 700;fill:#caf1ff;fill-opacity:1;stroke-width:2.163;stroke-linecap:square;paint-order:markers stroke fill" inkscape:transform-center-x="1.1909338" inkscape:transform-center-y="0.018790548" d="m 68.194986,112.11478 4.64058,-8.29342 -20.686394,9.54164 z" sodipodi:nodetypes="cccc" /><path id="path10" style="font-variation-settings:'wdth' 87, 'wght' 700;fill:#e865ef;stroke-width:2.163;stroke-linecap:square;paint-order:markers stroke fill" inkscape:transform-center-x="-0.48900585" inkscape:transform-center-y="1.6997199" d="m 96.736585,151.63087 -5.238845,-6.91029 -6.238461,-3.83462 6.238461,-22.91976 13.01726,2.99518 1.11821,24.31211 z" sodipodi:nodetypes="ccccccc" /><path id="rect11" style="font-variation-settings:'wdth' 87, 'wght' 700;fill:#69443f;stroke-width:2.163;stroke-linecap:square;paint-order:markers stroke fill" d="M 6.0981923,46.923811 16.545349,37.273581 43.225395,158.07174 H 30.961724 Z" sodipodi:nodetypes="ccccc" /><path id="rect10" style="font-variation-settings:'wdth' 87, 'wght' 700;fill:#e865ef;stroke-width:2.163;stroke-linecap:square;paint-order:markers stroke fill" d="m 13.877347,107.66286 11.091246,-7.61697 h 9.060705 l 5.810637,20.18602 -11.373711,6.4482 -10.955849,-2.15711 z" sodipodi:nodetypes="ccccccc" /><path id="rect12" style="font-variation-settings:'wdth' 87, 'wght' 700;fill:#69443f;stroke-width:2.163;stroke-linecap:square;paint-order:markers stroke fill" d="M 0,23.274083 18.165137,16.68922 19.14548,45.271902 6.0981923,46.923811 Z" sodipodi:nodetypes="ccccc" /><path id="path11" style="font-variation-settings:'wdth' 87, 'wght' 700;fill:#b2b2b2;stroke-width:2.163;stroke-linecap:square;paint-order:markers stroke fill" inkscape:transform-center-x="0.8252647" inkscape:transform-center-y="-3.6743094" d="m 33.846808,62.842956 -4.305148,-9.892769 -20.1722062,-9.0481 2.4655722,-18.26785 29.197705,18.3829 5.916282,28.833546 z" sodipodi:nodetypes="ccccccc" /><path id="path11-3" style="font-variation-settings:'wdth' 87, 'wght' 700;fill:#b2b2b2;stroke-width:2.163;stroke-linecap:square;paint-order:markers stroke fill" inkscape:transform-center-x="-0.8252643" inkscape:transform-center-y="-3.6743094" d="M 0.90825688,62.842956 2.9518349,54.868781 19.14548,45.271902 11.835026,25.634237 -9.5659621,47.203466 -10.000967,76.037009 Z" sodipodi:nodetypes="ccccccc" /><path id="path12" style="font-variation-settings:'wdth' 87, 'wght' 700;fill:#c5c4c2;fill-opacity:1;stroke-width:2.163;stroke-linecap:square;paint-order:markers stroke fill" inkscape:transform-center-x="-0.64223426" inkscape:transform-center-y="0.74313779" d="M 44.394467,69.128492 36.634192,48.492149 10.60224,34.768162 -8.0250442,47.996101 11.56063,27.667282 38.624351,45.052527 Z" sodipodi:nodetypes="ccccccc" /><path id="path13" style="font-variation-settings:'wdth' 87, 'wght' 700;fill:#938c86;stroke-width:2.163;stroke-linecap:square;paint-order:markers stroke fill" inkscape:transform-center-x="-1.2490036" inkscape:transform-center-y="0.039679405" d="M 10.78555,37.273581 34.69434,50.242617 33.846808,62.842956 30.774397,52.40104 15.757524,45.700849 3.6001848,51.409209 10.78555,43.722475 Z" sodipodi:nodetypes="cccccccc" /><path id="rect13" style="font-variation-settings:'wdth' 87, 'wght' 700;fill:#f4dfcf;fill-opacity:1;stroke-width:2.163;stroke-linecap:square;paint-order:markers stroke fill" d="m 89.942786,150.76456 19.039874,-14.89556 1.90721,30.3092 -14.751895,-4.97732 z" sodipodi:nodetypes="ccccc" /><rect style="font-variation-settings:'wdth' 87, 'wght' 700;opacity:0.348655;fill:url(#radialGradient25);fill-opacity:1;stroke:none;stroke-width:2.163;stroke-linecap:square;stroke-dasharray:none;stroke-opacity:1;paint-order:markers stroke fill" id="rect24" width="147.79414" height="147.79414" x="4.7683716e-06" y="0" /></g></svg>
