<?xml version="1.0" encoding="UTF-8" standalone="no"?>
<!-- Created with Inkscape (http://www.inkscape.org/) -->

<svg width="98.053734mm" height="96.85228mm" viewBox="0 0 98.053734 96.85228" version="1.1" id="svg1" xml:space="preserve" inkscape:version="1.3 (0e150ed6c4, 2023-07-21)" sodipodi:docname="инту на др.svg" xmlns:inkscape="http://www.inkscape.org/namespaces/inkscape" xmlns:sodipodi="http://sodipodi.sourceforge.net/DTD/sodipodi-0.dtd" xmlns="http://www.w3.org/2000/svg" xmlns:svg="http://www.w3.org/2000/svg"><sodipodi:namedview id="namedview1" pagecolor="#ffffff" bordercolor="#666666" borderopacity="1.0" inkscape:showpageshadow="2" inkscape:pageopacity="0.0" inkscape:pagecheckerboard="0" inkscape:deskcolor="#d1d1d1" inkscape:document-units="mm" inkscape:zoom="1.1492003" inkscape:cx="229.72497" inkscape:cy="339.36643" inkscape:current-layer="layer1" /><defs id="defs1" /><g inkscape:label="Layer 1" inkscape:groupmode="layer" id="layer1"><rect style="fill:#60656a;fill-opacity:1;stroke:none;stroke-width:1.273;stroke-dasharray:none;stroke-opacity:1;paint-order:fill markers stroke" id="rect36" width="98.053734" height="96.85228" x="0" y="0" inkscape:export-filename="с днём рождения мальчик инт.png" inkscape:export-xdpi="449" inkscape:export-ydpi="449" /><path id="rect38-3-3-8" style="fill:#a4a4a4;fill-opacity:1;stroke-width:1.273;paint-order:fill markers stroke" d="M 24.024869,-16.481471 121.14107,84.5702 103.35557,87.45236 13.136338,-7.70421 Z" sodipodi:nodetypes="ccccc" /><path id="rect38" style="fill:#f84137;stroke-width:1.273;paint-order:fill markers stroke" d="M -27.973255,38.859075 62.288159,-20.886273 75.059979,-9.4562691 -21.411628,51.21001 Z" sodipodi:nodetypes="ccccc" /><path id="rect38-3" style="fill:#f8af37;fill-opacity:1;stroke-width:1.273;paint-order:fill markers stroke" d="M -17.771657,54.615029 72.489757,-5.130319 99.28017,-3.647046 -11.21003,66.965964 Z" sodipodi:nodetypes="ccccc" /><path id="rect38-3-3" style="fill:#208438;fill-opacity:1;stroke-width:1.273;paint-order:fill markers stroke" d="M -9.852925,71.141461 107.72943,-5.130319 107.1989,12.879386 -3.291298,83.492396 Z" sodipodi:nodetypes="ccccc" /><rect style="fill:#17161b;fill-opacity:1;stroke:none;stroke-width:3.09947;stroke-dasharray:none;stroke-opacity:1;paint-order:fill markers stroke" id="rect19" width="24.75" height="43.545662" x="41.835041" y="51.264763" transform="rotate(23.903277)" /><circle style="fill:#201f25;fill-opacity:1;stroke:none;stroke-width:2.97299;stroke-dasharray:none;stroke-opacity:1;paint-order:fill markers stroke" id="path18" cx="23.944519" cy="73.453766" r="12.574656" /><path id="rect31" style="fill:#f8a328;stroke-width:2.073;paint-order:fill markers stroke" d="M 11.78477,76.657236 24.568439,76.374925 35.74048,69.097474 36.519175,73.453766 25.869553,81.040631 8.2818001,84.560916 Z" sodipodi:nodetypes="ccccccc" /><rect style="fill:#000000;fill-opacity:1;stroke:none;stroke-width:2.80246;stroke-dasharray:none;stroke-opacity:1;paint-order:fill markers stroke" id="rect30" width="17.270851" height="24.882015" x="49.529594" y="35.552219" transform="rotate(7.3712808)" /><rect style="fill:#17161b;fill-opacity:1;stroke:none;stroke-width:3.09947;stroke-dasharray:none;stroke-opacity:1;paint-order:fill markers stroke" id="rect19-9" width="24.75" height="43.545662" x="60.406509" y="77.69986" transform="matrix(-0.11295745,0.99359983,0.99359983,0.11295745,0,0)" /><path id="rect18-2" style="fill:#28272c;fill-opacity:1;stroke-width:2.97299;paint-order:fill markers stroke" d="m 62.553157,57.803222 -9.08784,2.402314 -6.896873,11.666103 6.908947,37.642381 17.516347,1.15611 3.449948,-38.633194 -10.890741,-7.118603 z" sodipodi:nodetypes="cccccccc" /><circle style="fill:#201f25;fill-opacity:1;stroke:none;stroke-width:2.97299;stroke-dasharray:none;stroke-opacity:1;paint-order:fill markers stroke" id="path18-3" cx="-91.376198" cy="68.36927" r="12.574656" transform="matrix(-0.99302726,-0.11788494,-0.11788494,0.99302726,0,0)" /><path id="rect18" style="fill:#28272c;fill-opacity:1;stroke-width:2.97299;paint-order:fill markers stroke" d="m 40.208997,56.084255 8.220778,4.558372 3.824131,13.001569 -15.932416,34.797124 -17.264687,-3.1764 6.133148,-38.298956 12.3043,-4.229301 z" sodipodi:nodetypes="cccccccc" /><g id="g18"><circle style="fill:#272435;fill-opacity:1;stroke:#f8a328;stroke-width:2.75836;stroke-dasharray:none;stroke-opacity:1;paint-order:fill markers stroke" id="path1" cx="55.973938" cy="79.449142" r="19.331739" transform="rotate(5.6249189)" /><path id="rect1" style="fill:#9f0c04;stroke-width:3.07542;paint-order:fill markers stroke" d="m 48.648942,67.574496 c 1.173056,-0.429197 3.371903,-0.117199 3.371903,-0.117199 l -0.818974,2.179488 1.257223,0.724661 -2.091017,3.245879 2.289333,2.425597 -1.427196,0.863105 -1.519042,-1.360921 0.09436,1.708514 -2.123825,-0.251218 0.41123,-1.604924 -2.030704,1.095563 -1.033375,-0.953393 2.777444,-2.174633 -1.224377,-3.443505 1.277279,-0.667308 -1.16085,-0.514835 c 0,0 1.224579,-0.889239 1.950589,-1.154871 z" sodipodi:nodetypes="sccccccccccccccccs" /><path id="rect2" style="fill:#9f0c04;stroke-width:3.36013;paint-order:fill markers stroke" d="m 46.872031,66.965964 c 0,0 -0.803008,1.080453 -0.962817,1.763706 -0.162651,0.695378 0.262109,1.708068 0.262109,1.708068 l -0.767064,0.543389 c -0.309896,-0.542073 -0.885142,-2.14466 -0.05834,-3.085459 -3.01781,1.06971 -5.325926,1.626347 -9.13181,5.02999 l -1.287162,-0.387863 c 2.585819,-2.512109 7.621932,-5.430299 11.94508,-5.571831 z" sodipodi:nodetypes="cscccccc" /><path id="rect3" style="fill:#9f0c04;stroke-width:2.97299;paint-order:fill markers stroke" d="m 44.656004,68.528217 0.0797,1.163181 c -2.511642,0.777456 -4.811004,1.959906 -6.852679,3.762368 l -1.009908,-0.334621 c 2.415333,-2.234452 5.033877,-3.669358 7.782889,-4.590928 z" sodipodi:nodetypes="ccccc" /><path id="rect3-3" style="fill:#9f0c04;stroke-width:2.97299;paint-order:fill markers stroke" d="m 44.717882,70.079944 0.430714,1.094288 c -2.511642,0.777456 -3.576137,1.152352 -5.617812,2.954814 l -1.009908,-0.334621 c 2.415333,-2.234452 3.447994,-2.792912 6.197006,-3.714481 z" sodipodi:nodetypes="ccccc" /><path id="rect3-3-1" style="fill:#9f0c04;stroke-width:2.97299;paint-order:fill markers stroke" d="m 45.522565,71.409875 0.697979,0.905433 c -1.894081,0.38985 -2.803675,0.86211 -5.001639,2.305391 l -1.009908,-0.334621 c 2.490061,-2.136193 2.646656,-1.846682 5.313568,-2.876203 z" sodipodi:nodetypes="ccccc" /><path id="rect3-3-1-4" style="fill:#9f0c04;stroke-width:2.97299;paint-order:fill markers stroke" d="m 46.574157,72.634776 0.0162,0.769883 c -2.573917,0.926115 -1.486943,0.502526 -3.782364,1.862678 l -1.009908,-0.334621 c 2.471509,-1.774417 1.648852,-1.499563 4.776079,-2.297939 z" sodipodi:nodetypes="cccccc" /><path id="rect2-2" style="fill:#9f0c04;stroke-width:3.36013;paint-order:fill markers stroke" d="m 52.541659,67.524365 c 0,0 0.576796,1.21635 0.60024,1.917652 0.02387,0.713748 -0.590296,1.624115 -0.590296,1.624115 l 0.646317,0.682593 c 0.409694,-0.471201 1.286532,-1.930773 0.65915,-3.014795 2.751138,1.637894 4.906313,2.634121 7.975062,6.714846 l 1.338098,-0.129301 c -2.046054,-2.968303 -6.4161,-6.812905 -10.628571,-7.79511 z" sodipodi:nodetypes="cscccccc" /><path id="rect3-9" style="fill:#9f0c04;stroke-width:2.97299;paint-order:fill markers stroke" d="m 54.41033,69.488921 -0.305088,1.125283 c 2.311711,1.252508 4.336212,2.860815 5.987019,5.026949 l 1.055784,-0.131171 c -1.933011,-2.66272 -4.221309,-4.580901 -6.737715,-6.021061 z" sodipodi:nodetypes="ccccc" /><path id="rect3-3-7" style="fill:#9f0c04;stroke-width:2.97299;paint-order:fill markers stroke" d="m 54.007366,70.933521 -0.63592,0.989235 c 2.311711,1.252508 3.282615,1.82787 4.933423,3.994005 l 1.055783,-0.131171 c -1.93301,-2.66272 -2.836881,-3.411909 -5.353286,-4.852069 z" sodipodi:nodetypes="ccccc" /><path id="rect3-3-1-7" style="fill:#9f0c04;stroke-width:2.97299;paint-order:fill markers stroke" d="m 53.115115,72.101432 -0.861207,0.751869 c 1.781632,0.751871 2.581618,1.392508 4.455784,3.236852 l 1.055783,-0.131171 c -2.025471,-2.580928 -2.235538,-2.327529 -4.65036,-3.85755 z" sodipodi:nodetypes="ccccc" /><path id="rect3-3-1-4-3" style="fill:#9f0c04;stroke-width:2.97299;paint-order:fill markers stroke" d="m 51.807752,73.058215 -0.166081,0.75193 c 2.343788,1.41046 1.360336,0.782954 3.346304,2.56478 l 1.055784,-0.131171 c -2.077854,-2.222483 -1.324625,-1.792421 -4.236011,-3.18554 z" sodipodi:nodetypes="cccccc" /><path id="rect4" style="fill:#ffb10f;stroke-width:2.59761;paint-order:fill markers stroke" d="m 34.422999,72.749251 1.8434,5.092896 -0.0067,0.02652 -4.363822,0.647696 -2.415406,-2.60666 -0.463459,2.797086 2.401971,1.193035 3.216085,0.02352 -0.820547,1.029194 -2.717428,0.533679 -3.06166,-2.276848 -0.525669,2.395365 3.227383,1.32178 4.776682,-0.605967 1.208925,0.816421 -5.929688,0.966907 -3.106887,-1.12171 -0.446783,2.216534 3.935246,0.9042 6.012094,-1.023299 -0.06453,0.502265 -1.887294,0.767386 -4.113138,1.360675 0.477607,0.855289 2.208561,-0.686694 0.238728,0.402046 -2.3483,0.776894 0.478122,0.85534 2.396098,-0.74553 0.270764,0.456384 -2.401501,0.795112 0.478122,0.855338 2.450224,-0.76259 0.488083,0.822732 -2.589812,0.856538 0.58568,1.033875 3.279965,-1.020484 1.99743,-0.356679 -1.379694,-0.806584 -2.177701,-4.297844 3.558089,-1.329507 0.07606,-1.652724 -3.171843,-2.502559 1.775123,-2.385867 2.16875,0.787798 1.343655,3.023053 1.856686,0.755997 -0.209661,2.534718 -3.052505,1.141519 0.801566,1.773284 2.062121,1.127039 0.510556,1.680645 0.829151,-1.659593 3.341002,-1.00754 3.079734,1.639919 0.489453,1.789461 0.82862,-1.548749 2.242369,-0.70309 1.132111,-1.582836 -2.771157,-1.715092 0.288859,-2.526917 1.968497,-0.379255 1.908113,-2.702787 2.280253,-0.349616 1.275563,2.686329 -3.599117,1.835687 -0.247828,1.635807 3.230869,1.998151 -2.97483,3.790372 -1.510024,0.521976 1.888954,0.739448 3.017859,1.640758 0.776123,-0.899752 -2.371922,-1.345219 0.638644,-0.711228 2.254425,1.225418 0.635799,-0.745628 -2.200292,-1.24781 0.354647,-0.39532 2.204101,1.198604 0.635801,-0.74563 -2.151102,-1.22004 0.312576,-0.347748 2.031645,1.104311 0.635801,-0.745628 -3.772101,-2.138893 -1.698394,-1.11894 0.03469,-0.505204 5.697458,2.176573 4.035518,-0.119159 -0.0058,-2.261107 -3.266022,0.494042 -5.627123,-2.105137 1.34497,-0.564888 4.566685,1.526195 3.423235,-0.666761 -0.04826,-2.451891 -3.447018,1.635808 -2.561101,-1.053561 -0.603997,-1.169498 3.15888,0.604349 2.588564,-0.701516 0.09164,-2.833707 -2.878038,2.085308 -4.153618,-1.486578 -0.0014,-0.02732 2.801542,-4.635416 -1.413774,0.172114 -0.351487,0.848272 -5.09392,1.744445 -2.412319,-1.467559 -0.999514,1.248818 2.590778,1.242553 0.195755,1.233785 -2.290874,0.373095 -0.252429,-1.095952 -3.344396,-1.082724 -0.461011,-0.83926 -0.133242,1.500478 3.595362,0.965092 0.111287,0.63101 -1.030129,0.167781 -0.199997,-0.689862 -2.211786,-0.466816 -0.388348,-0.401323 -0.178395,0.783215 2.440905,0.576287 0.06533,0.275141 -3.187459,0.51884 0.129453,0.715435 0.854636,1.308276 -0.04457,0.452517 -1.07151,-1.136103 -0.107026,1.086673 1.095795,0.889516 -0.03781,0.383873 -1.106977,-0.775991 -0.07567,0.768275 1.096887,0.878428 -1.590319,1.005093 -1.363167,-1.295982 1.247181,-0.64756 0.07567,-0.768275 -1.237093,0.545123 0.03781,-0.383873 1.248273,-0.658649 0.107027,-1.086673 -1.27256,0.905236 0.04457,-0.452516 1.093956,-1.11636 0.266025,-0.676485 -3.024481,-1.130654 0.117748,-0.25711 2.505916,-0.08907 -0.02166,-0.802918 -0.459179,0.31785 -2.260873,0.0263 -0.330736,0.63759 -0.977604,-0.365523 0.23225,-0.597175 3.714557,-0.245138 0.162043,-1.497641 -0.615884,0.733196 -3.491361,0.40947 -0.461386,1.025649 -2.174071,-0.812847 0.43269,-1.171889 2.783407,-0.71325 -0.736167,-1.419766 -2.652786,0.968697 -4.65521,-2.704636 -0.179246,-0.900544 z m 1.7282,2.32945 4.181291,2.576388 -0.471122,1.135049 -2.251703,-0.841819 0.126571,-0.330879 -1.1933,-0.569102 z m 25.127013,2.474759 -0.768466,1.855368 -1.281396,0.32537 0.0596,0.349215 -2.372668,0.386365 -0.240636,-1.20515 z m -22.116657,2.152474 -2.26316,1.900088 3.346846,2.049027 -0.371415,2.010166 -3.435965,1.354862 3.261022,4.502109 1.884475,-0.158811 -1.049886,-0.491 -2.535984,-3.111695 3.717682,-2.085251 0.0652,-1.879849 -3.507526,-2.094174 1.346957,-1.070115 z m 18.261428,1.798568 -0.629965,0.818179 1.11231,1.312328 -3.848164,1.369713 -0.303306,1.856397 3.239444,2.770458 -3.094311,2.557167 -1.1255,0.276747 1.817797,0.523447 4.076155,-3.77947 -3.105627,-1.999144 0.02788,-2.044 3.682279,-1.356729 z m -16.097193,-1.355093 5.413259,1.967313 -1.043899,0.961347 -0.474371,4.753191 0.898192,-0.299134 0.489665,0.833018 0.499929,0.191055 -0.01248,0.126725 -3.635954,0.944369 -2.310499,-1.120046 -0.348361,-0.94439 2.64859,-1.321517 0.382006,-2.766189 0.580317,-0.61461 -0.569939,0.05583 -1.816008,-0.467824 z m 13.888025,1.367831 -1.135521,2.118312 -1.871866,0.104605 -0.548611,-0.165993 0.449264,0.716012 -0.164982,2.787565 2.340402,1.812882 -0.526422,0.858232 -2.484611,0.647776 -3.381857,-1.635552 0.01248,-0.126725 0.527595,-0.08986 0.642769,-0.721485 0.822577,0.468613 0.462529,-4.754358 -0.836809,-1.146577 z" /><path id="rect12" style="fill:#00792b;stroke-width:2.90121;paint-order:fill markers stroke" d="m 44.338937,91.763131 -1.798358,0.175461 2.76871,2.646768 -0.351752,2.690977 -1.637578,1.131683 1.222406,1.85526 2.046504,0.0941 2.025019,0.30693 1.560857,-1.581132 -1.384823,-1.42936 0.17947,-2.707944 3.231863,-2.055773 -1.729576,-0.522926 -2.441542,2.361568 -0.229297,3.050424 1.493095,1.073423 -0.972074,1.080915 -1.673528,-0.179885 -1.67698,-0.150107 -0.742523,-1.249785 1.673817,-0.761514 0.370209,-3.036546 z m 1.285675,0.253327 -0.623118,0.337425 0.444967,0.569839 0.574943,-0.264798 1.312946,0.129312 1.312433,0.129261 0.512237,0.371875 0.547585,-0.472083 -0.545317,-0.452504 -1.768081,-0.174138 z m 1.20172,1.29553 -0.491416,4.989507 0.452049,0.04452 0.451534,0.04447 0.491416,-4.989506 -0.451534,-0.04447 z m -3.065925,0.202243 -1.05214,0.871035 -0.75522,4.805148 2.188623,2.668556 2.269515,0.30246 2.284399,0.14606 2.667172,-2.19031 0.196716,-4.860159 -0.861995,-1.059558 -0.515607,0.331916 0.544322,0.852759 -0.182761,4.254509 -1.811812,1.667023 -2.223691,-0.12451 -2.205768,-0.31175 -1.451784,-1.988452 0.650752,-4.208417 0.70074,-0.730132 z m -6.175431,-0.508 -2.818016,0.864317 1.59339,0.85119 1.232523,-0.182378 2.471315,1.042547 -0.218236,4.430163 0.729415,0.83983 2.087385,0.74926 0.788516,-0.35074 -0.507377,-0.59519 -0.321669,0.11319 -1.194689,-0.44428 -0.621831,-0.624651 0.310142,-4.967893 z m 19.26838,1.897743 -3.799108,1.003435 -0.665506,4.932891 -0.731744,0.49134 -1.257894,0.20273 -0.29392,-0.17383 -0.613744,0.48478 0.704942,0.49782 2.193448,-0.32763 0.879241,-0.68139 0.650741,-4.387573 2.626704,-0.540444 1.173261,0.419325 1.728832,-0.523985 z m -22.31961,-0.91152 -1.903224,0.987128 0.298016,0.575098 1.903225,-0.987128 z m 25.119813,2.474049 -0.404485,0.50591 1.67408,1.339456 0.404999,-0.505858 z m -22.449793,-1.350658 -2.249494,0.569807 0.645757,0.429163 3.195235,1.200045 -0.02116,3.25163 0.498694,0.2563 0.365055,-4.660793 z m 19.611916,1.931577 -2.591413,0.55119 -0.551222,4.642458 0.539114,-0.15409 0.613602,-3.193276 3.367955,-0.553638 0.717074,-0.294937 z m -22.072778,-1.314045 -1.903225,0.987128 0.298067,0.574585 1.903224,-0.987128 z m 24.365884,2.399796 -0.404434,0.505395 1.674079,1.339457 0.404435,-0.505396 z" /><circle style="fill:none;fill-opacity:1;stroke:#f8a328;stroke-width:2.75836;stroke-dasharray:none;stroke-opacity:1;paint-order:fill markers stroke" id="path1-8" cx="55.973938" cy="79.449142" r="19.331739" transform="rotate(5.6249189)" /></g><path id="rect20" style="fill:#f8a328;stroke-width:3.43151;paint-order:fill markers stroke" d="m 61.148045,61.379482 29.448128,-14.728161 2.957621,3.97579 -23.646428,22.439822 -6.037484,-5.542568 z" sodipodi:nodetypes="cccccc" /><path id="rect22" style="fill:#f8a328;stroke-width:3.43151;paint-order:fill markers stroke" d="m 83.478937,51.084156 h 10.054298 l 1.561228,11.711083 -8.527101,3.912306 -3.71956,-2.384293 z" sodipodi:nodetypes="cccccc" /><path id="rect22-4" style="fill:#f8a328;stroke-width:3.43151;paint-order:fill markers stroke" d="m 89.602268,54.096393 h 10.054298 l 1.561234,11.711085 -8.527107,3.912306 -3.71956,-2.384294 z" sodipodi:nodetypes="cccccc" /><path id="rect24" style="fill:#17161b;stroke-width:3.43151;paint-order:fill markers stroke" d="M 95.094463,45.634877 111.21568,25.407868 122.17749,45.442101 102.3027,53.48077 Z" sodipodi:nodetypes="ccccc" /><path id="rect23" style="fill:#f8a328;stroke-width:3.43151;paint-order:fill markers stroke" d="m 90.830909,43.920197 7.42083,-2.766134 9.477691,11.785688 -6.51163,12.867727 -10.386891,-1.056087 z" sodipodi:nodetypes="cccccc" /><path id="rect25" style="fill:#17161b;stroke-width:2.97299;paint-order:fill markers stroke" d="M 20.840735,17.560438 40.516423,5.2343442 59.846762,12.725554 66.674685,21.770849 60.192111,55.612026 36.208758,58.89284 Z" sodipodi:nodetypes="ccccccc" /><path id="rect26" style="fill:#9f0c04;stroke-width:2.97299;paint-order:fill markers stroke" d="M 10.864789,4.7825319 15.738914,11.561265 38.377579,23.776718 32.564207,31.14416 7.9845896,31.017298 2.3461843,14.222067 Z" sodipodi:nodetypes="ccccccc" /><path id="rect27" style="fill:#9f0c04;stroke-width:2.97299;paint-order:fill markers stroke" d="m 36.420603,40.238347 4.09582,0.345348 -7.400983,12.818386 -4.026372,-4.547093 z" sodipodi:nodetypes="ccccc" /><path id="rect26-3" style="fill:#9f0c04;stroke-width:2.97299;paint-order:fill markers stroke" d="M 64.888151,-3.647046 62.591656,4.3800599 45.413131,23.527508 53.374285,28.496867 76.464883,20.070832 76.095634,2.3582653 Z" sodipodi:nodetypes="ccccccc" /><path id="rect27-5" style="fill:#9f0c04;stroke-width:2.97299;paint-order:fill markers stroke" d="m 52.818145,38.359257 -3.738132,1.709204 11.297494,9.563064 2.252798,-5.640268 z" sodipodi:nodetypes="ccccc" /><path id="rect28" style="fill:#9f0c04;stroke-width:2.97299;paint-order:fill markers stroke" d="m 45.169439,48.008694 -4.653016,-24.060107 -5.637225,-4.316055 3.905197,-4.672945 -1.902453,-3.885123 0.203493,-3.690732 3.430988,-2.1493878 2.893571,1.121364 -2.406008,4.4085778 0.291978,3.555167 5.090259,2.847935 -2.889452,5.924653 4.387914,24.31575 2.508137,-2.042173 -0.391181,6.067707 3.658433,5.072254 -7.40466,1.012924 -2.221055,-4.843687 -1.549356,-5.854602 z" sodipodi:nodetypes="cccccccccccccccccccc" /><path id="rect29" style="fill:#1ac339;fill-opacity:1;stroke:#005c16;stroke-width:1.273;stroke-dasharray:none;stroke-opacity:1;paint-order:fill markers stroke" d="M 19.947363,22.610068 32.4801,22.433771 41.747374,29.845186 40.516423,45.248631 29.861425,41.821645 15.914197,46.112003 Z" sodipodi:nodetypes="ccccccc" /><path id="rect29-1" style="fill:#1ac339;fill-opacity:1;stroke:#005c16;stroke-width:1.273;stroke-dasharray:none;stroke-opacity:1;paint-order:fill markers stroke" d="m 65.32666,22.37936 -9.157059,8.061878 -10.384844,2.97497 3.281791,10.354489 10.795265,-3.949088 12.135026,1.269746 z" sodipodi:nodetypes="ccccccc" /><path id="rect21" style="fill:#f8a328;stroke-width:3.43151;paint-order:fill markers stroke" d="M 71.996839,27.186939 88.973882,22.37936 c -2.479208,14.021165 0.0444,20.320021 9.277857,25.41516 l -7.272103,4.384729 C 80.745926,48.509303 75.547168,38.419658 71.996839,27.186939 Z" sodipodi:nodetypes="ccccc" /><path id="rect31-8" style="fill:#f8a328;stroke-width:2.073;paint-order:fill markers stroke" d="M 90.056077,70.079944 84.6729,80.792468 69.121532,73.47612 70.234177,77.759304 86.483949,90.649708 96.703703,70.933521 Z" sodipodi:nodetypes="ccccccc" /><path id="rect32" style="fill:#f8a328;stroke-width:2.073;paint-order:fill markers stroke" d="m 24.600344,70.647815 3.026535,1.986961 -2.034363,9.953451 4.651358,-5.869311 -1.635176,8.782585 -6.7109,2.022586 0.418659,-2.614348 z" sodipodi:nodetypes="cccccccc" /><path id="rect33" style="fill:#f8a328;stroke-width:2.073;paint-order:fill markers stroke" d="m 68.04171,81.521599 2.062983,-0.295248 -0.983161,-7.750231 3.120521,5.188307 -0.05114,8.673084 -4.146298,1.880094 z" sodipodi:nodetypes="ccccccc" /><path id="rect34" style="fill:#28272c;fill-opacity:1;stroke-width:2.073;paint-order:fill markers stroke" d="m 77.35092,53.515314 3.365826,0.890562 1.121408,5.085348 -4.217031,-2.978974 z" sodipodi:nodetypes="ccccc" /><path id="rect34-2" style="fill:#28272c;fill-opacity:1;stroke-width:2.073;paint-order:fill markers stroke" d="m 83.632094,59.653495 3.030808,1.948756 1.906782,3.902087 -1.287602,0.585433 -3.714803,-2.381146 z" sodipodi:nodetypes="cccccc" /><path id="rect34-2-9" style="fill:#28272c;fill-opacity:1;stroke-width:2.073;paint-order:fill markers stroke" d="m 89.483738,64.393344 2.436082,1.31853 2.568701,2.428379 -1.287602,0.585433 -3.714803,-2.381146 z" sodipodi:nodetypes="cccccc" /><path id="rect34-9" style="fill:#28272c;fill-opacity:1;stroke-width:2.073;paint-order:fill markers stroke" d="m 88.533819,36.662595 0.440063,1.683298 -3.922821,0.01336 3.255605,-3.636852 z" sodipodi:nodetypes="ccccc" /><path id="rect35" style="fill:#28272c;stroke-width:2.073;paint-order:fill markers stroke" d="m 71.996839,27.186939 8.488521,-2.40379 1.153721,14.21583 7.022916,8.619699 -3.251426,1.626166 -8.059651,-6.619702 z" sodipodi:nodetypes="ccccccc" /><path id="rect37" style="fill:#9f0c04;stroke-width:1.273;paint-order:fill markers stroke" d="m 41.137208,53.723669 -0.620785,-7.570153 2.198373,7.248565 3.097698,4.177011 -2.436799,0.22413 z" sodipodi:nodetypes="cccccc" /><path id="rect37-0" style="fill:#9f0c04;stroke-width:1.273;paint-order:fill markers stroke" d="m 52.060696,51.978369 -0.213788,-7.584956 2.218723,7.452064 3.566902,4.116688 -2.519355,0.304803 z" sodipodi:nodetypes="cccccc" /></g></svg>
