<?xml version="1.0" encoding="UTF-8" standalone="no"?>
<!-- Created with Inkscape (http://www.inkscape.org/) -->

<svg width="146.45042mm" height="146.45042mm" viewBox="0 0 146.45042 146.45042" version="1.1" id="svg1" inkscape:version="1.3 (0e150ed6c4, 2023-07-21)" sodipodi:docname="картопель.svg" xmlns:inkscape="http://www.inkscape.org/namespaces/inkscape" xmlns:sodipodi="http://sodipodi.sourceforge.net/DTD/sodipodi-0.dtd" xmlns="http://www.w3.org/2000/svg" xmlns:svg="http://www.w3.org/2000/svg">
  <sodipodi:namedview id="namedview1" pagecolor="#ffffff" bordercolor="#666666" borderopacity="1.0" inkscape:showpageshadow="2" inkscape:pageopacity="0.0" inkscape:pagecheckerboard="0" inkscape:deskcolor="#d1d1d1" inkscape:document-units="mm" inkscape:zoom="0.82394606" inkscape:cx="196.00798" inkscape:cy="475.7593" inkscape:current-layer="layer1" />
  <defs id="defs1" />
  <g inkscape:label="Layer 1" inkscape:groupmode="layer" id="layer1" transform="translate(-4.6562009,-17.995693)">
    <rect style="fill:#65c658;fill-opacity:1;stroke:none;stroke-width:29.7542;stroke-linecap:square;stroke-dasharray:none;stroke-opacity:1;paint-order:markers stroke fill" id="rect123" width="146.45042" height="146.45042" x="4.6562009" y="17.995693" inkscape:export-filename="картопель.png" inkscape:export-xdpi="449" inkscape:export-ydpi="449" />
    <path id="path86-9-9" style="fill:#441f1f;stroke:#dfe85a;stroke-width:27.495;stroke-linecap:square;stroke-dasharray:none;stroke-opacity:1;paint-order:markers stroke fill" inkscape:transform-center-x="-0.025936362" inkscape:transform-center-y="-2.8900562" d="m 51.487276,29.773966 8.495608,12.880859 -2.71767,7.4812 -2.372458,-2.60294 -0.47852,0.52555 -14.579991,15.9861 -2.164729,6.57945 c -1.10368,-0.8003 -2.356941,-1.39496 -3.80235,-1.65933 -3.48832,-0.63802 -7.34846,1.67779 -10.50789,3.93361 -3.15943,2.255801 -5.58002,4.634861 -5.58002,4.634861 l -0.10128,0.09921 -0.07028,0.12144 c 0,0 -2.41491,4.1147 -4.42609,9.203061 -2.011181,5.08835 -3.796391,11.150076 -1.940971,15.523073 0.7648,1.80254 2.367621,2.84875 4.017331,3.55896 1.64971,0.71021 3.42945,1.13889 4.8457,1.62316 1.64605,0.56284 3.31075,0.56897 4.83795,0.62683 1.52719,0.0579 2.90394,0.16461 4.04471,0.68936 4.82272,2.21845 10.56799,7.29848 15.017689,11.81634 0.157471,0.15988 0.280371,0.29854 0.434601,0.45682 l 0.75292,16.13493 13.959358,-1.58182 4.17752,1.56167 -1.4397,3.86591 9.3772,1.90428 0.11731,0.0362 0.47645,11.6551 13.54853,8.94159 21.785216,-22.11546 -19.294416,-5.81722 1.07797,-13.69063 4.05815,3.42821 -3.44268,-17.01446 19.272716,-7.40162 2.9962,-1.15032 16.24603,-9.931684 14.58619,-16.724559 -1.06453,-0.23668 -17.95911,-3.98632 -2.11305,14.07253 -7.72098,5.92108 0.008,-0.16743 3.20136,-21.08605 -0.33693,0.1602 1.24075,-2.42053 8.80825,-2.95744 -0.10904,-20.41219 5.2679,-2.90887 -3.93672,-6.42596 -3.87935,0.49041 -1.19785,-0.91002 -0.1354,-1.469679 -1.30948,-0.83871 -2.49235,3.23701 1.54977,1.380799 1.15135,-0.68472 0.61806,0.348302 -1.7446,2.742469 -0.46199,-0.43822 -0.13539,-1.46916 -1.30948,-0.83922 -2.49236,3.23701 1.54978,1.38079 1.15135,-0.68419 0.69402,0.391189 -1.64383,2.583821 -0.57619,-0.546221 -0.1354,-1.469159 -1.30948,-0.83923 -2.49235,3.23702 1.54977,1.38079 1.15136,-0.6842 0.82889,0.46716 -1.57562,2.47633 -0.85163,-0.807181 -0.13539,-1.469679 -1.30948,-0.83871 -2.49235,3.23701 1.54977,1.3808 1.15135,-0.68472 1.15446,0.65061 -2.08928,3.28404 -0.56173,-0.53279 -0.13539,-1.46967 -1.30948,-0.83871 -2.49235,3.237009 1.54977,1.38079 1.15135,-0.68419 0.81184,0.45733 -2.19676,3.45354 -0.78445,-0.74362 -0.1354,-1.46916 -1.30948,-0.83923 -2.49235,3.23753 1.54978,1.38028 1.15135,-0.6842 1.07487,0.60513 -1.80713,2.84065 0.96583,7.1267 c 0,0 -0.39365,1.34929 -0.94567,3.06906 -0.0903,0.27999 -0.17941,0.54742 -0.28267,0.85887 -0.29305,0.88187 -0.62575,1.854971 -1.01751,2.935741 -0.0165,0.04552 -0.0381,0.09887 -0.0548,0.144689 l -4.94957,2.3642 1.70222,2.85512 -15.512736,-3.183269 1.82625,11.781189 10.984336,-0.73277 c -0.11556,0.198441 -0.22556,0.403311 -0.343126,0.59893 -0.11264,0.18731 -0.22866,0.369 -0.34313,0.553461 -0.30999,0.499819 -0.62685,0.987539 -0.94981,1.46244 -0.14394,0.21145 -0.28916,0.419559 -0.43564,0.625279 -0.30761,0.43244 -0.62211,0.846471 -0.94051,1.250061 -0.15995,0.202529 -0.31899,0.40761 -0.48162,0.60203 -0.42699,0.510959 -0.86073,0.999589 -1.30535,1.446939 -0.0537,0.05396 -0.10678,0.10982 -0.16071,0.16278 -0.0704,0.06918 -0.14208,0.13257 -0.21291,0.19999 l -7.26674,1.03611 -6.55567,-14.61461 4.12223,0.83922 -1.76165,-5.33766 1.16582,0.05271 2.03192,-5.99498 5.72626,-1.117239 7.0652,-4.966631 0.914156,-10.7704 -11.200866,3.02824 -9.06714,-15.68173 z m -3.36672,36.399839 5.88026,5.05137 -0.45165,0.6966 2.16214,7.98814 1.00098,2.487191 -6.19652,-4.91494 -0.35347,0.14882 -3.18379,1.340489 0.07855,-11.27631 z m 24.506518,8.89455 0.5581,0.02532 0.77463,8.02328 -0.71572,-1.085719 -1.98592,-4.376991 -0.18449,0.148311 z m -23.531378,10.93732 0.08836,2.11873 c -0.35097,-0.38192 -0.6797,-0.8091 -1.00459,-1.244369 z m 20.116598,27.445865 0.0599,0.14882 0.91364,4.03645 0.13591,-0.41444 0.15193,3.71553 -3.13469,2.34301 -3.21583,-8.08581 z m 17.03514,17.49815 1.14153,4.73305 -1.59784,-0.48163 -0.21911,-3.18792 z" />
    <path id="path86-9" style="fill:#441f1f;stroke:#f76f27;stroke-width:14.695;stroke-linecap:square;stroke-dasharray:none;stroke-opacity:1;paint-order:markers stroke fill" inkscape:transform-center-x="-0.025936362" inkscape:transform-center-y="-2.8900562" d="m 51.487269,29.773966 8.49561,12.880859 -2.71767,7.4812 -2.37246,-2.60294 -0.47852,0.52555 -14.579991,15.9861 -2.164729,6.57945 c -1.10368,-0.8003 -2.356941,-1.39496 -3.80235,-1.65933 -3.48832,-0.63802 -7.34846,1.67779 -10.50789,3.93361 -3.15943,2.255801 -5.58002,4.634861 -5.58002,4.634861 l -0.10128,0.09921 -0.07028,0.12144 c 0,0 -2.41491,4.1147 -4.42609,9.203061 -2.011181,5.08835 -3.7963905,11.150076 -1.940971,15.523073 0.7648,1.80254 2.367621,2.84875 4.017331,3.55896 1.64971,0.71021 3.42945,1.13889 4.8457,1.62316 1.64605,0.56284 3.31075,0.56897 4.83795,0.62683 1.52719,0.0579 2.90394,0.16461 4.04471,0.68936 4.82272,2.21845 10.56799,7.29848 15.017689,11.81634 0.157471,0.15988 0.280371,0.29854 0.434601,0.45682 l 0.75292,16.13493 13.959359,-1.58182 4.17752,1.56167 -1.4397,3.86591 9.3772,1.90428 0.11731,0.0362 0.47645,11.6551 13.54853,8.94158 21.785222,-22.11545 -19.294422,-5.81722 1.07797,-13.69063 4.05815,3.42821 -3.44268,-17.01446 19.272722,-7.40162 2.9962,-1.15032 16.24603,-9.931684 14.58619,-16.724559 -1.06453,-0.23668 -17.95911,-3.98632 -2.11305,14.07253 -7.72098,5.92108 0.008,-0.16743 3.20136,-21.08605 -0.33693,0.1602 1.24075,-2.42053 8.80825,-2.95744 -0.10904,-20.41219 5.2679,-2.90887 -3.93672,-6.42596 -3.87935,0.49041 -1.19785,-0.91002 -0.1354,-1.469679 -1.30948,-0.83871 -2.49235,3.23701 1.54977,1.380799 1.15135,-0.68472 0.61806,0.348302 -1.7446,2.742469 -0.46199,-0.43822 -0.13539,-1.46916 -1.30948,-0.83922 -2.49236,3.23701 1.54978,1.38079 1.15135,-0.68419 0.69402,0.391189 -1.64383,2.583821 -0.57619,-0.546221 -0.1354,-1.469159 -1.30948,-0.83923 -2.49235,3.23702 1.54977,1.38079 1.15136,-0.6842 0.82889,0.46716 -1.57562,2.47633 -0.85163,-0.807181 -0.13539,-1.469679 -1.30948,-0.83871 -2.49235,3.23701 1.54977,1.3808 1.15135,-0.68472 1.15446,0.65061 -2.08928,3.28404 -0.56173,-0.53279 -0.13539,-1.46967 -1.30948,-0.83871 -2.49235,3.237009 1.54977,1.38079 1.15135,-0.68419 0.81184,0.45733 -2.19676,3.45354 -0.78445,-0.74362 -0.1354,-1.46916 -1.30948,-0.83923 -2.49235,3.23753 1.54978,1.38028 1.15135,-0.6842 1.07487,0.60513 -1.80713,2.84065 0.96583,7.1267 c 0,0 -0.39365,1.34929 -0.94567,3.06906 -0.0903,0.27999 -0.17941,0.54742 -0.28267,0.85887 -0.29305,0.88187 -0.62575,1.854971 -1.01751,2.935741 -0.0165,0.04552 -0.0381,0.09887 -0.0548,0.144689 l -4.94957,2.3642 1.70222,2.85512 -15.512742,-3.183269 1.82625,11.781189 10.984337,-0.73277 c -0.11556,0.198441 -0.22556,0.403311 -0.343127,0.59893 -0.11264,0.18731 -0.22866,0.369 -0.34313,0.55346 -0.30999,0.49982 -0.62685,0.98754 -0.94981,1.46244 -0.14394,0.21145 -0.28916,0.41956 -0.43564,0.62528 -0.30761,0.43244 -0.62211,0.84647 -0.94051,1.250061 -0.15995,0.202529 -0.31899,0.40761 -0.48162,0.60203 -0.42699,0.510959 -0.86073,0.999589 -1.30535,1.446939 -0.05368,0.05396 -0.10678,0.10982 -0.16071,0.16278 -0.07041,0.06918 -0.14208,0.13257 -0.21291,0.19999 l -7.26674,1.03611 -6.55567,-14.61461 4.12223,0.83922 -1.76165,-5.33766 1.16582,0.05271 2.03192,-5.99498 5.72626,-1.117239 7.0652,-4.966631 0.914157,-10.7704 -11.200867,3.02824 -9.06714,-15.68173 z m -3.36672,36.399839 5.88026,5.05137 -0.45165,0.6966 2.16214,7.98814 1.00098,2.487191 -6.19652,-4.91494 -0.35347,0.14882 -3.18379,1.340489 0.07855,-11.27631 z m 24.50652,8.89455 0.5581,0.02532 0.77463,8.02328 -0.71572,-1.085719 -1.98592,-4.376991 -0.18449,0.148311 z m -23.53138,10.93732 0.08836,2.11873 c -0.35097,-0.38192 -0.6797,-0.8091 -1.00459,-1.244369 z m 20.1166,27.445865 0.05994,0.14882 0.91364,4.03645 0.135911,-0.41444 0.15193,3.71553 -3.13469,2.34301 -3.21583,-8.08581 z m 17.035139,17.49815 1.141531,4.73305 -1.59784,-0.48163 -0.21911,-3.18792 z" />
    <path id="path86" style="fill:#441f1f;stroke:#ffaf34;stroke-width:7.495;stroke-linecap:square;stroke-dasharray:none;stroke-opacity:1;paint-order:markers stroke fill" inkscape:transform-center-x="-0.025936362" inkscape:transform-center-y="-2.8900562" d="m 51.487265,29.773968 8.49561,12.880859 -2.71767,7.4812 -2.37246,-2.60294 -0.47852,0.52555 -14.57999,15.9861 -2.16473,6.57945 c -1.10368,-0.8003 -2.35694,-1.39496 -3.80235,-1.65933 -3.48832,-0.63802 -7.34846,1.67779 -10.50789,3.93361 -3.15943,2.2558 -5.58002,4.63486 -5.58002,4.63486 l -0.10128,0.09921 -0.07028,0.12144 c 0,0 -2.41491,4.1147 -4.42609,9.20306 -2.01118,5.08835 -3.7963902,11.150077 -1.94097,15.523073 0.7648,1.80254 2.36762,2.84875 4.01733,3.55896 1.64971,0.71021 3.42945,1.13889 4.8457,1.62316 1.64605,0.56284 3.31075,0.56897 4.83795,0.62683 1.52719,0.0579 2.90394,0.16461 4.04471,0.68936 4.82272,2.21845 10.56799,7.29848 15.01769,11.81634 0.15747,0.15988 0.28037,0.29854 0.4346,0.45682 l 0.75292,16.13493 13.95936,-1.58182 4.17752,1.56167 -1.4397,3.86591 9.3772,1.90428 0.11731,0.0362 0.47645,11.6551 13.54853,8.94158 21.785225,-22.11545 -19.294425,-5.81722 1.07797,-13.69063 4.05815,3.42821 -3.44268,-17.01446 19.272725,-7.40162 2.9962,-1.15032 16.24603,-9.931683 14.58619,-16.72456 -1.06453,-0.23668 -17.95911,-3.98632 -2.11305,14.07253 -7.72098,5.92108 0.008,-0.16743 3.20136,-21.08605 -0.33693,0.1602 1.24075,-2.42053 8.80825,-2.95744 -0.10904,-20.41219 5.2679,-2.90887 -3.93672,-6.42596 -3.87935,0.49041 -1.19785,-0.91002 -0.1354,-1.469679 -1.30948,-0.83871 -2.49235,3.237009 1.54977,1.3808 1.15135,-0.68472 0.61806,0.348301 -1.7446,2.742469 -0.46199,-0.43822 -0.13539,-1.46916 -1.30948,-0.83922 -2.49236,3.23701 1.54978,1.38079 1.15135,-0.68419 0.69402,0.39119 -1.64383,2.58382 -0.57619,-0.54622 -0.1354,-1.46916 -1.30948,-0.83923 -2.49235,3.23702 1.54977,1.38079 1.15136,-0.6842 0.82889,0.46716 -1.57562,2.47633 -0.85163,-0.80718 -0.13539,-1.46968 -1.30948,-0.83871 -2.49235,3.23701 1.54977,1.3808 1.15135,-0.68472 1.15446,0.65061 -2.08928,3.28404 -0.56173,-0.53279 -0.13539,-1.46967 -1.30948,-0.83871 -2.49235,3.23701 1.54977,1.38079 1.15135,-0.68419 0.81184,0.45733 -2.19676,3.45354 -0.78445,-0.74362 -0.1354,-1.46916 -1.30948,-0.83923 -2.49235,3.23753 1.54978,1.38028 1.15135,-0.6842 1.07487,0.60513 -1.80713,2.84065 0.96583,7.1267 c 0,0 -0.39365,1.34929 -0.94567,3.06906 -0.0903,0.27999 -0.17941,0.54742 -0.28267,0.85887 -0.29305,0.88187 -0.62575,1.85497 -1.01751,2.93574 -0.0165,0.04552 -0.0381,0.09887 -0.0548,0.14469 l -4.94957,2.3642 1.70222,2.85512 -15.512745,-3.18327 1.82625,11.78119 10.984337,-0.73277 c -0.11556,0.19844 -0.22556,0.40331 -0.343127,0.59893 -0.11264,0.18731 -0.22866,0.369 -0.34313,0.55346 -0.30999,0.49982 -0.62685,0.98754 -0.94981,1.46244 -0.14394,0.21145 -0.28916,0.41956 -0.43564,0.62528 -0.30761,0.43244 -0.62211,0.84647 -0.94051,1.25006 -0.15995,0.20253 -0.31899,0.40761 -0.48162,0.60203 -0.42699,0.51096 -0.86073,0.99959 -1.30535,1.44694 -0.05368,0.05396 -0.10678,0.10982 -0.16071,0.16278 -0.07041,0.06918 -0.14208,0.13257 -0.21291,0.19999 l -7.26674,1.03611 -6.55567,-14.61461 4.12223,0.83922 -1.76165,-5.33766 1.16582,0.05271 2.03192,-5.99498 5.72626,-1.11724 7.0652,-4.96663 0.914157,-10.7704 -11.200867,3.02824 -9.06714,-15.68173 z m -3.36672,36.399839 5.88026,5.05137 -0.45165,0.6966 2.16214,7.98814 1.00098,2.48719 -6.19652,-4.91494 -0.35347,0.14882 -3.18379,1.34049 0.07855,-11.27631 z m 24.50652,8.89455 0.5581,0.02532 0.77463,8.02328 -0.71572,-1.08572 -1.98592,-4.37699 -0.18449,0.14831 z m -23.53138,10.93732 0.08836,2.11873 c -0.35097,-0.38192 -0.6797,-0.8091 -1.00459,-1.24437 z m 20.1166,27.445863 0.05994,0.14882 0.91364,4.03645 0.13591,-0.41444 0.15193,3.71553 -3.13469,2.34301 -3.21583,-8.08581 z m 17.03514,17.49815 1.14153,4.73305 -1.59784,-0.48163 -0.21911,-3.18792 z" />
    <path id="path24" style="fill:#441f1f;stroke-width:1.295;stroke-linecap:square;paint-order:markers stroke fill" inkscape:transform-center-x="-0.025936362" inkscape:transform-center-y="-2.8900562" d="M 90.555077,59.888376 52.233435,63.992191 59.983166,42.654761 51.487451,29.77406 79.091071,40.061858 Z" sodipodi:nodetypes="cccccc" />
    <path id="path23" style="fill:#582828;fill-opacity:1;stroke-width:1.295;stroke-linecap:square;paint-order:markers stroke fill" inkscape:transform-center-x="-1.856025" inkscape:transform-center-y="-0.3143744" d="M 64.161065,49.01274 86.851862,56.096806 99.359184,52.715552 98.445047,63.485528 91.379699,68.452504 58.290854,74.909916 43.377772,62.098651 Z" sodipodi:nodetypes="cccccccc" />
    <path id="path25" style="fill:#2d1010;fill-opacity:1;stroke-width:1.295;stroke-linecap:square;paint-order:markers stroke fill" inkscape:transform-center-x="-0.14931951" inkscape:transform-center-y="1.2204694" d="M 88.157684,58.525804 96.558899,56.49798 93.229823,64.997058 74.008125,73.291345 59.432078,73.369255 50.5366,63.514851 67.99752,53.534164 Z" sodipodi:nodetypes="cccccccc" />
    <path id="path15-0" style="fill:#968a7d;stroke-width:0.695;stroke-linecap:square;paint-order:markers stroke fill" inkscape:transform-center-x="0.32149541" inkscape:transform-center-y="0.043078758" d="m 112.63914,50.447921 -0.61665,1.631606 -1.51013,-0.850685 -1.15125,0.684251 -1.54974,-1.380624 2.49226,-3.237199 1.30957,0.83906 0.13535,1.469364 z" sodipodi:nodetypes="ccccccccc" />
    <path id="path15-0-1" style="fill:#968a7d;stroke-width:0.695;stroke-linecap:square;paint-order:markers stroke fill" inkscape:transform-center-x="0.32149443" inkscape:transform-center-y="0.043078521" d="m 115.37181,45.421328 -0.61666,1.631605 -1.51013,-0.850685 -1.15125,0.684251 -1.54974,-1.380623 2.49227,-3.237199 1.30956,0.83906 0.13536,1.469364 z" sodipodi:nodetypes="ccccccccc" />
    <path id="path15-0-4" style="fill:#968a7d;stroke-width:0.695;stroke-linecap:square;paint-order:markers stroke fill" inkscape:transform-center-x="0.32149067" inkscape:transform-center-y="0.04307917" d="m 118.20644,41.660083 -0.61665,1.631607 -1.51014,-0.850685 -1.15125,0.684251 -1.54973,-1.380624 2.49226,-3.237199 1.30957,0.83906 0.13535,1.469364 z" sodipodi:nodetypes="ccccccccc" />
    <path id="path15-0-16" style="fill:#968a7d;stroke-width:0.695;stroke-linecap:square;paint-order:markers stroke fill" inkscape:transform-center-x="0.32149254" inkscape:transform-center-y="0.04307747" d="m 120.96852,37.605972 -0.61666,1.631603 -1.51013,-0.850683 -1.15125,0.684251 -1.54973,-1.380623 2.49226,-3.237199 1.30956,0.839059 0.13536,1.469365 z" sodipodi:nodetypes="ccccccccc" />
    <path id="path15-0-06" style="fill:#968a7d;stroke-width:0.695;stroke-linecap:square;paint-order:markers stroke fill" inkscape:transform-center-x="0.3742307" inkscape:transform-center-y="-0.15615554" d="m 124.99268,34.072499 -1.81647,0.887621 -1.51013,-0.850686 -1.15125,0.684252 -1.54974,-1.380625 2.49227,-3.237198 1.30957,0.839061 0.13534,1.469362 z" sodipodi:nodetypes="ccccccccc" />
    <path id="path15-0-0" style="fill:#968a7d;stroke-width:0.695;stroke-linecap:square;paint-order:markers stroke fill" inkscape:transform-center-x="0.3214919" inkscape:transform-center-y="0.043078648" d="m 109.23364,55.240751 -0.61666,1.631606 -1.51013,-0.850685 -1.15125,0.684251 -1.54974,-1.380624 2.49227,-3.237199 1.30956,0.83906 0.13536,1.469365 z" sodipodi:nodetypes="ccccccccc" />
    <path id="path11" style="fill:#cd7944;fill-opacity:1;stroke:#87533e;stroke-width:1.295;stroke-linecap:square;stroke-opacity:1;paint-order:markers stroke fill" inkscape:transform-center-x="1.2673998" inkscape:transform-center-y="-3.9719013" d="m 58.962587,72.110309 32.180907,33.142931 -27.871698,9.55029 7.565237,19.02622 -25.029728,2.83661 -1.696403,-36.33101 25.926972,0.11437 z" sodipodi:nodetypes="cccccccc" />
    <path id="path6" style="fill:#cd7944;fill-opacity:1;stroke:#87533e;stroke-width:1.295;stroke-linecap:square;stroke-opacity:1;paint-order:markers stroke fill" inkscape:transform-center-x="-10.104492" inkscape:transform-center-y="1.3779207" d="m 141.4898,73.747249 -17.28162,-3.835719 -2.04862,13.645207 -10.66664,8.179705 -25.232635,3.597835 -13.342103,-29.744085 4.530849,46.940238 31.149889,-11.96308 6.5e-4,-3.4e-4 2.97463,-1.142392 16.11184,-9.849143 z" sodipodi:nodetypes="cccccccccccc" />
    <path id="path1" style="fill:#d28b4a;fill-opacity:1;stroke:#87533e;stroke-width:1.28655;stroke-linecap:square;stroke-opacity:1;paint-order:markers stroke fill" inkscape:transform-center-x="0.67433945" inkscape:transform-center-y="0.74756463" d="m 76.394492,57.662869 -16.053563,4.96797 -6.096155,9.399543 2.078532,7.674188 14.590041,36.25105 1.57561,38.51647 12.832167,8.46942 20.665906,-20.97945 -20.806942,-6.27351 -1.947432,-28.31443 -21.49826,-26.017714 5.395795,2.087549 5.131775,-9.036931 10.906056,0.492186 3.160125,-9.321665 z" sodipodi:nodetypes="cccccccccccccccc" />
    <path id="rect2" style="fill:#e3b482;stroke-width:1.39833;stroke-linecap:square;paint-order:markers stroke fill" d="m 43.899807,96.995678 c 0,0 14.828207,4.896632 22.480239,4.690712 9.041062,-0.24329 19.795259,-2.071055 26.224446,-6.962636 8.809798,-6.70283 14.736298,-28.129855 14.736298,-28.129855 l -0.96618,-7.126656 16.48638,-25.916132 5.11843,-0.647156 3.93689,6.426253 -5.26763,2.908769 0.10906,20.41231 -8.80864,2.957475 -3.45465,6.740855 c 0,0 -6.55296,20.725257 -14.37021,27.495433 -8.436098,7.30614 -22.411076,10.89432 -33.542248,11.69708 -10.062548,0.72569 -27.737089,-6.42968 -27.737089,-6.42968 z" sodipodi:nodetypes="csscccccccccsscc" />
    <path id="path22" style="fill:#878787;stroke-width:1.295;stroke-linecap:square;paint-order:markers stroke fill" inkscape:transform-center-x="-0.22706338" inkscape:transform-center-y="0.65484638" d="m 63.861807,113.98624 -1.429617,-32.564057 -2.030928,-7.054572 5.272575,5.971086 5.054478,7.417552 18.749615,28.025441 -1.694929,21.5336 -1.535394,-6.36532 -11.365721,17.8865 -1.65516,-7.76931 -15.624743,-5.84163 12.215872,-10.28011 7.256331,-10.58525 -4.005751,2.80882 -2.690173,-20.230477 z" sodipodi:nodetypes="cccccccccccccccc" />
    <path id="path21" style="fill:#b0b0b0;fill-opacity:1;stroke:#878787;stroke-width:1.295;stroke-linecap:square;stroke-opacity:1;paint-order:markers stroke fill" inkscape:transform-center-x="-3.5206456" inkscape:transform-center-y="-2.1639344" d="m 72.677878,82.348961 4.420595,6.70877 2.706984,2.120537 7.795052,10.801492 4.431574,21.89898 -4.468105,-3.77393 -0.657953,3.0127 -8.970736,21.39929 -6.508699,-2.00754 -8.665521,-1.76062 2.860871,-7.68276 -4.455415,-4.36372 15.197779,-11.35815 -0.932827,-14.41209 -0.346704,-2.30806 -4.783498,14.58534 -5.765916,-25.469512 -0.972032,-7.197109 -3.141022,-3.685694 -0.957656,-6.647603 7.043872,10.095661 4.505735,-3.622799 z" sodipodi:nodetypes="ccccccccccccccccccccccc" />
    <path id="path2" style="fill:#301e44;stroke:#0b0c20;stroke-width:2.12175;stroke-linecap:square;stroke-opacity:1;paint-order:markers stroke fill" inkscape:transform-center-x="2.1433526" inkscape:transform-center-y="0.26494806" d="m 33.677342,70.008905 c 9.297018,1.70046 9.682748,18.012973 18.458102,21.522854 4.900245,1.959959 15.752423,-1.595516 15.752423,-1.595516 l 8.894654,6.9711 -12.749773,1.426649 -13.043937,9.110978 -0.737978,7.01073 5.276594,8.94134 -3.061844,5.18325 c 0,0 -12.869742,-15.88942 -23.035284,-20.56556 -2.751341,-1.26561 -6.117981,-0.37684 -8.983564,-1.35669 -2.97223,-1.01631 -7.001778,-1.70095 -8.228686,-4.59261 -3.2024408,-7.547759 6.304441,-23.775474 6.304441,-23.775474 0,0 9.492198,-9.31677 15.154852,-8.281051 z" sodipodi:nodetypes="sscccccccssscs" />
    <path id="rect2-7" style="fill:#b4a79b;fill-opacity:1;stroke-width:1.39833;stroke-linecap:square;paint-order:markers stroke fill" d="m 106.96504,67.857465 c -1.38671,4.581894 -6.79625,21.110762 -14.360435,26.865884 -6.429162,4.891573 -17.183372,6.719741 -26.224416,6.963031 -7.652024,0.20591 -13.959978,-3.181314 -13.959978,-3.181314 l -4.061318,3.398734 -1.560821,5.88811 c 0,0 9.721382,4.47591 19.78392,3.75022 11.131156,-0.80276 25.516544,-3.7912 33.952638,-11.09733 7.81724,-6.77017 13.95972,-28.09572 13.95972,-28.09572 l 0.97224,-1.89631 z" sodipodi:nodetypes="csscccssccc" />
    <path id="path15" style="fill:#1b1233;stroke:#e2e2e2;stroke-width:0.695;stroke-linecap:square;paint-order:markers stroke fill" inkscape:transform-center-x="-0.021339165" inkscape:transform-center-y="0.74214895" d="m 48.309932,110.34824 0.580404,7.23447 3.574442,6.52529 -5.900568,-5.00565 -11.672254,-13.47692 -10.565084,-1.00133 -8.365056,-5.238212 11.028241,-5.739903 8.962566,-7.949317 11.785361,10.255751 10.626659,-0.221661 -4.66517,4.017561 z" sodipodi:nodetypes="ccccccccccccc" />
    <path style="fill:none;fill-opacity:1;stroke:#e2e2e2;stroke-width:0.695;stroke-linecap:square;stroke-dasharray:none;stroke-opacity:1;paint-order:markers stroke fill" d="m 33.633432,90.518518 20.179237,9.948772 7.498067,2.64092 11.883415,-0.63208 12.641765,-2.689135 8.771908,-4.728304 10.521156,-13.21924 6.34182,-24.353237" id="path13" sodipodi:nodetypes="cccccccc" />
    <path style="fill:none;fill-opacity:1;stroke:#e2e2e2;stroke-width:0.695;stroke-linecap:square;stroke-dasharray:none;stroke-opacity:1;paint-order:markers stroke fill" d="m 33.147136,91.561589 20.76141,10.698491 6.846783,2.6675 12.596987,-1.16484 12.77577,-2.43534 9.558833,-5.137405 8.394101,-10.121157 10.27674,-32.248653" id="path13-3" sodipodi:nodetypes="cccccccc" />
    <path style="fill:none;fill-opacity:1;stroke:#e2e2e2;stroke-width:0.695;stroke-linecap:square;stroke-dasharray:none;stroke-opacity:1;paint-order:markers stroke fill" d="m 32.253927,92.77811 21.127013,10.73219 6.764866,2.80434 12.793332,-1.40165 13.362825,-2.29775 10.354214,-5.446506 8.080853,-9.749196 12.64259,-37.691816" id="path13-3-7" sodipodi:nodetypes="cccccccc" />
    <path style="fill:none;fill-opacity:1;stroke:#e2e2e2;stroke-width:0.695;stroke-linecap:square;stroke-dasharray:none;stroke-opacity:1;paint-order:markers stroke fill" d="m 30.868021,93.665758 22.176491,11.104762 6.882056,2.87187 13.361115,-1.54309 13.505732,-2.095 10.881707,-5.870866 8.885878,-10.549632 13.35008,-42.039307" id="path13-3-7-3" sodipodi:nodetypes="cccccccc" />
    <path style="fill:none;fill-opacity:1;stroke:#e2e2e2;stroke-width:0.695;stroke-linecap:square;stroke-dasharray:none;stroke-opacity:1;paint-order:markers stroke fill" d="m 29.277666,94.338591 23.210246,11.798219 7.080035,2.68033 13.983225,-1.32473 13.304578,-2.13888 12.13983,-6.393377 8.91067,-11.493218 14.48929,-45.155438" id="path13-3-7-3-9" sodipodi:nodetypes="cccccccc" />
    <path style="fill:none;fill-opacity:1;stroke:#e2e2e2;stroke-width:0.695;stroke-linecap:square;stroke-dasharray:none;stroke-opacity:1;paint-order:markers stroke fill" d="m 27.249881,95.202349 24.407653,12.263411 7.529551,2.49067 14.307549,-0.92896 13.708635,-2.49036 12.47759,-6.52767 8.653761,-10.651687 17.05697,-51.46978" id="path13-3-7-3-9-5" sodipodi:nodetypes="cccccccc" />
    <path id="path4" style="fill:#d28b4a;stroke:#87533e;stroke-width:1.295;stroke-linecap:square;stroke-opacity:1;paint-order:markers stroke fill" inkscape:transform-center-y="-1.4630263" d="m 50.414887,78.22782 13.925791,11.045508 -14.132799,7.806766 -0.524498,-12.529971 -3.412613,3.255875 -2.669324,-6.70882 z" sodipodi:nodetypes="ccccccc" inkscape:transform-center-x="-1.2002571" />
    <path id="path16" style="fill:#ffda48;fill-opacity:1;stroke:#4d4d4d;stroke-width:1.52043;stroke-linecap:square;stroke-dasharray:none;stroke-opacity:1;paint-order:markers stroke fill" inkscape:transform-center-x="1.4829719" inkscape:transform-center-y="0.24009321" d="M 26.00267,80.329546 24.627451,92.504767 16.578756,86.278489 Z" sodipodi:nodetypes="cccc" />
    <path id="path18" style="fill:#4d4d4d;stroke-width:1.52043;stroke-linecap:square;paint-order:markers stroke fill" inkscape:transform-center-x="0.11197073" inkscape:transform-center-y="0.15345431" d="m 21.4787,87.555752 0.837904,0.211867 -0.55638,2.156629 -2.719524,-2.262156 2.048497,-0.779896 z" sodipodi:nodetypes="cccccc" />
    <path id="path18-9" style="fill:#4d4d4d;stroke-width:1.52043;stroke-linecap:square;paint-order:markers stroke fill" inkscape:transform-center-x="0.36487656" inkscape:transform-center-y="0.089675826" d="m 21.856099,85.257468 -0.50137,0.703986 -1.80794,-1.300756 3.094534,-1.713772 -0.01626,2.191873 z" sodipodi:nodetypes="cccccc" />
    <path id="path7" style="fill:#d28b4a;stroke:#87533e;stroke-width:1.295;stroke-linecap:square;stroke-opacity:1;paint-order:markers stroke fill" inkscape:transform-center-x="1.3343077" inkscape:transform-center-y="0.5190463" d="m 116.22173,68.979309 -15.21088,7.265959 4.18227,7.013183 3.74194,1.14232 -4.74813,6.366063 5.69792,7.192433 2.49591,-3.675831 0.8072,-5.141525 0.0113,-0.24941 z" sodipodi:nodetypes="cccccccccc" />
    <path id="path26-8-5-5-6" style="fill:#de995a;stroke-width:3.42792;stroke-linecap:square;paint-order:markers stroke fill" inkscape:transform-center-x="1.5128765" inkscape:transform-center-y="0.01026466" d="m 115.42275,69.897594 -2.3524,16.807975 -1.83539,-5.512652 -0.98853,2.24807 -6.43067,-3.206524 -1.91723,-3.894858 z" sodipodi:nodetypes="ccccccc" />
    <path id="path10" style="fill:#d28b4a;stroke:#87533e;stroke-width:1.295;stroke-linecap:square;stroke-opacity:1;paint-order:markers stroke fill" inkscape:transform-center-x="-1.6013944" inkscape:transform-center-y="2.4909575" d="m 107.88058,95.095858 -8.386224,-9.084756 -10.838513,0.724116 -1.593524,-10.274792 16.039601,3.291438 6.81806,9.582809 z" sodipodi:nodetypes="ccccccc" />
    <path id="path12" style="fill:#d28b4a;stroke-width:1.295;stroke-linecap:square;paint-order:markers stroke fill" inkscape:transform-center-x="-1.3841966" inkscape:transform-center-y="-0.031180548" d="m 109.8855,99.040661 -4.34617,-4.521451 -0.0998,-9.400766 6.61545,6.187013 2.48879,-1.841973 -0.29221,3.778453 z" sodipodi:nodetypes="ccccccc" />
    <path sodipodi:type="star" style="fill:#826e5a;fill-opacity:1;stroke:none;stroke-width:0.695;stroke-linecap:square;stroke-dasharray:none;stroke-opacity:1;paint-order:markers stroke fill" id="path14" inkscape:flatsided="true" sodipodi:sides="5" sodipodi:cx="98.382309" sodipodi:cy="35.523602" sodipodi:r1="2.320128" sodipodi:r2="1.160064" sodipodi:arg1="1.0471976" sodipodi:arg2="1.6755161" inkscape:rounded="0" inkscape:randomized="0" d="M 99.542373,37.532891 96.82984,37.247793 96.262767,34.57992 98.624828,33.216183 100.65174,35.04122 Z" inkscape:transform-center-x="0.50838678" transform="rotate(16.976093,32.338222,89.297003)" inkscape:transform-center-y="0.0135234" />
    <path sodipodi:type="star" style="fill:#826e5a;fill-opacity:1;stroke:none;stroke-width:0.695;stroke-linecap:square;stroke-dasharray:none;stroke-opacity:1;paint-order:markers stroke fill" id="path14-0" inkscape:flatsided="true" sodipodi:sides="5" sodipodi:cx="98.382309" sodipodi:cy="35.523602" sodipodi:r1="2.320128" sodipodi:r2="1.160064" sodipodi:arg1="1.0471976" sodipodi:arg2="1.6755161" inkscape:rounded="0" inkscape:randomized="0" d="M 99.542373,37.532891 96.82984,37.247793 96.262767,34.57992 98.624828,33.216183 100.65174,35.04122 Z" inkscape:transform-center-x="0.69520136" transform="rotate(51.946489,88.47703,60.500512)" inkscape:transform-center-y="-0.47321293" />
    <path sodipodi:type="star" style="fill:#826e5a;fill-opacity:1;stroke:none;stroke-width:0.695;stroke-linecap:square;stroke-dasharray:none;stroke-opacity:1;paint-order:markers stroke fill" id="path14-00" inkscape:flatsided="true" sodipodi:sides="5" sodipodi:cx="98.382309" sodipodi:cy="35.523602" sodipodi:r1="2.320128" sodipodi:r2="1.160064" sodipodi:arg1="1.0471976" sodipodi:arg2="1.6755161" inkscape:rounded="0" inkscape:randomized="0" d="M 99.542373,37.532891 96.82984,37.247793 96.262767,34.57992 98.624828,33.216183 100.65174,35.04122 Z" inkscape:transform-center-x="0.25716092" transform="rotate(-24.002261,138.73361,-2.4936412)" inkscape:transform-center-y="0.021729284" />
    <path sodipodi:type="star" style="fill:#826e5a;fill-opacity:1;stroke:none;stroke-width:0.695;stroke-linecap:square;stroke-dasharray:none;stroke-opacity:1;paint-order:markers stroke fill" id="path14-5" inkscape:flatsided="true" sodipodi:sides="5" sodipodi:cx="98.382309" sodipodi:cy="35.523602" sodipodi:r1="2.320128" sodipodi:r2="1.160064" sodipodi:arg1="1.0471976" sodipodi:arg2="1.6755161" inkscape:rounded="0" inkscape:randomized="0" d="M 99.542373,37.532891 96.82984,37.247793 96.262767,34.57992 98.624828,33.216183 100.65174,35.04122 Z" inkscape:transform-center-x="0.50838651" transform="rotate(16.976093,78.948271,111.75768)" inkscape:transform-center-y="0.013523541" />
    <path sodipodi:type="star" style="fill:#826e5a;fill-opacity:1;stroke:none;stroke-width:0.695;stroke-linecap:square;stroke-dasharray:none;stroke-opacity:1;paint-order:markers stroke fill" id="path14-3" inkscape:flatsided="true" sodipodi:sides="5" sodipodi:cx="98.382309" sodipodi:cy="35.523602" sodipodi:r1="2.320128" sodipodi:r2="1.160064" sodipodi:arg1="1.0471976" sodipodi:arg2="1.6755161" inkscape:rounded="0" inkscape:randomized="0" d="M 99.542373,37.532891 96.82984,37.247793 96.262767,34.57992 98.624828,33.216183 100.65174,35.04122 Z" inkscape:transform-center-x="-0.62502924" transform="rotate(149.1755,109.94802,41.307854)" inkscape:transform-center-y="-0.54882025" />
    <path sodipodi:type="star" style="fill:#826e5a;fill-opacity:1;stroke:none;stroke-width:0.695;stroke-linecap:square;stroke-dasharray:none;stroke-opacity:1;paint-order:markers stroke fill" id="path14-1" inkscape:flatsided="true" sodipodi:sides="5" sodipodi:cx="98.382309" sodipodi:cy="35.523602" sodipodi:r1="2.320128" sodipodi:r2="1.160064" sodipodi:arg1="1.0471976" sodipodi:arg2="1.6755161" inkscape:rounded="0" inkscape:randomized="0" d="M 99.542373,37.532891 96.82984,37.247793 96.262767,34.57992 98.624828,33.216183 100.65174,35.04122 Z" inkscape:transform-center-x="0.50838764" transform="rotate(16.976093,109.69245,128.70193)" inkscape:transform-center-y="0.013521927" />
    <path id="path18-9-0" style="fill:#4d4d4d;stroke-width:1.52043;stroke-linecap:square;paint-order:markers stroke fill" inkscape:transform-center-x="0.37425402" inkscape:transform-center-y="0.053208568" d="m 23.484443,86.523435 -0.473141,0.805811 1.921809,1.103983 0.201014,-3.531677 -1.685238,0.722869 z" sodipodi:nodetypes="cccccc" />
    <path id="path19" style="fill:#4d4d4d;stroke-width:1.52043;stroke-linecap:square;paint-order:markers stroke fill" inkscape:transform-center-x="0.040991346" inkscape:transform-center-y="-0.058653709" d="m 22.901626,85.66786 0.367899,0.802361 -0.646475,0.921011 -0.958789,-0.107513 -0.352722,-0.848744 0.683169,-0.867445 z" sodipodi:nodetypes="ccccccc" />
    <path id="path3" style="fill:#d28b4a;stroke:#87533e;stroke-width:1.295;stroke-linecap:square;stroke-opacity:1;paint-order:markers stroke fill" inkscape:transform-center-x="0.26415877" inkscape:transform-center-y="1.37102" d="m 54.892134,48.493926 -14.485763,15.885317 -6.231491,18.938418 -2.92e-4,9.56e-4 -4.522103,7.314142 -10.492324,-3.438612 0.378735,11.938084 15.340901,-4.272409 5.501954,-9.238925 0.07029,0.02637 0.995228,12.184095 -11.768401,6.637048 9.899202,6.68418 8.070964,-13.323386 -1.34812,-14.371466 0.110029,-15.969234 8.323637,-11.906823 11.86318,9.654475 0.891967,-2.921852 z" sodipodi:nodetypes="cccccccccccccccccccc" />
    <path id="path20" style="fill:#ffffff;fill-opacity:1;stroke:#87533e;stroke-width:1.295;stroke-linecap:square;stroke-opacity:1;paint-order:markers stroke fill" inkscape:transform-center-x="-0.31240699" inkscape:transform-center-y="-0.72962997" d="m 65.514367,68.622452 0.913767,-6.671215 5.350515,3.552298 1.554276,4.710422 z" sodipodi:nodetypes="ccccc" />
    <path id="path20-6" style="fill:#ffffff;fill-opacity:1;stroke:#87533e;stroke-width:1.295;stroke-linecap:square;stroke-opacity:1;paint-order:markers stroke fill" inkscape:transform-center-x="-0.3124068" inkscape:transform-center-y="-0.72963031" d="m 75.433573,78.401391 0.913767,-6.671215 5.350515,3.552298 1.554276,4.710421 z" sodipodi:nodetypes="ccccc" />
    <path sodipodi:type="star" style="fill:#87533e;fill-opacity:1;stroke:none;stroke-width:1.295;stroke-linecap:square;stroke-dasharray:none;stroke-opacity:1;paint-order:markers stroke fill" id="path26" inkscape:flatsided="true" sodipodi:sides="3" sodipodi:cx="41.950111" sodipodi:cy="65.536407" sodipodi:r1="1.2721804" sodipodi:r2="0.63609022" sodipodi:arg1="0.67474094" sodipodi:arg2="1.7219385" inkscape:rounded="0" inkscape:randomized="0" d="M 42.943517,66.331132 40.765156,65.99936 42.14166,64.27873 Z" inkscape:transform-center-x="0.095774957" inkscape:transform-center-y="-0.23147703" transform="translate(-0.16055865,0.10034916)" />
    <path sodipodi:type="star" style="fill:#87533e;fill-opacity:1;stroke:none;stroke-width:1.295;stroke-linecap:square;stroke-dasharray:none;stroke-opacity:1;paint-order:markers stroke fill" id="path26-84" inkscape:flatsided="true" sodipodi:sides="3" sodipodi:cx="41.950111" sodipodi:cy="65.536407" sodipodi:r1="1.2721804" sodipodi:r2="0.63609022" sodipodi:arg1="0.67474094" sodipodi:arg2="1.7219385" inkscape:rounded="0" inkscape:randomized="0" d="M 42.943517,66.331132 40.765156,65.99936 42.14166,64.27873 Z" inkscape:transform-center-x="0.072360953" inkscape:transform-center-y="-0.17488865" transform="matrix(0.75553241,0,0,0.75553241,11.068654,18.451521)" />
    <path sodipodi:type="star" style="fill:#87533e;fill-opacity:1;stroke:none;stroke-width:1.295;stroke-linecap:square;stroke-dasharray:none;stroke-opacity:1;paint-order:markers stroke fill" id="path26-8" inkscape:flatsided="true" sodipodi:sides="3" sodipodi:cx="41.950111" sodipodi:cy="65.536407" sodipodi:r1="1.2721804" sodipodi:r2="0.63609022" sodipodi:arg1="0.67474094" sodipodi:arg2="1.7219385" inkscape:rounded="0" inkscape:randomized="0" d="M 42.943517,66.331132 40.765156,65.99936 42.14166,64.27873 Z" inkscape:transform-center-x="-0.12547363" inkscape:transform-center-y="0.4525048" transform="matrix(0.9481987,1.5010008,-1.5010008,0.9481987,102.58822,-61.126993)" />
    <path sodipodi:type="star" style="fill:#de995a;fill-opacity:1;stroke:none;stroke-width:1.295;stroke-linecap:square;stroke-dasharray:none;stroke-opacity:1;paint-order:markers stroke fill" id="path26-9" inkscape:flatsided="true" sodipodi:sides="3" sodipodi:cx="41.950111" sodipodi:cy="65.536407" sodipodi:r1="1.2721804" sodipodi:r2="0.63609022" sodipodi:arg1="0.67474094" sodipodi:arg2="1.7219385" inkscape:rounded="0" inkscape:randomized="0" d="M 42.943517,66.331132 40.765156,65.99936 42.14166,64.27873 Z" inkscape:transform-center-x="0.30905965" inkscape:transform-center-y="-0.18064593" transform="matrix(-0.96550923,1.136098,-1.136098,-0.96550923,197.37211,80.492838)" />
    <path sodipodi:type="star" style="fill:#de995a;fill-opacity:1;stroke:none;stroke-width:1.295;stroke-linecap:square;stroke-dasharray:none;stroke-opacity:1;paint-order:markers stroke fill" id="path26-84-4" inkscape:flatsided="true" sodipodi:sides="3" sodipodi:cx="41.950111" sodipodi:cy="65.536407" sodipodi:r1="1.2721804" sodipodi:r2="0.63609022" sodipodi:arg1="0.67474094" sodipodi:arg2="1.7219385" inkscape:rounded="0" inkscape:randomized="0" d="M 42.943517,66.331132 40.765156,65.99936 42.14166,64.27873 Z" inkscape:transform-center-x="0.23350455" inkscape:transform-center-y="-0.1364835" transform="matrix(-0.72947358,0.8583588,-0.8583588,-0.72947358,165.68147,75.532105)" />
    <path sodipodi:type="star" style="fill:#de995a;fill-opacity:1;stroke:none;stroke-width:1.295;stroke-linecap:square;stroke-dasharray:none;stroke-opacity:1;paint-order:markers stroke fill" id="path26-8-5" inkscape:flatsided="true" sodipodi:sides="3" sodipodi:cx="41.950111" sodipodi:cy="65.536407" sodipodi:r1="1.2721804" sodipodi:r2="0.63609022" sodipodi:arg1="0.67474094" sodipodi:arg2="1.7219385" inkscape:rounded="0" inkscape:randomized="0" d="M 42.943517,66.331132 40.765156,65.99936 42.14166,64.27873 Z" inkscape:transform-center-x="-0.48492349" inkscape:transform-center-y="0.38626066" transform="matrix(-2.6207786,-0.37198369,0.37198369,-2.6207786,167.72747,256.34108)" />
    <path id="path26-8-5-5" style="fill:#de995a;stroke-width:1.295;stroke-linecap:square;paint-order:markers stroke fill" inkscape:transform-center-x="-0.48492349" inkscape:transform-center-y="0.38626066" transform="matrix(-2.6207786,-0.37198369,0.37198369,-2.6207786,176.16325,267.77032)" d="m 43.058582,66.5314 -5.309707,-0.34218 2.109896,-0.465337 -1.3301,-0.680087 2.544412,-1.429284 1.151245,-0.203085 z" sodipodi:nodetypes="ccccccc" />
    <path id="path26-8-5-5-65" style="fill:#de995a;stroke-width:3.42792;stroke-linecap:square;paint-order:markers stroke fill" inkscape:transform-center-x="-0.48492349" inkscape:transform-center-y="0.38626066" d="m 19.80197,88.180317 7.373718,2.162328 2.755473,2.251211 -4.913011,1.567558 8.013291,0.528714 -13.026762,3.822174 z" sodipodi:nodetypes="ccccccc" />
    <path id="path26-8-5-5-65-9" style="fill:#de995a;stroke-width:3.42792;stroke-linecap:square;paint-order:markers stroke fill" inkscape:transform-center-x="0.89333251" inkscape:transform-center-y="1.8033397" d="m 30.845855,104.46033 7.439983,-4.17803 3.447699,-0.816679 -2.562832,4.397609 7.409018,-6.034862 -7.115622,12.666532 z" sodipodi:nodetypes="ccccccc" />
    <path id="path26-8-5-5-65-9-6" style="fill:#de995a;stroke-width:3.42792;stroke-linecap:square;paint-order:markers stroke fill" inkscape:transform-center-x="-1.931389" inkscape:transform-center-y="0.1024242" d="m 50.790981,95.912186 -0.496635,-8.600341 1.120751,-3.106687 3.901096,4.401949 -2.240672,-7.122068 10.362396,7.583126 z" sodipodi:nodetypes="ccccccc" />
    <path id="path27" style="fill:#878787;stroke-width:1.295;stroke-linecap:square;paint-order:markers stroke fill" inkscape:transform-center-x="0.30565386" inkscape:transform-center-y="-0.63464484" d="m 88.978593,115.73736 -5.829462,-0.81797 4.354567,-0.53648 -0.0011,-3.80838 0.822768,1.51326 z" sodipodi:nodetypes="cccccc" />
    <path id="path27-6" style="fill:#878787;stroke-width:1.295;stroke-linecap:square;paint-order:markers stroke fill" inkscape:transform-center-x="0.30565386" inkscape:transform-center-y="-0.63464484" d="m 81.500293,94.327413 -5.829462,-0.81797 4.269418,0.03118 -5.677706,-5.426213 4.824775,2.818879 z" sodipodi:nodetypes="cccccc" />
    <path id="path27-1" style="fill:#878787;stroke-width:1.295;stroke-linecap:square;paint-order:markers stroke fill" inkscape:transform-center-x="-0.67320014" inkscape:transform-center-y="0.18077016" d="m 66.687587,128.33861 6.880934,-8.46736 -4.965618,7.61312 4.873315,-0.54477 -2.096201,1.3608 z" sodipodi:nodetypes="cccccc" />
    <path id="path27-1-6" style="fill:#878787;stroke-width:1.295;stroke-linecap:square;paint-order:markers stroke fill" inkscape:transform-center-x="1.7623574" inkscape:transform-center-y="-0.46987484" d="m 77.35663,144.02112 3.428678,-10.35797 -3.740422,8.28409 -2.165563,-4.39958 -0.01766,2.49911 z" sodipodi:nodetypes="cccccc" />
    <path id="path123" style="fill:#f06d40;stroke-width:27.495;stroke-linecap:square;paint-order:markers stroke fill;fill-opacity:1" inkscape:transform-center-x="-2.5357279" inkscape:transform-center-y="0.79750871" d="M 26.783359,22.252751 29.194306,42.995576 44.970807,45.108117 25.134125,52.0881 20.218124,35.456819 -3.6379226,57.062357 -13.935337,29.77406 Z" sodipodi:nodetypes="cccccccc" />
    <path id="path123-4" style="fill:#f06d40;stroke-width:27.495;stroke-linecap:square;paint-order:markers stroke fill;fill-opacity:1" inkscape:transform-center-x="-0.60188745" inkscape:transform-center-y="-2.7625413" d="m -13.453661,133.66315 39.069462,3.7245 3.6763,-21.65029 5.946797,26.07213 -18.132705,7.02698 30.173555,24.39295 -46.79807205,5.63832 z" sodipodi:nodetypes="cccccccc" />
    <path id="path123-4-5" style="fill:#f06d40;stroke-width:27.495;stroke-linecap:square;paint-order:markers stroke fill;fill-opacity:1" inkscape:transform-center-x="-2.9462074" inkscape:transform-center-y="-0.7383213" d="m 116.251,161.43264 22.02793,-27.76949 -28.85506,-18.65588 50.86981,0.74195 -12.53854,32.58293 38.20711,-6.75847 -26.45782,39.01069 z" sodipodi:nodetypes="cccccccc" />
    <path id="path123-4-5-8" style="fill:#f06d40;stroke-width:27.495;stroke-linecap:square;paint-order:markers stroke fill;fill-opacity:1" inkscape:transform-center-x="4.0408826" inkscape:transform-center-y="8.6546282" d="M 133.39476,11.80934 97.960035,10.940774 100.43744,45.212027 70.402298,4.1489253 103.96692,-5.45726 75.567071,-31.894153 122.64434,-34.25666 Z" sodipodi:nodetypes="cccccccc" />
  </g>
</svg>
