<?xml version="1.0" encoding="UTF-8" standalone="no"?>
<!-- Created with Inkscape (http://www.inkscape.org/) -->

<svg width="133.82449mm" height="133.82449mm" viewBox="0 0 133.82449 133.82449" version="1.1" id="svg5" xml:space="preserve" inkscape:version="1.3 (0e150ed6c4, 2023-07-21)" sodipodi:docname="142.svg" xmlns:inkscape="http://www.inkscape.org/namespaces/inkscape" xmlns:sodipodi="http://sodipodi.sourceforge.net/DTD/sodipodi-0.dtd" xmlns="http://www.w3.org/2000/svg" xmlns:svg="http://www.w3.org/2000/svg"><sodipodi:namedview id="namedview7" pagecolor="#ffffff" bordercolor="#666666" borderopacity="1.0" inkscape:showpageshadow="2" inkscape:pageopacity="0.0" inkscape:pagecheckerboard="0" inkscape:deskcolor="#d1d1d1" inkscape:document-units="mm" showgrid="false" inkscape:zoom="0.66331439" inkscape:cx="125.1292" inkscape:cy="417.59987" inkscape:window-width="2560" inkscape:window-height="1413" inkscape:window-x="-9" inkscape:window-y="-9" inkscape:window-maximized="1" inkscape:current-layer="layer2" /><defs id="defs2"><filter inkscape:collect="always" style="color-interpolation-filters:sRGB" id="filter36418" x="-0.63948003" y="-0.63948003" width="2.2789601" height="2.2789601"><feGaussianBlur inkscape:collect="always" stdDeviation="2.3485178" id="feGaussianBlur36420" /></filter><filter inkscape:collect="always" style="color-interpolation-filters:sRGB" id="filter36418-9" x="-0.63948003" y="-0.63948003" width="2.2789601" height="2.2789601"><feGaussianBlur inkscape:collect="always" stdDeviation="2.3485178" id="feGaussianBlur36420-6" /></filter><filter inkscape:collect="always" style="color-interpolation-filters:sRGB" id="filter36418-9-9" x="-0.63948003" y="-0.63948003" width="2.2789601" height="2.2789601"><feGaussianBlur inkscape:collect="always" stdDeviation="2.3485178" id="feGaussianBlur36420-6-3" /></filter><filter inkscape:collect="always" style="color-interpolation-filters:sRGB" id="filter36418-9-2" x="-0.63948003" y="-0.63948003" width="2.2789601" height="2.2789601"><feGaussianBlur inkscape:collect="always" stdDeviation="2.3485178" id="feGaussianBlur36420-6-2" /></filter><filter inkscape:collect="always" style="color-interpolation-filters:sRGB" id="filter36418-9-27" x="-0.63948003" y="-0.63948003" width="2.2789601" height="2.2789601"><feGaussianBlur inkscape:collect="always" stdDeviation="2.3485178" id="feGaussianBlur36420-6-4" /></filter><filter inkscape:collect="always" style="color-interpolation-filters:sRGB" id="filter36418-9-3" x="-0.63948003" y="-0.63948003" width="2.2789601" height="2.2789601"><feGaussianBlur inkscape:collect="always" stdDeviation="2.3485178" id="feGaussianBlur36420-6-9" /></filter><filter inkscape:collect="always" style="color-interpolation-filters:sRGB" id="filter36418-9-0" x="-0.63948003" y="-0.63948003" width="2.2789601" height="2.2789601"><feGaussianBlur inkscape:collect="always" stdDeviation="2.3485178" id="feGaussianBlur36420-6-97" /></filter><filter inkscape:collect="always" style="color-interpolation-filters:sRGB" id="filter36418-9-4" x="-0.63948003" y="-0.63948003" width="2.2789601" height="2.2789601"><feGaussianBlur inkscape:collect="always" stdDeviation="2.3485178" id="feGaussianBlur36420-6-42" /></filter><filter inkscape:collect="always" style="color-interpolation-filters:sRGB" id="filter36418-9-6" x="-0.63948003" y="-0.63948003" width="2.2789601" height="2.2789601"><feGaussianBlur inkscape:collect="always" stdDeviation="2.3485178" id="feGaussianBlur36420-6-6" /></filter><filter inkscape:collect="always" style="color-interpolation-filters:sRGB" id="filter36418-9-29" x="-0.63948003" y="-0.63948003" width="2.2789601" height="2.2789601"><feGaussianBlur inkscape:collect="always" stdDeviation="2.3485178" id="feGaussianBlur36420-6-8" /></filter><filter inkscape:collect="always" style="color-interpolation-filters:sRGB" id="filter36418-9-47" x="-0.63948003" y="-0.63948003" width="2.2789601" height="2.2789601"><feGaussianBlur inkscape:collect="always" stdDeviation="2.3485178" id="feGaussianBlur36420-6-68" /></filter><filter inkscape:collect="always" style="color-interpolation-filters:sRGB" id="filter36418-9-5" x="-0.63948003" y="-0.63948003" width="2.2789601" height="2.2789601"><feGaussianBlur inkscape:collect="always" stdDeviation="2.3485178" id="feGaussianBlur36420-6-0" /></filter><filter inkscape:collect="always" style="color-interpolation-filters:sRGB" id="filter36418-9-51" x="-0.63948003" y="-0.63948003" width="2.2789601" height="2.2789601"><feGaussianBlur inkscape:collect="always" stdDeviation="2.3485178" id="feGaussianBlur36420-6-81" /></filter><filter inkscape:collect="always" style="color-interpolation-filters:sRGB" id="filter36418-9-51-9" x="-0.63948003" y="-0.63948003" width="2.2789601" height="2.2789601"><feGaussianBlur inkscape:collect="always" stdDeviation="2.3485178" id="feGaussianBlur36420-6-81-3" /></filter><filter inkscape:collect="always" style="color-interpolation-filters:sRGB" id="filter36418-9-51-7" x="-0.63948003" y="-0.63948003" width="2.2789601" height="2.2789601"><feGaussianBlur inkscape:collect="always" stdDeviation="2.3485178" id="feGaussianBlur36420-6-81-9" /></filter><filter inkscape:collect="always" style="color-interpolation-filters:sRGB" id="filter36418-9-51-0" x="-0.63948003" y="-0.63948003" width="2.2789601" height="2.2789601"><feGaussianBlur inkscape:collect="always" stdDeviation="2.3485178" id="feGaussianBlur36420-6-81-7" /></filter><filter inkscape:collect="always" style="color-interpolation-filters:sRGB" id="filter36418-9-51-94" x="-0.63948003" y="-0.63948003" width="2.2789601" height="2.2789601"><feGaussianBlur inkscape:collect="always" stdDeviation="2.3485178" id="feGaussianBlur36420-6-81-0" /></filter><filter inkscape:collect="always" style="color-interpolation-filters:sRGB" id="filter36418-9-51-94-7" x="-0.63948003" y="-0.63948003" width="2.2789601" height="2.2789601"><feGaussianBlur inkscape:collect="always" stdDeviation="2.3485178" id="feGaussianBlur36420-6-81-0-2" /></filter><filter inkscape:collect="always" style="color-interpolation-filters:sRGB" id="filter36418-9-51-94-7-1" x="-0.63948003" y="-0.63948003" width="2.2789601" height="2.2789601"><feGaussianBlur inkscape:collect="always" stdDeviation="2.3485178" id="feGaussianBlur36420-6-81-0-2-1" /></filter><filter inkscape:collect="always" style="color-interpolation-filters:sRGB" id="filter36418-9-51-94-7-9" x="-0.63948003" y="-0.63948003" width="2.2789601" height="2.2789601"><feGaussianBlur inkscape:collect="always" stdDeviation="2.3485178" id="feGaussianBlur36420-6-81-0-2-5" /></filter><filter inkscape:collect="always" style="color-interpolation-filters:sRGB" id="filter36418-9-51-94-7-95" x="-0.63948003" y="-0.63948003" width="2.2789601" height="2.2789601"><feGaussianBlur inkscape:collect="always" stdDeviation="2.3485178" id="feGaussianBlur36420-6-81-0-2-3" /></filter><filter inkscape:collect="always" style="color-interpolation-filters:sRGB" id="filter36418-9-51-94-7-2" x="-0.63948003" y="-0.63948003" width="2.2789601" height="2.2789601"><feGaussianBlur inkscape:collect="always" stdDeviation="2.3485178" id="feGaussianBlur36420-6-81-0-2-6" /></filter><filter inkscape:collect="always" style="color-interpolation-filters:sRGB" id="filter36418-9-51-94-7-8" x="-0.63948003" y="-0.63948003" width="2.2789601" height="2.2789601"><feGaussianBlur inkscape:collect="always" stdDeviation="2.3485178" id="feGaussianBlur36420-6-81-0-2-9" /></filter><filter inkscape:collect="always" style="color-interpolation-filters:sRGB" id="filter36418-9-51-94-7-8-4" x="-0.63948003" y="-0.63948003" width="2.2789601" height="2.2789601"><feGaussianBlur inkscape:collect="always" stdDeviation="2.3485178" id="feGaussianBlur36420-6-81-0-2-9-5" /></filter><filter inkscape:collect="always" style="color-interpolation-filters:sRGB" id="filter36418-9-51-94-7-8-4-4" x="-0.63948003" y="-0.63948003" width="2.2789601" height="2.2789601"><feGaussianBlur inkscape:collect="always" stdDeviation="2.3485178" id="feGaussianBlur36420-6-81-0-2-9-5-8" /></filter><filter inkscape:collect="always" style="color-interpolation-filters:sRGB" id="filter36418-9-51-94-7-8-4-5" x="-0.63948003" y="-0.63948003" width="2.2789601" height="2.2789601"><feGaussianBlur inkscape:collect="always" stdDeviation="2.3485178" id="feGaussianBlur36420-6-81-0-2-9-5-1" /></filter><filter inkscape:collect="always" style="color-interpolation-filters:sRGB" id="filter36418-9-51-94-7-8-4-5-7" x="-0.63948003" y="-0.63948003" width="2.2789601" height="2.2789601"><feGaussianBlur inkscape:collect="always" stdDeviation="2.3485178" id="feGaussianBlur36420-6-81-0-2-9-5-1-2" /></filter><filter inkscape:collect="always" style="color-interpolation-filters:sRGB" id="filter36418-9-51-94-7-8-4-5-7-3" x="-0.63948003" y="-0.63948003" width="2.2789601" height="2.2789601"><feGaussianBlur inkscape:collect="always" stdDeviation="2.3485178" id="feGaussianBlur36420-6-81-0-2-9-5-1-2-7" /></filter><filter inkscape:collect="always" style="color-interpolation-filters:sRGB" id="filter36418-9-51-94-7-8-4-5-7-5" x="-0.63948003" y="-0.63948003" width="2.2789601" height="2.2789601"><feGaussianBlur inkscape:collect="always" stdDeviation="2.3485178" id="feGaussianBlur36420-6-81-0-2-9-5-1-2-6" /></filter><filter inkscape:collect="always" style="color-interpolation-filters:sRGB" id="filter36418-9-51-94-7-8-4-5-7-2" x="-0.63948003" y="-0.63948003" width="2.2789601" height="2.2789601"><feGaussianBlur inkscape:collect="always" stdDeviation="2.3485178" id="feGaussianBlur36420-6-81-0-2-9-5-1-2-1" /></filter><filter inkscape:collect="always" style="color-interpolation-filters:sRGB" id="filter36418-9-51-94-7-8-4-5-7-29" x="-0.63948003" y="-0.63948003" width="2.2789601" height="2.2789601"><feGaussianBlur inkscape:collect="always" stdDeviation="2.3485178" id="feGaussianBlur36420-6-81-0-2-9-5-1-2-3" /></filter><filter inkscape:collect="always" style="color-interpolation-filters:sRGB" id="filter36418-9-51-94-7-8-4-5-7-50" x="-0.63948003" y="-0.63948003" width="2.2789601" height="2.2789601"><feGaussianBlur inkscape:collect="always" stdDeviation="2.3485178" id="feGaussianBlur36420-6-81-0-2-9-5-1-2-9" /></filter><filter inkscape:collect="always" style="color-interpolation-filters:sRGB" id="filter36418-9-51-94-7-8-4-5-7-34" x="-0.63948003" y="-0.63948003" width="2.2789601" height="2.2789601"><feGaussianBlur inkscape:collect="always" stdDeviation="2.3485178" id="feGaussianBlur36420-6-81-0-2-9-5-1-2-95" /></filter><filter inkscape:collect="always" style="color-interpolation-filters:sRGB" id="filter36418-9-51-94-7-8-4-5-7-9" x="-0.63948003" y="-0.63948003" width="2.2789601" height="2.2789601"><feGaussianBlur inkscape:collect="always" stdDeviation="2.3485178" id="feGaussianBlur36420-6-81-0-2-9-5-1-2-16" /></filter><filter inkscape:collect="always" style="color-interpolation-filters:sRGB" id="filter36418-9-51-94-7-8-4-5-7-7" x="-0.63948003" y="-0.63948003" width="2.2789601" height="2.2789601"><feGaussianBlur inkscape:collect="always" stdDeviation="2.3485178" id="feGaussianBlur36420-6-81-0-2-9-5-1-2-30" /></filter><filter inkscape:collect="always" style="color-interpolation-filters:sRGB" id="filter36418-9-51-94-7-8-4-5-7-99" x="-0.63948003" y="-0.63948003" width="2.2789601" height="2.2789601"><feGaussianBlur inkscape:collect="always" stdDeviation="2.3485178" id="feGaussianBlur36420-6-81-0-2-9-5-1-2-0" /></filter><filter inkscape:collect="always" style="color-interpolation-filters:sRGB" id="filter38719" x="-0.062345226" y="-0.070631223" width="1.1246905" height="1.1412624"><feGaussianBlur inkscape:collect="always" stdDeviation="3.0989745" id="feGaussianBlur38721" /></filter><filter inkscape:collect="always" style="color-interpolation-filters:sRGB" id="filter38829" x="-0.19327071" y="-0.19555776" width="1.3865414" height="1.3911155"><feGaussianBlur inkscape:collect="always" stdDeviation="8.963203" id="feGaussianBlur38831" /></filter><filter inkscape:collect="always" style="color-interpolation-filters:sRGB" id="filter39043" x="-0.34721666" y="-0.29020176" width="1.6944333" height="1.5804035"><feGaussianBlur inkscape:collect="always" stdDeviation="16.505774" id="feGaussianBlur39045" /></filter></defs><g inkscape:groupmode="layer" id="layer2" inkscape:label="Слой 2" transform="translate(-43.876884,-42.480801)"><rect style="fill:#090014;fill-opacity:1;fill-rule:evenodd;stroke-width:0.264583" id="rect234-3" width="133.82449" height="133.82449" x="43.876884" y="42.480801" inkscape:export-filename="rect234-3.png" inkscape:export-xdpi="189.80083" inkscape:export-ydpi="189.80083" /><circle style="mix-blend-mode:normal;fill:#ffffff;fill-opacity:1;fill-rule:evenodd;stroke-width:0.683529;filter:url(#filter36418)" id="path36416" cx="52.990387" cy="54.048077" r="4.4070516" transform="matrix(0.3870835,0,0,0.3870835,26.745936,27.436627)" /><circle style="mix-blend-mode:normal;fill:#ffffff;fill-opacity:1;fill-rule:evenodd;stroke-width:0.683529;filter:url(#filter36418-9)" id="path36416-7" cx="52.990387" cy="54.048077" r="4.4070516" transform="matrix(0.3870835,0,0,0.3870835,44.501117,22.585292)" /><circle style="mix-blend-mode:normal;fill:#ffffff;fill-opacity:1;fill-rule:evenodd;stroke-width:0.683529;filter:url(#filter36418-9-9)" id="path36416-7-7" cx="52.990387" cy="54.048077" r="4.4070516" transform="matrix(0.3870835,0,0,0.3870835,39.35368,41.553241)" /><circle style="mix-blend-mode:normal;fill:#ffffff;fill-opacity:1;fill-rule:evenodd;stroke-width:0.683529;filter:url(#filter36418-9-2)" id="path36416-7-3" cx="52.990387" cy="54.048077" r="4.4070516" transform="matrix(0.3870835,0,0,0.3870835,67.770347,32.809651)" /><circle style="mix-blend-mode:normal;fill:#ffffff;fill-opacity:1;fill-rule:evenodd;stroke-width:0.683529;filter:url(#filter36418-9-27)" id="path36416-7-5" cx="52.990387" cy="54.048077" r="4.4070516" transform="matrix(0.3870835,0,0,0.3870835,53.315219,53.54042)" /><circle style="mix-blend-mode:normal;fill:#ffffff;fill-opacity:1;fill-rule:evenodd;stroke-width:0.683529;filter:url(#filter36418-9-3)" id="path36416-7-6" cx="52.990387" cy="54.048077" r="4.4070516" transform="matrix(0.3870835,0,0,0.3870835,102.46265,21.950676)" /><circle style="mix-blend-mode:normal;fill:#ffffff;fill-opacity:1;fill-rule:evenodd;stroke-width:0.683529;filter:url(#filter36418-9-0)" id="path36416-7-30" cx="52.990387" cy="54.048077" r="4.4070516" transform="matrix(0.3870835,0,0,0.3870835,143.28958,60.662215)" /><circle style="mix-blend-mode:normal;fill:#ffffff;fill-opacity:1;fill-rule:evenodd;stroke-width:0.683529;filter:url(#filter36418-9-4)" id="path36416-7-79" cx="52.990387" cy="54.048077" r="4.4070516" transform="matrix(0.3870835,0,0,0.3870835,118.04599,70.251959)" /><circle style="mix-blend-mode:normal;fill:#ffffff;fill-opacity:1;fill-rule:evenodd;stroke-width:0.683529;filter:url(#filter36418-9-6)" id="path36416-7-35" cx="52.990387" cy="54.048077" r="4.4070516" transform="matrix(0.3870835,0,0,0.3870835,152.24471,21.598112)" /><circle style="mix-blend-mode:normal;fill:#ffffff;fill-opacity:1;fill-rule:evenodd;stroke-width:0.683529;filter:url(#filter36418-9-29)" id="path36416-7-0" cx="52.990387" cy="54.048077" r="4.4070516" transform="matrix(0.3870835,0,0,0.3870835,148.81318,115.39638)" /><circle style="mix-blend-mode:normal;fill:#ffffff;fill-opacity:1;fill-rule:evenodd;stroke-width:0.683529;filter:url(#filter36418-9-47)" id="path36416-7-9" cx="52.990387" cy="54.048077" r="4.4070516" transform="matrix(0.3870835,0,0,0.3870835,34.533839,137.03566)" /><circle style="mix-blend-mode:normal;fill:#ffffff;fill-opacity:1;fill-rule:evenodd;stroke-width:0.683529;filter:url(#filter36418-9-5)" id="path36416-7-06" cx="52.990387" cy="54.048077" r="4.4070516" transform="matrix(0.3870835,0,0,0.3870835,139.24004,34.523306)" /><circle style="mix-blend-mode:normal;fill:#ffffff;fill-opacity:1;fill-rule:evenodd;stroke-width:2.80924;filter:url(#filter36418-9-51)" id="path36416-7-97" cx="52.990387" cy="54.048077" r="4.4070516" transform="matrix(0.0941829,0,0,0.0941829,167.67472,63.666665)" /><circle style="mix-blend-mode:normal;fill:#ffffff;fill-opacity:1;fill-rule:evenodd;stroke-width:2.80924;filter:url(#filter36418-9-51-9)" id="path36416-7-97-8" cx="52.990387" cy="54.048077" r="4.4070516" transform="matrix(0.0941829,0,0,0.0941829,89.045348,41.080042)" /><circle style="mix-blend-mode:normal;fill:#ffffff;fill-opacity:1;fill-rule:evenodd;stroke-width:2.80924;filter:url(#filter36418-9-51-7)" id="path36416-7-97-0" cx="52.990387" cy="54.048077" r="4.4070516" transform="matrix(0.0941829,0,0,0.0941829,59.62789,77.876791)" /><circle style="mix-blend-mode:normal;fill:#ffffff;fill-opacity:1;fill-rule:evenodd;stroke-width:2.80924;filter:url(#filter36418-9-51-0)" id="path36416-7-97-5" cx="52.990387" cy="54.048077" r="4.4070516" transform="matrix(0.0941829,0,0,0.0941829,126.3407,46.963533)" /><circle style="mix-blend-mode:normal;fill:#ffffff;fill-opacity:1;fill-rule:evenodd;stroke-width:0.740511;filter:url(#filter36418-9-51-94)" id="path36416-7-97-7" cx="52.990387" cy="54.048077" r="4.4070516" transform="matrix(0.357297,0,0,0.357297,125.21223,103.49419)" /><circle style="mix-blend-mode:normal;fill:#ffffff;fill-opacity:1;fill-rule:evenodd;stroke-width:1.1851;filter:url(#filter36418-9-51-94-7)" id="path36416-7-97-7-6" cx="52.990387" cy="54.048077" r="4.4070516" transform="matrix(0.22325774,0,0,0.22325774,144.97948,84.21319)" /><circle style="mix-blend-mode:normal;fill:#ffffff;fill-opacity:1;fill-rule:evenodd;stroke-width:1.1851;filter:url(#filter36418-9-51-94-7-1)" id="path36416-7-97-7-6-9" cx="52.990387" cy="54.048077" r="4.4070516" transform="matrix(0.22325774,0,0,0.22325774,143.13466,56.341397)" /><circle style="mix-blend-mode:normal;fill:#ffffff;fill-opacity:1;fill-rule:evenodd;stroke-width:1.1851;filter:url(#filter36418-9-51-94-7-9)" id="path36416-7-97-7-6-7" cx="52.990387" cy="54.048077" r="4.4070516" transform="matrix(0.22325774,0,0,0.22325774,59.070539,96.728073)" /><circle style="mix-blend-mode:normal;fill:#ffffff;fill-opacity:1;fill-rule:evenodd;stroke-width:1.1851;filter:url(#filter36418-9-51-94-7-95)" id="path36416-7-97-7-6-4" cx="52.990387" cy="54.048077" r="4.4070516" transform="matrix(0.22325774,0,0,0.22325774,39.32594,61.028246)" /><circle style="mix-blend-mode:normal;fill:#ffffff;fill-opacity:1;fill-rule:evenodd;stroke-width:1.1851;filter:url(#filter36418-9-51-94-7-2)" id="path36416-7-97-7-6-2" cx="52.990387" cy="54.048077" r="4.4070516" transform="matrix(0.22325774,0,0,0.22325774,102.04994,93.886047)" /><circle style="mix-blend-mode:normal;fill:#eaa29a;fill-opacity:1;fill-rule:evenodd;stroke-width:1.1851;filter:url(#filter36418-9-51-94-7-8)" id="path36416-7-97-7-6-74" cx="52.990387" cy="54.048077" r="4.4070516" transform="matrix(0.22325774,0,0,0.22325774,135.9548,47.36658)" /><circle style="mix-blend-mode:normal;fill:#eaa29a;fill-opacity:1;fill-rule:evenodd;stroke-width:0.874109;filter:url(#filter36418-9-51-94-7-8-4)" id="path36416-7-97-7-6-74-5" cx="52.990387" cy="54.048077" r="4.4070516" transform="matrix(0.30268841,0,0,0.30268841,62.839092,44.569307)" /><circle style="mix-blend-mode:normal;fill:#eaa29a;fill-opacity:1;fill-rule:evenodd;stroke-width:0.874109;filter:url(#filter36418-9-51-94-7-8-4-4)" id="path36416-7-97-7-6-74-5-0" cx="52.990387" cy="54.048077" r="4.4070516" transform="matrix(0.30268841,0,0,0.30268841,53.265954,94.329682)" /><circle style="mix-blend-mode:normal;fill:#eaa29a;fill-opacity:1;fill-rule:evenodd;stroke-width:1.77821;filter:url(#filter36418-9-51-94-7-8-4-5)" id="path36416-7-97-7-6-74-5-7" cx="52.990387" cy="54.048077" r="4.4070516" transform="matrix(0.14879148,0,0,0.14879148,65.260239,40.073097)" /><circle style="mix-blend-mode:normal;fill:#eaa29a;fill-opacity:1;fill-rule:evenodd;stroke-width:1.0883;filter:url(#filter36418-9-51-94-7-8-4-5-7)" id="path36416-7-97-7-6-74-5-7-4" cx="52.990387" cy="54.048077" r="4.4070516" transform="matrix(0.2431154,0,0,0.2431154,159.88244,40.260241)" /><circle style="mix-blend-mode:normal;fill:#eaa29a;fill-opacity:1;fill-rule:evenodd;stroke-width:1.0883;filter:url(#filter36418-9-51-94-7-8-4-5-7-3)" id="path36416-7-97-7-6-74-5-7-4-2" cx="52.990387" cy="54.048077" r="4.4070516" transform="matrix(0.2431154,0,0,0.2431154,149.66113,111.70976)" /><circle style="mix-blend-mode:normal;fill:#eaa29a;fill-opacity:1;fill-rule:evenodd;stroke-width:1.0883;filter:url(#filter36418-9-51-94-7-8-4-5-7-5)" id="path36416-7-97-7-6-74-5-7-4-21" cx="52.990387" cy="54.048077" r="4.4070516" transform="matrix(0.2431154,0,0,0.2431154,30.4955,49.085477)" /><circle style="mix-blend-mode:normal;fill:#eaa29a;fill-opacity:1;fill-rule:evenodd;stroke-width:1.0883;filter:url(#filter36418-9-51-94-7-8-4-5-7-2)" id="path36416-7-97-7-6-74-5-7-4-6" cx="52.990387" cy="54.048077" r="4.4070516" transform="matrix(0.2431154,0,0,0.2431154,131.71149,145.81406)" /><circle style="mix-blend-mode:normal;fill:#eaa29a;fill-opacity:1;fill-rule:evenodd;stroke-width:1.0883;filter:url(#filter36418-9-51-94-7-8-4-5-7-29)" id="path36416-7-97-7-6-74-5-7-4-8" cx="52.990387" cy="54.048077" r="4.4070516" transform="matrix(0.2431154,0,0,0.2431154,149.0628,152.59503)" /><circle style="mix-blend-mode:normal;fill:#eaa29a;fill-opacity:1;fill-rule:evenodd;stroke-width:1.0883;filter:url(#filter36418-9-51-94-7-8-4-5-7-50)" id="path36416-7-97-7-6-74-5-7-4-5" cx="52.990387" cy="54.048077" r="4.4070516" transform="matrix(0.2431154,0,0,0.2431154,142.68071,131.45435)" /><circle style="mix-blend-mode:normal;fill:#eaa29a;fill-opacity:1;fill-rule:evenodd;stroke-width:1.0883;filter:url(#filter36418-9-51-94-7-8-4-5-7-34)" id="path36416-7-97-7-6-74-5-7-4-4" cx="52.990387" cy="54.048077" r="4.4070516" transform="matrix(0.2431154,0,0,0.2431154,31.79186,159.17656)" /><circle style="mix-blend-mode:normal;fill:#eaa29a;fill-opacity:1;fill-rule:evenodd;stroke-width:1.0883;filter:url(#filter36418-9-51-94-7-8-4-5-7-9)" id="path36416-7-97-7-6-74-5-7-4-29" cx="52.990387" cy="54.048077" r="4.4070516" transform="matrix(0.2431154,0,0,0.2431154,52.7331,125.07226)" /><circle style="mix-blend-mode:normal;fill:#eaa29a;fill-opacity:1;fill-rule:evenodd;stroke-width:1.0883;filter:url(#filter36418-9-51-94-7-8-4-5-7-7)" id="path36416-7-97-7-6-74-5-7-4-82" cx="52.990387" cy="54.048077" r="4.4070516" transform="matrix(0.2431154,0,0,0.2431154,64.300646,102.73494)" /><circle style="mix-blend-mode:normal;fill:#eaa29a;fill-opacity:1;fill-rule:evenodd;stroke-width:1.0883;filter:url(#filter36418-9-51-94-7-8-4-5-7-99)" id="path36416-7-97-7-6-74-5-7-4-51" cx="52.990387" cy="54.048077" r="4.4070516" transform="matrix(0.2431154,0,0,0.2431154,70.283857,83.189781)" /><path id="path38716" style="opacity:0.4875;mix-blend-mode:luminosity;fill:#327099;fill-opacity:1;stroke-width:1.265;stroke-dashoffset:11.6651;paint-order:markers stroke fill;filter:url(#filter38719)" inkscape:transform-center-x="1.4960264" inkscape:transform-center-y="-2.2452379" d="m 94.833897,75.388457 53.975493,14.687816 11.72941,-4.334394 -7.16869,17.942701 18.99862,30.59517 c 0,0 -84.381833,-17.03718 -103.253881,-50.356814 C 66.853047,79.9296 71.628416,74.599689 70.302287,70.206073 67.659611,61.45059 51.432889,57.71695 53.208026,48.745266 55.839497,35.445604 88.75427,28.978745 88.75427,28.978745 c 0,0 0.48478,15.35039 -1.698102,22.573522 -1.217177,4.027627 -6.843993,6.849468 -6.182725,11.004708 0.993353,6.241977 13.960454,12.831482 13.960454,12.831482 z" sodipodi:nodetypes="cccccsascssc" /><path sodipodi:type="star" style="opacity:0.285;fill:#47974d;fill-opacity:1;stroke:none;stroke-width:1.265;stroke-dasharray:none;stroke-dashoffset:11.6651;stroke-opacity:1;paint-order:markers stroke fill" id="path38711" inkscape:flatsided="true" sodipodi:sides="3" sodipodi:cx="83.465797" sodipodi:cy="64.917839" sodipodi:r1="0.49860093" sodipodi:r2="0.24930046" sodipodi:arg1="1.5707963" sodipodi:arg2="2.6179939" inkscape:rounded="0" inkscape:randomized="0" d="m 83.465797,65.41644 -0.431801,-0.747901 0.863602,0 z" inkscape:transform-center-x="1.0515376e-06" inkscape:transform-center-y="0.12464941" /><path sodipodi:type="star" style="opacity:0.4875;mix-blend-mode:normal;fill:#7c4797;fill-opacity:1;stroke:none;stroke-width:1.265;stroke-dasharray:none;stroke-dashoffset:11.6651;stroke-opacity:1;paint-order:markers stroke fill;filter:url(#filter38829)" id="path38775" inkscape:flatsided="false" sodipodi:sides="7" sodipodi:cx="144.2951" sodipodi:cy="76.186226" sodipodi:r1="57.185944" sodipodi:r2="11.205455" sodipodi:arg1="-0.61315453" sodipodi:arg2="-0.16435558" inkscape:rounded="0" inkscape:randomized="0" d="M 191.06387,43.278563 155.34956,74.352827 199.1832,92.23393 152.62085,83.685838 165.97067,129.10505 143.62269,87.371487 116.436,126.12721 135.13087,82.634407 87.879799,85.542797 133.53991,73.041715 101.80548,37.912691 l 38.24235,27.904213 7.67888,-46.713567 2.02732,47.297066 z" inkscape:transform-center-x="2.9195319" inkscape:transform-center-y="3.6687408" /><path id="path39041" style="opacity:0.5525;fill:#0da97e;fill-opacity:1;fill-rule:evenodd;stroke-width:0.264583;filter:url(#filter39043)" d="m 145.11538,40.756411 c 0,11.838716 -58.815124,87.153839 -70.65384,87.153839 -11.838716,0 -43.435893,57.95411 -43.435896,46.11539 -1e-6,-11.83872 31.597177,-88.987178 43.435896,-88.987178 11.838719,0 70.65385,-56.12077 70.65384,-44.282051 z" sodipodi:nodetypes="sssss" /></g><g inkscape:label="Слой 1" inkscape:groupmode="layer" id="layer1-4" transform="translate(174.02547,-61.221612)" style="fill:#090014;fill-opacity:1;stroke:#ffffff;stroke-width:2.4;stroke-dasharray:none;stroke-opacity:1"><path id="path29252-9" style="opacity:1;fill:#090014;fill-opacity:1;stroke:#ffffff;stroke-width:2.4;stroke-dasharray:none;stroke-dashoffset:11.6651;stroke-opacity:1;paint-order:markers stroke fill" inkscape:transform-center-x="-0.52045657" inkscape:transform-center-y="0.57136653" d="m -117.33454,78.373483 -14.26012,12.995072 7.19233,28.346595 9.17567,2.59571 -0.031,0.0341 1.36736,0.34417 0.28732,0.0811 -0.0729,0.8692 c -0.52573,-0.2365 -1.05301,-0.48321 -1.58182,-0.74104 l -0.20309,5.51543 -0.3917,-0.0331 c -1.85541,-1.21166 -3.67819,-2.3923 -5.4684,-3.5419 l -5.2e-4,-0.007 c -0.001,0.002 -0.002,0.003 -0.003,0.005 -111.845,-71.821322 -97.44623,-23.44516 -79.35433,30.11134 l 8.61808,-25.60205 c 2.51606,-14.09987 -9.73238,-29.983226 21.90099,-13.44517 -5.32537,3.88233 -10.18323,9.61766 -13.49996,17.28214 l 2.50579,4.32584 c -0.64825,0.34554 -1.2957,0.68555 -1.942,1.01234 l 3.80132,3.68091 c -0.0494,0.0257 -0.0925,0.0481 -0.14211,0.0739 l -0.46353,1.3224 -4.55218,2.42001 c 0.98633,0.85392 1.92764,1.67856 2.82722,2.50475 l -0.19327,0.55087 c 0.14016,-0.11564 0.28064,-0.22929 0.42013,-0.34054 6.2948,5.83071 10.50801,11.86295 13.53767,28.8494 l 9.94978,-3.55948 c -19.42393,23.73975 -40.26645,43.8777 -64.73558,54.80544 l 100.98298,36.0376 -1.63866,8.54625 114.9418198,-25.72453 c -15.3472318,-9.25442 -28.5821618,-22.39618 -40.5639318,-37.8442 2.88176,-6.34451 5.19438,-12.87474 6.13141,-19.26859 25.98211,-47.78264 44.9960017,-94.708079 -51.20411,-63.31552 l 9.86451,-13.28136 11.34557,-15.276592 -7.66207,-13.223999 z m -40.82284,44.149767 c 1.60575,0.92027 3.2682,1.88144 5.02502,2.9099 -8.09147,0.81003 -15.68467,5.17053 -23.07611,9.34258 4.18809,-4.76904 9.09235,-9.00226 18.05109,-12.25248 z m 55.28759,3.28404 7.133928,2.01796 c -1.74206,0.57729 -3.528888,1.18538 -5.345408,1.81333 l -0.002,-0.003 -1.6614,-0.14108 1.02423,-2.59364 c -0.53232,-0.0333 -1.06722,-0.0843 -1.60455,-0.15245 z m 56.111298,3.92999 c 19.23788,-0.31666 7.40254,17.11083 -7.42694,34.83353 -4.54278,-4.96211 -12.26312,-10.47871 -24.50909,-15.59543 l -1.60559,12.14965 c -3.66093,-6.49023 -7.26783,-13.07986 -10.8567,-19.70268 22.04853,-8.11048 36.11399,-11.54871 44.39832,-11.68507 z m -108.116918,6.32261 c 7.66628,0.0662 14.03586,3.83383 19.11718,8.94261 -1.27331,1.75456 -2.54633,3.51037 -3.8256,5.24981 -9.33882,-8.49141 -15.33172,-12.52204 -20.42873,-13.69374 1.77249,-0.353 3.48515,-0.51296 5.13715,-0.49868 z m -14.88953,7.92458 c 9.75689,-0.10765 17.22388,9.72365 22.42913,16.63413 -2.81024,3.68406 -5.64345,7.3092 -8.50543,10.86187 -0.78688,-9.09567 -6.72224,-19.78778 -18.37097,-26.76374 1.53175,-0.48595 3.01411,-0.71645 4.44727,-0.73226 z m 89.887538,17.89142 c 11.83551,1.60909 17.26961,2.64991 22.91488,12.02975 -4.65686,2.24682 -9.80679,1.6997 -15.87655,0.13591 -2.3747,-4.00257 -4.71832,-8.06245 -7.03833,-12.16566 z m 21.10827,21.43538 c -1.97342,1.16488 -4.14675,2.20172 -6.4642,3.13521 -0.40839,-0.6425 -0.81399,-1.29012 -1.22008,-1.93683 2.61884,-0.22027 5.19686,-0.60464 7.68428,-1.19838 z m 8.32869,4.11964 c -0.91514,4.17493 -2.92436,8.48508 -5.56451,12.81628 -1.29305,-1.83216 -2.57619,-3.68236 -3.84318,-5.56245 3.44296,-2.18216 6.63825,-4.58221 9.40769,-7.25383 z m -64.198658,37.26646 0.64182,0.18242 -0.46664,2.43293 z" /></g><g inkscape:label="Слой 1" inkscape:groupmode="layer" id="layer1" transform="translate(-43.876884,-42.480801)"><path id="path29252" style="opacity:1;fill:#1c1c43;stroke-width:1.265;stroke-dashoffset:11.6651;paint-order:markers stroke fill" inkscape:transform-center-x="-0.52045657" inkscape:transform-center-y="0.57136653" d="m 107.18043,116.30396 -4.5359,-12.14622 c 4.64645,2.2655 9.17756,3.72967 13.53719,4.00253 z" sodipodi:nodetypes="cccc" /><path id="path25477" style="opacity:1;fill:#202331;stroke-width:1.265;stroke-dashoffset:11.6651;paint-order:markers stroke fill" inkscape:transform-center-x="11.428252" inkscape:transform-center-y="-6.1146575" d="M 96.580595,106.09143 106.18878,249.67692 -4.7443121,210.08829 C 35.588494,192.07594 66.074892,149.05917 96.580595,106.09143 Z" sodipodi:nodetypes="cccc" /><path id="path25477-3" style="fill:#202331;stroke-width:1.265;stroke-dashoffset:11.6651;paint-order:markers stroke fill" inkscape:transform-center-x="-5.73089" inkscape:transform-center-y="-10.867087" d="M 121.6966,113.33964 94.600079,254.67219 209.5421,228.94783 C 171.71498,206.138 146.71837,159.71567 121.6966,113.33964 Z" sodipodi:nodetypes="cccc" /><path id="rect8138" style="fill:#27274f;fill-opacity:1;fill-rule:evenodd;stroke-width:0.264583" d="M 17.223244,136.20753 C -1.2468661,81.53141 -15.889022,32.233998 103.73809,110.73926 l -3.12578,17.80006 C 5.5368967,69.109786 29.250123,91.501916 25.841197,110.60537 Z" sodipodi:nodetypes="ccccc" /><path id="rect8138-0" style="fill:#27274f;fill-opacity:1;fill-rule:evenodd;stroke-width:0.264583" d="m 174.74776,172.50399 c 27.15769,-49.83102 47.30765,-99.137975 -62.31323,-60.06949 l -4.46837,17.51132 c 96.51857,-38.94843 77.84968,-10.19925 54.17846,17.75642 z" sodipodi:nodetypes="ccccc" /><path id="rect4877-3-9-1" style="fill:#9c9cc0;fill-opacity:1;fill-rule:evenodd;stroke:#ffffff;stroke-width:1.665;stroke-dasharray:none;stroke-opacity:1;paint-order:markers stroke fill" d="M 34.242212,114.4427 C 40.869924,99.126999 53.651432,91.511619 64.020324,91.000628 l 5.698439,9.973722 c -19.45838,4.2083 -25.21407,11.4262 -31.865941,19.70126 z" sodipodi:nodetypes="ccccc" /><path id="rect17202" style="fill:#27274f;fill-opacity:1;fill-rule:evenodd;stroke-width:0.264583" d="m 99.141026,109.39305 17.677844,1.50197 7.90982,13.0018 -6.75971,86.25171 -31.661291,-9.02564 2.574054,-80.44728 z" sodipodi:nodetypes="ccccccc" /><path id="rect4877" style="fill:#bababc;fill-rule:evenodd;stroke:#ffffff;stroke-width:1.665;stroke-dasharray:none;stroke-opacity:1;paint-order:markers stroke fill" d="m 67.375216,106.55887 c -11.640293,0.0143 -22.217582,7.98793 -32.569072,13.22193 l 3.801835,3.6804 c -0.0496,0.0258 -0.09279,0.0485 -0.142627,0.0744 l -0.46302,1.3224 -4.552694,2.41949 c 0.986417,0.854 1.927568,1.67901 2.827217,2.50528 l -0.192753,0.55087 c 0.140356,-0.11581 0.279941,-0.22967 0.419613,-0.34107 6.294882,5.83075 10.507987,11.86335 13.537675,28.84992 l 12.109338,-4.33203 c -0.120448,-9.44515 -6.04674,-21.10055 -18.460888,-28.5347 13.874644,-4.40169 23.703094,12.15787 29.521195,19.34249 L 83.718921,136.556 C 71.170828,124.56595 63.907195,119.20146 57.88949,117.81813 c 10.523992,-2.09592 18.923499,2.69548 25.213965,9.43922 l 6.553605,-9.81697 c -7.930416,-8.0332 -15.297669,-10.89011 -22.281844,-10.88151 z" /><path id="rect12711" style="fill:#9c9cc0;fill-opacity:1;fill-rule:evenodd;stroke:#ffffff;stroke-width:1.665;stroke-dasharray:none;stroke-opacity:1;paint-order:markers stroke fill" d="m 139.20741,130.23456 c 15.98664,6.67968 24.26799,14.04206 27.8239,19.96068 l -5.05088,6.78662 c -6.13054,-11.22693 -11.52895,-12.16557 -24.46827,-13.91705 z" sodipodi:nodetypes="ccccc" /><g id="g23245"><ellipse style="fill:#5792ae;fill-opacity:1;fill-rule:evenodd;stroke-width:0.264583" id="path9733" cx="49.61935" cy="184.21295" rx="29.944883" ry="29.601658" transform="rotate(-19.304992)" /><path id="rect21318" style="fill:#74c355;fill-opacity:1;fill-rule:evenodd;stroke-width:0.264583" d="m 108.95606,133.04487 c -1.95733,0.68564 -2.98102,2.81319 -2.29538,4.77052 0.68564,1.95734 2.81319,2.98103 4.77052,2.29539 l 2.71994,-0.95278 0.64014,1.82745 -2.05958,0.72146 c -1.95734,0.68564 -2.98086,2.81366 -2.29522,4.771 0.68564,1.95734 2.81319,2.98103 4.77053,2.29539 l 5.65447,-1.98073 c 1.95734,-0.68564 2.98104,-2.81319 2.2954,-4.77052 l -1.87788,-5.36088 3.28812,-1.15181 c 0.76079,-0.2665 1.37806,-0.75245 1.81128,-1.35998 a 29.601658,29.944883 70.695008 0 0 -7.91301,-4.43556 z m -29.437022,14.76974 a 29.601658,29.944883 70.695008 0 0 -1.624083,11.6311 c 0.793524,0.11875 1.627734,0.0518 2.440458,-0.23285 l 13.323202,-4.66702 0.768951,2.19517 -8.971385,3.14261 c -2.661585,0.93233 -4.053305,3.8256 -3.120969,6.48719 l 0.279837,0.79887 c 0.932335,2.66158 3.825284,4.05395 6.486869,3.12162 l 20.145742,-7.05691 c 2.66159,-0.93234 4.0538,-3.82576 3.12146,-6.48735 l -0.27984,-0.79887 c -0.93233,-2.66159 -3.82576,-4.0538 -6.48735,-3.12146 l -4.04651,1.41746 -0.77271,-2.2059 c 2.46304,-1.03877 3.71576,-3.81069 2.81942,-6.36951 l -0.27967,-0.79838 c -0.93233,-2.66159 -3.825763,-4.0538 -6.487361,-3.12146 z m 43.999922,13.08888 c -1.95734,0.68564 -2.98103,2.81318 -2.29539,4.77052 0.68564,1.95733 2.81336,2.98151 4.7707,2.29587 l 1.40704,-0.49288 0.64595,1.84403 -10.63497,3.72535 c -2.66158,0.93233 -4.05379,3.82576 -3.12145,6.48736 l 0.27984,0.79887 c 0.93233,2.66157 3.8256,4.05329 6.48718,3.12096 l 2.08983,-0.73205 a 29.601658,29.944883 70.695008 0 0 12.97991,-16.23098 l -0.95249,0.33365 -0.64595,-1.84402 2.25467,-0.7898 a 29.601658,29.944883 70.695008 0 0 0.82692,-8.08571 c -0.31839,0.0248 -0.63908,0.0864 -0.95538,0.19724 z M 88.2118,174.79681 c -1.330101,0.46592 -2.227411,1.59837 -2.451907,2.8903 a 29.601658,29.944883 70.695008 0 0 4.885565,4.18849 c 0.01385,-0.005 0.02782,-0.008 0.04165,-0.0124 l 13.135922,-4.60142 c 1.95733,-0.68564 2.98103,-2.81319 2.29538,-4.77053 -0.68564,-1.95733 -2.81336,-2.98151 -4.77069,-2.29587 z" /><path id="rect21318-9-1-3-3" style="fill:#ddf8f2;fill-opacity:1;fill-rule:evenodd;stroke-width:0.264583" d="m 97.943208,129.51393 a 29.601658,29.944883 70.695008 0 0 -10.33681,6.18181 c 0.776023,1.7867 2.799072,2.69139 4.667882,2.03676 l 13.13641,-4.60159 c 1.95734,-0.68564 2.98085,-2.81368 2.29521,-4.77102 -0.0666,-0.19016 -0.14715,-0.37122 -0.2395,-0.54304 a 29.601658,29.944883 70.695008 0 0 -9.523192,1.69708 z m 9.622452,54.31173 c -1.41789,0.49667 -2.34556,1.75026 -2.48886,3.14746 a 29.601658,29.944883 70.695008 0 0 12.43875,-1.58496 29.601658,29.944883 70.695008 0 0 7.85271,-4.13057 c -0.77691,-1.78479 -2.79886,-2.68764 -4.66669,-2.03335 z" /><rect style="opacity:1;fill:#ffffff;fill-opacity:1;fill-rule:evenodd;stroke-width:0.264583" id="rect21612" width="49.261772" height="6.182651" x="11.257884" y="162.08702" rx="3.0913255" ry="3.0913255" transform="rotate(-19.304992)" /><rect style="fill:#ffffff;fill-opacity:1;fill-rule:evenodd;stroke-width:0.264583" id="rect21612-1" width="39.019188" height="6.8141928" x="27.362688" y="173.87064" rx="3.4070964" ry="3.4070964" transform="rotate(-19.304992)" /><rect style="fill:#ffffff;fill-opacity:1;fill-rule:evenodd;stroke-width:0.264583" id="rect21612-1-5" width="39.019188" height="4.4575586" x="34.835278" y="185.14334" rx="2.2287793" ry="2.2287793" transform="rotate(-19.304992)" /><rect style="fill:#ffffff;fill-opacity:1;fill-rule:evenodd;stroke-width:0.264583" id="rect21612-1-5-9" width="27.32625" height="7.9776144" x="-60.26759" y="194.25188" rx="3.988807" ry="3.9888072" transform="matrix(-0.94377215,0.33059662,0.33059662,0.94377215,0,0)" /><rect style="fill:#ffffff;fill-opacity:1;fill-rule:evenodd;stroke-width:0.264583" id="rect21612-1-5-9-1" width="10.705774" height="7.9776144" x="-75.768219" y="194.25188" rx="3.9888072" ry="3.9888072" transform="matrix(-0.94377215,0.33059662,0.33059662,0.94377215,0,0)" /><rect style="fill:#ffffff;fill-opacity:1;fill-rule:evenodd;stroke-width:0.264583" id="rect21612-1-4" width="9.8682461" height="6.8141928" x="69.695984" y="173.87064" rx="3.4070964" ry="3.4070964" transform="rotate(-19.304992)" /><rect style="fill:#ffffff;fill-opacity:1;fill-rule:evenodd;stroke-width:0.264583" id="rect21612-1-4-0" width="15.72081" height="4.4575586" x="16.575998" y="185.14334" rx="2.2287793" ry="2.2287793" transform="rotate(-19.304992)" /><rect style="fill:#ffffff;fill-opacity:1;fill-rule:evenodd;stroke-width:0.264583" id="rect21612-1-4-0-4" width="15.72081" height="4.4575586" x="27.62948" y="205.18105" rx="2.2287793" ry="2.2287793" transform="rotate(-19.304992)" /><rect style="fill:#ffffff;fill-opacity:1;fill-rule:evenodd;stroke-width:0.264583" id="rect21612-1-4-0-45" width="15.72081" height="4.4575586" x="59.953709" y="205.18105" rx="2.2287793" ry="2.2287793" transform="rotate(-19.304992)" /></g><path id="path9733-7" style="opacity:0.285;fill:#00131c;fill-opacity:1;fill-rule:evenodd;stroke-width:0.264583" d="m 60.230404,174.02846 -9.536667,11.54512 c 6.810285,3.38948 16.031683,8.53659 25.774135,11.74599 a 29.944883,29.601658 0 0 0 2.926359,-9.97031 C 73.9261,183.844 67.936219,178.78801 60.230404,174.02846 Z m 14.163359,26.8081 c -9.408306,-0.39911 -19.605979,-2.14759 -28.615095,-3.34189 l 3.04074,16.29038 a 29.944883,29.601658 0 0 0 0.222803,0.008 c 1.262373,-0.0563 2.611331,-0.11199 3.931328,-0.16698 A 29.944883,29.601658 0 0 0 74.393763,200.8366 Z" transform="rotate(-19.304992)" /><path id="rect11187" style="fill:#bababc;fill-rule:evenodd;stroke:#ffffff;stroke-width:1.665;stroke-dasharray:none;stroke-opacity:1;paint-order:markers stroke fill" d="m 123.85032,149.38106 -5.18314,14.04824 c 10.62358,1.33352 26.90596,4.37807 40.46729,1.1405 -10.77613,6.36173 -27.50962,8.89442 -41.16544,11.73572 l 8.26409,14.38413 c 13.21494,-5.30755 30.44541,-11.59771 41.22798,-21.99917 -2.83368,12.92592 -16.15915,27.15501 -26.1891,39.25393 l 15.4311,6.08955 c 8.99808,-15.88456 22.14818,-37.14758 18.10638,-55.19146 l -5.5025,-5.63686 -2.27583,-3.01016 c -10.51685,12.62674 -22.82374,3.66022 -43.18083,-0.81442 z" /><path id="rect1723" style="fill:#8888c1;fill-opacity:1;fill-rule:evenodd;stroke-width:0.264583" d="M 100.56781,59.632672 86.307689,72.628204 93.499994,100.97435 145.11538,79.961537 137.45311,66.737289 Z" sodipodi:nodetypes="cccccc" /><path id="rect1726" style="fill:#8888c1;fill-opacity:1;fill-rule:evenodd;stroke-width:0.264583" d="m 105.13417,94.039953 15.52727,1.396084 -8.22691,16.998463 -8.69644,-1.69524 z" sodipodi:nodetypes="ccccc" /><path id="rect31021" style="fill:#77779c;fill-opacity:1;fill-rule:evenodd;stroke-width:0.264583" d="m 104.57011,100.78705 11.97787,3.14822 -2.40451,4.96821 -9.9661,-3.41865 z" sodipodi:nodetypes="ccccc" /><path id="rect344" style="fill:#bababc;fill-rule:evenodd;stroke:#ffffff;stroke-width:1.165;stroke-dasharray:none;stroke-opacity:1;paint-order:markers stroke fill" d="m 86.307689,72.628204 58.807691,7.333333 -21.85897,29.431513 -29.756413,-8.4187 z" sodipodi:nodetypes="ccccc" /><path id="rect344-0" style="opacity:0.4;fill:#8888c1;fill-opacity:1;fill-rule:evenodd;stroke-width:0.965;stroke-dasharray:none" d="m 89.859115,73.070992 -2.646351,3.12384 0.946196,3.728455 5.422408,-6.388241 z m 7.328234,0.913639 -8.13387,9.464539 0.948779,3.739307 10.928532,-12.736691 z M 104.34867,74.8776 90.693689,89.912858 91.651253,93.687821 108.135,75.349923 Z m 7.03265,0.877466 -19.00608,20.784261 0.959631,3.782713 21.823989,-24.096202 z m 7.29567,0.909505 -22.852903,24.967309 0.760715,0.21513 2.771407,0.78393 23.092651,-25.496113 z m 7.71943,0.962732 -23.75189,25.977227 1.37806,0.34675 2.17144,0.61443 23.97219,-26.468151 z m 7.81916,0.975134 -25.11771,26.784873 1.1655,0.32976 2.37058,0.67023 25.35659,-27.31409 z m 7.12876,0.888835 -26.02793,27.655388 0.94161,0.26591 2.67219,0.75602 26.18496,-28.207062 z m -7.57421,15.745809 -12.72326,13.530439 2.20969,0.62529 z" sodipodi:nodetypes="cccccccccccccccccccccccccccccccccccccccccccccccc" /><path id="path29087" style="opacity:1;fill:#27274f;stroke-width:1.265;stroke-dashoffset:11.6651;paint-order:markers stroke fill" inkscape:transform-center-x="1.3069365e-06" inkscape:transform-center-y="1.3088261" d="m 102.31708,113.05776 0.32745,-8.90002 7.00703,8.45898 z" sodipodi:nodetypes="cccc" /><path id="path29087-6" style="fill:#27274f;stroke-width:1.265;stroke-dashoffset:11.6651;paint-order:markers stroke fill" inkscape:transform-center-x="0.10390631" inkscape:transform-center-y="2.5399011" d="m 112.96548,116.30396 3.21624,-8.14369 -8.07617,2.73628 z" sodipodi:nodetypes="cccc" /><path id="rect4877-0" style="opacity:0.285;fill:#000015;fill-opacity:1;fill-rule:evenodd;stroke:none;stroke-width:0.264583;stroke-opacity:1" d="m 100.71633,128.70636 a 29.601658,29.944883 70.695008 0 0 -2.772954,0.8077 29.601658,29.944883 70.695008 0 0 -5.138705,2.38332 c 1.24411,1.04298 2.423556,2.17237 3.535702,3.36465 z m -13.293242,7.15822 a 29.601658,29.944883 70.695008 0 0 -6.98252,9.66814 c 2.332793,2.89075 4.336204,5.72716 6.006869,7.79022 l 10.507885,-8.76225 c -3.575923,-3.41689 -6.721224,-6.29413 -9.532234,-8.69611 z" /></g></svg>
