<?xml version="1.0" encoding="UTF-8" standalone="no"?>
<!-- Created with Inkscape (http://www.inkscape.org/) -->

<svg width="198.74835mm" height="199.50102mm" viewBox="0 0 198.74835 199.50102" version="1.1" id="svg1" inkscape:version="1.3 (0e150ed6c4, 2023-07-21)" sodipodi:docname="жирфа.svg" inkscape:export-filename="жирфа.png" inkscape:export-xdpi="449" inkscape:export-ydpi="449" xmlns:inkscape="http://www.inkscape.org/namespaces/inkscape" xmlns:sodipodi="http://sodipodi.sourceforge.net/DTD/sodipodi-0.dtd" xmlns="http://www.w3.org/2000/svg" xmlns:svg="http://www.w3.org/2000/svg">
  <sodipodi:namedview id="namedview1" pagecolor="#ffffff" bordercolor="#666666" borderopacity="1.0" inkscape:showpageshadow="2" inkscape:pageopacity="0.0" inkscape:pagecheckerboard="0" inkscape:deskcolor="#d1d1d1" inkscape:document-units="mm" inkscape:zoom="0.82394606" inkscape:cx="217.24723" inkscape:cy="461.19524" inkscape:current-layer="layer1" />
  <defs id="defs1">
    <inkscape:path-effect effect="bend_path" id="path-effect8" is_visible="true" lpeversion="1" bendpath="m 50.269277,183.62365 c 0,0 8.950593,24.91918 19.310375,31.66641 14.20744,9.25317 34.276068,11.82288 50.426788,6.66277 10.07898,-3.22021 23.22881,-21.63384 23.22881,-21.63384" prop_scale="1.2742248" scale_y_rel="false" vertical="false" hide_knot="false" bendpath-nodetypes="caac" />
  </defs>
  <g inkscape:label="Layer 1" inkscape:groupmode="layer" id="layer1" transform="translate(-6.6308346,-42.495056)">
    <rect style="fill:#f0d9d0;fill-opacity:1;stroke:none;stroke-width:3.39901;stroke-linecap:square;stroke-dasharray:none;stroke-opacity:1;paint-order:markers stroke fill" id="rect22" width="52.199066" height="210.86697" x="10.169944" y="36.796696" />
    <rect style="fill:#bba291;fill-opacity:1;stroke:none;stroke-width:3.03293;stroke-linecap:square;stroke-dasharray:none;stroke-opacity:1;paint-order:markers stroke fill" id="rect20" width="198.74835" height="199.50102" x="6.6308346" y="42.495056" inkscape:export-filename="жираф.png" inkscape:export-xdpi="449" inkscape:export-ydpi="449" />
    <path sodipodi:type="star" style="fill:#cbb2a5;fill-opacity:1;stroke:none;stroke-width:1.095;stroke-linecap:square;stroke-dasharray:none;stroke-opacity:1;paint-order:markers stroke fill" id="path25-3-2-0-6-2-0" inkscape:flatsided="true" sodipodi:sides="5" sodipodi:cx="16.348623" sodipodi:cy="60.626144" sodipodi:r1="35.968002" sodipodi:r2="29.098726" sodipodi:arg1="0.65107672" sodipodi:arg2="1.2793953" inkscape:rounded="0" inkscape:randomized="0" d="M 44.958713,82.424308 4.4583416,94.57196 -19.610065,59.807648 6.0152134,26.174471 45.920913,40.152335 Z" inkscape:transform-center-x="-1.3748126" inkscape:transform-center-y="-1.917132" transform="matrix(-0.10229743,0.94143578,-0.94143578,-0.10229743,90.644286,201.28983)" />
    <path sodipodi:type="star" style="fill:#cbb2a5;fill-opacity:1;stroke:none;stroke-width:1.095;stroke-linecap:square;stroke-dasharray:none;stroke-opacity:1;paint-order:markers stroke fill" id="path25-3-2-0-6-2-0-3" inkscape:flatsided="true" sodipodi:sides="5" sodipodi:cx="16.348623" sodipodi:cy="60.626144" sodipodi:r1="35.968002" sodipodi:r2="29.098726" sodipodi:arg1="0.65107672" sodipodi:arg2="1.2793953" inkscape:rounded="0" inkscape:randomized="0" d="M 44.958713,82.424308 4.4583416,94.57196 -19.610065,59.807648 6.0152134,26.174471 45.920913,40.152335 Z" inkscape:transform-center-x="1.6678908" inkscape:transform-center-y="1.6251513" transform="matrix(-0.65560778,0.68333339,-0.68333339,-0.65560778,226.6473,234.967)" />
    <path sodipodi:type="star" style="fill:#cbb2a5;fill-opacity:1;stroke:none;stroke-width:1.095;stroke-linecap:square;stroke-dasharray:none;stroke-opacity:1;paint-order:markers stroke fill" id="path25-3-2-9-1" inkscape:flatsided="true" sodipodi:sides="5" sodipodi:cx="16.348623" sodipodi:cy="60.626144" sodipodi:r1="35.968002" sodipodi:r2="29.098726" sodipodi:arg1="0.65107672" sodipodi:arg2="1.2793953" inkscape:rounded="0" inkscape:randomized="0" d="M 44.958713,82.424308 4.4583416,94.57196 -19.610065,59.807648 6.0152134,26.174471 45.920913,40.152335 Z" inkscape:transform-center-x="2.0544827" inkscape:transform-center-y="-1.8174043" transform="matrix(-0.97519017,0.53743625,-0.53743625,-0.97519017,216.05613,232.73684)" />
    <path sodipodi:type="star" style="fill:#cbb2a5;fill-opacity:1;stroke:none;stroke-width:2.89499;stroke-linecap:square;stroke-dasharray:none;stroke-opacity:1;paint-order:markers stroke fill" id="path22" inkscape:flatsided="true" sodipodi:sides="5" sodipodi:cx="97.302383" sodipodi:cy="174.75525" sodipodi:r1="73.834221" sodipodi:r2="36.91711" sodipodi:arg1="-1.0471976" sodipodi:arg2="-0.41887907" inkscape:rounded="0" inkscape:randomized="0" d="m 134.21949,110.81294 35.30366,79.2933 -64.50299,58.07876 -75.168692,-43.39866 18.046176,-84.90061 z" inkscape:transform-center-x="24.345911" inkscape:transform-center-y="-6.4929926e-06" transform="matrix(1.3189497,0,0,1.3189497,-24.176608,-87.614301)" />
    <path id="path16-4" style="fill:#efd2b9;stroke-width:21.895;stroke-linecap:square;paint-order:markers stroke fill" inkscape:transform-center-x="0.90825651" inkscape:transform-center-y="1.7111309" d="m 176.18142,183.27842 4.45162,-17.69471 -24.91127,-15.9271 -4.20745,6.73922 z" sodipodi:nodetypes="ccccc" />
    <path id="path16" style="fill:#efd2b9;stroke-width:21.895;stroke-linecap:square;paint-order:markers stroke fill" inkscape:transform-center-x="-0.90825639" inkscape:transform-center-y="1.7111309" d="m 30.313073,184.83026 -4.451621,-17.69471 24.91127,-15.9271 4.207443,6.73922 z" sodipodi:nodetypes="ccccc" />
    <path id="rect13" style="fill:#442214;stroke-width:21.895;stroke-linecap:square;paint-order:markers stroke fill" d="m 58.670502,183.13274 45.371508,24.30903 -14.771396,78.99487 -48.809836,-5.61956 z" sodipodi:nodetypes="ccccc" />
    <path id="rect13-7" style="fill:#442214;stroke-width:21.895;stroke-linecap:square;paint-order:markers stroke fill" d="m 151.06455,187.8922 -45.37151,24.30903 14.7714,78.99487 48.80983,-5.61956 z" sodipodi:nodetypes="ccccc" />
    <path id="rect12" style="fill:#7c4c3a;fill-opacity:1;stroke-width:21.895;stroke-linecap:square;paint-order:markers stroke fill" d="m 75.714062,176.91633 58.031288,5.31775 29.60915,1.30919 -21.16022,88.28253 -69.300656,5.78011 -6.674908,-95.37183 z" sodipodi:nodetypes="ccccccc" />
    <path id="path21" style="fill:#442214;stroke-width:3.195;stroke-linecap:square;paint-order:markers stroke fill" inkscape:transform-center-x="0.85577981" inkscape:transform-center-y="-2.1255631" d="m 106.94725,193.27211 1.57301,81.65222 -10.804421,9.7511 3.301601,-90.0321 z" sodipodi:nodetypes="ccccc" />
    <path id="rect11-3" style="fill:#442214;fill-opacity:1;stroke-width:21.895;stroke-linecap:square;paint-order:markers stroke fill" d="m 141.44567,171.63718 -14.79781,3.39444 -27.556133,21.08521 21.324853,9.34503 13.98403,-16.41113 16.23424,-0.29333 z" sodipodi:nodetypes="ccccccc" />
    <path id="rect11" style="fill:#442214;fill-opacity:1;stroke-width:21.895;stroke-linecap:square;paint-order:markers stroke fill" d="m 78.019633,172.09533 19.282753,2.65993 12.571034,24.40043 -13.832541,5.57217 -9.87107,-15.32545 -15.793461,-1.32481 z" sodipodi:nodetypes="ccccccc" />
    <circle style="fill:none;fill-opacity:1;stroke:#833c3a;stroke-width:28.2855;stroke-linecap:square;stroke-dasharray:none;stroke-opacity:1;paint-order:markers stroke fill" id="path8" cx="103.03039" cy="171.75441" r="50.527397" />
    <path id="path10" style="fill:#a76260;stroke-width:21.895;stroke-linecap:square;paint-order:markers stroke fill" inkscape:transform-center-x="-3.5322883" inkscape:transform-center-y="1.1957496" d="m 103.03144,107.0839 c -19.207107,0 -36.527344,8.5115 -48.402733,21.93458 61.926993,-17.92017 97.245833,0.57904 112.864943,47.65239 v 0 c 0.12403,-1.62538 0.20774,-3.26146 0.20774,-4.91701 0,-35.54876 -29.12121,-64.66996 -64.66995,-64.66996 z" sodipodi:nodetypes="scccss" />
    <path id="path10-0" style="fill:#6f292d;fill-opacity:1;stroke-width:21.895;stroke-linecap:square;paint-order:markers stroke fill" inkscape:transform-center-x="3.53229" inkscape:transform-center-y="-1.1957504" d="m 103.03019,236.42456 c 19.2071,0 36.52734,-8.5115 48.40273,-21.93458 -61.926993,17.92017 -97.245829,-0.57904 -112.864939,-47.65239 v 0 c -0.12403,1.62538 -0.20774,3.26146 -0.20774,4.91701 0,35.54876 29.121206,64.66996 64.669949,64.66996 z" sodipodi:nodetypes="scccss" />
    <path id="rect8" style="fill:#eed4c3;fill-opacity:1;stroke-width:21.895;stroke-linecap:square;paint-order:markers stroke fill" d="m 57.674311,131.58371 c 0,0 19.738777,-17.0389 31.960753,-19.85014 12.966546,-2.9825 33.976386,0.87921 48.050406,9.10553 9.92471,5.80103 22.22202,26.37325 22.22202,26.37325 l -19.26905,8.58735 c 0,0 -9.15841,-15.656 -16.74119,-19.8076 -9.7381,-5.33165 -24.250978,-6.5276 -33.013331,-4.40839 -8.63485,2.08837 -23.105251,13.28325 -23.105251,13.28325 z" sodipodi:nodetypes="csaccascc" />
    <path id="rect8-2" style="fill:#eed4c3;fill-opacity:1;stroke-width:21.895;stroke-linecap:square;paint-order:markers stroke fill" d="m 43.138756,180.02947 c 0,0 9.110781,30.35718 23.648046,39.99019 14.537265,9.63301 38.299338,13.04744 54.285728,8.07375 15.98639,-4.9737 34.67982,-28.73153 34.67982,-28.73153 l -15.01736,-9.13567 c 0,0 -12.56693,17.96952 -22.95813,20.47367 -10.39119,2.50415 -29.392853,0.98296 -40.80706,-6.75027 C 67.750822,197.70367 59.685756,175.3616 59.685756,175.3616 Z" sodipodi:nodetypes="czzcczacc" />
    <text xml:space="preserve" style="font-style:normal;font-variant:normal;font-weight:bold;font-stretch:normal;font-size:21.5922px;line-height:1.25;font-family:Calibri;-inkscape-font-specification:'Calibri, Bold';font-variant-ligatures:normal;font-variant-caps:normal;font-variant-numeric:normal;font-variant-east-asian:normal;text-align:center;letter-spacing:0px;word-spacing:0px;writing-mode:lr-tb;text-anchor:middle;fill:#833c3a;fill-opacity:1;stroke-width:1.80282" x="-20.582462" y="154.52182" id="text8" transform="rotate(-36.472936)"><tspan sodipodi:role="line" id="tspan8" style="font-style:normal;font-variant:normal;font-weight:bold;font-stretch:normal;font-size:21.5922px;font-family:Calibri;-inkscape-font-specification:'Calibri, Bold';font-variant-ligatures:normal;font-variant-caps:normal;font-variant-numeric:normal;font-variant-east-asian:normal;fill:#833c3a;fill-opacity:1;stroke-width:1.80282" x="-20.582462" y="154.52182">В</tspan></text>
    <text xml:space="preserve" style="font-style:normal;font-variant:normal;font-weight:bold;font-stretch:normal;font-size:21.5922px;line-height:1.25;font-family:Calibri;-inkscape-font-specification:'Calibri, Bold';font-variant-ligatures:normal;font-variant-caps:normal;font-variant-numeric:normal;font-variant-east-asian:normal;text-align:center;letter-spacing:0px;word-spacing:0px;writing-mode:lr-tb;text-anchor:middle;fill:#833c3a;fill-opacity:1;stroke-width:1.80282" x="194.0473" y="-25.255537" id="text8-0" transform="rotate(53.527064)"><tspan sodipodi:role="line" id="tspan8-5" style="font-style:normal;font-variant:normal;font-weight:bold;font-stretch:normal;font-size:21.5922px;font-family:Calibri;-inkscape-font-specification:'Calibri, Bold';font-variant-ligatures:normal;font-variant-caps:normal;font-variant-numeric:normal;font-variant-east-asian:normal;fill:#833c3a;fill-opacity:1;stroke-width:1.80282" x="194.0473" y="-25.255537">ЬЬ</tspan></text>
    <path id="path9" style="fill:#efd2b9;stroke-width:21.895;stroke-linecap:square;paint-order:markers stroke fill" inkscape:transform-center-x="-0.43272256" inkscape:transform-center-y="4.0868407" d="m 105.70196,191.05886 v 0 l -8.399574,-16.3036 -4.159264,-0.57374 3.303662,-47.94458 48.798106,-10.5669 -11.19813,57.66436 -7.3989,1.69722 z" sodipodi:nodetypes="ccccccccc" />
    <path id="path1" style="fill:#ffe1c7;fill-opacity:1;stroke:#bba291;stroke-width:3.195;stroke-linecap:square;stroke-dasharray:none;stroke-opacity:1;paint-order:markers stroke fill" inkscape:transform-center-x="2.1675427" inkscape:transform-center-y="-3.260732" d="m 68.076865,80.92156 43.088185,-22.26747 42.36555,25.425664 -13.96517,50.832216 -26.49002,26.52232 -38.038127,-3.2176 -3.113344,-26.27945 -8.03315,-5.37596 7.599452,-11.1902 4.940981,-7.61307 z" sodipodi:nodetypes="ccccccccccc" />
    <path id="path2" style="fill:#efd2b9;stroke-width:27.495;stroke-linecap:square;paint-order:markers stroke fill" inkscape:transform-center-x="2.7406123" inkscape:transform-center-y="-2.9599388" d="M 108.05598,92.160668 V 80.92156 L 72.254044,94.339785 68.076865,80.92156 111.16505,58.65409 153.5306,84.079754 143.11961,121.975 116.46908,99.654701 Z" sodipodi:nodetypes="ccccccccc" />
    <path id="path4-7" style="fill:#f8f4f1;stroke:#bba291;stroke-width:3.195;stroke-linecap:square;stroke-dasharray:none;stroke-opacity:1;paint-order:markers stroke fill" inkscape:transform-center-y="2.1885517" d="m 109.80203,130.10042 17.89644,-12.98506 -9.63593,-7.75985 h -16.23957 l -9.759446,7.08562 z" sodipodi:nodetypes="cccccc" />
    <path id="path5" style="fill:#262626;stroke-width:13.0242;stroke-linecap:square;paint-order:markers stroke fill" inkscape:transform-center-y="1.3955916" d="m 109.688,112.71044 -7.0655,1.4956 7.2585,9.12181 6.10939,-9.076 z" inkscape:transform-center-x="4.3929024e-06" sodipodi:nodetypes="ccccc" />
    <path id="path6" style="fill:#bba291;fill-opacity:1;stroke-width:6.71728;stroke-linecap:square;paint-order:markers stroke fill" inkscape:transform-center-x="-0.5011862" inkscape:transform-center-y="-0.9047973" d="m 118.06254,109.35551 9.63593,7.75985 -18.01047,-4.40492 -17.624473,3.73069 9.759443,-7.08562 z" sodipodi:nodetypes="cccccc" />
    <path id="rect9" style="fill:#d9c5c4;stroke-width:21.895;stroke-linecap:square;paint-order:markers stroke fill" d="m 40.460778,177.65814 23.602121,-5.29843 1.068055,2.58744 -1.821447,1.67576 1.074509,3.36334 -22.47821,5.53927 z" sodipodi:nodetypes="ccccccc" />
    <path id="rect9-2" style="fill:#d9c5c4;stroke-width:21.895;stroke-linecap:square;paint-order:markers stroke fill" d="m 157.65261,192.95868 -16.87417,-9.41541 -1.69666,2.22641 -0.19527,1.92673 -1.74159,2.7338 18.13448,12.57074 2.87691,-4.71882 z" sodipodi:nodetypes="cccccccc" />
    <path d="m 50.211254,189.3762 c -0.428766,0.17909 -0.843289,0.28908 -1.244308,0.32878 -0.400976,0.0397 -0.779109,0.003 -1.134321,-0.11033 -0.130624,-0.0419 -0.256841,-0.0957 -0.37861,-0.16134 0,0 0,0 0,0 -0.203395,-0.10968 -0.394487,-0.25271 -0.572956,-0.42928 -0.285163,-0.28214 -0.537989,-0.69801 -0.754192,-1.24803 -0.14807,-0.37669 -0.294699,-0.75494 -0.439694,-1.13481 -0.09895,-0.25923 -0.198312,-0.52248 -0.29754,-0.78995 -0.0087,-0.0234 -0.01576,-0.0466 -0.02126,-0.0696 0,0 0,0 0,0 -0.02185,-0.0915 -0.0194,-0.18252 0.0081,-0.27071 0.0088,-0.0223 0.01869,-0.0451 0.02987,-0.0682 0.004,-0.007 0.0082,-0.0148 0.0126,-0.0221 0,0 0,0 0,0 -0.319803,0.0313 2.827494,-1.43919 2.923441,-1.45871 l 3.640391,-0.74051 c 0.08982,-0.0183 2.975447,-1.32803 2.735377,-1.16531 0,0 0,0 0,0 0.007,9.1e-4 0.01391,0.002 0.0207,0.003 0.02197,0.004 0.04303,0.01 0.0632,0.0168 0.07756,0.0328 0.134283,0.0834 0.170859,0.15353 0,0 0,0 0,0 0.0071,0.0136 0.01334,0.0277 0.01885,0.0426 0.08724,0.23539 0.177222,0.47376 0.269375,0.7153 0.35665,0.93479 0.729017,1.87021 1.113283,2.80744 0.03064,0.0747 0.06133,0.14932 0.09208,0.22393 0.01411,0.0342 0.01391,0.0684 -6.12e-4,0.10243 -0.01311,0.0375 -0.04783,0.0779 -0.104153,0.12122 -0.05006,0.0448 -0.122453,0.0908 -0.217164,0.13799 -0.08842,0.0486 -0.205827,0.10327 -0.352164,0.16383 -0.136597,0.0565 -0.25579,0.0998 -0.357655,0.12983 -0.09555,0.0314 -0.179316,0.0499 -0.251329,0.0554 -0.06571,0.007 -0.118917,0.003 -0.159615,-0.013 -0.03442,-0.0141 -0.05806,-0.0368 -0.07091,-0.068 -0.03181,-0.0772 -0.06355,-0.15438 -0.09523,-0.23161 -0.357592,-0.8721 -0.705623,-1.74437 -1.041121,-2.6177 l -2.380347,0.91449 c 0.146622,0.38165 0.295383,0.76263 0.446053,1.143 0.175231,0.44238 0.263172,0.82926 0.262069,1.16329 -6.18e-4,0.18584 -0.02383,0.36521 -0.06976,0.53826 -0.03658,0.13783 -0.08758,0.27165 -0.153037,0.40148 -0.147606,0.29276 -0.364698,0.56165 -0.651691,0.80628 -0.286959,0.24461 -0.639758,0.45506 -1.058659,0.63002 0,0 7.1e-5,-3e-5 7.1e-5,-3e-5 z m -0.716774,-1.38744 c 0.210348,-0.0853 0.3885,-0.18698 0.5345,-0.30462 0.150901,-0.11962 0.265566,-0.25151 0.344106,-0.39557 0.08344,-0.14605 0.126162,-0.30867 0.128398,-0.48803 0.0037,-0.17586 -0.04491,-0.39057 -0.145125,-0.64515 -0.119256,-0.30294 -0.237357,-0.60645 -0.35419,-0.91055 l -2.757358,1.05934 c 0.122002,0.31753 0.245209,0.6341 0.369501,0.94973 0.09249,0.23486 0.198446,0.41545 0.317096,0.54175 0.120141,0.12999 0.259608,0.22221 0.418157,0.27675 0.158571,0.0546 0.335242,0.076 0.529984,0.0646 0.194754,-0.0114 0.399682,-0.061 0.614955,-0.14828 -8e-6,0 -1.6e-5,1e-5 -2.4e-5,1e-5 z m 6.865483,5.48802 c -0.520763,0.24518 -1.008812,0.40395 -1.465632,0.4747 -0.456717,0.0707 -0.876669,0.0574 -1.259898,-0.0409 -0.37835,-0.10052 -0.716442,-0.28527 -1.013077,-0.55427 -0.294964,-0.26542 -0.544486,-0.62538 -0.746049,-1.07878 -0.08503,-0.19128 -0.169634,-0.38272 -0.253811,-0.57434 l -2.99452,1.31541 c -0.04838,0.0213 -0.09746,0.0277 -0.147264,0.0192 -0.04823,-0.005 -0.09641,-0.0292 -0.144502,-0.0732 -0.04809,-0.0439 -0.09927,-0.10826 -0.153435,-0.19295 -0.05416,-0.0847 -0.112138,-0.1981 -0.173663,-0.34019 -0.05995,-0.13846 -0.102984,-0.2583 -0.129225,-0.35933 -0.02468,-0.0974 -0.03654,-0.17867 -0.03567,-0.24376 8.73e-4,-0.0651 0.01608,-0.11688 0.04556,-0.15533 0.02949,-0.0385 0.06853,-0.068 0.117101,-0.0888 l 8.478215,-3.61869 c 0.228196,-0.0974 0.415703,-0.12895 0.562272,-0.095 0.152922,0.0353 0.258485,0.12073 0.31702,0.25655 0.223188,0.51788 0.449352,1.03409 0.678586,1.54855 0.06915,0.15518 0.125152,0.30606 0.167982,0.45282 0.04924,0.14796 0.08911,0.33242 0.120169,0.55375 0.03584,0.21911 0.02499,0.46174 -0.03218,0.72862 -0.05564,0.27022 -0.165154,0.52955 -0.328816,0.77818 -0.158858,0.24636 -0.373568,0.47883 -0.644367,0.69698 -0.265973,0.21586 -0.587547,0.41314 -0.964822,0.59076 7e-6,0 1.4e-5,0 2.2e-5,-1e-5 z M 55.567925,192.126 c 0.326512,-0.14906 0.57675,-0.31315 0.750739,-0.4914 0.174049,-0.1783 0.284591,-0.34989 0.331613,-0.51491 0.04704,-0.16506 0.05281,-0.31932 0.01722,-0.46313 -0.02922,-0.14257 -0.07496,-0.28378 -0.137223,-0.42379 -0.08504,-0.19124 -0.169657,-0.38271 -0.253853,-0.57439 l -3.183039,1.39822 c 0.09094,0.20702 0.182372,0.41382 0.274305,0.62041 0.09817,0.22059 0.221525,0.38589 0.369366,0.49567 0.149445,0.11328 0.317693,0.1841 0.50452,0.21254 0.191666,0.0263 0.399394,0.0175 0.623247,-0.026 0.22867,-0.0457 0.462958,-0.12358 0.703112,-0.23322 -4e-6,1e-5 -8e-6,1e-5 -1.2e-5,1e-5 z m 2.651979,9.15921 c -0.74327,0.41385 -1.44419,0.71625 -2.107655,0.90377 -0.66319,0.18745 -1.276283,0.25591 -1.840342,0.20363 -0.559113,-0.0548 -1.059819,-0.23217 -1.499352,-0.5314 -0.432805,-0.29803 -0.791322,-0.72193 -1.070214,-1.2676 -0.224974,-0.44017 -0.362146,-0.8666 -0.412795,-1.2772 -0.01155,-0.0919 -0.0188,-0.18307 -0.02174,-0.27346 -0.0096,-0.49391 0.113599,-0.96842 0.368333,-1.42224 0.25484,-0.454 0.647998,-0.89017 1.178672,-1.3098 0.532602,-0.41629 1.206049,-0.81728 2.02077,-1.20709 0.747428,-0.35762 1.452469,-0.60999 2.11226,-0.75988 0.664708,-0.15221 1.270466,-0.19712 1.816572,-0.13652 0.546292,0.0606 1.024931,0.22694 1.437505,0.49871 0.04446,0.0295 0.088,0.0603 0.130622,0.0925 0.355636,0.26797 0.647463,0.62553 0.877954,1.07342 0.246436,0.47888 0.374391,0.94482 0.384273,1.40292 0.01159,0.4611 -0.104391,0.91382 -0.348251,1.36056 -0.241949,0.44967 -0.614779,0.89603 -1.118701,1.33723 -0.497182,0.44163 -1.133393,0.88123 -1.907913,1.31249 z m -0.858002,-1.34046 c 0.474803,-0.25418 0.891342,-0.51196 1.249358,-0.77178 0.362709,-0.26234 0.647452,-0.53145 0.854302,-0.80624 0.213332,-0.27404 0.339499,-0.5555 0.378803,-0.84473 0.044,-0.29179 -0.0157,-0.59527 -0.178873,-0.91287 -0.164874,-0.32093 -0.388383,-0.54562 -0.672352,-0.67461 -0.182989,-0.0861 -0.382268,-0.14212 -0.597955,-0.16804 0,0 0,0 0,0 0,0 0,0 0,0 0,0 0,0 0,0 0,0 0,0 -10e-7,0 -0.113312,-0.0136 -0.231179,-0.0188 -0.353603,-0.0157 -0.355185,0.009 -0.741311,0.0802 -1.157859,0.21431 -0.410136,0.13519 -0.830923,0.30875 -1.261655,0.52141 -0.501914,0.2478 -0.940175,0.49839 -1.315012,0.75305 -0.370054,0.25228 -0.663892,0.51518 -0.881289,0.78954 -0.08463,0.1068 -0.155672,0.21565 -0.213104,0.32655 0,0 0,0 0,0 -0.09025,0.17376 -0.147051,0.35254 -0.170243,0.53628 -0.03325,0.29846 0.03687,0.61913 0.211513,0.96027 0.174664,0.34118 0.406951,0.5822 0.694406,0.7217 0.287551,0.13955 0.613111,0.202 0.976101,0.18748 0.363072,-0.0145 0.749964,-0.0968 1.161402,-0.246 0.417927,-0.14825 0.84294,-0.33876 1.27606,-0.57062 0,0 10e-7,0 10e-7,0 z m 1.145471,8.87809 c -0.10934,0.0739 -0.205598,0.13405 -0.288901,0.18049 -0.07663,0.0469 -0.146791,0.0844 -0.210539,0.1126 -0.05938,0.0253 -0.114467,0.0427 -0.165291,0.0522 -0.05081,0.01 -0.115117,0.0132 -0.192887,0.011 -0.07332,-0.005 -0.186267,-0.0359 -0.338277,-0.093 -0.149796,-0.0537 -0.31457,-0.13508 -0.493769,-0.24467 -0.172489,-0.10906 -0.349571,-0.25035 -0.530393,-0.42393 -0.178585,-0.17011 -0.343149,-0.37419 -0.492626,-0.61165 -0.292388,-0.4645 -0.458718,-0.94265 -0.499515,-1.42878 -0.0408,-0.48622 0.04798,-0.96871 0.264458,-1.44523 0.221128,-0.47941 0.572692,-0.94705 1.052785,-1.40473 0.480366,-0.45793 1.09272,-0.89593 1.836088,-1.32001 0.756346,-0.43149 1.470816,-0.74188 2.138208,-0.93573 0.667692,-0.19393 1.27293,-0.28127 1.814633,-0.26443 0.541941,0.0169 1.015386,0.13292 1.422459,0.34769 0.409133,0.21795 0.737025,0.52489 0.988833,0.92386 0.102252,0.16201 0.181261,0.33002 0.237243,0.50466 0.05598,0.17464 0.09172,0.3457 0.107132,0.51367 0.0218,0.16801 0.02454,0.32995 0.008,0.48611 -0.01652,0.15621 -0.04213,0.27411 -0.07765,0.35383 -0.02912,0.0797 -0.05828,0.14026 -0.08769,0.18164 -0.02937,0.0413 -0.07169,0.0871 -0.12694,0.1374 -0.05522,0.0502 -0.123394,0.10492 -0.204487,0.16401 -0.07905,0.0621 -0.179866,0.13451 -0.302317,0.21721 -0.131251,0.0886 -0.244769,0.16092 -0.340751,0.2169 -0.09596,0.056 -0.177488,0.0955 -0.244655,0.1187 -0.06716,0.0232 -0.121064,0.0329 -0.161713,0.0292 -0.04066,-0.004 -0.07024,-0.0193 -0.08869,-0.0468 -0.03076,-0.0458 -0.03242,-0.12896 -0.0046,-0.249 0.03227,-0.12301 0.05717,-0.27145 0.07536,-0.44547 0.02459,-0.17382 0.02381,-0.36294 -0.0019,-0.56773 -0.01926,-0.20462 -0.09714,-0.41377 -0.233474,-0.62928 -0.149952,-0.23703 -0.354422,-0.40569 -0.615509,-0.50723 -0.254576,-0.10115 -0.555966,-0.13914 -0.904804,-0.11399 -0.342303,0.0256 -0.722934,0.11506 -1.141139,0.26931 -0.41811,0.15421 -0.863781,0.37135 -1.334878,0.65282 -0.51684,0.3088 -0.94229,0.6145 -1.276403,0.92004 -0.327409,0.30604 -0.568805,0.60573 -0.723844,0.89978 -0.152913,0.29735 -0.225765,0.588 -0.218206,0.87119 0.01415,0.28373 0.104382,0.5578 0.270649,0.82008 0.151142,0.23842 0.318897,0.42125 0.501554,0.54793 0.187127,0.12381 0.364857,0.21694 0.532594,0.27976 0.169906,0.0662 0.31576,0.11392 0.437054,0.14379 0.123563,0.0332 0.199756,0.0712 0.22875,0.11438 0.02229,0.0332 0.03138,0.0657 0.02725,0.0975 -0.0041,0.0317 -0.02793,0.072 -0.07141,0.12066 -0.04354,0.0487 -0.111172,0.10897 -0.20286,0.18064 -0.08729,0.0687 -0.209741,0.15634 -0.367131,0.26271 3.1e-5,-2e-5 6.3e-5,-4e-5 9.4e-5,-6e-5 z m 4.287543,6.69597 c -0.099,0.17067 -0.182437,0.29926 -0.252438,0.38641 -0.06984,0.0869 -0.143166,0.13275 -0.220575,0.13701 -0.07353,6.2e-4 -0.159676,-0.0416 -0.257174,-0.1269 -0.101032,-0.0815 -0.23021,-0.20409 -0.383469,-0.3672 -0.159249,-0.16948 -0.278985,-0.30815 -0.359124,-0.41193 -0.08153,-0.0973 -0.136491,-0.17848 -0.165435,-0.24294 -0.02513,-0.0679 -0.03047,-0.12582 -0.01638,-0.17374 0.0141,-0.0479 0.04128,-0.10112 0.08151,-0.15958 0.391872,-0.59616 0.79327,-1.18491 1.203117,-1.76674 -0.657594,-0.77611 -1.271175,-1.57026 -1.848729,-2.36795 -0.638662,0.26133 -1.279242,0.51762 -1.920889,0.76942 -0.06973,0.0297 -0.134444,0.048 -0.194148,0.0551 -0.05298,0.007 -0.110255,-0.005 -0.171639,-0.0381 -0.05469,-0.0324 -0.118254,-0.0916 -0.189986,-0.1776 -0.06931,-0.0825 -0.153968,-0.19725 -0.252188,-0.34341 -0.02381,-0.0354 -0.04604,-0.0694 -0.06671,-0.10173 0,0 0,0 0,0 -0.07416,-0.11131 -0.129902,-0.20511 -0.167371,-0.28096 -0.04847,-0.0981 -0.06035,-0.18084 -0.03594,-0.24798 0.02876,-0.0702 0.09243,-0.13133 0.190842,-0.18378 0.09851,-0.0525 0.237706,-0.11043 0.417931,-0.17451 0.594956,-0.20923 1.187947,-0.42249 1.778883,-0.6399 2.34031,-0.86636 4.67712,-1.78749 6.963955,-2.79433 0.08495,-0.0371 0.157055,-0.0604 0.216299,-0.0699 0.06353,-0.0127 0.123613,-0.004 0.180235,0.0274 0.06303,0.0305 0.128854,0.0865 0.1976,0.16778 0.07313,0.0783 0.162217,0.18587 0.268362,0.32273 0.12266,0.15816 0.215943,0.2852 0.28049,0.3838 0.06873,0.095 0.110405,0.17684 0.125162,0.24636 0.02106,0.0686 0.01747,0.13166 -0.01081,0.18933 -0.02625,0.0603 -0.07191,0.13028 -0.136891,0.20993 -1.922529,2.45443 -3.707486,5.03083 -5.254497,7.77396 z m 3.397387,-7.57964 c -0.0011,-0.001 -0.0022,-0.003 -0.0033,-0.004 -1.352776,0.63684 -2.727001,1.24109 -4.113475,1.81884 0.4307,0.58308 0.877748,1.16054 1.344583,1.72614 0.893303,-1.208 1.820712,-2.38674 2.772172,-3.54076 z m 2.949267,13.0329 c -0.02663,0.0456 -0.06327,0.0792 -0.109986,0.1007 -0.04044,0.0191 -0.09463,0.0242 -0.162541,0.0149 -0.06789,-0.009 -0.151854,-0.0372 -0.251614,-0.0841 -0.09877,-0.0402 -0.217246,-0.1015 -0.35473,-0.18422 -0.137494,-0.0827 -0.249014,-0.1598 -0.334433,-0.2305 -0.0846,-0.064 -0.146871,-0.12407 -0.186839,-0.17975 -0.03639,-0.0535 -0.05551,-0.1026 -0.05748,-0.14728 8.19e-4,-0.0491 0.01524,-0.0961 0.04319,-0.14088 l 2.857737,-4.57964 c 0.108942,-0.17458 0.216721,-0.34372 0.32323,-0.50737 0.109284,-0.1681 0.207635,-0.31519 0.29487,-0.44107 -0.0032,-0.002 -0.0063,-0.004 -0.0095,-0.006 -0.06409,0.0468 -0.14064,0.10217 -0.228475,0.16514 -0.08517,0.0586 -0.178117,0.1219 -0.278469,0.18952 -0.09442,0.0652 -0.195101,0.13269 -0.302012,0.20231 -0.104111,0.0652 -0.207061,0.1279 -0.308829,0.18813 -0.285845,0.17582 -0.573607,0.34975 -0.863286,0.52175 -1.422863,0.82369 -2.963661,1.4978 -4.585491,2.05122 -0.06642,0.02 -0.12974,0.0322 -0.189884,0.0366 -0.05647,0.007 -0.119005,-4.6e-4 -0.187398,-0.024 -0.0613,-0.0244 -0.130297,-0.0659 -0.206406,-0.12456 -0.07579,-0.0515 -0.170022,-0.12629 -0.280868,-0.22418 -0.139404,-0.12312 -0.245531,-0.22962 -0.318816,-0.31757 -0.07697,-0.0842 -0.130387,-0.15863 -0.160694,-0.22259 -0.02687,-0.0608 -0.03421,-0.1145 -0.02234,-0.16102 0.01188,-0.0465 0.03786,-0.0907 0.0778,-0.13269 l 6.663646,-7.00116 c 0.03632,-0.0382 0.07372,-0.0642 0.112053,-0.0783 0.04415,-0.0158 0.09144,-0.0176 0.141849,-0.006 0.0526,0.0139 0.109299,0.0426 0.170438,0.0854 0.06478,0.0391 0.137923,0.0962 0.220533,0.17064 0.08474,0.0764 0.149266,0.1433 0.193841,0.20267 0.04793,0.0553 0.08004,0.10662 0.09628,0.15465 0.01623,0.048 0.01772,0.0937 0.0043,0.13712 -0.01008,0.0394 -0.03177,0.0795 -0.0652,0.11999 l -3.4413,4.17222 c -0.106976,0.1297 -0.222294,0.26641 -0.345812,0.4097 -0.12359,0.14337 -0.245431,0.28126 -0.365759,0.41369 0.0032,0.003 0.0064,0.005 0.0097,0.008 0.15881,-0.0782 0.340167,-0.16453 0.564706,-0.27192 0.220804,-0.10559 0.439415,-0.20724 0.655743,-0.30524 1.035504,-0.49104 2.02125,-1.048 2.944588,-1.68079 0.693478,-0.43445 1.375407,-0.88034 2.045815,-1.33722 0.04852,-0.032 0.09426,-0.0563 0.137236,-0.073 0.04577,-0.0212 0.09469,-0.0312 0.146798,-0.03 0.05505,0.003 0.114733,0.0181 0.179165,0.0453 0.06447,0.0272 0.142336,0.0686 0.234057,0.12413 0.112437,0.0681 0.1988,0.12891 0.259157,0.18326 0.06598,0.0516 0.113201,0.10092 0.141613,0.14833 0.02841,0.0474 0.0395,0.0937 0.03318,0.13886 -6.71e-4,0.0424 -0.01561,0.0887 -0.04487,0.13877 -1.629494,2.78921 -3.258988,5.57842 -4.888482,8.36763 z m 5.77142,-11.36151 c -0.150608,0.24804 -0.322098,0.47084 -0.515989,0.66757 -0.191132,0.19221 -0.401932,0.33806 -0.633322,0.43634 -0.225658,0.0955 -0.471847,0.13098 -0.737619,0.10468 -0.147882,-0.0138 -0.300132,-0.0538 -0.456088,-0.12047 -0.09723,-0.0309 -0.194959,-0.0779 -0.292268,-0.14125 -0.215911,-0.14057 -0.365228,-0.31744 -0.44459,-0.51594 -0.07949,-0.19883 -0.103337,-0.41095 -0.07238,-0.63108 0.0364,-0.22285 0.123631,-0.45241 0.259781,-0.68962 0.139696,-0.24141 0.315767,-0.4811 0.526274,-0.7236 0.05166,-0.0595 0.09755,-0.10322 0.137376,-0.13115 0.04503,-0.0303 0.08925,-0.0474 0.132614,-0.0514 0.04337,-0.004 0.08757,0.006 0.132749,0.0309 0.05035,0.022 0.104905,0.0573 0.164219,0.10515 0.05579,0.045 0.09701,0.0871 0.124008,0.12764 0.02696,0.0405 0.0405,0.0802 0.0406,0.11959 9.5e-5,0.0394 -0.01219,0.0826 -0.03693,0.12954 -0.01977,0.0441 -0.05032,0.0935 -0.09169,0.14789 -0.07644,0.10052 -0.139824,0.20055 -0.18968,0.30093 -0.04796,0.10171 -0.07991,0.19853 -0.0956,0.29063 -0.01061,0.0892 -0.0049,0.17333 0.01714,0.25188 0.02208,0.0785 0.06627,0.13923 0.131628,0.18075 0.06338,0.0403 0.134414,0.0559 0.212068,0.0467 0.03889,-0.007 0.07748,-0.0171 0.115773,-0.0315 0.05013,-0.008 0.0992,-0.0202 0.147183,-0.0378 0.09835,-0.0365 0.189824,-0.0935 0.274552,-0.17071 0.09033,-0.0798 0.172368,-0.17756 0.246505,-0.29306 0.03422,-0.0533 0.06961,-0.0964 0.106105,-0.12938 0.03649,-0.0329 0.07818,-0.0531 0.125042,-0.0605 0.04959,-0.006 0.104335,0.001 0.16435,0.021 0.06275,0.0214 0.134805,0.058 0.216533,0.1097 0.09809,0.062 0.174494,0.11906 0.229231,0.17173 0.06021,0.0499 0.101359,0.10006 0.12338,0.15082 0.02202,0.0507 0.0263,0.10286 0.01273,0.15636 -0.0081,0.0507 -0.0326,0.10992 -0.07368,0.17758 -3e-6,1e-5 -6e-6,3e-5 -9e-6,4e-5 z m -4.492899,0.15126 z m 7.328685,12.59545 c -0.385042,0.48138 -0.734088,0.86547 -1.044465,1.15327 -0.306657,0.28943 -0.598756,0.49817 -0.875107,0.62665 -0.270402,0.12524 -0.534599,0.17743 -0.790931,0.15662 -0.254573,-0.0143 -0.524218,-0.0857 -0.806962,-0.21496 -0.103164,-0.0472 -0.199917,-0.10334 -0.290117,-0.16845 -0.09244,-0.0603 -0.175655,-0.1253 -0.249576,-0.195 -0.07392,-0.0697 -0.133994,-0.13894 -0.18027,-0.20758 -0.04627,-0.0686 -0.07648,-0.1269 -0.09077,-0.17462 -0.01429,-0.0477 -0.02172,-0.0951 -0.02233,-0.14219 0.0054,-0.05 0.01848,-0.11099 0.03917,-0.18298 0.02068,-0.072 0.05125,-0.15963 0.09173,-0.26305 0.04652,-0.1064 0.106297,-0.23555 0.179391,-0.38767 0.132387,-0.27553 0.240928,-0.46353 0.324876,-0.56345 0.08999,-0.10303 0.16771,-0.13887 0.233568,-0.10749 0.03293,0.0157 0.06159,0.0497 0.08612,0.10223 0.02452,0.0524 0.05536,0.11079 0.09257,0.1749 0.04089,0.0659 0.09043,0.13277 0.148665,0.20064 0.06414,0.0648 0.148091,0.12122 0.251735,0.16891 0.07773,0.0358 0.154392,0.0592 0.229841,0.0703 0.07763,0.006 0.160225,-0.008 0.247609,-0.0441 0.08739,-0.0358 0.185447,-0.0958 0.293922,-0.18021 0.110612,-0.0892 0.23969,-0.21074 0.386692,-0.36483 0.144076,-2.43682 0.386132,-4.8493 0.728606,-7.23067 0.02837,-0.16826 0.06056,-0.29971 0.09582,-0.39395 0.04077,-0.0975 0.09293,-0.16283 0.15617,-0.19615 0.06329,-0.0334 0.141982,-0.0355 0.236326,-0.007 0.09992,0.0255 0.224605,0.0747 0.375073,0.14712 0.147423,0.0709 0.262745,0.13136 0.346547,0.18251 0.08366,0.0511 0.144561,0.10567 0.182694,0.16415 0.04035,0.0537 0.06042,0.11819 0.06018,0.19359 0.002,0.0706 -0.0048,0.16043 -0.02022,0.26943 -0.142118,1.07237 -0.265156,2.15038 -0.369311,3.23346 -0.03092,0.34927 -0.06495,0.69678 -0.10244,1.04257 -0.03539,0.3409 -0.07461,0.68568 -0.117783,1.03421 0.0053,0.002 0.01067,0.005 0.01601,0.007 0.209407,-0.29501 0.417063,-0.5796 0.622779,-0.85366 0.211516,-0.27779 0.434129,-0.56715 0.66864,-0.87022 0.658259,-0.86396 1.302892,-1.73606 1.933955,-2.61591 0.0436,-0.0622 0.08622,-0.1078 0.127845,-0.13679 0.04356,-0.0339 0.09625,-0.0529 0.158076,-0.0571 0.06185,-0.004 0.139313,0.009 0.232654,0.0393 0.09535,0.0255 0.216264,0.0662 0.363767,0.12186 0.150758,0.0569 0.267647,0.10866 0.351006,0.15629 0.08327,0.0476 0.136554,0.10077 0.159777,0.15989 0.02505,0.0541 0.02244,0.11772 -0.008,0.19091 -0.03045,0.0731 -0.08237,0.16389 -0.155916,0.27191 -1.364049,1.9358 -2.796369,3.83408 -4.297581,5.69014 z m 9.416857,-3.79278 c -0.0386,0.1484 -0.07706,0.27489 -0.115529,0.37963 -0.03363,0.10052 -0.06787,0.18172 -0.102771,0.24365 -0.03357,0.0568 -0.06844,0.0969 -0.1046,0.1202 -0.03265,0.0242 -0.06483,0.0322 -0.09647,0.0239 -0.569546,-0.15006 -1.13651,-0.30842 -1.700528,-0.47517 l -2.349781,7.92691 c -0.01503,0.0507 -0.04247,0.0922 -0.08238,0.12434 -0.03594,0.0334 -0.0876,0.0538 -0.155004,0.0612 -0.06738,0.007 -0.155282,0.003 -0.263536,-0.0135 -0.104228,-0.0152 -0.232255,-0.0462 -0.383546,-0.0933 -0.151298,-0.0471 -0.276326,-0.0949 -0.374846,-0.14281 -0.09457,-0.0467 -0.167573,-0.0923 -0.218977,-0.13665 -0.05142,-0.0443 -0.08445,-0.0912 -0.09917,-0.14034 -0.01076,-0.0479 -0.008,-0.097 0.0083,-0.14727 l 2.546269,-7.86289 c -0.558976,-0.18049 -1.114711,-0.36943 -1.666839,-0.56691 -0.03408,-0.0122 -0.05768,-0.0375 -0.07075,-0.0759 -0.01307,-0.0384 -0.01732,-0.0904 -0.01272,-0.15611 0.0064,-0.0707 0.02255,-0.15745 0.04843,-0.26038 0.03107,-0.1067 0.07274,-0.23192 0.125004,-0.37587 0.05404,-0.14885 0.103361,-0.27426 0.147816,-0.37605 0.0478,-0.10061 0.09077,-0.17775 0.128882,-0.23135 0.03992,-0.0586 0.07591,-0.0961 0.107991,-0.11265 0.03388,-0.0215 0.06732,-0.0264 0.100362,-0.0146 1.506888,0.53805 3.042957,1.01104 4.600091,1.42086 0.03073,0.008 0.05401,0.0306 0.0699,0.0675 0.02064,0.0327 0.03084,0.0846 0.03063,0.1555 0.0011,0.0658 -0.0089,0.15342 -0.02994,0.26262 -0.01763,0.11008 -0.04638,0.24196 -0.0863,0.39542 -10e-7,0 -2e-6,0 -4e-6,0 z m 6.125107,5.45604 c -0.120143,0.84233 -0.303461,1.58338 -0.557701,2.22494 -0.254091,0.64119 -0.574656,1.17027 -0.965164,1.58581 -0.389447,0.41006 -0.844694,0.69817 -1.363979,0.86056 -0.513976,0.15778 -1.087291,0.17717 -1.711669,0.0535 -0.616188,-0.12202 -1.133133,-0.33823 -1.545344,-0.64147 -0.407293,-0.30771 -0.710398,-0.70775 -0.908311,-1.19609 -0.198071,-0.48874 -0.288514,-1.07208 -0.274143,-1.75032 0.01826,-0.6779 0.142417,-1.45205 0.36651,-2.32875 0.205389,-0.80352 0.464748,-1.5079 0.769796,-2.11187 0.306481,-0.60938 0.654472,-1.10652 1.040246,-1.49195 0.386069,-0.38572 0.805934,-0.65422 1.261533,-0.80757 0.459451,-0.15269 0.951607,-0.17497 1.485194,-0.0697 0.509378,0.10047 0.939995,0.28386 1.297,0.55537 0.360204,0.2719 0.640517,0.63894 0.841853,1.10384 0.20473,0.46509 0.330839,1.03214 0.375355,1.70032 0.0489,0.66293 0.01399,1.43585 -0.111176,2.31338 z m -1.5876,-0.13344 c 0.08879,-0.53141 0.139142,-1.01908 0.152732,-1.46136 0.01447,-0.44758 -0.02334,-0.83761 -0.111852,-1.16934 -0.08402,-0.33645 -0.225775,-0.60849 -0.425021,-0.81692 -0.198438,-0.21377 -0.467536,-0.35299 -0.809625,-0.42065 -0.345633,-0.0684 -0.652903,-0.0324 -0.925605,0.10966 -0.271427,0.13682 -0.514233,0.34619 -0.728391,0.62893 -0.214075,0.28263 -0.401277,0.62815 -0.559769,1.03655 -0.153659,0.4041 -0.285193,0.8407 -0.39259,1.30957 -0.125195,0.54656 -0.207798,1.04509 -0.246143,1.49756 -0.03716,0.44718 -0.01668,0.84186 0.06296,1.18475 0.07961,0.34272 0.228358,0.62437 0.446458,0.84379 0.219054,0.21411 0.522842,0.36109 0.909036,0.43735 0.386213,0.0763 0.727377,0.0432 1.019828,-0.0969 0.292621,-0.14011 0.545646,-0.35859 0.75906,-0.65426 0.213483,-0.29576 0.386283,-0.65226 0.520293,-1.06927 0.138762,-0.42158 0.24761,-0.87466 0.328623,-1.3595 10e-7,0 2e-6,0 2e-6,0 z m 8.45628,5.73553 c -0.002,0.0529 -0.0159,0.1 -0.0422,0.14134 -0.0262,0.0361 -0.0708,0.0663 -0.133957,0.0904 -0.06314,0.0241 -0.148918,0.0394 -0.257199,0.0455 -0.104294,0.0116 -0.235436,0.0139 -0.392996,0.007 -0.157557,-0.007 -0.289935,-0.0219 -0.396808,-0.0434 -0.103035,-0.016 -0.184899,-0.039 -0.245507,-0.0689 -0.0606,-0.0299 -0.104288,-0.0642 -0.131099,-0.1028 -0.02237,-0.0436 -0.03199,-0.0919 -0.02893,-0.14465 l 0.478704,-8.24022 c -0.877082,-0.0507 -1.753499,-0.11984 -2.628208,-0.20687 l -0.824639,8.20868 c -0.0053,0.0526 -0.0244,0.0985 -0.05741,0.13753 -0.02838,0.0343 -0.07476,0.0614 -0.139168,0.0812 -0.0644,0.0198 -0.148651,0.0296 -0.252625,0.029 -0.104482,0.005 -0.237134,-0.002 -0.397458,-0.0202 -0.156221,-0.0178 -0.286917,-0.0411 -0.391805,-0.0695 -0.101429,-0.0227 -0.18134,-0.0511 -0.239669,-0.0849 -0.05834,-0.0338 -0.09751,-0.0706 -0.117569,-0.11038 -0.01942,-0.045 -0.02586,-0.0937 -0.01939,-0.14611 l 1.141489,-9.25276 c 0.02715,-0.22006 0.08453,-0.37809 0.171397,-0.47401 0.08757,-0.10123 0.192752,-0.14463 0.3161,-0.13049 1.506958,0.17279 3.019558,0.2919 4.53198,0.35452 0.12733,0.005 0.2242,0.0644 0.29111,0.17798 0.067,0.10816 0.0971,0.27329 0.0894,0.49511 -0.10783,3.10912 -0.21567,6.21823 -0.3235,9.32734 z m 8.2882,-0.73438 c 0.0663,0.18494 0.1109,0.33167 0.13338,0.44106 0.0224,0.10927 0.0137,0.1949 -0.0267,0.25694 -0.0409,0.0568 -0.11907,0.0958 -0.23449,0.11652 -0.11483,0.0259 -0.27453,0.0477 -0.47815,0.0641 -0.21182,0.0171 -0.37912,0.0242 -0.50022,0.0225 -0.11678,0.003 -0.20716,-0.004 -0.27092,-0.0205 -0.0641,-0.0221 -0.11,-0.0534 -0.13768,-0.0939 -0.0277,-0.0405 -0.052,-0.0944 -0.0729,-0.16189 -0.22438,-0.67333 -0.44315,-1.34785 -0.65632,-2.02348 -0.9749,0.0556 -1.95073,0.0888 -2.92643,0.10008 -0.15718,0.67041 -0.31938,1.3403 -0.48658,2.00961 -0.0163,0.0741 -0.0389,0.13757 -0.0678,0.19053 -0.0248,0.0476 -0.0683,0.0874 -0.13059,0.11919 -0.0581,0.0265 -0.14341,0.0451 -0.25571,0.0553 -0.10801,0.0103 -0.2518,0.015 -0.43047,0.0134 -0.19114,-0.002 -0.34095,-0.0117 -0.44861,-0.0292 -0.10779,-0.0175 -0.18189,-0.0559 -0.22225,-0.1148 -0.0403,-0.0642 -0.0529,-0.15171 -0.0384,-0.26244 0.0146,-0.11085 0.0484,-0.25802 0.10109,-0.44222 0.87468,-3.01891 1.64094,-6.05428 2.29479,-9.09935 0.0197,-0.0902 0.0432,-0.16196 0.0704,-0.21532 0.0272,-0.0587 0.0705,-0.10175 0.12993,-0.12934 0.0629,-0.033 0.14878,-0.0534 0.25793,-0.0614 0.10918,-0.0133 0.25309,-0.0225 0.43287,-0.0283 0.20805,-0.007 0.37305,-0.008 0.49697,-0.003 0.1234,-1e-5 0.21918,0.0141 0.28761,0.0429 0.0717,0.0231 0.12307,0.0629 0.15421,0.11951 0.0346,0.0565 0.0652,0.13432 0.0916,0.23345 0.86468,2.98963 1.84155,5.95865 2.93343,8.8997 z m -3.91256,-7.28844 c -0.002,6e-5 -0.004,1.2e-4 -0.005,1.7e-4 -0.28506,1.46315 -0.59504,2.92461 -0.92953,4.38368 0.71879,-0.012 1.43741,-0.0362 2.1554,-0.0727 -0.43154,-1.4326 -0.83831,-2.86988 -1.22059,-4.31111 z m 13.85611,0.97632 c 0.2335,0.82296 0.37092,1.57489 0.40483,2.26182 0.0339,0.68644 -0.0414,1.29202 -0.23008,1.81726 -0.18451,0.52375 -0.48031,0.96237 -0.88668,1.31135 -0.40321,0.34259 -0.91892,0.58499 -1.53985,0.71874 -0.5674,0.12222 -1.08842,0.12636 -1.55579,0.0165 -0.46766,-0.10996 -0.8831,-0.33091 -1.24414,-0.65977 -0.35808,-0.33496 -0.66055,-0.77444 -0.90965,-1.31716 -0.24612,-0.54892 -0.43952,-1.19592 -0.58603,-1.94247 -0.38198,0.0589 -0.76455,0.11406 -1.14764,0.16543 l 0.5535,4.13412 c 0.007,0.0523 -0.001,0.10137 -0.0245,0.14705 -0.0199,0.0399 -0.0592,0.0771 -0.11783,0.11154 -0.0586,0.0344 -0.13912,0.0636 -0.24139,0.0873 -0.10155,0.0289 -0.23338,0.0536 -0.39509,0.0733 -0.15757,0.0192 -0.29137,0.027 -0.40097,0.0237 -0.10489,0.002 -0.18994,-0.008 -0.25501,-0.0268 -0.0651,-0.0193 -0.11407,-0.0458 -0.14704,-0.0794 -0.0294,-0.0392 -0.0469,-0.0851 -0.0525,-0.13764 l -1.03845,-9.651 c -0.006,-0.0525 6e-5,-0.0983 0.0171,-0.13718 0.0199,-0.0446 0.0546,-0.0828 0.10409,-0.11477 0.0529,-0.0324 0.1223,-0.0586 0.2082,-0.0789 0.0853,-0.0256 0.19393,-0.046 0.32611,-0.0618 0.13566,-0.0162 0.2477,-0.0221 0.33661,-0.0174 0.0882,-4.9e-4 0.16001,0.009 0.21558,0.0283 0.0555,0.0194 0.0966,0.0486 0.12305,0.0877 0.0292,0.0334 0.0474,0.0762 0.0544,0.12852 l 0.50939,3.80465 c 0.38143,-0.051 0.76227,-0.10584 1.14244,-0.16457 -0.0486,-0.65933 -0.035,-1.26271 0.0364,-1.80791 0.0742,-0.55119 0.20881,-1.03058 0.40188,-1.43814 0.19668,-0.40842 0.45438,-0.74376 0.77377,-1.00867 0.31963,-0.26508 0.70572,-0.44459 1.16352,-0.54397 0.47813,-0.10378 0.92442,-0.1002 1.34723,0.0133 0.42243,0.11338 0.81645,0.3436 1.18493,0.69287 0.37018,0.34288 0.71371,0.80975 1.02707,1.40086 0.31657,0.58952 0.60092,1.31166 0.84255,2.16331 z m -1.50593,0.51783 c -0.13011,-0.51626 -0.28108,-0.98186 -0.45009,-1.39593 -0.16539,-0.41506 -0.35406,-0.75979 -0.56393,-1.03399 -0.20767,-0.28035 -0.43996,-0.4794 -0.69702,-0.59804 -0.25846,-0.12388 -0.54703,-0.15001 -0.8697,-0.0803 -0.33669,0.0727 -0.59444,0.22475 -0.77604,0.45986 -0.18247,0.22975 -0.31085,0.51481 -0.38453,0.85597 -0.07,0.34035 -0.0951,0.726 -0.0734,1.15613 0.0245,0.42429 0.0782,0.87043 0.16304,1.33731 0.0622,0.34254 0.13291,0.66728 0.21271,0.97444 0.0788,0.30198 0.17152,0.5798 0.27876,0.83358 0.10723,0.25375 0.22845,0.48057 0.36415,0.68039 0.13567,0.19982 0.28965,0.36098 0.46207,0.48317 0.17239,0.12216 0.36512,0.2049 0.57769,0.24759 0.21252,0.0427 0.44737,0.0368 0.70301,-0.0186 0.37156,-0.0804 0.65866,-0.24059 0.85847,-0.47662 0.20393,-0.23712 0.33972,-0.53014 0.40783,-0.87794 0.0681,-0.34796 0.0794,-0.73903 0.0356,-1.17401 -0.0439,-0.43499 -0.12741,-0.89222 -0.24862,-1.3731 1e-5,1e-5 2e-5,3e-5 3e-5,4e-5 z m 16.04431,0.0161 c 0.0336,0.0407 0.0521,0.0837 0.0553,0.12909 0.007,0.0426 -0.004,0.0923 -0.0312,0.14926 0,0 0,0 0,0 0,0 0,0 0,0 0,0 -2e-5,5e-5 -2e-5,5e-5 -0.0249,0.0571 -0.0711,0.12228 -0.13926,0.19544 -0.0681,0.0731 -0.16007,0.15946 -0.27662,0.25839 -0.10999,0.0934 -0.20816,0.16506 -0.29297,0.21486 -0.0816,0.054 -0.15336,0.0889 -0.2147,0.10479 -0.0546,0.0172 -0.10394,0.0197 -0.14773,0.007 -0.0403,-0.015 -0.0769,-0.0434 -0.10971,-0.085 l -1.50024,-1.90514 c -2.33547,1.87557 -5.17371,3.66982 -8.64024,4.8616 -0.005,0.002 -0.01,0.003 -0.0149,0.005 -0.14083,0.0446 -0.26955,0.0294 -0.38539,-0.0452 -0.1175,-0.0797 -0.20859,-0.22555 -0.27422,-0.43736 l -2.7632,-8.91632 c -0.0156,-0.0504 -0.0189,-0.0964 -0.01,-0.13791 0.0123,-0.0426 0.0401,-0.0817 0.0834,-0.11759 0.0417,-0.0409 0.10226,-0.0795 0.18158,-0.11601 0.017,-0.009 0.035,-0.0181 0.0539,-0.0271 0.0495,-0.0236 0.1084,-0.0454 0.17726,-0.0663 0.0907,-0.0276 0.16772,-0.0448 0.23229,-0.0502 0.0651,-0.0111 0.12079,-0.0115 0.16737,-4.6e-4 0.0447,0.006 0.0813,0.0233 0.10969,0.052 0.0309,0.0277 0.0562,0.0659 0.0755,0.11481 l 3.03952,7.68944 c 0.84969,-0.34137 1.66032,-0.72646 2.4346,-1.14397 l -3.9821,-7.25998 c -0.0253,-0.0461 -0.0392,-0.0898 -0.0417,-0.13079 3e-5,-0.0425 0.0126,-0.0831 0.0378,-0.12201 0.0252,-0.045 0.0667,-0.0906 0.12478,-0.13734 0.0555,-0.0513 0.12869,-0.10462 0.22018,-0.16106 0.0916,-0.0565 0.17194,-0.0979 0.24167,-0.12359 0.0695,-0.0318 0.13049,-0.0492 0.18318,-0.0519 0.0498,-0.007 0.0925,-3.4e-4 0.12788,0.0207 0.0379,0.0194 0.0712,0.0513 0.0996,0.0959 l 4.46355,7.01148 c 0.72972,-0.45631 1.4247,-0.93778 2.08769,-1.43303 l -4.9927,-6.68107 c -0.0317,-0.0425 -0.0506,-0.0846 -0.0568,-0.12647 -0.003,-0.0438 0.009,-0.0893 0.0361,-0.13656 0.0243,-0.0515 0.0655,-0.10577 0.12372,-0.16314 0.0577,-0.0636 0.13651,-0.13345 0.23685,-0.21015 0.0977,-0.0747 0.18424,-0.13122 0.25969,-0.1693 0.0749,-0.0443 0.14125,-0.0722 0.199,-0.0834 0.0545,-0.0153 0.10296,-0.016 0.14545,-0.002 0.0425,0.014 0.0803,0.0416 0.11341,0.0829 l 5.20356,6.4967 c 0.17297,-0.14139 0.34361,-0.28326 0.51196,-0.42538 0.0463,-0.0391 0.0915,-0.0636 0.13561,-0.0734 0.033,-0.007 0.0654,-0.007 0.0972,0.002 0.0782,0.0175 0.1679,0.0873 0.26876,0.2093 0.7819,0.94612 1.56379,1.89224 2.34569,2.83836 z m 2.28359,-6.43397 c 0.10767,0.10892 0.19423,0.20519 0.25972,0.28895 0.0647,0.0771 0.11204,0.14535 0.14196,0.20484 0.0299,0.0595 0.0443,0.11202 0.0431,0.15759 -0.002,0.039 -0.0161,0.0714 -0.0425,0.0973 -0.95328,0.93484 -1.93932,1.85367 -2.96302,2.74895 -0.10396,0.0909 -0.22549,0.13002 -0.36377,0.11706 -0.1387,-0.0197 -0.2834,-0.11785 -0.43488,-0.29396 l -5.82315,-6.77025 c -0.15138,-0.17599 -0.23045,-0.32741 -0.23769,-0.45349 -0.008,-0.1325 0.0312,-0.23632 0.1181,-0.31222 0.8507,-0.74307 1.68463,-1.52266 2.50659,-2.33137 0.0229,-0.0225 0.0525,-0.0331 0.0888,-0.0319 0.0363,0.001 0.085,0.02 0.1459,0.0563 0.0572,0.0325 0.12555,0.0838 0.20482,0.15391 0.0781,0.0638 0.17291,0.15207 0.28421,0.26475 0.10391,0.1052 0.18908,0.19913 0.25555,0.28195 0.0653,0.0765 0.11374,0.14369 0.14525,0.20164 0.0315,0.058 0.0493,0.1072 0.0532,0.14773 3.2e-4,0.0368 -0.0113,0.0667 -0.0347,0.0898 -0.60217,0.59205 -1.21212,1.17029 -1.83162,1.732 l 1.67984,1.85368 c 0.54721,-0.49595 1.08576,-1.00256 1.61672,-1.51816 0.0244,-0.0237 0.0572,-0.0335 0.0983,-0.0293 0.0401,-0.002 0.0891,0.0127 0.14691,0.0448 0.0542,0.0283 0.12086,0.0776 0.20005,0.14783 0.0782,0.0638 0.16905,0.14857 0.27234,0.2543 0.10702,0.10954 0.19143,0.20415 0.25328,0.28399 0.0646,0.0771 0.11209,0.14512 0.14249,0.20398 0.0267,0.0551 0.0382,0.10287 0.0344,0.14332 -9.9e-4,0.0378 -0.014,0.0689 -0.039,0.0931 -0.54321,0.52718 -1.09517,1.04611 -1.65697,1.55515 l 1.94033,2.14113 c 0.70111,-0.635 1.38526,-1.28209 2.05427,-1.93852 0.0258,-0.0253 0.0599,-0.0366 0.10218,-0.0338 0.0415,-0.004 0.0916,0.01 0.15049,0.0408 0.0589,0.031 0.12831,0.0812 0.20826,0.15059 0.0791,0.0628 0.17262,0.14867 0.28025,0.25755 z m 7.42796,-7.3791 c 0.0407,0.0337 0.0696,0.0733 0.0867,0.11869 0.0197,0.0423 0.0206,0.095 0.003,0.15795 -0.0155,0.0599 -0.0479,0.13177 -0.0973,0.21555 -0.0494,0.0838 -0.12163,0.18245 -0.21684,0.29576 -0.0926,0.11026 -0.17613,0.19696 -0.25016,0.26009 -0.0741,0.0632 -0.13933,0.1075 -0.1957,0.13312 -0.0564,0.0256 -0.10843,0.0339 -0.15613,0.0248 -0.0477,-0.009 -0.0917,-0.0307 -0.13191,-0.0649 l -6.35245,-5.40212 c -0.002,0.003 -0.005,0.006 -0.007,0.008 1.66339,2.33057 3.28908,4.69542 4.8735,7.09616 0.0408,0.0575 0.0671,0.11542 0.0788,0.17389 0.008,0.055 2.2e-4,0.11524 -0.0226,0.1808 -0.0201,0.0625 -0.0602,0.13156 -0.12038,0.207 -0.0562,0.0789 -0.12978,0.16931 -0.22086,0.27097 -0.0911,0.10167 -0.17488,0.18299 -0.25112,0.24399 -0.0724,0.0645 -0.13992,0.11172 -0.20261,0.14161 -0.0639,0.0234 -0.12361,0.0342 -0.17914,0.0326 -0.0405,-0.001 -0.0798,-0.01 -0.11789,-0.0264 0,0 0,0 0,0 -0.0141,-0.006 -0.0281,-0.0132 -0.042,-0.0214 -2.54026,-1.33194 -5.05668,-2.70393 -7.53447,-4.12742 -0.003,0.003 -0.005,0.005 -0.008,0.008 l 6.05936,5.73395 c 0.0384,0.0363 0.0646,0.0778 0.0786,0.12445 0.0168,0.0437 0.0139,0.0967 -0.009,0.15895 -0.0226,0.0622 -0.0618,0.13407 -0.11755,0.21542 -0.0529,0.0784 -0.13145,0.17193 -0.23567,0.28029 -0.10142,0.10543 -0.19204,0.18772 -0.27138,0.24683 -0.0794,0.0591 -0.14992,0.1013 -0.21149,0.12658 -0.0587,0.0224 -0.11177,0.0275 -0.15905,0.0154 -0.0445,-0.015 -0.0856,-0.0409 -0.12333,-0.0778 l -6.53115,-6.38541 c -0.19253,-0.18824 -0.30562,-0.36743 -0.3397,-0.53674 -0.0341,-0.16943 0.005,-0.31216 0.11787,-0.42916 0.21559,-0.22364 0.43052,-0.44904 0.6449,-0.67607 0.11467,-0.12144 0.22833,-0.21167 0.34132,-0.27056 0.10912,-0.0625 0.2283,-0.0935 0.35771,-0.093 0.12551,-0.003 0.26445,0.0257 0.41681,0.0866 0.14846,0.0573 0.31929,0.14485 0.51244,0.26259 0.92429,0.50018 1.85322,0.9937 2.78601,1.48117 0.93174,0.48704 1.86782,0.96781 2.80807,1.44241 0.005,-0.006 0.0104,-0.0117 0.0157,-0.0175 -1.13455,-1.7762 -2.29285,-3.53218 -3.47335,-5.26865 -0.13583,-0.18174 -0.24357,-0.3436 -0.32312,-0.48559 -0.0772,-0.14478 -0.12771,-0.276 -0.15165,-0.39371 -0.0216,-0.12048 -0.0129,-0.23163 0.0259,-0.33361 0.0349,-0.10541 0.0963,-0.2096 0.18434,-0.31282 0.21059,-0.24688 0.4202,-0.4948 0.62886,-0.74373 0.0637,-0.0759 0.13197,-0.12888 0.20505,-0.15878 0.0754,-0.0327 0.15565,-0.0424 0.2407,-0.0291 0.0833,0.007 0.17272,0.0359 0.26808,0.0863 0.0936,0.0442 0.1913,0.10845 0.29286,0.19274 2.34211,1.94377 4.68422,3.88754 7.02633,5.83131 z m 1.31536,-5.73516 c 0.36587,0.49538 0.64923,0.92885 0.85087,1.29875 0.20411,0.36685 0.33577,0.69729 0.39549,0.99065 0.0502,0.24826 0.05,0.47702 -2.1e-4,0.68571 -0.008,0.0325 -0.0168,0.0645 -0.0271,0.0961 -0.0694,0.23409 -0.1958,0.46723 -0.37928,0.69859 -0.0669,0.0844 -0.14105,0.16063 -0.22225,0.22859 -0.077,0.0713 -0.15661,0.13286 -0.23869,0.18468 -0.0821,0.0518 -0.16084,0.0909 -0.23621,0.11731 -0.0754,0.0264 -0.13745,0.0404 -0.18621,0.042 -0.0488,0.002 -0.0958,-0.003 -0.14121,-0.0141 -0.047,-0.0174 -0.10297,-0.0447 -0.16798,-0.0819 -0.065,-0.0372 -0.14312,-0.0874 -0.23441,-0.1509 -0.0928,-0.07 -0.20487,-0.15804 -0.33633,-0.26419 -0.2382,-0.19233 -0.39679,-0.34069 -0.47561,-0.44469 -0.0805,-0.11042 -0.0986,-0.1931 -0.0543,-0.24819 0.0222,-0.0275 0.0612,-0.0465 0.11704,-0.0571 0.0559,-0.0106 0.11875,-0.0256 0.18857,-0.0453 0.0723,-0.0227 0.14743,-0.0532 0.22544,-0.0917 0.0763,-0.0448 0.14886,-0.11034 0.21745,-0.19661 0.0514,-0.0647 0.0909,-0.1314 0.11826,-0.20005 0.0233,-0.0719 0.0275,-0.15385 0.0126,-0.24572 -0.0149,-0.0919 -0.0506,-0.20007 -0.10717,-0.3245 -0.0607,-0.12766 -0.14823,-0.2812 -0.26259,-0.46042 -2.31385,-0.75893 -4.60795,-1.55593 -6.87892,-2.39345 -0.15947,-0.0634 -0.28155,-0.12276 -0.36616,-0.17768 -0.0864,-0.0612 -0.13805,-0.12727 -0.15507,-0.1982 -0.0171,-0.071 8.3e-4,-0.15127 0.0536,-0.24105 0.0509,-0.0961 0.1319,-0.21248 0.24286,-0.34975 0.10868,-0.13446 0.1991,-0.23852 0.27185,-0.31231 0.0727,-0.0737 0.14295,-0.12353 0.2109,-0.14934 0.0638,-0.0291 0.1329,-0.0353 0.20724,-0.0184 0.0702,0.0136 0.15698,0.0403 0.2603,0.08 1.019,0.38149 2.04226,0.75541 3.06951,1.12199 -2e-5,-10e-6 0.0736,0.0257 0.0736,0.0257 0,0 0,0 0,0 0.30692,0.10755 0.61127,0.21831 0.91286,0.33229 0.32153,0.11983 0.64535,0.24524 0.97131,0.37619 0.004,-0.005 0.007,-0.009 0.0106,-0.0137 -0.23248,-0.27748 -0.45473,-0.55105 -0.66679,-0.82067 -0.21408,-0.27607 -0.43612,-0.5667 -0.66732,-0.87284 -0.66204,-0.86297 -1.32989,-1.72011 -2.0043,-2.57045 -0.048,-0.0591 -0.08,-0.11305 -0.0962,-0.16176 -0.0204,-0.0519 -0.0236,-0.10903 -0.01,-0.17147 0.0139,-0.0624 0.0492,-0.13591 0.10595,-0.22058 0.0305,-0.051 0.0685,-0.10913 0.114,-0.17464 0,0 0,0 0,0 0,0 0,0 0,0 0.033,-0.0474 0.0697,-0.0984 0.11009,-0.15296 0.0983,-0.1328 0.18116,-0.23222 0.25001,-0.29961 0.0298,-0.0292 0.059,-0.0526 0.0877,-0.0702 0,0 0,0 0,0 0,0 0,0 0,0 0,0 0,0 0,0 0.0375,-0.023 0.0736,-0.0355 0.1088,-0.0382 0.0576,-0.008 0.11765,0.0133 0.17979,0.0622 0.0621,0.0488 0.13639,0.12275 0.22078,0.22174 0.0842,0.10189 0.16784,0.20457 0.25092,0.30792 0.54885,0.68272 1.0881,1.37601 1.622,2.07495 0,0 0,0 0,0 0.82873,1.08486 1.64602,2.18126 2.45356,3.28705 z" id="text8-5" style="font-weight:bold;font-size:12.7281px;line-height:1.25;font-family:Calibri;-inkscape-font-specification:'Calibri, Bold';text-align:center;letter-spacing:0px;word-spacing:0px;text-anchor:middle;fill:#833c3a;stroke-width:1.06272" transform="rotate(-0.70949463,-155.86033,-0.96502293)" aria-label="БРОСАЙ УТОПАЮЩЕМУ" inkscape:path-effect="#path-effect8" inkscape:original-d="m 32.782615,265.32024 q 0,0.54691 -0.186447,1.00059 -0.186447,0.45369 -0.565555,0.7893 -0.372893,0.32938 -0.950879,0.51583 -0.577985,0.18645 -1.497789,0.18645 h -2.119278 q -0.223736,0 -0.366679,-0.11808 -0.136727,-0.1243 -0.136727,-0.4164 v -6.99176 q 0,-0.27345 0.136727,-0.39153 0.142943,-0.1243 0.348034,-0.1243 h 4.549302 q 0.06215,0 0.105653,0.0311 0.04972,0.0311 0.08079,0.11187 0.03729,0.0746 0.04972,0.19888 0.01864,0.11808 0.01864,0.30453 0,0.17401 -0.01864,0.29831 -0.01243,0.11808 -0.04972,0.19888 -0.03107,0.0746 -0.08079,0.11187 -0.0435,0.0311 -0.09944,0.0311 h -3.405761 v 2.0012 h 1.336201 q 0.776862,0 1.280268,0.14915 0.503407,0.14916 0.851441,0.44126 0.348033,0.2921 0.53448,0.71471 0.186447,0.42262 0.186447,0.9571 z m -1.659376,0.10565 q 0,-0.26724 -0.08701,-0.47855 -0.08701,-0.21752 -0.25481,-0.36668 -0.167802,-0.15537 -0.435043,-0.23616 -0.261025,-0.0808 -0.702283,-0.0808 h -1.050316 v 2.31816 h 1.068961 q 0.397753,0 0.652564,-0.0746 0.261025,-0.0746 0.435042,-0.22374 0.174017,-0.14915 0.273455,-0.36667 0.09944,-0.21752 0.09944,-0.49098 z m 8.408749,-3.2131 q 0,0.67742 -0.211306,1.19947 -0.211307,0.52206 -0.615275,0.88252 -0.403968,0.35425 -0.994382,0.54069 -0.5842,0.18645 -1.379707,0.18645 H 35.66011 v 2.56675 q 0,0.0622 -0.0435,0.11187 -0.03729,0.0497 -0.130513,0.0808 -0.09322,0.0311 -0.248596,0.0497 -0.155372,0.0186 -0.397753,0.0186 -0.236166,0 -0.397753,-0.0186 -0.155372,-0.0186 -0.248596,-0.0497 -0.09322,-0.0311 -0.130512,-0.0808 -0.03729,-0.0497 -0.03729,-0.11187 v -7.23413 q 0,-0.2921 0.149158,-0.43505 0.155372,-0.14915 0.403968,-0.14915 h 1.895542 q 0.285885,0 0.540696,0.0249 0.261025,0.0186 0.621489,0.0932 0.360464,0.0684 0.727142,0.26103 0.372894,0.19266 0.633919,0.49097 0.261026,0.2921 0.397753,0.68986 0.136728,0.39153 0.136728,0.88251 z m -1.709095,0.11808 q 0,-0.42261 -0.149158,-0.69606 -0.149157,-0.27346 -0.366678,-0.40397 -0.217522,-0.13052 -0.459902,-0.16159 -0.236166,-0.0373 -0.490977,-0.0373 H 35.66011 v 2.72834 h 0.733357 q 0.391539,0 0.652564,-0.10565 0.26724,-0.10566 0.435043,-0.2921 0.167802,-0.19267 0.25481,-0.45369 0.08701,-0.26724 0.08701,-0.57799 z m 10.211069,1.36728 q 0,1.0006 -0.248596,1.78989 -0.248596,0.78929 -0.739572,1.34242 -0.490977,0.54691 -1.218119,0.83901 -0.720928,0.28588 -1.671806,0.28588 -0.938449,0 -1.640732,-0.24238 -0.696068,-0.2486 -1.162185,-0.752 -0.466117,-0.50341 -0.702283,-1.28027 -0.229951,-0.77686 -0.229951,-1.83961 0,-0.97574 0.248596,-1.7526 0.248596,-0.78307 0.739572,-1.32998 0.490977,-0.54692 1.211904,-0.83902 0.727143,-0.29209 1.684236,-0.29209 0.913589,0 1.609657,0.24238 0.702283,0.24238 1.1684,0.74578 0.472332,0.50341 0.708498,1.27406 0.242381,0.76443 0.242381,1.80853 z m -1.715311,0.087 q 0,-0.63392 -0.09944,-1.14976 -0.09944,-0.52205 -0.341819,-0.88873 -0.236166,-0.37289 -0.633919,-0.57177 -0.397753,-0.20509 -0.994383,-0.20509 -0.602845,0 -1.006813,0.22995 -0.403968,0.22374 -0.652563,0.60285 -0.248596,0.37911 -0.354249,0.88873 -0.09944,0.5034 -0.09944,1.06896 0,0.65878 0.09944,1.18704 0.09944,0.52205 0.335604,0.89495 0.236166,0.37289 0.633919,0.57177 0.397753,0.19266 1.000598,0.19266 0.602844,0 1.006812,-0.22374 0.403968,-0.22373 0.652564,-0.60906 0.248596,-0.38532 0.348034,-0.89494 0.105653,-0.51584 0.105653,-1.09382 z m 8.65113,2.80913 q 0,0.15537 -0.01243,0.26724 -0.0062,0.10565 -0.02486,0.18645 -0.01865,0.0746 -0.04972,0.13051 -0.03108,0.0559 -0.09944,0.13051 -0.06836,0.0684 -0.267241,0.18023 -0.192661,0.11187 -0.478546,0.21753 -0.279671,0.0994 -0.646349,0.1678 -0.360464,0.0684 -0.783077,0.0684 -0.82658,0 -1.491574,-0.25481 -0.664993,-0.25481 -1.13111,-0.75822 -0.466117,-0.50962 -0.714713,-1.26783 -0.248596,-0.75822 -0.248596,-1.76503 0,-1.02546 0.273456,-1.82097 0.273455,-0.7955 0.764431,-1.3362 0.490977,-0.54069 1.174615,-0.82037 0.689853,-0.27967 1.516434,-0.27967 0.335604,0 0.646349,0.0559 0.310744,0.0559 0.57177,0.14916 0.26724,0.087 0.478546,0.20509 0.211307,0.11808 0.2921,0.20509 0.08701,0.0808 0.118083,0.13673 0.03107,0.0559 0.04972,0.14294 0.01864,0.087 0.02486,0.20509 0.01243,0.11808 0.01243,0.2921 0,0.18645 -0.01243,0.31696 -0.01243,0.13051 -0.0435,0.21131 -0.03107,0.0808 -0.07458,0.11808 -0.0435,0.0373 -0.09944,0.0373 -0.09322,0 -0.236166,-0.10565 -0.142943,-0.11187 -0.372894,-0.24239 -0.223736,-0.13672 -0.540695,-0.24238 -0.310745,-0.11186 -0.745787,-0.11186 -0.478547,0 -0.857656,0.19887 -0.372893,0.19266 -0.640133,0.55934 -0.261026,0.36047 -0.397754,0.8763 -0.136727,0.51584 -0.136727,1.16219 0,0.7085 0.142942,1.23055 0.149158,0.51583 0.416398,0.85144 0.273455,0.3356 0.652564,0.5034 0.385323,0.16159 0.86387,0.16159 0.435042,0 0.752002,-0.0994 0.316959,-0.10565 0.540695,-0.22995 0.229952,-0.1243 0.372894,-0.22374 0.149157,-0.0994 0.229951,-0.0994 0.06215,0 0.09944,0.0249 0.03729,0.0249 0.06215,0.0994 0.02486,0.0746 0.03729,0.21131 0.01243,0.13051 0.01243,0.35425 z m 7.7624,0.60906 q 0.07458,0.22374 0.09322,0.35425 0.01864,0.13051 -0.04972,0.19887 -0.06836,0.0622 -0.242381,0.0746 -0.174017,0.0186 -0.478546,0.0186 -0.31696,0 -0.497192,-0.0124 -0.174017,-0.006 -0.26724,-0.0311 -0.09322,-0.0311 -0.130513,-0.0808 -0.03729,-0.0497 -0.06215,-0.13051 l -0.540695,-1.61587 h -3.020438 l -0.509621,1.57236 q -0.02486,0.087 -0.06836,0.14916 -0.03729,0.0559 -0.130513,0.0932 -0.08701,0.0311 -0.254811,0.0435 -0.161587,0.0124 -0.428827,0.0124 -0.285885,0 -0.447472,-0.0186 -0.161588,-0.0186 -0.223736,-0.087 -0.06215,-0.0746 -0.04351,-0.20509 0.01864,-0.13051 0.09322,-0.34803 l 2.479742,-7.1347 q 0.03729,-0.10565 0.08701,-0.1678 0.04972,-0.0684 0.155373,-0.0994 0.111868,-0.0373 0.304529,-0.0435 0.192662,-0.0124 0.509621,-0.0124 0.366679,0 0.5842,0.0124 0.217522,0.006 0.335605,0.0435 0.124297,0.0311 0.174017,0.0994 0.05593,0.0684 0.09322,0.18645 z m -3.691646,-5.89793 h -0.0062 l -1.137325,3.41819 h 2.280865 z m 11.360823,6.29568 q 0,0.0622 -0.0435,0.11187 -0.03729,0.0435 -0.130512,0.0746 -0.09322,0.0311 -0.254811,0.0435 -0.155372,0.0186 -0.391538,0.0186 -0.236166,0 -0.397753,-0.0186 -0.155373,-0.0124 -0.248596,-0.0435 -0.08701,-0.0311 -0.124298,-0.0746 -0.03729,-0.0497 -0.03729,-0.11187 v -4.23855 q 0,-0.24239 0.0062,-0.47234 0.0062,-0.23616 0.01864,-0.41639 h -0.01243 q -0.04972,0.087 -0.118082,0.20509 -0.06836,0.11187 -0.149158,0.24238 -0.07458,0.1243 -0.161587,0.26102 -0.08701,0.13052 -0.174017,0.25481 l -2.796702,4.1702 q -0.04972,0.0684 -0.105653,0.11808 -0.04972,0.0497 -0.136728,0.0808 -0.08079,0.0249 -0.205091,0.0311 -0.118083,0.0124 -0.310745,0.0124 -0.24238,0 -0.391538,-0.0186 -0.149157,-0.0124 -0.236166,-0.0435 -0.08079,-0.0311 -0.111868,-0.0808 -0.03107,-0.0497 -0.03107,-0.11809 v -7.60703 q 0,-0.0622 0.03729,-0.10565 0.0435,-0.0497 0.136728,-0.0808 0.09944,-0.0311 0.25481,-0.0435 0.155373,-0.0186 0.391539,-0.0186 0.24238,0 0.397753,0.0186 0.155372,0.0124 0.248595,0.0435 0.09322,0.0311 0.130513,0.0808 0.03729,0.0435 0.03729,0.10565 v 4.26342 q 0,0.19888 -0.0062,0.42261 -0.0062,0.22374 -0.01864,0.43505 h 0.01243 q 0.105653,-0.18645 0.26724,-0.44748 0.161587,-0.26102 0.335604,-0.50962 l 2.796702,-4.17019 q 0.0435,-0.0622 0.09322,-0.10565 0.04972,-0.0497 0.130513,-0.0808 0.08701,-0.0311 0.211306,-0.0435 0.124298,-0.0124 0.31696,-0.0124 0.236166,0 0.379108,0.0186 0.149158,0.0124 0.236166,0.0435 0.08701,0.0311 0.118083,0.0808 0.03729,0.0435 0.03729,0.11187 z m -0.950879,-9.98733 q 0,0.34182 -0.118083,0.65878 -0.118083,0.31074 -0.385323,0.55312 -0.261026,0.23617 -0.696068,0.37911 -0.428828,0.14294 -1.056532,0.14294 -0.609059,0 -1.037887,-0.13051 -0.428828,-0.13051 -0.702283,-0.35425 -0.26724,-0.22995 -0.391538,-0.54691 -0.124298,-0.32317 -0.124298,-0.70228 0,-0.0932 0.03107,-0.14916 0.03729,-0.0621 0.118083,-0.0994 0.08079,-0.0373 0.217522,-0.0497 0.142942,-0.0186 0.354249,-0.0186 0.198876,0 0.329389,0.0186 0.130513,0.0186 0.198876,0.0559 0.06836,0.0373 0.09322,0.0994 0.03107,0.0559 0.03107,0.13672 0,0.14916 0.05593,0.27968 0.06215,0.13051 0.174017,0.22995 0.118083,0.0932 0.285885,0.15537 0.167802,0.0621 0.372894,0.0621 0.198876,0 0.360464,-0.0559 0.161587,-0.0621 0.273455,-0.15537 0.118083,-0.0994 0.174017,-0.22995 0.06215,-0.13673 0.06215,-0.29831 0,-0.0746 0.02486,-0.13052 0.02486,-0.0559 0.09322,-0.0932 0.07458,-0.0373 0.192661,-0.0559 0.124298,-0.0186 0.310745,-0.0186 0.223736,0 0.366679,0.0186 0.149157,0.0124 0.236166,0.0497 0.08701,0.0373 0.118083,0.0994 0.03729,0.0559 0.03729,0.14916 z m -5.145931,2.15657 z m 14.549064,5.82335 q -0.273455,0.69607 -0.540696,1.14976 -0.261025,0.45368 -0.565555,0.72092 -0.298315,0.26103 -0.658778,0.36047 -0.354249,0.10565 -0.814151,0.10565 -0.167802,0 -0.32939,-0.0249 -0.161587,-0.0186 -0.304529,-0.0559 -0.142943,-0.0373 -0.248596,-0.087 -0.105653,-0.0497 -0.155372,-0.0932 -0.04972,-0.0435 -0.08079,-0.0932 -0.02486,-0.0559 -0.0435,-0.14294 -0.01864,-0.087 -0.03108,-0.21752 -0.0062,-0.13673 -0.0062,-0.33561 0,-0.36046 0.04972,-0.50962 0.05593,-0.15537 0.167802,-0.15537 0.05593,0 0.124298,0.0435 0.06836,0.0435 0.161587,0.0932 0.09944,0.0497 0.223736,0.0932 0.130513,0.0373 0.30453,0.0373 0.130512,0 0.24238,-0.0249 0.111868,-0.0311 0.211307,-0.11187 0.09944,-0.0808 0.198876,-0.22373 0.09944,-0.14916 0.211307,-0.38533 l -2.647545,-5.38831 q -0.08701,-0.19266 -0.105653,-0.31074 -0.01243,-0.1243 0.06215,-0.19266 0.07458,-0.0684 0.248596,-0.087 0.180232,-0.0249 0.478547,-0.0249 0.2921,0 0.466117,0.0124 0.174017,0.0124 0.27967,0.0559 0.105653,0.0373 0.161587,0.11808 0.05593,0.0746 0.111868,0.19888 l 1.13111,2.43624 q 0.186447,0.39154 0.354249,0.78308 0.167802,0.38532 0.323175,0.78307 h 0.01864 q 0.124298,-0.4164 0.261026,-0.80793 0.142942,-0.39776 0.310744,-0.8328 l 0.926019,-2.47353 q 0.03108,-0.087 0.08079,-0.13672 0.04972,-0.0559 0.149157,-0.087 0.09944,-0.0311 0.273456,-0.0373 0.174017,-0.0124 0.453687,-0.0124 0.285885,0 0.453687,0.0186 0.167802,0.0186 0.242381,0.0746 0.07458,0.0497 0.06836,0.14294 -0.0062,0.0932 -0.06215,0.24238 z m 8.49576,-5.15214 q 0,0.18023 -0.01865,0.31074 -0.01243,0.1243 -0.0435,0.20509 -0.03108,0.0746 -0.08079,0.11187 -0.0435,0.0373 -0.09944,0.0373 h -2.013625 v 6.48213 q 0,0.0622 -0.0435,0.11187 -0.03729,0.0497 -0.130512,0.0808 -0.09322,0.0311 -0.254811,0.0497 -0.155372,0.0186 -0.391538,0.0186 -0.236166,0 -0.397753,-0.0186 -0.155373,-0.0186 -0.248596,-0.0497 -0.09322,-0.0311 -0.136728,-0.0808 -0.03729,-0.0497 -0.03729,-0.11187 v -6.48213 h -2.013625 q -0.06215,0 -0.105653,-0.0373 -0.0435,-0.0373 -0.07458,-0.11187 -0.03107,-0.0808 -0.04972,-0.20509 -0.01243,-0.13051 -0.01243,-0.31074 0,-0.18645 0.01243,-0.31696 0.01865,-0.13052 0.04972,-0.2051 0.03107,-0.0808 0.07458,-0.11186 0.0435,-0.0373 0.105653,-0.0373 h 5.667982 q 0.05593,0 0.09944,0.0373 0.04972,0.0311 0.08079,0.11186 0.03107,0.0746 0.0435,0.2051 0.01865,0.13051 0.01865,0.31696 z m 7.899126,3.2566 q 0,1.0006 -0.248596,1.78989 -0.248595,0.78929 -0.739572,1.34242 -0.490976,0.54691 -1.218119,0.83901 -0.720927,0.28588 -1.671806,0.28588 -0.938448,0 -1.640731,-0.24238 -0.696068,-0.2486 -1.162185,-0.752 -0.466117,-0.50341 -0.702283,-1.28027 -0.229951,-0.77686 -0.229951,-1.83961 0,-0.97574 0.248596,-1.7526 0.248595,-0.78307 0.739572,-1.32998 0.490976,-0.54692 1.211904,-0.83902 0.727142,-0.29209 1.684236,-0.29209 0.913589,0 1.609657,0.24238 0.702283,0.24238 1.1684,0.74578 0.472331,0.50341 0.708497,1.27406 0.242381,0.76443 0.242381,1.80853 z m -1.71531,0.087 q 0,-0.63392 -0.09944,-1.14976 -0.09944,-0.52205 -0.34182,-0.88873 -0.236165,-0.37289 -0.633919,-0.57177 -0.397753,-0.20509 -0.994382,-0.20509 -0.602845,0 -1.006813,0.22995 -0.403968,0.22374 -0.652564,0.60285 -0.248595,0.37911 -0.354249,0.88873 -0.09944,0.5034 -0.09944,1.06896 0,0.65878 0.09944,1.18704 0.09944,0.52205 0.335605,0.89495 0.236166,0.37289 0.633919,0.57177 0.397753,0.19266 1.000597,0.19266 0.602845,0 1.006813,-0.22374 0.403968,-0.22373 0.652564,-0.60906 0.248595,-0.38532 0.348034,-0.89494 0.105653,-0.51584 0.105653,-1.09382 z m 9.353412,3.81594 q 0,0.0622 -0.0373,0.11187 -0.0373,0.0435 -0.13051,0.0746 -0.0932,0.0311 -0.25481,0.0435 -0.15537,0.0186 -0.39154,0.0186 -0.23616,0 -0.39775,-0.0186 -0.15537,-0.0124 -0.2486,-0.0435 -0.0932,-0.0311 -0.13672,-0.0746 -0.0373,-0.0497 -0.0373,-0.11187 v -6.4697 h -2.995582 v 6.4697 q 0,0.0622 -0.0435,0.11187 -0.03729,0.0435 -0.130513,0.0746 -0.09322,0.0311 -0.248596,0.0435 -0.155372,0.0186 -0.397753,0.0186 -0.236166,0 -0.397753,-0.0186 -0.155372,-0.0124 -0.248596,-0.0435 -0.09322,-0.0311 -0.130512,-0.0746 -0.03729,-0.0497 -0.03729,-0.11187 v -7.31493 q 0,-0.26102 0.130513,-0.38532 0.130513,-0.13051 0.348034,-0.13051 h 5.313728 q 0.22374,0 0.34803,0.13051 0.1243,0.1243 0.1243,0.38532 z m 8.34039,-0.39775 q 0.0746,0.22374 0.0932,0.35425 0.0186,0.13051 -0.0497,0.19887 -0.0684,0.0622 -0.24238,0.0746 -0.17401,0.0186 -0.47854,0.0186 -0.31696,0 -0.4972,-0.0124 -0.17401,-0.006 -0.26724,-0.0311 -0.0932,-0.0311 -0.13051,-0.0808 -0.0373,-0.0497 -0.0621,-0.13051 l -0.54069,-1.61587 h -3.02044 l -0.50962,1.57236 q -0.0249,0.087 -0.0684,0.14916 -0.0373,0.0559 -0.13051,0.0932 -0.087,0.0311 -0.25481,0.0435 -0.16159,0.0124 -0.42883,0.0124 -0.28588,0 -0.44747,-0.0186 -0.16159,-0.0186 -0.22374,-0.087 -0.0621,-0.0746 -0.0435,-0.20509 0.0186,-0.13051 0.0932,-0.34803 l 2.47975,-7.1347 q 0.0373,-0.10565 0.087,-0.1678 0.0497,-0.0684 0.15538,-0.0994 0.11186,-0.0373 0.30453,-0.0435 0.19266,-0.0124 0.50962,-0.0124 0.36668,0 0.5842,0.0124 0.21752,0.006 0.3356,0.0435 0.1243,0.0311 0.17402,0.0994 0.0559,0.0684 0.0932,0.18645 z m -3.69165,-5.89793 h -0.006 l -1.13733,3.41819 h 2.28087 z m 15.07111,2.41759 q 0,1.00681 -0.23616,1.7961 -0.23617,0.78929 -0.71472,1.32999 -0.47233,0.5407 -1.18083,0.82658 -0.70228,0.27967 -1.64073,0.27967 -0.85765,0 -1.51022,-0.22995 -0.65256,-0.22995 -1.10625,-0.68364 -0.44747,-0.4599 -0.69606,-1.13732 -0.24239,-0.68364 -0.2921,-1.57859 h -1.23677 v 3.27525 q 0,0.0622 -0.0435,0.11187 -0.0373,0.0435 -0.13052,0.0746 -0.0932,0.0311 -0.24859,0.0435 -0.15537,0.0186 -0.39775,0.0186 -0.23617,0 -0.39776,-0.0186 -0.15537,-0.0124 -0.24859,-0.0435 -0.0932,-0.0311 -0.13673,-0.0746 -0.0373,-0.0497 -0.0373,-0.11187 v -7.61946 q 0,-0.0622 0.0373,-0.10565 0.0435,-0.0497 0.13673,-0.0808 0.0994,-0.0311 0.25481,-0.0435 0.15537,-0.0186 0.39154,-0.0186 0.24238,0 0.39775,0.0186 0.15537,0.0124 0.24859,0.0435 0.0932,0.0311 0.13052,0.0808 0.0435,0.0435 0.0435,0.10565 v 3.01423 h 1.26784 q 0.087,-0.77686 0.35425,-1.39835 0.27345,-0.62771 0.72714,-1.06275 0.4599,-0.43504 1.10625,-0.67121 0.64635,-0.23616 1.48536,-0.23616 0.8763,0 1.55994,0.24859 0.68364,0.2486 1.14975,0.75822 0.47234,0.5034 0.71472,1.27405 0.24859,0.77065 0.24859,1.81475 z m -1.71531,0.087 q 0,-0.62771 -0.10565,-1.14976 -0.0994,-0.52205 -0.3356,-0.89494 -0.22996,-0.37911 -0.61528,-0.5842 -0.38532,-0.21131 -0.95709,-0.21131 -0.59663,0 -0.98196,0.22995 -0.38532,0.22374 -0.61527,0.60285 -0.22374,0.37911 -0.31696,0.88251 -0.087,0.49719 -0.087,1.05653 0,0.41019 0.0373,0.78308 0.0373,0.36668 0.13051,0.68364 0.0932,0.31696 0.24238,0.57798 0.14916,0.26103 0.3729,0.44126 0.22373,0.18023 0.52826,0.27967 0.30453,0.0994 0.70229,0.0994 0.57798,0 0.95709,-0.21752 0.38532,-0.21752 0.61527,-0.59663 0.22996,-0.37911 0.32939,-0.88873 0.0994,-0.50962 0.0994,-1.09382 z m 13.73492,5.89793 q 0,0.0622 -0.0373,0.10565 -0.0311,0.0435 -0.11187,0.0746 -0.0808,0.0311 -0.22374,0.0435 -0.14294,0.0124 -0.36046,0.0124 -0.20509,0 -0.34182,-0.0186 -0.13673,-0.0124 -0.21752,-0.0435 -0.0746,-0.0249 -0.11187,-0.0684 -0.0311,-0.0435 -0.0311,-0.10565 v -1.89554 h -8.73193 q -0.21752,0 -0.34803,-0.1243 -0.13051,-0.13051 -0.13051,-0.39154 v -7.32736 q 0,-0.0621 0.0373,-0.10565 0.0435,-0.0435 0.13672,-0.0684 0.0932,-0.0311 0.2486,-0.0435 0.15537,-0.0186 0.37911,-0.0186 0.22995,0 0.37911,0.0186 0.15537,0.0124 0.24859,0.0435 0.0932,0.0249 0.13052,0.0684 0.0435,0.0435 0.0435,0.10565 v 6.51321 h 2.43002 v -6.51321 q 0,-0.0621 0.0373,-0.10565 0.0435,-0.0435 0.13051,-0.0684 0.0932,-0.0311 0.2486,-0.0435 0.15537,-0.0186 0.37911,-0.0186 0.22373,0 0.37289,0.0186 0.15537,0.0124 0.2486,0.0435 0.0932,0.0249 0.13051,0.0684 0.0435,0.0435 0.0435,0.10565 v 6.51321 h 2.43624 v -6.51321 q 0,-0.0621 0.0373,-0.10565 0.0435,-0.0435 0.13673,-0.0684 0.0932,-0.0311 0.24238,-0.0435 0.15537,-0.0186 0.38532,-0.0186 0.22374,0 0.3729,0.0186 0.15537,0.0124 0.24859,0.0435 0.0932,0.0249 0.13673,0.0684 0.0435,0.0435 0.0435,0.10565 v 6.51321 h 0.67743 q 0.16159,0 0.22995,0.0746 0.0746,0.0746 0.0746,0.26103 z m 5.91658,-2.53568 q 0,0.18024 -0.0187,0.30453 -0.0124,0.11809 -0.0435,0.19267 -0.0311,0.0746 -0.0808,0.11186 -0.0435,0.0311 -0.0994,0.0311 h -4.03968 q -0.20509,0 -0.34804,-0.11808 -0.13672,-0.1243 -0.13672,-0.39776 v -7.0104 q 0,-0.27345 0.13672,-0.39153 0.14295,-0.1243 0.34804,-0.1243 h 4.01482 q 0.0559,0 0.0994,0.0311 0.0435,0.0311 0.0746,0.11187 0.0311,0.0746 0.0435,0.19888 0.0186,0.11808 0.0186,0.30453 0,0.17401 -0.0186,0.29831 -0.0124,0.11808 -0.0435,0.19266 -0.0311,0.0746 -0.0746,0.11187 -0.0435,0.0311 -0.0994,0.0311 h -2.87128 v 1.9639 h 2.43002 q 0.0559,0 0.0994,0.0373 0.0497,0.0311 0.0808,0.10565 0.0311,0.0684 0.0435,0.19267 0.0186,0.11808 0.0186,0.2921 0,0.18023 -0.0186,0.29831 -0.0124,0.11808 -0.0435,0.19266 -0.0311,0.0684 -0.0808,0.0994 -0.0435,0.0311 -0.0994,0.0311 h -2.43002 v 2.26844 h 2.89614 q 0.0559,0 0.0994,0.0373 0.0497,0.0311 0.0808,0.10565 0.0311,0.0746 0.0435,0.19888 0.0187,0.11808 0.0187,0.29831 z m 10.81391,0.4164 q 0,0.0622 -0.0373,0.11187 -0.0311,0.0497 -0.1243,0.0808 -0.087,0.0311 -0.23616,0.0497 -0.14916,0.0186 -0.37911,0.0186 -0.22374,0 -0.37289,-0.0186 -0.14916,-0.0186 -0.23617,-0.0497 -0.087,-0.0311 -0.1243,-0.0808 -0.0373,-0.0497 -0.0373,-0.11187 v -6.54428 h -0.0124 l -2.33058,6.53807 q -0.0249,0.0808 -0.0808,0.13673 -0.0559,0.0497 -0.15538,0.0808 -0.0932,0.0311 -0.24238,0.0373 -0.14915,0.0124 -0.36046,0.0124 -0.21131,0 -0.36046,-0.0186 -0.14916,-0.0124 -0.2486,-0.0435 -0.0932,-0.0373 -0.14916,-0.087 -0.0559,-0.0497 -0.0746,-0.11808 l -2.24979,-6.53807 h -0.0124 v 6.54428 q 0,0.0622 -0.0373,0.11187 -0.0311,0.0497 -0.12429,0.0808 -0.0932,0.0311 -0.24239,0.0497 -0.14294,0.0186 -0.37289,0.0186 -0.22374,0 -0.37289,-0.0186 -0.14916,-0.0186 -0.24238,-0.0497 -0.087,-0.0311 -0.1243,-0.0808 -0.0311,-0.0497 -0.0311,-0.11187 v -7.16577 q 0,-0.31696 0.16781,-0.48476 0.1678,-0.1678 0.44747,-0.1678 h 1.06896 q 0.28589,0 0.49098,0.0497 0.20509,0.0435 0.35425,0.15537 0.14915,0.10565 0.24859,0.28588 0.0994,0.17402 0.17402,0.43505 l 1.74017,4.79168 h 0.0249 l 1.80232,-4.77925 q 0.0808,-0.26103 0.17401,-0.44126 0.0994,-0.18023 0.22374,-0.2921 0.13051,-0.11187 0.30453,-0.15537 0.17402,-0.0497 0.40397,-0.0497 h 1.10003 q 0.16781,0 0.28589,0.0435 0.1243,0.0435 0.19887,0.13051 0.0808,0.0808 0.11809,0.2051 0.0435,0.11808 0.0435,0.27345 z m 5.57476,-1.99498 q -0.27346,0.69607 -0.5407,1.14976 -0.26102,0.45368 -0.56555,0.72092 -0.29832,0.26103 -0.65878,0.36047 -0.35425,0.10565 -0.81415,0.10565 -0.1678,0 -0.32939,-0.0249 -0.16159,-0.0186 -0.30453,-0.0559 -0.14294,-0.0373 -0.2486,-0.087 -0.10565,-0.0497 -0.15537,-0.0932 -0.0497,-0.0435 -0.0808,-0.0932 -0.0249,-0.0559 -0.0435,-0.14294 -0.0186,-0.087 -0.0311,-0.21752 -0.006,-0.13673 -0.006,-0.33561 0,-0.36046 0.0497,-0.50962 0.0559,-0.15537 0.16781,-0.15537 0.0559,0 0.12429,0.0435 0.0684,0.0435 0.16159,0.0932 0.0994,0.0497 0.22374,0.0932 0.13051,0.0373 0.30453,0.0373 0.13051,0 0.24238,-0.0249 0.11187,-0.0311 0.2113,-0.11187 0.0994,-0.0808 0.19888,-0.22373 0.0994,-0.14916 0.21131,-0.38533 l -2.64755,-5.38831 q -0.087,-0.19266 -0.10565,-0.31074 -0.0124,-0.1243 0.0622,-0.19266 0.0746,-0.0684 0.24859,-0.087 0.18024,-0.0249 0.47855,-0.0249 0.2921,0 0.46612,0.0124 0.17402,0.0124 0.27967,0.0559 0.10565,0.0373 0.16159,0.11808 0.0559,0.0746 0.11186,0.19888 l 1.13111,2.43624 q 0.18645,0.39154 0.35425,0.78308 0.16781,0.38532 0.32318,0.78307 h 0.0186 q 0.1243,-0.4164 0.26103,-0.80793 0.14294,-0.39776 0.31074,-0.8328 l 0.92602,-2.47353 q 0.0311,-0.087 0.0808,-0.13672 0.0497,-0.0559 0.14916,-0.087 0.0994,-0.0311 0.27346,-0.0373 0.17401,-0.0124 0.45368,-0.0124 0.28589,0 0.45369,0.0186 0.1678,0.0186 0.24238,0.0746 0.0746,0.0497 0.0684,0.14294 -0.006,0.0932 -0.0621,0.24238 z" />
    <path id="rect15" style="fill:#ffe1c7;fill-opacity:1;stroke-width:21.895;stroke-linecap:square;paint-order:markers stroke fill" d="m 26.836924,190.62042 22.479358,-3.5195 4.768349,54.1551 -18.619267,-3.40624 z" sodipodi:nodetypes="ccccc" />
    <path id="rect14" style="fill:#7c4c3a;stroke-width:21.895;stroke-linecap:square;paint-order:markers stroke fill" d="m 22.959888,215.06692 30.184688,-2.29087 22.863911,75.74783 -36.511058,-0.80279 -13.474739,-57.35578 -5.741644,-3.10419 z" sodipodi:nodetypes="ccccccc" />
    <path id="rect16" style="fill:#ffe1c7;fill-opacity:1;stroke-width:21.895;stroke-linecap:square;paint-order:markers stroke fill" d="m 27.269902,153.79163 17.448466,-9.46454 4.612169,6.13454 -15.107632,8.52699 -1.219635,7.35619 17.399639,-5.93231 19.689609,-0.40301 -0.887135,7.34539 -13.496271,0.0115 -7.566627,4.22973 9.79369,-0.73583 15.744266,2.70583 -1.239806,7.24644 -1.882346,0.87202 -0.187675,5.3342 -9.003922,-1.09873 -13.71778,4.70037 -18.24305,12.20246 -9.058533,-29.07305 3.675886,-5.78027 z" sodipodi:nodetypes="ccccccccccccccccccccc" />
    <path id="rect15-8" style="fill:#ffe1c7;fill-opacity:1;stroke-width:21.895;stroke-linecap:square;paint-order:markers stroke fill" d="m 179.65757,189.06858 -22.47936,-3.5195 -4.76835,54.1551 18.61927,-3.40624 z" sodipodi:nodetypes="ccccc" />
    <path id="rect17" style="fill:#442214;stroke-width:21.895;stroke-linecap:square;paint-order:markers stroke fill" d="m 153.34991,211.22421 v 44.06405 l -4.51204,32.59341 h -28.07666 z" sodipodi:nodetypes="ccccc" />
    <path id="rect14-6" style="fill:#7c4c3a;stroke-width:21.895;stroke-linecap:square;paint-order:markers stroke fill" d="m 183.5346,213.51508 -30.18469,-2.29087 -22.86391,75.74783 36.51106,-0.80279 13.47474,-57.35578 5.74164,-3.10419 z" sodipodi:nodetypes="ccccccc" />
    <path id="rect16-4" style="fill:#ffe1c7;fill-opacity:1;stroke-width:21.895;stroke-linecap:square;paint-order:markers stroke fill" d="m 179.22459,152.23979 -17.44847,-9.46454 -4.61217,6.13454 15.10763,8.52699 1.21964,7.35619 -17.39964,-5.93231 -19.68961,-0.40301 0.88714,7.34539 13.49627,0.0115 7.56662,4.22973 -9.79369,-0.73583 -15.74426,2.70583 1.2398,7.24644 1.88235,0.87202 0.18768,5.3342 9.00392,-1.09873 13.71778,4.70037 18.24305,12.20246 9.05853,-29.07305 -3.67589,-5.78027 z" sodipodi:nodetypes="ccccccccccccccccccccc" />
    <path id="path17" style="fill:#bba291;stroke-width:21.895;stroke-linecap:square;paint-order:markers stroke fill" inkscape:transform-center-x="-0.35917246" inkscape:transform-center-y="0.83437709" d="m 81.057576,148.0326 -8.806182,-2.72635 v -3.03559 l 9.946199,3.03559 17.639018,1.43705 1.233349,-11.0416 4.93505,1.57695 -4.49838,11.85715 z" sodipodi:nodetypes="ccccccccc" />
    <path id="path19" style="fill:#bba291;stroke-width:3.195;stroke-linecap:square;paint-order:markers stroke fill" inkscape:transform-center-x="0.70957701" inkscape:transform-center-y="-0.040390022" d="m 107.40138,132.89004 2.46054,7.42907 -2.80481,-4.75035 -3.63989,-1.11367 h -4.670659 l 3.580819,-2.36033 z" sodipodi:nodetypes="ccccccc" />
    <path id="path20" style="fill:#bba291;stroke-width:3.195;stroke-linecap:square;paint-order:markers stroke fill" inkscape:transform-center-x="0.4013978" inkscape:transform-center-y="0.4351025" d="m 94.408491,107.35493 -2.344964,-5.12502 13.941483,-2.835501 22.70809,4.803661 -4.90423,5.27783 -16.96229,-5.27783 z" sodipodi:nodetypes="ccccccc" />
    <path sodipodi:type="star" style="fill:#cbb2a5;fill-opacity:1;stroke:none;stroke-width:1.095;stroke-linecap:square;stroke-dasharray:none;stroke-opacity:1;paint-order:markers stroke fill" id="path25" inkscape:flatsided="true" sodipodi:sides="5" sodipodi:cx="16.348623" sodipodi:cy="60.626144" sodipodi:r1="35.968002" sodipodi:r2="29.098726" sodipodi:arg1="0.65107672" sodipodi:arg2="1.2793953" inkscape:rounded="0" inkscape:randomized="0" d="M 44.958713,82.424308 4.4583416,94.57196 -19.610065,59.807648 6.0152134,26.174471 45.920913,40.152335 Z" inkscape:transform-center-x="2.0863848" inkscape:transform-center-y="-0.16526049" transform="matrix(0.65338376,0,0,0.65338376,8.3562622,25.059994)" />
    <path sodipodi:type="star" style="fill:#cbb2a5;fill-opacity:1;stroke:none;stroke-width:1.095;stroke-linecap:square;stroke-dasharray:none;stroke-opacity:1;paint-order:markers stroke fill" id="path25-3" inkscape:flatsided="true" sodipodi:sides="5" sodipodi:cx="16.348623" sodipodi:cy="60.626144" sodipodi:r1="35.968002" sodipodi:r2="29.098726" sodipodi:arg1="0.65107672" sodipodi:arg2="1.2793953" inkscape:rounded="0" inkscape:randomized="0" d="M 44.958713,82.424308 4.4583416,94.57196 -19.610065,59.807648 6.0152134,26.174471 45.920913,40.152335 Z" inkscape:transform-center-x="0.70113737" inkscape:transform-center-y="-1.0170566" transform="matrix(0.4877183,0.08042753,-0.08042753,0.4877183,50.238933,40.451958)" />
    <path sodipodi:type="star" style="fill:#cbb2a5;fill-opacity:1;stroke:none;stroke-width:1.095;stroke-linecap:square;stroke-dasharray:none;stroke-opacity:1;paint-order:markers stroke fill" id="path25-3-2" inkscape:flatsided="true" sodipodi:sides="5" sodipodi:cx="16.348623" sodipodi:cy="60.626144" sodipodi:r1="35.968002" sodipodi:r2="29.098726" sodipodi:arg1="0.65107672" sodipodi:arg2="1.2793953" inkscape:rounded="0" inkscape:randomized="0" d="M 44.958713,82.424308 4.4583416,94.57196 -19.610065,59.807648 6.0152134,26.174471 45.920913,40.152335 Z" inkscape:transform-center-x="-0.41942031" inkscape:transform-center-y="0.97721747" transform="matrix(0.27283091,0.29582526,-0.29582526,0.27283091,84.604257,23.055268)" />
    <path sodipodi:type="star" style="fill:#cbb2a5;fill-opacity:1;stroke:none;stroke-width:1.095;stroke-linecap:square;stroke-dasharray:none;stroke-opacity:1;paint-order:markers stroke fill" id="path25-3-2-9" inkscape:flatsided="true" sodipodi:sides="5" sodipodi:cx="16.348623" sodipodi:cy="60.626144" sodipodi:r1="35.968002" sodipodi:r2="29.098726" sodipodi:arg1="0.65107672" sodipodi:arg2="1.2793953" inkscape:rounded="0" inkscape:randomized="0" d="M 44.958713,82.424308 4.4583416,94.57196 -19.610065,59.807648 6.0152134,26.174471 45.920913,40.152335 Z" inkscape:transform-center-x="-1.809544" inkscape:transform-center-y="-0.56545427" transform="matrix(-0.14761512,0.66923081,-0.66923081,-0.14761512,253.97609,79.630556)" />
    <path sodipodi:type="star" style="fill:#cbb2a5;fill-opacity:1;stroke:none;stroke-width:1.095;stroke-linecap:square;stroke-dasharray:none;stroke-opacity:1;paint-order:markers stroke fill" id="path25-3-2-0" inkscape:flatsided="true" sodipodi:sides="5" sodipodi:cx="16.348623" sodipodi:cy="60.626144" sodipodi:r1="35.968002" sodipodi:r2="29.098726" sodipodi:arg1="0.65107672" sodipodi:arg2="1.2793953" inkscape:rounded="0" inkscape:randomized="0" d="M 44.958713,82.424308 4.4583416,94.57196 -19.610065,59.807648 6.0152134,26.174471 45.920913,40.152335 Z" inkscape:transform-center-x="-1.0563026" inkscape:transform-center-y="2.4611039" transform="matrix(0.68711961,0.74503045,-0.74503045,0.68711961,76.01732,46.808712)" />
    <path sodipodi:type="star" style="fill:#cbb2a5;fill-opacity:1;stroke:none;stroke-width:1.095;stroke-linecap:square;stroke-dasharray:none;stroke-opacity:1;paint-order:markers stroke fill" id="path25-3-2-0-6" inkscape:flatsided="true" sodipodi:sides="5" sodipodi:cx="16.348623" sodipodi:cy="60.626144" sodipodi:r1="35.968002" sodipodi:r2="29.098726" sodipodi:arg1="0.65107672" sodipodi:arg2="1.2793953" inkscape:rounded="0" inkscape:randomized="0" d="M 44.958713,82.424308 4.4583416,94.57196 -19.610065,59.807648 6.0152134,26.174471 45.920913,40.152335 Z" inkscape:transform-center-x="2.2444291" inkscape:transform-center-y="-0.048164578" transform="matrix(0.21634188,0.63074701,-0.63074701,0.21634188,201.70928,42.054052)" />
    <path sodipodi:type="star" style="fill:#cbb2a5;fill-opacity:1;stroke:none;stroke-width:1.095;stroke-linecap:square;stroke-dasharray:none;stroke-opacity:1;paint-order:markers stroke fill" id="path25-3-2-0-6-2" inkscape:flatsided="true" sodipodi:sides="5" sodipodi:cx="16.348623" sodipodi:cy="60.626144" sodipodi:r1="35.968002" sodipodi:r2="29.098726" sodipodi:arg1="0.65107672" sodipodi:arg2="1.2793953" inkscape:rounded="0" inkscape:randomized="0" d="M 44.958713,82.424308 4.4583416,94.57196 -19.610065,59.807648 6.0152134,26.174471 45.920913,40.152335 Z" inkscape:transform-center-x="-0.57198365" inkscape:transform-center-y="-0.79761201" transform="matrix(-0.04256031,0.39167944,-0.39167944,-0.04256031,229.15265,114.9936)" />
    <path sodipodi:type="star" style="fill:#cbb2a5;fill-opacity:1;stroke:none;stroke-width:1.095;stroke-linecap:square;stroke-dasharray:none;stroke-opacity:1;paint-order:markers stroke fill" id="path25-3-2-0-6-2-1" inkscape:flatsided="true" sodipodi:sides="5" sodipodi:cx="16.348623" sodipodi:cy="60.626144" sodipodi:r1="35.968002" sodipodi:r2="29.098726" sodipodi:arg1="0.65107672" sodipodi:arg2="1.2793953" inkscape:rounded="0" inkscape:randomized="0" d="M 44.958713,82.424308 4.4583416,94.57196 -19.610065,59.807648 6.0152134,26.174471 45.920913,40.152335 Z" inkscape:transform-center-x="0.76158912" inkscape:transform-center-y="0.16175244" transform="matrix(-0.20318604,0.17310473,-0.17310473,-0.20318604,208.79001,60.236137)" />
  </g>
</svg>
