<?xml version="1.0" encoding="UTF-8" standalone="no"?>
<!-- Created with Inkscape (http://www.inkscape.org/) -->

<svg width="93.196754mm" height="93.196754mm" viewBox="0 0 93.196754 93.196754" version="1.1" id="svg5" xml:space="preserve" inkscape:version="1.3 (0e150ed6c4, 2023-07-21)" sodipodi:docname="муия.svg" xmlns:inkscape="http://www.inkscape.org/namespaces/inkscape" xmlns:sodipodi="http://sodipodi.sourceforge.net/DTD/sodipodi-0.dtd" xmlns:xlink="http://www.w3.org/1999/xlink" xmlns="http://www.w3.org/2000/svg" xmlns:svg="http://www.w3.org/2000/svg"><sodipodi:namedview id="namedview7" pagecolor="#ffffff" bordercolor="#666666" borderopacity="1.0" inkscape:showpageshadow="2" inkscape:pageopacity="0.0" inkscape:pagecheckerboard="0" inkscape:deskcolor="#d1d1d1" inkscape:document-units="mm" showgrid="false" inkscape:zoom="1.8761364" inkscape:cx="181.2235" inkscape:cy="182.28952" inkscape:window-width="2467" inkscape:window-height="1413" inkscape:window-x="84" inkscape:window-y="-9" inkscape:window-maximized="1" inkscape:current-layer="layer2" /><defs id="defs2"><linearGradient inkscape:collect="always" id="linearGradient28086"><stop style="stop-color:#ff0079;stop-opacity:0.55059524" offset="0" id="stop28082" /><stop style="stop-color:#ff0079;stop-opacity:0" offset="0.98584211" id="stop28084" /></linearGradient><linearGradient inkscape:collect="always" id="linearGradient27597"><stop style="stop-color:#923065;stop-opacity:1;" offset="0" id="stop27593" /><stop style="stop-color:#92114e;stop-opacity:0;" offset="1" id="stop27595" /></linearGradient><linearGradient inkscape:collect="always" id="linearGradient27009"><stop style="stop-color:#311221;stop-opacity:1;" offset="0" id="stop27005" /><stop style="stop-color:#311221;stop-opacity:0;" offset="1" id="stop27007" /></linearGradient><linearGradient inkscape:collect="always" xlink:href="#linearGradient27009" id="linearGradient27036" x1="44.282051" y1="161.1962" x2="122.55128" y2="158.3718" gradientUnits="userSpaceOnUse" /><linearGradient inkscape:collect="always" xlink:href="#linearGradient27597" id="linearGradient27599" x1="31.73077" y1="121.56409" x2="68.961533" y2="145.44543" gradientUnits="userSpaceOnUse" /><radialGradient inkscape:collect="always" xlink:href="#linearGradient28086" id="radialGradient28088" cx="108.53291" cy="126.99665" fx="108.53291" fy="126.99665" r="24.444563" gradientTransform="matrix(0.01084113,0.50500017,-1.2899152,0.0276625,270.44223,70.060016)" gradientUnits="userSpaceOnUse" /><radialGradient inkscape:collect="always" xlink:href="#linearGradient28086" id="radialGradient28088-5" cx="150.90007" cy="120.00483" fx="150.90007" fy="120.00483" r="24.444563" gradientTransform="matrix(-1.4256909,0.65672918,0.32689406,0.70957424,123.53972,-5.1313268)" gradientUnits="userSpaceOnUse" /><filter inkscape:collect="always" style="color-interpolation-filters:sRGB" id="filter28153" x="-0.045076117" y="-0.02232143" width="1.0901522" height="1.0446429"><feGaussianBlur inkscape:collect="always" stdDeviation="0.86678531" id="feGaussianBlur28155" /></filter><filter inkscape:collect="always" style="color-interpolation-filters:sRGB" id="filter28817" x="-0.14142226" y="-0.09763935" width="1.2787965" height="1.1956804"><feGaussianBlur inkscape:collect="always" stdDeviation="3.6648409" id="feGaussianBlur28819" /></filter></defs><g inkscape:groupmode="layer" id="layer2" inkscape:label="Слой 2" transform="translate(-32.417149,-127.51572)"><rect style="fill:#541f38;fill-opacity:1;fill-rule:evenodd;stroke-width:0.264583" id="rect26800" width="93.196754" height="93.196754" x="32.417149" y="127.51572" /><path id="path13674-5" style="fill:#edb7b7;fill-opacity:1;stroke:#e09494;stroke-width:2.065;stroke-linecap:square;stroke-dashoffset:44.0315;stroke-opacity:1;paint-order:markers stroke fill;filter:url(#filter28817)" inkscape:transform-center-x="-2.4197053" inkscape:transform-center-y="2.1700414" d="m 69.557504,139.72688 -7.52047,1.12086 -4.43384,5.4529 -1.15806,0.21084 -0.20154,1.22421 -0.07287,0.44132 -0.08578,0.51935 -0.10335,0.62838 -0.26148,1.58854 -0.24598,1.49241 -0.18242,1.10588 1.79317,1.002 v 0.6196 l 6.49728,6.0632 0.01085,0.92604 0.07958,6.89725 6.90966,7.97471 5.03483,1.9544 0.21188,2.48822 0.05219,0.0413 0.09198,0.97462 -6.02444,1.37408 2.89698,7.14788 -11.11663,-1.49448 -8.65684,9.81542 -13.91181,28.43341 16.30857,6.02599 2.50527,-7.03213 -0.59893,9.50433 32.13241,0.52296 0.41599,-2.5032 0.47181,6.57479 17.326586,-1.44694 -5.80481,-31.11748 -5.717996,-11.77293 -8.76691,-3.28972 -0.64595,-0.0987 4.146,-7.84293 -5.52318,-2.35283 0.3793,-2.40554 7.48275,-1.22421 6.36705,-5.15628 2.015386,-5.21001 0.25734,-0.66456 -0.58962,-0.85732 1.1622,0.44029 5.8415,-4.00234 1.14774,-0.78652 0.83715,-0.15503 0.18191,-1.10587 0.27026,-1.64125 0.34055,-2.06809 0.13023,-0.78755 0.22996,-1.39784 -0.66818,-0.37052 0.13436,-1.00098 -3.87315,-6.5722 -7.267766,-2.23398 -12.01322,2.79932 0.02067,1.61902 -2.45463,-0.75809 -4.60851,0.0543 0.80977,-2.59933 z" /><rect style="opacity:0.598214;fill:#272727;fill-opacity:1;fill-rule:evenodd;stroke-width:0.264583;filter:url(#filter28153)" id="rect28129" width="46.150486" height="93.196747" x="79.463417" y="127.51572" /><rect style="fill:url(#linearGradient27036);fill-opacity:1;fill-rule:evenodd;stroke-width:0.264583" id="rect26800-6" width="93.196754" height="93.196754" x="32.417149" y="127.51572" inkscape:export-filename="rect26800-6.png" inkscape:export-xdpi="449" inkscape:export-ydpi="449" /><path id="path13674" style="fill:#0f0f0f;stroke-width:2.065;stroke-linecap:square;stroke-dashoffset:44.0315;paint-order:markers stroke fill" inkscape:transform-center-x="-2.4197053" inkscape:transform-center-y="2.1700414" d="m 39.160588,227.72927 13.911646,-28.43336 8.657218,-9.81558 4.862411,13.05641 -11.122506,31.21847 z" sodipodi:nodetypes="cccccc" /><path id="path13674-2" style="fill:#0f0f0f;stroke-width:2.065;stroke-linecap:square;stroke-dashoffset:44.0315;paint-order:markers stroke fill" inkscape:transform-center-x="3.8514382" inkscape:transform-center-y="-0.0856936" d="m 107.72208,239.37478 -5.80455,-31.11748 -5.71824,-11.77262 -8.17571,11.28144 2.37238,33.05563 z" sodipodi:nodetypes="cccccc" /><path id="path12923" style="fill:#0f0f0f;stroke-width:2.065;stroke-linecap:square;stroke-dashoffset:44.0315;paint-order:markers stroke fill" inkscape:transform-center-x="-0.71859292" inkscape:transform-center-y="0.091030345" d="m 55.469357,211.08269 -1.644299,-5.70482 5.35171,1.24709 2.274709,3.84912 z" sodipodi:nodetypes="ccccc" /><path id="path12923-0" style="fill:#0f0f0f;stroke-width:2.065;stroke-linecap:square;stroke-dashoffset:44.0315;paint-order:markers stroke fill" inkscape:transform-center-x="0.71859308" inkscape:transform-center-y="0.091030345" d="m 96.277443,219.17277 2.176005,-4.80131 -5.883416,0.34358 -2.274709,3.84912 z" sodipodi:nodetypes="ccccc" /><path id="path8402" style="fill:#272727;stroke-width:2.065;stroke-linecap:square;stroke-dashoffset:44.0315;paint-order:markers stroke fill" inkscape:transform-center-x="2.0358237" inkscape:transform-center-y="0.63382892" d="m 89.50792,236.75007 -32.13227,-0.52275 0.772138,-12.24708 3.581664,-34.49991 11.756962,1.58011 13.946,2.13448 8.766876,3.28976 z" sodipodi:nodetypes="cccccccc" /><path id="rect6955" style="fill:#272727;fill-opacity:1;fill-rule:evenodd;stroke-width:0.264583" d="m 69.948717,183.82692 11.485507,-2.62006 9.498688,4.04629 -4.475514,8.46522 -12.290004,0.51528 z" sodipodi:nodetypes="cccccc" /><path id="path7723" style="fill:#0f0f0f;stroke-width:2.065;stroke-linecap:square;stroke-dashoffset:44.0315;paint-order:markers stroke fill" inkscape:transform-center-x="0.25454198" inkscape:transform-center-y="0.051468547" d="m 79.15654,189.75799 -7.386185,-5.42428 8.357823,-2.18629 9.207387,3.46343 z" sodipodi:nodetypes="ccccc" /><path id="rect2749" style="fill:#8f8f8f;fill-opacity:1;fill-rule:evenodd;stroke-width:0.264583" d="m 75.388458,176.25542 h 11.06894 l -1.657051,10.50337 -5.12086,1.60684 -3.409619,-2.76999 z" sodipodi:nodetypes="cccccc" /><path id="rect2749-5" style="fill:#776565;fill-opacity:1;fill-rule:evenodd;stroke-width:0.264583" d="m 75.388458,176.25542 h 11.06894 l -1.110639,7.03989 -0.546412,3.46348 -1.629243,0.51123 -7.341941,-5.83343 z" sodipodi:nodetypes="ccccccc" /><path id="path909" style="fill:#8f8f8f;stroke-width:2.065;stroke-linecap:square;stroke-dashoffset:44.0315;paint-order:markers stroke fill" inkscape:transform-center-x="-1.1987169" inkscape:transform-center-y="2.08207" d="m 63.67307,169.01923 -0.09071,-7.82304 15.43317,-11.71319 6.325474,-0.12246 4.543814,1.40395 12.026402,17.47522 -2.272552,5.87438 -6.367115,5.1566 -11.837329,1.93617 -10.851846,-4.2129 z" sodipodi:nodetypes="ccccccccccc" /><path id="path16579" style="fill:#776565;stroke-width:2.065;stroke-linecap:square;stroke-dashoffset:44.0315;paint-order:markers stroke fill" inkscape:transform-center-x="0.84762252" inkscape:transform-center-y="0.57476357" d="m 78.88486,162.5281 -15.291763,-0.40595 -0.01074,-0.92596 17.150292,-11.7814 v 0 0 z" sodipodi:nodetypes="ccccccc" /><path id="path26245" style="fill:#776565;stroke-width:2.065;stroke-linecap:square;stroke-dashoffset:44.0315;paint-order:markers stroke fill" inkscape:transform-center-x="1.0621038e-06" inkscape:transform-center-y="0.25810131" d="m 88.887822,150.46153 0.181796,1.80694 -4.066414,-1.80694 -5.321312,0.54136 1.050757,-1.5881 4.608355,-0.0543 z" sodipodi:nodetypes="ccccccc" /><path id="path20772" style="fill:#8c8383;fill-opacity:1;stroke-width:2.065;stroke-linecap:square;stroke-dashoffset:44.0315;paint-order:markers stroke fill" inkscape:transform-center-x="0.86583928" inkscape:transform-center-y="-0.072855696" d="m 81.795478,164.05752 3.443418,1.85903 1.815047,3.31849 h -5.977112 l -7.196829,-1.88622 4.429387,-2.96204 z" sodipodi:nodetypes="ccccccc" /><path id="path16579-3" style="fill:#776565;stroke-width:2.065;stroke-linecap:square;stroke-dashoffset:44.0315;paint-order:markers stroke fill" inkscape:transform-center-x="0.57906352" inkscape:transform-center-y="0.73819357" d="m 87.950329,162.32125 1.931246,2.43636 11.772635,4.14646 0.25701,-0.66436 -13.946976,-18.1404 v 0 l -0.01391,12.22194 z" sodipodi:nodetypes="cccccccc" /><path id="path2100" style="fill:#515151;stroke-width:2.065;stroke-linecap:square;stroke-dashoffset:44.0315;paint-order:markers stroke fill" inkscape:transform-center-x="0.81089826" inkscape:transform-center-y="0.61985577" d="m 63.58236,161.19619 -6.49701,-6.06313 0.139193,-8.36638 4.812817,-5.91891 7.520144,-1.12089 11.985191,7.08892 -4.363729,14.00082 z" sodipodi:nodetypes="cccccccc" /><path id="path25685" style="fill:#393939;fill-opacity:1;stroke-width:2.065;stroke-linecap:square;stroke-dashoffset:44.0315;paint-order:markers stroke fill" inkscape:transform-center-x="-0.14102487" inkscape:transform-center-y="0.29364762" d="m 60.817306,157.54246 -3.731956,-2.4094 v -0.94186 l 21.199109,3.35127 z" sodipodi:nodetypes="ccccc" /><path id="path2100-6" style="fill:#515151;stroke-width:2.065;stroke-linecap:square;stroke-dashoffset:44.0315;paint-order:markers stroke fill" inkscape:transform-center-x="-1.1894167" inkscape:transform-center-y="1.1448358" d="m 102.48383,167.82243 7.33113,-5.02267 1.1143,-8.29302 -3.87295,-6.57244 -7.267745,-2.23356 -12.013531,2.79926 0.175295,13.82125 z" sodipodi:nodetypes="cccccccc" /><path sodipodi:type="star" style="fill:#000000;fill-opacity:1;stroke-width:1.27493;stroke-linecap:square;stroke-dashoffset:44.0315;paint-order:markers stroke fill" id="path3441" inkscape:flatsided="true" sodipodi:sides="5" sodipodi:cx="76.435524" sodipodi:cy="207.61743" sodipodi:r1="13.222328" sodipodi:r2="6.6111641" sodipodi:arg1="-1.5707963" sodipodi:arg2="-0.94247777" inkscape:rounded="0" inkscape:randomized="0" d="m 76.435524,194.3951 12.575181,9.13641 -4.803292,14.78301 -15.543779,0 -4.803291,-14.78301 z" inkscape:transform-center-y="-5.0850723" transform="matrix(1.5383271,0.5068893,-0.5068893,1.5383271,64.451184,-147.68902)" inkscape:transform-center-x="-1.6755674" /><path sodipodi:type="star" style="fill:#ffffff;fill-opacity:1;stroke-width:1.40709;stroke-linecap:square;stroke-dashoffset:44.0315;paint-order:markers stroke fill" id="path3441-5" inkscape:flatsided="true" sodipodi:sides="5" sodipodi:cx="76.435524" sodipodi:cy="207.61743" sodipodi:r1="13.222328" sodipodi:r2="6.6111641" sodipodi:arg1="-1.5707963" sodipodi:arg2="-0.94247777" inkscape:rounded="0" inkscape:randomized="0" d="m 76.435524,194.3951 12.575181,9.13641 -4.803292,14.78301 -15.543779,0 -4.803291,-14.78301 z" inkscape:transform-center-y="-4.6074437" transform="matrix(1.3938362,0.45927856,-0.45927856,1.3938362,65.610604,-114.05104)" inkscape:transform-center-x="-1.5181863" /><path sodipodi:type="star" style="fill:#000000;fill-opacity:1;stroke-width:1.50385;stroke-linecap:square;stroke-dashoffset:44.0315;paint-order:markers stroke fill" id="path3441-5-7" inkscape:flatsided="true" sodipodi:sides="5" sodipodi:cx="76.435524" sodipodi:cy="207.61743" sodipodi:r1="13.222328" sodipodi:r2="6.6111641" sodipodi:arg1="-1.5707963" sodipodi:arg2="-0.94247777" inkscape:rounded="0" inkscape:randomized="0" d="m 76.435524,194.3951 12.575181,9.13641 -4.803292,14.78301 -15.543779,0 -4.803291,-14.78301 z" inkscape:transform-center-y="-4.3109901" transform="matrix(1.3041522,0.42972707,-0.42972707,1.3041522,66.330244,-93.172295)" inkscape:transform-center-x="-1.4205012" /><path sodipodi:type="star" style="fill:#d60e0e;fill-opacity:1;stroke-width:1.90045;stroke-linecap:square;stroke-dashoffset:44.0315;paint-order:markers stroke fill" id="path3441-5-7-7" inkscape:flatsided="true" sodipodi:sides="5" sodipodi:cx="76.435524" sodipodi:cy="207.61743" sodipodi:r1="13.222328" sodipodi:r2="6.6111641" sodipodi:arg1="-1.5707963" sodipodi:arg2="-0.94247777" inkscape:rounded="0" inkscape:randomized="0" d="m 76.435524,194.3951 12.575181,9.13641 -4.803292,14.78301 -15.543779,0 -4.803291,-14.78301 z" inkscape:transform-center-y="-3.4113427" transform="matrix(1.0319912,0.34004817,-0.34004817,1.0319912,68.560474,-29.953)" inkscape:transform-center-x="-1.1240564" /><path sodipodi:type="star" style="fill:#000000;fill-opacity:1;stroke-width:2.15556;stroke-linecap:square;stroke-dashoffset:44.0315;paint-order:markers stroke fill" id="path3441-5-7-7-8" inkscape:flatsided="true" sodipodi:sides="5" sodipodi:cx="76.435524" sodipodi:cy="207.61743" sodipodi:r1="13.222328" sodipodi:r2="6.6111641" sodipodi:arg1="-1.5707963" sodipodi:arg2="-0.94247777" inkscape:rounded="0" inkscape:randomized="0" d="m 76.435524,194.3951 12.575181,9.13641 -4.803292,14.78301 -15.543779,0 -4.803291,-14.78301 z" inkscape:transform-center-y="-3.0076142" transform="matrix(0.90985637,0.29980391,-0.29980391,0.90985637,69.540504,-1.5195888)" inkscape:transform-center-x="-0.99102457" /><path id="path9581" style="fill:#8f8f8f;stroke-width:2.065;stroke-linecap:square;stroke-dashoffset:44.0315;paint-order:markers stroke fill" inkscape:transform-center-x="-0.49152827" inkscape:transform-center-y="-0.45747653" d="m 55.469357,211.08269 -0.412757,-3.87282 4.839519,-12.72313 6.129646,-4.21866 2.831577,1.96719 2.270691,-1.38033 2.145879,2.85666 -0.292877,1.48318 -6.292988,-0.96113 -3.931041,0.9999 z" sodipodi:nodetypes="ccccccccccc" /><path id="path10004" style="fill:#776565;fill-opacity:1;stroke-width:2.065;stroke-linecap:square;stroke-dashoffset:44.0315;paint-order:markers stroke fill" inkscape:transform-center-x="0.17658384" inkscape:transform-center-y="-0.03168202" d="m 72.981035,195.19478 -6.328828,0.62717 -3.895201,-0.5884 -2.642585,5.44184 2.270437,-6.44174 4.199132,-0.65907 z" sodipodi:nodetypes="ccccccc" /><path id="path9998" style="fill:#8f8f8f;stroke-width:2.065;stroke-linecap:square;stroke-dashoffset:44.0315;paint-order:markers stroke fill" inkscape:transform-center-x="-0.50910297" inkscape:transform-center-y="-0.40543214" d="m 55.469357,211.08269 7.287649,-15.84914 3.931041,-0.9999 6.292988,0.96113 2.024942,1.16876 2.095398,0.26369 0.392287,3.58047 -2.952305,1.16538 -2.336148,-2.51483 -4.697043,-1.50223 z" sodipodi:nodetypes="ccccccccccc" /><path id="path10007" style="fill:#776565;fill-opacity:1;stroke-width:2.065;stroke-linecap:square;stroke-dashoffset:44.0315;paint-order:markers stroke fill" inkscape:transform-center-x="0.10602716" inkscape:transform-center-y="-0.10602879" d="m 72.205209,198.85825 -4.697043,-1.50223 v 0 l -6.244242,5.51522 4.717241,-7.15066 v 0 z" sodipodi:nodetypes="ccccccc" /><path id="path10001" style="fill:#8f8f8f;stroke-width:2.065;stroke-linecap:square;stroke-dashoffset:44.0315;paint-order:markers stroke fill" inkscape:transform-center-x="0.11218604" inkscape:transform-center-y="-0.3515882" d="m 71.609024,199.61844 -3.212772,4.81644 0.606472,1.58189 -1.581128,1.70191 -2.229767,-0.15358 -1.026573,-2.8095 1.889821,-1.28826 1.073572,-1.8612 -2.270365,-0.53054 -6.542065,10.2228 -2.846862,-0.21571 10.618855,-14.59801 z" sodipodi:nodetypes="ccccccccccccc" /><path id="path10010" style="fill:#776565;fill-opacity:1;stroke-width:2.065;stroke-linecap:square;stroke-dashoffset:44.0315;paint-order:markers stroke fill" inkscape:transform-center-x="0.070513756" inkscape:transform-center-y="-0.097590468" d="m 77.297518,198.41747 0.196144,1.79023 -2.952305,1.16538 -1.168074,-1.25742 1.410503,0.55973 2.113532,-0.78374 z" sodipodi:nodetypes="ccccccc" /><path id="path10010-9" style="fill:#776565;fill-opacity:1;stroke-width:2.065;stroke-linecap:square;stroke-dashoffset:44.0315;paint-order:markers stroke fill" inkscape:transform-center-x="0.070513756" inkscape:transform-center-y="-0.097590468" d="m 69.002724,206.01677 -1.581128,1.70191 -2.229767,-0.15358 -1.026573,-2.8095 1.251849,1.98761 1.894123,0.37973 z" sodipodi:nodetypes="ccccccc" /><path id="path10013" style="fill:#776565;fill-opacity:1;stroke-width:2.065;stroke-linecap:square;stroke-dashoffset:44.0315;paint-order:markers stroke fill" inkscape:transform-center-x="-0.12646749" inkscape:transform-center-y="-0.010119417" d="m 72.981035,195.19478 -0.127306,-1.35348 -1.802603,-2.36104 -2.193784,0.75501 2.270691,-1.38033 2.145879,2.85666 z" sodipodi:nodetypes="ccccccc" /><path id="path10038" style="fill:#776565;fill-opacity:1;stroke-width:2.065;stroke-linecap:square;stroke-dashoffset:44.0315;paint-order:markers stroke fill" inkscape:transform-center-x="-0.20567911" inkscape:transform-center-y="-0.050046002" d="m 57.37565,211.22713 7.482634,-10.15153 -6.542065,10.2228 z" sodipodi:nodetypes="cccc" /><path id="path10041" style="fill:#8f8f8f;stroke-width:2.065;stroke-linecap:square;stroke-dashoffset:44.0315;paint-order:markers stroke fill" inkscape:transform-center-x="0.39888193" inkscape:transform-center-y="0.17808739" d="m 93.841829,220.12008 0.402473,-17.24884 -1.776176,-3.57533 -4.026399,-0.21154 -1.984329,1.37065 -2.190073,-1.78665 0.553741,-3.47359 2.481073,-0.77564 1.614164,2.38285 4.928059,0.81658 4.317953,5.52716 -0.05621,14.26767 z" sodipodi:nodetypes="ccccccccccccc" /><path id="path10389" style="fill:#8f8f8f;stroke-width:2.065;stroke-linecap:square;stroke-dashoffset:44.0315;paint-order:markers stroke fill" inkscape:transform-center-x="-0.15807108" inkscape:transform-center-y="0.24493271" d="m 84.474361,204.45562 -1.867426,2.16934 -2.778102,-1.86936 -0.36542,-2.77426 2.682861,-1.30595 2.121051,1.13611 4.446533,0.043 6.043323,2.037 1.025997,4.41534 -7.334049,-4.11538 z" sodipodi:nodetypes="ccccccccccc" /><path id="path10392" style="fill:#8f8f8f;stroke-width:2.065;stroke-linecap:square;stroke-dashoffset:44.0315;paint-order:markers stroke fill" inkscape:transform-center-x="1.0948805e-06" inkscape:transform-center-y="0.5134897" d="m 86.183172,215.9039 -0.856379,-2.30812 1.352818,-1.53423 0.128234,-4.72101 6.385886,-2.13299 2.477698,2.61838 -1.8296,12.29415 -2.235831,-2.35738 -0.171972,-7.88175 -2.239893,-0.10465 -0.471083,2.51718 1.158525,1.47681 -1.040577,2.41182 z" sodipodi:nodetypes="cccccccccccccc" /><path id="path11689" style="fill:#776565;stroke-width:2.065;stroke-linecap:square;stroke-dashoffset:44.0315;paint-order:markers stroke fill" inkscape:transform-center-x="1.089227e-06" inkscape:transform-center-y="0.3653912" d="m 84.821066,195.19478 2.481073,-0.77564 -1.975346,1.30144 -0.21962,2.89059 1.350225,0.93404 1.991731,-1.43311 4.018997,1.18381 -4.026399,-0.21154 -1.984329,1.37065 -2.190073,-1.78665 z" sodipodi:nodetypes="ccccccccccc" /><path id="path11689-9" style="fill:#776565;stroke-width:2.065;stroke-linecap:square;stroke-dashoffset:44.0315;paint-order:markers stroke fill" inkscape:transform-center-x="1.089227e-06" inkscape:transform-center-y="0.3653912" d="m 79.463413,201.98134 2.682861,-1.30595 -1.903981,1.59934 0.353771,2.40666 1.763284,1.15007 1.671216,-1.93992 4.418565,0.29992 -3.974768,0.26416 -1.867426,2.16934 -2.778102,-1.86936 z" sodipodi:nodetypes="ccccccccccc" /><path id="path12318" style="fill:#776565;stroke-width:2.065;stroke-linecap:square;stroke-dashoffset:44.0315;paint-order:markers stroke fill" inkscape:transform-center-x="-0.084883732" inkscape:transform-center-y="0.22175731" d="m 86.183172,215.9039 -0.856379,-2.30812 1.474345,1.52496 1.618839,0.2536 0.846864,-0.9294 -1.11688,-1.61297 1.044172,-3.05567 -0.471083,2.51718 1.158525,1.47681 -1.040577,2.41182 z" sodipodi:nodetypes="ccccccccccc" /><path id="path12321" style="fill:#776565;stroke-width:2.065;stroke-linecap:square;stroke-dashoffset:44.0315;paint-order:markers stroke fill" inkscape:transform-center-x="0.02197612" inkscape:transform-center-y="-0.53239478" d="m 91.434026,209.88095 2.407803,10.23913 -2.235831,-2.35738 z" sodipodi:nodetypes="cccc" /><path id="path8957-8" style="fill:#272727;fill-opacity:1;stroke-width:2.065;stroke-linecap:square;stroke-dashoffset:44.0315;paint-order:markers stroke fill" inkscape:transform-center-x="1.2210302" inkscape:transform-center-y="-0.12942792" d="m 102.47303,231.60118 -2.43713,-8.45984 0.58476,-3.26024 -2.167212,-5.50964 -3.290291,2.80673 -4.867834,1.38597 1.118786,4.9016 1.687618,1.27924 1.489068,9.01021 z" sodipodi:nodetypes="cccccccccc" /><path id="path8957" style="fill:#272727;fill-opacity:1;stroke-width:2.065;stroke-linecap:square;stroke-dashoffset:44.0315;paint-order:markers stroke fill" inkscape:transform-center-x="-1.0969213" inkscape:transform-center-y="0.12202708" transform="translate(-7.479014,17.211138)" d="m 55.344703,204.82524 3.386536,-8.12648 -0.208915,-3.30567 2.781748,-5.22636 2.836433,3.11218 4.789986,1.98403 -1.67079,4.74193 -1.822566,1.07832 -2.507478,8.78144 z" sodipodi:nodetypes="cccccccccc" /><path id="rect14185" style="fill:#0f0f0f;fill-rule:evenodd;stroke-width:0.264583" transform="rotate(11.892754)" d="m 85.426765,131.73405 5.512185,-2.24999 19.00971,2.24999 v 6.10894 l -18.42164,2.78212 -5.786052,-1.80343 z" sodipodi:nodetypes="ccccccc" /><path id="rect15121" style="fill:#ff0079;fill-opacity:1;fill-rule:evenodd;stroke-width:0.264583" transform="rotate(10.315269)" d="m 81.788708,135.27624 24.472002,0.15362 -0.13303,4.8304 -24.2596,-0.25148 z" sodipodi:nodetypes="ccccc" /><path id="rect15121-7" style="fill:#0f0f0f;fill-opacity:1;fill-rule:evenodd;stroke-width:0.264583" d="m 56.085304,148.69636 23.953573,4.77679 -0.506746,2.40619 -23.811976,-4.96636 z" sodipodi:nodetypes="ccccc" /><path id="path16304" style="fill:#ffffff;stroke-width:2.065;stroke-linecap:square;stroke-dashoffset:44.0315;paint-order:markers stroke fill" inkscape:transform-center-x="0.20777051" inkscape:transform-center-y="0.033023824" d="m 57.238782,148.69635 -1.067894,-0.51953 24.1217,4.09165 z" sodipodi:nodetypes="cccc" /><path id="path16304-1" style="fill:#ffffff;stroke-width:2.065;stroke-linecap:square;stroke-dashoffset:44.0315;paint-order:markers stroke fill" inkscape:transform-center-x="0.20777051" inkscape:transform-center-y="0.033023824" d="m 56.651156,152.26352 -1.067894,-0.51953 23.948869,4.13535 z" sodipodi:nodetypes="cccc" /><path id="path25685-5" style="fill:#393939;fill-opacity:1;stroke-width:2.065;stroke-linecap:square;stroke-dashoffset:44.0315;paint-order:markers stroke fill" inkscape:transform-center-x="0.22782113" inkscape:transform-center-y="1.2208326" d="m 104.41522,165.04976 3.91028,-1.22955 1.48946,-1.02045 -0.39192,-1.53906 -21.550651,-1.81776 z" sodipodi:nodetypes="cccccc" /><path id="rect14185-2" style="fill:#0f0f0f;fill-rule:evenodd;stroke-width:0.264583" d="m 111.46302,155.87828 -5.20627,-2.88815 -19.142387,-0.0215 -0.724867,6.06578 17.961384,4.94832 5.95916,-1.10414 z" sodipodi:nodetypes="ccccccc" /><path id="rect15121-5" style="fill:#ff0079;fill-opacity:1;fill-rule:evenodd;stroke-width:0.264583" d="m 111.26141,157.10238 -24.232394,-3.41963 -0.573374,4.7981 24.036548,3.29181 z" sodipodi:nodetypes="ccccc" /><path id="rect15121-7-9" style="fill:#0f0f0f;fill-opacity:1;fill-rule:evenodd;stroke-width:0.264583" d="m 111.10311,158.06348 -24.220172,-3.15831 -0.291774,2.4416 24.146856,2.93334 z" sodipodi:nodetypes="ccccc" /><path id="path16304-19" style="fill:#ffffff;stroke-width:2.065;stroke-linecap:square;stroke-dashoffset:44.0315;paint-order:markers stroke fill" inkscape:transform-center-x="-0.18620178" inkscape:transform-center-y="0.17270185" d="m 110.01057,157.69351 1.17811,-0.14957 -24.159667,-3.86118 z" sodipodi:nodetypes="cccc" /><path id="path16304-1-8" style="fill:#ffffff;stroke-width:2.065;stroke-linecap:square;stroke-dashoffset:44.0315;paint-order:markers stroke fill" inkscape:transform-center-x="-0.18620177" inkscape:transform-center-y="0.17270447" d="m 109.42304,161.2607 1.1781,-0.14958 -24.009976,-3.76435 z" sodipodi:nodetypes="cccc" /><path id="path16949" style="fill:#877070;fill-opacity:1;stroke-width:2.065;stroke-linecap:square;stroke-dashoffset:44.0315;paint-order:markers stroke fill" inkscape:transform-center-x="-0.35256316" inkscape:transform-center-y="0.011564027" d="m 75.44872,167.27403 1.314738,-1.57774 1.158016,0.69248 z" sodipodi:nodetypes="cccc" /><path id="path16949-0" style="fill:#877070;fill-opacity:1;stroke-width:2.065;stroke-linecap:square;stroke-dashoffset:44.0315;paint-order:markers stroke fill" inkscape:transform-center-x="0.35256284" inkscape:transform-center-y="0.011564027" d="m 83.154649,166.20037 -0.979802,-1.14309 -1.387183,0.78448 z" sodipodi:nodetypes="cccc" /><path id="path16949-7" style="fill:#877070;fill-opacity:1;stroke-width:2.065;stroke-linecap:square;stroke-dashoffset:44.0315;paint-order:markers stroke fill" inkscape:transform-center-x="0.35256284" inkscape:transform-center-y="0.011564027" d="m 79.681892,165.84176 -0.239417,-1.08415 -1.158016,0.69248 z" sodipodi:nodetypes="cccc" /><path id="path16949-7-4" style="fill:#877070;fill-opacity:1;stroke-width:2.065;stroke-linecap:square;stroke-dashoffset:44.0315;paint-order:markers stroke fill" inkscape:transform-center-x="0.35256284" inkscape:transform-center-y="0.011564027" d="m 85.701921,167.62322 -0.239417,-1.08414 -1.158016,0.69247 z" sodipodi:nodetypes="cccc" /><path id="path16949-7-1" style="fill:#877070;fill-opacity:1;stroke-width:2.065;stroke-linecap:square;stroke-dashoffset:44.0315;paint-order:markers stroke fill" inkscape:transform-center-x="0.35256284" inkscape:transform-center-y="0.011564027" d="m 83.445509,167.65747 -0.733007,-0.99601 -0.664426,0.60434 z" sodipodi:nodetypes="cccc" /><path id="path16949-7-1-1" style="fill:#877070;fill-opacity:1;stroke-width:2.065;stroke-linecap:square;stroke-dashoffset:44.0315;paint-order:markers stroke fill" inkscape:transform-center-x="0.31475892" inkscape:transform-center-y="0.010325492" d="m 82.935596,168.8348 -0.460501,-0.757 -0.787093,0.40733 z" sodipodi:nodetypes="cccc" /><path id="path16949-7-1-9" style="fill:#877070;fill-opacity:1;stroke-width:2.065;stroke-linecap:square;stroke-dashoffset:44.0315;paint-order:markers stroke fill" inkscape:transform-center-x="0.35256284" inkscape:transform-center-y="0.011564027" d="m 86.107371,169.65826 -0.733007,-0.99601 -0.664426,0.60434 z" sodipodi:nodetypes="cccc" /><path id="path16949-7-1-9-1" style="fill:#877070;fill-opacity:1;stroke-width:2.065;stroke-linecap:square;stroke-dashoffset:44.0315;paint-order:markers stroke fill" inkscape:transform-center-x="-0.28913866" inkscape:transform-center-y="0.015094027" d="m 78.88486,166.89638 0.903029,-0.84491 0.542501,0.71581 z" sodipodi:nodetypes="cccc" /><path id="path16949-7-3" style="fill:#877070;fill-opacity:1;stroke-width:2.065;stroke-linecap:square;stroke-dashoffset:44.0315;paint-order:markers stroke fill" inkscape:transform-center-x="-0.29794616" inkscape:transform-center-y="0.020839027" d="m 79.61089,167.40206 0.444431,0.84074 0.994568,-0.65231 z" sodipodi:nodetypes="cccc" /><path id="path22119" style="fill:#4b3838;stroke-width:2.065;stroke-linecap:square;stroke-dashoffset:44.0315;paint-order:markers stroke fill" inkscape:transform-center-x="0.19447427" inkscape:transform-center-y="0.19192618" d="m 80.380794,172.68286 7.000094,3.25794 -7.197241,-0.94196 -7.756853,-1.20447 z" sodipodi:nodetypes="ccccc" /><path id="path22119-6" style="fill:#bbbbbb;fill-opacity:1;stroke-width:2.065;stroke-linecap:square;stroke-dashoffset:44.0315;paint-order:markers stroke fill" inkscape:transform-center-x="0.23019427" inkscape:transform-center-y="-0.18368883" d="m 80.318367,172.99562 1.729709,0.80502 -0.498145,1.07617 v 0 l -1.376373,-0.18011 -2.340815,-0.36351 -0.144577,-0.97003 v 0 z" sodipodi:nodetypes="ccccccccc" /><path id="path24854" style="fill:#776565;stroke-width:2.065;stroke-linecap:square;stroke-dashoffset:44.0315;paint-order:markers stroke fill" inkscape:transform-center-x="-0.55440924" inkscape:transform-center-y="-0.055864725" d="m 101.65421,168.90407 -2.015542,5.21002 -6.367115,5.1566 -11.837329,1.93617 11.033902,-3.45311 6.128026,-4.23111 z" sodipodi:nodetypes="ccccccc" /></g><g inkscape:groupmode="layer" id="layer3" inkscape:label="Слой 3" sodipodi:insensitive="true" transform="translate(-32.417149,-127.51572)"><rect style="fill:url(#linearGradient27599);fill-opacity:1;fill-rule:evenodd;stroke-width:0.264583" id="rect27039" width="93.196754" height="93.196747" x="32.417149" y="127.51572" /><ellipse style="opacity:0.755952;fill:url(#radialGradient28088);fill-opacity:1;fill-rule:evenodd;stroke-width:0.264583" id="path27719" cx="108.33892" cy="128.05324" rx="47.360966" ry="29.470688" transform="rotate(16.229813)" /><ellipse style="opacity:0.66369;fill:url(#radialGradient28088-5);fill-opacity:1;fill-rule:evenodd;stroke-width:0.264582" id="path27719-1" cx="-53.414356" cy="180.21526" rx="41.481335" ry="25.812046" transform="matrix(-0.96014838,0.27949075,0.27949075,0.96014838,0,0)" /></g></svg>
