<?xml version="1.0" encoding="UTF-8" standalone="no"?>
<!-- Created with Inkscape (http://www.inkscape.org/) -->

<svg width="189.22682mm" height="115.46043mm" viewBox="0 0 189.22682 115.46043" version="1.1" id="svg8" enable-background="new" inkscape:version="1.3 (0e150ed6c4, 2023-07-21)" sodipodi:docname="bg.svg" xmlns:inkscape="http://www.inkscape.org/namespaces/inkscape" xmlns:sodipodi="http://sodipodi.sourceforge.net/DTD/sodipodi-0.dtd" xmlns="http://www.w3.org/2000/svg" xmlns:svg="http://www.w3.org/2000/svg" xmlns:rdf="http://www.w3.org/1999/02/22-rdf-syntax-ns#" xmlns:cc="http://creativecommons.org/ns#" xmlns:dc="http://purl.org/dc/elements/1.1/">
  <defs id="defs2">
    <filter inkscape:collect="always" style="color-interpolation-filters:sRGB" id="filter4861" x="0" y="0" width="1" height="1">
      <feBlend inkscape:collect="always" mode="color" in2="BackgroundImage" id="feBlend4863" />
    </filter>
  </defs>
  <sodipodi:namedview id="base" pagecolor="#ffffff" bordercolor="#666666" borderopacity="1.0" inkscape:pageopacity="0.0" inkscape:pageshadow="2" inkscape:zoom="0.9899495" inkscape:cx="334.36049" inkscape:cy="262.63966" inkscape:document-units="mm" inkscape:current-layer="layer1" showgrid="false" inkscape:window-width="2467" inkscape:window-height="1413" inkscape:window-x="84" inkscape:window-y="-9" inkscape:window-maximized="1" inkscape:showpageshadow="2" inkscape:pagecheckerboard="0" inkscape:deskcolor="#d1d1d1" />
  <metadata id="metadata5">
    <rdf:RDF>
      <cc:Work rdf:about="">
        <dc:format>image/svg+xml</dc:format>
        <dc:type rdf:resource="http://purl.org/dc/dcmitype/StillImage" />
        <dc:title />
      </cc:Work>
    </rdf:RDF>
  </metadata>
  <g inkscape:label="Layer 1" inkscape:groupmode="layer" id="layer1" transform="translate(-8.5526247,-27.725948)">
    <rect style="fill:#67e49c;fill-opacity:1;fill-rule:evenodd;stroke-width:0.264583" id="rect4518" width="189.22682" height="115.46043" x="8.5526247" y="27.725948" inkscape:export-xdpi="401" inkscape:export-ydpi="401" />
    <path style="fill:#99e5b8;fill-opacity:1;fill-rule:evenodd;stroke-width:0.264583" d="M 8.552618,50.386201 H 197.77945 V 83.7949 l -19.48873,15.027738 -9.00615,-31.818551 -9.81194,13.867244 -2.91571,14.544278 -3.72149,-5.163923 -5.76593,8.488577 -7.45322,-12.225806 -2.63479,3.916177 -10.82896,-7.982272 -4.22981,23.642778 -7.92501,-5.53099 -5.3381,10.02461 L 102.70656,85.185217 84.62466,104.90695 72.50959,88.257019 67.327072,97.959393 64.306142,95.037795 59.26969,106.56268 47.312981,89.04371 26.205951,114.79384 8.552618,100.90015 Z" id="rect4526-7" inkscape:connector-curvature="0" sodipodi:nodetypes="ccccccccccccccccccccccccc" />
    <path style="fill:#b0ebc8;fill-opacity:1;fill-rule:evenodd;stroke-width:0.264583" d="M 8.5526247,42.826677 H 197.77945 v 33.408698 l -19.48873,15.02774 -9.00615,-31.818552 -9.81194,13.867243 -2.91571,14.544278 -3.72149,-5.163922 -5.76593,8.488576 -7.45322,-12.225806 -2.63479,3.916179 -10.82896,-7.982273 -4.22981,23.642771 -7.92501,-5.530987 -5.3381,10.024618 L 102.70657,77.625692 84.624667,97.347422 72.5096,80.697494 67.327078,90.399868 64.306147,87.47827 59.269695,99.003147 47.312988,81.484185 26.205957,107.23432 8.5526247,93.340625 Z" id="rect4526" inkscape:connector-curvature="0" sodipodi:nodetypes="ccccccccccccccccccccccccc" />
    <path style="fill:#9bf4e0;fill-opacity:1;fill-rule:evenodd;stroke-width:0.264583" d="M 8.552625,31.864455 H 197.77946 V 50.439687 L 184.74966,70.785875 167.2796,44.924269 148.77849,75.275735 135.31474,51.111772 118.97144,70.766225 108.78636,60.317032 86.745861,73.046655 70.953403,60.270357 56.960368,79.698936 26.408608,44.980918 21.038522,64.12499 8.552625,75.830294 Z" id="rect4520-3" inkscape:connector-curvature="0" sodipodi:nodetypes="cccccccccccccccc" />
    <path style="fill:#bef8eb;fill-opacity:1;fill-rule:evenodd;stroke-width:0.264583" d="M 8.5526247,27.725949 H 197.77945 V 46.301181 L 184.74965,66.647369 167.27959,40.785763 148.77848,71.137229 135.31474,46.973266 118.97144,66.627717 108.78636,56.178525 86.745859,68.908148 70.953403,56.131852 56.960368,75.56043 26.408607,40.842412 21.038521,59.986484 8.5526247,71.691788 Z" id="rect4520" inkscape:connector-curvature="0" sodipodi:nodetypes="cccccccccccccccc" />
    <path style="fill:#dee7ec;fill-opacity:1;fill-rule:evenodd;stroke:none;stroke-width:4.565;stroke-linecap:square;stroke-miterlimit:4;stroke-dasharray:none;stroke-opacity:1;paint-order:markers stroke fill" d="m 0.53454,31.521924 8.796484,-1.697408 17.285794,-0.542183 12.538168,7.451347 26.185752,-5.211756 31.227134,9.512475 -23.045424,7.448646 -1.514161,5.660046 -34.730848,3.11204 L 27.245947,50.455373 7.754268,56.1547 0.53454,50.974296 Z" id="rect4523-5" inkscape:connector-curvature="0" sodipodi:nodetypes="ccccccccccccc" />
    <path style="fill:#fafcfc;fill-opacity:1;fill-rule:evenodd;stroke:none;stroke-width:4.565;stroke-linecap:square;stroke-miterlimit:4;stroke-dasharray:none;stroke-opacity:1;paint-order:markers stroke fill" d="m 0.53453912,27.45868 8.79648378,-1.697408 10.1782201,2.453549 7.107574,-2.995732 12.869681,1.955452 -0.331512,5.495895 26.185751,-5.211756 10e-7,4.063244 20.178848,5.023921 11.048286,4.488554 -19.681917,3.36597 -6.331531,1.397139 0.398979,3.251702 L 37.277437,53.191886 27.245946,46.392129 7.7542669,52.091456 0.53453912,46.911052 Z" id="rect4523" inkscape:connector-curvature="0" sodipodi:nodetypes="cccccccccccccccccc" />
    <path style="fill:#dee7ec;fill-opacity:1;fill-rule:evenodd;stroke:none;stroke-width:4.565;stroke-linecap:square;stroke-miterlimit:4;stroke-dasharray:none;stroke-opacity:1;paint-order:markers stroke fill" d="m 200.01411,27.952378 -7.39331,3.113444 -14.21221,2.130512 -9.62833,-4.563574 -12.33109,-0.21266 -18.16766,6.949007 -21.24111,-3.931011 -6.82219,5.467812 5.25164,11.236582 17.9815,-4.845082 -0.68679,3.27671 6.98571,-0.529689 v 5.345391 l 13.99714,-0.991848 19.55529,-3.512145 2.95225,4.926199 16.53943,0.773128 7.21973,-5.180404 z" id="rect4523-7-0" inkscape:connector-curvature="0" sodipodi:nodetypes="ccccccccccccccccccc" />
    <path style="fill:#fafcfc;fill-opacity:1;fill-rule:evenodd;stroke:none;stroke-width:4.565;stroke-linecap:square;stroke-miterlimit:4;stroke-dasharray:none;stroke-opacity:1;paint-order:markers stroke fill" d="m 200.01411,22.606987 -7.39332,3.113444 -14.2122,2.130512 -9.62833,-4.563574 -12.33109,-0.21266 -18.16766,6.949007 -21.24111,-3.931011 -6.82219,10.813203 5.25164,5.891191 15.99712,-2.766213 4.15603,-2.085827 -0.5317,3.620303 6.53108,-1.310072 -1.87211,5.789139 13.99714,-0.991848 19.55529,-3.512145 2.95225,4.926199 16.53943,0.773128 7.21973,-5.180404 z" id="rect4523-7" inkscape:connector-curvature="0" sodipodi:nodetypes="cccccccccccccccccccc" />
    <path style="opacity:1;fill:#dee7ec;fill-opacity:1;fill-rule:nonzero;stroke:none;stroke-width:4.565;stroke-linecap:square;stroke-linejoin:round;stroke-miterlimit:4;stroke-dasharray:none;stroke-dashoffset:44.0315;stroke-opacity:1;paint-order:markers stroke fill" inkscape:transform-center-x="0.92098489" inkscape:transform-center-y="-0.92098375" d="m 165.48593,49.443493 3.19038,11.906654 -11.90665,-3.190379 -1.5119,-2.763951 8.71627,-8.716274 z" id="path4577" inkscape:connector-curvature="0" sodipodi:nodetypes="cccccc" />
    <path sodipodi:type="star" style="opacity:1;fill:#fafcfc;fill-opacity:1;fill-rule:nonzero;stroke:none;stroke-width:4.565;stroke-linecap:square;stroke-linejoin:round;stroke-miterlimit:4;stroke-dasharray:none;stroke-dashoffset:44.0315;stroke-opacity:1;paint-order:markers stroke fill" id="path4577-0" sodipodi:sides="3" sodipodi:cx="162.13206" sodipodi:cy="53.553852" sodipodi:r1="7.1168089" sodipodi:r2="3.5584047" sodipodi:arg1="-1.3089969" sodipodi:arg2="-0.26179939" inkscape:flatsided="true" inkscape:rounded="0" inkscape:randomized="0" d="m 163.97403,46.679543 3.19038,11.906653 -11.90665,-3.190379 z" inkscape:transform-center-x="0.92098489" inkscape:transform-center-y="-0.92098375" />
    <path style="opacity:1;fill:#dee7ec;fill-opacity:1;fill-rule:nonzero;stroke:none;stroke-width:4.565;stroke-linecap:square;stroke-linejoin:round;stroke-miterlimit:4;stroke-dasharray:none;stroke-dashoffset:44.0315;stroke-opacity:1;paint-order:markers stroke fill" inkscape:transform-center-x="-0.88129113" inkscape:transform-center-y="-0.090415306" d="m 90.603966,35.368974 -5.914153,3.052881 0.313204,-6.648248 0.829773,-1.876009 5.600948,3.595366 z" id="path4577-0-2-4" inkscape:connector-curvature="0" sodipodi:nodetypes="cccccc" />
    <path sodipodi:type="star" style="opacity:1;fill:#fafcfc;fill-opacity:1;fill-rule:nonzero;stroke:none;stroke-width:8.4547;stroke-linecap:square;stroke-linejoin:round;stroke-miterlimit:4;stroke-dasharray:none;stroke-dashoffset:44.0315;stroke-opacity:1;paint-order:markers stroke fill" id="path4577-0-2" sodipodi:sides="3" sodipodi:cx="75.193306" sodipodi:cy="60.114899" sodipodi:r1="7.1168089" sodipodi:r2="3.5584047" sodipodi:arg1="-1.3089969" sodipodi:arg2="-0.26179939" inkscape:flatsided="true" inkscape:rounded="0" inkscape:randomized="0" d="M 77.035272,53.240589 80.22565,65.147243 68.318996,61.956864 Z" inkscape:transform-center-x="-0.88129224" inkscape:transform-center-y="-0.090415471" transform="matrix(0.11504814,0.52753703,-0.52753703,0.11504814,110.65736,-13.271225)" />
    <path style="opacity:1;fill:#dee7ec;fill-opacity:1;fill-rule:nonzero;stroke:none;stroke-width:4.565;stroke-linecap:square;stroke-linejoin:round;stroke-miterlimit:4;stroke-dasharray:none;stroke-dashoffset:44.0315;stroke-opacity:1;paint-order:markers stroke fill" inkscape:transform-center-x="-0.7801725" inkscape:transform-center-y="-0.080041072" d="m 26.708554,60.319123 -5.235567,2.702595 0.277268,-5.885431 0.734564,-1.660757 4.958299,3.182836 z" id="path4577-0-2-4-9" inkscape:connector-curvature="0" sodipodi:nodetypes="cccccc" />
    <path sodipodi:type="star" style="opacity:1;fill:#fafcfc;fill-opacity:1;fill-rule:nonzero;stroke:none;stroke-width:9.55052;stroke-linecap:square;stroke-linejoin:round;stroke-miterlimit:4;stroke-dasharray:none;stroke-dashoffset:44.0315;stroke-opacity:1;paint-order:markers stroke fill" id="path4577-0-2-8" sodipodi:sides="3" sodipodi:cx="75.193306" sodipodi:cy="60.114899" sodipodi:r1="7.1168089" sodipodi:r2="3.5584047" sodipodi:arg1="-1.3089969" sodipodi:arg2="-0.26179939" inkscape:flatsided="true" inkscape:rounded="0" inkscape:randomized="0" d="M 77.035272,53.240589 80.22565,65.147243 68.318996,61.956864 Z" inkscape:transform-center-x="-0.78017182" inkscape:transform-center-y="-0.080040855" transform="matrix(0.10184757,0.4670077,-0.4670077,0.10184757,44.461027,17.259879)" />
    <path style="opacity:1;fill:#dee7ec;fill-opacity:1;fill-rule:nonzero;stroke:none;stroke-width:4.565;stroke-linecap:square;stroke-linejoin:round;stroke-miterlimit:4;stroke-dasharray:none;stroke-dashoffset:44.0315;stroke-opacity:1;paint-order:markers stroke fill" inkscape:transform-center-x="0.59471611" inkscape:transform-center-y="-0.59471823" d="m 143.38376,23.461293 2.06017,7.688632 -7.68863,-2.060162 -0.9763,-1.784801 5.62846,-5.628469 z" id="path4577-4" inkscape:connector-curvature="0" sodipodi:nodetypes="cccccc" />
    <path sodipodi:type="star" style="opacity:1;fill:#fafcfc;fill-opacity:1;fill-rule:nonzero;stroke:none;stroke-width:4.565;stroke-linecap:square;stroke-linejoin:round;stroke-miterlimit:4;stroke-dasharray:none;stroke-dashoffset:44.0315;stroke-opacity:1;paint-order:markers stroke fill" id="path4577-0-7" sodipodi:sides="3" sodipodi:cx="141.21803" sodipodi:cy="26.115524" sodipodi:r1="4.5956259" sodipodi:r2="2.2978132" sodipodi:arg1="-1.3089969" sodipodi:arg2="-0.26179939" inkscape:flatsided="true" inkscape:rounded="0" inkscape:randomized="0" d="m 142.40747,21.676491 2.06016,7.688632 -7.68863,-2.060163 z" inkscape:transform-center-x="0.59471542" inkscape:transform-center-y="-0.59471902" />
    <path style="opacity:1;fill:#dee7ec;fill-opacity:1;fill-rule:nonzero;stroke:none;stroke-width:4.565;stroke-linecap:square;stroke-linejoin:round;stroke-miterlimit:4;stroke-dasharray:none;stroke-dashoffset:44.0315;stroke-opacity:1;paint-order:markers stroke fill" inkscape:transform-center-x="0.40735108" inkscape:transform-center-y="-0.40734976" d="m 189.11279,23.447306 1.4111,5.266295 -5.26629,-1.4111 -0.66871,-1.222491 3.85519,-3.855195 z" id="path4577-8" inkscape:connector-curvature="0" sodipodi:nodetypes="cccccc" />
    <path sodipodi:type="star" style="opacity:1;fill:#fafcfc;fill-opacity:1;fill-rule:nonzero;stroke:none;stroke-width:4.565;stroke-linecap:square;stroke-linejoin:round;stroke-miterlimit:4;stroke-dasharray:none;stroke-dashoffset:44.0315;stroke-opacity:1;paint-order:markers stroke fill" id="path4577-0-4" sodipodi:sides="3" sodipodi:cx="187.62938" sodipodi:cy="25.26531" sodipodi:r1="3.147754" sodipodi:r2="1.5738771" sodipodi:arg1="-1.3089969" sodipodi:arg2="-0.26179939" inkscape:flatsided="true" inkscape:rounded="0" inkscape:randomized="0" d="m 188.44408,22.224813 1.4111,5.266296 -5.2663,-1.4111 z" inkscape:transform-center-x="0.40735414" inkscape:transform-center-y="-0.40735106" />
    <path style="opacity:1;fill:#dee7ec;fill-opacity:1;fill-rule:nonzero;stroke:none;stroke-width:4.565;stroke-linecap:square;stroke-linejoin:round;stroke-miterlimit:4;stroke-dasharray:none;stroke-dashoffset:44.0315;stroke-opacity:1;paint-order:markers stroke fill" inkscape:transform-center-x="-1.0406664" inkscape:transform-center-y="-0.10676589" d="m 29.232436,26.848236 -6.98368,3.604968 0.369846,-7.850528 0.979831,-2.215271 6.613832,4.24556 z" id="path4577-0-2-4-1" inkscape:connector-curvature="0" sodipodi:nodetypes="cccccc" />
    <path sodipodi:type="star" style="opacity:1;fill:#fafcfc;fill-opacity:1;fill-rule:nonzero;stroke:none;stroke-width:7.15989;stroke-linecap:square;stroke-linejoin:round;stroke-miterlimit:4;stroke-dasharray:none;stroke-dashoffset:44.0315;stroke-opacity:1;paint-order:markers stroke fill" id="path4577-0-2-43" sodipodi:sides="3" sodipodi:cx="75.193306" sodipodi:cy="60.114899" sodipodi:r1="7.1168089" sodipodi:r2="3.5584047" sodipodi:arg1="-1.3089969" sodipodi:arg2="-0.26179939" inkscape:flatsided="true" inkscape:rounded="0" inkscape:randomized="0" d="M 77.035272,53.240589 80.22565,65.147243 68.318996,61.956864 Z" inkscape:transform-center-x="-1.0406647" inkscape:transform-center-y="-0.10676701" transform="matrix(0.13585362,0.62293768,-0.62293768,0.13585362,52.91231,-30.588137)" />
    <path style="opacity:1;fill:#dee7ec;fill-opacity:1;fill-rule:nonzero;stroke:none;stroke-width:4.565;stroke-linecap:square;stroke-linejoin:round;stroke-miterlimit:4;stroke-dasharray:none;stroke-dashoffset:44.0315;stroke-opacity:1;paint-order:markers stroke fill" inkscape:transform-center-x="1.1869047e-06" inkscape:transform-center-y="-1.3012252" d="m 94.945562,53.57676 9.342728,-4.160701 3.23317,-0.921046 -1.31253,3.039517 5.24626,3.882344 0.18762,2.676304 -1.30319,5.250913 -10.886488,-1.959984 -9.17962,2.094739 -7.45271,-2.662687 -7.947265,-3.543989 4.914389,0.333004 0.433579,-2.5448 3.574743,1.005881 -3.73654,-3.612239 6.434624,-1.665668 5.39799,0.568503 z" id="path4693-5" inkscape:connector-curvature="0" sodipodi:nodetypes="cccccccccccccccccc" />
    <path style="opacity:1;fill:#fafcfc;fill-opacity:1;fill-rule:nonzero;stroke:none;stroke-width:4.565;stroke-linecap:square;stroke-linejoin:round;stroke-miterlimit:4;stroke-dasharray:none;stroke-dashoffset:44.0315;stroke-opacity:1;paint-order:markers stroke fill" inkscape:transform-center-x="1.1869047e-06" inkscape:transform-center-y="-1.3012252" d="m 94.945562,51.672465 9.342738,-4.160701 3.23316,0.983249 -1.31252,1.135222 5.24625,5.786639 -1.11556,6.022922 -10.886494,-1.959984 -9.179622,2.094739 -7.452708,-2.662687 -7.947269,-1.639694 5.74961,-0.736074 -0.401642,-1.475722 3.574747,-0.898414 -3.736544,-1.707944 6.434628,-3.569963 5.397995,0.568503 z" id="path4693" inkscape:connector-curvature="0" sodipodi:nodetypes="ccccccccccccccccc" />
    <path style="opacity:1;fill:#dee7ec;fill-opacity:1;fill-rule:nonzero;stroke:none;stroke-width:4.565;stroke-linecap:square;stroke-linejoin:round;stroke-miterlimit:4;stroke-dasharray:none;stroke-dashoffset:44.0315;stroke-opacity:1;paint-order:markers stroke fill" inkscape:transform-center-x="0.33360453" inkscape:transform-center-y="-0.33360379" d="m 112.61974,49.991742 1.63362,3.051597 -0.47799,1.261291 -4.31289,-1.155635 0.47799,-1.261291 z" id="path4795" inkscape:connector-curvature="0" sodipodi:nodetypes="cccccc" />
    <path sodipodi:type="star" style="opacity:1;fill:#fafcfc;fill-opacity:1;fill-rule:nonzero;stroke:none;stroke-width:4.565;stroke-linecap:square;stroke-linejoin:round;stroke-miterlimit:4;stroke-dasharray:none;stroke-dashoffset:44.0315;stroke-opacity:1;paint-order:markers stroke fill" id="path4795-0" sodipodi:sides="3" sodipodi:cx="112.43051" sodipodi:cy="51.220497" sodipodi:r1="2.5778868" sodipodi:r2="1.2889434" sodipodi:arg1="-1.3089969" sodipodi:arg2="-0.26179939" inkscape:flatsided="true" inkscape:rounded="0" inkscape:randomized="0" d="m 113.09772,48.73045 1.15563,4.312888 -4.31289,-1.155635 z" inkscape:transform-center-x="0.33360453" inkscape:transform-center-y="-0.33360379" />
  </g>
  <g inkscape:groupmode="layer" id="layer2" inkscape:label="Layer 2" style="display:inline;opacity:0.424;filter:url(#filter4861)" sodipodi:insensitive="true" transform="translate(-8.5526247,-27.725948)">
    <rect style="fill:#b53e00;fill-opacity:1;fill-rule:evenodd;stroke-width:0.264583" id="rect4823" width="189.22682" height="115.46042" x="8.5526276" y="27.72596" />
  </g>
</svg>
