<?xml version="1.0" encoding="UTF-8" standalone="no"?>
<!-- Created with Inkscape (http://www.inkscape.org/) -->

<svg width="1222.7903mm" height="994.59247mm" viewBox="0 0 1222.7903 994.59247" version="1.1" id="svg8" inkscape:version="1.3 (0e150ed6c4, 2023-07-21)" sodipodi:docname="носорог.svg" xmlns:inkscape="http://www.inkscape.org/namespaces/inkscape" xmlns:sodipodi="http://sodipodi.sourceforge.net/DTD/sodipodi-0.dtd" xmlns="http://www.w3.org/2000/svg" xmlns:svg="http://www.w3.org/2000/svg" xmlns:rdf="http://www.w3.org/1999/02/22-rdf-syntax-ns#" xmlns:cc="http://creativecommons.org/ns#" xmlns:dc="http://purl.org/dc/elements/1.1/">
  <defs id="defs2" />
  <sodipodi:namedview id="base" pagecolor="#ffffff" bordercolor="#666666" borderopacity="1.0" inkscape:pageopacity="0.0" inkscape:pageshadow="2" inkscape:zoom="0.12374369" inkscape:cx="2076.8736" inkscape:cy="1543.5131" inkscape:document-units="mm" inkscape:current-layer="layer1" showgrid="false" showguides="false" inkscape:window-width="2467" inkscape:window-height="1413" inkscape:window-x="84" inkscape:window-y="-9" inkscape:window-maximized="1" inkscape:showpageshadow="2" inkscape:pagecheckerboard="0" inkscape:deskcolor="#d1d1d1" />
  <metadata id="metadata5">
    <rdf:RDF>
      <cc:Work rdf:about="">
        <dc:format>image/svg+xml</dc:format>
        <dc:type rdf:resource="http://purl.org/dc/dcmitype/StillImage" />
        <dc:title />
      </cc:Work>
    </rdf:RDF>
  </metadata>
  <g inkscape:label="Layer 1" inkscape:groupmode="layer" id="layer1" transform="translate(582.33734,212.4229)">
    <rect style="fill:#313731;fill-opacity:1;fill-rule:evenodd;stroke-width:0.264583" id="rect1162" width="1222.7903" height="994.59247" x="-582.33734" y="-212.4229" inkscape:export-xdpi="78" inkscape:export-ydpi="78" />
    <path style="fill:#183018;fill-opacity:1;fill-rule:evenodd;stroke-width:0.264583" d="M -582.33734,-85.511909 5.6521876,-178.05677 15.448858,48.180541 -289.81182,36.603207 -36.085326,-21.761637 -109.19727,-120.98914 -487.06886,66.771764 l 124.04772,198.286396 1003.47408,517.1114 -1222.79028,-1e-5 z" id="rect1164" inkscape:connector-curvature="0" sodipodi:nodetypes="ccccccccccc" />
    <path style="opacity:0.127;fill:#ffffff;fill-opacity:1;fill-rule:evenodd;stroke-width:0.264583" d="M 909.50006,-100.69685 335.40541,92.806057 V 142.39268 L 65.210024,32.629356 -87.748079,-5.508373 l -90.045661,28.263929 6.47919,71.85607 110.404627,28.240144 -23.731884,-3.1936 -129.023643,-19.40917 -87.72332,36.77915 93.82372,-21.37646 118.265645,20.21634 24.344251,14.24151 -2.022099,17.82629 18.628837,-8.11113 59.69145,34.92035 -55.219371,-5.83789 -11.050489,-10.29239 -21.074682,15.83365 -50.647032,-2.0593 -49.32464,-24.38559 -8.49509,-0.91571 13.00438,14.52263 -41.56542,-11.0908 -2.94246,-12.91807 -12.40131,8.64443 14.63012,11.2603 88.52431,31.13091 129.7052499,10.08569 20.0463241,-0.65681 -36.607586,7.20835 -225.712828,43.26919 -224.47157,-9.62732 0.80978,-3.38118 1.22317,-11.85768 -45.64838,13.36818 -10.14717,-0.43564 -0.0708,-2.70836 -0.66352,2.67736 -10.65723,-0.45734 -2.60398,-2.18849 1.20457,2.12855 -5.32577,-0.22841 -6.90655,-9.6976 -11.99203,3.77134 -0.0806,8.5385 -4.41576,7.17993 -6.69055,1.22938 1.86656,6.61355 -20.12849,32.72875 50.97054,44.01592 307.51611,11.4272 178.752384,-34.26664 -137.029354,76.21292 -301.75624,85.24027 -13.86171,58.35562 62.18174,25.86147 295.65689,-85.34725 95.471165,-53.09908 -88.434385,93.37362 115.613605,92.63621 70.767259,-63.03543 -18.32085,43.09143 -1.20819,1.69033 0.40979,0.18759 -6.38049,15.00735 L 168.52364,664.0487 335.40543,347.06081 V 391.0788 H 501.1121 L 833.59569,84.253612 Z" id="rect1160-6" inkscape:connector-curvature="0" />
    <rect style="fill:#571818;fill-opacity:1;fill-rule:evenodd;stroke-width:0.264583" id="rect1160" width="165.70712" height="298.27277" x="429.76941" y="63.940968" />
    <path style="fill:#ffc8a2;fill-opacity:1;fill-rule:evenodd;stroke-width:0.264583" d="M 131.27836,119.00897 -76.950182,65.746466 -83.429535,-6.1093111 6.6162798,-34.373216 159.57401,3.7641411 Z" id="rect838-3" inkscape:connector-curvature="0" sodipodi:nodetypes="cccccc" inkscape:transform-center-x="8.651107" inkscape:transform-center-y="77.929192" />
    <rect style="fill:#ffd8bd;fill-opacity:1;fill-rule:evenodd;stroke-width:0.264702" id="rect838-2-1" width="409.8645" height="94.112251" x="-246.89624" y="285.00375" transform="matrix(0.87392557,-0.48605977,0.44861574,0.89372474,0,0)" />
    <path style="fill:#ffd8bd;fill-opacity:1;fill-rule:evenodd;stroke-width:0.264583" d="m -389.66825,459.96189 301.756502,-85.24067 42.220233,84.11045 -295.656505,85.34694 -62.18183,-25.86135 z" id="rect838-2-44-7" inkscape:connector-curvature="0" sodipodi:nodetypes="cccccc" />
    <path style="fill:#ffc8a2;fill-opacity:1;fill-rule:evenodd;stroke-width:0.264583" d="M 122.2264,588.68362 287.02122,201.0754 377.30479,228.67878 262.88801,635.18385 Z" id="rect838-2-4-1" inkscape:connector-curvature="0" sodipodi:nodetypes="ccccc" />
    <path transform="rotate(-52.588844)" style="fill:#ffc8a2;fill-opacity:1;fill-rule:evenodd;stroke-width:0.264583" d="m -419.92214,272.51894 418.8533534,44.26451 v 94.40906 l -422.1948834,9.43717 z" id="rect838-2-4" inkscape:connector-curvature="0" sodipodi:nodetypes="ccccc" />
    <rect style="fill:#ffd8bd;fill-opacity:1;fill-rule:evenodd;stroke-width:0.264702" id="rect838-2" width="409.86453" height="94.112259" x="-177.15105" y="208.57695" transform="matrix(0.98211683,-0.18827249,0.14651402,0.98920859,0,0)" />
    <rect style="fill:#ffc8a2;fill-opacity:1;fill-rule:evenodd;stroke-width:0.264583" id="rect838" width="317.5162" height="118.66766" x="149.25739" y="-56.570934" transform="rotate(22.108792)" />
    <path style="fill:#ffddc5;fill-opacity:1;fill-rule:evenodd;stroke-width:0.264583" d="M 23.125493,208.05954 453.74355,123.26659 851.31633,15.087265 537.79116,227.94638 245.51238,462.4179 Z" id="rect835" inkscape:connector-curvature="0" sodipodi:nodetypes="cccccc" />
    <path sodipodi:type="star" style="opacity:1;fill:#44492a;fill-opacity:1;fill-rule:evenodd;stroke:none;stroke-width:3.02936;stroke-linecap:square;stroke-linejoin:miter;stroke-miterlimit:4;stroke-dasharray:none;stroke-dashoffset:0;stroke-opacity:1;paint-order:stroke fill markers" id="path1008" sodipodi:sides="3" sodipodi:cx="313.77441" sodipodi:cy="144.12183" sodipodi:r1="27.058977" sodipodi:r2="13.529488" sodipodi:arg1="1.9237867" sodipodi:arg2="2.9709843" inkscape:flatsided="true" inkscape:rounded="0" inkscape:randomized="0" d="m 304.41998,169.51243 -7.95726,-46.18708 43.97782,16.20235 z" inkscape:transform-center-x="-20.904781" inkscape:transform-center-y="-8.4185092" transform="matrix(3.9276092,0.80021597,-0.1996398,0.97986935,-946.01868,-188.71365)" />
    <path style="fill:#ffd0b1;fill-opacity:1;fill-rule:evenodd;stroke-width:0.264583" d="M -16.514511,476.80452 331.09593,238.9717 392.29978,310.85466 76.959025,591.74215 Z" id="rect838-2-4-4" inkscape:connector-curvature="0" sodipodi:nodetypes="ccccc" />
    <path style="fill:#ffd8bd;fill-opacity:1;fill-rule:evenodd;stroke-width:0.264583" d="m -456.70046,226.24221 313.2769,13.43656 13.78876,93.09665 -307.51631,-11.42736 -50.9706,-44.01576 z" id="rect838-2-44" inkscape:connector-curvature="0" sodipodi:nodetypes="cccccc" />
    <path style="opacity:1;fill:#191914;fill-opacity:1;fill-rule:evenodd;stroke:none;stroke-width:6.065;stroke-linecap:square;stroke-linejoin:miter;stroke-miterlimit:4;stroke-dasharray:none;stroke-dashoffset:0;stroke-opacity:1;paint-order:stroke fill markers" d="m -408.94524,230.20867 -12.2317,9.86917 6.20721,5.73557 z" id="path1086-1-0-0-2" inkscape:connector-curvature="0" sodipodi:nodetypes="cccc" />
    <path sodipodi:type="star" style="opacity:1;fill:#191914;fill-opacity:1;fill-rule:evenodd;stroke:none;stroke-width:14.3419;stroke-linecap:square;stroke-linejoin:miter;stroke-miterlimit:4;stroke-dasharray:none;stroke-dashoffset:0;stroke-opacity:1;paint-order:stroke fill markers" id="path1086" sodipodi:sides="3" sodipodi:cx="-544.09674" sodipodi:cy="252.96577" sodipodi:r1="17.331352" sodipodi:r2="8.6656761" sodipodi:arg1="1.8925469" sodipodi:arg2="2.9397444" inkscape:flatsided="true" inkscape:rounded="0" inkscape:randomized="0" d="m -549.5774,269.40774 -6.01817,-29.40933 28.47832,9.49277 z" inkscape:transform-center-x="2.0885795" inkscape:transform-center-y="1.9615157" transform="matrix(0.10298752,0.0520347,-0.69893015,1.3833285,-205.75883,-62.890257)" />
    <path style="opacity:1;fill:#191914;fill-opacity:1;fill-rule:evenodd;stroke:none;stroke-width:6.065;stroke-linecap:square;stroke-linejoin:miter;stroke-miterlimit:4;stroke-dasharray:none;stroke-dashoffset:0;stroke-opacity:1;paint-order:stroke fill markers" inkscape:transform-center-x="-0.83276026" inkscape:transform-center-y="-1.6184598" d="m -421.72839,225.03678 0.70077,26.81997 -4.03819,-13.34872 z" id="path1086-1-0-0" inkscape:connector-curvature="0" sodipodi:nodetypes="cccc" />
    <path style="fill:#1a1a1a;fill-opacity:1;fill-rule:evenodd;stroke-width:0.264583" d="m 257.48096,199.79461 19.11237,-9.65267 59.2986,39.0584 -2.91885,12.90623 -60.07304,13.50265 3.07218,27.93957 47.39346,23.79287 -44.64169,10.77468 -26.5478,-76.38598 12.26193,-16.01544 4.36845,10.02933 17.69664,-6.36988 z" id="rect984" inkscape:connector-curvature="0" sodipodi:nodetypes="ccccccccccccc" />
    <path style="fill:#556b00;fill-opacity:1;fill-rule:evenodd;stroke-width:0.264583" d="m 213.31935,118.46907 152.68374,-15.50163 111.98136,77.05455 -27.37072,60.85652 -199.64311,-47.57398 z" id="rect832" inkscape:connector-curvature="0" sodipodi:nodetypes="cccccc" />
    <path style="fill:#445500;fill-opacity:1;fill-rule:evenodd;stroke-width:0.264583" d="m 236.98549,147.6994 139.47878,-12.85119 79.8372,51.08155 -5.68774,54.94875 -199.64312,-47.57399 z" id="rect1012" inkscape:connector-curvature="0" sodipodi:nodetypes="cccccc" />
    <path style="fill:#ffc29a;fill-opacity:1;fill-rule:evenodd;stroke-width:0.264583" d="M 128.19709,573.48854 358.96908,250.62865 445.66716,287.99861 262.88801,635.18385 Z" id="rect838-2-4-4-9" inkscape:connector-curvature="0" sodipodi:nodetypes="ccccc" />
    <path style="fill:#333333;fill-opacity:1;fill-rule:evenodd;stroke-width:0.264583" d="m 235.80418,191.38073 26.90411,-16.38859 -5.14994,13.9146 -6.17987,19.10729 4.90263,8.62423 -15.50895,11.97021 -15.23872,36.21463 -54.88062,21.55184 -0.51523,30.19356 -43.26916,-24.25949 83.35155,-38.16724 5.56263,-33.15365 7.82411,3.9075 z" id="rect987" inkscape:connector-curvature="0" sodipodi:nodetypes="cccccccccccccc" />
    <path style="fill:#1a1a1a;fill-opacity:1;fill-rule:evenodd;stroke-width:0.264583" d="m 390.10078,208.42143 19.47786,27.60549 41.03509,4.85159 -0.057,-9.66186 29.08348,40.07611 5.93481,56.60968 -35.80169,-69.59213 -50.84889,-11.37138 -31.33633,-22.91178 -30.68863,-10.76149 z" id="rect1005" inkscape:connector-curvature="0" sodipodi:nodetypes="ccccccccccc" />
    <g id="g1018" transform="translate(-8.1803643,5.036066)">
      <path sodipodi:nodetypes="ccccccccccccccccccccc" inkscape:connector-curvature="0" id="rect815" d="m 17.902526,85.757051 206.034084,95.234049 -116.9055,3.8306 -129.705342,-10.08544 -88.524118,-31.13133 -14.63018,-11.26003 12.40118,-8.64433 2.94239,12.91795 41.565813,11.09092 -13.004604,-14.5228 8.495273,0.91566 49.324602,24.3857 50.646761,2.05924 21.074912,-15.83344 11.05022,10.29237 55.219723,5.8377 -100.642821,-58.87703 -118.265609,-20.216219 -93.82329,21.376559 87.72285,-36.779089 z" style="fill:#1a1a1a;fill-rule:evenodd;stroke-width:0.264583" />
      <path sodipodi:nodetypes="cccccc" inkscape:connector-curvature="0" id="path829" d="m 17.902526,85.757051 195.416824,26.297549 66.60919,30.07968 -20.77756,50.41051 -56.5937,15.36154 z" inkscape:transform-center-y="15.619257" inkscape:transform-center-x="4.0520492" style="opacity:1;fill:#1a1a1a;fill-opacity:1;fill-rule:evenodd;stroke:none;stroke-width:6.065;stroke-linecap:square;stroke-linejoin:miter;stroke-miterlimit:4;stroke-dasharray:none;stroke-dashoffset:0;stroke-opacity:1;paint-order:stroke fill markers" />
      <path transform="rotate(4.5718354,264.57723,295.38924)" inkscape:transform-center-y="-1.2295043" inkscape:transform-center-x="-4.3543724" d="m 23.434522,152.80208 1.252899,-37.76502 32.079022,19.96755 z" inkscape:randomized="0" inkscape:rounded="0" inkscape:flatsided="true" sodipodi:arg2="3.1747566" sodipodi:arg1="2.1275591" sodipodi:r2="10.907823" sodipodi:r1="21.815643" sodipodi:cy="134.28125" sodipodi:cx="34.962795" sodipodi:sides="3" id="path1010" style="opacity:1;fill:#1a1a1a;fill-opacity:1;fill-rule:evenodd;stroke:none;stroke-width:6.065;stroke-linecap:square;stroke-linejoin:miter;stroke-miterlimit:4;stroke-dasharray:none;stroke-dashoffset:0;stroke-opacity:1;paint-order:stroke fill markers" sodipodi:type="star" />
    </g>
    <path style="opacity:1;fill:#191914;fill-opacity:1;fill-rule:evenodd;stroke:none;stroke-width:6.065;stroke-linecap:square;stroke-linejoin:miter;stroke-miterlimit:4;stroke-dasharray:none;stroke-dashoffset:0;stroke-opacity:1;paint-order:stroke fill markers" inkscape:transform-center-x="1.5144639" inkscape:transform-center-y="-2.4322793" d="m -435.65283,225.06791 33.54375,28.19103 -27.95437,-18.31579 z" id="path1086-1-0" inkscape:connector-curvature="0" sodipodi:nodetypes="cccc" />
    <path sodipodi:type="star" style="opacity:1;fill:#484537;fill-opacity:1;fill-rule:evenodd;stroke:none;stroke-width:12.0925;stroke-linecap:square;stroke-linejoin:miter;stroke-miterlimit:4;stroke-dasharray:none;stroke-dashoffset:0;stroke-opacity:1;paint-order:stroke fill markers" id="path1020" sodipodi:sides="5" sodipodi:cx="-392.6189" sodipodi:cy="237.3989" sodipodi:r1="37.065765" sodipodi:r2="18.532883" sodipodi:arg1="2.4634733" sodipodi:arg2="3.0917918" inkscape:flatsided="true" inkscape:rounded="0" inkscape:randomized="0" d="m -421.48401,260.65135 -2.16909,-43.5194 40.71912,-15.51117 27.33489,33.93297 -23.82522,36.4829 z" inkscape:transform-center-x="-5.7039057" inkscape:transform-center-y="0.62675056" transform="matrix(0.12659913,0.38802179,-0.63917509,0.02795358,-202.44551,393.1415)" />
    <path style="opacity:0.609;fill:#a7ac93;fill-rule:evenodd;stroke-width:0.264583" d="m -432.2618,234.2578 66.3999,-19.44552 -1.22308,11.8579 -2.93901,12.27119 -15.41626,9.11751 -47.63492,-6.11849 z" id="rect1033" inkscape:connector-curvature="0" sodipodi:nodetypes="ccccccc" />
    <path sodipodi:type="star" style="opacity:1;fill:#191914;fill-opacity:1;fill-rule:evenodd;stroke:none;stroke-width:14.3419;stroke-linecap:square;stroke-linejoin:miter;stroke-miterlimit:4;stroke-dasharray:none;stroke-dashoffset:0;stroke-opacity:1;paint-order:stroke fill markers" id="path1086-5" sodipodi:sides="3" sodipodi:cx="-544.09674" sodipodi:cy="252.96577" sodipodi:r1="17.331352" sodipodi:r2="8.6656761" sodipodi:arg1="1.8925469" sodipodi:arg2="2.9397444" inkscape:flatsided="true" inkscape:rounded="0" inkscape:randomized="0" d="m -549.5774,269.40774 -6.01817,-29.40933 28.47832,9.49277 z" inkscape:transform-center-x="0.20494448" inkscape:transform-center-y="2.8579065" transform="matrix(0.11097752,-0.03159161,0.42433856,1.4906501,-465.79754,-132.67223)" />
    <path sodipodi:type="star" style="opacity:1;fill:#191914;fill-opacity:1;fill-rule:evenodd;stroke:none;stroke-width:14.3419;stroke-linecap:square;stroke-linejoin:miter;stroke-miterlimit:4;stroke-dasharray:none;stroke-dashoffset:0;stroke-opacity:1;paint-order:stroke fill markers" id="path1086-1" sodipodi:sides="3" sodipodi:cx="-544.09674" sodipodi:cy="252.96577" sodipodi:r1="17.331352" sodipodi:r2="8.6656761" sodipodi:arg1="1.8925469" sodipodi:arg2="2.9397444" inkscape:flatsided="true" inkscape:rounded="0" inkscape:randomized="0" d="m -549.5774,269.40774 -6.01817,-29.40933 28.47832,9.49277 z" inkscape:transform-center-x="-0.5790405" inkscape:transform-center-y="2.8061355" transform="matrix(0.0982235,-0.06054904,0.81329465,1.319338,-557.79825,-103.51944)" />
    <path style="opacity:0.62;fill:#a7ac93;fill-rule:evenodd;stroke-width:0.264583" d="m -424.35934,253.52099 59.13216,35.92302 1.8786,-11.77185 0.32744,-12.614 -12.54102,-12.7872 -47.60031,-6.3822 z" id="rect1033-4" inkscape:connector-curvature="0" sodipodi:nodetypes="ccccccc" />
    <path style="opacity:1;fill:#191914;fill-opacity:1;fill-rule:evenodd;stroke:none;stroke-width:6.065;stroke-linecap:square;stroke-linejoin:miter;stroke-miterlimit:4;stroke-dasharray:none;stroke-dashoffset:0;stroke-opacity:1;paint-order:stroke fill markers" inkscape:transform-center-x="0.3054315" inkscape:transform-center-y="1.8532331" d="m -469.85964,237.98961 24.39709,-4.48256 -0.96808,12.61806 -11.91444,-6.76182 -6.42559,0.76968 -3.03512,5.13422 z" id="path1083" inkscape:connector-curvature="0" sodipodi:nodetypes="ccccccc" />
    <path sodipodi:type="star" style="opacity:1;fill:#37352a;fill-opacity:1;fill-rule:evenodd;stroke:none;stroke-width:12.0925;stroke-linecap:square;stroke-linejoin:miter;stroke-miterlimit:4;stroke-dasharray:none;stroke-dashoffset:0;stroke-opacity:1;paint-order:stroke fill markers" id="path1020-5" sodipodi:sides="5" sodipodi:cx="-392.6189" sodipodi:cy="237.3989" sodipodi:r1="37.065765" sodipodi:r2="18.532883" sodipodi:arg1="2.4634733" sodipodi:arg2="3.0917918" inkscape:flatsided="true" inkscape:rounded="0" inkscape:randomized="0" d="m -421.48401,260.65135 -2.16909,-43.5194 40.71912,-15.51117 27.33489,33.93297 -23.82522,36.4829 z" inkscape:transform-center-x="-5.7039132" inkscape:transform-center-y="0.62675402" transform="matrix(0.12659912,0.38802179,-0.6391751,0.02795358,-229.17403,387.5171)" />
    <path sodipodi:type="star" style="opacity:1;fill:#942929;fill-opacity:1;fill-rule:evenodd;stroke:none;stroke-width:6.065;stroke-linecap:square;stroke-linejoin:miter;stroke-miterlimit:4;stroke-dasharray:none;stroke-dashoffset:0;stroke-opacity:1;paint-order:stroke fill markers" id="path1066" sodipodi:sides="5" sodipodi:cx="-460.6019" sodipodi:cy="258.62305" sodipodi:r1="10.693388" sodipodi:r2="8.6511326" sodipodi:arg1="1.0471976" sodipodi:arg2="1.6755161" inkscape:flatsided="true" inkscape:rounded="0" inkscape:randomized="0" d="m -455.2552,267.88379 -12.50197,-1.31401 -2.61362,-12.29613 10.88666,-6.28541 9.34194,8.41153 z" inkscape:transform-center-x="-0.99134402" inkscape:transform-center-y="0.031267868" transform="rotate(12.54217,-313.31795,290.88489)" />
    <path sodipodi:type="star" style="opacity:1;fill:#942929;fill-opacity:1;fill-rule:evenodd;stroke:none;stroke-width:6.065;stroke-linecap:square;stroke-linejoin:miter;stroke-miterlimit:4;stroke-dasharray:none;stroke-dashoffset:0;stroke-opacity:1;paint-order:stroke fill markers" id="path1066-8" sodipodi:sides="5" sodipodi:cx="-455.71915" sodipodi:cy="-280.4603" sodipodi:r1="10.693388" sodipodi:r2="8.6511326" sodipodi:arg1="1.0471976" sodipodi:arg2="1.6755161" inkscape:flatsided="true" inkscape:rounded="0" inkscape:randomized="0" d="m -450.37245,-271.19955 -12.50197,-1.31401 -2.61362,-12.29613 10.88666,-6.28542 9.34195,8.41153 z" inkscape:transform-center-x="0.37649059" inkscape:transform-center-y="0.65641856" transform="matrix(0.97613644,0.21715811,0.21715811,-0.97613644,55.691133,74.98108)" />
    <path style="fill:#782121;fill-rule:evenodd;stroke-width:0.264583" d="M 429.7694,63.940969 1003.8643,-129.56217 927.95979,55.388337 595.47651,362.21375 547.94465,126.97784 Z" id="rect1157" inkscape:connector-curvature="0" sodipodi:nodetypes="cccccc" />
    <path style="fill:#183018;fill-opacity:1;fill-rule:evenodd;stroke-width:0.264583" d="m 640.45294,-31.597509 -122.53741,19.286409 -2.04163,-47.148004 63.61652,2.412723 -52.87677,12.163273 15.23658,20.679077 78.74869,-39.129498 -25.85163,-41.323011 -209.12466,-107.76636 h 254.83031 z" id="rect1164-4" inkscape:connector-curvature="0" sodipodi:nodetypes="ccccccccccc" />
  </g>
</svg>
