<?xml version="1.0" encoding="UTF-8" standalone="no"?>
<!-- Created with Inkscape (http://www.inkscape.org/) -->

<svg width="374.57434mm" height="370.27438mm" viewBox="0 0 374.57434 370.27438" version="1.1" id="svg8" inkscape:version="1.3 (0e150ed6c4, 2023-07-21)" sodipodi:docname="слоны.svg" xmlns:inkscape="http://www.inkscape.org/namespaces/inkscape" xmlns:sodipodi="http://sodipodi.sourceforge.net/DTD/sodipodi-0.dtd" xmlns:xlink="http://www.w3.org/1999/xlink" xmlns="http://www.w3.org/2000/svg" xmlns:svg="http://www.w3.org/2000/svg" xmlns:rdf="http://www.w3.org/1999/02/22-rdf-syntax-ns#" xmlns:cc="http://creativecommons.org/ns#" xmlns:dc="http://purl.org/dc/elements/1.1/">
  <defs id="defs2">
    <linearGradient inkscape:collect="always" id="linearGradient1149">
      <stop style="stop-color:#ff2ad4;stop-opacity:1;" offset="0" id="stop1145" />
      <stop style="stop-color:#ff2ad4;stop-opacity:0;" offset="1" id="stop1147" />
    </linearGradient>
    <linearGradient inkscape:collect="always" id="linearGradient1015">
      <stop style="stop-color:#ffb500;stop-opacity:1" offset="0" id="stop1011" />
      <stop style="stop-color:#0000ff;stop-opacity:0;" offset="1" id="stop1013" />
    </linearGradient>
    <inkscape:path-effect effect="bend_path" id="path-effect827" is_visible="true" bendpath="m -72.576488,40.437618 c 0,0 -61.010152,6.967606 -65.726032,31.224545 -4.71588,24.256939 26.68661,49.438157 51.090297,55.588957 13.806223,3.47977 40.357196,-13.99222 40.357196,-13.99222" prop_scale="1.1304798" scale_y_rel="false" vertical="false" bendpath-nodetypes="czac" lpeversion="0" hide_knot="false" />
    <radialGradient inkscape:collect="always" xlink:href="#linearGradient1015" id="radialGradient1017" cx="237.13959" cy="-45.154552" fx="237.13959" fy="-45.154552" r="187.28717" gradientTransform="matrix(-1.8066546,0.93900375,-0.45588208,-0.87712265,663.88838,-184.97659)" gradientUnits="userSpaceOnUse" />
    <linearGradient inkscape:collect="always" xlink:href="#linearGradient1149" id="linearGradient1153" x1="224.45262" y1="313.72543" x2="71.637825" y2="37.802937" gradientUnits="userSpaceOnUse" />
  </defs>
  <sodipodi:namedview id="base" pagecolor="#ffffff" bordercolor="#666666" borderopacity="1.0" inkscape:pageopacity="0.0" inkscape:pageshadow="2" inkscape:zoom="0.49497475" inkscape:cx="775.79715" inkscape:cy="717.2083" inkscape:document-units="mm" inkscape:current-layer="layer1" showgrid="false" inkscape:window-width="2467" inkscape:window-height="1413" inkscape:window-x="84" inkscape:window-y="-9" inkscape:window-maximized="1" inkscape:showpageshadow="2" inkscape:pagecheckerboard="0" inkscape:deskcolor="#d1d1d1" />
  <metadata id="metadata5">
    <rdf:RDF>
      <cc:Work rdf:about="">
        <dc:format>image/svg+xml</dc:format>
        <dc:type rdf:resource="http://purl.org/dc/dcmitype/StillImage" />
        <dc:title />
      </cc:Work>
    </rdf:RDF>
  </metadata>
  <g inkscape:label="Layer 1" inkscape:groupmode="layer" id="layer1" transform="translate(93.360123,57.399395)">
    <rect style="fill:#170b28;fill-rule:evenodd;stroke-width:0.264583" id="rect988" width="374.57437" height="370.27438" x="-93.360123" y="-57.399395" />
    <rect style="fill:url(#linearGradient1153);fill-opacity:1;fill-rule:evenodd;stroke-width:0.264583" id="rect1143" width="374.57434" height="370.27441" x="-93.360123" y="-57.399399" />
    <path sodipodi:type="star" style="opacity:0.67;fill:#ffb500;fill-opacity:1;fill-rule:evenodd;stroke:none;stroke-width:0.465;stroke-linecap:square;stroke-linejoin:miter;stroke-miterlimit:4;stroke-dasharray:none;stroke-dashoffset:0;stroke-opacity:1;paint-order:stroke markers fill" id="path1019-7" sodipodi:sides="7" sodipodi:cx="64.636086" sodipodi:cy="1.4708712" sodipodi:r1="3.9461877" sodipodi:r2="1.9730936" sodipodi:arg1="-1.3089969" sodipodi:arg2="-0.86019799" inkscape:flatsided="false" inkscape:rounded="0" inkscape:randomized="0" d="M 65.657434,-2.3408534 65.92311,-0.02467797 68.253012,-0.10717765 66.607799,1.5446475 68.124971,3.3148011 65.807748,3.058418 65.369727,5.348263 64.125411,3.3767333 62.062037,4.4619698 62.827622,2.2598956 60.692657,1.3233184 62.891643,0.54890646 62.29276,-1.7042228 l 1.976504,1.23639836 z" inkscape:transform-center-x="0.16324973" inkscape:transform-center-y="0.032833844" />
    <path sodipodi:type="star" style="opacity:1;fill:#ff8f06;fill-opacity:1;fill-rule:evenodd;stroke:none;stroke-width:0.465;stroke-linecap:square;stroke-linejoin:miter;stroke-miterlimit:4;stroke-dasharray:none;stroke-dashoffset:0;stroke-opacity:1;paint-order:stroke markers fill" id="path992" sodipodi:sides="7" sodipodi:cx="248.04335" sodipodi:cy="81.419922" sodipodi:r1="134.40953" sodipodi:r2="67.204765" sodipodi:arg1="-1.8325957" sodipodi:arg2="-1.3837967" inkscape:flatsided="false" inkscape:rounded="0" inkscape:randomized="0" d="m 213.25561,-48.409716 47.28189,63.796489 67.32094,-42.11246 -20.39832,76.742934 74.89877,26.376944 -72.71819,31.900389 26.07629,75.00397 -70.27977,-36.96381 -42.38216,67.15148 -14.91926,-77.9935 -78.92599,8.73256 51.67577,-60.292496 -56.03693,-56.262163 79.35788,2.809986 z" inkscape:transform-center-x="-15.528995" inkscape:transform-center-y="-6.9932843" transform="rotate(32.316431,236.2099,99.93213)" />
    <path sodipodi:type="star" style="opacity:0.67;fill:#ffb500;fill-opacity:1;fill-rule:evenodd;stroke:none;stroke-width:0.465;stroke-linecap:square;stroke-linejoin:miter;stroke-miterlimit:4;stroke-dasharray:none;stroke-dashoffset:0;stroke-opacity:1;paint-order:stroke markers fill" id="path1019-1-5" sodipodi:sides="7" sodipodi:cx="83.649384" sodipodi:cy="-13.567512" sodipodi:r1="3.9461877" sodipodi:r2="1.9730936" sodipodi:arg1="-1.3089969" sodipodi:arg2="-0.86019799" inkscape:flatsided="false" inkscape:rounded="0" inkscape:randomized="0" d="m 84.670732,-17.379236 0.265676,2.316175 2.329902,-0.0825 -1.645213,1.651825 1.517172,1.770153 -2.317223,-0.256383 -0.438021,2.2898452 -1.244316,-1.9715292 -2.063374,1.085236 0.765585,-2.202074 -2.134965,-0.936577 2.198986,-0.774412 -0.598883,-2.25313 1.976505,1.236399 z" inkscape:transform-center-x="0.16324973" inkscape:transform-center-y="0.032833844" />
    <path sodipodi:type="star" style="opacity:1;fill:#ffb03a;fill-opacity:1;fill-rule:evenodd;stroke:none;stroke-width:0.575662;stroke-linecap:square;stroke-linejoin:miter;stroke-miterlimit:4;stroke-dasharray:none;stroke-dashoffset:0;stroke-opacity:1;paint-order:stroke markers fill" id="path992-4" sodipodi:sides="7" sodipodi:cx="248.04335" sodipodi:cy="81.419922" sodipodi:r1="134.40953" sodipodi:r2="67.204765" sodipodi:arg1="-1.8325957" sodipodi:arg2="-1.3837967" inkscape:flatsided="false" inkscape:rounded="0" inkscape:randomized="0" d="m 213.25561,-48.409716 47.28189,63.796489 67.32094,-42.11246 -20.39832,76.742934 74.89877,26.376944 -72.71819,31.900389 26.07629,75.00397 -70.27977,-36.96381 -42.38216,67.15148 -14.91926,-77.9935 -78.92599,8.73256 51.67577,-60.292496 -56.03693,-56.262163 79.35788,2.809986 z" inkscape:transform-center-x="-12.543797" inkscape:transform-center-y="-5.6489393" transform="matrix(0.68265012,0.43182754,-0.43182754,0.68265012,121.89439,-71.044443)" />
    <path sodipodi:type="star" style="opacity:0.67;fill:#ffb500;fill-opacity:1;fill-rule:evenodd;stroke:none;stroke-width:0.465;stroke-linecap:square;stroke-linejoin:miter;stroke-miterlimit:4;stroke-dasharray:none;stroke-dashoffset:0;stroke-opacity:1;paint-order:stroke markers fill" id="path1019-2-8" sodipodi:sides="7" sodipodi:cx="70.467232" sodipodi:cy="77.912338" sodipodi:r1="3.9461877" sodipodi:r2="1.9730936" sodipodi:arg1="-1.3089969" sodipodi:arg2="-0.86019799" inkscape:flatsided="false" inkscape:rounded="0" inkscape:randomized="0" d="m 71.48858,74.100614 0.265676,2.316175 2.329903,-0.0825 -1.645213,1.651826 1.517171,1.770153 -2.317222,-0.256383 -0.438021,2.289845 -1.244316,-1.97153 -2.063375,1.085237 0.765586,-2.202074 -2.134965,-0.936578 2.198985,-0.774411 -0.598883,-2.25313 1.976505,1.236399 z" inkscape:transform-center-x="0.16324973" inkscape:transform-center-y="0.032833844" />
    <path style="fill:#552200;fill-rule:evenodd;stroke-width:0.264583" d="m -113.77083,267.89583 65.767854,0.37798 153.995356,-42.7645 44.96493,-23.86049 144.24206,-97.41668 -13.98512,208.64285 H -93.360119 Z" id="rect970" inkscape:connector-curvature="0" sodipodi:nodetypes="cccccccc" />
    <path style="fill:#803300;fill-rule:evenodd;stroke-width:0.264583" d="m -113.77083,267.89583 65.76785,24.94095 51.7958721,-12.07503 57.5514599,13.35786 44.648028,-20.49587 31.9615,22.32951 35.2873,-25.39945 64.27268,14.27263 57.68551,-180.59429 -13.98512,208.64285 H -93.360121 Z" id="rect970-7" inkscape:connector-curvature="0" sodipodi:nodetypes="cccccccccccc" />
    <path style="fill:#a08282;fill-opacity:1;fill-rule:evenodd;stroke-width:0.264583" d="M 43.173364,66.01108 51.984567,14.312971 -29.637548,28.690552 -7.219864,102.04646 38.855426,80.076242 Z" id="rect829-5" inkscape:connector-curvature="0" sodipodi:nodetypes="cccccc" inkscape:transform-center-x="20.012518" inkscape:transform-center-y="-46.925905" />
    <g id="g968" transform="translate(-12.662202,-1.889881)">
      <rect transform="matrix(0.90651411,0.42217551,-0.90651411,0.42217551,0,0)" y="56.233486" x="86.671242" height="31.020763" width="31.020763" id="rect847-7" style="fill:#ffcc00;fill-rule:evenodd;stroke-width:0.302422" />
      <g id="g959">
        <rect style="fill:#112b00;fill-rule:evenodd;stroke-width:0.302422" id="rect847-8-7" width="26.114418" height="26.114418" x="89.124413" y="58.686661" transform="matrix(0.90651411,0.42217551,-0.90651411,0.42217551,0,0)" />
        <rect style="fill:#ffcc00;fill-opacity:1;fill-rule:evenodd;stroke-width:0.302422" id="rect847-8-6-79" width="19.941919" height="19.941919" x="92.21067" y="61.772911" transform="matrix(0.90651411,0.42217551,-0.90651411,0.42217551,0,0)" />
        <rect style="fill:#112b00;fill-opacity:1;fill-rule:evenodd;stroke-width:0.302422" id="rect847-8-6-7-5" width="14.719036" height="14.719036" x="94.822121" y="64.384354" transform="matrix(0.90651411,0.42217551,-0.90651411,0.42217551,0,0)" />
        <rect style="fill:#ffcc00;fill-opacity:1;fill-rule:evenodd;stroke-width:0.302422" id="rect847-8-6-0-1" width="11.078844" height="11.078844" x="96.642204" y="66.204453" transform="matrix(0.90651411,0.42217551,-0.90651411,0.42217551,0,0)" />
        <rect style="fill:#112b00;fill-rule:evenodd;stroke-width:0.302422" id="rect847-8-61-2" width="14.505402" height="14.505402" x="65.925667" y="-15.073721" transform="matrix(0.42217549,0.90651412,0.42217549,-0.90651412,0,0)" />
      </g>
    </g>
    <path style="fill:#6c5353;fill-rule:evenodd;stroke-width:0.264583" d="m 25.702377,79.663688 71.059525,10.205356 h 90.903278 l 77.77204,56.465696 -65.01188,-14.47025 16.76024,48.77197 45.86166,7.7471 -27.1116,34.42168 -44.56356,-19.35832 -11.50616,-40.59675 3.25528,-25.78762 -115.922632,54.90875 -2.290376,76.94301 -39.961764,-6.68813 10.961306,-78.24107 30.545359,-56.26023 z" id="rect818" inkscape:connector-curvature="0" sodipodi:nodetypes="ccccccccccccccccc" />
    <path sodipodi:type="star" style="opacity:0.67;fill:#ffb500;fill-opacity:1;fill-rule:evenodd;stroke:none;stroke-width:0.465;stroke-linecap:square;stroke-linejoin:miter;stroke-miterlimit:4;stroke-dasharray:none;stroke-dashoffset:0;stroke-opacity:1;paint-order:stroke markers fill" id="path1019-0-8" sodipodi:sides="7" sodipodi:cx="134.61191" sodipodi:cy="-11.088417" sodipodi:r1="3.9461877" sodipodi:r2="1.9730936" sodipodi:arg1="-1.3089969" sodipodi:arg2="-0.86019799" inkscape:flatsided="false" inkscape:rounded="0" inkscape:randomized="0" d="m 135.63326,-14.900142 0.26567,2.316176 2.3299,-0.0825 -1.64521,1.651825 1.51717,1.7701538 -2.31722,-0.2563831 -0.43802,2.289845 -1.24432,-1.9715297 -2.06337,1.0852366 0.76558,-2.2020746 -2.13496,-0.936577 2.19899,-0.774412 -0.59889,-2.253129 1.97651,1.236398 z" inkscape:transform-center-x="0.16324973" inkscape:transform-center-y="0.032833844" />
    <path style="fill:#916f6f;fill-rule:evenodd;stroke-width:0.264583" d="m 96.761902,89.869044 h 90.903278 l 35.43527,58.302836 21.20535,108.57138 -34.84921,-3.08337 -19.34632,-86.89355 -25.50164,12.30509 -48.39127,-11.06439 -13.11991,29.3607 27.69118,2.86478 -0.64849,36.66091 -50.568692,-10.6126 -2.653296,-64.59631 z" id="rect815" inkscape:connector-curvature="0" sodipodi:nodetypes="cccccccccccccc" />
    <path style="fill:#a08282;fill-opacity:1;fill-rule:evenodd;stroke-width:0.264583" d="M 64.307462,61.350341 112.2685,28.743739 146.81563,60.433837 94.671285,127.42615 71.553373,87.573638 Z" id="rect829" inkscape:connector-curvature="0" sodipodi:nodetypes="cccccc" />
    <path sodipodi:type="star" style="opacity:0.67;fill:#ffb500;fill-opacity:1;fill-rule:evenodd;stroke:none;stroke-width:0.465;stroke-linecap:square;stroke-linejoin:miter;stroke-miterlimit:4;stroke-dasharray:none;stroke-dashoffset:0;stroke-opacity:1;paint-order:stroke markers fill" id="path1019-4-5" sodipodi:sides="7" sodipodi:cx="100.40141" sodipodi:cy="23.656624" sodipodi:r1="3.9461877" sodipodi:r2="1.9730936" sodipodi:arg1="-1.3089969" sodipodi:arg2="-0.86019799" inkscape:flatsided="false" inkscape:rounded="0" inkscape:randomized="0" d="m 101.42276,19.844899 0.26568,2.316176 2.3299,-0.0825 -1.64521,1.651825 1.51717,1.770154 -2.31722,-0.256383 -0.43803,2.289845 -1.244311,-1.97153 -2.063375,1.085236 0.765586,-2.202074 -2.134965,-0.936577 2.198986,-0.774412 -0.598884,-2.253129 1.976503,1.236398 z" inkscape:transform-center-x="0.16324973" inkscape:transform-center-y="0.032833844" />
    <path style="fill:#916f6f;fill-opacity:1;fill-rule:evenodd;stroke-width:0.264583" d="m 54.114245,49.465334 24.562188,17.004197 5.291442,14.854859 -45.351707,51.94852 -10.844969,-9.87383 -6.126265,-5.57767 1.746254,-68.776053 z" id="rect821" inkscape:connector-curvature="0" sodipodi:nodetypes="cccccccc" />
    <path sodipodi:type="star" style="opacity:0.67;fill:#ffb500;fill-opacity:1;fill-rule:evenodd;stroke:none;stroke-width:0.465;stroke-linecap:square;stroke-linejoin:miter;stroke-miterlimit:4;stroke-dasharray:none;stroke-dashoffset:0;stroke-opacity:1;paint-order:stroke markers fill" id="path1019-5-9" sodipodi:sides="7" sodipodi:cx="212.38736" sodipodi:cy="-10.821144" sodipodi:r1="3.9461877" sodipodi:r2="1.9730936" sodipodi:arg1="-1.3089969" sodipodi:arg2="-0.86019799" inkscape:flatsided="false" inkscape:rounded="0" inkscape:randomized="0" d="m 213.40871,-14.632869 0.26567,2.316176 2.32991,-0.0825 -1.64522,1.651825 1.51717,1.7701538 -2.31722,-0.2563832 -0.43802,2.2898451 -1.24431,-1.9715297 -2.06338,1.0852365 0.76559,-2.2020745 -2.13497,-0.936577 2.19899,-0.774412 -0.59889,-2.253129 1.97651,1.236398 z" inkscape:transform-center-x="0.16324973" inkscape:transform-center-y="0.032833844" />
    <path transform="matrix(0.72462757,-0.55520077,0.55520077,0.72462757,5.028466,7.9444091)" style="fill:#916f6f;fill-opacity:1;fill-rule:evenodd;stroke-width:0.289837" d="m -70.439103,52.536791 c -3.250815,0.496403 -6.50163,0.992805 -9.752445,1.489208 -6.817381,1.221645 -13.495449,2.73606 -19.946782,4.693348 -7.2586,2.26938 -13.95237,4.679029 -19.31066,8.195389 -2.26988,1.521849 -4.15797,2.913642 -5.2873,4.364613 0,0 -1e-5,10e-7 -1e-5,2e-6 -0.86921,1.188507 -1.53816,2.164141 -1.50729,2.727233 -0.78324,2.926704 0.11437,6.81671 1.68993,10.634468 1.92324,4.462985 5.38721,8.712879 9.47092,12.827621 4.40141,4.326157 9.50986,8.077817 15.02861,11.249387 l 1e-5,1e-5 c 5.216747,2.94342 10.523415,5.31587 15.844286,6.62088 0.580521,0.52652 2.753358,-0.157 6.039778,-0.69632 3.52378,-0.88114 7.198676,-2.40367 11.074212,-4.19403 3e-6,0 6e-6,0 9e-6,0 3.256548,-1.5288 6.473819,-3.24735 9.658008,-5.10864 3e-6,0 6e-6,0 8e-6,0 0.987385,-0.57826 1.952889,-1.15943 2.893296,-1.74778 0.259039,-0.16208 0.507029,-0.31865 0.743397,-0.47059 0.01726,-0.0111 0.03408,-0.0219 0.05047,-0.0325 l 13.305172,20.65502 c -0.02573,0.0166 -0.05103,0.0328 -0.07592,0.0488 -0.341133,0.21906 -0.673457,0.42909 -0.996399,0.63095 -1.173595,0.7336 -2.344201,1.43889 -3.508604,2.12013 -3.741082,2.19229 -7.61124,4.25449 -11.616668,6.13958 l -10e-6,0 c -4.65671,2.22068 -9.761744,4.25955 -15.364625,5.74308 -4.629528,1.51167 -10.858072,2.20861 -18.206901,0.73658 -7.978455,-2.047 -15.349818,-5.25186 -22.038358,-9.11813 l -10e-6,-1e-5 c -7.18836,-4.09674 -13.96017,-9.10558 -20.0187,-15.02094 -5.71921,-5.48347 -10.91172,-12.20166 -14.65654,-20.232507 -3.52939,-7.434832 -5.0081,-16.271336 -3.43323,-25.473961 1.22653,-5.587002 3.6749,-10.280498 6.84553,-13.880823 0,-3e-6 1e-5,-6e-6 1e-5,-9e-6 3.42807,-3.951386 7.17635,-6.970027 10.86788,-9.245161 8.367,-5.225661 17.0967,-8.568929 25.41845,-10.996242 7.644999,-2.292041 15.349736,-4.043945 23.02679,-5.405817 l 10.061488,-1.538746 z" id="rect824" inkscape:path-effect="#path-effect827" inkscape:original-d="m -126.13594,104.2198 h 69.547622 v 21.73363 h -69.547622 z" inkscape:connector-curvature="0" />
    <rect style="fill:#ff6600;fill-rule:evenodd;stroke-width:0.302422" id="rect847" width="31.020763" height="31.020763" x="123.25274" y="49.868549" transform="matrix(0.90651411,0.42217552,-0.90651411,0.42217552,0,0)" />
    <path sodipodi:type="star" style="opacity:0.67;fill:#ffb500;fill-opacity:1;fill-rule:evenodd;stroke:none;stroke-width:0.465;stroke-linecap:square;stroke-linejoin:miter;stroke-miterlimit:4;stroke-dasharray:none;stroke-dashoffset:0;stroke-opacity:1;paint-order:stroke markers fill" id="path1019-6-8" sodipodi:sides="7" sodipodi:cx="159.73524" sodipodi:cy="4.6804886" sodipodi:r1="3.9461877" sodipodi:r2="1.9730936" sodipodi:arg1="-1.3089969" sodipodi:arg2="-0.86019799" inkscape:flatsided="false" inkscape:rounded="0" inkscape:randomized="0" d="m 160.75659,0.86876398 0.26568,2.31617542 2.3299,-0.0825 -1.64521,1.6518252 1.51717,1.7701536 -2.31722,-0.2563832 -0.43802,2.2898451 -1.24432,-1.9715297 -2.06337,1.0852365 0.76558,-2.2020742 -2.13496,-0.9365772 2.19898,-0.774412 -0.59888,-2.2531292 1.9765,1.2363983 z" inkscape:transform-center-x="0.16324973" inkscape:transform-center-y="0.032833844" />
    <rect style="fill:#220055;fill-rule:evenodd;stroke-width:0.302422" id="rect847-8" width="26.114418" height="26.114418" x="125.70591" y="52.321724" transform="matrix(0.90651411,0.42217551,-0.90651411,0.42217551,0,0)" />
    <rect style="fill:#ff6600;fill-opacity:1;fill-rule:evenodd;stroke-width:0.302422" id="rect847-8-6" width="19.941919" height="19.941919" x="128.79216" y="55.407974" transform="matrix(0.90651411,0.42217551,-0.90651411,0.42217551,0,0)" />
    <rect style="fill:#220055;fill-opacity:1;fill-rule:evenodd;stroke-width:0.302422" id="rect847-8-6-7" width="14.719036" height="14.719036" x="131.40361" y="58.019417" transform="matrix(0.90651412,0.42217551,-0.90651412,0.42217551,0,0)" />
    <rect style="fill:#ff6600;fill-opacity:1;fill-rule:evenodd;stroke-width:0.302422" id="rect847-8-6-0" width="11.078844" height="11.078844" x="133.22369" y="59.839512" transform="matrix(0.90651411,0.42217551,-0.90651411,0.42217551,0,0)" />
    <rect style="fill:#220055;fill-rule:evenodd;stroke-width:0.302422" id="rect847-8-61" width="14.505402" height="14.505402" x="119.07003" y="23.998404" transform="matrix(0.4221755,0.90651412,0.4221755,-0.90651412,0,0)" />
    <rect style="opacity:0.67;fill:url(#radialGradient1017);fill-opacity:1;fill-rule:evenodd;stroke-width:0.264583" id="rect1009" width="374.57434" height="370.27438" x="-93.360123" y="-57.399395" inkscape:export-xdpi="203.83777" inkscape:export-ydpi="203.83777" />
    <path sodipodi:type="star" style="opacity:0.67;fill:#ffb500;fill-opacity:1;fill-rule:evenodd;stroke:none;stroke-width:0.465;stroke-linecap:square;stroke-linejoin:miter;stroke-miterlimit:4;stroke-dasharray:none;stroke-dashoffset:0;stroke-opacity:1;paint-order:stroke markers fill" id="path1019" sodipodi:sides="7" sodipodi:cx="-67.941696" sodipodi:cy="-21.620497" sodipodi:r1="3.9461875" sodipodi:r2="1.9730936" sodipodi:arg1="-1.3089969" sodipodi:arg2="-0.86019799" inkscape:flatsided="false" inkscape:rounded="0" inkscape:randomized="0" d="m -66.920348,-25.432221 0.265676,2.316175 2.329902,-0.0825 -1.645212,1.651826 1.517171,1.770153 -2.317222,-0.256383 -0.438021,2.289845 -1.244316,-1.97153 -2.063375,1.085237 0.765586,-2.202074 -2.134965,-0.936578 2.198985,-0.774412 -0.598883,-2.253129 1.976505,1.236399 z" inkscape:transform-center-x="0.16324973" inkscape:transform-center-y="0.032833844" />
    <path sodipodi:type="star" style="opacity:0.67;fill:#ffb500;fill-opacity:1;fill-rule:evenodd;stroke:none;stroke-width:0.465;stroke-linecap:square;stroke-linejoin:miter;stroke-miterlimit:4;stroke-dasharray:none;stroke-dashoffset:0;stroke-opacity:1;paint-order:stroke markers fill" id="path1019-1" sodipodi:sides="7" sodipodi:cx="-58.282822" sodipodi:cy="-37.995224" sodipodi:r1="3.9461877" sodipodi:r2="1.9730936" sodipodi:arg1="-1.3089969" sodipodi:arg2="-0.86019799" inkscape:flatsided="false" inkscape:rounded="0" inkscape:randomized="0" d="m -57.261473,-41.806949 0.265675,2.316176 2.329903,-0.0825 -1.645213,1.651825 1.517172,1.770154 -2.317223,-0.256383 -0.438021,2.289845 -1.244316,-1.97153 -2.063374,1.085237 0.765585,-2.202075 -2.134965,-0.936577 2.198986,-0.774412 -0.598883,-2.253129 1.976504,1.236398 z" inkscape:transform-center-x="0.16324973" inkscape:transform-center-y="0.032833844" />
    <path sodipodi:type="star" style="opacity:0.67;fill:#ffb500;fill-opacity:1;fill-rule:evenodd;stroke:none;stroke-width:0.465;stroke-linecap:square;stroke-linejoin:miter;stroke-miterlimit:4;stroke-dasharray:none;stroke-dashoffset:0;stroke-opacity:1;paint-order:stroke markers fill" id="path1019-2" sodipodi:sides="7" sodipodi:cx="-71.464981" sodipodi:cy="53.484627" sodipodi:r1="3.9461877" sodipodi:r2="1.9730936" sodipodi:arg1="-1.3089969" sodipodi:arg2="-0.86019799" inkscape:flatsided="false" inkscape:rounded="0" inkscape:randomized="0" d="m -70.443632,49.672902 0.265675,2.316176 2.329903,-0.0825 -1.645213,1.651825 1.517171,1.770154 -2.317222,-0.256383 -0.438021,2.289845 -1.244316,-1.97153 -2.063375,1.085236 0.765586,-2.202074 -2.134965,-0.936577 2.198985,-0.774412 -0.598883,-2.253129 1.976505,1.236398 z" inkscape:transform-center-x="0.16324973" inkscape:transform-center-y="0.032833844" />
    <path sodipodi:type="star" style="opacity:0.67;fill:#ffb500;fill-opacity:1;fill-rule:evenodd;stroke:none;stroke-width:0.465;stroke-linecap:square;stroke-linejoin:miter;stroke-miterlimit:4;stroke-dasharray:none;stroke-dashoffset:0;stroke-opacity:1;paint-order:stroke markers fill" id="path1019-0" sodipodi:sides="7" sodipodi:cx="-7.3202958" sodipodi:cy="-35.516129" sodipodi:r1="3.9461877" sodipodi:r2="1.9730936" sodipodi:arg1="-1.3089969" sodipodi:arg2="-0.86019799" inkscape:flatsided="false" inkscape:rounded="0" inkscape:randomized="0" d="m -6.2989471,-39.327853 0.2656754,2.316175 2.3299027,-0.0825 -1.645213,1.651825 1.5171714,1.770153 -2.3172224,-0.256383 -0.4380209,2.289845 -1.2443161,-1.971529 -2.0633745,1.085236 0.7655855,-2.202074 -2.134965,-0.936577 2.1989857,-0.774412 -0.5988833,-2.25313 1.9765048,1.236399 z" inkscape:transform-center-x="0.16324973" inkscape:transform-center-y="0.032833844" />
    <path sodipodi:type="star" style="opacity:0.67;fill:#ffb500;fill-opacity:1;fill-rule:evenodd;stroke:none;stroke-width:0.465;stroke-linecap:square;stroke-linejoin:miter;stroke-miterlimit:4;stroke-dasharray:none;stroke-dashoffset:0;stroke-opacity:1;paint-order:stroke markers fill" id="path1019-4" sodipodi:sides="7" sodipodi:cx="143.95425" sodipodi:cy="-43.266945" sodipodi:r1="3.9461877" sodipodi:r2="1.9730936" sodipodi:arg1="-1.3089969" sodipodi:arg2="-0.86019799" inkscape:flatsided="false" inkscape:rounded="0" inkscape:randomized="0" d="m 144.9756,-47.078669 0.26568,2.316175 2.3299,-0.0825 -1.64521,1.651825 1.51717,1.770154 -2.31722,-0.256383 -0.43802,2.289845 -1.24432,-1.97153 -2.06337,1.085237 0.76558,-2.202074 -2.13496,-0.936578 2.19898,-0.774412 -0.59888,-2.253129 1.9765,1.236398 z" inkscape:transform-center-x="0.16324973" inkscape:transform-center-y="0.032833844" />
    <path sodipodi:type="star" style="opacity:0.67;fill:#ffb500;fill-opacity:1;fill-rule:evenodd;stroke:none;stroke-width:0.465;stroke-linecap:square;stroke-linejoin:miter;stroke-miterlimit:4;stroke-dasharray:none;stroke-dashoffset:0;stroke-opacity:1;paint-order:stroke markers fill" id="path1019-5" sodipodi:sides="7" sodipodi:cx="70.455139" sodipodi:cy="-35.248856" sodipodi:r1="3.9461877" sodipodi:r2="1.9730936" sodipodi:arg1="-1.3089969" sodipodi:arg2="-0.86019799" inkscape:flatsided="false" inkscape:rounded="0" inkscape:randomized="0" d="m 71.476488,-39.06058 0.265675,2.316175 2.329903,-0.0825 -1.645213,1.651825 1.517171,1.770153 -2.317222,-0.256383 -0.438021,2.289845 -1.244316,-1.971529 -2.063375,1.085236 0.765586,-2.202074 -2.134965,-0.936577 2.198986,-0.774412 -0.598884,-2.25313 1.976505,1.236399 z" inkscape:transform-center-x="0.16324973" inkscape:transform-center-y="0.032833844" />
    <path sodipodi:type="star" style="opacity:0.67;fill:#ffb500;fill-opacity:1;fill-rule:evenodd;stroke:none;stroke-width:0.465;stroke-linecap:square;stroke-linejoin:miter;stroke-miterlimit:4;stroke-dasharray:none;stroke-dashoffset:0;stroke-opacity:1;paint-order:stroke markers fill" id="path1019-6" sodipodi:sides="7" sodipodi:cx="17.80304" sodipodi:cy="-19.747225" sodipodi:r1="3.9461877" sodipodi:r2="1.9730936" sodipodi:arg1="-1.3089969" sodipodi:arg2="-0.86019799" inkscape:flatsided="false" inkscape:rounded="0" inkscape:randomized="0" d="m 18.824388,-23.558949 0.265676,2.316175 2.329902,-0.0825 -1.645213,1.651826 1.517172,1.770153 -2.317223,-0.256383 -0.43802,2.289845 -1.244317,-1.97153 -2.063374,1.085237 0.765585,-2.202074 -2.134965,-0.936578 2.198986,-0.774412 -0.598883,-2.253129 1.976505,1.236399 z" inkscape:transform-center-x="0.16324973" inkscape:transform-center-y="0.032833844" />
    <path sodipodi:type="star" style="opacity:0.67;fill:#ffb500;fill-opacity:1;fill-rule:evenodd;stroke:none;stroke-width:0.465;stroke-linecap:square;stroke-linejoin:miter;stroke-miterlimit:4;stroke-dasharray:none;stroke-dashoffset:0;stroke-opacity:1;paint-order:stroke markers fill" id="path1019-50" sodipodi:sides="7" sodipodi:cx="3.5285063" sodipodi:cy="3.6798339" sodipodi:r1="3.9461877" sodipodi:r2="1.9730936" sodipodi:arg1="-1.3089969" sodipodi:arg2="-0.86019799" inkscape:flatsided="false" inkscape:rounded="0" inkscape:randomized="0" d="M 4.549855,-0.13189072 4.8155304,2.1842847 7.1454331,2.101785 5.5002201,3.7536102 7.0173915,5.5237638 4.7001691,5.2673806 4.2621482,7.5572257 3.0178321,5.585696 0.95445758,6.6709325 1.7200431,4.4688583 -0.4149219,3.5322811 1.7840638,2.7578691 1.1851805,0.50473991 3.1616853,1.7411382 Z" inkscape:transform-center-x="-0.16325022" inkscape:transform-center-y="-0.032833519" transform="scale(-1)" />
    <path sodipodi:type="star" style="opacity:0.67;fill:#ffb500;fill-opacity:1;fill-rule:evenodd;stroke:none;stroke-width:0.465;stroke-linecap:square;stroke-linejoin:miter;stroke-miterlimit:4;stroke-dasharray:none;stroke-dashoffset:0;stroke-opacity:1;paint-order:stroke markers fill" id="path1019-1-1" sodipodi:sides="7" sodipodi:cx="13.187379" sodipodi:cy="-17.505745" sodipodi:r1="3.9461877" sodipodi:r2="1.9730936" sodipodi:arg1="-1.3089969" sodipodi:arg2="-0.86019799" inkscape:flatsided="false" inkscape:rounded="0" inkscape:randomized="0" d="m 14.208728,-21.31747 0.265675,2.316176 2.329903,-0.0825 -1.645213,1.651825 1.517171,1.770154 -2.317222,-0.256383 -0.438021,2.289845 -1.244316,-1.97153 -2.063375,1.085237 0.765586,-2.202075 -2.1349653,-0.936577 2.1989853,-0.774412 -0.598883,-2.253129 1.976505,1.236398 z" inkscape:transform-center-x="-0.16324975" inkscape:transform-center-y="-0.032834831" transform="scale(-1)" />
    <path sodipodi:type="star" style="opacity:0.67;fill:#ffb500;fill-opacity:1;fill-rule:evenodd;stroke:none;stroke-width:0.465;stroke-linecap:square;stroke-linejoin:miter;stroke-miterlimit:4;stroke-dasharray:none;stroke-dashoffset:0;stroke-opacity:1;paint-order:stroke markers fill" id="path1019-0-9" sodipodi:sides="7" sodipodi:cx="64.149902" sodipodi:cy="-15.02665" sodipodi:r1="3.9461877" sodipodi:r2="1.9730936" sodipodi:arg1="-1.3089969" sodipodi:arg2="-0.86019799" inkscape:flatsided="false" inkscape:rounded="0" inkscape:randomized="0" d="m 65.171251,-18.838375 0.265675,2.316175 2.329903,-0.0825 -1.645213,1.651825 1.517172,1.770153 -2.317223,-0.256383 -0.438021,2.289845 -1.244316,-1.971529 -2.063374,1.085236 0.765585,-2.202074 -2.134965,-0.936577 2.198986,-0.774412 -0.598883,-2.253129 1.976504,1.236398 z" inkscape:transform-center-x="-0.16324927" inkscape:transform-center-y="-0.032833877" transform="scale(-1)" />
    <path sodipodi:type="star" style="opacity:0.67;fill:#ffb500;fill-opacity:1;fill-rule:evenodd;stroke:none;stroke-width:0.465;stroke-linecap:square;stroke-linejoin:miter;stroke-miterlimit:4;stroke-dasharray:none;stroke-dashoffset:0;stroke-opacity:1;paint-order:stroke markers fill" id="path1019-4-3" sodipodi:sides="7" sodipodi:cx="29.939402" sodipodi:cy="19.718388" sodipodi:r1="3.9461877" sodipodi:r2="1.9730936" sodipodi:arg1="-1.3089969" sodipodi:arg2="-0.86019799" inkscape:flatsided="false" inkscape:rounded="0" inkscape:randomized="0" d="m 30.96075,15.906663 0.265676,2.316175 2.329902,-0.0825 -1.645213,1.651825 1.517172,1.770153 -2.317223,-0.256383 -0.43802,2.289845 -1.244317,-1.971529 -2.063374,1.085236 0.765585,-2.202074 -2.134965,-0.936577 2.198986,-0.774412 -0.598883,-2.253129 1.976505,1.236398 z" inkscape:transform-center-x="-0.16324927" inkscape:transform-center-y="-0.032833877" transform="scale(-1)" />
    <path sodipodi:type="star" style="opacity:0.67;fill:#ffb500;fill-opacity:1;fill-rule:evenodd;stroke:none;stroke-width:0.465;stroke-linecap:square;stroke-linejoin:miter;stroke-miterlimit:4;stroke-dasharray:none;stroke-dashoffset:0;stroke-opacity:1;paint-order:stroke markers fill" id="path1019-6-2" sodipodi:sides="7" sodipodi:cx="89.273239" sodipodi:cy="0.7422561" sodipodi:r1="3.9461877" sodipodi:r2="1.9730936" sodipodi:arg1="-1.3089969" sodipodi:arg2="-0.86019799" inkscape:flatsided="false" inkscape:rounded="0" inkscape:randomized="0" d="m 90.294588,-3.0694685 0.265675,2.31617543 2.329903,-0.0824997 -1.645213,1.65182519 1.517171,1.77015357 -2.317222,-0.2563831 -0.438021,2.289845 -1.244316,-1.9715297 -2.063375,1.0852365 0.765586,-2.2020742 -2.134965,-0.93657722 2.198986,-0.77441193 -0.598884,-2.25312925 1.976505,1.2363984 z" inkscape:transform-center-x="-0.16324927" inkscape:transform-center-y="-0.032835307" transform="scale(-1)" />
    <path sodipodi:type="star" style="opacity:0.67;fill:#ffb500;fill-opacity:1;fill-rule:evenodd;stroke:none;stroke-width:0.465;stroke-linecap:square;stroke-linejoin:miter;stroke-miterlimit:4;stroke-dasharray:none;stroke-dashoffset:0;stroke-opacity:1;paint-order:stroke markers fill" id="path1019-9" sodipodi:sides="7" sodipodi:cx="-80.721878" sodipodi:cy="134.38316" sodipodi:r1="3.9461877" sodipodi:r2="1.9730936" sodipodi:arg1="-1.3089969" sodipodi:arg2="-0.86019799" inkscape:flatsided="false" inkscape:rounded="0" inkscape:randomized="0" d="m -79.700529,130.57144 0.265675,2.31617 2.329903,-0.0825 -1.645213,1.65183 1.517171,1.77015 -2.317222,-0.25638 -0.438021,2.28985 -1.244316,-1.97153 -2.063375,1.08523 0.765586,-2.20207 -2.134965,-0.93658 2.198985,-0.77441 -0.598883,-2.25313 1.976505,1.2364 z" inkscape:transform-center-x="0.16324973" inkscape:transform-center-y="0.032833844" />
    <path sodipodi:type="star" style="opacity:0.67;fill:#ffb500;fill-opacity:1;fill-rule:evenodd;stroke:none;stroke-width:0.465;stroke-linecap:square;stroke-linejoin:miter;stroke-miterlimit:4;stroke-dasharray:none;stroke-dashoffset:0;stroke-opacity:1;paint-order:stroke markers fill" id="path1019-2-2" sodipodi:sides="7" sodipodi:cx="-74.890732" sodipodi:cy="210.82465" sodipodi:r1="3.9461877" sodipodi:r2="1.9730936" sodipodi:arg1="-1.3089969" sodipodi:arg2="-0.86019799" inkscape:flatsided="false" inkscape:rounded="0" inkscape:randomized="0" d="m -73.869383,207.01292 0.265675,2.31618 2.329903,-0.0825 -1.645213,1.65182 1.517171,1.77016 -2.317222,-0.25639 -0.438021,2.28985 -1.244316,-1.97153 -2.063375,1.08523 0.765586,-2.20207 -2.134965,-0.93658 2.198986,-0.77441 -0.598884,-2.25313 1.976505,1.2364 z" inkscape:transform-center-x="0.16324973" inkscape:transform-center-y="0.032833844" />
    <path sodipodi:type="star" style="opacity:0.67;fill:#ffb500;fill-opacity:1;fill-rule:evenodd;stroke:none;stroke-width:0.465;stroke-linecap:square;stroke-linejoin:miter;stroke-miterlimit:4;stroke-dasharray:none;stroke-dashoffset:0;stroke-opacity:1;paint-order:stroke markers fill" id="path1019-0-4" sodipodi:sides="7" sodipodi:cx="-10.746045" sodipodi:cy="121.82389" sodipodi:r1="3.9461877" sodipodi:r2="1.9730936" sodipodi:arg1="-1.3089969" sodipodi:arg2="-0.86019799" inkscape:flatsided="false" inkscape:rounded="0" inkscape:randomized="0" d="m -9.7246964,118.01217 0.2656754,2.31617 2.3299027,-0.0825 -1.645213,1.65183 1.5171714,1.77015 -2.3172224,-0.25638 -0.4380207,2.28984 -1.244316,-1.97153 -2.063375,1.08524 0.765586,-2.20207 -2.134965,-0.93658 2.198985,-0.77441 -0.598883,-2.25313 1.976505,1.2364 z" inkscape:transform-center-x="0.16324973" inkscape:transform-center-y="0.032833844" />
  </g>
</svg>
