<?xml version="1.0" encoding="UTF-8" standalone="no"?>
<!-- Created with Inkscape (http://www.inkscape.org/) -->

<svg width="398.49777mm" height="382.67294mm" viewBox="0 0 398.49777 382.67294" version="1.1" id="svg8" inkscape:version="1.3 (0e150ed6c4, 2023-07-21)" sodipodi:docname="баламут.svg" xmlns:inkscape="http://www.inkscape.org/namespaces/inkscape" xmlns:sodipodi="http://sodipodi.sourceforge.net/DTD/sodipodi-0.dtd" xmlns="http://www.w3.org/2000/svg" xmlns:svg="http://www.w3.org/2000/svg" xmlns:rdf="http://www.w3.org/1999/02/22-rdf-syntax-ns#" xmlns:cc="http://creativecommons.org/ns#" xmlns:dc="http://purl.org/dc/elements/1.1/">
  <defs id="defs2">
    <marker inkscape:stockid="RazorWire" id="RazorWire" refX="0" refY="0" orient="auto" style="overflow:visible" inkscape:isstock="true">
      <path id="path1247" transform="scale(0.8)" style="fill:#000000;fill-opacity:1;fill-rule:evenodd;stroke:#000000;stroke-width:0.1pt;stroke-opacity:1" d="m 0.02272727,-0.74009011 v 1.4375 L -7.7585227,3.0099099 H 10.678977 L 3.4914773,0.69740989 v -1.4375 L 10.741477,-2.8963401 H -7.7272727 Z" />
    </marker>
    <marker inkscape:stockid="EmptyTriangleOutS" orient="auto" refY="0" refX="0" id="EmptyTriangleOutS" style="overflow:visible" inkscape:isstock="true">
      <path id="path1181" d="M 5.77,0 -2.88,5 V -5 Z" style="fill:#ffffff;fill-rule:evenodd;stroke:#000000;stroke-width:1pt;stroke-opacity:1" transform="matrix(0.2,0,0,0.2,-0.6,0)" />
    </marker>
    <marker inkscape:stockid="StopL" orient="auto" refY="0" refX="0" id="StopL" style="overflow:visible" inkscape:isstock="true">
      <path id="path1184" d="M 0,5.65 V -5.65" style="fill:none;fill-opacity:0.75;fill-rule:evenodd;stroke:#000000;stroke-width:1pt;stroke-opacity:1" transform="scale(0.8)" />
    </marker>
    <marker inkscape:stockid="SquareL" orient="auto" refY="0" refX="0" id="SquareL" style="overflow:visible" inkscape:isstock="true">
      <path id="path1085" d="M -5,-5 V 5 H 5 V -5 Z" style="fill:#000000;fill-opacity:1;fill-rule:evenodd;stroke:#000000;stroke-width:1pt;stroke-opacity:1" transform="scale(0.8)" />
    </marker>
  </defs>
  <sodipodi:namedview id="base" pagecolor="#ffffff" bordercolor="#666666" borderopacity="1.0" inkscape:pageopacity="0.0" inkscape:pageshadow="2" inkscape:zoom="0.25" inkscape:cx="496" inkscape:cy="1188" inkscape:document-units="mm" inkscape:current-layer="layer1" showgrid="false" showguides="false" inkscape:window-width="2467" inkscape:window-height="1413" inkscape:window-x="84" inkscape:window-y="-9" inkscape:window-maximized="1" inkscape:showpageshadow="2" inkscape:pagecheckerboard="0" inkscape:deskcolor="#d1d1d1" />
  <metadata id="metadata5">
    <rdf:RDF>
      <cc:Work rdf:about="">
        <dc:format>image/svg+xml</dc:format>
        <dc:type rdf:resource="http://purl.org/dc/dcmitype/StillImage" />
        <dc:title />
      </cc:Work>
    </rdf:RDF>
  </metadata>
  <g inkscape:label="Layer 1" inkscape:groupmode="layer" id="layer1" transform="translate(110.35286,43.561474)">
    <rect style="fill:#c5cae8;fill-opacity:1;fill-rule:evenodd;stroke-width:0.264583" id="rect955" width="398.49777" height="382.67294" x="-110.35286" y="-43.561474" />
    <path inkscape:connector-curvature="0" style="fill:#817ce7;fill-opacity:1;fill-rule:evenodd;stroke-width:0.264583" d="m 205.53847,23.130858 -6.67721,6.677052 6.9534,6.953399 -22.64981,22.649818 -6.95326,-6.953398 -6.6772,6.677201 6.95325,6.953251 v 1.53e-4 l -6.67721,6.677047 6.9534,6.953404 6.67721,-6.677201 23.58628,23.586451 -6.67705,6.677185 6.95323,6.95324 6.67723,-6.67719 6.95325,6.95339 6.67719,-6.6772 -6.95325,-6.953395 22.64983,-22.649665 6.95324,6.953245 6.6772,-6.677195 -6.95339,-6.953257 6.6772,-6.677203 -6.95324,-6.953399 -6.67721,6.677203 -23.58645,-23.58644 6.67722,-6.677053 -6.95326,-6.953399 -6.6772,6.677204 z" id="rect955-0-9" />
    <path inkscape:connector-curvature="0" style="fill:#817ce7;fill-opacity:1;fill-rule:evenodd;stroke-width:0.264583" d="m 162.14037,-20.26672 -6.67721,6.677052 6.95341,6.9533995 -22.64981,22.6498185 -6.95326,-6.9533975 -6.6772,6.6771985 6.95325,6.953253 v 1.53e-4 l -6.67721,6.677047 6.9534,6.953403 6.67721,-6.6772 23.58627,23.58645 -6.67704,6.67719 6.95322,6.95324 6.67724,-6.67719 6.95325,6.95339 6.67719,-6.6772 -6.95325,-6.9534 22.64983,-22.649664 6.95324,6.953245 6.6772,-6.677195 -6.95339,-6.953257 6.6772,-6.677203 -6.95324,-6.953401 -6.67721,6.677205 -23.58645,-23.5864405 6.67722,-6.6770535 -6.95326,-6.953399 -6.6772,6.677204 z" id="rect955-0-9-3" />
    <path inkscape:connector-curvature="0" style="fill:#817ce7;fill-opacity:1;fill-rule:evenodd;stroke-width:0.264583" d="m -4.850297,-23.65019 -6.67721,6.677052 6.9534,6.953399 -22.64981,22.649819 -6.95326,-6.9533977 -6.6772,6.6771987 6.95325,6.953253 v 1.53e-4 l -6.67721,6.677047 6.9534,6.953403 6.67721,-6.6772 23.58628,23.586451 -6.67705,6.677186 6.95323,6.95324 6.67723,-6.67719 6.95325,6.95339 6.67719,-6.6772 -6.95325,-6.953397 22.64983,-22.649664 6.95324,6.953245 6.6772,-6.677195 -6.95339,-6.953257 6.6772,-6.677203 -6.95324,-6.9534007 -6.67721,6.6772047 -23.58645,-23.5864407 6.67722,-6.6770533 -6.95326,-6.953399 -6.6772,6.677204 z" id="rect955-0-9-5" />
    <path inkscape:connector-curvature="0" style="fill:#817ce7;fill-opacity:1;fill-rule:evenodd;stroke-width:0.264583" d="m -46.524691,18.024712 -6.677209,6.677052 6.9534,6.953399 -22.649809,22.649819 -6.95326,-6.953398 -6.6772,6.677199 6.95325,6.953253 v 1.53e-4 l -6.67721,6.677047 6.9534,6.953403 6.67721,-6.6772 23.586278,23.586451 -6.677048,6.677184 6.953228,6.953246 6.677232,-6.677196 6.953251,6.953386 6.677189,-6.677195 -6.95325,-6.953396 22.6498308,-22.649664 6.953239,6.953245 6.6772,-6.677195 -6.953388,-6.953257 6.6772,-6.677203 -6.953242,-6.953401 -6.67721,6.677205 -23.5864478,-23.586441 6.677218,-6.677053 -6.953258,-6.953399 -6.677203,6.677204 z" id="rect955-0-9-2" />
    <path inkscape:connector-curvature="0" style="fill:#817ce7;fill-opacity:1;fill-rule:evenodd;stroke-width:0.264583" d="m -43.141879,185.01539 -6.67721,6.67706 6.953401,6.95339 -22.64981,22.64982 -6.95326,-6.95339 -6.6772,6.67719 6.95325,6.95326 v 1.5e-4 l -6.67721,6.67705 6.9534,6.9534 6.67721,-6.6772 23.586279,23.58645 -6.677048,6.67719 6.953228,6.95323 6.677232,-6.67718 6.95325,6.95338 6.677189,-6.67719 -6.95325,-6.9534 22.6498306,-22.64966 6.953239,6.95324 6.6772,-6.67719 -6.953388,-6.95326 6.6772,-6.6772 -6.953242,-6.9534 -6.67721,6.6772 -23.5864476,-23.58644 6.677218,-6.67705 -6.953258,-6.9534 -6.677202,6.6772 z" id="rect955-0-9-58" />
    <path inkscape:connector-curvature="0" style="fill:#817ce7;fill-opacity:1;fill-rule:evenodd;stroke-width:0.264583" d="m 0.25636429,228.41348 -6.67720999,6.67705 6.95340099,6.9534 -22.64980929,22.64982 -6.95326,-6.9534 -6.6772,6.6772 6.95325,6.95325 v 1.5e-4 l -6.67721,6.67705 6.9534,6.9534 6.67721,-6.6772 23.5862783,23.58646 -6.677048,6.67718 6.953228,6.95324 6.677232,-6.67719 6.9532507,6.95339 6.677189,-6.6772 -6.95325,-6.9534 22.649831,-22.64966 6.953239,6.95325 6.6772,-6.6772 -6.953388,-6.95326 6.6772,-6.6772 -6.953242,-6.9534 -6.67721,6.6772 -23.586448,-23.58644 6.677218,-6.67705 -6.953258,-6.9534 -6.6772027,6.67721 z" id="rect955-0-9-1" />
    <path inkscape:connector-curvature="0" style="fill:#817ce7;fill-opacity:1;fill-rule:evenodd;stroke-width:0.264583" d="m 167.24653,231.79646 -6.67721,6.67705 6.9534,6.9534 -22.64981,22.64982 -6.95326,-6.9534 -6.6772,6.6772 6.95325,6.95325 v 1.5e-4 l -6.67721,6.67705 6.9534,6.9534 6.67721,-6.6772 23.58628,23.58645 -6.67705,6.67719 6.95323,6.95324 6.67723,-6.67719 6.95325,6.95339 6.67719,-6.6772 -6.95325,-6.9534 22.64983,-22.64966 6.95324,6.95324 6.6772,-6.67719 -6.95339,-6.95326 6.6772,-6.6772 -6.95324,-6.9534 -6.67721,6.6772 -23.58645,-23.58644 6.67722,-6.67705 -6.95326,-6.9534 -6.6772,6.6772 z" id="rect955-0-9-57" />
    <path inkscape:connector-curvature="0" style="fill:#817ce7;fill-opacity:1;fill-rule:evenodd;stroke-width:0.264583" d="m 208.92129,190.12154 -6.67721,6.67705 6.9534,6.9534 -22.64981,22.64982 -6.95326,-6.9534 -6.6772,6.6772 6.95325,6.95325 v 1.5e-4 l -6.67721,6.67705 6.9534,6.9534 6.67721,-6.6772 23.58628,23.58646 -6.67705,6.67718 6.95323,6.95324 6.67723,-6.67719 6.95325,6.95339 6.67719,-6.6772 -6.95325,-6.9534 22.64983,-22.64966 6.95324,6.95325 6.6772,-6.6772 -6.95339,-6.95326 6.6772,-6.6772 -6.95324,-6.9534 -6.67721,6.6772 -23.58645,-23.58644 6.67722,-6.67705 -6.95326,-6.9534 -6.6772,6.67721 z" id="rect955-0-9-11" />
    <path style="fill:#817ce7;fill-opacity:1;fill-rule:evenodd;stroke-width:1" d="m 236.20508,-7.9492188 -86.55078,86.5488278 90.13086,90.130861 -293.589848,293.58984 -90.128902,-90.13086 -86.55079,86.55078 90.12891,90.12891 v 0.002 l -86.55078,86.54883 90.13086,90.13086 L -50.224609,639 255.50391,944.73047 l -86.54883,86.55073 90.1289,90.129 86.55079,-86.5508 90.1289,90.1308 86.55078,-86.5507 -90.1289,-90.13091 L 725.77539,654.7207 815.9043,744.84961 902.45508,658.29883 812.32422,568.16992 898.875,481.61914 808.74609,391.48828 722.19531,478.03906 416.46484,172.30859 503.01562,85.759766 412.88672,-4.3710938 326.33594,82.179688 Z" transform="scale(0.26458333)" id="rect955-0" inkscape:export-xdpi="81.345917" inkscape:export-ydpi="81.345917" inkscape:export-filename="D:\Спайд\Артеги\баламут.png" />
    <path style="fill:none;fill-rule:evenodd;stroke:#000000;stroke-width:21.765;stroke-linecap:square;stroke-linejoin:miter;stroke-miterlimit:4;stroke-dasharray:none;stroke-dashoffset:0;stroke-opacity:1;paint-order:normal" d="M 46.491027,45.308302 1.5118609,61.48871 -34.01827,104.98786 l 35.5301309,43.87743 38.3480461,13.7945 -3.758427,32.26625 70.20863,4.88032 42.23877,-12.2008 4.43125,-38.04161 a 48.475444,48.475444 0 0 0 9.64386,0.96997 48.475444,48.475444 0 0 0 48.4756,-48.47559 48.475444,48.475444 0 0 0 -48.4756,-48.475081 48.475444,48.475444 0 0 0 -48.4756,48.475081 48.475444,48.475444 0 0 0 6.39548,23.94375 l -5.83272,1.68465 -28.856119,-2.00556 20.504179,-20.50417 z m 23.399604,163.385888 -7.943183,13.62191 34.460428,16.75557 0.331764,-6.80424 18.5291,-8.43359 -8.65219,-15.13965 z" id="rect815-0" inkscape:connector-curvature="0" />
    <path transform="rotate(45)" style="fill:#0000ff;fill-rule:evenodd;stroke-width:0.264583" d="M 64.912247,-0.83605677 H 149.57891 L 143.20305,86.83263 64.912247,83.830607 Z" id="rect838" inkscape:connector-curvature="0" sodipodi:nodetypes="ccccc" />
    <path style="fill:#0000c4;fill-opacity:1;fill-rule:evenodd;stroke-width:0.264583" d="M 1.5119047,61.488873 46.491071,45.308708 -13.377299,105.17708 -34.017857,104.98809 Z" id="rect840" inkscape:connector-curvature="0" sodipodi:nodetypes="ccccc" />
    <path style="fill:#00008f;fill-opacity:1;fill-rule:evenodd;stroke-width:0.264583" d="m 1.511904,148.86528 38.348002,13.79451 -53.237205,-57.48271 -20.640558,-0.18899 z" id="rect840-8" inkscape:connector-curvature="0" sodipodi:nodetypes="ccccc" />
    <rect style="fill:#0000ff;fill-rule:evenodd;stroke-width:0.264727" id="rect815" width="70.378418" height="72.607254" x="-128.85362" y="119.55492" transform="matrix(-0.99759309,-0.06933996,-0.11569857,0.99328437,0,0)" />
    <circle style="fill:#ffcc00;fill-opacity:1;fill-rule:evenodd;stroke-width:0.264583" id="path858" cx="162.62425" cy="102.05877" r="48.475445" />
    <path sodipodi:type="star" style="opacity:1;fill:#ffcc00;fill-opacity:1;fill-rule:evenodd;stroke:none;stroke-width:2.06711;stroke-miterlimit:4;stroke-dasharray:none;stroke-opacity:1;paint-order:markers stroke fill" id="path836" sodipodi:sides="3" sodipodi:cx="106.31061" sodipodi:cy="175.32458" sodipodi:r1="24.4818" sodipodi:r2="12.2409" sodipodi:arg1="-2.6179939" sodipodi:arg2="-1.5707963" inkscape:flatsided="true" inkscape:rounded="0" inkscape:randomized="0" d="m 85.108747,163.08369 42.403723,-1e-5 -21.20186,36.72271 z" inkscape:transform-center-x="-1.5339998e-06" inkscape:transform-center-y="4.76603" transform="matrix(1.4546013,0,0,0.77870669,-48.328949,44.215825)" />
    <path style="fill:#ffcc00;fill-rule:evenodd;stroke-width:0.264583" d="m 156.94983,115.48594 -42.23867,12.20079 -8.40056,72.11966 42.23869,-12.20079 z" id="rect815-5" inkscape:connector-curvature="0" sodipodi:nodetypes="ccccc" />
    <rect style="fill:#ffffff;fill-rule:evenodd;stroke-width:0.267384" id="rect878-6" width="54.157375" height="54.157375" x="165.69186" y="-48.738159" transform="matrix(0.77558879,0.63123849,-0.77558879,0.63123849,0,0)" />
    <path style="fill:#000000;fill-rule:evenodd;stroke-width:0.264583" d="m 166.30952,73.825684 42.00385,34.186226 -42.00385,34.18623 z" id="rect878-1-1" inkscape:connector-curvature="0" sodipodi:nodetypes="ccccc" />
    <rect style="fill:#c8beb7;fill-rule:evenodd;stroke-width:0.264583" id="rect928" width="36.725956" height="16.437077" x="69.890984" y="208.69429" />
    <path sodipodi:type="star" style="opacity:1;fill:#0000ff;fill-opacity:1;fill-rule:evenodd;stroke:none;stroke-width:1.6858;stroke-miterlimit:4;stroke-dasharray:none;stroke-opacity:1;paint-order:markers stroke fill" id="path930" sodipodi:sides="3" sodipodi:cx="93.716202" sodipodi:cy="214.2412" sodipodi:r1="12.697412" sodipodi:r2="6.3487058" sodipodi:arg1="1.5707963" sodipodi:arg2="2.6179939" inkscape:flatsided="true" inkscape:rounded="0" inkscape:randomized="0" d="m 93.716202,226.93861 -10.996281,-19.04612 21.992559,0 z" inkscape:transform-center-y="3.2373401" transform="matrix(1.6699262,0,0,1.0198455,-68.24518,-3.323934)" inkscape:transform-center-x="1.7951698e-06" />
    <path style="fill:#c8bdb7;fill-opacity:1;fill-rule:evenodd;stroke-width:0.264583" d="m 106.61693,208.69429 -17.917327,13.12244 1.072348,13.62216 25.496899,-11.60484 z" id="rect932-8" inkscape:connector-curvature="0" sodipodi:nodetypes="ccccc" />
    <path style="fill:#e3dedb;fill-rule:evenodd;stroke-width:0.264583" d="m 69.89099,208.69429 27.326899,13.75682 -0.809887,16.62066 -34.46041,-16.75542 z" id="rect932" inkscape:connector-curvature="0" sodipodi:nodetypes="ccccc" />
    <rect style="fill:#ffffff;fill-rule:evenodd;stroke-width:0.267384" id="rect878" width="54.157379" height="54.157379" x="89.26622" y="26.462488" transform="matrix(0.77558879,0.63123849,-0.77558879,0.63123849,0,0)" />
    <path style="fill:#000000;fill-rule:evenodd;stroke-width:0.264583" d="M 48.709872,73.052414 90.713729,107.23864 48.709875,141.42486 Z" id="rect878-1" inkscape:connector-curvature="0" sodipodi:nodetypes="ccccc" />
  </g>
</svg>
