<?xml version="1.0" encoding="UTF-8" standalone="no"?>
<!-- Created with Inkscape (http://www.inkscape.org/) -->

<svg
   width="250.57954mm"
   height="250.57954mm"
   viewBox="0 0 250.57954 250.57954"
   version="1.1"
   id="svg5"
   inkscape:version="1.1 (c68e22c387, 2021-05-23)"
   sodipodi:docname="хуйня.svg"
   xmlns:inkscape="http://www.inkscape.org/namespaces/inkscape"
   xmlns:sodipodi="http://sodipodi.sourceforge.net/DTD/sodipodi-0.dtd"
   xmlns="http://www.w3.org/2000/svg"
   xmlns:svg="http://www.w3.org/2000/svg">
  <sodipodi:namedview
     id="namedview7"
     pagecolor="#505050"
     bordercolor="#ffffff"
     borderopacity="1"
     inkscape:pageshadow="0"
     inkscape:pageopacity="0"
     inkscape:pagecheckerboard="1"
     inkscape:document-units="mm"
     showgrid="false"
     showguides="false"
     inkscape:zoom="0.67081229"
     inkscape:cx="482.99652"
     inkscape:cy="489.7048"
     inkscape:window-width="2004"
     inkscape:window-height="1406"
     inkscape:window-x="-11"
     inkscape:window-y="-11"
     inkscape:window-maximized="1"
     inkscape:current-layer="layer1" />
  <defs
     id="defs2" />
  <g
     inkscape:label="Слой 1"
     inkscape:groupmode="layer"
     id="layer1"
     transform="translate(22.818439,55.103016)">
    <rect
       style="fill:#d26cce;fill-opacity:1;stroke-width:1.83297;stroke-linecap:round;paint-order:fill markers stroke"
       id="rect30339"
       width="250.57954"
       height="250.57954"
       x="-22.818439"
       y="-55.103016" />
    <rect
       style="fill:#cb54c6;fill-opacity:1;stroke-width:1.83297;stroke-linecap:round;paint-order:fill markers stroke"
       id="rect30339-1"
       width="250.57954"
       height="250.57954"
       x="-1.4536169"
       y="-115.74193"
       transform="rotate(30)" />
    <rect
       style="fill:#ad35a8;fill-opacity:1;stroke-width:1.83297;stroke-linecap:round;paint-order:fill markers stroke"
       id="rect30339-1-9"
       width="250.57954"
       height="250.57954"
       x="-13.270591"
       y="-178.93918"
       transform="rotate(60)" />
    <circle
       style="fill:#36f46e;fill-opacity:1;stroke-width:3.6795;stroke-linecap:round;paint-order:fill markers stroke"
       id="path846-0-1"
       cx="162.88925"
       cy="7.8276601"
       r="64.586647"
       transform="rotate(18.365448)" />
    <circle
       style="fill:#ffe576;fill-opacity:1;stroke-width:2.98292;stroke-linecap:round;paint-order:fill markers stroke"
       id="path846-0-0-5"
       cx="169.39722"
       cy="10.194196"
       r="52.359554"
       transform="rotate(18.365448)" />
    <circle
       style="fill:#9df87d;fill-opacity:1;stroke-width:1.983;stroke-linecap:round;paint-order:fill markers stroke"
       id="path846"
       cx="129.85638"
       cy="76.75296"
       r="34.807766"
       transform="rotate(18.365448)" />
    <path
       id="path846-7"
       style="fill:#36f46e;fill-opacity:1;stroke-width:7.4948;stroke-linecap:round;paint-order:fill markers stroke"
       d="m 340.60352,302.87891 a 131.55691,131.55691 0 0 0 -91.0625,85.62304 131.55691,131.55691 0 0 0 83.40625,166.30664 131.55691,131.55691 0 0 0 108.78515,-11.94336 131.55691,131.55691 0 0 1 -75.24414,-2.21875 131.55691,131.55691 0 0 1 -83.40625,-166.30664 131.55691,131.55691 0 0 1 57.52149,-71.46093 z"
       transform="scale(0.26458333)" />
    <circle
       style="fill:#9df87d;fill-opacity:1;stroke-width:3.6795;stroke-linecap:round;paint-order:fill markers stroke"
       id="path846-0"
       cx="64.678085"
       cy="30.11252"
       r="64.586647"
       transform="rotate(18.365448)" />
    <path
       id="path846-0-3"
       style="fill:#36f46e;fill-opacity:1;stroke-width:13.9068;stroke-linecap:round;paint-order:fill markers stroke"
       d="M 201.35156,-59.015625 A 244.10701,244.10701 0 0 0 -35.53125,108.12305 244.10701,244.10701 0 0 0 119.23047,416.70898 244.10701,244.10701 0 0 0 211.0625,428.62109 244.10701,244.10701 0 0 1 192.16406,423.23242 244.10701,244.10701 0 0 1 37.402344,114.64648 244.10701,244.10701 0 0 1 254.15625,-52.027344 244.10701,244.10701 0 0 0 201.35156,-59.015625 Z"
       transform="scale(0.26458333)" />
    <circle
       style="fill:#ffe576;fill-opacity:1;stroke-width:2.98292;stroke-linecap:round;paint-order:fill markers stroke"
       id="path846-0-0"
       cx="60.931076"
       cy="35.437225"
       r="52.359554"
       transform="rotate(18.365448)" />
    <path
       id="path846-0-3-6"
       style="fill:#ffc363;fill-opacity:1;stroke-width:13.9068;stroke-linecap:round;paint-order:fill markers stroke"
       d="M 97.261719,18.376953 A 197.89438,197.89438 0 0 0 -11.453125,137.32227 197.89438,197.89438 0 0 0 114.00977,387.48828 197.89438,197.89438 0 0 0 129.86719,391.9707 244.10701,244.10701 0 0 1 37.402344,114.64648 244.10701,244.10701 0 0 1 97.261719,18.376953 Z"
       transform="scale(0.26458333)" />
    <rect
       style="fill:#612c00;fill-opacity:1;stroke-width:3.01406;stroke-linecap:round;paint-order:fill markers stroke"
       id="rect3785"
       width="9.5380173"
       height="66.766121"
       x="49.435547"
       y="20.29072"
       rx="4.7690086"
       ry="4.7690086"
       transform="rotate(5.0139396)" />
    <rect
       style="fill:#612c00;fill-opacity:1;stroke-width:3.01406;stroke-linecap:round;paint-order:fill markers stroke"
       id="rect3785-9"
       width="9.5380173"
       height="66.766121"
       x="160.36409"
       y="20.725309"
       rx="4.7690086"
       ry="4.7690086"
       transform="rotate(5.0139396)" />
    <rect
       style="fill:#0cd547;fill-opacity:1;stroke-width:1.983;stroke-linecap:round;paint-order:fill markers stroke"
       id="rect4087"
       width="75.926292"
       height="7.6912351"
       x="112.74901"
       y="93.671219"
       rx="3.8456175"
       ry="3.8456175"
       transform="rotate(18.365448)" />
    <rect
       style="fill:#0cd547;fill-opacity:1;stroke-width:1.983;stroke-linecap:round;paint-order:fill markers stroke"
       id="rect4087-1"
       width="75.926292"
       height="7.6912351"
       x="112.74901"
       y="93.671219"
       rx="3.8456175"
       ry="3.8456175"
       transform="rotate(18.365448)" />
    <rect
       style="fill:#0cd547;fill-opacity:1;stroke-width:1.983;stroke-linecap:round;paint-order:fill markers stroke"
       id="rect4087-1-9"
       width="75.926292"
       height="7.6912351"
       x="112.74901"
       y="93.671219"
       rx="3.8456175"
       ry="3.8456175"
       transform="rotate(18.365448)" />
  </g>
</svg>
