<?xml version="1.0" encoding="UTF-8" standalone="no"?>
<!-- Created with Inkscape (http://www.inkscape.org/) -->

<svg width="98.651787mm" height="118.8735mm" viewBox="0 0 98.651787 118.8735" version="1.1" id="svg8" inkscape:version="1.3 (0e150ed6c4, 2023-07-21)" sodipodi:docname="хуй.svg" xmlns:inkscape="http://www.inkscape.org/namespaces/inkscape" xmlns:sodipodi="http://sodipodi.sourceforge.net/DTD/sodipodi-0.dtd" xmlns="http://www.w3.org/2000/svg" xmlns:svg="http://www.w3.org/2000/svg" xmlns:rdf="http://www.w3.org/1999/02/22-rdf-syntax-ns#" xmlns:cc="http://creativecommons.org/ns#" xmlns:dc="http://purl.org/dc/elements/1.1/">
  <defs id="defs2">
    <inkscape:path-effect effect="bend_path" id="path-effect993" is_visible="true" bendpath="m 101.59288,113.50881 c 4.2647,-3.8269 7.41965,0.0499 9.72111,-1.29191" prop_scale="1" scale_y_rel="false" vertical="false" bendpath-nodetypes="cc" lpeversion="0" hide_knot="false" />
    <inkscape:path-effect effect="bend_path" id="path-effect993-3" is_visible="true" bendpath="m 102.62054,112.2169 c 3.79989,2.02966 6.39199,1.3418 8.69345,0" prop_scale="1" scale_y_rel="false" vertical="false" bendpath-nodetypes="cc" lpeversion="0" hide_knot="false" />
    <inkscape:path-effect effect="bend_path" id="path-effect993-9" is_visible="true" bendpath="m 101.59288,113.50881 c 4.2647,-3.8269 7.41965,0.0499 9.72111,-1.29191" prop_scale="1" scale_y_rel="false" vertical="false" bendpath-nodetypes="cc" lpeversion="0" hide_knot="false" />
  </defs>
  <sodipodi:namedview id="base" pagecolor="#ffffff" bordercolor="#666666" borderopacity="1.0" inkscape:pageopacity="0.0" inkscape:pageshadow="2" inkscape:zoom="0.9899495" inkscape:cx="189.90868" inkscape:cy="176.77669" inkscape:document-units="mm" inkscape:current-layer="layer1" showgrid="false" showguides="true" inkscape:window-width="2467" inkscape:window-height="1413" inkscape:window-x="84" inkscape:window-y="-9" inkscape:window-maximized="1" inkscape:showpageshadow="2" inkscape:pagecheckerboard="0" inkscape:deskcolor="#d1d1d1" />
  <metadata id="metadata5">
    <rdf:RDF>
      <cc:Work rdf:about="">
        <dc:format>image/svg+xml</dc:format>
        <dc:type rdf:resource="http://purl.org/dc/dcmitype/StillImage" />
        <dc:title />
      </cc:Work>
    </rdf:RDF>
  </metadata>
  <g inkscape:label="Layer 1" inkscape:groupmode="layer" id="layer1" transform="translate(-60.287197,-61.142853)">
    <rect style="fill:#67a9ac;fill-opacity:1;fill-rule:evenodd;stroke-width:0.264583" id="rect1165" width="98.651787" height="118.8735" x="60.287197" y="61.142853" inkscape:export-filename="D:\Спайд\Артеги\гхифхты кхе\аналог господи но не гифт не ебу кароче прикол.png" inkscape:export-xdpi="162.46439" inkscape:export-ydpi="162.46439" />
    <path style="opacity:1;fill:#55ff99;fill-opacity:1;fill-rule:evenodd;stroke:#ffffff;stroke-width:8.365;stroke-linecap:round;stroke-linejoin:round;stroke-miterlimit:4;stroke-dasharray:none;stroke-dashoffset:0;stroke-opacity:1;paint-order:markers stroke fill" d="m 90.575865,71.677114 c -8.230098,0.0096 -15.242171,5.978515 -16.565912,14.101465 l -2.26808,-0.361218 2.184363,0.917773 c -0.09747,0.711328 -0.149254,1.428171 -0.15503,2.146123 0.0074,7.200865 4.601844,13.596683 11.423592,15.902383 l -11.689207,12.7925 20.335192,9.52087 -3.151745,5.4591 h 5.886463 l -0.966351,1.67432 c -0.259112,0.27482 -0.374399,0.64329 -0.292489,0.99529 0.02331,0.13511 0.07056,0.26658 0.142629,0.38963 l 2.314069,5.56194 -11.337808,-10.14098 c -0.497488,-0.44499 -1.221285,-0.442 -1.622642,0.007 l -3.49591,3.90881 c -0.203317,0.22731 -0.282816,0.5242 -0.248047,0.81959 -0.02284,0.30872 0.0757,0.63769 0.305408,0.90692 l 20.41891,23.93239 -21.191988,1.54667 3.397724,3.37034 -1.782321,3.33106 6.7784,-1.03404 4.10776,1.55701 7.727695,-5.28805 c 0.43075,0.91318 1.86365,1.43839 3.43441,1.25884 1.26097,-0.14601 2.36148,-0.72079 2.84066,-1.48363 0.49328,0.61564 1.33081,1.11767 2.28719,1.37097 1.76206,0.4642 3.42864,-0.0295 3.74706,-1.11001 l 8.27082,5.65961 4.10776,-1.55701 6.77839,1.03404 -1.78232,-3.33106 3.39773,-3.36982 -21.29999,-1.55495 19.52697,-24.78195 c 0.21909,-0.27805 0.30417,-0.61061 0.26924,-0.91829 0.0232,-0.29647 -0.0676,-0.58956 -0.27957,-0.80873 l -3.64578,-3.7698 c -0.0323,-0.0334 -0.0692,-0.0594 -0.1049,-0.0873 l -2.19987,-3.81011 23.23373,-11.39672 -13.53509,-12.02613 c 4.67653,-3.112793 7.48826,-8.356574 7.49308,-13.974345 -0.005,-0.516768 -0.0331,-1.033047 -0.0853,-1.547192 l 2.59952,-1.6762 -2.72251,0.665408 c -1.2615,-8.191839 -8.30748,-14.240437 -16.59588,-14.246675 -9.28104,-1.97e-4 -16.80486,7.523621 -16.80466,16.804659 0.003,0.143376 0.008,0.286704 0.0155,0.429948 l -1.92598,-0.272335 -0.5116,0.100252 c 0.0202,-0.270931 0.0338,-0.542312 0.0408,-0.813903 -9e-5,-9.280636 -7.523509,-16.804055 -16.804145,-16.804143 z m 23.569105,60.478996 h 10.88874 l -13.01678,12.59045 -0.0155,-0.0377 z m -4.83485,1.19321 -0.59221,3.46749 -0.59014,-1.41852 z" id="path1113-1-0" inkscape:connector-curvature="0" sodipodi:nodetypes="ccccccccccccccccccccccccccccccccccccscccccccccccccccccccccccccccc" />
    <path style="opacity:1;fill:#55ff99;fill-opacity:1;fill-rule:evenodd;stroke:none;stroke-width:1.065;stroke-linecap:square;stroke-linejoin:miter;stroke-miterlimit:4;stroke-dasharray:none;stroke-dashoffset:0;stroke-opacity:1;paint-order:markers stroke fill" inkscape:transform-center-x="1.0591058" inkscape:transform-center-y="1.045876" d="m 108.10026,160.28081 13.31043,9.10882 4.10807,-1.55698 6.77802,1.03361 -1.78194,-3.33096 3.39747,-3.36999 z" id="path1113-1" inkscape:connector-curvature="0" sodipodi:nodetypes="ccccccc" />
    <path style="opacity:1;fill:#55ff99;fill-opacity:1;fill-rule:evenodd;stroke:none;stroke-width:1.065;stroke-linecap:square;stroke-linejoin:miter;stroke-miterlimit:4;stroke-dasharray:none;stroke-dashoffset:0;stroke-opacity:1;paint-order:markers stroke fill" inkscape:transform-center-x="-1.0591058" inkscape:transform-center-y="1.045876" d="m 106.41357,159.87304 -13.310436,9.10883 -4.108068,-1.55699 -6.778024,1.03362 1.781946,-3.33097 -3.39747,-3.36999 z" id="path1113" inkscape:connector-curvature="0" sodipodi:nodetypes="ccccccc" />
    <circle style="fill:#0eff6e;fill-opacity:1;fill-rule:evenodd;stroke-width:0.264583" id="path858-1" cx="126.56594" cy="89.037033" r="16.804304" />
    <path style="opacity:1;fill:#ccff02;fill-opacity:1;fill-rule:evenodd;stroke:none;stroke-width:1.51212;stroke-linecap:square;stroke-linejoin:miter;stroke-miterlimit:4;stroke-dasharray:none;stroke-dashoffset:0;stroke-opacity:1;paint-order:markers stroke fill" inkscape:transform-center-x="16.196517" inkscape:transform-center-y="16.939475" d="m 99.095864,87.390414 7.780486,4.520698 4.68549,53.300608 -44.169176,-3.49616 18.53425,-46.204991 z" id="path835" inkscape:connector-curvature="0" sodipodi:nodetypes="cccccc" transform="matrix(0.65943422,0.24738159,-0.24738159,0.65943422,64.122356,7.052186)" />
    <path sodipodi:type="star" style="opacity:1;fill:#afda00;fill-opacity:1;fill-rule:evenodd;stroke:none;stroke-width:1.065;stroke-linecap:square;stroke-linejoin:miter;stroke-miterlimit:4;stroke-dasharray:none;stroke-dashoffset:0;stroke-opacity:1;paint-order:markers stroke fill" id="path853" sodipodi:sides="3" sodipodi:cx="110.08557" sodipodi:cy="120.95759" sodipodi:r1="22.396881" sodipodi:r2="11.198441" sodipodi:arg1="-1.5707963" sodipodi:arg2="-0.52359878" inkscape:flatsided="true" inkscape:rounded="0" inkscape:randomized="0" d="m 110.08557,98.560707 19.39627,33.595323 -38.792537,0 z" inkscape:transform-center-y="-5.5992225" />
    <path style="fill:#37c8ab;fill-rule:evenodd;stroke-width:1" d="m 389.67188,460.75977 c -1.41697,0.0328 -2.72869,0.71748 -3.43946,1.94921 l -24.875,43.10743 c -0.97932,1.03869 -1.41505,2.43134 -1.10547,3.76171 0.0881,0.51067 0.2667,1.00756 0.53907,1.47266 l 25.1621,60.48047 c 0.87407,2.10077 3.45409,3.01204 5.78321,2.04297 l 32.16015,-13.38281 c 2.32913,-0.96908 3.50102,-3.44025 2.62696,-5.54102 l -17.85156,-42.9082 15.61914,-27.07031 c 1.13722,-1.97078 0.29437,-4.57315 -1.89063,-5.83399 l -30.17187,-17.41016 c -0.81938,-0.47281 -1.70647,-0.68766 -2.55664,-0.66796 z" id="rect1038" transform="scale(0.26458333)" />
    <ellipse style="fill:#f4ff73;fill-opacity:1;fill-rule:evenodd;stroke-width:0.264583" id="path858-2-0" cx="130.75127" cy="89.582787" rx="11.008556" ry="13.21353" />
    <rect style="fill:#fae386;fill-opacity:1;fill-rule:evenodd;stroke-width:0.264583" id="rect1034" width="3.0735996" height="6.1471992" x="120.09914" y="104.72054" rx="1.2047987" ry="1.0866808" transform="rotate(6.8283761)" inkscape:transform-center-x="0.00331578" inkscape:transform-center-y="0.13771519" />
    <circle style="fill:#fcefba;fill-opacity:1;fill-rule:evenodd;stroke-width:0.264583" id="path815" cx="109.23512" cy="106.68899" r="14.174108" />
    <ellipse style="fill:#ffffff;fill-rule:evenodd;stroke-width:0.264583" id="path971-2" cx="121.27355" cy="105.06706" rx="10.256468" ry="5.1282339" />
    <path style="opacity:1;fill:#000000;fill-opacity:1;fill-rule:evenodd;stroke:none;stroke-width:1.065;stroke-linecap:square;stroke-linejoin:miter;stroke-miterlimit:4;stroke-dasharray:none;stroke-dashoffset:0;stroke-opacity:1;paint-order:markers stroke fill" d="m 131.13222,91.879656 2.17177,-1.005283 4.58837,-4.373802 4.94226,0.05864 3.04966,-0.744988 -7.00922,4.519164 z" id="path923-4" inkscape:connector-curvature="0" sodipodi:nodetypes="ccccccc" />
    <circle style="fill:#55ff99;fill-rule:evenodd;stroke-width:0.264583" id="path858" cx="90.575806" cy="88.481277" r="16.804304" />
    <circle style="fill:#f4ff75;fill-opacity:1;fill-rule:evenodd;stroke-width:0.264583" id="path858-2" cx="88.607742" cy="88.679192" r="13.21353" />
    <path style="opacity:1;fill:#000000;fill-opacity:1;fill-rule:evenodd;stroke:none;stroke-width:1.065;stroke-linecap:square;stroke-linejoin:miter;stroke-miterlimit:4;stroke-dasharray:none;stroke-dashoffset:0;stroke-opacity:1;paint-order:markers stroke fill" d="m 94.378374,91.482805 -3.3325,-1.005283 -7.040702,-4.373802 -7.583714,0.05864 -4.679594,-0.744988 10.755393,4.519164 z" id="path923" inkscape:connector-curvature="0" sodipodi:nodetypes="ccccccc" />
    <ellipse style="fill:#ffffff;fill-rule:evenodd;stroke-width:0.264583" id="path971" cx="98.789497" cy="104.98355" rx="10.256468" ry="5.1282339" />
    <rect style="fill:#000000;fill-opacity:1;fill-rule:evenodd;stroke-width:0.264583" id="rect988" width="1.5008817" height="7.5044088" x="101.374" y="100.81067" rx="0.75044084" ry="0.75044084" />
    <path style="fill:#000000;fill-opacity:1;fill-rule:evenodd;stroke-width:0.264583" d="m 102.9554,110.75965 c -0.12063,-3.5e-4 -0.23619,0.042 -0.31781,0.13074 -0.16274,0.17682 -0.12408,0.48522 0.12144,0.6811 v -5.2e-4 c 0.65451,0.52219 1.41827,0.93537 2.26859,1.12034 0.76713,0.15628 1.54211,0.11032 2.26963,-0.0393 0.63678,-0.12824 1.2176,-0.33678 1.78387,-0.41238 0.36054,-0.0481 0.63133,-0.11367 0.95016,-0.11034 0.29354,0.003 0.59248,0.0763 0.87246,0.11983 0.56452,0.0878 1.14657,0.28414 1.78335,0.41238 0.72753,0.1496 1.5025,0.19555 2.26963,0.0393 0.85032,-0.18498 1.6146,-0.59816 2.26911,-1.12035 v 5.2e-4 c 0.24552,-0.19588 0.28366,-0.50428 0.12093,-0.6811 -0.16324,-0.17751 -0.46093,-0.16917 -0.66715,-0.006 -0.57666,0.45719 -1.21835,0.81405 -1.9022,0.95136 -0.60899,0.13276 -1.26712,0.0864 -1.91823,-0.0408 -0.56934,-0.11389 -1.16172,-0.30703 -1.81126,-0.41755 -0.3213,-0.0617 -0.66988,-0.0772 -1.01958,-0.0233 -0.3737,-0.0684 -0.74807,-0.052 -1.0914,0.0139 -0.64954,0.11052 -1.24245,0.30366 -1.81178,0.41754 -0.65112,0.12718 -1.30873,0.17359 -1.91771,0.0408 -0.68386,-0.13732 -1.32555,-0.49417 -1.90221,-0.95136 -0.10311,-0.0817 -0.22922,-0.12472 -0.34985,-0.12506 z" id="rect990" inkscape:connector-curvature="0" sodipodi:nodetypes="ccccccsascccccccccccccccc" />
    <path style="opacity:1;fill:#dfff61;fill-opacity:1;fill-rule:evenodd;stroke:none;stroke-width:1.065;stroke-linecap:square;stroke-linejoin:miter;stroke-miterlimit:4;stroke-dasharray:none;stroke-dashoffset:0;stroke-opacity:1;paint-order:markers stroke fill" inkscape:transform-center-x="-16.196517" inkscape:transform-center-y="16.939475" d="m 107.85078,89.194908 10.22613,41.213202 31.33538,-15.37029 -26.72598,-23.74596 z" id="path835-6" inkscape:connector-curvature="0" sodipodi:nodetypes="ccccc" />
    <rect style="fill:#00aa88;fill-rule:evenodd;stroke-width:0.264583" id="rect1036" width="7.4414062" height="3.3072915" x="132.89848" y="89.259506" rx="1.2047987" ry="1.0866808" transform="rotate(15.629749)" />
    <rect style="fill:#485e59;fill-opacity:1;fill-rule:evenodd;stroke-width:0.264583" id="rect1058" width="27.356028" height="7.4177828" x="150.31206" y="39.743801" rx="1.2047987" ry="1.0866808" transform="rotate(41.811372)" />
    <path style="fill:#536c67;fill-rule:evenodd;stroke-width:0.264583" d="m 87.017411,131.46363 20.933209,24.53487 c 0.43322,0.50777 0.41329,1.23111 -0.0447,1.62186 l -3.98962,3.40396 c -0.45798,0.39075 -1.17545,0.29655 -1.60867,-0.21122 L 81.374435,136.27823 c -0.433223,-0.50776 -0.413291,-1.23111 0.04469,-1.62185 l 3.989621,-3.40396 c 0.457979,-0.39075 1.175444,-0.29655 1.608667,0.21121 z" id="rect1058-7" inkscape:connector-curvature="0" />
    <rect style="fill:#485e59;fill-opacity:1;fill-rule:evenodd;stroke-width:0.264583" id="rect1058-9" width="27.356028" height="7.4177828" x="-1.7412354" y="181.91956" rx="1.2047987" ry="1.0866808" transform="matrix(-0.7187863,0.69523108,0.69523108,0.7187863,0,0)" />
    <rect style="fill:#536c67;fill-rule:evenodd;stroke-width:0.264583" id="rect1058-7-5" width="34.661098" height="7.4177856" x="23.701218" y="180.43832" rx="1.2047987" ry="1.0866808" transform="matrix(-0.61891065,0.78546139,0.78546139,0.61891065,0,0)" />
    <ellipse style="fill:#fcefba;fill-opacity:1;fill-rule:evenodd;stroke-width:0.264583" id="path1131-4" cx="147.83533" cy="129.40135" rx="3.3426933" ry="2.0658979" transform="rotate(14.784313)" />
    <rect style="fill:#53cfb6;fill-opacity:1;fill-rule:evenodd;stroke-width:0.264583" id="rect1094-0" width="4.5651331" height="37.332733" x="-134.76208" y="105.15912" rx="1.2047987" ry="1.0866808" transform="matrix(-0.98573056,-0.16833079,-0.16833079,0.98573056,0,0)" />
    <rect style="fill:#00886d;fill-opacity:1;fill-rule:evenodd;stroke-width:0.264583" id="rect1148-6" width="5.8113837" height="2.6458333" x="-48.296391" y="187.89218" rx="1.2047987" ry="1.0866808" transform="matrix(-0.93714623,0.34893688,0.34893688,0.93714623,0,0)" />
    <rect style="fill:#5ed2bb;fill-opacity:1;fill-rule:evenodd;stroke-width:0.264583" id="rect1094" width="4.9034615" height="40.099487" x="78.011398" y="136.44328" rx="1.2047987" ry="1.0866808" transform="rotate(-8.9352107)" />
    <ellipse style="fill:#fcefba;fill-opacity:1;fill-rule:evenodd;stroke-width:0.264583" id="path1131" cx="84.730537" cy="173.72153" rx="3.3426933" ry="2.0658979" transform="rotate(-6.5623243)" />
    <rect style="fill:#00aa88;fill-opacity:1;fill-rule:evenodd;stroke-width:0.264583" id="rect1148" width="5.8113837" height="2.6458333" x="152.64384" y="113.13713" rx="1.2047987" ry="1.0866808" transform="rotate(20.422304)" />
  </g>
</svg>
