<?xml version="1.0" encoding="UTF-8" standalone="no"?>
<!-- Created with Inkscape (http://www.inkscape.org/) -->

<svg width="282.34821mm" height="450.01578mm" viewBox="0 0 282.34821 450.01578" version="1.1" id="svg8" inkscape:version="1.3 (0e150ed6c4, 2023-07-21)" sodipodi:docname="опаздываете бакалавр.svg" xmlns:inkscape="http://www.inkscape.org/namespaces/inkscape" xmlns:sodipodi="http://sodipodi.sourceforge.net/DTD/sodipodi-0.dtd" xmlns:xlink="http://www.w3.org/1999/xlink" xmlns="http://www.w3.org/2000/svg" xmlns:svg="http://www.w3.org/2000/svg" xmlns:rdf="http://www.w3.org/1999/02/22-rdf-syntax-ns#" xmlns:cc="http://creativecommons.org/ns#" xmlns:dc="http://purl.org/dc/elements/1.1/">
  <defs id="defs2">
    <linearGradient inkscape:collect="always" id="linearGradient1252">
      <stop style="stop-color:#ff6600;stop-opacity:1;" offset="0" id="stop1248" />
      <stop style="stop-color:#ff6600;stop-opacity:0;" offset="1" id="stop1250" />
    </linearGradient>
    <linearGradient inkscape:collect="always" id="linearGradient1213">
      <stop style="stop-color:#b4bdbd;stop-opacity:1;" offset="0" id="stop1209" />
      <stop style="stop-color:#b4bdbd;stop-opacity:0;" offset="1" id="stop1211" />
    </linearGradient>
    <linearGradient inkscape:collect="always" xlink:href="#linearGradient1213" id="linearGradient1215" x1="-17.105249" y1="400.84601" x2="-17.105249" y2="216.31337" gradientUnits="userSpaceOnUse" gradientTransform="translate(0,1.482255e-5)" />
    <linearGradient inkscape:collect="always" xlink:href="#linearGradient1252" id="linearGradient1254" x1="-8.3154821" y1="255.42261" x2="-8.3154821" y2="11.25" gradientUnits="userSpaceOnUse" gradientTransform="translate(-2.1010112e-6)" />
  </defs>
  <sodipodi:namedview id="base" pagecolor="#ffffff" bordercolor="#666666" borderopacity="1.0" inkscape:pageopacity="0.0" inkscape:pageshadow="2" inkscape:zoom="0.175" inkscape:cx="502.85714" inkscape:cy="988.57143" inkscape:document-units="mm" inkscape:current-layer="layer1" showgrid="false" inkscape:window-width="2467" inkscape:window-height="1413" inkscape:window-x="84" inkscape:window-y="-9" inkscape:window-maximized="1" inkscape:showpageshadow="2" inkscape:pagecheckerboard="0" inkscape:deskcolor="#d1d1d1" />
  <metadata id="metadata5">
    <rdf:RDF>
      <cc:Work rdf:about="">
        <dc:format>image/svg+xml</dc:format>
        <dc:type rdf:resource="http://purl.org/dc/dcmitype/StillImage" />
        <dc:title />
      </cc:Work>
    </rdf:RDF>
  </metadata>
  <g inkscape:label="Layer 1" inkscape:groupmode="layer" id="layer1" transform="translate(158.75,108.6805)">
    <rect style="fill:#272728;fill-opacity:1;fill-rule:evenodd;stroke-width:0.264583" id="rect1016" width="282.34821" height="450.01578" x="-158.75" y="-108.6805" inkscape:export-xdpi="57.797085" inkscape:export-ydpi="57.797085" />
    <rect style="fill:url(#linearGradient1254);fill-opacity:1;fill-rule:evenodd;stroke-width:0.264583" id="rect1246" width="282.34821" height="283.33206" x="-158.75" y="-60.037441" />
    <path sodipodi:type="star" style="opacity:1;fill:#1b1b1b;fill-opacity:1;fill-rule:nonzero;stroke:none;stroke-width:0.961082;stroke-linecap:square;stroke-linejoin:round;stroke-miterlimit:4;stroke-dasharray:none;stroke-dashoffset:0;stroke-opacity:1;paint-order:normal" id="path1020-3-0-7" sodipodi:sides="3" sodipodi:cx="-140.60715" sodipodi:cy="211.95535" sodipodi:r1="56.338741" sodipodi:r2="28.169373" sodipodi:arg1="-1.5707963" sodipodi:arg2="-0.52359878" inkscape:flatsided="true" inkscape:rounded="0" inkscape:randomized="0" d="m -140.60715,155.61661 48.790783,84.50811 -97.581563,0 z" inkscape:transform-center-x="1.3484344e-06" inkscape:transform-center-y="-63.272648" transform="matrix(2.8934586,0,0,4.4923003,389.26506,-855.41774)" />
    <path sodipodi:type="star" style="opacity:1;fill:#535454;fill-opacity:1;fill-rule:nonzero;stroke:none;stroke-width:3.06554;stroke-linecap:square;stroke-linejoin:round;stroke-miterlimit:4;stroke-dasharray:none;stroke-dashoffset:0;stroke-opacity:1;paint-order:normal" id="path1020-3-0" sodipodi:sides="3" sodipodi:cx="-140.60715" sodipodi:cy="211.95535" sodipodi:r1="56.338741" sodipodi:r2="28.169373" sodipodi:arg1="-1.5707963" sodipodi:arg2="-0.52359878" inkscape:flatsided="true" inkscape:rounded="0" inkscape:randomized="0" d="m -140.60715,155.61661 48.790783,84.50811 -97.581563,0 z" inkscape:transform-center-x="-1.090127e-06" inkscape:transform-center-y="-23.093122" transform="matrix(0.77921398,0,0,1.6395906,-11.168486,-170.41161)" />
    <path sodipodi:type="star" style="opacity:1;fill:#535454;fill-opacity:1;fill-rule:nonzero;stroke:none;stroke-width:3.06554;stroke-linecap:square;stroke-linejoin:round;stroke-miterlimit:4;stroke-dasharray:none;stroke-dashoffset:0;stroke-opacity:1;paint-order:normal" id="path1020-3" sodipodi:sides="3" sodipodi:cx="-140.60715" sodipodi:cy="211.95535" sodipodi:r1="56.338741" sodipodi:r2="28.169373" sodipodi:arg1="-1.5707963" sodipodi:arg2="-0.52359878" inkscape:flatsided="true" inkscape:rounded="0" inkscape:randomized="0" d="m -140.60715,155.61661 48.790783,84.50811 -97.581563,0 z" inkscape:transform-center-x="-1.090127e-06" inkscape:transform-center-y="-23.093122" transform="matrix(0.77921397,0,0,1.6395906,195.1428,-170.41161)" />
    <path sodipodi:type="star" style="opacity:1;fill:#5b5c5c;fill-opacity:1;fill-rule:nonzero;stroke:none;stroke-width:2.62071;stroke-linecap:square;stroke-linejoin:round;stroke-miterlimit:4;stroke-dasharray:none;stroke-dashoffset:0;stroke-opacity:1;paint-order:normal" id="path1020-30" sodipodi:sides="3" sodipodi:cx="-140.60715" sodipodi:cy="211.95535" sodipodi:r1="56.338741" sodipodi:r2="28.169373" sodipodi:arg1="-1.5707963" sodipodi:arg2="-0.52359878" inkscape:flatsided="true" inkscape:rounded="0" inkscape:randomized="0" d="m -140.60715,155.61661 48.790783,84.50811 -97.581563,0 z" inkscape:transform-center-x="-1.140076e-05" inkscape:transform-center-y="-13.265739" transform="matrix(1.8560299,0,0,0.94185539,294.01213,-2.8681343)" />
    <path sodipodi:type="star" style="opacity:1;fill:#5b5c5c;fill-opacity:1;fill-rule:nonzero;stroke:none;stroke-width:2.62071;stroke-linecap:square;stroke-linejoin:round;stroke-miterlimit:4;stroke-dasharray:none;stroke-dashoffset:0;stroke-opacity:1;paint-order:normal" id="path1020" sodipodi:sides="3" sodipodi:cx="-140.60715" sodipodi:cy="211.95535" sodipodi:r1="56.338741" sodipodi:r2="28.169373" sodipodi:arg1="-1.5707963" sodipodi:arg2="-0.52359878" inkscape:flatsided="true" inkscape:rounded="0" inkscape:randomized="0" d="m -140.60715,155.61661 48.790783,84.50811 -97.581563,0 z" inkscape:transform-center-x="-1.140076e-05" inkscape:transform-center-y="-13.265739" transform="matrix(1.8560299,0,0,0.9418554,192.77822,-2.8681343)" />
    <rect style="fill:#5b5c5c;fill-opacity:1;fill-rule:evenodd;stroke-width:0.264583" id="rect1018" width="282.34821" height="118.04063" x="-158.75" y="223.29463" />
    <path style="opacity:1;fill:#779595;fill-opacity:0.371542;fill-rule:nonzero;stroke:none;stroke-width:3.465;stroke-linecap:square;stroke-linejoin:round;stroke-miterlimit:4;stroke-dasharray:none;stroke-dashoffset:0;stroke-opacity:1;paint-order:normal" d="m -147.53388,191.26621 82.451814,54.74859 52.16374,-2.312 116.654386,-31.2198 92.60416,81.18884 -28.88197,-9.92394 -53.90523,59.25272 -69.541486,-46.176 -17.87746,4.78472 -29.07213,-7.95972 -48.42185,42.45323 -123.436394,-33.03468 53.75279,-6.97477 -0.0636,-30.41365 13.6033,13.83844 22.798614,-7.70548 -0.0351,-0.55914 -70.839604,-19.39519 -66.74683,21.62038 z m 28.17812,48.85852 -29.66847,9.61026 51.052182,-2.26291 z m 254.15657,32.40215 -41.942136,11.22516 0.002,0.98288 -0.76534,-0.77876 -27.03298,7.2347 0.28578,4.57129 26.14154,8.9824 70.559006,-22.85545 z m -184.029066,8.4491 -25.68112,9.13071 22.06067,-2.86236 11.75846,-4.04006 z" id="path1067-832" inkscape:connector-curvature="0" />
    <path style="fill:#4e4633;fill-opacity:1;fill-rule:evenodd;stroke-width:0.264583" d="M -37.798406,25.167896 -9.9647456,18.71314 62.479478,-12.83675 80.715394,59.931931 61.060631,292.10856 -115.7277,302.3454 l -32.43975,-10.23684 47.84519,-49.63204 9.44803,-174.839549 z" id="rect829" inkscape:connector-curvature="0" sodipodi:nodetypes="cccccccccc" />
    <path style="fill:#4a2e15;fill-opacity:1;fill-rule:evenodd;stroke-width:0.264583" d="M -67.351917,227.77719 -79.644747,159.01037 -53.618964,61.369155 73.388293,167.12944 100.55493,297.80508 81.846064,303.15047 -115.7277,302.3454 Z" id="rect826-2" inkscape:connector-curvature="0" sodipodi:nodetypes="cccccccc" />
    <path style="fill:#6b2a28;fill-opacity:1;fill-rule:evenodd;stroke-width:0.264583" d="m -35.279575,44.430298 97.759053,-57.267048 18.235916,72.768681 -7.327101,107.197509 7.95751,127.97565 0.500261,8.04538 -150.26706,-24.85932 z" id="rect826" inkscape:connector-curvature="0" sodipodi:nodetypes="cccccccc" />
    <path style="fill:#392c2c;fill-opacity:1;fill-rule:evenodd;stroke-width:0.264583" d="M -23.731126,58.673225 57.960732,3.5980875 78.144913,66.180006 62.311523,113.40373 37.419306,179.85739 27.935493,142.34515 3.2934668,115.80483 Z" id="rect832-6" inkscape:connector-curvature="0" sodipodi:nodetypes="cccccccc" />
    <path style="fill:#211a1a;fill-opacity:1;fill-rule:evenodd;stroke-width:0.264583" d="M -13.05496,68.277319 56.891654,12.952521 71.248511,68.339087 57.641368,106.57576 4.6477199,104.2057 Z" id="rect832" inkscape:connector-curvature="0" sodipodi:nodetypes="cccccc" />
    <path style="fill:#c3a8a8;fill-opacity:1;fill-rule:evenodd;stroke-width:0.264583" d="M 1.6591931,71.480242 18.871738,43.406673 56.121514,40.252228 67.46002,71.766476 50.729258,104.36839 20.185784,104.26302 Z" id="rect850" inkscape:connector-curvature="0" sodipodi:nodetypes="ccccccc" />
    <path style="fill:#c3b5a8;fill-opacity:1;fill-rule:evenodd;stroke-width:0.264583" d="M 38.364582,63.147205 21.755446,51.383657 0.52725842,47.610234 -3.5820466,67.912202 3.4017869,84.880836 -33.072918,151.59363 l 7.21349,56.6997 16.9443514,-54.47602 61.8796186,-64.195689 z" id="rect853-9" inkscape:connector-curvature="0" sodipodi:nodetypes="cccccccccc" />
    <path style="fill:#d7cdc4;fill-opacity:1;fill-rule:evenodd;stroke-width:0.264583" d="M 28.159226,68.135408 42.122529,55.237931 63.350716,51.464508 67.46002,71.766476 69.35863,94.026777 41.010417,89.491063 38.5771,77.721184 29.090257,79.228259 Z" id="rect853" inkscape:connector-curvature="0" sodipodi:nodetypes="ccccccccc" />
    <path style="opacity:1;fill:#b2a08f;fill-opacity:1;fill-rule:nonzero;stroke:none;stroke-width:3.465;stroke-linecap:square;stroke-linejoin:round;stroke-miterlimit:4;stroke-dasharray:none;stroke-dashoffset:0;stroke-opacity:1;paint-order:normal" inkscape:transform-center-x="-2.9293158" inkscape:transform-center-y="-2.2350896" d="m -19.087799,136.73809 10.1727224,17.07922 -12.9754944,-7.19619 -11.182347,4.97251 z" id="path871" inkscape:connector-curvature="0" sodipodi:nodetypes="ccccc" />
    <path style="opacity:1;fill:#b2a08f;fill-opacity:1;fill-rule:nonzero;stroke:none;stroke-width:13.0961;stroke-linecap:square;stroke-linejoin:round;stroke-miterlimit:4;stroke-dasharray:none;stroke-dashoffset:0;stroke-opacity:1;paint-order:normal" d="m -8.8632812,405.99079 -62.0937498,68.4721 44.65039,-22.44727 48.720703,71.13086 0.730469,-0.75781 z" transform="scale(0.26458333)" id="path871-8" inkscape:connector-curvature="0" sodipodi:nodetypes="cccccc" />
    <path style="fill:#6c5844;fill-opacity:1;fill-rule:evenodd;stroke-width:0.264583" d="M 45.367361,66.893214 57.015438,63.25319 67.46002,73.70418 56.894104,89.946704 31.777935,84.486667 Z" id="rect905" inkscape:connector-curvature="0" sodipodi:nodetypes="cccccc" />
    <path style="fill:#ffcd09;fill-opacity:1;fill-rule:evenodd;stroke-width:0.264583" d="m 46.729766,70.003679 7.91552,-2.4736 L 67.46002,73.70418 54.562833,85.669814 31.777935,84.486667 Z" id="rect905-6" inkscape:connector-curvature="0" sodipodi:nodetypes="cccccc" />
    <path style="opacity:1;fill:#ffe88e;fill-opacity:1;fill-rule:nonzero;stroke:none;stroke-width:3.465;stroke-linecap:square;stroke-linejoin:round;stroke-miterlimit:4;stroke-dasharray:none;stroke-dashoffset:0;stroke-opacity:1;paint-order:normal" inkscape:transform-center-x="1.0387986" inkscape:transform-center-y="-0.69657734" d="m 55.824569,69.62634 8.443112,6.410504 -9.381935,-3.241066 -8.264384,0.605351 z" id="path923" inkscape:connector-curvature="0" sodipodi:nodetypes="ccccc" />
    <path style="fill:#534434;fill-opacity:1;fill-rule:evenodd;stroke-width:0.264583" d="M 9.8164527,64.083759 1.3918538,60.443735 -6.1623059,70.894725 1.4796099,87.137249 19.645153,81.677212 Z" id="rect905-0" inkscape:connector-curvature="0" sodipodi:nodetypes="cccccc" />
    <path style="fill:#f4c400;fill-opacity:1;fill-rule:evenodd;stroke-width:0.264583" d="m 8.8310784,67.194224 -5.7249863,-2.4736 -9.268398,6.174101 9.328033,11.965634 16.4794259,-1.183147 z" id="rect905-6-0" inkscape:connector-curvature="0" sodipodi:nodetypes="cccccc" />
    <path style="fill:#c8bcb1;fill-opacity:1;fill-rule:evenodd;stroke-width:0.264583" d="M 5.127041,80.230652 18.993304,77.301336 42.680036,93.088723 22.465222,121.23124 5.4125155,97.320052 -7.0626912,103.82618 Z" id="rect992" inkscape:connector-curvature="0" sodipodi:nodetypes="ccccccc" />
    <path inkscape:connector-curvature="0" style="opacity:1;fill:#b2a08f;fill-opacity:1;fill-rule:nonzero;stroke:none;stroke-width:3.465;stroke-linecap:square;stroke-linejoin:round;stroke-miterlimit:4;stroke-dasharray:none;stroke-dashoffset:0;stroke-opacity:1;paint-order:normal" d="M 9.6497613,86.276576 -7.0626914,103.82618 5.4125155,97.320052 22.465222,121.23124 v 0 z" id="path871-8-0" sodipodi:nodetypes="cccccc" />
    <path style="fill:#5e2523;fill-opacity:1;fill-rule:evenodd;stroke-width:0.264583" d="m -46.869048,191.54464 34.047975,66.1963 35.440361,-99.13074 28.902136,141.28391 -109.040791,2.45129 z" id="rect1013" inkscape:connector-curvature="0" sodipodi:nodetypes="cccccc" />
    <path style="opacity:1;fill:#bccbcb;fill-opacity:0.371542;fill-rule:nonzero;stroke:none;stroke-width:3.465;stroke-linecap:square;stroke-linejoin:round;stroke-miterlimit:4;stroke-dasharray:none;stroke-dashoffset:0;stroke-opacity:1;paint-order:normal" inkscape:transform-center-x="-15.973969" inkscape:transform-center-y="-2.5988751e-06" d="m 10.568681,261.34405 -121.947161,15.82364 -94.09307,32.33025 92.60417,-81.18875 z" id="path1067" inkscape:connector-curvature="0" sodipodi:nodetypes="ccccc" />
    <path style="opacity:1;fill:#98adad;fill-opacity:0.920949;fill-rule:nonzero;stroke:none;stroke-width:3.465;stroke-linecap:square;stroke-linejoin:round;stroke-miterlimit:4;stroke-dasharray:none;stroke-dashoffset:0;stroke-opacity:1;paint-order:normal" inkscape:transform-center-x="15.973969" inkscape:transform-center-y="2.5988751e-06" d="M -161.18939,283.39044 -43.027626,256.55412 149.72286,265.09667 -37.753329,316.4253 Z" id="path1067-8" inkscape:connector-curvature="0" sodipodi:nodetypes="ccccc" />
    <path style="opacity:1;fill:#d0dada;fill-opacity:0.731225;fill-rule:nonzero;stroke:none;stroke-width:3.465;stroke-linecap:square;stroke-linejoin:round;stroke-miterlimit:4;stroke-dasharray:none;stroke-dashoffset:0;stroke-opacity:1;paint-order:normal" inkscape:transform-center-x="-15.973969" inkscape:transform-center-y="-2.5988751e-06" d="M 185.0174,282.87991 82.04637,249.52596 48.660362,260.99735 47.395482,281.21404 70.19451,288.9192 83.7975,275.08103 83.7124,315.90307 -12.046641,281.85621 110.22444,200.66746 Z" id="path1067-83" inkscape:connector-curvature="0" sodipodi:nodetypes="cccccccccc" />
    <path style="opacity:1;fill:#d0dada;fill-opacity:0.577075;fill-rule:nonzero;stroke:none;stroke-width:3.465;stroke-linecap:square;stroke-linejoin:round;stroke-miterlimit:4;stroke-dasharray:none;stroke-dashoffset:0;stroke-opacity:1;paint-order:normal" inkscape:transform-center-x="-15.973969" inkscape:transform-center-y="2.5988751e-06" d="m 173.0126,304.70801 -121.947156,-15.82364 -94.09307,-32.33025 92.60417,81.18875 z" id="path1067-836" inkscape:connector-curvature="0" sodipodi:nodetypes="ccccc" />
    <rect style="fill:#0000ff;fill-rule:evenodd;stroke-width:0.264583" id="rect1147-5" width="181.75137" height="455.39261" x="123.59821" y="-108.6805" />
    <path style="opacity:1;fill:#acbdbd;fill-opacity:0.774704;fill-rule:nonzero;stroke:none;stroke-width:3.465;stroke-linecap:square;stroke-linejoin:round;stroke-miterlimit:4;stroke-dasharray:none;stroke-dashoffset:0;stroke-opacity:1;paint-order:normal" inkscape:transform-center-x="12.50762" inkscape:transform-center-y="2.0993414e-06" d="m -186.75888,273.41168 80.6262,26.1161 26.141205,-8.98208 0.9904,-15.82965 -17.851611,-6.03313 -10.651124,10.83527 0.0666,-31.96361 74.979214,26.65865 -95.738124,63.5707 z" id="path1067-83-1" inkscape:connector-curvature="0" sodipodi:nodetypes="cccccccccc" />
    <rect style="fill:#0000ff;fill-rule:evenodd;stroke-width:0.264583" id="rect1147" width="181.75137" height="455.39261" x="-340.50137" y="-108.6805" />
    <rect style="fill:url(#linearGradient1215);fill-opacity:1;fill-rule:evenodd;stroke-width:0.264583" id="rect1205" width="282.34821" height="224.82986" x="-158.75" y="116.50539" />
    <rect style="fill:#0000ff;fill-rule:evenodd;stroke-width:0.264583" id="rect1147-5-1" width="181.75137" height="455.39261" x="-290.43185" y="-123.59821" transform="rotate(90)" />
  </g>
</svg>
