<?xml version="1.0" encoding="UTF-8" standalone="no"?>
<!-- Created with Inkscape (http://www.inkscape.org/) -->

<svg width="646.20831mm" height="687.18048mm" viewBox="0 0 646.20831 687.18048" version="1.1" id="svg8" inkscape:version="1.3 (0e150ed6c4, 2023-07-21)" sodipodi:docname="в.svg" xmlns:inkscape="http://www.inkscape.org/namespaces/inkscape" xmlns:sodipodi="http://sodipodi.sourceforge.net/DTD/sodipodi-0.dtd" xmlns="http://www.w3.org/2000/svg" xmlns:svg="http://www.w3.org/2000/svg" xmlns:rdf="http://www.w3.org/1999/02/22-rdf-syntax-ns#" xmlns:cc="http://creativecommons.org/ns#" xmlns:dc="http://purl.org/dc/elements/1.1/">
  <defs id="defs2" />
  <sodipodi:namedview id="base" pagecolor="#ffffff" bordercolor="#666666" borderopacity="1.0" inkscape:pageopacity="0.0" inkscape:pageshadow="2" inkscape:zoom="0.24748737" inkscape:cx="1163.6957" inkscape:cy="1321.2795" inkscape:document-units="mm" inkscape:current-layer="layer1" showgrid="false" showguides="false" inkscape:window-width="2467" inkscape:window-height="1413" inkscape:window-x="84" inkscape:window-y="-9" inkscape:window-maximized="1" inkscape:showpageshadow="2" inkscape:pagecheckerboard="0" inkscape:deskcolor="#d1d1d1" />
  <metadata id="metadata5">
    <rdf:RDF>
      <cc:Work rdf:about="">
        <dc:format>image/svg+xml</dc:format>
        <dc:type rdf:resource="http://purl.org/dc/dcmitype/StillImage" />
        <dc:title />
      </cc:Work>
    </rdf:RDF>
  </metadata>
  <g inkscape:label="Layer 1" inkscape:groupmode="layer" id="layer1" transform="translate(212.45457,244.56483)">
    <rect style="fill:#ff7d7d;fill-opacity:1;fill-rule:evenodd;stroke-width:0.264583" id="rect1102-9" width="323.10416" height="687.18048" x="110.64957" y="-244.56483" inkscape:export-xdpi="75.699471" inkscape:export-ydpi="75.699471" />
    <rect style="fill:#ff9a9a;fill-opacity:1;fill-rule:evenodd;stroke-width:0.264583" id="rect1102" width="323.10416" height="687.18048" x="-212.45457" y="-244.56483" inkscape:export-xdpi="75.699471" inkscape:export-ydpi="75.699471" />
    <path style="fill:#ffddb5;fill-opacity:0.541985;fill-rule:evenodd;stroke:#ff4015;stroke-width:19.665;stroke-miterlimit:4;stroke-dasharray:none;stroke-opacity:0.416031" d="m 107.97667,-188.4555 1.5193,75.95971 L 57.331166,-83.930094 4.5436956,-112.74952 -105.03669,-41.121337 -4.7632347,-53.228609 4.2579456,-36.597581 -101.56247,-18.472075 -99.799291,85.289033 -38.435062,75.481363 -85.265279,53.320442 -65.038625,8.8296175 -2.8134672,55.342541 -76.377978,144.54071 l -49.369582,-17.83198 38.653957,55.85705 79.742955,-49.77732 20.684516,48.95101 -23.772706,62.23341 -94.854152,-22.95105 -25.40416,44.09602 45.233433,-25.38036 62.24426,58.74835 62.715537,-54.8318 -60.719784,133.00842 83.049691,-80.1641 10.871173,-45.09389 v 70.89749 l -27.113071,11.57449 65.065271,61.49237 42.20311,-39.88594 159.08951,13.10669 -141.35518,-41.29103 8.81806,-51.77357 72.36304,44.99468 24.33338,-55.63641 67.62689,21.9692 -53.99775,-53.13164 -53.99929,35.44951 -26.54048,-84.9824 48.61046,-54.97391 39.5609,11.13937 -10.68308,60.77872 97.94597,36.95433 -71.31296,-66.48069 22.21312,-24.62641 -51.66146,-47.240005 17.03412,-19.263942 59.49558,55.149087 33.97001,-43.20873 -45.49592,13.82706 -27.07847,-69.027824 -62.04219,40.471947 -24.71632,-22.600687 101.64082,-60.6386757 -75.82794,9.9337599 65.03533,-36.7579612 -66.71842,2.694927 77.85364,-48.660079 -92.89563,-54.478327 34.84079,60.289342 -78.29341,7.83673 9.40821,-67.634632 -57.94581,45.172436 -6.7345,-15.451246 35.69343,-49.0921 -46.08967,25.23929 z" id="rect1030-7" inkscape:connector-curvature="0" />
    <rect style="fill:#ffddb5;fill-opacity:1;fill-rule:evenodd;stroke-width:0.264583" id="rect1030" width="37.952271" height="181.82533" x="72.697327" y="168.62857" />
    <path style="fill:#5b1900;fill-opacity:1;fill-rule:evenodd;stroke-width:0.264583" d="m 110.64957,-54.820812 99.42429,-77.508158 -14.636,105.2213 130.44105,-5.269157 -101.37128,57.295202 -34.39199,98.191155 131.67345,-85.894444 27.0784,69.027634 45.49626,-13.827189 -33.97036,43.208759 -59.49549,-55.149068 -91.70716,103.712678 26.5405,84.9825 53.99935,-35.44992 53.99771,53.13189 -67.62698,-21.96944 -24.33342,55.63678 -141.11832,-87.74645 z" id="rect1027" inkscape:connector-curvature="0" sodipodi:nodetypes="ccccccccccccccccccc" />
    <path style="fill:#3c0300;fill-opacity:1;fill-rule:evenodd;stroke-width:0.264583" d="m 110.64957,-54.820816 -2.6727,-133.634764 55.56146,127.478213 115.42109,-11.553539 -34.8407,-60.289504 92.8954,54.478285 -147.25153,92.03518 146.90889,-19.2458554 -101.64107,60.6390264 100.49471,91.892974 -22.21304,24.6264 71.31297,66.48063 -97.94572,-36.95433 10.68273,-60.77847 -90.59053,-25.50874 -36.18428,212.45376 141.35477,41.29082 -161.73656,-13.32449 -39.55588,-220.86657 z" id="rect1021" inkscape:connector-curvature="0" sodipodi:nodetypes="cccccccccccccccccccc" />
    <rect style="fill:#ffd19a;fill-opacity:1;fill-rule:evenodd;stroke-width:0.264583" id="rect1030-8" width="37.952271" height="181.82533" x="110.6496" y="168.62857" />
    <path style="fill:#3c0300;fill-opacity:1;fill-rule:evenodd;stroke-width:0.264583" d="m -101.56242,-18.47216 212.212,-36.348656 V 117.57827 l -71.153017,126.07569 -62.715745,54.83173 -62.244053,-58.74813 -45.233645,25.38005 25.40419,-44.09579 94.853991,22.95092 L 47.305468,92.806073 -65.038402,8.8294166 -85.265093,53.320409 -38.434938,75.4814 -99.798842,85.289105 Z" id="rect1024" inkscape:connector-curvature="0" sodipodi:nodetypes="ccccccccccccccc" />
    <path style="opacity:1;fill:#ff9a9a;fill-opacity:1;fill-rule:nonzero;stroke:none;stroke-width:5.465;stroke-linecap:square;stroke-linejoin:round;stroke-miterlimit:4;stroke-dasharray:none;stroke-dashoffset:217.89;stroke-opacity:0.992366;paint-order:stroke fill markers" inkscape:transform-center-x="-8.0180868" inkscape:transform-center-y="8.1568615" d="m 110.64958,306.10064 65.06502,27.77545 -65.06502,61.49256 z" id="path1047-7" inkscape:connector-curvature="0" sodipodi:nodetypes="cccc" />
    <path transform="scale(1,-1)" style="fill:#5b1900;fill-opacity:1;fill-rule:evenodd;stroke-width:0.264583" d="M -105.0366,41.121262 -4.7627954,53.228855 31.536566,-13.69306 l -107.9143,-130.84737 -49.369516,17.83204 38.654023,-55.85702 79.7430246,49.77708 46.8467654,-110.86563 -60.719916,-133.0083 83.049561,80.16388 58.712652,243.540769 c 0,47.0394337 -149.653499,-360.987699 -9.88928,107.778431 l 70.43736,96.8789 L 57.331243,83.930099 4.5438974,112.74948 Z" id="rect1018" inkscape:connector-curvature="0" sodipodi:nodetypes="cccccccccccccccc" />
    <path style="fill:#ffd19a;fill-opacity:1;fill-rule:evenodd;stroke-width:0.264583" d="M 31.536566,13.693059 H 110.64958 V 92.806073 H 47.305468 Z" id="rect815" inkscape:connector-curvature="0" sodipodi:nodetypes="ccccc" />
    <path sodipodi:type="star" style="opacity:1;fill:#ffddb5;fill-opacity:1;fill-rule:nonzero;stroke:none;stroke-width:5.465;stroke-linecap:square;stroke-linejoin:round;stroke-miterlimit:4;stroke-dasharray:none;stroke-dashoffset:217.89;stroke-opacity:0.992366;paint-order:stroke fill markers" id="path818" sodipodi:sides="6" sodipodi:cx="110.64958" sodipodi:cy="13.693058" sodipodi:r1="79.113014" sodipodi:r2="68.513885" sodipodi:arg1="1.5707963" sodipodi:arg2="2.0943951" inkscape:flatsided="true" inkscape:rounded="0" inkscape:randomized="0" d="m 110.64958,92.806072 -68.513877,-39.556505 -2e-6,-79.113014 68.513879,-39.556509 68.51388,39.556505 0,79.113014 z" inkscape:transform-center-x="-3.1996251e-06" transform="rotate(90,110.64958,13.693058)" />
    <path style="fill:#ffd19a;fill-opacity:1;fill-rule:evenodd;stroke-width:0.264583" d="M 14.527631,114.84469 110.64958,306.10064 V 92.806073 H 47.30546 Z" id="rect815-3" inkscape:connector-curvature="0" sodipodi:nodetypes="ccccc" />
    <path style="fill:#ffddb5;fill-opacity:1;fill-rule:evenodd;stroke-width:0.264583" d="m 189.76259,13.693058 h -79.11301 v 79.113015 h 63.34411 z" id="rect815-1" inkscape:connector-curvature="0" sodipodi:nodetypes="ccccc" />
    <path style="fill:#ffddb5;fill-opacity:1;fill-rule:evenodd;stroke-width:0.264583" d="M 206.77153,114.84469 110.64958,306.10063 V 92.806073 h 63.34412 z" id="rect815-3-6" inkscape:connector-curvature="0" sodipodi:nodetypes="ccccc" />
    <path style="opacity:1;fill:#ffffff;fill-opacity:1;fill-rule:nonzero;stroke:none;stroke-width:5.465;stroke-linecap:square;stroke-linejoin:round;stroke-miterlimit:4;stroke-dasharray:none;stroke-dashoffset:217.89;stroke-opacity:0.992366;paint-order:stroke fill markers" inkscape:transform-center-y="-1.8083989e-06" d="m 31.183525,123.10953 79.466055,20.36011 v 89.30362 z" id="path862" inkscape:connector-curvature="0" sodipodi:nodetypes="cccc" />
    <path style="opacity:1;fill:#ffffff;fill-opacity:1;fill-rule:nonzero;stroke:none;stroke-width:5.465;stroke-linecap:square;stroke-linejoin:round;stroke-miterlimit:4;stroke-dasharray:none;stroke-dashoffset:217.89;stroke-opacity:0.992366;paint-order:stroke fill markers" inkscape:transform-center-y="-1.8083989e-06" d="m 190.11564,123.10953 -79.46606,20.36011 v 89.30362 z" id="path862-9" inkscape:connector-curvature="0" sodipodi:nodetypes="cccc" />
    <path style="opacity:1;fill:#ffd19a;fill-opacity:1;fill-rule:nonzero;stroke:none;stroke-width:5.465;stroke-linecap:square;stroke-linejoin:round;stroke-miterlimit:4;stroke-dasharray:none;stroke-dashoffset:217.89;stroke-opacity:0.992366;paint-order:stroke fill markers" inkscape:transform-center-y="-1.8083989e-06" d="m 110.64958,30.512999 v 0 l 9.88929,22.444613 5.70518,46.085068 15.96654,10.58333 -31.56101,24.7722 z" id="path862-9-6" inkscape:connector-curvature="0" sodipodi:nodetypes="ccccccc" />
    <path style="fill:#ffd19a;fill-opacity:1;fill-rule:evenodd;stroke-width:0.264583" d="M 71.093071,-54.82082 H 110.64958 V 117.57827 L 71.093075,82.206939 31.536566,13.69306 Z" id="rect913" inkscape:connector-curvature="0" sodipodi:nodetypes="cccccc" />
    <path style="opacity:1;fill:#ffddb5;fill-opacity:1;fill-rule:nonzero;stroke:none;stroke-width:5.465;stroke-linecap:square;stroke-linejoin:round;stroke-miterlimit:4;stroke-dasharray:none;stroke-dashoffset:217.89;stroke-opacity:0.992366;paint-order:stroke fill markers" inkscape:transform-center-y="-1.8083989e-06" d="m 110.64958,30.512999 v 0 l -9.88929,22.444613 -5.70518,46.085064 -15.966541,10.583344 31.561011,24.77219 z" id="path862-9-6-6" inkscape:connector-curvature="0" sodipodi:nodetypes="ccccccc" />
    <path style="fill:#ffffff;fill-opacity:1;fill-rule:evenodd;stroke-width:0.264583" d="m 141.50308,66.447219 32.49061,6.942249 V 92.806073 L 141.50308,100.963 Z" id="rect916" inkscape:connector-curvature="0" sodipodi:nodetypes="ccccc" />
    <path style="fill:#ffffff;fill-opacity:1;fill-rule:evenodd;stroke-width:0.264583" d="M 79.796079,66.447219 47.305468,73.389468 V 92.806073 L 79.796079,100.963 Z" id="rect916-3" inkscape:connector-curvature="0" sodipodi:nodetypes="ccccc" />
    <path style="fill:#5b1900;fill-opacity:1;fill-rule:evenodd;stroke-width:0.264583" d="m 59.903794,70.697591 v 0 l -12.598326,2.691877 v 19.416605 l 18.862114,4.735426 v 0 z" id="rect916-3-4" inkscape:connector-curvature="0" sodipodi:nodetypes="ccccccc" />
    <path style="fill:#3c0300;fill-opacity:1;fill-rule:evenodd;stroke-width:0.264583" d="m 161.39537,70.697593 v 0 l 12.59833,2.69187 v 19.41661 l -18.86212,4.73542 v 0 z" id="rect916-3-4-5" inkscape:connector-curvature="0" sodipodi:nodetypes="ccccccc" />
    <path style="opacity:1;fill:#ff7d7d;fill-opacity:1;fill-rule:nonzero;stroke:none;stroke-width:5.465;stroke-linecap:square;stroke-linejoin:round;stroke-miterlimit:4;stroke-dasharray:none;stroke-dashoffset:217.89;stroke-opacity:0.992366;paint-order:stroke fill markers" inkscape:transform-center-x="8.0180867" inkscape:transform-center-y="8.1568585" d="m 110.64958,306.10064 -65.06503,27.77545 65.06503,61.49256 z" id="path1047" inkscape:connector-curvature="0" sodipodi:nodetypes="cccc" />
  </g>
</svg>
