<?xml version="1.0" encoding="UTF-8" standalone="no"?>
<!-- Created with Inkscape (http://www.inkscape.org/) -->

<svg width="146.45535mm" height="193.51984mm" viewBox="0 0 146.45535 193.51984" version="1.1" id="svg8" inkscape:version="1.3 (0e150ed6c4, 2023-07-21)" sodipodi:docname="гифт.svg" xmlns:inkscape="http://www.inkscape.org/namespaces/inkscape" xmlns:sodipodi="http://sodipodi.sourceforge.net/DTD/sodipodi-0.dtd" xmlns="http://www.w3.org/2000/svg" xmlns:svg="http://www.w3.org/2000/svg" xmlns:rdf="http://www.w3.org/1999/02/22-rdf-syntax-ns#" xmlns:cc="http://creativecommons.org/ns#" xmlns:dc="http://purl.org/dc/elements/1.1/">
  <defs id="defs2">
    <inkscape:path-effect effect="bend_path" id="path-effect991" is_visible="true" bendpath="m 159.88687,127.97236 c 0,0 5.02949,2.75126 7.78039,2.75187 2.9127,6.5e-4 8.2393,-2.91005 8.2393,-2.91005" prop_scale="1" scale_y_rel="false" vertical="false" bendpath-nodetypes="cac" lpeversion="0" hide_knot="false" />
    <inkscape:path-effect effect="bend_path" id="path-effect991-7" is_visible="true" bendpath="m 159.88687,127.97236 c 0,0 5.02949,2.75126 7.78039,2.75187 2.9127,6.5e-4 8.2393,-2.91005 8.2393,-2.91005" prop_scale="1" scale_y_rel="false" vertical="false" bendpath-nodetypes="cac" lpeversion="0" hide_knot="false" />
  </defs>
  <sodipodi:namedview id="base" pagecolor="#ffffff" bordercolor="#666666" borderopacity="1.0" inkscape:pageopacity="0.0" inkscape:pageshadow="2" inkscape:zoom="0.90509668" inkscape:cx="304.9398" inkscape:cy="366.81164" inkscape:document-units="mm" inkscape:current-layer="layer1" showgrid="false" inkscape:window-width="2467" inkscape:window-height="1413" inkscape:window-x="84" inkscape:window-y="-9" inkscape:window-maximized="1" inkscape:showpageshadow="2" inkscape:pagecheckerboard="0" inkscape:deskcolor="#d1d1d1" />
  <metadata id="metadata5">
    <rdf:RDF>
      <cc:Work rdf:about="">
        <dc:format>image/svg+xml</dc:format>
        <dc:type rdf:resource="http://purl.org/dc/dcmitype/StillImage" />
        <dc:title />
      </cc:Work>
    </rdf:RDF>
  </metadata>
  <g inkscape:label="Layer 1" inkscape:groupmode="layer" id="layer1" transform="translate(-32.74052,-71.616623)">
    <rect style="fill:#502d16;fill-rule:evenodd;stroke-width:0.264583" id="rect1085" width="146.45535" height="193.51984" x="32.74052" y="71.616623" inkscape:export-filename="D:\Спайд\Артеги\гхифхты кхе\рина.png" inkscape:export-xdpi="93" inkscape:export-ydpi="93" />
    <rect style="fill:#bd6a34;fill-opacity:1;fill-rule:evenodd;stroke-width:0.264583" id="rect1083" width="146.45535" height="19.001194" x="32.74052" y="246.13527" />
    <path style="opacity:1;fill:#aed7f1;fill-opacity:1;fill-rule:evenodd;stroke:#ffffff;stroke-width:1.4;stroke-linecap:square;stroke-linejoin:bevel;stroke-miterlimit:4;stroke-dasharray:none;stroke-dashoffset:0;stroke-opacity:1;paint-order:markers fill stroke" d="m 87.69782,100.59344 4.165637,17.0279 h 0.961184 c -3.913484,4.91177 -5.942555,10.73308 -7.724077,13.57695 -7.205062,1.26944 -12.647289,7.52704 -12.647289,15.10709 v 11.48767 c -0.435547,0.12038 -0.863516,0.29692 -1.273826,0.53382 l -6.598563,3.80958 c -2.590898,1.49586 -3.472479,4.78592 -1.976623,7.37681 l 0.291971,0.5054 c 1.316479,2.2802 4.022508,3.23537 6.418731,2.41226 l -2.16421,1.24953 c -0.499645,0.28847 -0.669843,0.92301 -0.381371,1.42265 l 2.627747,4.55115 c 0.28847,0.49964 0.923004,0.66984 1.422651,0.38137 l 1.633493,-0.94309 v 15.65537 c 0,4.57583 1.984769,8.66926 5.141288,11.4763 0.10515,0.35499 0.23437,0.6922 0.383439,1.01131 v 10.66601 l -20.951692,-0.85421 -22.850284,9.67383 9.86813,17.94723 46.950105,-11.82151 5.326806,-6.64093 v 17.03772 h -7.004225 c -1.813107,0 -3.272668,1.45956 -3.272668,3.27266 0,1.81311 1.459561,3.27319 3.272668,3.27319 h 8.046022 3.066996 2.23139 c 0.57695,0 1.04128,-0.46486 1.04128,-1.0418 v -2.23139 -29.51241 l 5.49321,-6.84867 h 0.29455 v 38.59247 c 0,0.57694 0.46434,1.0418 1.04129,1.0418 h 5.29838 8.04602 c 1.81311,0 3.27267,-1.46008 3.27267,-3.27319 0,-1.8131 -1.45956,-3.27266 -3.27267,-3.27266 h -7.00422 v -33.08842 h 6.12882 v 8.28993 c 0,2.99171 2.40848,5.40019 5.40018,5.40019 h 1.76992 c 2.99171,0 5.40018,-2.40848 5.40018,-5.40019 v -11.67267 c 0.054,-0.14101 0.10682,-0.28287 0.15296,-0.42995 3.23535,-2.80963 5.27772,-6.95355 5.27772,-11.59464 v -15.03474 l 2.37608,1.37201 c 0.49965,0.28847 1.13367,0.11827 1.42214,-0.38137 l 2.62774,-4.55115 c 0.28847,-0.49964 0.11879,-1.13418 -0.38085,-1.42265 l -0.63304,-0.36535 c 1.25557,-0.0855 2.48762,-0.60505 3.45147,-1.5689 l 0.41289,-0.41289 c 2.11546,-2.11546 2.11546,-5.52129 0,-7.63675 l -5.38778,-5.38778 c -0.6611,-0.66108 -1.44817,-1.11584 -2.28254,-1.36374 -0.52327,-0.15547 -1.06524,-0.22795 -1.6061,-0.22066 v -11.46855 c 0,-6.55913 -4.07564,-12.12783 -9.84126,-14.33246 -1.47967,-3.59694 -3.90815,-9.48598 -7.93492,-14.35158 h 0.46768 l 4.16563,-17.0279 -16.19333,9.38909 c -1.29606,-0.29717 -2.66882,-0.46148 -4.12378,-0.46767 -1.23435,0.0968 -2.39332,0.29038 -3.48609,0.56327 z m 2.849957,109.56179 h 5.77329 v 0.3855 l -5.77329,2.40451 z" id="path1080-9" inkscape:connector-curvature="0" />
    <path style="opacity:1;fill:#aed7f1;fill-opacity:1;fill-rule:evenodd;stroke:none;stroke-width:1.4;stroke-linecap:square;stroke-linejoin:bevel;stroke-miterlimit:4;stroke-dasharray:none;stroke-dashoffset:0;stroke-opacity:1;paint-order:markers fill stroke" inkscape:transform-center-x="1.234375e-06" inkscape:transform-center-y="5.2924813" d="m 115.19137,202.68147 -24.19722,30.16543 -46.94979,11.82141 -9.868434,-17.94707 22.850644,-9.67373 21.56231,0.87881 z" id="path1080" inkscape:connector-curvature="0" sodipodi:nodetypes="ccccccc" />
    <rect style="fill:#fff0b9;fill-opacity:1;fill-rule:evenodd;stroke-width:0.264583" id="rect1053-3" width="7.3812323" height="44.287395" x="-116.87165" y="205.50194" rx="1.0414106" ry="1.0414106" transform="scale(-1,1)" />
    <rect style="fill:#fff0b9;fill-opacity:1;fill-rule:evenodd;stroke-width:0.264583" id="rect1058-6" width="17.658262" height="6.5455174" x="-127.14869" y="243.24382" rx="3.2727587" ry="3.2727587" transform="scale(-1,1)" />
    <rect style="fill:#fff0b9;fill-opacity:1;fill-rule:evenodd;stroke-width:0.264583" id="rect1053" width="7.3812323" height="44.287395" x="96.321434" y="205.50194" rx="1.0414106" ry="1.0414106" />
    <path style="fill:#87aade;fill-rule:evenodd;stroke-width:0.264583" d="m 82.68542,132.87261 c 4.32919,1.49506 6.07983,-21.8848 24.85637,-23.35775 18.79501,0.08 23.9498,26.51122 25.37313,25.73486 l -8.9917,3.20394 H 91.00533 Z" id="rect942" inkscape:connector-curvature="0" sodipodi:nodetypes="cccccc" />
    <path style="fill:#80b3ff;fill-opacity:1;fill-rule:evenodd;stroke-width:0.264583" d="m 87.69782,100.59344 17.3934,10.08525 v 6.94274 H 91.86347 Z" id="rect947" inkscape:connector-curvature="0" sodipodi:nodetypes="ccccc" />
    <rect style="fill:#b3ff80;fill-opacity:1;fill-rule:evenodd;stroke-width:0.264583" id="rect906-2" width="12.57002" height="25.140039" x="123.0008" y="198.70535" rx="5.4001989" ry="5.4001989" />
    <rect style="fill:#b3ff80;fill-opacity:1;fill-rule:evenodd;stroke-width:0.264583" id="rect906" width="12.57002" height="25.140039" x="77.977974" y="198.70535" rx="5.4001989" ry="5.4001989" />
    <rect style="fill:#fff6d5;fill-rule:evenodd;stroke-width:0.264583" id="rect815" width="28.213762" height="30.694231" x="92.480385" y="114.18508" rx="15.347116" ry="15.347116" />
    <path style="fill:#666666;fill-opacity:1;fill-rule:evenodd;stroke-width:0.572692" d="m 161.23785,127.46711 1.95257,0.93939 c 1.57221,0.6459 3.05855,1.31088 4.47707,1.27632 l 0,0 c 1.52601,0.0321 3.11557,-0.67649 4.78745,-1.36458 0.64193,-0.27506 1.27709,-0.56948 1.9058,-0.88012 0.0646,-0.0319 0.13058,-0.0573 0.19719,-0.0764 0,0 0,0 0,0 0.29235,-0.0838 0.59775,-0.0462 0.84781,0.0922 0,0 0,0 0,0 0.16696,0.0924 0.3111,0.23179 0.40674,0.41085 0.0962,0.18017 0.1302,0.37575 0.10812,0.56898 0,0 0,0 0,0 -0.0329,0.28784 -0.19151,0.56483 -0.44807,0.75595 0,0 0,0 0,0 -0.0581,0.0433 -0.12127,0.0822 -0.18907,0.11568 -0.65976,0.32605 -1.32902,0.63618 -2.00807,0.92724 l 0,0 c -1.65339,0.73701 -3.51659,1.50171 -5.60836,1.53297 l 0,0 c -1.99774,-0.0353 -3.77122,-0.76285 -5.33848,-1.46398 l -1.98036,-0.95233 c -0.55918,-0.2689 -0.80779,-0.90364 -0.55743,-1.4232 0.25036,-0.51954 0.89576,-0.72426 1.44709,-0.45902 z" id="rect986" inkscape:path-effect="#path-effect991" inkscape:original-d="m 160.92828,127.80097 h 13.93686 c 0.57695,0 1.04142,0.46447 1.04142,1.04141 0,0.57695 -0.46447,1.04142 -1.04142,1.04142 h -13.93686 c -0.57694,0 -1.04141,-0.46447 -1.04141,-1.04142 0,-0.57694 0.46447,-1.04141 1.04141,-1.04141 z" inkscape:connector-curvature="0" transform="matrix(0.46199969,0,0,0.46199969,29.040944,70.471883)" />
    <rect style="fill:#b3ff80;fill-rule:evenodd;stroke-width:0.264583" id="rect817" width="68.548019" height="79.136475" x="72.453636" y="130.95853" rx="15.347102" ry="15.347104" />
    <rect style="fill:#f6ffd5;fill-rule:evenodd;stroke-width:0.264583" id="rect819" width="21.600748" height="10.800374" x="77.895134" y="136.07806" rx="5.400187" ry="5.400187" />
    <rect style="fill:#786721;fill-rule:evenodd;stroke-width:0.264583" id="rect819-7" width="21.600748" height="3.4922228" x="77.895134" y="139.73213" rx="1.7461114" ry="1.7461114" />
    <rect style="fill:#f6ffd5;fill-rule:evenodd;stroke-width:0.264583" id="rect819-6" width="21.600748" height="10.800374" x="114.33141" y="136.07806" rx="5.400187" ry="5.400187" inkscape:transform-center-x="13.008461" inkscape:transform-center-y="-2.9232605" />
    <rect style="fill:#786721;fill-rule:evenodd;stroke-width:0.264583" id="rect819-7-0" width="21.600748" height="3.4922228" x="114.33141" y="139.73213" rx="1.7461114" ry="1.7461114" inkscape:transform-center-x="13.008461" inkscape:transform-center-y="-2.9232681" />
    <rect style="fill:#72cb36;fill-opacity:1;fill-rule:evenodd;stroke-width:0.264583" id="rect854" width="2.5943935" height="4.1978173" x="164.15778" y="76.185951" rx="5.4001989" ry="4.1978173" transform="rotate(30)" />
    <rect style="fill:#72cb36;fill-opacity:1;fill-rule:evenodd;stroke-width:0.264583" id="rect854-6" width="2.9407628" height="4.758255" x="-21.481493" y="182.5887" rx="5.4001989" ry="4.1978173" transform="matrix(-0.8660254,0.5,0.5,0.8660254,0,0)" />
    <path style="fill:#ecffc5;fill-opacity:1;fill-rule:evenodd;stroke-width:0.264583" d="m 81.89437,160.79984 h 49.56316 c 2.5677,0 4.63484,2.79843 4.63484,6.2745 v 36.80624 c 0,3.47607 -2.06714,6.27449 -4.63484,6.27449 H 81.89437 c -2.5677,0 -4.63484,-2.79842 -4.63484,-6.27449 v -36.80624 c 0,-3.47607 2.06714,-6.2745 4.63484,-6.2745 z" id="rect886" inkscape:connector-curvature="0" />
    <rect style="fill:#5599ff;fill-rule:evenodd;stroke-width:0.264583" id="rect925" width="3.9532471" height="7.9064941" x="98.498405" y="120.6253" rx="1.9766235" ry="1.9766235" />
    <rect style="fill:#5599ff;fill-rule:evenodd;stroke-width:0.264583" id="rect925-2" width="3.9532471" height="7.9064941" x="110.56486" y="120.6253" rx="1.9766235" ry="1.9766235" />
    <path style="fill:#d7e3f4;fill-rule:evenodd;stroke-width:0.264583" d="m 89.17772,103.00513 15.035,11.31675 0.8785,3.29955 H 91.86347 Z" id="rect947-3" inkscape:connector-curvature="0" sodipodi:nodetypes="ccccc" />
    <path style="fill:#80b3ff;fill-opacity:1;fill-rule:evenodd;stroke-width:0.264583" d="m 127.85897,100.59344 -17.3934,10.08525 v 6.94274 h 13.22775 z" id="rect947-2" inkscape:connector-curvature="0" sodipodi:nodetypes="ccccc" />
    <path style="fill:#d7e3f4;fill-rule:evenodd;stroke-width:0.264583" d="m 126.37907,103.00513 -15.035,11.31675 -0.8785,3.29955 h 13.22775 z" id="rect947-3-5" inkscape:connector-curvature="0" sodipodi:nodetypes="ccccc" />
    <path style="opacity:1;fill:#87aade;fill-opacity:1;fill-rule:evenodd;stroke:none;stroke-width:1.4;stroke-linecap:square;stroke-linejoin:bevel;stroke-miterlimit:4;stroke-dasharray:none;stroke-dashoffset:0;stroke-opacity:1;paint-order:markers fill stroke" inkscape:transform-center-x="-3.1849752" inkscape:transform-center-y="1.9334164" d="m 92.807991,125.50518 0.632456,-6.1558 2.008837,-0.80575 -0.136631,-3.79804 1.663789,-0.0642 1.575114,-1.44806 5.661164,1.08854 3.48594,-0.80168 3.64541,0.80166 5.28825,-0.73408 -0.26065,1.58594 2.8179,0.3133 1.51216,5.65236 -3.35936,-2.66058 -1.35555,2.76384 -0.57191,-2.96217 z" id="path945" inkscape:connector-curvature="0" sodipodi:nodetypes="ccccccccccccccccc" />
    <rect style="fill:#fff0b9;fill-opacity:1;fill-rule:evenodd;stroke-width:0.264583" id="rect993" width="19.403837" height="7.3380585" x="-29.727617" y="183.98726" rx="1.0414106" ry="1.0414106" transform="rotate(-30)" />
    <path style="fill:#b3ff80;fill-opacity:1;fill-rule:evenodd;stroke-width:0.264583" d="m 73.737648,157.60026 c -0.87012,0.0235 -1.748327,0.25911 -2.557984,0.72657 l -6.598563,3.80958 c -2.590898,1.49586 -3.472479,4.78592 -1.976623,7.37681 l 0.291971,0.5054 c 1.495856,2.59089 4.785913,3.47248 7.376811,1.97662 l 6.598562,-3.80958 c 0.134186,-0.0775 0.262652,-0.16078 0.387575,-0.24753 v -5.89629 c 0,-0.97704 0.223914,-1.88933 0.610299,-2.67839 -1.06966,-1.17831 -2.587882,-1.8049 -4.132048,-1.76319 z" id="rect889" inkscape:connector-curvature="0" />
    <rect style="fill:#fff0b9;fill-opacity:1;fill-rule:evenodd;stroke-width:0.264583" id="rect1013" width="14.676106" height="7.3380532" x="138.17729" y="120.54453" rx="1.0414106" ry="1.0414106" transform="rotate(22.405409)" />
    <rect style="fill:#fff0b9;fill-opacity:1;fill-rule:evenodd;stroke-width:0.264583" id="rect1015" width="2.868042" height="6.2528481" x="-12.063513" y="180.47438" rx="1.0414106" ry="1.0414106" transform="rotate(-30)" />
    <rect style="fill:#fff0b9;fill-opacity:1;fill-rule:evenodd;stroke-width:0.264583" id="rect993-3" width="19.403839" height="7.3380585" x="-215.75249" y="77.797394" rx="1.0414106" ry="1.0414106" transform="matrix(-0.8660254,-0.5,-0.5,0.8660254,0,0)" />
    <path inkscape:connector-curvature="0" style="fill:#b3ff80;fill-opacity:1;fill-rule:evenodd;stroke-width:0.264583" d="m 142.60763,157.99452 c 0.83438,0.2479 1.62168,0.70278 2.28277,1.36386 l 5.38772,5.38762 c 2.11546,2.11546 2.11547,5.52157 1e-5,7.63703 l -0.41283,0.41262 c -2.11545,2.11545 -5.52158,2.11547 -7.63704,1e-5 l -5.38772,-5.38762 c -0.10956,-0.10959 -0.21209,-0.22328 -0.3103,-0.33941 l 1.52607,-5.69536 c 0.25288,-0.94375 0.2727,-1.88291 0.10371,-2.74509 1.33818,-0.86131 2.96685,-1.07361 4.44761,-0.63366 z" id="rect889-7" />
    <rect style="fill:#fff0b9;fill-opacity:1;fill-rule:evenodd;stroke-width:0.264583" id="rect1013-4" width="14.676106" height="7.3380532" x="-59.450203" y="203.1575" rx="1.0414106" ry="1.0414106" transform="matrix(-0.92451005,0.38115767,0.38115767,0.92451005,0,0)" />
    <rect style="fill:#fff0b9;fill-opacity:1;fill-rule:evenodd;stroke-width:0.264583" id="rect1015-3" width="2.868042" height="6.2528481" x="-198.08835" y="74.284515" rx="1.0414106" ry="1.0414106" transform="matrix(-0.8660254,-0.5,-0.5,0.8660254,0,0)" />
    <rect style="fill:#fff0b9;fill-opacity:1;fill-rule:evenodd;stroke-width:0.264583" id="rect1058" width="17.658262" height="6.5455174" x="86.044395" y="243.24382" rx="3.2727587" ry="3.2727587" />
    <path style="fill:#00aa00;fill-rule:evenodd;stroke-width:0.264583" d="M 32.74052,71.616623 H 179.19588 L 171.01931,108.54263 164.7469,81.12599 158.4194,104.17083 140.74826,86.405777 118.5678,77.125134 105.7235,81.868544 73.672132,76.315743 59.369581,104.26379 53.103006,78.647199 44.141236,120.43507 32.74052,90.325484 Z" id="rect963" inkscape:connector-curvature="0" sodipodi:nodetypes="cccccccccccccc" />
    <path style="fill:#008600;fill-opacity:1;fill-rule:evenodd;stroke-width:0.264583" d="M 32.740522,71.616623 H 179.19588 v 45.785317 l -3.80157,-35.450278 -4.375,11.893969 L 164.7469,77.341146 158.4194,91.21386 154.87317,74.445973 132.10385,98.598714 129.6895,79.589338 118.5678,74.932679 112.54479,100.62914 108.16827,81.141807 105.77681,104.42753 99.222187,76.912912 85.867773,94.08248 82.886733,77.186626 78.270672,102.43162 73.897943,83.679248 59.273669,76.381494 50.687942,104.70569 49.175599,76.159003 36.699832,116.81773 32.740522,82.87913 Z" id="rect963-0" inkscape:connector-curvature="0" sodipodi:nodetypes="ccccccccccccccccccccccccc" />
  </g>
</svg>
