<?xml version="1.0" encoding="UTF-8" standalone="no"?>
<!-- Created with Inkscape (http://www.inkscape.org/) -->

<svg width="186.29022mm" height="343.49426mm" viewBox="0 0 186.29022 343.49426" version="1.1" id="svg8" inkscape:version="1.3 (0e150ed6c4, 2023-07-21)" sodipodi:docname="рина арина.svg" xmlns:inkscape="http://www.inkscape.org/namespaces/inkscape" xmlns:sodipodi="http://sodipodi.sourceforge.net/DTD/sodipodi-0.dtd" xmlns="http://www.w3.org/2000/svg" xmlns:svg="http://www.w3.org/2000/svg" xmlns:rdf="http://www.w3.org/1999/02/22-rdf-syntax-ns#" xmlns:cc="http://creativecommons.org/ns#" xmlns:dc="http://purl.org/dc/elements/1.1/">
  <defs id="defs2" />
  <sodipodi:namedview id="base" pagecolor="#ffffff" bordercolor="#666666" borderopacity="1.0" inkscape:pageopacity="0.0" inkscape:pageshadow="2" inkscape:zoom="0.24748738" inkscape:cx="905.09667" inkscape:cy="921.25911" inkscape:document-units="mm" inkscape:current-layer="layer1" showgrid="false" inkscape:window-width="2467" inkscape:window-height="1413" inkscape:window-x="84" inkscape:window-y="-9" inkscape:window-maximized="1" showguides="false" inkscape:showpageshadow="2" inkscape:pagecheckerboard="0" inkscape:deskcolor="#d1d1d1" />
  <metadata id="metadata5">
    <rdf:RDF>
      <cc:Work rdf:about="">
        <dc:format>image/svg+xml</dc:format>
        <dc:type rdf:resource="http://purl.org/dc/dcmitype/StillImage" />
        <dc:title />
      </cc:Work>
    </rdf:RDF>
  </metadata>
  <g inkscape:label="Layer 1" inkscape:groupmode="layer" id="layer1" transform="translate(20.794619,-37.206284)">
    <rect style="fill:#004b55;fill-opacity:1;fill-rule:evenodd;stroke-width:0.264583" id="rect1211" width="186.29022" height="343.49426" x="-20.794619" y="37.206284" inkscape:export-xdpi="77.495331" inkscape:export-ydpi="77.495331" />
    <rect style="fill:#216a4a;fill-opacity:1;fill-rule:evenodd;stroke-width:0.264583" id="rect1211-9" width="155.31229" height="286.37506" x="-5.3056483" y="65.765869" />
    <path style="fill:#00554e;fill-opacity:1;fill-rule:evenodd;stroke-width:0.264583" d="M -54.147897,-8.3306859 5.4067168,-3.2550042 155.31662,446.66712 20.515704,406.82457 -117.42469,19.416342 Z" id="rect818-2" inkscape:connector-curvature="0" sodipodi:nodetypes="cccccc" />
    <ellipse style="fill:#000359;fill-opacity:0.207469;fill-rule:evenodd;stroke-width:0.264583" id="path1306" cx="76.729172" cy="374.10715" rx="45.357143" ry="22.678572" />
    <g id="g1209" transform="matrix(0.96067976,0,0,0.96067976,386.52273,4.8363297)" style="stroke-width:1.04093">
      <path sodipodi:nodetypes="ccccc" inkscape:connector-curvature="0" id="rect1169" d="m 24.630565,386.36733 26.615333,-6.21155 0.748523,6.55603 -21.373675,7.01528 z" style="fill:#f9eed9;fill-opacity:1;fill-rule:evenodd;stroke-width:0.275413" />
      <path sodipodi:nodetypes="ccccccc" inkscape:connector-curvature="0" id="rect1151" d="M 37.079056,308.03075 H 56.733819 L 29.708521,343.7495 70.284477,383.96988 36.599454,382.47412 6.2739962,345.73388 Z" style="fill:#6b6b84;fill-opacity:1;fill-rule:evenodd;stroke-width:0.275413" />
      <path sodipodi:nodetypes="ccccc" inkscape:connector-curvature="0" id="rect1059" d="m 8.1638779,254.16917 16.4419641,1.88988 -7.9375,42.33333 H 5.3290566 Z" style="fill:#ffbe00;fill-opacity:1;fill-rule:evenodd;stroke-width:0.275413" />
      <path sodipodi:nodetypes="ccccc" inkscape:connector-curvature="0" id="rect1033-9" d="m -14.396253,198.44888 9.1525045,22.42089 v 0 L 6.3254979,210.63209 Z" style="fill:#6b6bff;fill-opacity:1;fill-rule:evenodd;stroke-width:0.275413" />
      <path sodipodi:nodetypes="cccccccc" inkscape:connector-curvature="0" id="rect1027" d="M -10.021574,214.05607 6.4155013,200.6926 21.230923,206.62825 43.723,234.47772 l -14.990493,15.52611 -29.9127468,4.09165 -20.8684632,-8.9025 z" style="fill:#a8a8ff;fill-opacity:1;fill-rule:evenodd;stroke-width:0.275413" />
      <path sodipodi:nodetypes="ccccc" inkscape:connector-curvature="0" id="rect1033" d="m 21.884708,193.4548 -4.543582,23.78698 v 0 L 3.9776497,209.49097 Z" style="fill:#6b6bff;fill-opacity:1;fill-rule:evenodd;stroke-width:0.275413" />
      <path sodipodi:nodetypes="ccccc" inkscape:connector-curvature="0" id="rect1169-2" d="m 44.9957,392.11497 21.776361,-15.85019 3.91332,7.83873 -17.642987,13.04127 z" style="fill:#f9eed9;fill-opacity:1;fill-rule:evenodd;stroke-width:0.275413" />
      <path sodipodi:nodetypes="ccccccc" inkscape:connector-curvature="0" id="rect1151-9" d="M 46.313666,306.52297 H 65.96843 l -10.96131,41.2939 29.142177,36.91309 -32.154876,1.98185 -12.767808,-38.80044 z" style="fill:#72728d;fill-opacity:1;fill-rule:evenodd;stroke-width:0.275413" />
      <path sodipodi:nodetypes="cccccccc" inkscape:connector-curvature="0" id="rect1056" d="m 8.1638779,254.16917 11.6757891,-12.77927 17.806355,-2.52877 14.339438,32.12294 17.95172,40.2636 -35.969712,-1.40952 -5.051356,-26.75581 z" style="fill:#ffcd4d;fill-opacity:1;fill-rule:evenodd;stroke-width:0.275413" />
      <rect transform="rotate(-39.010324)" y="188.09468" x="-141.32854" height="14.713069" width="9.5798168" id="rect1051" style="fill:#e6dab7;fill-opacity:1;fill-rule:evenodd;stroke-width:0.275413" />
      <path sodipodi:nodetypes="cccccc" inkscape:connector-curvature="0" id="rect1024" d="M -5.4457472,217.0082 16.267796,210.35653 22.01852,234.22277 10.278771,245.79029 0.0377065,239.13717 Z" style="fill:#f9eed9;fill-opacity:1;fill-rule:evenodd;stroke-width:0.275413" />
      <path sodipodi:nodetypes="ccccc" inkscape:connector-curvature="0" id="rect1030" d="M -10.021574,214.05607 6.4155013,200.6926 16.267796,210.35653 -5.3443595,230.49316 Z" style="fill:#bbbbff;fill-opacity:1;fill-rule:evenodd;stroke-width:0.275413" />
      <path sodipodi:nodetypes="ccccccc" inkscape:connector-curvature="0" id="rect1053" d="m 14.211497,247.17661 -0.288259,-3.08932 9.574289,-6.73845 3.943137,1.13432 0.850446,3.96874 -9.97607,5.65619 z" style="fill:#ffdd55;fill-rule:evenodd;stroke-width:0.275413" />
      <rect transform="rotate(-21.624777)" y="227.10231" x="-105.6977" height="18.048363" width="7.1815472" id="rect1083" style="fill:#f4dcbb;fill-opacity:1;fill-rule:evenodd;stroke-width:0.275413" />
      <path sodipodi:nodetypes="ccccc" inkscape:connector-curvature="0" id="rect1059-1" d="m -15.797271,259.43848 14.9275652,-7.14686 15.8002458,40.06827 -9.6014834,6.03249 z" style="fill:#ffbe00;fill-opacity:1;fill-rule:evenodd;stroke-width:0.275413" />
      <path sodipodi:nodetypes="ccccc" inkscape:connector-curvature="0" id="rect1077" d="m -12.917162,244.80138 5.0280916,2.62266 -1.9377046,10.62396 -16.570709,-1.26953 z" style="fill:#f9eed9;fill-opacity:1;fill-rule:evenodd;stroke-width:0.275413" />
      <path sodipodi:nodetypes="ccccc" inkscape:connector-curvature="0" id="rect1080" d="m -26.397483,256.77848 16.570708,1.26952 -2.204972,5.94677 -8.285354,0.66817 z" style="fill:#f6e3c8;fill-opacity:1;fill-rule:evenodd;stroke-width:0.275413" />
      <path sodipodi:nodetypes="ccccc" inkscape:connector-curvature="0" id="rect1059-0-2" d="M 31.538837,250.73882 37.646022,238.86113 60.659169,273.43331 48.9933,283.45892 Z" style="fill:#ffdd55;fill-opacity:1;fill-rule:evenodd;stroke-width:0.275413" />
      <rect transform="rotate(-55.684507)" y="147.8907" x="-207.83794" height="18.048363" width="7.1815476" id="rect1083-1-0" style="fill:#f4dcbb;fill-opacity:1;fill-rule:evenodd;stroke-width:0.275413" />
      <path sodipodi:nodetypes="ccccc" inkscape:connector-curvature="0" id="rect1059-1-8-7" d="M 9.6747056,263.01934 18.038861,248.73821 53.569151,273.0839 48.9933,283.45892 Z" style="fill:#ffdd55;fill-opacity:1;fill-rule:evenodd;stroke-width:0.275413" />
      <path sodipodi:nodetypes="ccccc" inkscape:connector-curvature="0" id="rect1077-2" d="m 3.5089035,249.871 5.5208922,-0.76639 4.3447213,9.88669 -12.7854356,4.77976 z" style="fill:#f9eed9;fill-opacity:1;fill-rule:evenodd;stroke-width:0.275413" />
      <path sodipodi:nodetypes="ccccc" inkscape:connector-curvature="0" id="rect1080-1" d="m 0.5890814,263.77106 12.7854356,-4.77976 0.653366,5.64182 -7.7654935,1.27231 z" style="fill:#f6e3c8;fill-opacity:1;fill-rule:evenodd;stroke-width:0.275413" />
    </g>
    <rect style="fill:#d8c690;fill-opacity:1;fill-rule:evenodd;stroke-width:0.264583" id="rect821-4" width="16.915142" height="17.12697" x="67.535545" y="345.81729" />
    <rect style="fill:#d8c690;fill-opacity:1;fill-rule:evenodd;stroke-width:0.264583" id="rect821-4-1" width="9.2138777" height="17.12697" x="-85.96331" y="345.81729" transform="scale(-1,1)" />
    <path style="fill:#031500;fill-opacity:1;fill-rule:evenodd;stroke-width:0.264583" d="m 63.551858,180.92387 25.544073,3.22714 16.163499,98.34489 -16.473608,5.91306 -10.1998,-34.87327 -8.234531,34.4977 -22.582437,-6.20255 z" id="rect900" inkscape:connector-curvature="0" sodipodi:nodetypes="cccccccc" />
    <path style="fill:#162600;fill-opacity:1;fill-rule:evenodd;stroke-width:0.264583" d="m 91.708409,209.6687 -14.525405,0.4336 -2.601569,140.91813 26.882835,5.63672 z" id="rect903-1" inkscape:connector-curvature="0" sodipodi:nodetypes="ccccc" />
    <path style="fill:#031e00;fill-opacity:1;fill-rule:evenodd;stroke-width:0.264583" d="m 104.725,98.941009 -4.909157,-18.06569 -4.223846,11.0748 -12.066174,9.070521 5.960152,4.81952 z" id="rect826-9" inkscape:connector-curvature="0" sodipodi:nodetypes="cccccc" />
    <path style="fill:#031e00;fill-opacity:1;fill-rule:evenodd;stroke-width:0.264583" d="m 68.176951,86.748649 16.889778,-8.07494 -5.63185,10.42947 1.006048,15.061701 -7.54178,-1.36858 z" id="rect826" inkscape:connector-curvature="0" sodipodi:nodetypes="cccccc" />
    <path style="fill:#88ff9c;fill-opacity:1;fill-rule:evenodd;stroke-width:0.264583" d="M 74.8983,90.827869 93.976445,92.453849 141.99966,236.58509 98.816567,223.82165 54.627765,99.716549 Z" id="rect818" inkscape:connector-curvature="0" sodipodi:nodetypes="cccccc" />
    <rect style="fill:#d8c690;fill-opacity:1;fill-rule:evenodd;stroke-width:0.264583" id="rect821" width="9.2138777" height="17.12697" x="72.081314" y="117.4394" />
    <path style="fill:#162600;fill-opacity:1;fill-rule:evenodd;stroke-width:0.264583" d="m 65.792821,208.76548 14.525393,0.4336 2.601569,140.91813 -26.882839,5.63673 z" id="rect903" inkscape:connector-curvature="0" sodipodi:nodetypes="ccccc" />
    <path style="fill:#2e402c;fill-opacity:1;fill-rule:evenodd;stroke-width:0.264583" d="m 67.751666,137.08209 h 19.315638 l 4.812661,-0.91021 -2.784034,47.97913 4.179962,34.33271 -34.798796,-0.1533 5.074761,-37.40655 -2.403342,-45.41705 z" id="rect879" inkscape:connector-curvature="0" sodipodi:nodetypes="ccccccccc" />
    <path style="fill:#042a00;fill-opacity:1;fill-rule:evenodd;stroke-width:0.264583" d="m 61.148516,135.50682 19.16971,2.60157 -6.395517,92.66202 -26.153644,51.06043 15.782793,-100.90697 z" id="rect882" inkscape:connector-curvature="0" sodipodi:nodetypes="cccccc" />
    <path style="fill:#042a00;fill-opacity:1;fill-rule:evenodd;stroke-width:0.264583" d="m 91.879965,136.17188 -12.784197,2.17493 9.115483,92.65506 17.048179,51.49403 -15.782796,-100.90697 z" id="rect882-2" inkscape:connector-curvature="0" sodipodi:nodetypes="cccccc" />
    <path style="fill:#031e00;fill-opacity:1;fill-rule:evenodd;stroke-width:0.264583" d="m 85.534314,123.20856 -8.124829,11.42076 1.992881,5.7487 7.664938,-3.29593 z" id="rect859-3" inkscape:connector-curvature="0" sodipodi:nodetypes="ccccc" />
    <path style="fill:#ebdebc;fill-opacity:1;fill-rule:evenodd;stroke-width:0.264583" d="m 78.470401,98.877579 18.703463,5.625541 -5.798793,21.6514 -11.387728,4.60863 -9.315201,-11.37257 z" id="rect815" inkscape:connector-curvature="0" sodipodi:nodetypes="cccccc" />
    <path style="fill:#54ff70;fill-opacity:1;fill-rule:evenodd;stroke-width:0.264583" d="m 74.8983,90.827869 19.078145,1.62598 3.197419,12.049271 v 0 l -32.031441,8.65484 z" id="rect823" inkscape:connector-curvature="0" sodipodi:nodetypes="cccccc" />
    <path style="fill:#031e00;fill-opacity:1;fill-rule:evenodd;stroke-width:0.264583" d="m 69.284656,123.20856 15.176571,15.55983 -1.992881,5.74869 -14.71668,-7.43499 z" id="rect859" inkscape:connector-curvature="0" sodipodi:nodetypes="ccccc" />
    <path style="fill:#031500;fill-opacity:1;fill-rule:evenodd;stroke-width:0.264583" d="m 56.744229,370.32465 16.201581,-13.59962 3.803607,6.21927 0.5493,10.18867 -20.554488,5.31386 z" id="rect954" inkscape:connector-curvature="0" sodipodi:nodetypes="cccccc" />
    <path style="fill:#031500;fill-opacity:1;fill-rule:evenodd;stroke-width:0.264583" d="m 96.754605,370.32465 -16.20157,-13.59962 -3.803618,6.21927 -0.549311,10.18867 20.554499,5.31386 z" id="rect954-7" inkscape:connector-curvature="0" sodipodi:nodetypes="cccccc" />
    <path style="fill:#042a00;fill-opacity:1;fill-rule:evenodd;stroke-width:0.264583" d="m 48.015461,187.95296 19.329106,10.54185 -7.405282,43.65743 -36.205106,-45.52739 37.414337,-61.11803 6.812275,19.2762 z" id="rect987" inkscape:connector-curvature="0" sodipodi:nodetypes="ccccccc" />
    <path style="fill:#042a00;fill-opacity:1;fill-rule:evenodd;stroke-width:0.264583" d="m 100.46029,192.30357 -10.657224,6.6395 7.40527,43.65743 18.210964,-50.08013 -23.539335,-56.34849 -6.812264,19.27619 z" id="rect987-1" inkscape:connector-curvature="0" sodipodi:nodetypes="ccccccc" />
    <rect style="fill:#0a4600;fill-opacity:1;fill-rule:evenodd;stroke-width:0.264583" id="rect1022" width="4.8199406" height="4.8199406" x="156.37283" y="43.185226" transform="rotate(45)" />
    <path style="fill:#00554e;fill-opacity:1;fill-rule:evenodd;stroke-width:0.264583" d="m 99.777704,-160.35181 59.554606,5.07568 L 309.24223,294.646 174.4413,254.80347 36.500909,-132.60479 Z" id="rect818-2-5" inkscape:connector-curvature="0" sodipodi:nodetypes="cccccc" />
  </g>
</svg>
