<?xml version="1.0" encoding="UTF-8" standalone="no"?>
<!-- Created with Inkscape (http://www.inkscape.org/) -->

<svg
   width="308.92331mm"
   height="510.96179mm"
   viewBox="0 0 308.92331 510.96179"
   version="1.1"
   id="svg5"
   inkscape:version="1.1 (c68e22c387, 2021-05-23)"
   sodipodi:docname="гэфт.svg"
   xmlns:inkscape="http://www.inkscape.org/namespaces/inkscape"
   xmlns:sodipodi="http://sodipodi.sourceforge.net/DTD/sodipodi-0.dtd"
   xmlns="http://www.w3.org/2000/svg"
   xmlns:svg="http://www.w3.org/2000/svg">
  <sodipodi:namedview
     id="namedview7"
     pagecolor="#505050"
     bordercolor="#ffffff"
     borderopacity="1"
     inkscape:pageshadow="0"
     inkscape:pageopacity="0"
     inkscape:pagecheckerboard="1"
     inkscape:document-units="mm"
     showgrid="false"
     inkscape:zoom="0.47433592"
     inkscape:cx="674.07648"
     inkscape:cy="1003.8302"
     inkscape:window-width="2004"
     inkscape:window-height="1406"
     inkscape:window-x="-11"
     inkscape:window-y="-11"
     inkscape:window-maximized="1"
     inkscape:current-layer="layer1"
     inkscape:rotation="-1" />
  <defs
     id="defs2" />
  <g
     inkscape:label="Слой 1"
     inkscape:groupmode="layer"
     id="layer1"
     transform="translate(51.552601,24.471212)">
    <rect
       style="fill:#ffffff;fill-opacity:1;stroke-width:6.48432"
       id="rect52514"
       width="308.92331"
       height="510.96179"
       x="-51.552601"
       y="-24.471212"
       inkscape:export-filename="C:\Users\User_hw\3D Objects\le gifte de yuntherione.png"
       inkscape:export-xdpi="101.80644"
       inkscape:export-ydpi="101.80644" />
    <rect
       style="fill:#ffa6a6;fill-opacity:1;stroke-width:5.75116"
       id="rect52514-8"
       width="243.01482"
       height="510.96179"
       x="-18.598356"
       y="-24.471212" />
    <path
       id="path51583-6"
       style="fill:#fdcbc1;fill-opacity:1;stroke-width:6.414"
       inkscape:transform-center-x="1.5431607"
       inkscape:transform-center-y="-1.7056441"
       d="m 143.29191,20.141633 -5.78464,5.847188 -7.31273,-0.674894 3.77341,7.30808 -2.90163,6.746359 8.1163,-1.33015 5.51955,4.844147 1.24333,-8.130251 6.3128,-3.752226 -7.34838,-3.694866 z m -72.376448,6.488493 -40.26834,7.4135 4.1987,3.679878 -6.071447,0.906407 -2.431891,3.82302 -1.72548,0.612368 -5.40639,10.599351 -1.121384,1.762683 0.220663,0.0026 -8.4310006,16.529225 -0.665612,22.179523 9.1203716,-2.179712 0.336418,2.876828 -1.094502,2.383832 1.409727,0.309542 5.008483,42.792739 5.758815,-1.91358 -32.8103966,21.17958 -6.6791681,-32.26469 -11.7987763,36.12028 21.0757294,5.3454 40.4001016,-32.18046 5.652373,3.30212 -16.810858,12.82092 23.354638,6.8833 -40.251273,59.14058 16.386069,13.15423 -23.2662676,59.91469 -27.7771214,6.58979 33.360226,21.16201 8.36848,-24.63313 24.192865,-51.08938 3.796136,3.04736 -18.730648,73.19966 24.716845,13.71751 1.852084,27.21229 -8.812371,2.16163 0.48006,49.94579 9.350851,49.99591 32.142751,8.25685 -14.884377,-98.0586 6.807332,-5.15059 1.119849,-28.60808 17.125556,-3.37808 2.114598,31.0658 -8.812368,2.16162 0.48005,49.94579 9.350848,49.99591 32.14275,8.25688 -14.88437,-98.05863 6.80683,-5.15059 1.71929,-43.92135 26.30638,-5.18883 -27.67013,-79.21273 2.04949,-1.64538 24.19282,51.08887 8.3685,24.63364 33.36023,-21.16202 -27.77712,-6.59029 -23.26627,-59.91417 16.38607,-13.15424 -41.8605,-61.50477 3.96203,-7.38663 -1.83398,-1.78594 5.41051,-11.97136 -14.79806,-4.88652 0.51263,-5.17901 -6.98511,0.92759 8.58605,-4.03696 59.83975,36.57244 20.25251,-7.91218 -16.17679,-34.38239 -2.63601,32.84295 -58.73904,-28.31507 28.19104,-13.25449 -7.81606,-40.468321 4.49326,-21.735624 -16.0047,-6.762377 1.68775,-5.142838 -19.24327,-2.961577 2.38744,-3.765661 -33.110615,-1.42627 -0.133853,-0.180351 -0.09972,0.170016 z m 80.185808,10.635527 -0.74413,15.818671 -11.33266,8.455816 14.8146,5.59604 4.53978,13.390914 9.89965,-12.35997 14.1392,-0.179832 -8.69662,-13.234853 4.1987,-13.502018 -15.27453,4.180623 z M 43.12646,134.0706 l 6.011518,0.009 0.240824,0.65319 -8.500269,1.12861 z" />
    <rect
       style="fill:#ff8585;fill-opacity:1;stroke-width:1.36022"
       id="rect52514-8-6"
       width="243.01482"
       height="28.582249"
       x="-18.598356"
       y="-24.471212" />
    <rect
       style="fill:#ff8585;fill-opacity:1;stroke-width:1.36022"
       id="rect52514-8-6-1"
       width="243.01482"
       height="28.582249"
       x="-18.598364"
       y="457.90833" />
    <path
       id="path51583"
       style="fill:#1a0c00;fill-opacity:1;stroke-width:6.414"
       inkscape:transform-center-x="1.5431607"
       inkscape:transform-center-y="-1.7056441"
       d="M 16.911279,168.7889 -4.1647243,163.44323 7.6339605,127.32325 14.313259,159.58794 88.938951,111.41541 Z"
       sodipodi:nodetypes="cccccc" />
    <path
       id="path51583-8"
       style="fill:#1a0c00;fill-opacity:1;stroke-width:6.414"
       inkscape:transform-center-x="-0.9895957"
       inkscape:transform-center-y="-0.5796941"
       d="m 189.18509,160.09428 20.25271,-7.91214 -16.17681,-34.38274 -2.63619,32.84317 -80.01227,-38.5697 z"
       sodipodi:nodetypes="cccccc" />
    <path
       id="path27404"
       style="fill:#5c0d06;fill-opacity:1;stroke-width:28.7703"
       inkscape:transform-center-x="11.68882"
       inkscape:transform-center-y="2.623907"
       d="m 124.36521,175.7837 -78.212352,-23.05259 16.810822,-12.82068 -6.520535,-3.80957 71.301545,-9.46963 -0.51289,5.17914 14.79836,4.88616 z"
       sodipodi:nodetypes="cccccccc" />
    <path
       id="rect28618-6"
       style="fill:#fafaf8;stroke-width:6.414"
       d="m 136.03304,170.86865 -17.23231,6.40566 26.06621,66.7032 24.41353,51.55516 18.76793,3.3891 -4.81643,-6.50779 z"
       sodipodi:nodetypes="ccccccc" />
    <path
       id="rect45876"
       style="fill:#a8a8a8;fill-opacity:1;stroke-width:6.414"
       d="m 85.061173,133.96453 35.634307,-0.80648 17.75825,17.2961 -8.83766,16.47622 -46.488937,-0.36914 -15.313367,-14.49836 z"
       sodipodi:nodetypes="ccccccc" />
    <path
       id="path28186-8"
       style="fill:#7c1408;fill-opacity:1;stroke-width:6.414"
       inkscape:transform-center-x="-9.4825559"
       inkscape:transform-center-y="-8.2080294"
       d="m 123.52301,141.72477 4.54071,116.38526 48.28809,-38.76487 z"
       sodipodi:nodetypes="cccc" />
    <path
       id="path30710-6"
       style="fill:#fafaf8;stroke-width:6.414"
       inkscape:transform-center-x="-1.463368"
       inkscape:transform-center-y="2.4158205"
       d="m 169.28047,295.53265 8.36866,24.63348 33.35994,-21.16196 -27.7771,-6.59019 z"
       sodipodi:nodetypes="ccccc" />
    <path
       id="rect28618"
       style="fill:#fafaf8;stroke-width:6.414"
       transform="rotate(23.115689)"
       d="m 130.8385,129.29323 18.36359,-0.87384 2.21348,71.58117 -2.21348,57.00049 -15.9306,10.48509 1.87485,-7.87619 z"
       sodipodi:nodetypes="ccccccc" />
    <path
       id="rect16418"
       style="fill:#631502;fill-opacity:1;stroke-width:5.402"
       d="m 74.36995,207.61158 61.28586,17.34397 35.05263,100.34602 -85.397696,16.8455 -39.725102,-22.04662 z"
       sodipodi:nodetypes="cccccc" />
    <path
       id="rect36668"
       style="fill:#fbfbfb;fill-opacity:1;stroke-width:6.414"
       d="m 63.342168,363.19189 27.989291,-6.86508 -1.113714,15.59618 15.098395,99.46741 -32.142946,-8.25679 -9.35086,-49.996 z"
       sodipodi:nodetypes="ccccccc" />
    <path
       id="rect32753"
       style="fill:#f4f4ef;stroke-width:6.414"
       d="m 66.808868,282.49753 33.782002,0.0562 -3.35212,85.62729 -10.783698,8.15917 -14.062268,-11.81314 z"
       sodipodi:nodetypes="cccccc" />
    <path
       id="rect36668-9"
       style="fill:#fbfbfb;fill-opacity:1;stroke-width:6.414"
       d="m 108.78636,369.42252 27.98929,-6.86508 -1.11372,15.59618 15.0984,99.46741 -32.14295,-8.25679 -9.35086,-49.996 z"
       sodipodi:nodetypes="ccccccc" />
    <path
       id="rect32753-6"
       style="fill:#f4f4ef;stroke-width:6.414"
       d="m 112.25306,288.72816 33.782,0.0562 -3.35212,85.62729 -10.7837,8.15917 -14.06227,-11.81314 z"
       sodipodi:nodetypes="cccccc" />
    <path
       style="color:#000000;fill:#7c1408;fill-opacity:1;stroke-width:5.402;-inkscape-stroke:none"
       d="m 123.72214,141.13467 -11.5189,-4.59259 -25.201625,167.52704 30.957015,-5.91421 52.74981,27.14666 -35.05263,-100.34602 z"
       id="rect15668-5"
       sodipodi:nodetypes="ccccccc" />
    <path
       id="path28186"
       style="fill:#7c1408;fill-opacity:1;stroke-width:24.2419"
       inkscape:transform-center-x="9.4825559"
       inkscape:transform-center-y="-8.2080294"
       transform="scale(0.26458333)"
       d="M 310.24229,533.42238 293.08057,973.30368 110.57438,826.79078 Z"
       sodipodi:nodetypes="cccc" />
    <path
       style="color:#000000;fill:#8d0505;fill-opacity:1;stroke-width:5.402;-inkscape-stroke:none"
       d="m 82.084939,141.13467 10.014724,-4.34308 20.103577,-0.24951 11.5189,4.59259 L 87.001615,304.06912 45.585642,320.10045 74.36995,207.61158 Z"
       id="rect15668"
       sodipodi:nodetypes="cccccccc" />
    <path
       id="rect2584"
       style="fill:#c4c0b7;stroke-width:6.20421"
       d="m 27.249911,71.959109 14.738108,-28.894145 46.298397,-16.435175 54.150794,8.334093 -1.68773,5.142873 16.00453,6.762538 -4.49286,21.735239 7.81611,40.468638 -53.31478,25.0665 -46.584984,-0.0699 -18.812437,6.25182 -5.660486,-48.362598 -9.120082,2.179518 z"
       sodipodi:nodetypes="cccccccccccccc" />
    <path
       id="rect5427-0"
       style="fill:#d0cdc6;stroke-width:6.414"
       d="m 73.249019,34.583645 -27.103643,4.04635 -10.684886,16.796971 5.784659,0.06971 -10.733766,15.595414 1.573205,17.738383 8.192539,-3.218834 -5.330677,11.60793 20.612204,4.521591 z"
       sodipodi:nodetypes="cccccccccc" />
    <path
       id="rect5427-0-6"
       style="fill:#d0cdc6;stroke-width:6.414"
       d="m 58.467922,65.115896 -18.190795,20.49574 2.583738,19.739034 4.481316,-3.65855 1.775213,18.84885 12.589275,12.59506 4.217806,-7.72585 3.360389,12.32347 18.710169,-9.75895 z"
       sodipodi:nodetypes="cccccccccc" />
    <path
       id="rect3919"
       style="fill:#b5b0a5;stroke-width:6.414"
       d="m 48.018098,34.043672 40.268318,-7.413883 37.295224,1.606814 -6.63406,10.462221 16.92061,36.14719 L 97.251613,103.90848 70.6939,145.41975 57.513344,109.70062 43.000919,111.25058 54.447817,39.678727 Z"
       sodipodi:nodetypes="ccccccccccc" />
    <path
       id="rect5427"
       style="fill:#d0cdc6;stroke-width:6.414"
       d="m 93.579671,54.016362 27.388199,-0.931476 13.55144,14.582983 -5.67628,1.116663 13.38181,13.392458 1.66681,17.729831 -8.64015,-1.681168 7.34566,10.449937 -19.45178,8.18144 z"
       sodipodi:nodetypes="cccccccccc" />
    <path
       id="rect6506"
       style="fill:#dedde7;stroke-width:6.63996"
       d="m 91.853149,112.07287 h 18.759381 l 1.59071,24.46921 -20.103577,0.24951 z"
       sodipodi:nodetypes="ccccc" />
    <path
       id="rect11740"
       style="fill:#fafaf8;stroke-width:6.09557"
       d="m 92.099663,136.79159 v 0 l 9.376297,-2.92656 10.72728,2.67705 v 0 l -6.84242,12.3469 z"
       sodipodi:nodetypes="ccccccc" />
    <path
       sodipodi:type="star"
       style="fill:#fafaf8;fill-opacity:1;stroke-width:24.2419"
       id="path846"
       inkscape:flatsided="true"
       sodipodi:sides="7"
       sodipodi:cx="395.39499"
       sodipodi:cy="196.06903"
       sodipodi:r1="130.94897"
       sodipodi:r2="65.474495"
       sodipodi:arg1="1.2922707"
       sodipodi:arg2="1.7410697"
       inkscape:rounded="0"
       inkscape:randomized="0"
       d="M 431.39789,321.97147 319.40794,302.71612 264.63778,203.15333 308.33047,98.255923 417.58452,67.013776 l 92.54488,65.939094 6.14752,113.46685 z"
       transform="matrix(0.26348624,-0.02406946,0.02406946,0.26348624,-8.2570796,56.40796)"
       inkscape:transform-center-x="3.6316138"
       inkscape:transform-center-y="3.7998213" />
    <path
       id="rect1844"
       style="fill:#e1e1db;fill-opacity:1;stroke-width:6.57576"
       d="m 62.230114,61.889057 18.927664,-16.186666 11.179216,-19.072602 44.659066,60.15082 -26.37057,18.360241 -8.79215,-3.61226 -12.894389,9.88682 -23.101374,-2.88657 z"
       sodipodi:nodetypes="ccccccccc" />
    <path
       id="path9424"
       style="fill:#a5a19d;fill-opacity:1;stroke-width:7.81693"
       inkscape:transform-center-x="0.13010186"
       inkscape:transform-center-y="-0.32654237"
       d="m 83.141381,69.949478 9.011724,-10.046922 -2.302739,30.99246 -7.482187,21.884914 -6.535768,-4.14511 0.587103,12.59635 -8.247466,-9.49588 -10.090578,1.10632 4.780541,-9.2294 6.088258,-6.38014 6.126559,-7.78049 -3.61425,-5.406022 7.936725,-6.705596 z"
       sodipodi:nodetypes="cccccccccccccc" />
    <path
       id="path9424-4"
       style="fill:#cccac8;fill-opacity:1;stroke-width:7.81693"
       inkscape:transform-center-x="-0.9194839"
       inkscape:transform-center-y="1.9927737"
       d="m 81.08806,67.345525 11.065045,-7.442969 -9.401572,29.474414 -12.319276,19.31667 -5.381074,-5.69068 -2.34378,12.3685 -5.803874,-11.31831 -10.043759,-1.5051 6.77171,-7.731093 7.381223,-4.633147 7.742247,-5.98171 -2.255533,-6.16733 9.249516,-4.476546 z"
       sodipodi:nodetypes="cccccccccccccc" />
    <path
       id="path30710"
       style="fill:#fafaf8;stroke-width:24.2419"
       inkscape:transform-center-x="1.4633681"
       inkscape:transform-center-y="2.4158205"
       transform="matrix(0.26458333,0,0,0.26458333,-5.0889764,-7.941407)"
       d="M 156.53463,1144.7583 124.90505,1237.8612 -1.1797468,1157.879 103.80457,1132.9712 Z"
       sodipodi:nodetypes="ccccc" />
    <path
       id="rect39157-5"
       style="fill:#dddddd;fill-opacity:1;stroke-width:9.33009"
       d="m 120.69548,133.15805 -35.070323,12.50076 -4.236464,74.89546 23.667677,20.44862 0.62766,-72.56808 32.7697,-17.98066 z"
       sodipodi:nodetypes="ccccccc" />
    <path
       id="rect39157"
       style="fill:#cecece;fill-opacity:1;stroke-width:9.33009"
       d="m 85.061173,133.96453 35.581177,13.30301 -0.45893,23.2882 -52.36965,-18.49287 z"
       sodipodi:nodetypes="ccccc" />
    <path
       id="path49037"
       style="fill:#f0c4c4;fill-opacity:1;stroke-width:6.414"
       inkscape:transform-center-x="-0.60979192"
       inkscape:transform-center-y="1.2833225"
       d="m 85.509022,125.23341 -6.064469,-9.00618 17.667662,7.97009 z"
       sodipodi:nodetypes="cccc" />
    <path
       sodipodi:type="star"
       style="fill:#f2efb9;fill-opacity:1;stroke-width:24.2419"
       id="path55366"
       inkscape:flatsided="false"
       sodipodi:sides="5"
       sodipodi:cx="615.60876"
       sodipodi:cy="240.50348"
       sodipodi:r1="83.613876"
       sodipodi:r2="44.644577"
       sodipodi:arg1="-1.0471976"
       sodipodi:arg2="-0.49509649"
       inkscape:rounded="0"
       inkscape:randomized="0"
       d="m 657.4157,168.09174 -2.52315,51.20036 42.50293,38.59568 -49.47414,13.42212 -23.57254,52.34941 -28.05355,-42.90504 -57.07156,-6.24196 32.13609,-39.9389 -11.69962,-56.20715 47.91474,18.22144 z"
       transform="matrix(0.13801687,-0.0384035,0.0384035,0.13801687,63.47317,22.18906)"
       inkscape:transform-center-x="2.54038"
       inkscape:transform-center-y="-0.064104354" />
    <path
       sodipodi:type="star"
       style="fill:#fed989;fill-opacity:1;stroke-width:24.2419"
       id="path55366-7"
       inkscape:flatsided="false"
       sodipodi:sides="5"
       sodipodi:cx="615.60876"
       sodipodi:cy="240.50348"
       sodipodi:r1="83.613876"
       sodipodi:r2="44.644577"
       sodipodi:arg1="-1.0471976"
       sodipodi:arg2="-0.49509649"
       inkscape:rounded="0"
       inkscape:randomized="0"
       transform="matrix(0.26710603,0.06883296,-0.06883296,0.26710603,31.261202,-48.900016)"
       inkscape:transform-center-x="6.9824453"
       d="m 657.4157,168.09174 -2.52315,51.20036 42.50293,38.59568 -49.47414,13.42212 -23.57254,52.34941 -28.05355,-42.90504 -57.07156,-6.24196 32.13609,-39.9389 -11.69962,-56.20715 47.91474,18.22144 z"
       inkscape:transform-center-y="-1.8773077" />
    <path
       id="path56562"
       style="opacity:0.173626;fill:#fecd65;fill-opacity:1;stroke-width:24.2419"
       inkscape:transform-center-x="-2.9753767"
       inkscape:transform-center-y="3.9581384"
       d="M -194.84448,1838.7045 V -92.489623 H 972.73965 Z"
       sodipodi:nodetypes="cccc"
       transform="scale(0.26458333)" />
  </g>
</svg>
