<?xml version="1.0" encoding="UTF-8" standalone="no"?>
<!-- Created with Inkscape (http://www.inkscape.org/) -->

<svg
   width="66.663002mm"
   height="21.587mm"
   viewBox="0 0 66.663002 21.587"
   version="1.1"
   id="svg5"
   inkscape:version="1.1 (c68e22c387, 2021-05-23)"
   sodipodi:docname="game_logo.svg"
   xmlns:inkscape="http://www.inkscape.org/namespaces/inkscape"
   xmlns:sodipodi="http://sodipodi.sourceforge.net/DTD/sodipodi-0.dtd"
   xmlns="http://www.w3.org/2000/svg"
   xmlns:svg="http://www.w3.org/2000/svg">
  <sodipodi:namedview
     id="namedview7"
     pagecolor="#505050"
     bordercolor="#ffffff"
     borderopacity="1"
     inkscape:pageshadow="0"
     inkscape:pageopacity="0"
     inkscape:pagecheckerboard="1"
     inkscape:document-units="mm"
     showgrid="false"
     inkscape:snap-bbox="true"
     inkscape:snap-global="true"
     inkscape:object-paths="true"
     inkscape:snap-intersection-paths="true"
     inkscape:snap-smooth-nodes="true"
     inkscape:snap-midpoints="true"
     inkscape:zoom="2.8284271"
     inkscape:cx="80.433396"
     inkscape:cy="61.871843"
     inkscape:window-width="2017"
     inkscape:window-height="1406"
     inkscape:window-x="-11"
     inkscape:window-y="-11"
     inkscape:window-maximized="1"
     inkscape:current-layer="layer1"
     width="66.663mm" />
  <defs
     id="defs2">
    <marker
       style="overflow:visible"
       id="Arrow1Lend"
       refX="0"
       refY="0"
       orient="auto"
       inkscape:stockid="Arrow1Lend"
       inkscape:isstock="true">
      <path
         transform="matrix(-0.8,0,0,-0.8,-10,0)"
         style="fill:context-stroke;fill-rule:evenodd;stroke:context-stroke;stroke-width:1pt"
         d="M 0,0 5,-5 -12.5,0 5,5 Z"
         id="path28516" />
    </marker>
  </defs>
  <g
     inkscape:label="Слой 1"
     inkscape:groupmode="layer"
     id="layer1">
    <path
       id="path5614"
       style="font-weight:bold;font-size:20.9536px;line-height:1.25;font-family:Dongle;-inkscape-font-specification:'Dongle, Bold';fill:#286eff;fill-opacity:1;stroke:#ffffff;stroke-width:2.724;stroke-linecap:butt;stroke-linejoin:round;stroke-miterlimit:4;stroke-dasharray:none;stroke-dashoffset:0;stroke-opacity:1;paint-order:markers stroke fill"
       d="m 9.5317178,1.4154173 c -0.6286082,0 -1.1802475,0.2304516 -1.6551962,0.6914309 C 7.8206455,1.9392193 7.7159888,1.799505 7.5623289,1.6877522 7.4086697,1.5759996 7.2271954,1.5203207 7.0176595,1.5203207 c -0.2793815,0 -0.5098328,0.084035 -0.6914309,0.2516642 C 6.1586,1.9256441 6.0745644,2.1138197 6.0745644,2.3373249 v 7.5855834 1.6391767 c -0.4749486,-0.43304 -1.0126689,-0.649573 -1.6133382,-0.649573 -0.9219586,0 -1.6622903,0.29335 -2.2210529,0.88005 -0.5447935,0.572733 -0.8170045,1.355343 -0.8170045,2.347143 0,0.991807 0.2789124,1.787812 0.837675,2.388485 0.5727314,0.5867 1.3275003,0.88005 2.2634276,0.88005 0.6286082,0 1.1591097,-0.195395 1.5921511,-0.586528 0.1257213,0.391133 0.4123682,0.586528 0.8593788,0.586528 0.2793815,0 0.5026147,-0.07682 0.6702436,-0.230477 0.1815978,-0.15366 0.2723345,-0.349055 0.2723345,-0.586528 V 9.901721 7.345288 c 0.4190723,0.3771646 0.9361713,0.565857 1.5508097,0.565857 0.9498969,0 1.7041489,-0.2933491 2.2629119,-0.8800497 0.558762,-0.60067 0.838191,-1.3966814 0.838191,-2.3884847 0,-0.9918041 -0.279429,-1.7744122 -0.838191,-2.3471436 C 11.187307,1.7087656 10.453676,1.4154173 9.5317178,1.4154173 Z m 7.6062542,0 c -0.29335,0 -0.572779,0.084035 -0.838192,0.2516643 -0.265412,0.1676286 -0.474725,0.370241 -0.628385,0.6077148 -0.02794,-0.209536 -0.125894,-0.3843083 -0.293522,-0.5239988 -0.15366,-0.1536602 -0.356272,-0.2304769 -0.607715,-0.2304769 -0.279382,0 -0.509833,0.084035 -0.691431,0.2516642 -0.167629,0.1536592 -0.251147,0.3418348 -0.251147,0.56534 v 4.6937704 c 0,0.2374739 0.09074,0.4328673 0.272335,0.5865276 0.181598,0.1536599 0.404831,0.2304766 0.670243,0.2304766 0.251443,0 0.461273,-0.076817 0.628902,-0.2304766 0.181598,-0.1676289 0.272335,-0.370241 0.272335,-0.6077149 V 4.9149454 c 0.04191,-0.6844847 0.167702,-1.1386862 0.377238,-1.3621909 0.209536,-0.2235051 0.475045,-0.33538 0.796334,-0.33538 0.181598,0 0.363072,0.021139 0.544669,0.063045 0.251443,0.055876 0.467975,-0.00702 0.649573,-0.1886191 0.195567,-0.1955668 0.293005,-0.439938 0.293005,-0.7332887 0,-0.209536 -0.06238,-0.3910103 -0.188102,-0.5446694 -0.125721,-0.1676321 -0.286574,-0.2795069 -0.482141,-0.33538 -0.167629,-0.041907 -0.342401,-0.063045 -0.523999,-0.063045 z m 4.819344,0 c -0.60067,0 -1.152309,0.1397146 -1.655196,0.4190961 -0.502886,0.2654125 -0.90811,0.6427964 -1.21543,1.1317139 -0.29335,0.474948 -0.439766,1.0338059 -0.439766,1.6763833 0,0.6286079 0.146416,1.194168 0.439766,1.6970541 0.30732,0.4889172 0.712544,0.8730031 1.21543,1.1523843 0.502887,0.2793814 1.054526,0.419096 1.655196,0.419096 0.614639,0 1.166278,-0.1397146 1.655196,-0.419096 0.502886,-0.2793812 0.901409,-0.6634671 1.19476,-1.1523843 0.293349,-0.5028861 0.439764,-1.0684462 0.439767,-1.6970541 0,-0.6425774 -0.146418,-1.2014353 -0.439767,-1.6763833 C 24.513921,2.4773098 24.115398,2.0999259 23.612512,1.8345134 23.123594,1.5551319 22.571955,1.4154173 21.957316,1.4154173 Z m 7.669299,0 c -0.977833,0 -1.774362,0.2866472 -2.389002,0.8593791 -0.61464,0.5587627 -0.929127,1.3197163 -0.943094,2.2835817 0,0.6984532 0.153633,1.2990703 0.460955,1.8019569 0.307318,0.502887 0.712541,0.8874893 1.215429,1.1529013 0.516856,0.265412 1.069012,0.3979087 1.655712,0.3979087 0.405104,0 0.817028,-0.069599 1.236099,-0.2092897 0.433044,-0.1257212 0.838266,-0.3422533 1.21543,-0.6495727 0.111755,-0.1117526 0.188571,-0.2236274 0.230479,-0.33538 0.04191,-0.1257212 0.06253,-0.2375969 0.06253,-0.33538 0,-0.2374746 -0.08352,-0.4467881 -0.251148,-0.6283854 -0.15366,-0.1815981 -0.342353,-0.2728516 -0.565857,-0.2728516 -0.153659,0 -0.314513,0.062898 -0.482142,0.1886189 -0.433041,0.3631961 -0.893945,0.5451863 -1.382861,0.5451863 -0.433041,0 -0.809908,-0.1397145 -1.131197,-0.4190957 -0.321288,-0.2933507 -0.482142,-0.6985744 -0.482142,-1.2154297 0,-0.4470101 0.146418,-0.8032559 0.439767,-1.0686687 0.293351,-0.265412 0.670734,-0.3979085 1.131713,-0.3979085 0.195566,0 0.37034,0.020622 0.523999,0.062528 0.167629,0.041907 0.356322,0.1187249 0.565859,0.2304769 0.125719,0.083815 0.264917,0.1260904 0.418579,0.1260904 0.237474,0 0.433382,-0.091253 0.587044,-0.2728516 C 31.910394,3.0776341 31.993915,2.8755387 31.993915,2.6520341 31.993912,2.3866213 31.889256,2.17009 31.679722,2.0024611 31.414307,1.7789569 31.100337,1.6253227 30.737143,1.541508 30.373947,1.4576933 30.003779,1.4154173 29.626615,1.4154173 Z m 6.830592,0 c -0.963866,0 -1.767096,0.2933483 -2.409674,0.8800497 -0.628608,0.5867008 -0.943094,1.3971487 -0.943094,2.4308593 0,0.9918041 0.321704,1.7738955 0.964282,2.3466269 0.656547,0.5587627 1.459775,0.8381918 2.409671,0.8381918 0.460979,0 0.928587,-0.062898 1.403533,-0.1886191 0.488921,-0.1257213 0.859086,-0.2932758 1.110528,-0.5028118 0.265411,-0.2235051 0.398425,-0.4611745 0.398425,-0.7126179 0,-0.2095359 -0.07682,-0.3910102 -0.230479,-0.5446696 -0.139686,-0.15366 -0.314457,-0.230477 -0.523999,-0.230477 -0.153659,0 -0.300596,0.048978 -0.440282,0.1467612 -0.20954,0.15366 -0.453909,0.2722367 -0.733288,0.3560506 -0.279381,0.069845 -0.55881,0.1049033 -0.838192,0.1049033 -0.447011,-2e-7 -0.851717,-0.090738 -1.214914,-0.2723348 -0.349226,-0.1955676 -0.523999,-0.453858 -0.523999,-0.7751466 0,-0.1396907 0.05568,-0.2098064 0.167434,-0.2098064 h 3.478339 c 0.642572,0 0.963766,-0.3629477 0.963766,-1.089339 0,-0.4330407 -0.111358,-0.8454832 -0.334865,-1.236617 C 38.936901,2.3652868 38.601274,2.0440988 38.15426,1.7926555 37.707252,1.5412122 37.141692,1.4154173 36.457207,1.4154173 Z m 6.474539,0 c -0.796239,0 -1.431914,0.1814738 -1.90686,0.5446697 -0.474948,0.3631959 -0.712102,0.8591566 -0.712102,1.4877645 0,0.4051027 0.09074,0.7268083 0.272336,0.9642821 0.195567,0.2374742 0.433231,0.4189476 0.712618,0.5446697 0.279379,0.1117526 0.558295,0.1885701 0.837673,0.2304769 0.293355,0.041907 0.531027,0.069749 0.712619,0.083716 0.460981,0.041907 0.754329,0.1187249 0.880049,0.2304769 0.125727,0.097784 0.188621,0.2163599 0.188621,0.3560506 0,0.2374739 -0.258289,0.3565673 -0.775147,0.3565673 -0.265414,0 -0.558763,-0.035058 -0.880049,-0.104903 -0.321289,-0.083815 -0.607933,-0.1817696 -0.85938,-0.2935221 -0.111747,-0.055873 -0.22311,-0.083716 -0.334865,-0.083716 -0.237471,0 -0.440081,0.097956 -0.607713,0.2935224 -0.153659,0.1955673 -0.230476,0.4120986 -0.230476,0.6495727 0,0.1117526 0.02785,0.2303294 0.08371,0.3560506 0.05588,0.1117526 0.146616,0.2097074 0.272336,0.2935222 0.61464,0.3911332 1.396727,0.5865275 2.346626,0.5865275 0.824172,0 1.487689,-0.1814743 1.990577,-0.5446697 0.502886,-0.3771646 0.754475,-0.8803438 0.754475,-1.5089518 0,-0.4609793 -0.09796,-0.8239265 -0.293523,-1.0893393 C 45.187708,4.5027722 44.943342,4.3140801 44.649988,4.2023273 44.370606,4.0766055 44.077257,3.9925698 43.769938,3.9506633 43.462617,3.8947886 43.190406,3.8530294 42.952934,3.8250894 42.575768,3.7692133 42.331399,3.7063158 42.219644,3.6364706 42.121865,3.5526559 42.072882,3.4619191 42.072882,3.3641357 c 0,-0.2235046 0.26551,-0.33538 0.796335,-0.33538 0.265407,0 0.523701,0.028359 0.775148,0.084233 0.265414,0.055876 0.481946,0.1393947 0.649573,0.2511475 0.111752,0.05588 0.23033,0.083716 0.35605,0.083716 0.237474,0 0.432866,-0.083518 0.586528,-0.2511475 0.153659,-0.1676287 0.230992,-0.356321 0.230992,-0.565857 0,-0.2374739 -0.09795,-0.4467873 -0.293521,-0.6283854 C 44.964453,1.8068951 44.649964,1.6599619 44.230893,1.5621785 43.825792,1.4643946 43.392727,1.4154173 42.931746,1.4154173 Z m 6.076633,0 c -0.796243,0 -1.431915,0.1814738 -1.906863,0.5446697 -0.474945,0.3631959 -0.712099,0.8591566 -0.712099,1.4877645 0,0.4051027 0.09073,0.7268083 0.272335,0.9642821 0.195564,0.2374742 0.432721,0.4189476 0.7121,0.5446697 0.279381,0.1117526 0.558813,0.1885701 0.838192,0.2304769 0.293354,0.041907 0.531019,0.069749 0.712618,0.083716 0.460973,0.041907 0.754322,0.1187249 0.880049,0.2304769 0.12572,0.097784 0.188619,0.2163599 0.188619,0.3560506 0,0.2374739 -0.258292,0.3565673 -0.775147,0.3565673 -0.265412,0 -0.559271,-0.035058 -0.880565,-0.104903 -0.321286,-0.083815 -0.607423,-0.1817696 -0.858862,-0.2935221 -0.111754,-0.055873 -0.223628,-0.083716 -0.33538,-0.083716 -0.237474,0 -0.440082,0.097956 -0.607716,0.2935224 -0.153652,0.1955673 -0.230476,0.4120986 -0.230476,0.6495727 0,0.1117526 0.02837,0.2303294 0.08423,0.3560506 0.05587,0.1117526 0.146608,0.2097074 0.272335,0.2935222 0.614633,0.3911332 1.396725,0.5865275 2.346627,0.5865275 0.824172,0 1.487688,-0.1814743 1.990574,-0.5446697 0.502888,-0.3771646 0.754478,-0.8803438 0.754478,-1.5089518 0,-0.4609793 -0.09796,-0.8239265 -0.293524,-1.0893393 C 51.264341,4.5027722 51.019972,4.3140801 50.72662,4.2023273 50.447239,4.0766055 50.15389,3.9925698 49.846568,3.9506633 49.539249,3.8947886 49.267038,3.8530294 49.029564,3.8250894 48.652406,3.7692133 48.407513,3.7063158 48.295761,3.6364706 48.197973,3.5526559 48.149515,3.4619191 48.149515,3.3641357 c 0,-0.2235046 0.264991,-0.33538 0.795816,-0.33538 0.265414,0 0.524225,0.028359 0.775666,0.084233 0.265411,0.055876 0.481944,0.1393947 0.649571,0.2511475 0.111754,0.05588 0.23033,0.083716 0.356052,0.083716 0.237479,0 0.432866,-0.083518 0.586526,-0.2511475 0.153662,-0.1676287 0.230478,-0.356321 0.230478,-0.565857 0,-0.2374739 -0.09743,-0.4467873 -0.293007,-0.6283854 C 51.041085,1.8068951 50.726596,1.6599619 50.307523,1.5621785 49.902424,1.4643946 49.469357,1.4154173 49.008379,1.4154173 Z m 6.788732,0 c -0.600668,0 -1.152311,0.1397146 -1.655196,0.4190961 -0.502886,0.2654125 -0.908111,0.6427964 -1.21543,1.1317139 -0.293346,0.474948 -0.439767,1.0338059 -0.439767,1.6763833 0,0.6286079 0.146421,1.194168 0.439767,1.6970541 0.307319,0.4889172 0.712544,0.8730031 1.21543,1.1523843 0.502885,0.2793814 1.054528,0.419096 1.655196,0.419096 0.61464,0 1.166791,-0.1397146 1.655712,-0.419096 0.502888,-0.2793812 0.900896,-0.6634671 1.194242,-1.1523843 0.293354,-0.5028861 0.439766,-1.0684462 0.439766,-1.6970541 0,-0.6425774 -0.146412,-1.2014353 -0.439766,-1.6763833 C 58.353719,2.4773098 57.955711,2.0999259 57.452823,1.8345134 56.963902,1.5551319 56.411751,1.4154173 55.797111,1.4154173 Z m 7.857918,0 c -0.293354,0 -0.572778,0.084035 -0.838192,0.2516643 -0.265414,0.1676286 -0.475242,0.370241 -0.628901,0.6077148 -0.02793,-0.209536 -0.125373,-0.3843083 -0.293008,-0.5239988 -0.153659,-0.1536602 -0.356274,-0.2304769 -0.607713,-0.2304769 -0.279382,0 -0.509831,0.084035 -0.69143,0.2516642 -0.167627,0.1536592 -0.251664,0.3418348 -0.251664,0.56534 v 4.6937704 c 0,0.2374739 0.09074,0.4328673 0.272333,0.5865276 0.181599,0.1536599 0.405347,0.2304766 0.670761,0.2304766 0.251439,0 0.460751,-0.076817 0.628385,-0.2304766 0.181594,-0.1676289 0.272336,-0.370241 0.272336,-0.6077149 V 4.9149454 c 0.0419,-0.6844847 0.167696,-1.1386862 0.377238,-1.3621909 0.209531,-0.2235051 0.475046,-0.33538 0.796332,-0.33538 0.181599,0 0.363069,0.021139 0.544671,0.063045 0.251439,0.055876 0.467971,-0.00702 0.649571,-0.1886191 0.195567,-0.1955668 0.293523,-0.439938 0.293523,-0.7332887 0,-0.209536 -0.0629,-0.3910103 -0.188619,-0.5446694 C 64.534933,1.6462107 64.374077,1.5343359 64.17851,1.4784628 64.010878,1.436556 63.836621,1.4154173 63.655029,1.4154173 Z M 36.37349,2.861324 c 0.405104,0 0.733513,0.090737 0.984954,0.2723348 0.265412,0.1676286 0.397907,0.356321 0.397907,0.5658569 0,0.083817 -0.02785,0.1327944 -0.08371,0.146761 -0.04192,0.013967 -0.07697,0.02067 -0.104905,0.02067 h -2.493388 c -0.111752,0 -0.167947,-0.048977 -0.167947,-0.1467609 0,-0.1955668 0.133011,-0.3837421 0.398425,-0.5653402 C 35.584204,2.9592796 35.940449,2.861324 36.37349,2.861324 Z M 9.3224282,3.1129882 c 0.4330406,0 0.7753678,0.1397146 1.0268108,0.4190958 0.265413,0.2793814 0.397909,0.6495473 0.397909,1.1105266 0,0.4470101 -0.132496,0.8238778 -0.397909,1.1311972 -0.251443,0.2933507 -0.5937702,0.440283 -1.0268108,0.440283 -0.419072,0 -0.7613981,-0.1469323 -1.0268106,-0.440283 C 8.0441748,5.4664884 7.9183794,5.0896207 7.9183794,4.6426106 7.9183794,4.1816313 8.0441748,3.8114654 8.2956176,3.532084 8.5610301,3.2527028 8.9033562,3.1129882 9.3224282,3.1129882 Z m 12.6348878,0 c 0.433041,0 0.782585,0.1397146 1.047998,0.4190958 0.279382,0.2793814 0.418579,0.6495473 0.418579,1.1105266 0,0.4470101 -0.139197,0.8238778 -0.418579,1.1311972 -0.265413,0.2933507 -0.614957,0.440283 -1.047998,0.440283 -0.419072,0 -0.775318,-0.1469323 -1.068669,-0.440283 -0.279381,-0.3073194 -0.419096,-0.6841871 -0.419096,-1.1311972 0,-0.4609793 0.139715,-0.8311452 0.419096,-1.1105266 0.293351,-0.2793812 0.649597,-0.4190958 1.068669,-0.4190958 z m 33.839795,0 c 0.433046,0 0.78259,0.1397146 1.047999,0.4190958 0.279386,0.2793814 0.419094,0.6495473 0.419094,1.1105266 0,0.4470101 -0.139708,0.8238778 -0.419094,1.1311972 -0.265409,0.2933507 -0.614953,0.440283 -1.047999,0.440283 -0.419068,0 -0.775317,-0.1469323 -1.068668,-0.440283 -0.279382,-0.3073194 -0.418582,-0.6841871 -0.418582,-1.1311972 0,-0.4609793 0.1392,-0.8311452 0.418582,-1.1105266 0.293351,-0.2793812 0.6496,-0.4190958 1.068668,-0.4190958 z M 18.478975,8.5028401 c -0.265412,0 -0.481944,0.084035 -0.649572,0.2516643 -0.16763,0.1676291 -0.251148,0.3702407 -0.251148,0.6077148 v 1.5502928 c 0,0.139693 -0.07012,0.209806 -0.209806,0.209806 h -0.314193 c -0.251442,0 -0.440135,0.08352 -0.565857,0.251148 -0.125721,0.15366 -0.188619,0.356275 -0.188619,0.607715 0,0.23748 0.0629,0.433391 0.188619,0.587044 0.125722,0.15366 0.314415,0.230477 0.565857,0.230477 h 0.314193 c 0.139691,0 0.209806,0.0696 0.209806,0.209289 v 2.262911 c 0,0.726393 0.195394,1.264112 0.586528,1.613338 0.391134,0.349227 0.887094,0.524 1.487764,0.524 0.167629,0 0.335183,-0.01393 0.502812,-0.04186 0.167629,-0.02795 0.342401,-0.06971 0.523999,-0.125574 0.223505,-0.06985 0.383841,-0.18172 0.481624,-0.33538 0.111753,-0.15366 0.167949,-0.321212 0.167949,-0.502812 0,-0.237473 -0.07682,-0.440088 -0.230477,-0.607715 -0.15366,-0.167626 -0.342352,-0.251664 -0.565857,-0.251664 -0.04191,0 -0.146564,0.02111 -0.314193,0.06305 -0.167625,0.02793 -0.2795,0.04186 -0.33538,0.04186 -0.139691,0 -0.258267,-0.04898 -0.356051,-0.146761 -0.08381,-0.09779 -0.12609,-0.272042 -0.12609,-0.523482 v -1.969906 c 0,-0.139693 0.07012,-0.209289 0.209806,-0.209289 h 0.754476 c 0.251443,0 0.453538,-0.07682 0.607198,-0.230477 0.167629,-0.153653 0.251664,-0.349564 0.251664,-0.587044 0,-0.237474 -0.08404,-0.440088 -0.251664,-0.607715 -0.15366,-0.167627 -0.349053,-0.251148 -0.586527,-0.251148 h -0.775147 c -0.13969,0 -0.209806,-0.07011 -0.209806,-0.209806 V 9.3622192 c 0,-0.2514433 -0.09074,-0.4540549 -0.272335,-0.6077148 C 18.96092,8.5868755 18.744388,8.5028401 18.478975,8.5028401 Z m -8.171594,2.4096719 c -0.265412,0 -0.489162,0.08404 -0.6707601,0.251664 -0.1676286,0.167634 -0.2511475,0.38416 -0.2511475,0.649573 v 2.954342 c 0,0.572733 0.1464159,1.061477 0.4397666,1.466577 0.307319,0.39114 0.691405,0.684483 1.152384,0.880049 0.460979,0.195567 0.94302,0.293523 1.445907,0.293523 0.516855,0 1.005598,-0.09796 1.466577,-0.293523 0.46098,-0.195566 0.838364,-0.488909 1.131714,-0.880049 0.293351,-0.4051 0.439767,-0.893844 0.439767,-1.466577 v -2.954342 c 0,-0.251447 -0.09074,-0.461276 -0.272335,-0.628902 -0.167629,-0.1816 -0.384161,-0.272335 -0.649573,-0.272335 -0.265413,0 -0.488645,0.08404 -0.670243,0.251664 -0.167629,0.167634 -0.251665,0.38416 -0.251665,0.649573 v 2.870626 c 0,0.293346 -0.111358,0.537722 -0.334863,0.733288 -0.223505,0.195567 -0.510152,0.293522 -0.859379,0.293522 -0.349227,0 -0.635357,-0.09796 -0.858862,-0.293522 -0.223505,-0.195566 -0.33538,-0.439942 -0.33538,-0.733288 v -2.870626 c 0,-0.251447 -0.09074,-0.461276 -0.272335,-0.628902 -0.167629,-0.1816 -0.38416,-0.272335 -0.649573,-0.272335 z m 12.404411,0 c -0.251443,0 -0.475193,0.07012 -0.67076,0.209806 -0.19557,0.13969 -0.293005,0.349006 -0.293005,0.628386 0,0.12573 0.02062,0.251518 0.06253,0.377238 l 2.032433,4.400248 c 0.04365,0.08731 0.09253,0.164155 0.14573,0.230994 0,0 0,5.16e-4 0,5.16e-4 0.116993,0.146868 0.256982,0.244467 0.420129,0.292489 l -1.131197,2.011247 c -0.05588,0.09779 -0.08423,0.20966 -0.08423,0.33538 0,0.23747 0.09795,0.440084 0.293521,0.607714 0.209537,0.181601 0.439989,0.272335 0.69143,0.272335 0.03841,0 0.07666,-0.0032 0.114205,-0.0093 0.01877,-0.0031 0.03726,-0.0068 0.05581,-0.01137 0.09276,-0.02292 0.182962,-0.06497 0.27027,-0.126091 0.153659,-0.08381 0.279455,-0.230236 0.377237,-0.439766 l 2.986897,-6.893636 h 36.522319 c 0.242868,0 0.442811,-0.08591 0.599963,-0.257349 0.171458,-0.171439 0.257347,-0.393114 0.257347,-0.664559 0,-0.285732 -0.08591,-0.521208 -0.257347,-0.706933 -0.157152,-0.171439 -0.34967,-0.257349 -0.57826,-0.257349 H 27.384375 c -0.181597,0 -0.35637,0.04898 -0.523999,0.146761 -0.134451,0.08556 -0.236673,0.208543 -0.306957,0.36897 -0.01004,0.02292 -0.01918,0.04687 -0.02791,0.07131 l -1.131716,3.163631 c -0.05238,0.17025 -0.135308,0.260661 -0.249079,0.271302 -0.0076,7.09e-4 -0.0154,10e-4 -0.02325,10e-4 -0.125722,0 -0.223673,-0.09074 -0.293523,-0.272335 L 23.528794,11.49952 c -0.03492,-0.1135 -0.08863,-0.210698 -0.161745,-0.291455 -0.01463,-0.01615 -0.03036,-0.03167 -0.04651,-0.04651 -0.0323,-0.02968 -0.06752,-0.05668 -0.105937,-0.08113 -0.139689,-0.111729 -0.307244,-0.167948 -0.50281,-0.167948 z M 4.6705159,12.610083 c 0.4190719,0 0.7546975,0.139716 1.00614,0.419096 0.2654128,0.279386 0.3979085,0.649553 0.3979085,1.110526 0,0.447013 -0.1324957,0.823877 -0.3979085,1.131197 -0.2514425,0.293347 -0.5870681,0.440283 -1.00614,0.440283 -0.4330414,0 -0.7820695,-0.146936 -1.0474815,-0.440283 -0.2514433,-0.30732 -0.3772378,-0.684184 -0.3772378,-1.131197 0,-0.460973 0.1257945,-0.83114 0.3772378,-1.110526 0.265412,-0.27938 0.6144401,-0.419096 1.0474815,-0.419096 z" />
    <text
       xml:space="preserve"
       style="font-weight:bold;font-size:10.5833px;line-height:1.25;font-family:sans-serif;-inkscape-font-specification:'sans-serif, Bold';stroke-width:0.264583"
       x="104.47261"
       y="94.254608"
       id="text11797"><tspan
         sodipodi:role="line"
         id="tspan11795"
         style="font-style:normal;font-variant:normal;font-weight:bold;font-stretch:normal;font-size:10.5833px;font-family:Dongle;-inkscape-font-specification:'Dongle, Bold';font-variant-ligatures:normal;font-variant-caps:normal;font-variant-numeric:normal;font-variant-east-asian:normal;stroke-width:0.264583"
         x="104.47261"
         y="94.254608" /></text>
    <path
       id="path29451"
       style="fill:#ffffff;fill-opacity:1;stroke:none;stroke-width:2.72399;stroke-linecap:butt;stroke-linejoin:round;stroke-miterlimit:4;stroke-dasharray:none;stroke-dashoffset:0;stroke-opacity:1;paint-order:markers stroke fill"
       d="m 9.1281248,3.7455077 a 0.57877606,0.57877606 0 0 0 -0.578776,0.5787761 0.57877606,0.57877606 0 0 0 0.578776,0.578776 0.57877606,0.57877606 0 0 0 0.578776,-0.578776 0.57877606,0.57877606 0 0 0 -0.578776,-0.5787761 z M 22.193994,4.1134439 A 0.57877606,0.57877606 0 0 0 21.615218,4.69222 0.57877606,0.57877606 0 0 0 22.193994,5.270996 0.57877606,0.57877606 0 0 0 22.77277,4.69222 0.57877606,0.57877606 0 0 0 22.193994,4.1134439 Z m 7.343221,0 A 0.57877606,0.57877606 0 0 0 28.958439,4.69222 0.57877606,0.57877606 0 0 0 29.537215,5.270996 0.57877606,0.57877606 0 0 0 30.115991,4.69222 0.57877606,0.57877606 0 0 0 29.537215,4.1134439 Z m 26.322941,0.3017904 a 0.57877606,0.57877606 0 0 0 -0.578776,0.578776 0.57877606,0.57877606 0 0 0 0.578776,0.5787761 0.57877606,0.57877606 0 0 0 0.578776,-0.5787761 0.57877606,0.57877606 0 0 0 -0.578776,-0.578776 z M 21.188371,13.818795 a 0.57877606,0.57877606 0 0 0 -0.578776,0.578776 0.57877606,0.57877606 0 0 0 0.578776,0.578776 0.57877606,0.57877606 0 0 0 0.578776,-0.578776 0.57877606,0.57877606 0 0 0 -0.578776,-0.578776 z M 4.4317707,13.940234 a 0.57877606,0.57877606 0 0 0 -0.578776,0.578776 0.57877606,0.57877606 0 0 0 0.578776,0.578776 0.57877606,0.57877606 0 0 0 0.578776,-0.578776 0.57877606,0.57877606 0 0 0 -0.578776,-0.578776 z" />
  </g>
</svg>
