<?xml version="1.0" encoding="UTF-8" standalone="no"?>
<!-- Created with Inkscape (http://www.inkscape.org/) -->

<svg width="201.22313mm" height="211.21078mm" viewBox="0 0 201.22313 211.21078" version="1.1" id="svg8" inkscape:version="1.3 (0e150ed6c4, 2023-07-21)" sodipodi:docname="изометрический свинтус.svg" xmlns:inkscape="http://www.inkscape.org/namespaces/inkscape" xmlns:sodipodi="http://sodipodi.sourceforge.net/DTD/sodipodi-0.dtd" xmlns="http://www.w3.org/2000/svg" xmlns:svg="http://www.w3.org/2000/svg" xmlns:rdf="http://www.w3.org/1999/02/22-rdf-syntax-ns#" xmlns:cc="http://creativecommons.org/ns#" xmlns:dc="http://purl.org/dc/elements/1.1/">
  <defs id="defs2" />
  <sodipodi:namedview id="base" pagecolor="#ffffff" bordercolor="#666666" borderopacity="1.0" inkscape:pageopacity="0.0" inkscape:pageshadow="2" inkscape:zoom="0.25000001" inkscape:cx="319.99999" inkscape:cy="567.99999" inkscape:document-units="mm" inkscape:current-layer="layer1" showgrid="false" inkscape:window-width="2467" inkscape:window-height="1413" inkscape:window-x="84" inkscape:window-y="-9" inkscape:window-maximized="1" inkscape:showpageshadow="2" inkscape:pagecheckerboard="0" inkscape:deskcolor="#d1d1d1" />
  <metadata id="metadata5">
    <rdf:RDF>
      <cc:Work rdf:about="">
        <dc:format>image/svg+xml</dc:format>
        <dc:type rdf:resource="http://purl.org/dc/dcmitype/StillImage" />
        <dc:title />
      </cc:Work>
    </rdf:RDF>
  </metadata>
  <g inkscape:label="Layer 1" inkscape:groupmode="layer" id="layer1" transform="translate(-53.949947,-10.918077)">
    <path style="fill:#000000;fill-opacity:1;fill-rule:evenodd;stroke-width:0.264583" d="m 104.6528,142.98886 v 23.90225 23.90287 l 20.70071,11.95145 20.70013,-11.95145 v -23.90226 -23.90286 l -20.70013,11.95142 v -5.8e-4 z" id="path815-5-9-2-5" inkscape:connector-curvature="0" inkscape:export-xdpi="96" inkscape:export-ydpi="96" />
    <path style="fill:#000000;fill-opacity:1;fill-rule:evenodd;stroke-width:0.264583" d="m 194.3086,132.67662 v 23.90225 23.90287 l 20.70071,11.95144 20.70013,-11.95144 v -23.90226 -23.90286 l -20.70013,11.95142 v -5.8e-4 z" id="path815-5-9-2" inkscape:connector-curvature="0" inkscape:export-xdpi="96" inkscape:export-ydpi="96" />
    <path style="fill:#000000;fill-opacity:1;fill-rule:evenodd;stroke-width:0.264583" d="m 142.99148,162.3723 v 23.90225 23.90287 l 20.70071,11.95144 20.70013,-11.95144 V 186.27516 162.3723 l -20.70013,11.95142 v -5.9e-4 z" id="path815-5-9" inkscape:connector-curvature="0" inkscape:export-xdpi="96" inkscape:export-ydpi="96" />
    <path style="fill:#ff8080;fill-opacity:1;fill-rule:evenodd;stroke-width:0.264583" d="m 107.4945,147.15678 v 20.62177 0 20.62176 l 17.85901,10.31087 v -20.62176 -20.62177 z" id="path815-5-1-5-2" inkscape:connector-curvature="0" inkscape:export-xdpi="96" inkscape:export-ydpi="96" />
    <path style="fill:#f4d7d7;fill-opacity:1;fill-rule:evenodd;stroke-width:0.264583" d="m 143.21252,147.15678 -17.85901,10.31121 v 20.62176 20.62178 l 17.85901,-10.31089 v -20.62176 0 z" id="path815-1-1-3-3-6" inkscape:connector-curvature="0" inkscape:export-xdpi="96" inkscape:export-ydpi="96" />
    <path inkscape:connector-curvature="0" style="fill:#ffaaaa;fill-opacity:1;fill-rule:evenodd;stroke-width:0.264583" d="m 125.35349,136.84577 -17.85901,10.31088 17.85901,10.31122 17.85901,-10.31122 z" id="path815-1-7-4-7-5-3-8" inkscape:export-xdpi="96" inkscape:export-ydpi="96" />
    <path style="fill:#552200;fill-opacity:1;fill-rule:evenodd;stroke-width:0.264583" d="m 110.30726,183.52874 v 5.75024 0.74552 l 4.97971,2.87528 v -0.74552 -5.75024 z" id="path815-5-7-2-05-0-3" inkscape:connector-curvature="0" inkscape:export-xdpi="96" inkscape:export-ydpi="96" />
    <path style="fill:#552200;fill-opacity:1;fill-rule:evenodd;stroke-width:0.264583" d="m 117.56104,187.71662 v 5.75026 0.74551 l 4.9797,2.87528 v -0.74551 -5.75024 z" id="path815-5-7-2-4-4-9-1" inkscape:connector-curvature="0" inkscape:export-xdpi="96" inkscape:export-ydpi="96" />
    <path inkscape:connector-curvature="0" style="fill:#552200;fill-opacity:1;fill-rule:evenodd;stroke-width:0.264583" d="m 110.30726,177.03296 v 5.75024 0.74553 l 4.97971,2.87528 v -0.74553 -5.75023 z" id="path815-5-7-2-0-9-7-1" inkscape:export-xdpi="96" inkscape:export-ydpi="96" />
    <path inkscape:connector-curvature="0" style="fill:#552200;fill-opacity:1;fill-rule:evenodd;stroke-width:0.264583" d="m 117.56104,181.22086 v 5.75025 0.74551 l 4.9797,2.87528 v -0.74551 -5.75024 z" id="path815-5-7-2-4-7-5-0-9" inkscape:export-xdpi="96" inkscape:export-ydpi="96" />
    <path style="fill:#ff8080;fill-opacity:1;fill-rule:evenodd;stroke-width:0.264583" d="m 197.15031,136.84456 v 20.62176 0 20.62176 l 17.85901,10.31087 v -20.62176 -20.62176 z" id="path815-5-1" inkscape:connector-curvature="0" inkscape:export-xdpi="96" inkscape:export-ydpi="96" />
    <path style="fill:#f4d7d7;fill-opacity:1;fill-rule:evenodd;stroke-width:0.264583" d="m 232.86833,136.84456 -17.85901,10.31121 v 20.62176 20.62177 l 17.85901,-10.31089 v -20.62175 0 z" id="path815-1-1-3" inkscape:connector-curvature="0" inkscape:export-xdpi="96" inkscape:export-ydpi="96" />
    <path inkscape:connector-curvature="0" style="fill:#ffaaaa;fill-opacity:1;fill-rule:evenodd;stroke-width:0.264583" d="m 215.0093,126.53355 -17.85901,10.31088 17.85901,10.31122 17.85901,-10.31122 z" id="path815-1-7-4-7-5" inkscape:export-xdpi="96" inkscape:export-ydpi="96" />
    <path style="fill:#552200;fill-opacity:1;fill-rule:evenodd;stroke-width:0.264583" d="m 199.96307,173.21652 v 5.75023 0.74552 l 4.97971,2.87528 v -0.74552 -5.75023 z" id="path815-5-7-2-05" inkscape:connector-curvature="0" inkscape:export-xdpi="96" inkscape:export-ydpi="96" />
    <path style="fill:#552200;fill-opacity:1;fill-rule:evenodd;stroke-width:0.264583" d="m 207.21685,177.4044 v 5.75025 0.74552 l 4.9797,2.87528 v -0.74552 -5.75024 z" id="path815-5-7-2-4-4" inkscape:connector-curvature="0" inkscape:export-xdpi="96" inkscape:export-ydpi="96" />
    <path inkscape:connector-curvature="0" style="fill:#552200;fill-opacity:1;fill-rule:evenodd;stroke-width:0.264583" d="m 207.21685,170.90863 v 5.75025 0.74552 l 4.9797,2.87528 v -0.74552 -5.75024 z" id="path815-5-7-2-4-7-5" inkscape:export-xdpi="96" inkscape:export-ydpi="96" />
    <path style="fill:#ff8080;fill-opacity:1;fill-rule:evenodd;stroke-width:0.264583" d="m 145.83314,166.47342 v 20.62176 0 20.62176 l 17.85901,10.31087 v -20.62176 -20.62176 z" id="path815-5" inkscape:connector-curvature="0" inkscape:export-xdpi="96" inkscape:export-ydpi="96" />
    <path style="fill:#f4d7d7;fill-opacity:1;fill-rule:evenodd;stroke-width:0.264583" d="m 181.55116,166.47342 -17.85901,10.31121 v 20.62176 20.62177 l 17.85901,-10.31088 v -20.62176 0 z" id="path815-1-1" inkscape:connector-curvature="0" inkscape:export-xdpi="96" inkscape:export-ydpi="96" />
    <path style="fill:#000000;fill-opacity:1;fill-rule:evenodd;stroke-width:0.264583" d="m 182.37656,10.918077 -72.79715,42.032064 72.79552,42.026673 -0.003,10e-4 -72.79283,-42.027749 -20.878586,12.055055 -0.0043,-0.0027 v 84.05819 l 72.797146,42.02991 0.001,-63.04377 5.3e-4,63.04324 72.7966,-42.02884 0.002,-84.057654 0.001,84.057654 20.87858,-12.05451 V 52.948523 Z" id="path815-1-7-4-9-7-4-4" inkscape:connector-curvature="0" inkscape:export-xdpi="96" inkscape:export-ydpi="96" />
    <path inkscape:connector-curvature="0" style="fill:#ffaaaa;fill-opacity:1;fill-rule:evenodd;stroke-width:0.264583" d="m 163.69213,156.16241 -17.85901,10.31088 17.85901,10.31122 17.85901,-10.31122 z" id="path815-1-7-4-7" inkscape:export-xdpi="96" inkscape:export-ydpi="96" />
    <path style="fill:#552200;fill-opacity:1;fill-rule:evenodd;stroke-width:0.264583" d="m 148.6459,202.84538 v 5.75023 0.74552 l 4.97971,2.87528 v -0.74552 -5.75023 z" id="path815-5-7-2" inkscape:connector-curvature="0" inkscape:export-xdpi="96" inkscape:export-ydpi="96" />
    <path style="fill:#552200;fill-opacity:1;fill-rule:evenodd;stroke-width:0.264583" d="m 155.89968,207.03326 v 5.75025 0.74552 l 4.9797,2.87528 v -0.74552 -5.75024 z" id="path815-5-7-2-4" inkscape:connector-curvature="0" inkscape:export-xdpi="96" inkscape:export-ydpi="96" />
    <path inkscape:connector-curvature="0" style="fill:#552200;fill-opacity:1;fill-rule:evenodd;stroke-width:0.264583" d="m 148.6459,196.3496 v 5.75023 0.74553 l 4.97971,2.87528 v -0.74552 -5.75023 z" id="path815-5-7-2-0" inkscape:export-xdpi="96" inkscape:export-ydpi="96" />
    <path inkscape:connector-curvature="0" style="fill:#552200;fill-opacity:1;fill-rule:evenodd;stroke-width:0.264583" d="m 155.89968,200.53749 v 5.75025 0.74552 l 4.9797,2.87528 v -0.74552 -5.75024 z" id="path815-5-7-2-4-7" inkscape:export-xdpi="96" inkscape:export-ydpi="96" />
    <path inkscape:connector-curvature="0" style="fill:#ffaaaa;fill-opacity:1;fill-rule:evenodd;stroke-width:0.264583" d="m 92.137855,147.07786 20.016585,-11.55691 69.78793,40.29324 -20.01606,11.55602 z m 20.016585,-11.55691 69.78908,-40.295065 69.7884,40.293495 -69.78826,40.29256 z" id="path815-1-7-4-9-7-4-7-9-0" inkscape:export-xdpi="96" inkscape:export-ydpi="96" />
    <path style="fill:#552200;fill-opacity:1;fill-rule:evenodd;stroke-width:0.264583" d="m 199.96307,166.72077 v 5.75023 0.74552 l 4.97971,2.87528 v -0.74552 -5.75023 z" id="path815-5-7-2-05-3" inkscape:connector-curvature="0" inkscape:export-xdpi="96" inkscape:export-ydpi="96" />
    <path inkscape:connector-curvature="0" style="fill:#ff8080;fill-opacity:1;fill-rule:evenodd;stroke-width:0.264583" d="m 92.134388,147.07542 -7.4e-5,-80.585222 69.789956,40.292012 -0.001,80.58599 z" id="path815-1-7-4-9-7-4" inkscape:transform-center-x="1.6701612" inkscape:transform-center-y="4.8327958" inkscape:export-xdpi="96" inkscape:export-ydpi="96" />
    <path style="fill:#000000;fill-opacity:1;fill-rule:evenodd;stroke-width:0.264583" d="m 104.44071,78.993109 -50.489656,29.149621 22.6195,13.05969 -22.620607,-13.05969 v 58.2998 l 50.489103,29.15018 0.001,-58.2998 5.7e-4,58.2998 50.48909,-29.15018 v -58.2998 z" id="path815-1-7-4-9-7-0" inkscape:connector-curvature="0" inkscape:export-xdpi="96" inkscape:export-ydpi="96" />
    <path inkscape:connector-curvature="0" style="fill:#ff8080;fill-opacity:1;fill-rule:evenodd;stroke-width:0.264583" d="m 57.27169,164.52316 -5.2e-5,-54.46352 47.167542,27.23136 -9.1e-4,54.46403 z" id="path815-1-7-4-9-7" inkscape:export-xdpi="96" inkscape:export-ydpi="96" />
    <path style="fill:#338000;fill-opacity:1;fill-rule:evenodd;stroke-width:1" d="M -790.33789,269.36328 V 388.54492 L -687.125,448.13477 V 328.95508 Z" transform="scale(0.26458333)" id="path815" />
    <path style="fill:#2aff2a;fill-opacity:1;fill-rule:evenodd;stroke-width:1" d="m -583.91211,269.36328 -103.21289,59.5918 v 119.17969 l 103.21289,-59.58985 z" transform="scale(0.26458333)" id="path815-1" />
    <path style="fill:#55ff55;fill-opacity:1;fill-rule:evenodd;stroke-width:1" d="m -687.125,209.77344 -103.21289,59.58984 103.21289,59.5918 103.21289,-59.5918 z" transform="scale(0.26458333)" id="path815-1-7-4" />
    <path style="fill:#ffaaaa;fill-opacity:1;fill-rule:evenodd;stroke-width:0.264583" d="m 56.960535,150.90859 11.800563,-6.81306 19.23762,11.10651 -11.80057,6.81306 z" id="path815-4" inkscape:connector-curvature="0" inkscape:export-xdpi="96" inkscape:export-ydpi="96" />
    <path style="fill:#f4d7d7;fill-opacity:1;fill-rule:evenodd;stroke-width:0.264583" d="m 76.197859,184.22861 2.89e-4,-22.21352 11.800563,-6.81306 -2.89e-4,22.21352 z" id="path815-1-8" inkscape:connector-curvature="0" inkscape:export-xdpi="96" inkscape:export-ydpi="96" />
    <path inkscape:connector-curvature="0" style="fill:#ff8080;fill-opacity:1;fill-rule:evenodd;stroke-width:0.264583" d="m 56.960471,173.12193 -2.1e-5,-22.21333 19.237606,11.1065 -2.82e-4,22.21353 z" id="path815-1-7-4-9" inkscape:export-xdpi="96" inkscape:export-ydpi="96" />
    <path style="fill:#338000;fill-opacity:1;fill-rule:evenodd;stroke-width:0.264583" d="m -209.11023,118.83816 v 31.53347 l 27.30841,15.76649 27.30841,-15.76649 v -31.53347 l -27.30841,15.767 z" id="path815-4-9-3" inkscape:connector-curvature="0" />
    <path inkscape:connector-curvature="0" style="fill:#338000;fill-opacity:1;fill-rule:evenodd;stroke-width:0.264583" d="m -208.73225,174.42538 v 19.34301 l 27.30841,15.76699 v -19.343 z" id="path815-4-5" />
    <path inkscape:connector-curvature="0" style="fill:#f4d7d7;fill-opacity:1;fill-rule:evenodd;stroke-width:0.264583" d="m 151.60667,164.52316 5e-5,-54.46352 -47.16754,27.23136 7.9e-4,54.46403 z" id="path815-1-7-4-9-7-7" inkscape:export-xdpi="96" inkscape:export-ydpi="96" />
    <path inkscape:connector-curvature="0" style="fill:#ffaaaa;fill-opacity:1;fill-rule:evenodd;stroke-width:0.264583" d="m 104.43988,82.828014 -47.166829,27.231726 47.166829,27.23259 47.16684,-27.23269 z" id="path815-1-7-4-9-7-7-3" inkscape:export-xdpi="96" inkscape:export-ydpi="96" />
    <path style="fill:#280b0b;fill-opacity:1;fill-rule:evenodd;stroke-width:0.264583" d="m 64.687502,173.58622 -4.265809,-2.46287 1.91e-4,-14.21945 4.265807,2.46286 z" id="path815-1-7-4-9-8-5" inkscape:connector-curvature="0" inkscape:export-xdpi="96" inkscape:export-ydpi="96" />
    <path style="fill:#280b0b;fill-opacity:1;fill-rule:evenodd;stroke-width:0.264583" d="m 72.736433,178.23305 -4.265808,-2.46286 1.9e-4,-14.21946 4.265807,2.46287 z" id="path815-1-7-4-9-8-5-0" inkscape:connector-curvature="0" inkscape:export-xdpi="96" inkscape:export-ydpi="96" />
    <path inkscape:connector-curvature="0" style="fill:#f4d7d7;fill-opacity:1;fill-rule:evenodd;stroke-width:0.264583" d="m 145.12074,153.55447 2e-5,-27.15142 -23.51418,13.57551 3.9e-4,27.15167 z" id="path815-1-7-4-9-7-7-1-4" inkscape:export-xdpi="96" inkscape:export-ydpi="96" />
    <path style="fill:#ff8080;fill-opacity:1;fill-rule:evenodd;stroke-width:0.264583" d="m 116.6655,137.12575 4.9413,2.85253 v 27.15183 l -4.9413,-2.85305 z" id="path815-1-7-4-9-7-7-1-5-9-4" inkscape:connector-curvature="0" inkscape:export-xdpi="96" inkscape:export-ydpi="96" />
    <path style="fill:#ffaaaa;fill-opacity:1;fill-rule:evenodd;stroke-width:0.264583" d="m 116.66556,137.12554 4.94102,2.85302 23.51418,-13.57591 -4.94147,-2.85277 z" id="path815-1-7-4-9-7-7-1-5-6" inkscape:connector-curvature="0" inkscape:export-xdpi="96" inkscape:export-ydpi="96" />
    <path inkscape:connector-curvature="0" style="fill:#ffffff;fill-opacity:1;fill-rule:evenodd;stroke-width:0.264583" d="m 65.39814,138.77308 -1.4e-5,-14.63816 12.677215,7.31897 -2.1e-4,14.6383 z" id="path815-1-7-4-9-7-1-0" inkscape:export-xdpi="96" inkscape:export-ydpi="96" />
    <path inkscape:connector-curvature="0" style="fill:#000000;fill-opacity:1;fill-rule:evenodd;stroke-width:0.264583" d="m 70.458863,138.53159 -8e-6,-7.70964 6.676843,3.85476 -1.1e-4,7.70971 z" id="path815-1-7-4-9-7-1-0-5" inkscape:export-xdpi="96" inkscape:export-ydpi="96" />
    <path inkscape:connector-curvature="0" style="fill:#ffffff;fill-opacity:1;fill-rule:evenodd;stroke-width:0.264583" d="m 83.635491,149.3021 -1.4e-5,-14.63816 12.677215,7.31897 -2.1e-4,14.6383 z" id="path815-1-7-4-9-7-1-0-6" inkscape:export-xdpi="96" inkscape:export-ydpi="96" />
    <path inkscape:connector-curvature="0" style="fill:#000000;fill-opacity:1;fill-rule:evenodd;stroke-width:0.264583" d="m 88.696214,149.06061 -8e-6,-7.70964 6.676843,3.85476 -1.1e-4,7.70971 z" id="path815-1-7-4-9-7-1-0-5-6" inkscape:export-xdpi="96" inkscape:export-ydpi="96" />
    <path inkscape:connector-curvature="0" style="fill:#ffaaaa;fill-opacity:1;fill-rule:evenodd;stroke-width:0.264583" d="m 92.137867,66.493109 20.016583,-11.556918 69.78793,40.29324 -20.01606,11.556029 z M 112.15445,54.936191 181.94353,14.641134 251.73192,54.93463 181.94367,95.227188 Z" id="path815-1-7-4-9-7-4-7-9" inkscape:export-xdpi="96" inkscape:export-ydpi="96" />
    <path style="fill:#f4d7d7;fill-opacity:1;fill-rule:evenodd;stroke-width:1" d="m 951.42773,207.62695 -75.65429,43.67774 0.004,304.57226 75.65039,-43.67773 z M 875.77344,251.30469 611.99609,403.58789 612,708.16211 875.76758,555.87695 Z" transform="scale(0.26458333)" id="path815-1-7-4-9-7-4-7" inkscape:export-xdpi="96" inkscape:export-ydpi="96" />
    <rect style="fill:#0000ff;fill-rule:evenodd;stroke-width:0.264583" id="rect2179-2" width="2.8523872" height="2.8523872" x="-167.79953" y="-92.159454" transform="rotate(-45)" />
  </g>
</svg>
