<?xml version="1.0" encoding="UTF-8" standalone="no"?>
<!-- Created with Inkscape (http://www.inkscape.org/) -->

<svg width="233.39148mm" height="219.45641mm" viewBox="0 0 233.39148 219.45641" version="1.1" id="svg8" inkscape:export-filename="C:\Users\Ivan\Desktop\инкскейеп\БАНжур.png" inkscape:export-xdpi="96" inkscape:export-ydpi="96" inkscape:version="1.3 (0e150ed6c4, 2023-07-21)" sodipodi:docname="БАНжур.svg" xmlns:inkscape="http://www.inkscape.org/namespaces/inkscape" xmlns:sodipodi="http://sodipodi.sourceforge.net/DTD/sodipodi-0.dtd" xmlns="http://www.w3.org/2000/svg" xmlns:svg="http://www.w3.org/2000/svg" xmlns:rdf="http://www.w3.org/1999/02/22-rdf-syntax-ns#" xmlns:cc="http://creativecommons.org/ns#" xmlns:dc="http://purl.org/dc/elements/1.1/">
  <defs id="defs2">
    <inkscape:path-effect effect="bend_path" id="path-effect229" is_visible="true" bendpath="m 124.06248,107.32726 c 30.74244,16.53906 51.98544,28.78072 82.19884,14.07951" prop_scale="1" scale_y_rel="false" vertical="false" bendpath-nodetypes="cc" lpeversion="0" hide_knot="false" />
    <inkscape:path-effect effect="bend_path" id="path-effect129" is_visible="true" bendpath="M 155.43172,163.14528 C 129.23926,159.54764 107.30863,131.74182 94.151902,101.70711" prop_scale="1" scale_y_rel="false" vertical="false" bendpath-nodetypes="cc" lpeversion="0" hide_knot="false" />
    <inkscape:path-effect effect="bend_path" id="path-effect62" is_visible="true" bendpath="m 104.46317,143.16369 c 10.40621,2.23149 22.4798,2.86513 31.56101,-1.08668" prop_scale="1" scale_y_rel="false" vertical="false" bendpath-nodetypes="cc" lpeversion="0" hide_knot="false" />
    <inkscape:path-effect effect="bend_path" id="path-effect129-6" is_visible="true" bendpath="M 155.43172,163.14528 C 129.23926,159.54764 107.30863,131.74182 94.151902,101.70711" prop_scale="1" scale_y_rel="false" vertical="false" bendpath-nodetypes="cc" lpeversion="0" hide_knot="false" />
  </defs>
  <sodipodi:namedview id="base" pagecolor="#ffffff" bordercolor="#666666" borderopacity="1.0" inkscape:pageopacity="0.0" inkscape:pageshadow="2" inkscape:zoom="0.5" inkscape:cx="414" inkscape:cy="726" inkscape:document-units="mm" inkscape:current-layer="layer2" showgrid="false" inkscape:window-width="2467" inkscape:window-height="1413" inkscape:window-x="84" inkscape:window-y="-9" inkscape:window-maximized="1" inkscape:showpageshadow="2" inkscape:pagecheckerboard="0" inkscape:deskcolor="#d1d1d1" />
  <metadata id="metadata5">
    <rdf:RDF>
      <cc:Work rdf:about="">
        <dc:format>image/svg+xml</dc:format>
        <dc:type rdf:resource="http://purl.org/dc/dcmitype/StillImage" />
        <dc:title />
      </cc:Work>
    </rdf:RDF>
  </metadata>
  <g inkscape:groupmode="layer" id="layer3" inkscape:label="Layer 3" transform="translate(11.935244,1.714582)">
    <rect style="fill:#24d0fc;fill-opacity:1;fill-rule:evenodd;stroke-width:0.264583" id="rect448" width="233.40979" height="319.2421" x="-11.935244" y="-1.714582" />
  </g>
  <g inkscape:groupmode="layer" id="layer2" inkscape:label="Layer 2" style="opacity:0.585" transform="translate(11.935244,1.714582)">
    <rect style="fill:#000060;fill-opacity:1;fill-rule:evenodd;stroke-width:0.264583" id="rect309" width="233.39148" height="219.45641" x="-11.935244" y="-1.714582" />
    <rect style="fill:#000044;fill-opacity:1;fill-rule:evenodd;stroke-width:0.264583" id="rect311-2" width="50.139767" height="165.94766" x="81.821785" y="5.5345035" />
    <rect style="fill:#000044;fill-opacity:1;fill-rule:evenodd;stroke-width:0.264583" id="rect387" width="70.908333" height="104.51041" x="-0.52916664" y="78.454163" />
    <rect style="fill:#000044;fill-opacity:1;fill-rule:evenodd;stroke-width:0.264583" id="rect311" width="50.139763" height="165.94765" x="149.10966" y="39.56599" />
    <rect style="fill:#0000b4;fill-opacity:1;fill-rule:evenodd;stroke-width:0.264583" id="rect256" width="22.489584" height="36.512501" x="-11.90625" y="112.58542" />
    <rect style="fill:#0000b4;fill-opacity:1;fill-rule:evenodd;stroke-width:0.264583" id="rect256-3" width="22.489584" height="36.512501" x="25.135416" y="112.58542" />
    <rect style="fill:#0000b4;fill-opacity:1;fill-rule:evenodd;stroke-width:0.264583" id="rect256-5" width="22.489584" height="36.512501" x="60.986458" y="112.85" />
    <rect style="fill:#0000b4;fill-opacity:1;fill-rule:evenodd;stroke-width:0.264583" id="rect256-3-7" width="22.489584" height="36.512501" x="98.028122" y="112.85" />
    <rect style="fill:#0000b4;fill-opacity:1;fill-rule:evenodd;stroke-width:0.264583" id="rect256-8" width="16.933334" height="36.512501" x="204.39062" y="112.32082" />
    <rect style="fill:#000084;fill-opacity:1;fill-rule:evenodd;stroke-width:0.264583" id="rect313-7-0-8-7" width="8.7931681" height="29.653553" x="170.08879" y="115.82849" />
    <rect style="fill:#0000b4;fill-opacity:1;fill-rule:evenodd;stroke-width:0.264583" id="rect256-6" width="22.489584" height="36.512501" x="132.68854" y="112.58542" />
    <rect style="fill:#0000b4;fill-opacity:1;fill-rule:evenodd;stroke-width:0.264583" id="rect256-3-9" width="22.489584" height="36.512501" x="169.73021" y="112.58542" />
    <rect style="fill:#0000b4;fill-opacity:1;fill-rule:evenodd;stroke-width:0.264583" id="rect307" width="218.54584" height="6.3499999" x="-3.175" y="115.76041" />
    <rect style="fill:#0000b4;fill-opacity:1;fill-rule:evenodd;stroke-width:0.264583" id="rect233" width="233.21132" height="89.20237" x="-12.022306" y="142.29778" />
    <rect style="fill:#005ce0;fill-opacity:1;fill-rule:evenodd;stroke-width:0.264583" id="rect231" width="233.40981" height="99.785713" x="-11.935244" y="217.74182" />
  </g>
  <g inkscape:label="Layer 1" inkscape:groupmode="layer" id="layer1" style="display:inline" transform="translate(11.935244,1.714582)">
    <circle style="fill:#69b628;fill-rule:evenodd;stroke-width:0.264583" id="path10-8-8" cx="105.22353" cy="71.661476" r="21.981415" transform="rotate(-2.2989345)" />
    <path style="fill:#fae330;fill-opacity:1;fill-rule:evenodd;stroke-width:0.264583" id="path42-1" sodipodi:type="arc" sodipodi:cx="103.67873" sodipodi:cy="68.090935" sodipodi:rx="17.096001" sodipodi:ry="17.096001" sodipodi:start="0" sodipodi:end="3.1353912" d="M 120.77473,68.090935 A 17.096001,17.096001 0 0 1 103.73174,85.186853 17.096001,17.096001 0 0 1 86.583054,68.196954" sodipodi:open="true" transform="rotate(-2.2989345)" sodipodi:arc-type="arc" />
    <rect style="fill:#000000;fill-opacity:1;fill-rule:evenodd;stroke-width:0.264583" id="rect64-2" width="4.3461351" height="13.915991" x="99.76812" y="68.183716" ry="1.1339273" rx="1.1339273" transform="rotate(-2.2989345)" />
    <rect style="fill:#000000;fill-opacity:1;fill-rule:evenodd;stroke-width:0.264583" id="rect180" width="46.984222" height="6.0281639" x="30.895514" y="85.40535" rx="1.1339273" ry="1.1339273" transform="rotate(-14.536459)" />
    <rect style="fill:#000000;fill-opacity:1;fill-rule:evenodd;stroke-width:0.264583" id="rect182" width="23.738798" height="51.475796" x="44.019325" y="38.229496" rx="1.1339273" ry="1.1339273" transform="rotate(-14.536459)" />
    <rect style="fill:#999999;fill-opacity:1;fill-rule:evenodd;stroke-width:0.264583" id="rect157-9" width="8.8594294" height="100.29543" x="-99.302902" y="180.86066" rx="1.1339273" ry="1.1339273" transform="scale(-1,1)" />
    <path style="fill:#4d4d4d;fill-opacity:1;fill-rule:evenodd;stroke-width:0.264583" inkscape:transform-center-y="-1.9285056" d="m 112.57423,283.52018 -13.2842,-11.57101 -8.84655,9.20692 z" id="path159-9" inkscape:connector-curvature="0" sodipodi:nodetypes="cccc" inkscape:transform-center-x="-2.7324e-06" />
    <rect style="fill:#999999;fill-opacity:1;fill-rule:evenodd;stroke-width:0.264583" id="rect157" width="8.8594294" height="100.29543" x="80.372505" y="180.94931" rx="1.1339273" ry="1.1339273" />
    <circle style="fill:#eca14f;fill-rule:evenodd;stroke-width:0.264583" id="path153" cx="135.54727" cy="185.16132" r="7.1042595" />
    <path inkscape:connector-curvature="0" transform="matrix(0.83960592,0.17433286,-0.18065545,0.74165602,39.418644,29.530308)" style="fill:#000000;fill-opacity:1;fill-rule:evenodd;stroke-width:0.327122" d="m 153.43052,169.73294 c -7.33133,-1.20054 -14.19537,-3.93737 -20.29091,-7.6439 l 0,0 c -6.90422,-4.18691 -12.94359,-9.41058 -18.22095,-15.1012 -11.3694,-12.24954 -19.955434,-26.59306 -26.545631,-41.48928 -0.237828,-0.53757 0.03668,-1.17426 0.611996,-1.42658 l 10.406343,-4.56413 c 0.575317,-0.252329 1.216572,-0.05135 1.440512,0.449276 6.20541,13.872234 13.96167,26.964404 24.05629,37.735224 l 0,0 c 4.65463,4.96155 9.71574,9.39199 15.28616,12.7215 l 0,0 c 4.87075,2.90105 10.10787,5.04617 15.41015,5.8688 0.4704,0.073 0.78188,0.62155 0.69775,1.24414 l -1.52185,11.26139 c -0.0841,0.62259 -0.67944,1.05127 -1.32986,0.94476 z" id="rect126-9" inkscape:path-effect="#path-effect129-6" inkscape:original-d="M -0.13396597,100.23712 H 97.49474 c 0.628196,0 1.133927,0.50573 1.133927,1.13393 v 11.36289 c 0,0.6282 -0.505731,1.13393 -1.133927,1.13393 H -0.13396597 c -0.62819575,0 -1.13392733,-0.50573 -1.13392733,-1.13393 v -11.36289 c 0,-0.6282 0.50573158,-1.13393 1.13392733,-1.13393 z" />
    <path sodipodi:type="star" style="fill:#000000;fill-opacity:1;fill-rule:evenodd;stroke-width:0.299135" id="path103-0" sodipodi:sides="3" sodipodi:cx="-115.84131" sodipodi:cy="100.93325" sodipodi:r1="8.4621315" sodipodi:r2="4.2310658" sodipodi:arg1="-1.3089969" sodipodi:arg2="-0.26179939" inkscape:flatsided="true" inkscape:rounded="0" inkscape:randomized="0" d="m -113.65115,92.759459 3.79347,14.157421 -14.15742,-3.79347 z" inkscape:transform-center-x="-0.88566039" inkscape:transform-center-y="-1.0510252" transform="matrix(-0.8842637,-0.0202316,-0.0202316,0.8842637,-4.2609035,30.827414)" />
    <rect style="fill:#9dde67;fill-opacity:1;fill-rule:evenodd;stroke-width:0.264583" id="rect98" width="11.228932" height="28.24963" x="59.197517" y="112.10413" rx="1.1339273" ry="1.1339273" transform="rotate(-11.370661)" />
    <circle style="fill:#9dde67;fill-rule:evenodd;stroke-width:0.264583" id="path10" cx="84.714348" cy="97.117126" r="21.981415" transform="rotate(-2.2989345)" />
    <circle style="fill:#9dde67;fill-rule:evenodd;stroke-width:0.264583" id="path10-8" cx="60.448021" cy="81.831551" r="21.981415" transform="rotate(-2.2989345)" />
    <path style="fill:#fae330;fill-rule:evenodd;stroke-width:0.264583" id="path42" sodipodi:type="arc" sodipodi:cx="59.402351" sodipodi:cy="79.197708" sodipodi:rx="17.096001" sodipodi:ry="17.096001" sodipodi:start="0" sodipodi:end="3.1353912" d="M 76.498352,79.197708 A 17.096001,17.096001 0 0 1 59.455361,96.293627 17.096001,17.096001 0 0 1 42.306679,79.303728" sodipodi:open="true" transform="rotate(-2.2989345)" sodipodi:arc-type="arc" />
    <path style="fill:#3a7c0e;fill-opacity:1;fill-rule:evenodd;stroke-width:0.299135" d="m 105.88533,142.30045 c 4.90185,0.98241 9.87785,1.55824 14.84345,1.50477 4.64175,-0.0577 9.29663,-0.63416 13.54425,-2.23896 0.66799,-0.25238 1.39428,-0.0192 1.64248,0.55777 0.2482,0.57693 -0.12363,1.28925 -0.845,1.56005 -4.58704,1.72195 -9.4999,2.34837 -14.31819,2.38888 -5.15549,0.0516 -10.28811,-0.53872 -15.3133,-1.54825 -0.73867,-0.14839 -1.2241,-0.77187 -1.09162,-1.38592 0.13248,-0.61405 0.8174,-0.98274 1.53793,-0.83834 z" id="rect59" inkscape:path-effect="#path-effect62" inkscape:original-d="m 107.43973,144.29762 h 24.80469 c 0.62819,0 1.13393,0.50573 1.13393,1.13393 0,0.6282 -0.50574,1.13393 -1.13393,1.13393 h -24.80469 c -0.6282,0 -1.13393,-0.50573 -1.13393,-1.13393 0,-0.6282 0.50573,-1.13393 1.13393,-1.13393 z" inkscape:connector-curvature="0" transform="matrix(0.88088318,-0.07985268,0.07985268,0.88088318,-22.425106,-15.943876)" />
    <rect style="fill:#000000;fill-opacity:1;fill-rule:evenodd;stroke-width:0.264583" id="rect64" width="4.3461351" height="13.915991" x="55.349068" y="79.287239" ry="1.1339273" rx="1.1339273" transform="rotate(-2.2989345)" />
    <rect style="fill:#3a7c0e;fill-opacity:1;fill-rule:evenodd;stroke-width:0.264583" id="rect81" width="1.7969596" height="7.1878386" x="99.02565" y="80.347961" rx="1.1339273" ry="1.1339273" transform="rotate(3.214391)" />
    <rect style="fill:#3a7c0e;fill-opacity:1;fill-rule:evenodd;stroke-width:0.264583" id="rect81-8" width="1.7969596" height="7.1878386" x="-75.114998" y="106.04461" rx="1.1339273" ry="1.1339273" transform="matrix(-0.97206809,0.23469902,0.23469902,0.97206809,0,0)" />
    <path style="fill:#000000;fill-opacity:1;fill-rule:evenodd;stroke-width:0.264583" d="m 80.686376,121.75177 23.573794,1.39927 c 0.55467,0.0328 0.98032,0.49495 0.95365,1.04995 l -3.6034,74.97348 c -0.0267,0.555 -0.49462,0.97245 -1.04995,0.95365 l -20.617547,-0.69806 c -0.555317,-0.0189 -1.94335,-0.75118 -1.94543,-1.30681 l -0.273602,-73.17261 c -0.0025,-0.55563 0.992679,-3.31578 2.962485,-3.19887 z" id="rect100" inkscape:connector-curvature="0" sodipodi:nodetypes="sssssssss" />
    <path sodipodi:type="star" style="fill:#000000;fill-opacity:1;fill-rule:evenodd;stroke-width:0.299135" id="path103" sodipodi:sides="3" sodipodi:cx="104.43954" sodipodi:cy="101.84617" sodipodi:r1="8.4621315" sodipodi:r2="4.2310658" sodipodi:arg1="-1.3089969" sodipodi:arg2="-0.26179939" inkscape:flatsided="true" inkscape:rounded="0" inkscape:randomized="0" d="m 106.6297,93.672377 3.79347,14.157423 -14.157424,-3.79347 z" inkscape:transform-center-x="1.0510252" inkscape:transform-center-y="-0.88565677" transform="matrix(0.88426371,0.02023159,-0.02023159,0.88426371,-4.2609037,30.827414)" />
    <path sodipodi:type="star" style="fill:#e0e1f3;fill-opacity:1;fill-rule:evenodd;stroke-width:0.204918" id="path120" sodipodi:sides="3" sodipodi:cx="116.99723" sodipodi:cy="150.40266" sodipodi:r1="9.5884686" sodipodi:r2="4.7942343" sodipodi:arg1="1.5707963" sodipodi:arg2="2.6179939" inkscape:flatsided="true" inkscape:rounded="0" inkscape:randomized="0" d="m 116.99723,159.99113 -8.30386,-14.3827 16.60772,0 z" inkscape:transform-center-x="-0.22091129" inkscape:transform-center-y="4.7491087" transform="matrix(0.82734155,0.01892924,-0.04607868,2.0139645,3.7423195,-173.08852)" />
    <rect style="fill:#000000;fill-opacity:1;fill-rule:evenodd;stroke-width:0.264583" id="rect122" width="6.0573506" height="6.0573506" x="84.609291" y="126.02857" rx="1.1339273" ry="1.1339273" transform="rotate(-2.9206825)" />
    <path sodipodi:type="star" style="fill:#000000;fill-opacity:1;fill-rule:evenodd;stroke-width:0.202168" id="path124" sodipodi:sides="3" sodipodi:cx="135.17155" sodipodi:cy="165.06908" sodipodi:r1="8.1949415" sodipodi:r2="4.0974708" sodipodi:arg1="-1.5707963" sodipodi:arg2="-0.52359878" inkscape:flatsided="true" inkscape:rounded="0" inkscape:randomized="0" d="m 135.17155,156.87414 7.09703,12.29241 -14.19405,0 z" inkscape:transform-center-x="0.20555111" inkscape:transform-center-y="-4.4285895" transform="matrix(0.78076373,0.01786356,-0.05016488,2.1925599,-3.4220372,-220.85593)" />
    <path style="fill:#000000;fill-opacity:1;fill-rule:evenodd;stroke-width:0.299135" d="m 153.43052,169.73294 c -7.33133,-1.20054 -14.19537,-3.93737 -20.29091,-7.6439 l 0,0 c -6.90422,-4.18691 -12.94359,-9.41058 -18.22095,-15.1012 -11.3694,-12.24954 -19.955434,-26.59306 -26.545631,-41.48928 -0.237828,-0.53757 0.03668,-1.17426 0.611996,-1.42658 l 10.406343,-4.56413 c 0.575317,-0.252329 1.216572,-0.05135 1.440512,0.449276 6.20541,13.872234 13.96167,26.964404 24.05629,37.735224 l 0,0 c 4.65463,4.96155 9.71574,9.39199 15.28616,12.7215 l 0,0 c 4.87075,2.90105 10.10787,5.04617 15.41015,5.8688 0.4704,0.073 0.78188,0.62155 0.69775,1.24414 l -1.52185,11.26139 c -0.0841,0.62259 -0.67944,1.05127 -1.32986,0.94476 z" id="rect126" inkscape:path-effect="#path-effect129" inkscape:original-d="M -0.13396597,100.23712 H 97.49474 c 0.628196,0 1.133927,0.50573 1.133927,1.13393 v 11.36289 c 0,0.6282 -0.505731,1.13393 -1.133927,1.13393 H -0.13396597 c -0.62819575,0 -1.13392733,-0.50573 -1.13392733,-1.13393 v -11.36289 c 0,-0.6282 0.50573158,-1.13393 1.13392733,-1.13393 z" inkscape:connector-curvature="0" transform="matrix(0.88449512,0,0,0.88449512,-8.0546375,33.844737)" />
    <circle style="fill:#9dde67;fill-opacity:1;fill-rule:evenodd;stroke-width:0.264583" id="path133" cx="136.18117" cy="178.5901" r="8.3204241" />
    <rect style="fill:#eca14f;fill-opacity:1;fill-rule:evenodd;stroke-width:0.264583" id="rect155" width="6.7636204" height="92.33535" x="144.30859" y="178.93713" rx="1.1339273" ry="1.1339273" transform="rotate(3.8725999)" />
    <path style="fill:#4d4d4d;fill-opacity:1;fill-rule:evenodd;stroke-width:0.264583" inkscape:transform-center-y="-1.9285106" d="m 67.101177,283.60883 13.284202,-11.571 8.846551,9.20691 z" id="path159" inkscape:connector-curvature="0" sodipodi:nodetypes="cccc" inkscape:transform-center-x="-1.1259576e-06" />
    <g aria-label="БАНжур, а я иван)" style="font-style:normal;font-variant:normal;font-weight:normal;font-stretch:normal;font-size:10.5833px;line-height:1.25;font-family:'Palatino Linotype';-inkscape-font-specification:'Palatino Linotype';letter-spacing:0px;word-spacing:0px;fill:#000000;fill-opacity:1;stroke:none;stroke-width:0.264583" id="text198" transform="rotate(47.795791,120.71325,90.486)" inkscape:path-effect="#path-effect229">
      <path d="m 126.54182,106.59068 c 0.17275,0.0931 0.34547,0.18628 0.51816,0.27943 0.47595,0.25672 0.86995,0.49868 1.18185,0.72565 0.31195,0.22701 0.55,0.47286 0.71423,0.73758 0.16422,0.26471 0.24885,0.5452 0.25389,0.84147 0.005,0.29627 -0.0692,0.58699 -0.22285,0.87212 -0.12584,0.23357 -0.29731,0.44059 -0.51445,0.62105 -0.2155,0.17743 -0.4625,0.31242 -0.741,0.40496 -0.27686,0.0895 -0.54926,0.13246 -0.81714,0.12889 -0.26335,-0.005 -0.51095,-0.0427 -0.74277,-0.113 -0.2302,-0.0733 -0.50192,-0.19449 -0.81516,-0.36352 -0.1625,-0.0877 -0.39395,-0.22041 -0.6948,-0.39838 -0.28338,-0.16853 -0.48589,-0.28556 -0.60764,-0.35118 -0.33612,-0.1812 -0.72539,-0.3753 -1.16717,-0.58175 -0.005,-0.0184 -0.0101,-0.0367 -0.0152,-0.0551 l 0.1224,-0.22754 c 0.0165,-0.003 0.0329,-0.006 0.0494,-0.009 0.25998,0.12815 0.44406,0.2097 0.55245,0.24459 0.11124,0.0364 0.19343,0.0435 0.24657,0.0213 0.0531,-0.0223 0.10916,-0.0743 0.16815,-0.15595 0.0606,-0.0847 0.19106,-0.30602 0.39128,-0.66384 0.20187,-0.36087 0.36488,-0.65654 0.48907,-0.88706 l 1.1348,-2.10649 c 0.16667,-0.30938 0.34124,-0.64386 0.52368,-1.00342 0.18702,-0.36103 0.28977,-0.5796 0.30826,-0.65573 0.0214,-0.0746 0.0235,-0.13411 0.006,-0.17865 -0.0128,-0.046 -0.0602,-0.10089 -0.14224,-0.16459 -0.0775,-0.0652 -0.24841,-0.17675 -0.51276,-0.33454 -0.006,-0.0169 -0.0118,-0.0338 -0.0178,-0.0507 l 0.1224,-0.22754 c 0.0174,-0.004 0.0347,-0.009 0.0521,-0.0131 0.3916,0.2413 1.50337,0.856 3.28971,1.8196 0.10622,0.0573 0.49926,0.25369 1.17168,0.58496 -7.2e-4,-0.005 0.0187,0.13836 0.018,0.13302 -0.20168,0.26313 -0.46237,0.65302 -0.78204,1.16961 -0.0152,0.007 -0.0305,0.0149 -0.0457,0.0223 -0.0536,-0.0289 -0.10724,-0.0578 -0.16086,-0.0867 -0.007,-0.0192 -0.013,-0.0383 -0.0195,-0.0575 0.0433,-0.12541 0.0866,-0.25081 0.12992,-0.37622 0.0513,-0.13675 0.0779,-0.25549 0.0799,-0.35622 0.006,-0.1022 -0.0181,-0.19181 -0.0739,-0.26884 -0.0541,-0.0801 -0.13297,-0.15588 -0.23662,-0.2274 -0.0991,-0.073 -0.24002,-0.15878 -0.42276,-0.25736 -0.46122,-0.24881 -0.9228,-0.49781 -1.3848,-0.74687 -0.0372,0.0133 -0.0743,0.0265 -0.11148,0.0398 -0.22076,0.34678 -0.45049,0.74153 -0.68925,1.18429 -0.19541,0.36238 -0.39082,0.72477 -0.58623,1.08716 z m -1.76367,3.27059 c 0.009,0.0383 0.0186,0.0766 0.0279,0.11492 0.2462,0.1406 0.41982,0.23817 0.52142,0.29299 0.40894,0.22064 0.77028,0.3354 1.084,0.34416 0.31662,0.0103 0.61949,-0.0788 0.90854,-0.26738 0.28907,-0.18859 0.5219,-0.44664 0.69855,-0.77417 0.15211,-0.28203 0.22359,-0.57429 0.21447,-0.87673 -0.006,-0.30089 -0.11242,-0.56567 -0.31862,-0.79437 -0.20325,-0.22708 -0.5922,-0.49572 -1.16682,-0.80564 -0.12336,-0.0665 -0.24672,-0.13306 -0.3701,-0.19958 1e-5,-1e-5 -1.59932,2.96581 -1.59932,2.9658 z" style="stroke-width:0.264583" id="path200" inkscape:connector-curvature="0" inkscape:original-d="m 116.73711,119.58257 h 0.61495 q 0.8475,0 1.44694,0.0775 0.59945,0.0775 1.0232,0.31005 0.42374,0.23255 0.65112,0.62012 0.22738,0.38757 0.22738,0.87333 0,0.39791 -0.16537,0.79065 -0.16536,0.38758 -0.48059,0.70797 -0.31523,0.31523 -0.6873,0.50126 -0.3669,0.18087 -0.73897,0.25321 -0.37207,0.0672 -0.93017,0.0672 -0.28939,0 -0.83716,-0.0207 -0.51677,-0.0207 -0.73381,-0.0207 -0.59944,0 -1.36426,0.0413 l -0.0413,-0.0413 v -0.25838 l 0.0413,-0.031 q 0.45476,-0.0155 0.63046,-0.0465 0.18086,-0.031 0.23771,-0.0982 0.0568,-0.0672 0.0775,-0.21704 0.0207,-0.15503 0.031,-0.76998 0.0103,-0.62012 0.0103,-1.01286 v -2.39262 q 0,-0.5271 -0.0155,-1.13171 -0.0103,-0.60978 -0.0413,-0.72347 -0.0258,-0.11369 -0.0827,-0.1602 -0.0517,-0.0517 -0.21188,-0.0775 -0.15502,-0.031 -0.63562,-0.0517 l -0.0413,-0.0362 v -0.25838 l 0.0413,-0.0362 q 0.72864,0.0413 3.92225,0.0413 0.1912,0 1.36942,-0.0413 l 0.0827,0.10852 q -0.0827,0.49093 -0.13952,1.40044 l -0.031,0.0413 h -0.1912 l -0.0465,-0.0413 -0.0672,-0.39275 q -0.031,-0.21704 -0.10335,-0.3514 -0.0672,-0.13952 -0.20154,-0.20153 -0.13436,-0.0672 -0.33073,-0.0878 -0.1912,-0.0258 -0.51676,-0.0258 h -1.64332 l -0.0827,0.0879 q -0.0465,0.61495 -0.0465,1.36942 z m 0,3.71554 0.0827,0.0879 q 0.44441,0.0103 0.62528,0.0103 0.72864,0 1.16789,-0.21187 0.44442,-0.21188 0.7028,-0.66663 0.25838,-0.45475 0.25838,-1.01286 0,-0.48059 -0.23771,-0.87333 -0.23255,-0.39274 -0.6873,-0.54777 -0.44958,-0.15503 -1.47278,-0.15503 h -0.43925 z" />
      <path d="m 128.28741,112.30592 c -3e-5,-8e-5 -0.0196,-0.0574 -0.0196,-0.0575 l 0.12742,-0.23663 c -1.4e-4,4e-5 0.0589,-0.0153 0.0588,-0.0152 0.21373,0.1113 0.35611,0.1742 0.42701,0.18873 0.0725,0.0116 0.1475,0.001 0.22502,-0.0315 0.082,-0.0341 0.28395,-0.17595 0.60547,-0.42556 -0.0172,0.0134 1.03257,-0.80559 1.01536,-0.79217 0.89706,-0.72287 1.79306,-1.44661 2.68747,-2.17159 0.51718,-0.43059 1.03229,-0.86229 1.54543,-1.2953 0.0938,0.0501 0.18767,0.10018 0.28149,0.15022 -0.1974,1.85495 -0.39024,3.71103 -0.57604,5.56904 -0.0248,0.24799 -0.0494,0.49602 -0.074,0.74408 -0.0187,0.21217 -0.0351,0.44508 -0.0491,0.69858 -0.0111,0.25504 -0.009,0.41021 0.007,0.46526 0.0188,0.0566 0.049,0.10948 0.0905,0.15858 0.046,0.0475 0.16205,0.12223 0.34805,0.22376 0.005,0.0183 0.0106,0.0367 0.016,0.055 l -0.12487,0.23793 c -0.0181,0.006 -0.0362,0.0121 -0.0544,0.0181 -0.29665,-0.19071 -0.56926,-0.35175 -0.81831,-0.4831 -0.49432,-0.24127 -0.98727,-0.48478 -1.47891,-0.73037 -0.005,-0.0184 -0.0104,-0.0367 -0.0157,-0.0551 l 0.12613,-0.2373 c 0.0181,-0.006 0.0363,-0.0119 0.0544,-0.0179 0.33029,0.16773 0.54238,0.26249 0.63544,0.28451 0.0948,0.019 0.1639,-0.0126 0.20745,-0.0948 0.0355,-0.067 0.0617,-0.16612 0.0789,-0.2974 0.0663,-0.55944 0.13318,-1.11871 0.2006,-1.67782 -0.84271,-0.44756 -1.68439,-0.89722 -2.52541,-1.34818 -0.36674,0.30378 -0.73369,0.6074 -1.1008,0.91088 -0.1968,0.1642 -0.32131,0.29481 -0.37348,0.39195 -0.0408,0.0759 -0.0316,0.15314 0.0274,0.23176 0.059,0.0786 0.24632,0.20462 0.56207,0.3778 0.007,0.0191 0.0132,0.0383 0.0198,0.0575 l -0.12696,0.23687 c -0.0181,0.006 -0.0363,0.0118 -0.0544,0.0177 -0.36287,-0.22575 -0.68511,-0.41441 -0.96743,-0.56613 -0.32006,-0.17201 -0.64939,-0.33356 -0.98802,-0.48463 0,0 4e-5,-4e-5 4e-5,-4e-5 z m 3.36009,-1.48602 c 0.73468,0.39379 1.4698,0.78649 2.20559,1.17758 0.12255,-1.11126 0.24717,-2.22195 0.37337,-3.33222 -0.85816,0.71937 -1.71797,1.43748 -2.57896,2.15464 z m 3.5925,-3.55274 z m -3.86415,7.0003 z" style="stroke-width:0.264583" id="path202" inkscape:connector-curvature="0" inkscape:original-d="m 121.17612,123.78386 -0.0465,-0.0413 v -0.26871 l 0.0465,-0.0413 q 0.37724,-0.005 0.48576,-0.0362 0.10852,-0.0362 0.1912,-0.13436 0.0878,-0.10335 0.34623,-0.66146 l 0.54261,-1.17822 1.40559,-3.18327 q 0.39791,-0.93534 0.79065,-1.87068 h 0.3359 l 2.20658,5.18831 0.29456,0.69246 q 0.12919,0.29456 0.29456,0.64079 0.17053,0.34623 0.23254,0.40825 0.0672,0.062 0.1602,0.0982 0.0982,0.031 0.42891,0.0362 l 0.0413,0.0413 v 0.26871 l -0.0413,0.0413 q -0.54777,-0.0465 -0.98702,-0.0465 -0.85783,0.0258 -1.71566,0.0465 l -0.0413,-0.0413 v -0.26871 l 0.0413,-0.0413 q 0.57878,-0.0103 0.72347,-0.0465 0.1447,-0.0413 0.1447,-0.18087 0,-0.11369 -0.0724,-0.29972 l -0.63562,-1.57614 h -2.99207 l -0.56327,1.32292 q -0.14986,0.35657 -0.14986,0.52193 0,0.12919 0.13953,0.19121 0.13952,0.062 0.7028,0.0672 l 0.0465,0.0413 v 0.26871 l -0.0413,0.0413 q -0.66662,-0.0413 -1.16788,-0.0413 -0.56844,0 -1.14722,0.0413 z m 2.35644,-2.89904 h 2.61483 l -1.29708,-3.11609 z m 1.5658,-4.82658 z m -0.11886,7.99434 z" />
      <path d="m 138.73112,109.54661 c 0.71794,0.40669 1.13478,0.63827 1.2191,0.68203 0.0876,0.0454 0.52353,0.25643 1.26189,0.60515 0.006,0.0167 0.0121,0.0333 0.0181,0.05 l -0.118,0.22983 c -0.0171,0.005 -0.0341,0.01 -0.0512,0.0144 -0.20267,-0.0964 -0.36188,-0.16684 -0.47811,-0.21125 -0.11327,-0.0429 -0.20314,-0.0602 -0.26966,-0.052 -0.0665,0.008 -0.14092,0.0706 -0.22312,0.18714 -0.0777,0.11493 -0.17355,0.28257 -0.28746,0.50288 -0.18483,0.3504 -0.36967,0.7008 -0.55452,1.05119 l -0.33226,0.64259 c 0.62863,0.34836 1.22891,0.66794 1.80142,0.95951 0.78145,0.39797 1.3855,0.68979 1.80346,0.87591 l 0.32372,-0.64687 c 0.14739,-0.3018 0.29479,-0.60358 0.4422,-0.90536 0.17291,-0.35253 0.27754,-0.58336 0.31382,-0.69227 0.0364,-0.1089 0.05,-0.18683 0.0409,-0.2338 -0.009,-0.0469 -0.0474,-0.10075 -0.11478,-0.16156 -0.0675,-0.0609 -0.25281,-0.17497 -0.55649,-0.34364 -0.005,-0.0159 -0.009,-0.0318 -0.0141,-0.0477 l 0.11643,-0.23062 c 0.0156,-0.006 0.0311,-0.0113 0.0467,-0.017 0.72006,0.39397 1.14486,0.62064 1.22686,0.66149 0.0887,0.0442 0.52966,0.24885 1.26511,0.57973 0.006,0.0165 0.0125,0.033 0.0188,0.0495 l -0.11387,0.2319 c -0.0169,0.005 -0.0338,0.0103 -0.0507,0.0154 -0.20626,-0.0936 -0.36725,-0.16155 -0.48369,-0.20364 -0.11345,-0.0406 -0.2032,-0.0562 -0.26932,-0.0467 -0.0661,0.009 -0.13783,0.0739 -0.21507,0.19329 -0.0757,0.11625 -0.17012,0.28477 -0.28323,0.50549 -0.1789,0.35344 -0.3578,0.70688 -0.53673,1.06031 l -1.06294,2.14314 c -0.14628,0.30233 -0.29255,0.60467 -0.43881,0.90701 -0.17009,0.35017 -0.27287,0.57979 -0.30842,0.68908 -0.0357,0.1092 -0.0485,0.18743 -0.0385,0.23468 0.013,0.0487 0.052,0.10454 0.11717,0.16756 0.0695,0.0612 0.26098,0.17724 0.57386,0.34632 0.007,0.0151 0.0147,0.0303 0.0221,0.0454 l -0.11387,0.2319 c -0.018,0.006 -0.036,0.013 -0.054,0.0195 -0.76732,-0.40828 -1.15787,-0.61865 -1.26519,-0.67213 -0.10603,-0.0528 -0.51779,-0.24228 -1.29765,-0.60458 -0.004,-0.0175 -0.008,-0.0351 -0.0126,-0.0526 l 0.11643,-0.23061 c 0.015,-0.004 0.0301,-0.008 0.0451,-0.012 0.28462,0.12819 0.4781,0.20599 0.57918,0.23364 0.10124,0.0277 0.17366,0.0351 0.2172,0.0222 0.0451,-0.0159 0.10198,-0.0664 0.17055,-0.1515 0.0686,-0.0851 0.18531,-0.2924 0.35028,-0.62202 0.16559,-0.3235 0.33117,-0.64701 0.49674,-0.97052 l 0.52719,-1.05348 c -0.87707,-0.46251 -1.44293,-0.76181 -1.80911,-0.94834 -0.36266,-0.18474 -0.95182,-0.474 -1.80156,-0.88999 l -0.54111,1.0465 c -0.15285,0.29908 -0.30569,0.59816 -0.45853,0.89724 -0.17596,0.34727 -0.28262,0.57516 -0.32003,0.68382 -0.0375,0.10857 -0.0517,0.18655 -0.0425,0.23394 0.0121,0.0489 0.0515,0.10607 0.11838,0.17162 0.0683,0.0624 0.2558,0.18054 0.56203,0.3533 0.007,0.0152 0.0141,0.0305 0.0212,0.0457 l -0.11801,0.22983 c -0.0181,0.006 -0.0362,0.0124 -0.0543,0.0186 -0.75047,-0.41676 -1.14584,-0.6376 -1.25037,-0.69181 -0.098,-0.0508 -0.51202,-0.24981 -1.28061,-0.62055 -0.005,-0.0183 -0.0107,-0.0367 -0.0161,-0.055 l 0.11981,-0.22892 c 0.0165,-0.003 0.033,-0.006 0.0495,-0.009 0.27924,0.13052 0.46954,0.21026 0.57005,0.23937 0.10062,0.0292 0.17279,0.0376 0.21647,0.0254 0.0482,-0.0138 0.10581,-0.0634 0.17277,-0.14891 0.0699,-0.0841 0.19131,-0.28877 0.36435,-0.61427 0.16917,-0.32167 0.33833,-0.64334 0.50749,-0.96502 l 1.10427,-2.1224 c 0.15213,-0.29947 0.30427,-0.59893 0.45641,-0.89839 0.17846,-0.34981 0.28667,-0.57899 0.3246,-0.68738 0.0409,-0.10687 0.0556,-0.18464 0.0442,-0.23331 -0.009,-0.0471 -0.0462,-0.10171 -0.11305,-0.16378 -0.0669,-0.0622 -0.2501,-0.17894 -0.54996,-0.35141 -0.006,-0.0167 -0.0119,-0.0335 -0.0178,-0.0502 l 0.11981,-0.22892 c 0.0172,-0.005 0.0344,-0.009 0.0516,-0.0141 z" style="stroke-width:0.264583" id="path204" inkscape:connector-curvature="0" inkscape:original-d="m 129.48052,116.44064 q 1.31775,0.0413 1.47795,0.0413 0.17053,0 1.48311,-0.0413 l 0.0413,0.0362 v 0.25838 l -0.0413,0.0362 q -0.35657,0.0103 -0.55294,0.031 -0.1912,0.0207 -0.27905,0.0775 -0.0879,0.0568 -0.11886,0.26872 -0.0258,0.20671 -0.0258,0.57878 l -0.0103,1.18855 v 0.72347 q 1.13171,0.031 2.14457,0.031 1.38493,0 2.1084,-0.031 v -0.72347 l -0.0103,-1.00769 q -0.005,-0.58911 -0.031,-0.75964 -0.0258,-0.17053 -0.0724,-0.22738 -0.0465,-0.0568 -0.18603,-0.093 -0.13953,-0.0362 -0.69247,-0.0568 l -0.0362,-0.0362 v -0.25838 l 0.0362,-0.0362 q 1.32292,0.0413 1.48312,0.0413 0.1757,0 1.48311,-0.0413 l 0.0413,0.0362 v 0.25838 l -0.0413,0.0362 q -0.36173,0.0103 -0.5581,0.031 -0.19121,0.0207 -0.27906,0.0775 -0.0879,0.0568 -0.11369,0.26872 -0.0258,0.20671 -0.031,0.57878 l -0.0103,1.18855 v 2.39262 l 0.0103,1.00769 q 0.005,0.58395 0.031,0.75448 0.0258,0.17053 0.0724,0.22738 0.0517,0.0568 0.18604,0.0982 0.13952,0.0362 0.69246,0.0569 l 0.0413,0.031 v 0.25838 l -0.0413,0.0413 q -1.32292,-0.0413 -1.48311,-0.0413 -0.16537,0 -1.48312,0.0413 l -0.0362,-0.0413 v -0.25838 l 0.0362,-0.031 q 0.48576,-0.0207 0.64596,-0.0517 0.1602,-0.031 0.21187,-0.0775 0.0517,-0.0517 0.0879,-0.21187 0.0362,-0.1602 0.0362,-0.71313 l 0.0103,-1.09038 v -1.17822 q -1.52962,-0.031 -2.14457,-0.031 -0.63045,0 -2.1084,0.031 v 1.17822 l 0.005,1.00769 q 0.005,0.58395 0.031,0.75448 0.0258,0.17053 0.0724,0.22738 0.0517,0.0568 0.1912,0.0982 0.13953,0.0362 0.6873,0.0569 l 0.0413,0.031 v 0.25838 l -0.0413,0.0413 q -1.31775,-0.0413 -1.48311,-0.0413 -0.1602,0 -1.47795,0.0413 l -0.0413,-0.0413 v -0.25838 l 0.0413,-0.031 q 0.48059,-0.0207 0.64079,-0.0517 0.1602,-0.031 0.21187,-0.0775 0.0568,-0.0517 0.0879,-0.21187 0.0362,-0.1602 0.0413,-0.71313 l 0.005,-1.09038 v -2.39262 l -0.0103,-1.00769 q -0.005,-0.58911 -0.031,-0.75964 -0.0207,-0.17053 -0.0724,-0.22738 -0.0465,-0.0568 -0.18603,-0.093 -0.13953,-0.0362 -0.6873,-0.0568 l -0.0413,-0.0362 v -0.25838 z" />
      <path d="m 145.39336,121.04807 0.0928,-0.19628 c 0.0157,-0.006 0.0314,-0.0118 0.0471,-0.0177 0.19696,0.0589 0.3459,0.0909 0.44641,0.0964 0.10356,0.007 0.18067,-0.005 0.23131,-0.0341 0.0521,-0.0327 0.0965,-0.0804 0.13319,-0.14312 0.0367,-0.0627 0.12241,-0.22626 0.25705,-0.49051 0.13608,-0.26732 0.23923,-0.47611 0.30931,-0.6259 l 0.17528,-0.37465 c -0.0418,-0.0196 -0.0836,-0.0392 -0.12543,-0.0588 -0.46563,0.17758 -0.95782,0.37973 -1.47659,0.60592 -0.21712,0.097 -0.40575,0.17819 -0.56482,0.24356 -0.24379,0.10027 -0.41966,0.16392 -0.5264,0.19117 -0.17366,0.0465 -0.34528,0.0538 -0.51467,0.0217 -0.16897,-0.032 -0.50421,-0.15923 -1.00196,-0.38325 -0.006,-0.0182 -0.0118,-0.0364 -0.0177,-0.0546 l 0.0953,-0.19499 c 0.0172,-0.005 0.0345,-0.01 0.0517,-0.015 0.13454,0.0427 0.2535,0.0643 0.35679,0.0647 0.10328,4.5e-4 0.23884,-0.0237 0.40645,-0.0726 0.16508,-0.0481 0.56617,-0.19264 1.18558,-0.43204 0.15643,-0.0596 0.31273,-0.11947 0.46889,-0.17945 0.38199,-0.14667 0.76325,-0.29444 1.14366,-0.44336 -0.14195,-0.36601 -0.2853,-0.71544 -0.43056,-1.04863 0,0 0,0 0,0 -0.0511,-0.11727 -0.10243,-0.23252 -0.154,-0.34575 -0.19674,-0.43841 -0.34833,-0.72747 -0.45812,-0.8688 -0.10513,-0.14272 -0.24331,-0.27673 -0.41458,-0.40227 -0.004,-0.0174 -0.009,-0.0348 -0.0128,-0.0521 l 0.095,-0.1951 c 0.0156,-0.006 0.0311,-0.0117 0.0467,-0.0175 0.21659,0.13607 0.40725,0.24375 0.57161,0.32317 0.10226,0.0494 0.3103,0.13462 0.62143,0.2533 0.005,0.0158 0.0102,0.0316 0.0152,0.0474 l -0.0894,0.18638 c -0.0604,-0.01 -0.0988,0.002 -0.11519,0.0365 -0.009,0.0186 -0.0142,0.0447 -0.0159,0.0784 0.001,0.0335 0.0432,0.20184 0.12659,0.5031 0,0 0,0 0,0 0,0 0,0 0,0 -1e-5,-4e-5 0.009,0.0315 0.009,0.0314 0.0938,0.31954 0.19204,0.63904 0.29493,0.95842 0.10728,0.3175 0.23274,0.66083 0.37669,1.02887 0.0388,0.0182 0.0776,0.0363 0.11638,0.0545 l 0.15775,-0.33719 c 0.0497,-0.10626 0.13352,-0.29703 0.25177,-0.57292 0.12264,-0.2775 0.2,-0.45822 0.23203,-0.54217 0.0336,-0.0871 0.0458,-0.15934 0.0367,-0.21687 -0.005,-0.0593 -0.0411,-0.12765 -0.10909,-0.20525 -0.0681,-0.0776 -0.18762,-0.17178 -0.35868,-0.28296 -0.004,-0.0173 -0.009,-0.0347 -0.0133,-0.052 l 0.0928,-0.19627 c 0.0155,-0.006 0.0309,-0.0121 0.0464,-0.0181 0.40019,0.21917 0.7295,0.38805 0.98594,0.50718 0.25908,0.12036 0.59952,0.26263 1.01825,0.4237 -1e-5,-2e-5 0.0204,0.0492 0.0204,0.0491 l -0.0903,0.19757 c -2e-5,0 -0.0527,0.0214 -0.0527,0.0214 -0.19947,-0.057 -0.34544,-0.0863 -0.43832,-0.0872 -0.0914,-0.004 -0.16054,0.006 -0.2075,0.0297 -0.0425,0.0221 -0.082,0.057 -0.11849,0.10478 -0.0335,0.0491 -0.1205,0.21401 -0.26107,0.49462 -0.13918,0.27758 -0.24852,0.50221 -0.32815,0.67438 l -0.1563,0.33794 c 0.0389,0.018 0.0778,0.0359 0.11668,0.0539 0.36704,-0.12675 0.70501,-0.25256 1.01407,-0.37689 0.31208,-0.12299 0.62104,-0.25362 0.92685,-0.3919 0.30981,-0.13991 0.47719,-0.22258 0.50148,-0.24531 0.0275,-0.0217 0.0448,-0.0404 0.0519,-0.0562 0.0169,-0.0378 0.002,-0.0765 -0.0441,-0.11618 l 0.0847,-0.18876 c -1e-5,0 0.046,-0.0191 0.0459,-0.0191 0.29318,0.16152 0.49197,0.26469 0.59221,0.30908 0.169,0.0748 0.37201,0.14928 0.60863,0.22271 0,-2e-5 0.0211,0.0488 0.0211,0.0488 l -0.087,0.19906 c -2e-5,1e-5 -0.0522,0.0223 -0.0522,0.0223 -0.20857,-0.0499 -0.40455,-0.0684 -0.5882,-0.0553 -0.18116,0.0144 -0.4956,0.0877 -0.94823,0.21762 -0.44778,0.12799 -0.92401,0.27781 -1.42903,0.44887 0.13361,0.42181 0.31987,0.97678 0.55664,1.64272 0.23778,0.66178 0.39729,1.07681 0.4591,1.21705 0.0653,0.14178 0.13044,0.25135 0.1952,0.32864 0.0662,0.0741 0.16111,0.14949 0.28492,0.22588 -10e-6,-2e-5 0.0224,0.0492 0.0224,0.0492 l -0.0866,0.19922 c -1e-5,1e-5 -0.0534,0.0219 -0.0534,0.0219 -0.51248,-0.24157 -0.83455,-0.42094 -0.96429,-0.53113 -0.12737,-0.10942 -0.23045,-0.24414 -0.30911,-0.40399 -0.0767,-0.16195 -0.20325,-0.53398 -0.37201,-1.10948 -0.15933,-0.54199 -0.32036,-1.04779 -0.48464,-1.51866 -0.0419,-0.0194 -0.0839,-0.0387 -0.12577,-0.0581 l -0.17367,0.37548 c -0.0492,0.10628 -0.13455,0.29875 -0.25584,0.57678 -0.11685,0.27638 -0.19107,0.45675 -0.22265,0.54086 -0.0316,0.0841 -0.0446,0.15598 -0.0391,0.21552 0.009,0.0609 0.0481,0.13049 0.11868,0.20858 0.072,0.0749 0.19415,0.16912 0.36649,0.28212 -1e-5,-10e-6 0.0214,0.0496 0.0214,0.0496 l -0.0903,0.19756 c -1e-5,1e-5 -0.0537,0.0209 -0.0537,0.0209 -0.4123,-0.21904 -0.74757,-0.38966 -1.0119,-0.51279 -0.26689,-0.12433 -0.61537,-0.27226 -1.04679,-0.44604 -0.005,-0.0174 -0.009,-0.0348 -0.014,-0.0522 z" style="stroke-width:0.264583" id="path206" inkscape:connector-curvature="0" inkscape:original-d="m 141.12839,123.74252 v -0.21704 l 0.0362,-0.0362 q 0.31523,-0.0465 0.45992,-0.10335 0.14986,-0.0568 0.20154,-0.1292 0.0517,-0.0775 0.062,-0.18603 0.0103,-0.10852 0.0258,-0.55294 0.0155,-0.44958 0.0155,-0.69763 v -0.41341 h -0.14469 q -0.5426,0.53743 -1.12138,1.17822 -0.60978,0.6873 -0.82682,0.863 -0.21187,0.1757 -0.47026,0.24288 -0.25838,0.0672 -1.10587,0.093 l -0.0413,-0.0413 v -0.21704 l 0.0413,-0.0362 q 0.21704,-0.031 0.36173,-0.0982 0.1447,-0.0672 0.34623,-0.24288 0.20154,-0.1757 0.91468,-0.90433 l 1.24023,-1.25574 q -0.60461,-0.54777 -1.18339,-1.00769 -0.57877,-0.46509 -0.83199,-0.58394 -0.24805,-0.12403 -0.57878,-0.18087 l -0.0362,-0.0413 v -0.21704 l 0.0362,-0.0362 q 0.40308,0.0413 0.69247,0.0413 0.18087,0 0.70797,-0.0413 l 0.0362,0.0362 v 0.2067 q -0.093,0.0258 -0.093,0.0827 0,0.031 0.0207,0.0775 0.0258,0.0465 0.37207,0.42375 0.3514,0.37207 0.71314,0.73897 0.3669,0.36173 0.81649,0.76998 h 0.13435 v -0.37207 q 0,-0.1757 -0.0155,-0.62529 -0.0103,-0.45475 -0.0207,-0.58911 -0.0103,-0.13953 -0.062,-0.21187 -0.0465,-0.0775 -0.19637,-0.13953 -0.14986,-0.062 -0.47026,-0.10335 l -0.0362,-0.0413 v -0.21704 l 0.0362,-0.0362 q 0.72347,0.0413 1.17306,0.0413 0.45475,0 1.16789,-0.0413 l 0.0413,0.0362 v 0.21704 l -0.0413,0.0413 q -0.32557,0.0465 -0.45993,0.10335 -0.13435,0.0517 -0.18603,0.11369 -0.0465,0.0568 -0.0672,0.14469 -0.0155,0.0879 -0.031,0.55811 -0.0155,0.46509 -0.0155,0.74931 v 0.37207 h 0.13436 q 0.43925,-0.40308 0.80098,-0.76481 0.36691,-0.36174 0.71831,-0.73898 0.35656,-0.3824 0.37724,-0.42891 0.0258,-0.0465 0.0258,-0.0724 0,-0.062 -0.093,-0.0879 v -0.2067 l 0.0362,-0.0362 q 0.53227,0.0413 0.70797,0.0413 0.29455,0 0.68729,-0.0413 l 0.0413,0.0362 v 0.21704 l -0.0413,0.0413 q -0.33589,0.0568 -0.59428,0.18603 -0.25321,0.12919 -0.82165,0.58395 -0.56327,0.44958 -1.17306,0.99735 0.47026,0.4961 1.23507,1.26607 0.76481,0.76482 0.94568,0.92501 0.18087,0.15503 0.32039,0.22221 0.13953,0.062 0.36174,0.093 l 0.0413,0.0362 v 0.21704 l -0.0413,0.0413 q -0.87333,-0.0258 -1.12655,-0.0982 -0.24804,-0.0724 -0.45992,-0.24288 -0.21187,-0.1757 -0.82165,-0.85783 -0.57361,-0.64079 -1.11621,-1.17822 h -0.1447 v 0.41341 q 0,0.1757 0.0103,0.63045 0.0155,0.44959 0.0258,0.58395 0.0103,0.13435 0.0568,0.21187 0.0517,0.0775 0.20154,0.13953 0.14986,0.0568 0.46509,0.10335 l 0.0413,0.0362 v 0.21704 l -0.0413,0.0413 q -0.71831,-0.0413 -1.16789,-0.0413 -0.45475,0 -1.17306,0.0413 z" />
      <path d="m 149.55419,124.90347 c -1.1e-4,-3e-5 0.15751,0.0342 0.1574,0.0342 0.002,0.21861 0.0518,0.38273 0.14961,0.49216 0.0965,0.11259 0.22493,0.20306 0.3853,0.2711 0.29565,0.12543 0.58596,0.12373 0.86886,-0.005 0.28075,-0.12498 0.76291,-0.52538 1.43368,-1.20361 -0.002,-0.89277 0.003,-1.78432 0.0147,-2.67467 0.005,-0.62983 0.0124,-1.25907 0.0235,-1.88771 0.002,-0.16383 -0.0166,-0.30133 -0.0573,-0.41253 -0.0408,-0.11121 -0.16562,-0.23593 -0.37422,-0.37499 -0.005,-0.0172 -0.01,-0.0343 -0.0149,-0.0515 l 0.0862,-0.19937 c 0.0152,-0.007 0.0304,-0.0131 0.0456,-0.0197 0.34272,0.17827 0.65893,0.32826 0.94791,0.45052 0.31881,0.13488 0.64184,0.25503 0.96877,0.36031 0.007,0.0161 0.0147,0.0322 0.022,0.0483 l -0.0828,0.20077 c -0.0172,0.008 -0.0344,0.0156 -0.0516,0.0234 -0.24764,-0.0538 -0.40376,-0.0706 -0.46901,-0.0492 -0.0652,0.0214 -0.10905,0.0591 -0.13164,0.11312 -0.0173,0.0414 -0.0277,0.0874 -0.0314,0.13821 -0.003,0.0488 -0.0103,0.25376 -0.0182,0.60304 -0.02,0.91194 -0.033,1.82512 -0.0386,2.73958 0.0294,0.0119 0.0588,0.0238 0.0881,0.0357 0.53904,-0.56271 1.0735,-1.1283 1.60306,-1.69685 0.31147,-0.33475 0.49461,-0.54155 0.54643,-0.61226 0.0557,-0.0707 0.0942,-0.1333 0.11555,-0.18781 0.0277,-0.0706 0.0299,-0.13819 0.007,-0.20287 -0.022,-0.0679 -0.0623,-0.12455 -0.1208,-0.16993 -0.0587,-0.0455 -0.17214,-0.11811 -0.34092,-0.21903 0,-1e-5 -0.0162,-0.051 -0.0162,-0.051 l 0.0806,-0.2016 c -1e-5,0 0.0449,-0.021 0.0449,-0.021 0.31602,0.15605 0.59911,0.28231 0.84813,0.37943 0.27911,0.10885 0.54254,0.19543 0.78979,0.26011 0.008,0.0159 0.0155,0.0317 0.0232,0.0476 l -0.077,0.20288 c -0.0169,0.008 -0.0339,0.0166 -0.0508,0.0249 -0.15631,-0.0337 -0.29107,-0.0338 -0.40449,9e-5 -0.1505,0.0491 -0.34782,0.18334 -0.59336,0.40206 -0.1978,0.17658 -0.73676,0.7353 -1.7334,1.75017 -0.6627,0.67061 -1.33263,1.33663 -2.00914,1.99826 -0.49784,0.48116 -0.88189,0.78926 -1.1461,0.92546 -0.26275,0.14089 -0.51049,0.21663 -0.74242,0.22742 -0.22874,0.0121 -0.46035,-0.0317 -0.69394,-0.13157 -0.16099,-0.0688 -0.29623,-0.16264 -0.40553,-0.28119 0.15155,-0.38518 0.26938,-0.7438 0.35378,-1.0754 0,0 5e-5,0 5e-5,0 z" style="stroke-width:0.264583" id="path208" inkscape:connector-curvature="0" inkscape:original-d="m 146.6371,125.53053 0.16019,-0.031 q 0.13436,0.29973 0.3359,0.39274 0.20154,0.0982 0.46509,0.0982 0.48576,0 0.80615,-0.34107 0.3204,-0.33589 0.8785,-1.65881 l -1.04386,-2.4753 -0.74931,-1.74666 q -0.0982,-0.22738 -0.22738,-0.35657 -0.12919,-0.12919 -0.52193,-0.19637 l -0.0362,-0.0413 v -0.21704 l 0.0362,-0.0362 q 0.61495,0.0413 1.11621,0.0413 0.55294,0 1.10071,-0.0413 l 0.0413,0.0362 v 0.21704 l -0.0413,0.0413 q -0.39791,0.0672 -0.48059,0.13436 -0.0827,0.0672 -0.0827,0.15503 0,0.0672 0.0258,0.13952 0.0258,0.0724 0.22738,0.56328 l 1.04903,2.54764 h 0.0982 l 0.894,-2.17041 q 0.26355,-0.64078 0.29972,-0.76998 0.0413,-0.12919 0.0413,-0.21704 0,-0.11368 -0.0723,-0.1912 -0.0724,-0.0827 -0.18604,-0.11369 -0.11369,-0.031 -0.42374,-0.0775 l -0.0362,-0.0413 v -0.21704 l 0.0362,-0.0362 q 0.56327,0.0413 0.99218,0.0413 0.48059,0 0.88884,-0.0413 l 0.0413,0.0362 v 0.21704 l -0.0413,0.0413 q -0.25322,0.0362 -0.40308,0.14469 -0.19637,0.14986 -0.43408,0.58911 -0.1757,0.32556 -1.01803,2.26343 l -1.14205,2.60449 q -0.42374,0.95085 -0.71313,1.29191 -0.28422,0.34624 -0.59945,0.4961 -0.31006,0.14986 -0.69246,0.14986 -0.26355,0 -0.48576,-0.0982 -0.0207,-0.62011 -0.10335,-1.12654 z" />
      <path d="m 158.80201,121.29115 c 0.0202,0.0292 0.0403,0.0584 0.0605,0.0875 -0.16706,0.37197 -0.30095,0.69296 -0.40157,0.96438 0.2565,-0.12019 0.50483,-0.23118 0.74522,-0.33282 0.24184,-0.10502 0.39983,-0.1664 0.47732,-0.18347 0.0813,-0.0192 0.19201,-0.021 0.33224,-0.006 0.14028,0.0153 0.30559,0.0553 0.49654,0.1194 0.55421,0.18619 0.9319,0.51378 1.13806,0.99096 0.20689,0.47322 0.22375,1.00291 0.0422,1.58787 -0.0755,0.24324 -0.1895,0.4782 -0.34307,0.70431 -0.15359,0.22614 -0.32483,0.42314 -0.51411,0.59077 -0.18599,0.16855 -0.32267,0.27144 -0.4084,0.30899 -0.0836,0.0339 -0.31185,0.0982 -0.67943,0.1872 -0.14923,0.0345 -0.30351,0.0779 -0.46296,0.1301 -0.22496,0.0699 -0.37481,0.11302 -0.4437,0.1293 -0.0654,0.0143 -0.1689,0.014 -0.31013,-0.001 -0.13919,-0.011 -0.28407,-0.0424 -0.43437,-0.0943 -0.33258,-0.11489 -0.63289,-0.31723 -0.89823,-0.60598 l -0.32571,0.90927 c -0.0882,0.24617 -0.19338,0.56005 -0.31496,0.94054 -0.11846,0.38185 -0.17319,0.60172 -0.16443,0.6597 0.0108,0.0623 0.0378,0.11034 0.0811,0.14394 0.0462,0.0345 0.19843,0.11075 0.45556,0.22603 0.0102,0.0181 0.0204,0.0363 0.0306,0.0544 l -0.0716,0.20475 c -0.0199,0.009 -0.0398,0.0189 -0.0597,0.0284 -0.38573,-0.1638 -0.74415,-0.30623 -1.07756,-0.4269 -0.33325,-0.12061 -0.69947,-0.24046 -1.09893,-0.36061 -0.008,-0.0194 -0.0151,-0.0387 -0.0226,-0.0581 l 0.0764,-0.20311 c 0.0178,-0.008 0.0356,-0.0161 0.0533,-0.0241 0.25301,0.0727 0.40749,0.11114 0.46055,0.11614 0.0567,0.006 0.10181,-0.001 0.13525,-0.0217 0.0355,-0.0163 0.0716,-0.0544 0.10843,-0.11424 0.0388,-0.0555 0.13614,-0.27469 0.29179,-0.65779 0.15432,-0.37952 0.25964,-0.64613 0.31539,-0.7977 l 1.36789,-3.71857 c 0.0535,-0.14552 0.1157,-0.33348 0.18678,-0.56429 0.0753,-0.23283 0.11502,-0.36868 0.11901,-0.40759 0.004,-0.0389 -0.008,-0.0763 -0.036,-0.11242 -0.0238,-0.0382 -0.0932,-0.0785 -0.20833,-0.12136 -0.0169,-0.006 -0.11512,-0.0465 -0.28693,-0.1184 -0.009,-0.018 -0.0175,-0.036 -0.0263,-0.054 l 0.0782,-0.20794 c 0.0175,-0.01 0.035,-0.0199 0.0525,-0.0299 0.57119,0.11925 1.06665,0.16419 1.484,0.13856 0,-4e-5 0,-9e-5 1e-5,-1.3e-4 z m -1.30425,3.74083 c 0.22691,0.50542 0.58022,0.84157 1.05456,1.00384 0.48719,0.16666 0.93392,0.10585 1.33347,-0.17978 0.40315,-0.28489 0.68921,-0.70075 0.86429,-1.24478 0.10753,-0.33414 0.14252,-0.65202 0.10685,-0.95297 -0.0315,-0.30331 -0.14172,-0.56552 -0.32993,-0.78749 -0.18521,-0.22102 -0.40193,-0.37385 -0.65196,-0.45929 -0.16771,-0.0573 -0.34033,-0.0805 -0.51842,-0.0696 -0.1739,0.009 -0.34701,0.0482 -0.51962,0.11865 -0.17266,0.0704 -0.3025,0.14464 -0.38933,0.22335 -0.0868,0.0787 -0.14267,0.14275 -0.16738,0.19246 -0.0247,0.0497 -0.0603,0.13937 -0.10671,0.269 -0.22527,0.62887 -0.45055,1.25774 -0.67582,1.88661 z" style="stroke-width:0.264583" id="path210" inkscape:connector-curvature="0" inkscape:original-d="m 154.18702,118.75575 0.093,0.062 q -0.0517,0.60978 -0.0568,1.04386 0.32039,-0.29972 0.63045,-0.56327 0.31006,-0.26872 0.41858,-0.33073 0.11369,-0.0672 0.33589,-0.11369 0.22221,-0.0465 0.54778,-0.0465 0.94567,0 1.49344,0.58912 0.54777,0.58394 0.54777,1.50378 0,0.38241 -0.12402,0.77515 -0.12402,0.39274 -0.32556,0.7183 -0.19637,0.32556 -0.30489,0.41858 -0.10852,0.0879 -0.60462,0.38757 -0.20153,0.11886 -0.40824,0.26872 -0.29456,0.2067 -0.38757,0.26355 -0.0879,0.0517 -0.29973,0.0982 -0.2067,0.0517 -0.44958,0.0517 -0.53744,0 -1.0697,-0.27389 v 0.96635 q 0,0.39274 0.0207,0.99219 0.0258,0.59945 0.0672,0.67696 0.0465,0.0827 0.12402,0.10852 0.0827,0.0258 0.50126,0.062 l 0.0465,0.0413 v 0.21704 l -0.0465,0.0465 q -0.62012,-0.0413 -1.14722,-0.0413 -0.5271,0 -1.14721,0.0413 l -0.0413,-0.0465 v -0.21704 l 0.0413,-0.0413 q 0.39274,-0.031 0.47025,-0.0517 0.0827,-0.0207 0.11886,-0.0672 0.0413,-0.0413 0.062,-0.1447 0.0258,-0.0982 0.0465,-0.7183 0.0207,-0.61495 0.0207,-0.85783 v -3.96358 q 0,-0.23254 -0.0207,-0.59428 -0.0155,-0.3669 -0.031,-0.42374 -0.0155,-0.0568 -0.0775,-0.093 -0.0568,-0.0413 -0.25322,-0.0413 -0.031,0 -0.33072,-0.0103 l -0.0465,-0.0413 v -0.22221 l 0.0413,-0.0465 q 0.92501,-0.13436 1.54512,-0.3824 z m 0.0362,3.96358 q 0.59428,0.59945 1.36425,0.59945 0.79065,0 1.24024,-0.59428 0.45475,-0.59428 0.45475,-1.45211 0,-0.5271 -0.20154,-0.94051 -0.19637,-0.41858 -0.59428,-0.64596 -0.39274,-0.22737 -0.81648,-0.22737 -0.28422,0 -0.54777,0.10335 -0.25839,0.0982 -0.48059,0.28422 -0.22221,0.18604 -0.31006,0.34106 -0.0879,0.15503 -0.0982,0.23772 -0.0103,0.0827 -0.0103,0.28938 z" />
      <path d="m 160.7563,128.75802 c 0.30715,-0.27567 0.53155,-0.489 0.67047,-0.63306 0.13978,-0.14495 0.27053,-0.30351 0.39239,-0.4756 0.12406,-0.16772 0.21077,-0.30031 0.2603,-0.39682 0.0528,-0.0955 0.14592,-0.2981 0.2784,-0.607 0.0184,-0.002 0.11436,0.002 0.29025,0.009 0.24129,0.009 0.50113,7.4e-4 0.77875,-0.0253 0.0272,0.0577 0.0545,0.11531 0.0819,0.17295 -0.68129,0.8654 -1.41069,1.54934 -2.18693,2.05091 -0.15962,0.0224 -0.31941,0.0443 -0.47938,0.0658 -0.0288,-0.0537 -0.0575,-0.10746 -0.0862,-0.1612 z" style="stroke-width:0.264583" id="path212" inkscape:connector-curvature="0" inkscape:original-d="m 158.55885,125.2308 q 0.32039,-0.53226 0.45992,-0.80098 0.13952,-0.26872 0.24288,-0.56844 0.10852,-0.29456 0.13952,-0.45475 0.0362,-0.1602 0.0982,-0.66146 0.0258,-0.0103 0.28939,-0.0724 0.36173,-0.0879 0.76481,-0.23771 l 0.12919,0.14469 q -0.65629,1.52446 -1.55546,2.57866 l -0.43925,0.20154 z" />
      <path d="m 168.0934,125.52085 c -0.0582,-0.03 -0.11625,-0.0601 -0.17427,-0.0902 -0.009,-0.0196 -0.018,-0.0392 -0.027,-0.0587 0.0147,-0.0533 0.0312,-0.12198 0.0495,-0.20621 0.0288,-0.14014 0.0575,-0.28028 0.0863,-0.42042 0.38917,-0.16291 0.70809,-0.27447 0.9628,-0.33233 0.25431,-0.0578 0.51716,-0.0607 0.79053,-0.009 0.48132,0.0907 0.83764,0.29398 1.07378,0.61704 0.23571,0.32248 0.31921,0.71996 0.24319,1.19291 -1e-5,5e-5 -0.18931,1.02218 -0.18932,1.02222 l -0.24515,1.52125 c -0.0296,0.18381 -0.034,0.30697 -0.0131,0.36972 0.0209,0.0627 0.0551,0.10832 0.10232,0.1367 0.0505,0.0289 0.15752,0.0633 0.32053,0.10218 0.0111,0.0174 0.0223,0.0348 0.0334,0.0522 l -0.0311,0.20447 c -0.0156,0.0116 -0.0312,0.0231 -0.0468,0.0347 -0.26112,-0.0643 -0.46434,-0.10918 -0.61358,-0.13349 -0.143,-0.0233 -0.36244,-0.0472 -0.66459,-0.0752 -0.0212,-0.0282 -0.0423,-0.0564 -0.0634,-0.0846 -10e-6,2e-5 0.16363,-0.81659 0.16362,-0.81656 -0.24257,0.13259 -0.48668,0.26379 -0.73228,0.39357 -0.25512,0.13681 -0.43408,0.22865 -0.51996,0.27009 -0.19981,0.0422 -0.40944,0.0413 -0.62776,-0.003 -0.39983,-0.081 -0.69266,-0.25504 -0.87614,-0.51725 -0.1795,-0.26495 -0.22637,-0.58127 -0.14448,-0.94794 0.0849,-0.38003 0.25064,-0.668 0.49366,-0.86519 0.24406,-0.20079 0.571,-0.32753 0.98138,-0.38449 0.41697,-0.0601 1.00951,-0.0708 1.79336,-0.0496 0.0368,-0.21049 0.0538,-0.3931 0.0514,-0.54748 7.8e-4,-0.15387 -0.0396,-0.30619 -0.12021,-0.45721 -0.0769,-0.15384 -0.18744,-0.27896 -0.33191,-0.37591 -0.14134,-0.0964 -0.30872,-0.16313 -0.50287,-0.20094 -0.10334,-0.0201 -0.20548,-0.0298 -0.30658,-0.0289 -0.10041,-0.003 -0.19699,0.008 -0.28988,0.0311 -0.0929,0.0232 -0.15051,0.0412 -0.17288,0.0542 -0.0223,0.013 -0.0459,0.0397 -0.0707,0.0804 -0.0143,0.0192 -0.0643,0.0912 -0.15462,0.22124 -0.07,0.098 -0.13118,0.19253 -0.18361,0.28362 -0.0145,0.006 -0.029,0.0115 -0.0436,0.0172 z m 2.07359,1.2182 c -0.76943,-0.005 -1.32137,0.0456 -1.66487,0.17075 -0.338,0.12179 -0.55132,0.38478 -0.63669,0.79307 -0.055,0.26323 -0.0297,0.47806 0.0778,0.64459 0.11066,0.16705 0.28644,0.27501 0.52635,0.32215 0.4431,0.0871 0.9333,-0.092 1.4543,-0.53996 z" style="stroke-width:0.264583" id="path214" inkscape:connector-curvature="0" inkscape:original-d="m 165.0184,120.23886 -0.20153,-0.0517 -0.0413,-0.0517 q 0.005,-0.0827 0.005,-0.21188 l -0.005,-0.42891 q 0.55811,-0.36173 0.94568,-0.52193 0.38758,-0.1602 0.84233,-0.1602 0.80098,0 1.26607,0.41858 0.46509,0.41858 0.46509,1.13688 l -0.0258,1.0387 v 1.53996 q 0,0.27905 0.0465,0.3669 0.0465,0.0879 0.12402,0.11885 0.0827,0.031 0.3359,0.0517 l 0.0413,0.0465 v 0.20671 l -0.0413,0.0413 q -0.40308,-0.0362 -0.63045,-0.0362 -0.21704,0 -0.6718,0.0362 l -0.0775,-0.0724 0.0207,-0.83199 -0.66146,0.51676 q -0.34623,0.27389 -0.46509,0.36174 -0.28422,0.11885 -0.62011,0.11885 -0.61495,0 -0.97152,-0.32556 -0.3514,-0.33073 -0.3514,-0.894 0,-0.58394 0.30489,-0.95085 0.30489,-0.37207 0.91984,-0.57877 0.62012,-0.21188 1.84485,-0.38241 0,-0.32039 -0.0465,-0.54777 -0.0413,-0.22737 -0.21187,-0.42891 -0.16537,-0.20671 -0.42375,-0.31006 -0.25321,-0.10335 -0.57361,-0.10335 -0.17053,0 -0.33073,0.031 -0.16019,0.0258 -0.29972,0.0879 -0.13953,0.062 -0.17053,0.0879 -0.031,0.0258 -0.0568,0.093 -0.0155,0.031 -0.11368,0.24805 -0.0775,0.16536 -0.1292,0.31522 z m 2.39779,0.80099 q -1.19373,0.1912 -1.67948,0.47542 -0.4806,0.27905 -0.4806,0.90434 0,0.40307 0.21188,0.61495 0.21704,0.21187 0.58911,0.21187 0.6873,0 1.35909,-0.79582 z" />
      <path d="m 176.96671,130.23239 0.0115,-0.2166 c 0.0143,-0.0113 0.0286,-0.0227 0.0428,-0.034 0.36757,-0.0223 0.57315,-0.11984 0.61747,-0.28652 0.0445,-0.16761 0.0812,-0.61624 0.11114,-1.34954 l 0.0347,-0.85134 c 0.0238,-0.58449 0.0364,-1.13237 0.0384,-1.64196 -0.0197,-0.0232 -0.0393,-0.0465 -0.0589,-0.0697 -0.11328,-0.0187 -0.23464,-0.0311 -0.36426,-0.0376 -0.24662,-0.0123 -0.44735,0.009 -0.60339,0.0648 -0.15575,0.0526 -0.28314,0.15113 -0.38249,0.29629 -0.0962,0.14531 -0.15139,0.31232 -0.16456,0.50126 -0.0125,0.17864 0.0178,0.34823 0.0917,0.50855 0.0739,0.16029 0.20249,0.29483 0.38625,0.40247 0.18684,0.10774 0.45322,0.17297 0.79719,0.19203 l -0.006,0.13929 c -0.67675,0.69616 -1.3556,1.4717 -2.03899,2.32661 -0.26502,-0.0483 -0.49229,-0.0816 -0.68382,-0.0988 -0.17796,-0.016 -0.4039,-0.0232 -0.68012,-0.0234 -0.0122,-0.0151 -0.0245,-0.0302 -0.0367,-0.0452 l 0.0221,-0.21591 c 0.0148,-0.0106 0.0296,-0.0213 0.0444,-0.0319 0.21568,0.005 0.36669,-0.0124 0.45225,-0.0494 0.0886,-0.0365 0.2587,-0.17851 0.50399,-0.42679 0.47966,-0.48254 0.94817,-0.97078 1.4051,-1.46445 l 0.005,-0.0825 c -0.8256,-0.21524 -1.20084,-0.65471 -1.14646,-1.28771 0.0295,-0.34324 0.18781,-0.60925 0.46973,-0.80098 0.28239,-0.19206 0.65978,-0.2707 1.13736,-0.24286 0.11661,0.007 0.31351,0.0249 0.61185,0.0528 0.30285,0.0279 0.53204,0.043 0.67836,0.0479 0.29151,0.01 0.65709,0.006 1.08994,-0.0162 0.0108,0.0122 0.0217,0.0244 0.0326,0.0366 l -0.002,0.21683 c -0.0112,0.0136 -0.0224,0.0272 -0.0337,0.0409 -0.37336,0.047 -0.5861,0.1323 -0.63693,0.2619 -0.0505,0.12554 -0.0867,0.59067 -0.10725,1.39183 l -0.024,0.93425 c -0.0208,0.80921 -0.008,1.27501 0.0406,1.40069 0.0514,0.1252 0.27616,0.22085 0.67567,0.2807 0.0118,0.0122 0.0237,0.0244 0.0355,0.0366 l -0.002,0.21682 c -0.0122,0.0136 -0.0244,0.0272 -0.0366,0.0408 -0.48388,-0.0334 -0.87424,-0.0576 -1.18944,-0.0679 -0.24562,-0.008 -0.60081,-0.007 -1.09813,-0.005 -0.013,-0.0145 -0.0259,-0.029 -0.0389,-0.0434 z" style="stroke-width:0.264583" id="path216" inkscape:connector-curvature="0" inkscape:original-d="m 174.76975,123.74252 v -0.21704 l 0.0413,-0.0362 q 0.55294,-0.062 0.60978,-0.31523 0.0568,-0.25321 0.0568,-1.35392 v -0.85266 q 0,-0.8785 -0.031,-1.64331 l -0.0672,-0.0672 q -0.18604,-0.0207 -0.39791,-0.0207 -0.40308,0 -0.65112,0.0982 -0.24805,0.093 -0.39274,0.3204 -0.13953,0.22737 -0.13953,0.51159 0,0.26872 0.13436,0.50127 0.13436,0.23254 0.43408,0.37723 0.30489,0.1447 0.84749,0.14987 v 0.13952 q -1.01285,1.09037 -1.93786,2.44946 -0.40308,-0.0413 -0.69247,-0.0413 -0.26871,0 -0.68213,0.0413 l -0.0413,-0.0413 v -0.21704 l 0.0413,-0.0362 q 0.32557,-0.0258 0.44959,-0.093 0.12919,-0.0672 0.47025,-0.47025 l 1.33326,-1.5658 v -0.0827 q -1.31258,-0.24288 -1.31258,-1.1989 0,-0.51676 0.43408,-0.83715 0.43408,-0.3204 1.21956,-0.3204 0.18604,0 0.67179,0.0207 0.50127,0.0207 0.74415,0.0207 0.48059,0 1.19372,-0.0413 l 0.0362,0.0362 v 0.21704 l -0.0362,0.0413 q -0.60978,0.0775 -0.6873,0.27388 -0.0775,0.19121 -0.0775,1.39527 v 0.93534 q 0,1.2144 0.0775,1.40043 0.0827,0.18604 0.6873,0.26872 l 0.0362,0.0362 v 0.21704 l -0.0362,0.0413 q -0.72347,-0.0413 -1.19372,-0.0413 -0.36174,0 -1.10071,0.0413 z" />
      <path d="m 182.78034,130.24017 -0.0112,-0.21658 c 0.0131,-0.0127 0.0261,-0.0255 0.0392,-0.0382 0.20362,-0.0416 0.35406,-0.0851 0.45065,-0.12879 0.0967,-0.0438 0.15882,-0.0909 0.18636,-0.14099 0.0308,-0.0537 0.0471,-0.11688 0.0491,-0.18948 0.005,-0.0729 0.002,-0.25883 -0.0115,-0.5582 -0.01,-0.30267 -0.0204,-0.53379 -0.0309,-0.6915 l -0.0622,-0.93268 c -0.054,-0.8101 -0.11103,-1.27685 -0.16937,-1.39657 -0.0555,-0.12057 -0.26752,-0.1939 -0.63541,-0.22617 -0.0133,-0.0131 -0.0266,-0.0262 -0.0399,-0.0392 l -0.0112,-0.21658 c 0.0119,-0.0127 0.0238,-0.0254 0.0357,-0.0381 0.43551,0.004 0.79965,-0.007 1.08629,-0.0285 0.27675,-0.021 0.6394,-0.0647 1.07772,-0.1358 0.007,0.006 0.013,0.0118 0.0195,0.0176 0.006,0.005 0.0112,0.0101 0.0168,0.0152 l 0.0213,0.21599 c -0.004,0.007 -0.009,0.0136 -0.0133,0.0204 -0.005,0.008 -0.0104,0.0159 -0.0156,0.0239 -0.19779,0.0508 -0.33567,0.0978 -0.41426,0.14297 -0.0756,0.0414 -0.12742,0.0839 -0.15544,0.12781 -0.0283,0.0404 -0.0448,0.0902 -0.0494,0.1494 -0.005,0.0592 7e-5,0.24711 0.0136,0.56395 0.0165,0.31343 0.0321,0.56031 0.0473,0.74253 l 0.17688,2.12616 c 0.028,0.008 0.056,0.0161 0.084,0.0241 0.17013,-0.31159 0.36696,-0.70163 0.58208,-1.16494 0,0 0,0 0,0 0.139,-0.29959 0.28658,-0.63158 0.44033,-0.99461 0.38781,-0.91994 0.66742,-1.67099 0.84446,-2.19153 0.2956,-0.0108 0.54247,-0.0316 0.73789,-0.0601 0.20172,-0.0294 0.44883,-0.0804 0.73867,-0.15493 0,0 0.043,0.0297 0.043,0.0297 l 0.0347,0.21395 c 1e-5,-1e-5 -0.0308,0.0467 -0.0308,0.0467 -0.35654,0.10966 -0.54965,0.22978 -0.57748,0.3661 -0.0282,0.13225 0.0158,0.59655 0.13274,1.38908 l 0.13632,0.9242 c 0.11808,0.80052 0.2108,1.25697 0.27986,1.37248 0.0721,0.11447 0.30835,0.17033 0.70861,0.16134 0,0 0.0462,0.0291 0.0462,0.0291 l 0.0347,0.21394 c 0,0 -0.0341,0.0473 -0.0341,0.0473 -0.47813,0.0494 -0.86844,0.0929 -1.18388,0.13712 -0.3066,0.043 -0.69132,0.10846 -1.17751,0.19398 -0.0153,-0.0121 -0.0305,-0.0241 -0.0458,-0.0362 l -0.0251,-0.21546 c 0.0122,-0.0136 0.0244,-0.0272 0.0366,-0.0408 0.39176,-0.10184 0.60353,-0.22232 0.63779,-0.35522 0.0378,-0.13398 0.004,-0.59704 -0.10071,-1.39271 l -0.27406,-2.08331 c -0.0266,-0.007 -0.0532,-0.0139 -0.0798,-0.0209 -0.20184,0.4403 -0.45131,1.06241 -0.89728,2.11344 -0.13295,0.31564 -0.25804,0.60851 -0.37,0.86979 0,0 0,0 0,0 -0.25076,0.58435 -0.4329,1.00416 -0.56515,1.33234 -0.32641,-2.5e-4 -0.59057,0.005 -0.79763,0.0197 -0.22524,0.0155 -0.52681,0.0488 -0.91603,0.0967 -0.0144,-0.013 -0.0289,-0.026 -0.0433,-0.0391 z" style="stroke-width:0.264583" id="path218" inkscape:connector-curvature="0" inkscape:original-d="m 180.59885,123.74252 v -0.21704 l 0.0413,-0.0362 q 0.31006,-0.0465 0.45992,-0.10335 0.14986,-0.0568 0.19637,-0.1292 0.0517,-0.0775 0.062,-0.18603 0.0155,-0.10852 0.0258,-0.55811 0.0155,-0.45475 0.0155,-0.69246 v -0.93534 q 0,-1.21957 -0.0827,-1.4056 -0.0775,-0.18604 -0.67696,-0.26355 l -0.0413,-0.0413 v -0.21704 l 0.0413,-0.0362 q 0.7183,0.0413 1.19373,0.0413 0.45992,0 1.19372,-0.0413 l 0.0362,0.0362 v 0.21704 l -0.0362,0.0413 q -0.33073,0.0465 -0.46509,0.10335 -0.12919,0.0517 -0.18086,0.11369 -0.0517,0.0568 -0.0672,0.14469 -0.0155,0.0879 -0.0362,0.56328 -0.0155,0.47025 -0.0155,0.74414 v 2.13423 l 0.0827,0.031 q 0.49093,-0.73381 1.26607,-2.05156 0.77515,-1.32291 1.1834,-2.07739 0.48575,0.0413 0.81132,0.0413 0.33589,0 0.82682,-0.0413 l 0.0413,0.0362 v 0.21704 l -0.0413,0.0413 q -0.60462,0.0775 -0.68213,0.27388 -0.0775,0.19121 -0.0775,1.39527 v 0.93534 q 0,1.2144 0.0775,1.40043 0.0827,0.18604 0.68213,0.26872 l 0.0413,0.0362 v 0.21704 l -0.0413,0.0413 q -0.7183,-0.0413 -1.19373,-0.0413 -0.45992,0 -1.19372,0.0413 l -0.0413,-0.0413 v -0.21704 l 0.0413,-0.0362 q 0.60461,-0.0827 0.68213,-0.27389 0.0827,-0.1912 0.0827,-1.39526 v -2.10323 l -0.0827,-0.031 q -0.37724,0.55811 -1.20923,1.99471 -0.82683,1.43661 -1.16272,2.10323 -0.48576,-0.0413 -0.79582,-0.0413 -0.3359,0 -0.91984,0.0413 z" />
      <path d="m 189.33241,129.49233 -0.0374,-0.21346 c 0.0114,-0.0142 0.0227,-0.0285 0.0341,-0.0427 0.24772,-0.0681 0.39719,-0.11884 0.4467,-0.14879 0.0493,-0.0336 0.0847,-0.0857 0.10614,-0.15618 0.0248,-0.0712 0.0172,-0.23066 -0.0225,-0.47875 -0.0399,-0.24832 -0.0996,-0.58302 -0.17921,-1.00588 l -0.16238,-0.86202 c -0.0497,-0.26381 -0.10824,-0.55703 -0.17563,-0.88052 -0.068,-0.32664 -0.12525,-0.51908 -0.17152,-0.57681 -0.0463,-0.0578 -0.0977,-0.092 -0.15439,-0.10254 -0.0545,-0.0146 -0.1963,-0.0109 -0.42734,0.009 -0.0148,-0.0114 -0.0296,-0.0227 -0.0444,-0.0341 l -0.0374,-0.21346 c 0.0103,-0.014 0.0206,-0.0281 0.0309,-0.0421 0.4267,-0.0473 0.75477,-0.0961 0.97206,-0.1386 0.10446,-0.0204 0.25158,-0.053 0.43779,-0.098 0.5363,-0.12711 0.90309,-0.21866 1.10281,-0.26388 0.35326,-0.08 0.63205,-0.0567 0.83962,0.0738 0.20741,0.13044 0.34381,0.32347 0.40708,0.5808 0.13443,0.54681 -0.12125,1.01119 -0.78842,1.37409 0.44603,-0.0726 0.79745,-0.0356 1.05845,0.117 0.25994,0.14908 0.43186,0.38429 0.51284,0.70816 0.0993,0.39718 0.0414,0.79182 -0.1824,1.18233 -0.22007,0.389 -0.66722,0.66409 -1.33783,0.80862 -0.0462,0.01 -0.14725,0.0282 -0.2989,0.0531 -0.2824,0.0452 -0.50335,0.0827 -0.66924,0.1156 -0.40427,0.0942 -0.80816,0.18384 -1.21166,0.2689 -0.0159,-0.0112 -0.0318,-0.0223 -0.0477,-0.0335 z m 0.95131,-3.02079 c 0.12917,-0.0192 0.23251,-0.0371 0.30906,-0.0531 0.4443,-0.0928 0.73701,-0.23808 0.87732,-0.4286 0.14273,-0.1946 0.18182,-0.42639 0.11977,-0.69457 -0.0543,-0.23465 -0.16931,-0.41105 -0.34315,-0.53016 -0.17179,-0.12338 -0.43118,-0.14547 -0.78101,-0.0708 -0.15484,0.0331 -0.31569,0.0755 -0.48291,0.12705 0.10064,0.55001 0.20095,1.10008 0.30092,1.65022 z m 0.0616,0.30342 c 0.1539,0.70064 0.30823,1.40118 0.46299,2.10164 0.1718,-0.0104 0.358,-0.0367 0.55807,-0.0794 0.29013,-0.0619 0.50735,-0.17025 0.65056,-0.32245 0.14661,-0.15304 0.2365,-0.32045 0.27057,-0.50145 0.0341,-0.18105 0.0282,-0.36699 -0.0166,-0.55795 -0.0519,-0.22106 -0.14627,-0.40394 -0.2818,-0.54905 -0.13558,-0.14517 -0.30333,-0.22833 -0.50365,-0.2504 -0.19741,-0.0228 -0.45706,0.001 -0.78162,0.0692 -0.0839,0.0176 -0.20259,0.0476 -0.35851,0.0898 0,0 -1e-5,0 -2e-5,0 z" style="stroke-width:0.264583" id="path220" inkscape:connector-curvature="0" inkscape:original-d="m 187.2031,123.74252 v -0.21704 l 0.0413,-0.0362 q 0.38757,-0.0362 0.47025,-0.0672 0.0827,-0.0362 0.13436,-0.13436 0.0568,-0.0982 0.0672,-0.47542 0.0103,-0.37724 0.0103,-1.0232 v -0.8785 q 0,-0.40307 -0.0103,-0.89917 -0.0103,-0.50126 -0.0672,-0.59944 -0.0568,-0.0982 -0.14469,-0.12919 -0.0827,-0.0362 -0.45992,-0.0672 l -0.0413,-0.0413 v -0.21704 l 0.0413,-0.0362 q 0.70797,0.0413 1.07487,0.0413 0.1757,0 0.49092,-0.0103 0.90434,-0.0258 1.24024,-0.0258 0.59428,0 0.87333,0.26355 0.27905,0.26355 0.27905,0.66146 0,0.84749 -1.15238,1.15755 0.71313,0.0413 1.0542,0.35657 0.34106,0.31006 0.34106,0.81132 0,0.61495 -0.47025,1.10587 -0.46509,0.49093 -1.49862,0.49093 -0.0724,0 -0.30489,-0.0103 -0.42892,-0.0207 -0.68213,-0.0207 -0.62528,0.0207 -1.2454,0.0413 z m 1.53995,-2.79569 q 0.20671,0.0103 0.33073,0.0103 0.71831,0 1.00253,-0.23254 0.28938,-0.23771 0.28938,-0.65112 0,-0.36174 -0.23254,-0.59428 -0.22738,-0.23771 -0.81132,-0.23771 -0.25838,0 -0.5426,0.0258 z m 0,0.31006 0.0362,2.1549 q 0.25838,0.0362 0.56844,0.0362 0.44958,0 0.71313,-0.1757 0.26872,-0.1757 0.38241,-0.42892 0.11369,-0.25321 0.11369,-0.54777 0,-0.34106 -0.15503,-0.59944 -0.15503,-0.25839 -0.45475,-0.35657 -0.29456,-0.0982 -0.81649,-0.0982 -0.13436,0 -0.38758,0.0155 z" />
      <path d="m 194.0065,124.85128 c -0.0653,2e-4 -0.1306,2.8e-4 -0.19585,2.6e-4 -0.017,-0.0132 -0.0339,-0.0264 -0.0509,-0.0397 -0.0115,-0.054 -0.0285,-0.12248 -0.0511,-0.20554 -0.039,-0.13745 -0.078,-0.2749 -0.11705,-0.41236 0.26944,-0.32358 0.50018,-0.56936 0.69912,-0.73819 0.19855,-0.16849 0.43005,-0.29243 0.69618,-0.37308 0.4686,-0.14199 0.87885,-0.12658 1.23764,0.0508 0.3582,0.17713 0.61546,0.49121 0.76576,0.94602 0.101,0.33143 0.20188,0.6629 0.30263,0.9944 l 0.48287,1.46297 c 0.0583,0.17677 0.11111,0.28812 0.15855,0.3342 0.0474,0.0461 0.0986,0.0709 0.15353,0.0744 0.058,0.002 0.16863,-0.016 0.33088,-0.0563 0.0178,0.0104 0.0357,0.0207 0.0536,0.031 l 0.0664,0.19588 c -0.008,0.0174 -0.017,0.0348 -0.0255,0.0523 -0.26067,0.0625 -0.46143,0.11596 -0.6047,0.16285 -0.13736,0.045 -0.34271,0.12445 -0.62321,0.23857 -0.0317,-0.0153 -0.0634,-0.0306 -0.0951,-0.0459 -0.077,-0.26656 -0.15408,-0.53309 -0.23125,-0.79959 -0.15388,0.22923 -0.30973,0.45792 -0.46757,0.68605 -0.16307,0.23877 -0.27933,0.4025 -0.33639,0.47881 -0.15768,0.12942 -0.34399,0.22516 -0.55809,0.28647 -0.3921,0.11227 -0.73235,0.0929 -1.01609,-0.055 -0.28173,-0.15235 -0.4687,-0.41099 -0.56479,-0.77375 -0.0996,-0.37592 -0.085,-0.70748 0.0397,-0.9941 0.12395,-0.2903 0.35536,-0.55319 0.69276,-0.79278 0.3414,-0.24511 0.86233,-0.52849 1.56703,-0.87099 -0.0644,-0.20364 -0.13344,-0.37344 -0.20676,-0.50922 -0.0702,-0.13681 -0.17628,-0.25324 -0.31746,-0.3499 -0.13912,-0.10092 -0.29493,-0.16075 -0.46776,-0.17997 -0.16979,-0.0202 -0.34895,-0.002 -0.53841,0.0541 -0.10084,0.0299 -0.19576,0.0685 -0.2849,0.11588 -0.0901,0.0441 -0.17085,0.0978 -0.24237,0.16125 -0.0716,0.0634 -0.1143,0.10585 -0.1281,0.12773 -0.0138,0.0218 -0.0223,0.0563 -0.0256,0.10379 -0.004,0.0237 -0.015,0.11042 -0.035,0.26733 -0.0168,0.11912 -0.0275,0.23107 -0.032,0.33595 -0.0102,0.0118 -0.0204,0.0236 -0.0306,0.0353 z m 2.39925,0.12375 c -0.68448,0.35037 -1.15068,0.64996 -1.39732,0.91896 -0.24344,0.26371 -0.31141,0.59504 -0.19898,0.99623 0.0725,0.25866 0.19397,0.43737 0.36605,0.53549 0.17517,0.0971 0.38085,0.11182 0.61531,0.0431 0.4331,-0.1269 0.78484,-0.51131 1.04024,-1.14844 z" style="stroke-width:0.264583" id="path222" inkscape:connector-curvature="0" inkscape:original-d="m 192.98568,120.23886 -0.20153,-0.0517 -0.0413,-0.0517 q 0.005,-0.0827 0.005,-0.21188 l -0.005,-0.42891 q 0.5581,-0.36173 0.94567,-0.52193 0.38758,-0.1602 0.84233,-0.1602 0.80098,0 1.26607,0.41858 0.46509,0.41858 0.46509,1.13688 l -0.0258,1.0387 v 1.53996 q 0,0.27905 0.0465,0.3669 0.0465,0.0879 0.12402,0.11885 0.0827,0.031 0.3359,0.0517 l 0.0413,0.0465 v 0.20671 l -0.0413,0.0413 q -0.40307,-0.0362 -0.63045,-0.0362 -0.21704,0 -0.67179,0.0362 l -0.0775,-0.0724 0.0207,-0.83199 -0.66146,0.51676 q -0.34623,0.27389 -0.46509,0.36174 -0.28422,0.11885 -0.62011,0.11885 -0.61495,0 -0.97152,-0.32556 -0.3514,-0.33073 -0.3514,-0.894 0,-0.58394 0.30489,-0.95085 0.30489,-0.37207 0.91984,-0.57877 0.62012,-0.21188 1.84485,-0.38241 0,-0.32039 -0.0465,-0.54777 -0.0413,-0.22737 -0.21187,-0.42891 -0.16537,-0.20671 -0.42375,-0.31006 -0.25321,-0.10335 -0.57361,-0.10335 -0.17053,0 -0.33073,0.031 -0.16019,0.0258 -0.29972,0.0879 -0.13953,0.062 -0.17053,0.0879 -0.031,0.0258 -0.0568,0.093 -0.0155,0.031 -0.11369,0.24805 -0.0775,0.16536 -0.12919,0.31522 z m 2.39779,0.80099 q -1.19372,0.1912 -1.67948,0.47542 -0.48059,0.27905 -0.48059,0.90434 0,0.40307 0.21187,0.61495 0.21704,0.21187 0.58911,0.21187 0.6873,0 1.35909,-0.79582 z" />
      <path d="m 199.6321,123.87229 c 0.56141,-0.19539 0.97049,-0.34854 1.17527,-0.42932 0.24293,-0.0958 0.63258,-0.25834 1.13859,-0.48292 l -0.0535,-0.12906 c -0.0978,-0.23594 -0.21431,-0.50846 -0.34974,-0.81843 -0.13534,-0.30976 -0.23198,-0.48832 -0.28961,-0.53533 -0.056,-0.0515 -0.11313,-0.0764 -0.17135,-0.0749 -0.0569,-0.003 -0.19814,0.0313 -0.42565,0.10085 -0.017,-0.008 -0.034,-0.016 -0.051,-0.024 l -0.0813,-0.20154 c 0.007,-0.016 0.0146,-0.032 0.0219,-0.0479 0.30573,-0.0938 0.62223,-0.20917 0.94867,-0.34648 0.34104,-0.14345 0.6452,-0.28941 0.91181,-0.43596 0.0165,0.006 0.0331,0.0119 0.0496,0.0179 l 0.0872,0.19903 c -0.006,0.0178 -0.0124,0.0355 -0.0186,0.0533 -0.21071,0.11847 -0.33625,0.19843 -0.37699,0.2423 -0.039,0.0393 -0.0596,0.0969 -0.062,0.17295 -0.004,0.0728 0.0443,0.23436 0.14402,0.48425 0.0984,0.24661 0.22486,0.55116 0.37922,0.91263 l 0.34545,0.80892 c 0.12157,0.27627 0.24318,0.55252 0.36483,0.82876 0.13763,0.30512 0.2348,0.48101 0.29179,0.52798 0.06,0.0456 0.12059,0.0665 0.18172,0.0627 0.0608,-0.004 0.21049,-0.0436 0.44663,-0.1206 0.0172,0.006 0.0345,0.0113 0.0518,0.0169 l 0.0872,0.19903 c -0.007,0.0181 -0.0139,0.0362 -0.0208,0.0543 -0.32299,0.11133 -0.65806,0.24053 -1.00652,0.38722 -0.36422,0.15332 -0.69109,0.30248 -0.98125,0.44941 -0.0178,-0.008 -0.0356,-0.0154 -0.0534,-0.023 l -0.0813,-0.20154 c 0.008,-0.0163 0.0161,-0.0326 0.0242,-0.0489 0.2268,-0.11763 0.3616,-0.19766 0.40364,-0.23718 0.0442,-0.0443 0.0694,-0.10322 0.0756,-0.17669 0.006,-0.0736 -0.0357,-0.22784 -0.12593,-0.46308 -0.0916,-0.2386 -0.21914,-0.55493 -0.38302,-0.95027 l -0.15851,-0.38239 c -0.34478,0.13163 -0.72506,0.28088 -1.15711,0.45129 -0.38973,0.15372 -0.77865,0.3087 -1.16746,0.46509 l 0.14491,0.38765 c 0.0954,0.2551 0.2048,0.53843 0.32821,0.84932 0.12228,0.30783 0.2107,0.48633 0.26553,0.53585 0.0579,0.0483 0.11757,0.072 0.17892,0.0709 0.061,-0.001 0.21269,-0.0339 0.45256,-0.10024 0.017,0.006 0.034,0.0128 0.0511,0.0192 l 0.0781,0.20277 c -0.008,0.0177 -0.0155,0.0355 -0.0233,0.0533 -0.3285,0.0967 -0.66989,0.21049 -1.02555,0.34095 -0.37498,0.13755 -0.70911,0.27118 -1.00332,0.40314 -0.0174,-0.008 -0.0349,-0.017 -0.0523,-0.0255 l -0.0716,-0.20505 c 0.009,-0.0159 0.0177,-0.0318 0.0266,-0.0476 0.23249,-0.10676 0.37118,-0.18043 0.4151,-0.21791 0.0431,-0.041 0.0695,-0.0981 0.0792,-0.17121 0.0129,-0.0743 -0.0202,-0.23088 -0.0992,-0.47001 -0.0792,-0.23929 -0.19176,-0.56107 -0.33814,-0.96673 l -0.29846,-0.8271 c -0.0913,-0.25309 -0.19615,-0.53395 -0.31456,-0.84327 -0.11952,-0.31237 -0.20706,-0.49356 -0.26232,-0.5432 -0.0553,-0.0497 -0.11195,-0.0752 -0.17007,-0.0763 -0.0566,-0.006 -0.19734,0.0213 -0.42421,0.0789 -0.0166,-0.009 -0.0332,-0.0176 -0.0497,-0.0264 l -0.0716,-0.20505 c 0.008,-0.0156 0.016,-0.0312 0.024,-0.0468 0.30579,-0.078 0.62637,-0.17827 0.96077,-0.30131 0.34625,-0.1274 0.65587,-0.25925 0.92802,-0.39354 0.0162,0.007 0.0324,0.0134 0.0486,0.0201 l 0.0781,0.20277 c -0.007,0.0175 -0.0139,0.0349 -0.0209,0.0524 -0.21538,0.10883 -0.34455,0.18125 -0.38839,0.22006 -0.0406,0.0374 -0.0637,0.094 -0.0695,0.16989 -0.007,0.0726 0.0306,0.22802 0.11271,0.46602 0.0809,0.23459 0.19694,0.5544 0.3478,0.95797 0.0163,0.0436 0.0326,0.0872 0.049,0.13088 z" style="stroke-width:0.264583" id="path224" inkscape:connector-curvature="0" inkscape:original-d="m 198.96465,121.05018 q 0.95085,0.0207 1.31258,0.0207 0.41858,0 1.29708,-0.0207 v -0.13953 q 0,-0.3824 -0.0103,-0.88883 -0.0103,-0.50643 -0.0672,-0.60461 -0.0517,-0.10336 -0.13953,-0.13436 -0.0827,-0.0362 -0.46509,-0.0672 l -0.0413,-0.0413 v -0.21704 l 0.0413,-0.0362 q 0.51677,0.0413 1.09038,0.0413 0.59944,0 1.09037,-0.0413 l 0.0413,0.0362 v 0.21704 l -0.0413,0.0413 q -0.38757,0.0362 -0.47542,0.0723 -0.0827,0.031 -0.13436,0.13436 -0.0517,0.0982 -0.062,0.50126 -0.0103,0.39791 -0.0103,0.98702 v 0.8785 l 0.0103,0.90434 q 0.0103,0.50126 0.062,0.59945 0.0568,0.0982 0.14469,0.12919 0.0879,0.031 0.46509,0.0672 l 0.0413,0.0362 v 0.21704 l -0.0413,0.0413 q -0.51677,-0.0413 -1.09037,-0.0413 -0.59945,0 -1.09038,0.0413 l -0.0413,-0.0413 v -0.21704 l 0.0413,-0.0362 q 0.38758,-0.0362 0.47026,-0.0672 0.0879,-0.0362 0.13953,-0.13436 0.0517,-0.0982 0.062,-0.47542 0.0103,-0.38241 0.0103,-1.0232 v -0.41341 q -0.57361,-0.0155 -1.29708,-0.0155 -0.65629,0 -1.31258,0.0155 v 0.41341 q 0,0.40825 0.0103,0.90951 0.0103,0.49609 0.062,0.59428 0.0568,0.0982 0.14469,0.12919 0.0879,0.031 0.46509,0.0672 l 0.0413,0.0362 v 0.21704 l -0.0413,0.0413 q -0.51676,-0.0413 -1.09037,-0.0413 -0.60462,0 -1.09037,0.0413 l -0.0413,-0.0413 v -0.21704 l 0.0413,-0.0362 q 0.38757,-0.0362 0.47025,-0.0672 0.0827,-0.0362 0.13436,-0.13436 0.0568,-0.0982 0.0672,-0.47542 0.0103,-0.37724 0.0103,-1.0232 v -0.8785 q 0,-0.40307 -0.0103,-0.89917 -0.0103,-0.50126 -0.0672,-0.59944 -0.0568,-0.0982 -0.14469,-0.12919 -0.0827,-0.0362 -0.45992,-0.0672 l -0.0413,-0.0413 v -0.21704 l 0.0413,-0.0362 q 0.51159,0.0413 1.09037,0.0413 0.59945,0 1.09037,-0.0413 l 0.0413,0.0362 v 0.21704 l -0.0413,0.0413 q -0.38757,0.0362 -0.47542,0.0672 -0.0827,0.031 -0.13436,0.13436 -0.0517,0.0982 -0.062,0.47542 -0.0103,0.37207 -0.0103,1.01802 z" />
      <path d="m 206.18638,126.72617 c -0.0198,0.007 -0.0397,0.0143 -0.0595,0.0215 -0.0841,-0.0245 -0.16805,-0.049 -0.25194,-0.0737 l -0.0254,-0.0566 c 0.25867,-0.90202 0.33034,-1.73755 0.23251,-2.50159 -0.095,-0.76717 -0.36652,-1.61313 -0.80654,-2.54592 -0.79632,-1.6881 -1.90328,-2.84047 -3.25321,-3.50317 l -0.0232,-0.0519 c 0.0162,-0.0809 0.0324,-0.16175 0.0483,-0.2426 0.0148,-0.008 0.0295,-0.0169 0.0443,-0.0254 0.59272,0.16085 1.2754,0.53367 2.0577,1.11329 0.78265,0.5744 1.44145,1.38382 1.95387,2.44013 0.41498,0.85544 0.64483,1.74785 0.67178,2.68259 0.0315,0.9358 -0.15981,1.85291 -0.58851,2.74384 -5e-5,-1.3e-4 -9e-5,-2.5e-4 -1.3e-4,-3.8e-4 z" style="stroke-width:0.264583" id="path226" inkscape:connector-curvature="0" inkscape:original-d="m 204.0031,126.18682 -0.062,-0.005 -0.19637,-0.17053 v -0.062 q 0.894,-1.07487 1.25057,-2.17558 0.36173,-1.10071 0.36173,-2.64583 0,-2.80087 -1.6123,-4.53719 v -0.0568 l 0.16019,-0.20154 0.0568,-0.005 q 0.79582,0.58394 1.54512,1.87068 0.75448,1.28158 0.75448,3.04374 0,1.42627 -0.57361,2.70785 -0.56844,1.28674 -1.68465,2.23759 z" />
    </g>
  </g>
</svg>
