<?xml version="1.0" encoding="UTF-8" standalone="no"?>
<!-- Created with Inkscape (http://www.inkscape.org/) -->

<svg width="269.95572mm" height="239.51643mm" viewBox="0 0 269.95572 239.51643" version="1.1" id="svg8" sodipodi:docname="татарин.svg" inkscape:version="1.3 (0e150ed6c4, 2023-07-21)" xmlns:inkscape="http://www.inkscape.org/namespaces/inkscape" xmlns:sodipodi="http://sodipodi.sourceforge.net/DTD/sodipodi-0.dtd" xmlns="http://www.w3.org/2000/svg" xmlns:svg="http://www.w3.org/2000/svg" xmlns:rdf="http://www.w3.org/1999/02/22-rdf-syntax-ns#" xmlns:cc="http://creativecommons.org/ns#" xmlns:dc="http://purl.org/dc/elements/1.1/">
  <defs id="defs2">
    <inkscape:path-effect effect="bend_path" id="path-effect774" is_visible="true" bendpath="m 95.503235,144.36672 c 4.805085,6.18734 10.176135,10.41555 19.777605,0" prop_scale="1" scale_y_rel="false" vertical="false" bendpath-nodetypes="cc" lpeversion="0" hide_knot="false" />
    <inkscape:path-effect effect="bend_path" id="path-effect417" is_visible="true" bendpath="m 73.499123,142.05049 c 10.236407,24.51799 21.436564,21.40847 33.275057,0" prop_scale="1" scale_y_rel="false" vertical="false" bendpath-nodetypes="cc" lpeversion="0" hide_knot="false" />
    <inkscape:path-effect effect="bend_path" id="path-effect328" is_visible="true" bendpath="m -223.11866,-99.528381 c -40.25777,28.166399 -35.17109,46.251448 20.80457,43.821193" prop_scale="1" scale_y_rel="false" vertical="false" bendpath-nodetypes="cc" lpeversion="0" hide_knot="false" />
    <inkscape:path-effect effect="bend_path" id="path-effect255" is_visible="true" bendpath="m 28.726192,273.89619 c 8.652216,-4.15996 17.097334,-3.90183 25.371653,0" prop_scale="0.69729521" scale_y_rel="false" vertical="false" bendpath-nodetypes="cc" lpeversion="0" hide_knot="false" />
    <inkscape:path-effect effect="bend_path" id="path-effect50" is_visible="true" bendpath="m -25.450301,109.45753 c 21.5369694,54.87521 49.67275,38.35819 87.803553,10.82721" prop_scale="0.77606511" scale_y_rel="false" vertical="false" bendpath-nodetypes="cc" lpeversion="0" hide_knot="false" />
    <inkscape:path-effect effect="bend_path" id="path-effect50-2" is_visible="true" bendpath="m -42.670826,120.28474 c 27.752969,26.90359 65.853891,15.43435 105.024078,0" prop_scale="1" scale_y_rel="false" vertical="false" bendpath-nodetypes="cc" lpeversion="0" hide_knot="false" />
    <inkscape:path-effect effect="bend_path" id="path-effect50-2-9" is_visible="true" bendpath="m -42.670826,120.28474 c 27.752969,26.90359 65.853891,15.43435 105.024078,0" prop_scale="1" scale_y_rel="false" vertical="false" bendpath-nodetypes="cc" lpeversion="0" hide_knot="false" />
    <inkscape:path-effect effect="bend_path" id="path-effect50-2-5" is_visible="true" bendpath="m -42.670826,120.28474 c 27.752969,26.90359 65.853891,15.43435 105.024078,0" prop_scale="1" scale_y_rel="false" vertical="false" bendpath-nodetypes="cc" lpeversion="0" hide_knot="false" />
    <inkscape:path-effect effect="bend_path" id="path-effect255-1" is_visible="true" bendpath="m 28.726192,273.89619 c 8.652216,-4.15996 17.097334,-3.90183 25.371653,0" prop_scale="0.69729521" scale_y_rel="false" vertical="false" bendpath-nodetypes="cc" lpeversion="0" hide_knot="false" />
    <inkscape:path-effect effect="bend_path" id="path-effect255-8" is_visible="true" bendpath="m 28.726192,273.89619 c 8.652216,-4.15996 17.097334,-3.90183 25.371653,0" prop_scale="0.69729521" scale_y_rel="false" vertical="false" bendpath-nodetypes="cc" lpeversion="0" hide_knot="false" />
    <inkscape:path-effect effect="bend_path" id="path-effect255-4" is_visible="true" bendpath="m 28.726192,273.89619 c 8.652216,-4.15996 17.097334,-3.90183 25.371653,0" prop_scale="0.69729521" scale_y_rel="false" vertical="false" bendpath-nodetypes="cc" lpeversion="0" hide_knot="false" />
    <inkscape:path-effect effect="bend_path" id="path-effect255-1-0" is_visible="true" bendpath="m 28.726192,273.89619 c 8.652216,-4.15996 17.097334,-3.90183 25.371653,0" prop_scale="0.69729521" scale_y_rel="false" vertical="false" bendpath-nodetypes="cc" lpeversion="0" hide_knot="false" />
    <inkscape:path-effect effect="bend_path" id="path-effect255-8-2" is_visible="true" bendpath="m 28.726192,273.89619 c 8.652216,-4.15996 17.097334,-3.90183 25.371653,0" prop_scale="0.69729521" scale_y_rel="false" vertical="false" bendpath-nodetypes="cc" lpeversion="0" hide_knot="false" />
    <inkscape:path-effect effect="bend_path" id="path-effect417-7" is_visible="true" bendpath="m 73.499123,142.05049 c 10.236407,24.51799 21.436564,21.40847 33.275057,0" prop_scale="1" scale_y_rel="false" vertical="false" bendpath-nodetypes="cc" lpeversion="0" hide_knot="false" />
    <inkscape:path-effect effect="bend_path" id="path-effect255-8-6" is_visible="true" bendpath="m 28.726192,273.89619 c 8.652216,-4.15996 17.097334,-3.90183 25.371653,0" prop_scale="0.69729521" scale_y_rel="false" vertical="false" bendpath-nodetypes="cc" lpeversion="0" hide_knot="false" />
    <inkscape:path-effect effect="bend_path" id="path-effect255-1-9" is_visible="true" bendpath="m 28.726192,273.89619 c 8.652216,-4.15996 17.097334,-3.90183 25.371653,0" prop_scale="0.69729521" scale_y_rel="false" vertical="false" bendpath-nodetypes="cc" lpeversion="0" hide_knot="false" />
    <inkscape:path-effect effect="bend_path" id="path-effect255-16" is_visible="true" bendpath="m 28.726192,273.89619 c 8.652216,-4.15996 17.097334,-3.90183 25.371653,0" prop_scale="0.69729521" scale_y_rel="false" vertical="false" bendpath-nodetypes="cc" lpeversion="0" hide_knot="false" />
    <inkscape:path-effect effect="bend_path" id="path-effect328-0" is_visible="true" bendpath="m -223.11866,-99.528381 c -40.25777,28.166399 -35.17109,46.251448 20.80457,43.821193" prop_scale="1" scale_y_rel="false" vertical="false" bendpath-nodetypes="cc" lpeversion="0" hide_knot="false" />
    <inkscape:path-effect effect="bend_path" id="path-effect417-1" is_visible="true" bendpath="m 73.499123,142.05049 c 10.236407,24.51799 21.436564,21.40847 33.275057,0" prop_scale="1" scale_y_rel="false" vertical="false" bendpath-nodetypes="cc" lpeversion="0" hide_knot="false" />
    <inkscape:path-effect effect="bend_path" id="path-effect255-8-68" is_visible="true" bendpath="m 28.726192,273.89619 c 8.652216,-4.15996 17.097334,-3.90183 25.371653,0" prop_scale="0.69729521" scale_y_rel="false" vertical="false" bendpath-nodetypes="cc" lpeversion="0" hide_knot="false" />
    <inkscape:path-effect effect="bend_path" id="path-effect255-1-94" is_visible="true" bendpath="m 28.726192,273.89619 c 8.652216,-4.15996 17.097334,-3.90183 25.371653,0" prop_scale="0.69729521" scale_y_rel="false" vertical="false" bendpath-nodetypes="cc" lpeversion="0" hide_knot="false" />
    <inkscape:path-effect effect="bend_path" id="path-effect255-44" is_visible="true" bendpath="m 28.726192,273.89619 c 8.652216,-4.15996 17.097334,-3.90183 25.371653,0" prop_scale="0.69729521" scale_y_rel="false" vertical="false" bendpath-nodetypes="cc" lpeversion="0" hide_knot="false" />
    <inkscape:path-effect effect="bend_path" id="path-effect328-1" is_visible="true" bendpath="m -223.11866,-99.528381 c -40.25777,28.166399 -35.17109,46.251448 20.80457,43.821193" prop_scale="1" scale_y_rel="false" vertical="false" bendpath-nodetypes="cc" lpeversion="0" hide_knot="false" />
  </defs>
  <sodipodi:namedview id="base" pagecolor="#ffffff" bordercolor="#666666" borderopacity="1.0" inkscape:pageopacity="0.0" inkscape:pageshadow="2" inkscape:zoom="0.70710678" inkscape:cx="381.83766" inkscape:cy="313.95541" inkscape:document-units="mm" inkscape:current-layer="layer3" showgrid="false" showguides="true" inkscape:window-width="2467" inkscape:window-height="1413" inkscape:window-x="84" inkscape:window-y="-9" inkscape:window-maximized="1" inkscape:showpageshadow="2" inkscape:pagecheckerboard="0" inkscape:deskcolor="#d1d1d1" />
  <metadata id="metadata5">
    <rdf:RDF>
      <cc:Work rdf:about="">
        <dc:format>image/svg+xml</dc:format>
        <dc:type rdf:resource="http://purl.org/dc/dcmitype/StillImage" />
      </cc:Work>
    </rdf:RDF>
  </metadata>
  <g inkscape:groupmode="layer" id="layer3" inkscape:label="Layer 3" style="opacity:1" transform="translate(63.329041,-53.043278)">
    <rect style="display:inline;opacity:1;fill:#000078;fill-opacity:1;fill-rule:evenodd;stroke-width:0.264583" id="rect436" width="269.95572" height="239.51643" x="-63.329041" y="53.043278" rx="1.0630587" ry="1.0356691" inkscape:export-xdpi="109" inkscape:export-ydpi="109" />
    <path inkscape:connector-curvature="0" style="opacity:1;fill:#0000a0;fill-opacity:1;fill-rule:evenodd;stroke-width:0.264583" d="m -23.426478,111.387 c -0.269872,-0.008 -0.541507,0.0873 -0.75189,0.28784 l -2.129071,2.02984 c -0.420766,0.40118 -0.432233,1.06721 -0.02585,1.49345 l 7.065719,7.41092 h -11.615311 c -0.573759,0 -1.035595,0.47405 -1.035595,1.06298 v 2.09496 c 0,0.15674 0.0347,0.30452 0.09354,0.43822 v 10.16837 l -3.046319,3.04581 c -0.173396,-0.13431 -0.387261,-0.21652 -0.622187,-0.21652 h -15.307075 -2.216404 -0.253214 c -0.588934,0 -1.062985,0.46183 -1.062985,1.03559 v 18.63969 l -6.359816,6.35879 c -0.416476,0.4164 -0.678606,0.82413 -0.588079,0.91467 l 0.744141,0.74466 12.767696,13.39143 c 0.406395,0.42624 1.077021,0.44205 1.503268,0.0357 l 1.444873,-1.3777 c 0.426247,-0.40639 0.442053,-1.0765 0.03566,-1.50275 l -10.557499,-11.07378 23.517946,-23.51381 v 15.52463 c 0,0.57376 0.474049,1.0356 1.062985,1.0356 h 1.627807 c 0.588933,0 1.062984,-0.46184 1.062984,-1.0356 v -15.72307 l 32.7700934,34.37103 -16.7224944,16.71991 -25.33282,-26.57047 c -0.406397,-0.42625 -1.072682,-0.44614 -1.493449,-0.045 l -2.142505,2.04277 c -0.42077,0.40117 -0.432753,1.06771 -0.02635,1.49396 l 25.416018,26.65733 -23.014618,23.01048 c -0.416475,0.41641 -0.678603,0.82465 -0.588076,0.91519 l 2.913515,2.91455 c 0.09053,0.0905 0.498716,-0.17167 0.915191,-0.58807 l 22.937618,-22.93401 15.4574534,16.21245 c 0.406398,0.42625 1.072164,0.44613 1.492933,0.045 l 2.143022,-2.04277 c 0.420769,-0.40117 0.432234,-1.0672 0.02585,-1.49345 L -8.8599086,197.066 7.8625834,180.34609 24.677577,197.98274 c 0.406397,0.42625 1.072681,0.44613 1.493451,0.045 l 2.462898,-2.34817 c 0.420766,-0.40118 0.432234,-1.06773 0.02585,-1.49397 L 11.576048,176.26727 v -21.30774 l 14.345377,15.04611 c 0.406398,0.42624 1.072166,0.44613 1.492933,0.045 l 2.12907,-2.02985 c 0.420767,-0.40118 0.432234,-1.0672 0.02585,-1.49345 l -7.930795,-8.31836 v -10.35957 -2.23036 c 0,-0.56778 -0.461836,-1.02474 -1.035596,-1.02474 h -9.026839 v -9.08058 -2.0345 c 0,-0.56779 -0.461836,-1.02475 -1.035595,-1.02475 H -2.9166076 l -5.361945,-5.62394 h 12.038023 c 0.573762,0 1.035598,-0.47457 1.035598,-1.06351 v -2.09496 c 0,-0.58893 -0.461836,-1.06298 -1.035598,-1.06298 h -12.76047 v -9.54619 c 0,-0.15101 -0.03452,-0.29358 -0.09354,-0.42271 v -0.12609 c 0,-0.56778 -0.461835,-1.02526 -1.0355954,-1.02526 h -12.879831 c -0.132439,-0.062 -0.273722,-0.0975 -0.416512,-0.1018 z m 4.325318,4.09277 h 6.356718 v 6.66729 z m -8.969994,11.35073 h 5.790862 l -5.790862,5.78982 z m 12.274185,0 h 0.553972 l 22.3547094,23.44663 v 21.30774 L -25.91418,136.94564 Z m 16.7741714,9.70793 h 6.13451 v 6.43423 z m -50.7147364,7.44709 h 10.299632 l -10.299632,10.29808 z m 62.475774,4.88859 h 5.092195 v 5.34076 z" id="rect776-9" />
    <path style="display:inline;fill:#005ce0;fill-rule:evenodd;stroke-width:0.264583" d="m 143.15432,58.156101 c -0.0764,-0.0189 -0.0695,0.0762 0.0294,0.295073 11.28821,24.980681 3.57142,17.347766 -27.11204,12.227677 -3.07478,-0.513083 -5.89518,-0.04699 -8.50387,1.174607 -7.704686,-2.328685 -13.664506,-1.192329 -15.013036,10.418484 -4.54523,39.134218 -55.177215,41.175658 -16.7509,43.788548 -1.695163,2.93966 -3.421596,5.26828 -5.234838,6.69158 -7.247493,5.68896 -2.734813,6.82009 6.000138,3.74654 a 5.7405132,9.2883463 59.286188 0 0 6.36757,1.4671 c -0.54922,9.96646 -3.03334,21.86911 7.46676,16.57314 2.19617,-1.10769 4.49289,-2.03455 6.87348,-2.80396 a 37.986608,37.986608 0 0 0 21.667916,11.22153 v 4.35994 l -0.14833,-0.0207 c -6.3496,-0.88427 -11.98578,2.16826 -12.63695,6.84403 l -0.50641,3.63543 c -0.32171,2.30994 0.63683,4.57029 2.45308,6.37377 v 0.0434 c -0.003,0.0118 -0.009,0.0221 -0.0114,0.0341 l -16.436726,72.60954 c -0.13002,0.57439 0.22762,1.14171 0.80203,1.27175 l 4.73821,1.07281 -1.90066,9.27745 -8.43412,3.07681 c -7.54664,-2.83252 -16.107362,-2.69883 -23.522601,0.52454 -0.597773,0.25985 -0.915247,0.78282 -0.735859,1.15237 l 0.76274,1.57096 c 0.179414,0.3696 0.744988,0.45903 1.264524,0.23048 6.313064,-2.77699 13.692986,-2.99792 20.240626,-0.76997 -7.8104,-0.5834 -15.762315,1.77803 -21.909248,6.67814 -0.509693,0.4063 -0.680111,0.99409 -0.410845,1.30432 l 1.14517,1.31879 c 0.269319,0.31025 0.838253,0.24926 1.28053,-0.10647 5.46825,-4.39814 12.690903,-6.52778 19.706803,-5.97845 -4.63058,3.00625 -8.4727,7.20564 -10.962112,12.17756 -0.291835,0.58285 -0.199522,1.1876 0.175181,1.35599 l 1.592661,0.71572 c 0.37475,0.16838 0.86585,-0.12597 1.11776,-0.6346 2.81056,-5.67484 7.69387,-10.27351 13.46843,-12.91704 l 7.1143,-2.59519 -2.37866,9.09714 c -0.14901,0.56975 0.18987,1.14808 0.75965,1.29707 l 1.32548,0.34673 c 0.56978,0.14902 1.14861,-0.18986 1.2976,-0.75962 l 3.072676,-11.74916 c 0.0888,-0.16103 0.13441,-0.34261 0.13073,-0.53073 0.0644,-0.34491 -0.0429,-0.68405 -0.27077,-0.92395 l -1.06196,-2.91042 1.8795,-9.17361 5.1237,1.15962 c 0.44019,0.0996 0.8739,-0.089 1.11207,-0.44029 0.0607,0.15502 0.15714,0.29011 0.27853,0.39947 v 3.12951 c 0,1.09689 0.55147,2.03626 1.35033,2.47478 v 32.06732 c 0,0.57375 0.47403,1.03558 1.06296,1.03558 h 25.93693 c 0.58893,0 1.06299,-0.46183 1.06299,-1.03558 v -32.06988 c 0.79655,-0.43955 1.34617,-1.37729 1.34617,-2.47222 v -3.12951 c 0.21574,-0.19431 0.35346,-0.47303 0.35346,-0.78756 v -7.46517 c 0,-0.31461 -0.13761,-0.59375 -0.35346,-0.78806 v -5.84203 c 0.21574,-0.19431 0.35346,-0.47302 0.35346,-0.78756 v -7.46516 c 0,-0.31462 -0.13761,-0.59375 -0.35346,-0.78806 v -5.56144 c 0.21585,-0.19428 0.35346,-0.47344 0.35346,-0.78806 v -2.92695 c 0.66098,0.8333 1.37282,1.66039 2.14408,2.47478 2.33195,2.62951 5.90745,4.82581 10.60399,5.89163 4.64971,0.60431 8.77494,-0.28011 11.96465,-2.17971 3.99867,-2.31897 6.97447,-5.15258 9.14569,-7.91528 6.78347,-8.32427 11.1705,-17.57944 14.72261,-26.39062 0.2785,-0.69086 0.0574,-1.42198 -0.48731,-1.64436 l -6.73912,-2.75072 2.55849,-12.2003 16.04192,1.24489 c 0.5864,0.0455 1.07704,-0.39154 1.10072,-0.97979 l 0.38963,-9.67538 c 0.0237,-0.58824 -0.42958,-1.09861 -1.01595,-1.14411 l -12.53826,-0.97255 0.003,-0.0403 -1.23458,-0.0811 -0.002,0.0253 -2.88666,-0.22375 3.04014,-11.62617 c 0.14899,-0.56978 -0.18936,-1.14859 -0.75914,-1.29759 l -1.32601,-0.34675 c -0.56978,-0.14899 -1.14808,0.18987 -1.29707,0.75965 l -3.19153,12.20442 c -0.0493,0.1884 -0.0409,0.37638 0.007,0.55087 -0.10192,0.15222 -0.16764,0.33283 -0.17571,0.5333 l -0.28422,7.06829 c -0.004,0.0156 -0.0111,0.0296 -0.0145,0.0455 l -2.99566,14.28594 -2.54714,-1.03971 c -0.54488,-0.22245 -1.20518,0.12539 -1.4795,0.77513 -3.50588,8.30453 -6.99895,16.09032 -12.04008,21.98161 -1.64481,1.82493 -2.97537,3.3033 -4.21061,3.85043 -0.47344,0.15409 -0.79234,0.32096 -0.86145,0.3638 2.7e-4,2.1e-4 10e-4,7.9e-4 0.002,0.001 0.0126,-0.005 0.0151,-0.004 0.0635,-0.0305 0.0237,0.0703 -0.004,0.0698 -0.0635,0.0305 -0.0114,0.005 -0.0164,0.008 -0.002,-0.001 -0.16029,-0.10611 -0.59844,-0.54086 -1.28569,-1.05627 -1.38917,-1.29291 -2.55649,-3.4498 -3.87472,-6.0012 -3.64305,-7.34989 -5.6814,-15.84531 -7.44553,-24.79021 1.50156,-1.18986 2.50504,-2.75632 2.75746,-4.56871 l 0.50644,-3.63545 c 0.65114,-4.67575 -3.93608,-9.1518 -10.28568,-10.03608 l -6.21308,-0.86557 v -5.66323 a 37.986608,37.986608 0 0 0 23.13957,-11.85147 c 3.97701,0.55751 7.90676,1.13648 11.72795,1.67845 3.8662,0.54834 3.62439,-6.5865 2.47118,-13.54801 a 9.2883463,5.7405132 30.713812 0 0 4.76404,-2.09135 9.2883463,5.7405132 30.713812 0 0 -0.89296,-5.89731 c 0.30418,-1.53748 0.0466,-4.21515 -0.98547,-8.39845 -2.16517,-8.77632 -3.5886,-22.85911 -8.91007,-38.142386 -3.43,-9.851109 6.8784,-25.629041 5.32474,-23.856939 -10.7502,12.261848 -10.69666,12.880208 -12.00742,11.033948 -5.69386,-8.020266 -10.31023,-13.742815 -10.84531,-13.875122 z" id="path163-7-0" inkscape:connector-curvature="0" />
    <path style="display:inline;fill:#0000a0;fill-rule:evenodd;stroke-width:0.264583" d="m 123.64364,58.156103 c -0.0764,-0.0189 -0.0695,0.0762 0.0294,0.295073 11.2882,24.980681 3.57142,17.347766 -27.112044,12.227677 C 93.48622,70.16577 90.665815,70.631863 88.057129,71.85346 80.352436,69.524775 74.392617,70.661131 73.044089,82.271944 68.498865,121.40616 17.866875,123.4476 56.293186,126.06049 c -1.695159,2.93966 -3.421592,5.26828 -5.234834,6.69158 -7.247493,5.68896 -2.734813,6.82009 6.000141,3.74654 a 5.7405132,9.2883462 59.286188 0 0 6.367569,1.4671 c -0.549222,9.96646 -3.033342,21.86912 7.466753,16.57314 2.196174,-1.10769 4.492889,-2.03455 6.873478,-2.80396 a 37.986607,37.986607 0 0 0 21.667919,11.22154 v 4.35994 l -0.148325,-0.0207 c -6.349603,-0.88427 -11.985784,2.16826 -12.63695,6.84403 l -0.506412,3.63543 c -0.321707,2.30994 0.636826,4.57029 2.453084,6.37377 v 0.0434 c -0.0031,0.0118 -0.0087,0.0221 -0.01138,0.0341 l -16.436736,72.60953 c -0.130017,0.57439 0.227621,1.14171 0.802031,1.27175 l 4.738211,1.07281 -1.900661,9.27745 -8.434122,3.07681 c -7.546631,-2.83252 -16.107357,-2.69883 -23.522596,0.52454 -0.597773,0.25985 -0.915247,0.78282 -0.735859,1.15237 l 0.76274,1.57096 c 0.179414,0.3696 0.744988,0.45903 1.264524,0.23048 6.313064,-2.77699 13.692981,-2.99792 20.240624,-0.76997 -7.810394,-0.5834 -15.762313,1.77803 -21.909246,6.67814 -0.509693,0.4063 -0.680111,0.99409 -0.410845,1.30432 l 1.14517,1.31879 c 0.269319,0.31025 0.838253,0.24926 1.28053,-0.10647 5.46825,-4.39814 12.690898,-6.52778 19.706802,-5.97845 -4.630579,3.00625 -8.472699,7.20564 -10.962111,12.17756 -0.291835,0.58285 -0.199522,1.1876 0.175181,1.35599 l 1.592659,0.71572 c 0.374756,0.16838 0.865849,-0.12597 1.117759,-0.6346 2.810563,-5.67484 7.693871,-10.27351 13.468429,-12.91704 l 7.114302,-2.59519 -2.378657,9.09714 c -0.149014,0.56975 0.189865,1.14808 0.759645,1.29707 l 1.325483,0.34673 c 0.56978,0.14902 1.148609,-0.18986 1.297596,-0.75962 l 3.072686,-11.74916 c 0.08879,-0.16103 0.134408,-0.34261 0.13073,-0.53073 0.06443,-0.34491 -0.04289,-0.68405 -0.270774,-0.92395 l -1.061958,-2.91042 1.879494,-9.17361 5.123709,1.15962 c 0.440187,0.0996 0.873892,-0.089 1.11207,-0.44029 0.06067,0.15502 0.157136,0.29011 0.278527,0.39947 v 3.12951 c 0,1.09689 0.551471,2.03626 1.350327,2.47478 v 32.06732 c 0,0.57375 0.474028,1.03558 1.062964,1.03558 h 25.936923 c 0.58893,0 1.06299,-0.46183 1.06299,-1.03558 v -32.06988 c 0.79655,-0.43955 1.34617,-1.37729 1.34617,-2.47222 v -3.12951 c 0.21574,-0.19431 0.35346,-0.47303 0.35346,-0.78756 v -7.46517 c 0,-0.31461 -0.13761,-0.59375 -0.35346,-0.78806 v -5.84203 c 0.21574,-0.19431 0.35346,-0.47302 0.35346,-0.78756 v -7.46516 c 0,-0.31462 -0.13761,-0.59375 -0.35346,-0.78806 v -5.56144 c 0.21585,-0.19428 0.35346,-0.47344 0.35346,-0.78806 v -2.92695 c 0.66098,0.8333 1.37282,1.66039 2.14408,2.47478 2.33195,2.62951 5.90745,4.82581 10.60399,5.89163 4.64971,0.60431 8.77494,-0.28011 11.96465,-2.17971 3.99867,-2.31897 6.97447,-5.15258 9.14569,-7.91528 6.78347,-8.32427 11.1705,-17.57944 14.72261,-26.39062 0.2785,-0.69086 0.0574,-1.42198 -0.48731,-1.64436 l -6.73912,-2.75072 2.55849,-12.2003 16.04192,1.24489 c 0.5864,0.0455 1.07704,-0.39154 1.10072,-0.97979 l 0.38963,-9.67538 c 0.0237,-0.58824 -0.42958,-1.09861 -1.01595,-1.14411 l -12.53826,-0.97255 0.003,-0.0403 -1.23458,-0.0811 -0.002,0.0253 -2.88666,-0.22376 3.04014,-11.62616 c 0.14899,-0.56978 -0.18936,-1.1486 -0.75914,-1.2976 l -1.32601,-0.34675 c -0.56978,-0.14899 -1.14808,0.18987 -1.29707,0.75965 l -3.19153,12.20442 c -0.0493,0.1884 -0.0409,0.37638 0.007,0.55087 -0.10192,0.15222 -0.16764,0.33283 -0.17571,0.5333 l -0.28422,7.0683 c -0.004,0.0156 -0.0111,0.0296 -0.0145,0.0455 l -2.99566,14.28593 -2.54715,-1.0397 c -0.54488,-0.22246 -1.20518,0.12538 -1.4795,0.77512 -3.50588,8.30453 -6.99894,16.09032 -12.04007,21.98161 -1.64481,1.82494 -2.97537,3.3033 -4.21061,3.85043 -0.47344,0.15409 -0.79234,0.32096 -0.86145,0.3638 3.4e-4,2.1e-4 0.001,8.2e-4 0.002,0.001 0.0126,-0.005 0.0151,-0.004 0.0635,-0.0305 0.0237,0.0703 -0.004,0.0698 -0.0635,0.0305 -0.0114,0.005 -0.0164,0.008 -0.002,-0.001 -0.16029,-0.1061 -0.59844,-0.54086 -1.28569,-1.05627 -1.38917,-1.29291 -2.55649,-3.4498 -3.87472,-6.0012 -3.64305,-7.34989 -5.6814,-15.84531 -7.44553,-24.79021 1.50156,-1.18986 2.50504,-2.75632 2.75746,-4.56871 l 0.50644,-3.63544 c 0.65114,-4.67576 -3.93608,-9.15181 -10.28568,-10.03608 l -6.21308,-0.86558 v -5.66322 a 37.986607,37.986607 0 0 0 23.13969,-11.85147 c 3.97701,0.55751 7.90676,1.13648 11.72795,1.67845 3.8662,0.54834 3.62439,-6.5865 2.47118,-13.54801 a 9.2883462,5.7405132 30.713812 0 0 4.76403,-2.09135 9.2883462,5.7405132 30.713812 0 0 -0.89296,-5.89731 c 0.30419,-1.53748 0.0466,-4.21515 -0.98547,-8.39845 -2.16517,-8.77632 -3.5886,-22.85911 -8.91006,-38.142386 -3.43,-9.851109 6.8784,-25.629041 5.32474,-23.856939 -10.75031,12.26185 -10.69678,12.88021 -12.00753,11.03395 C 128.79473,64.010949 124.17836,58.2884 123.64327,58.156093 Z" id="path163-7" inkscape:connector-curvature="0" />
    <path inkscape:connector-curvature="0" style="opacity:1;fill:#005ce0;fill-opacity:1;fill-rule:evenodd;stroke-width:0.264583" d="m -23.426478,95.56058 c -0.269873,-0.008 -0.541507,0.0873 -0.751891,0.28784 l -2.12907,2.02984 c -0.420767,0.40118 -0.432234,1.06721 -0.02585,1.49345 l 7.06572,7.41092 h -11.615309 c -0.57376,0 -1.035596,0.47405 -1.035596,1.06298 v 2.09496 c 0,0.15674 0.0347,0.30452 0.09354,0.43822 v 10.16837 l -3.046321,3.04581 c -0.173397,-0.13431 -0.387262,-0.21652 -0.622188,-0.21652 h -15.307075 -2.216404 -0.253214 c -0.588934,0 -1.062985,0.46183 -1.062985,1.03559 v 18.63969 l -6.359816,6.35879 c -0.416476,0.4164 -0.678606,0.82413 -0.588079,0.91467 l 0.744141,0.74466 12.767696,13.39143 c 0.406395,0.42624 1.077021,0.44205 1.503268,0.0357 l 1.444873,-1.3777 c 0.426247,-0.40639 0.442053,-1.0765 0.03566,-1.50275 l -10.557499,-11.07378 23.517947,-23.51381 v 15.52463 c 0,0.57376 0.474049,1.0356 1.062985,1.0356 h 1.627806 c 0.588934,0 1.062985,-0.46184 1.062985,-1.0356 V 126.8305 l 32.7700934,34.37103 -16.7224944,16.71991 -25.332821,-26.57047 c -0.406397,-0.42625 -1.072682,-0.44614 -1.493449,-0.045 l -2.142505,2.04277 c -0.42077,0.40117 -0.432753,1.06771 -0.02635,1.49396 l 25.416019,26.65733 -23.014619,23.01048 c -0.416475,0.41642 -0.678603,0.82466 -0.588076,0.9152 l 2.913515,2.91455 c 0.09053,0.0905 0.498716,-0.17167 0.915191,-0.58808 l 22.93762,-22.93401 15.4574524,16.21245 c 0.406397,0.42626 1.072163,0.44613 1.492933,0.045 l 2.143022,-2.04277 c 0.420769,-0.40118 0.432233,-1.06721 0.02585,-1.49345 L -8.8599083,181.23958 7.8625834,164.51967 24.677576,182.15632 c 0.406398,0.42625 1.072682,0.44613 1.493451,0.045 l 2.462898,-2.34817 c 0.420767,-0.40117 0.432234,-1.06772 0.02585,-1.49396 L 11.576047,160.44085 v -21.30774 l 14.345378,15.04611 c 0.406397,0.42624 1.072166,0.44613 1.492932,0.045 l 2.129071,-2.02985 c 0.420767,-0.40118 0.432234,-1.0672 0.02585,-1.49345 l -7.930796,-8.31836 v -10.35957 -2.23036 c 0,-0.56778 -0.461835,-1.02474 -1.035595,-1.02474 h -9.02684 v -9.08058 -2.0345 c 0,-0.56779 -0.461835,-1.02475 -1.035595,-1.02475 H -2.9166073 l -5.361945,-5.62394 H 3.7594704 c 0.573762,0 1.035597,-0.47457 1.035597,-1.06351 v -2.09496 c 0,-0.58893 -0.461835,-1.06298 -1.035597,-1.06298 H -9.0010003 v -9.54619 c 0,-0.15101 -0.03452,-0.29358 -0.09354,-0.42271 v -0.12609 c 0,-0.56778 -0.461832,-1.02526 -1.0355947,-1.02526 h -12.879831 c -0.13244,-0.062 -0.273722,-0.0975 -0.416512,-0.1018 z m 4.325319,4.09277 h 6.356718 v 6.66729 z m -8.969995,11.35073 h 5.790861 l -5.790861,5.78982 z m 12.274186,0 h 0.553971 l 22.3547094,23.44663 v 21.30774 L -25.914181,121.11922 Z m 16.7741694,9.70793 h 6.134511 v 6.43423 z m -50.7147364,7.44709 h 10.299632 l -10.299632,10.29808 z m 62.475775,4.88859 h 5.092195 v 5.34076 z" id="rect776-9-9" />
  </g>
  <g inkscape:groupmode="layer" id="layer2" inkscape:label="Layer 2" style="display:inline" sodipodi:insensitive="true" transform="translate(63.329041,-53.043278)">
    <path style="fill:#503434;fill-rule:evenodd;stroke-width:0.264583" d="m 129.46538,126.96626 c 1.018,2.94421 7.38207,26.89735 0.41617,25.90937 -24.6463,-3.49562 -53.526478,-8.63428 -73.832227,1.60742 -16.912097,8.53004 -0.134489,-27.56186 -12.023825,-28.30709 -43.28818898,-2.71334 9.531335,-3.97444 14.175425,-43.959772 3.312318,-28.518847 34.441028,6.147405 50.928777,0.168445 3.70053,-1.341922 11.90326,20.193727 20.33568,44.581627 z" id="path163" inkscape:connector-curvature="0" sodipodi:nodetypes="sssssss" />
  </g>
  <g inkscape:label="Layer 1" inkscape:groupmode="layer" id="layer1" style="display:inline;opacity:1" sodipodi:insensitive="true" transform="translate(63.329041,-53.043278)">
    <rect style="fill:#800000;fill-opacity:1;fill-rule:evenodd;stroke-width:0.264583" id="rect475" width="28.063303" height="77.508163" x="75.456459" y="222.51724" rx="1.0630587" ry="1.0356691" />
    <rect style="display:inline;opacity:1;fill:#fce0e0;fill-opacity:1;fill-rule:evenodd;stroke-width:0.264583" id="rect248-6" width="4.8664432" height="25.560638" x="-183.59993" y="144.80649" rx="1.0630587" ry="1.0630587" transform="matrix(-0.97871067,-0.20524481,-0.20524481,0.97871067,0,0)" />
    <path transform="matrix(-0.22078411,-0.9753227,-0.9753227,0.22078411,0,0)" style="display:inline;opacity:1;fill:#8c0000;fill-opacity:1;fill-rule:evenodd;stroke-width:0.264583" d="m -219.15654,-91.84709 c -7.32554,5.252876 -14.14775,10.378227 -18.78066,16.59567 -1.41676,2.007129 -2.56512,3.631654 -2.82601,4.957202 l 0,10e-7 c -0.0665,0.720792 -0.24037,1.172709 -0.15037,0.850178 -0.27067,-0.02771 0.39829,0.32439 1.29981,1.091022 1.5677,1.069413 3.92937,1.731878 6.70884,2.454275 8.84336,2.141192 18.62107,2.049275 28.81715,1.696827 0.70836,-0.02449 1.30237,0.42846 1.32777,1.016712 l 0.64615,14.966666 c 0.0254,0.588139 -0.54535,1.092037 -1.2856,1.125837 -10.63606,0.485647 -21.93377,0.428263 -33.37718,-2.144729 -3.68429,-0.779634 -7.75307,-2.145737 -11.8302,-4.565186 l 0,-2e-6 c -3.07948,-1.693875 -6.01097,-4.696112 -8.08741,-9.041422 -1.61597,-4.40155 -1.66416,-8.620306 -0.51569,-12.150696 l 1e-5,-7e-6 c 1.3789,-4.411993 3.48545,-7.939973 5.70059,-10.667568 6.62118,-8.453933 14.67951,-14.776 22.48899,-20.18582 0.61232,-0.42417 1.37414,-0.36999 1.71131,0.11222 l 8.58225,12.27413 c 0.33726,0.482343 0.1434,1.203705 -0.42975,1.61469 z" id="rect246-9" inkscape:path-effect="#path-effect328" inkscape:original-d="m -277.82375,-64.259811 h 74.4466 c 0.58894,0 1.06306,0.474124 1.06306,1.063058 v 14.97913 c 0,0.588935 -0.47412,1.063059 -1.06306,1.063059 h -74.4466 c -0.58894,0 -1.06306,-0.474124 -1.06306,-1.063059 v -14.97913 c 0,-0.588934 0.47412,-1.063058 1.06306,-1.063058 z" inkscape:connector-curvature="0" />
    <rect style="display:inline;opacity:1;fill:#fce0e0;fill-opacity:1;fill-rule:evenodd;stroke-width:0.264675" id="rect250-7" width="21.440702" height="11.808814" x="-173.64291" y="159.62659" rx="1.0616465" ry="1.0626752" transform="matrix(-0.99700291,-0.07736411,-0.04019067,0.99919203,0,0)" />
    <rect style="display:inline;opacity:1;fill:#fce0e0;fill-opacity:1;fill-rule:evenodd;stroke-width:0.264583" id="rect283-4" width="14.741072" height="3.4962797" x="115.20184" y="-187.54593" rx="1.0630587" ry="1.0630587" transform="rotate(104.65472)" />
    <rect style="fill:#fce0e0;fill-opacity:1;fill-rule:evenodd;stroke-width:0.264583" id="rect248" width="4.8664432" height="25.560638" x="113.56698" y="229.65797" rx="1.0630587" ry="1.0630587" transform="rotate(11.576636)" />
    <rect style="fill:#8c0000;fill-opacity:1;fill-rule:evenodd;stroke-width:0.264583" id="rect246" width="76.572723" height="17.105249" x="-238.85483" y="112.58308" ry="1.0630587" rx="1.0630587" transform="rotate(-77.244908)" />
    <circle style="fill:#fce0e0;fill-rule:evenodd;stroke-width:0.264583" id="path12" cx="90.336311" cy="125.39881" r="37.986607" />
    <rect style="fill:#fce0e0;fill-opacity:1;fill-rule:evenodd;stroke-width:0.264583" id="rect190" width="10.423512" height="37.551369" x="84.590805" y="142.78549" rx="11.572001" ry="8.5214615" />
    <rect style="fill:#c00000;fill-opacity:1;fill-rule:evenodd;stroke-width:0.264583" id="rect192" width="30.759203" height="84.203613" x="74.106262" y="182.98434" rx="2.3623512" ry="2.7403274" />
    <rect style="fill:#840000;fill-opacity:1;fill-rule:evenodd;stroke-width:0.264583" id="rect196" width="31.466518" height="9.5911446" x="73.752609" y="193.24553" rx="0" ry="1.063058" />
    <rect style="display:inline;opacity:1;fill:#840000;fill-opacity:1;fill-rule:evenodd;stroke-width:0.264583" id="rect196-1" width="31.466518" height="9.5911446" x="73.752609" y="207.84798" rx="1.063058" ry="1.063058" />
    <rect style="display:inline;opacity:1;fill:#840000;fill-opacity:1;fill-rule:evenodd;stroke-width:0.264583" id="rect196-0" width="31.466518" height="9.5911446" x="73.752617" y="222.51724" rx="1.063058" ry="1.063058" />
    <rect style="display:inline;opacity:1;fill:#840000;fill-opacity:1;fill-rule:evenodd;stroke-width:0.264583" id="rect196-1-3" width="31.466518" height="9.5911446" x="73.752617" y="237.11969" rx="1.063058" ry="1.063058" />
    <rect style="display:inline;opacity:1;fill:#840000;fill-opacity:1;fill-rule:evenodd;stroke-width:0.264583" id="rect196-1-3-7" width="31.466518" height="9.5911446" x="73.752617" y="252.0025" rx="1.063058" ry="1.063058" />
    <rect style="fill:#fce0e0;fill-opacity:1;fill-rule:evenodd;stroke-width:0.264583" id="rect250" width="15.733259" height="7.3232884" x="-46.30537" y="273.03558" rx="1.0630587" ry="1.0630587" transform="rotate(-20.039648)" />
    <path style="fill:#fce0e0;fill-opacity:1;fill-rule:evenodd;stroke-width:0.264583" d="m 28.987278,272.00332 c 7.782374,-3.38296 16.827241,-3.36519 24.636509,-0.0842 0.593553,0.24938 0.92349,0.7701 0.749697,1.14212 l -0.738958,1.58182 c -0.173796,0.37203 -0.732916,0.47252 -1.263418,0.24812 -6.979726,-2.95237 -15.176623,-2.97621 -22.092602,0.066 -0.525656,0.23123 -1.084965,0.13916 -1.264338,-0.23034 l -0.762665,-1.57107 c -0.179369,-0.36949 0.144267,-0.89531 0.735775,-1.15243 z" id="rect252" inkscape:path-effect="#path-effect255" inkscape:original-d="m 29.789251,271.58109 h 23.245535 c 0.588935,0 1.063059,0.47412 1.063059,1.06305 v 2.50409 c 0,0.58894 -0.474124,1.06306 -1.063059,1.06306 H 29.789251 c -0.588934,0 -1.063059,-0.47412 -1.063059,-1.06306 v -2.50409 c 0,-0.58893 0.474125,-1.06305 1.063059,-1.06305 z" inkscape:connector-curvature="0" />
    <path transform="rotate(-15.066216,62.306348,277.86064)" style="display:inline;opacity:1;fill:#fce0e0;fill-opacity:1;fill-rule:evenodd;stroke-width:0.264583" d="m 28.987278,272.00332 c 7.782374,-3.38296 16.827241,-3.36519 24.636509,-0.0842 0.593553,0.24938 0.92349,0.7701 0.749697,1.14212 l -0.738958,1.58182 c -0.173796,0.37203 -0.732916,0.47252 -1.263418,0.24812 -6.979726,-2.95237 -15.176623,-2.97621 -22.092602,0.066 -0.525656,0.23123 -1.084965,0.13916 -1.264338,-0.23034 l -0.762665,-1.57107 c -0.179369,-0.36949 0.144267,-0.89531 0.735775,-1.15243 z" id="rect252-4" inkscape:path-effect="#path-effect255-1" inkscape:original-d="m 29.789251,271.58109 h 23.245535 c 0.588935,0 1.063059,0.47412 1.063059,1.06305 v 2.50409 c 0,0.58894 -0.474124,1.06306 -1.063059,1.06306 H 29.789251 c -0.588934,0 -1.063059,-0.47412 -1.063059,-1.06306 v -2.50409 c 0,-0.58893 0.474125,-1.06305 1.063059,-1.06305 z" inkscape:connector-curvature="0" />
    <path transform="rotate(-39.908698,58.38575,266.49418)" style="display:inline;opacity:1;fill:#fce0e0;fill-opacity:1;fill-rule:evenodd;stroke-width:0.264583" d="m 28.987278,272.00332 c 7.782374,-3.38296 16.827241,-3.36519 24.636509,-0.0842 0.593553,0.24938 0.92349,0.7701 0.749697,1.14212 l -0.738958,1.58182 c -0.173796,0.37203 -0.732916,0.47252 -1.263418,0.24812 -6.979726,-2.95237 -15.176623,-2.97621 -22.092602,0.066 -0.525656,0.23123 -1.084965,0.13916 -1.264338,-0.23034 l -0.762665,-1.57107 c -0.179369,-0.36949 0.144267,-0.89531 0.735775,-1.15243 z" id="rect252-2" inkscape:path-effect="#path-effect255-8" inkscape:original-d="m 29.789251,271.58109 h 23.245535 c 0.588935,0 1.063059,0.47412 1.063059,1.06305 v 2.50409 c 0,0.58894 -0.474124,1.06306 -1.063059,1.06306 H 29.789251 c -0.588934,0 -1.063059,-0.47412 -1.063059,-1.06306 v -2.50409 c 0,-0.58893 0.474125,-1.06305 1.063059,-1.06305 z" inkscape:connector-curvature="0" />
    <rect style="fill:#fce0e0;fill-opacity:1;fill-rule:evenodd;stroke-width:0.264583" id="rect283" width="14.741072" height="3.4962797" x="246.37048" y="-133.99141" rx="1.0630587" ry="1.0630587" transform="rotate(104.65472)" />
    <rect style="fill:#fcd4d4;fill-opacity:1;fill-rule:evenodd;stroke-width:0.264583" id="rect368" width="13.985299" height="1.5575179" x="168.13748" y="159.29564" rx="1.0630587" ry="0.60995424" transform="rotate(5.4754934)" />
    <rect style="display:inline;opacity:1;fill:#fcd4d4;fill-opacity:1;fill-rule:evenodd;stroke-width:0.264583" id="rect368-2" width="14.69639" height="1.5486933" x="167.82014" y="163.51289" rx="1.0630587" ry="0.60632944" transform="rotate(5.4754934)" inkscape:transform-center-x="0.7349912" inkscape:transform-center-y="-0.10022607" />
    <rect style="fill:#fcd4d4;fill-opacity:1;fill-rule:evenodd;stroke-width:0.264583" id="rect385" width="1.2370197" height="11.801126" x="162.79826" y="161.44267" rx="0" ry="0" transform="rotate(3.7541325)" />
    <ellipse style="fill:#fce0e0;fill-opacity:1;fill-rule:evenodd;stroke-width:0.264583" id="path458" cx="-24.147518" cy="138.36714" rx="9.2883463" ry="5.7405133" transform="rotate(-30.713812)" />
    <ellipse style="display:inline;opacity:1;fill:#fce0e0;fill-opacity:1;fill-rule:evenodd;stroke-width:0.264583" id="path458-8" cx="-178.68851" cy="47.953541" rx="9.2883463" ry="5.7405133" transform="matrix(-0.85972917,-0.51075018,-0.51075018,0.85972917,0,0)" />
    <path style="fill:#644040;fill-rule:evenodd;stroke-width:0.264583" d="m 135.23838,122.94072 c 6.37259,25.83074 -16.64119,-5.46546 -20.71827,-11.29571 -5.9435,-8.49929 -4.56589,-11.973765 -15.830833,-16.299874 -11.082891,-4.256195 -23.289629,20.546394 -37.577804,30.925234 -17.821922,12.94573 -36.54474,15.56907 -24.896445,6.42569 12.904227,-10.12923 21.414963,-66.092809 45.502634,-62.073344 30.683458,5.120091 38.400298,12.753281 27.112098,-12.227404 -0.79122,-1.75097 4.30881,4.413939 10.8161,13.579962 1.31073,1.846258 1.257,1.227962 12.00731,-11.033889 1.55365,-1.772105 -8.7548,14.005623 -5.32477,23.856731 5.32144,15.283274 6.74481,29.366284 8.90998,38.142604 z" id="path160" inkscape:connector-curvature="0" sodipodi:nodetypes="sssssssssss" />
    <path style="fill:#644040;fill-opacity:1;fill-rule:evenodd;stroke-width:0.264583" d="m 110.16463,98.13039 c 21.08316,32.70052 33.07091,61.98617 -12.869451,16.82309 -5.898699,-5.7989 -15.731332,-4.6701 -16.823098,-12.86946 -1.091766,-8.199377 4.670089,-15.731332 12.869463,-16.823093 8.199366,-1.091761 12.340866,5.917392 16.823086,12.869463 z" id="path187" inkscape:connector-curvature="0" sodipodi:nodetypes="sssss" />
    <rect style="display:inline;opacity:1;fill:#840000;fill-opacity:1;fill-rule:evenodd;stroke-width:0.264583" id="rect196-7" width="31.466518" height="9.5911446" x="73.752609" y="178.57626" rx="1.063058" ry="1.063058" />
    <rect style="fill:#fc5454;fill-opacity:1;fill-rule:evenodd;stroke-width:0.264583" id="rect194" width="40.090431" height="20.713387" x="95.131096" y="153.99411" rx="11.572001" ry="8.5214615" transform="rotate(7.9282027)" />
    <ellipse style="fill:#fcfc80;fill-rule:evenodd;stroke-width:0.264583" id="path397" cx="66.38308" cy="126.84748" rx="20.399347" ry="8.7484589" />
    <ellipse style="display:inline;opacity:1;fill:#bcecfc;fill-rule:evenodd;stroke-width:0.264583" id="path397-8" cx="110.33125" cy="126.87292" rx="20.399349" ry="8.7484589" />
    <ellipse style="display:inline;opacity:1;fill:#000060;fill-rule:evenodd;stroke-width:0.264583" id="path734-4" cx="111.68858" cy="127.54559" rx="1.926298" ry="2.2441251" />
    <path style="fill:#fc9090;fill-opacity:1;fill-rule:evenodd;stroke-width:0.264583" d="m 96.699684,144.91504 c 0.910076,1.11672 1.868665,2.17323 2.951038,3.06865 1.204318,0.98902 2.574338,1.78667 4.041378,2.02204 l 0,0 c 1.61098,0.28497 3.32667,-0.14687 4.85577,-0.90652 l 0,0 c 1.98844,-0.99378 3.71828,-2.47903 5.32338,-4.11474 0.49741,-0.50689 1.08417,-0.75204 1.32644,-0.52774 0.24094,0.22308 0.044,0.83611 -0.47292,1.36423 -1.65268,1.6884 -3.48848,3.24927 -5.64127,4.34158 l 0,0 c -1.68771,0.86078 -3.64775,1.32956 -5.58881,1.01733 l 0,0 c -1.74515,-0.30468 -3.3029,-1.18838 -4.604564,-2.28018 -1.164385,-0.97015 -2.177564,-2.08094 -3.114811,-3.23149 -0.465036,-0.57087 -0.606481,-1.1976 -0.347126,-1.39829 0.261407,-0.20228 0.82329,0.0952 1.271495,0.64513 z" id="rect754" inkscape:path-effect="#path-effect774" inkscape:original-d="m 96.566294,143.77141 h 17.651486 c 0.58893,0 1.06306,0.26551 1.06306,0.59531 0,0.3298 -0.47413,0.59531 -1.06306,0.59531 H 96.566294 c -0.588935,0 -1.063059,-0.26551 -1.063059,-0.59531 0,-0.3298 0.474124,-0.59531 1.063059,-0.59531 z" inkscape:connector-curvature="0" transform="translate(-18.903885,-8.3943781)" />
    <ellipse style="display:inline;opacity:1;fill:#000060;fill-rule:evenodd;stroke-width:0.264583" id="path734-4-4" cx="66.939583" cy="127.53436" rx="1.926298" ry="2.2441254" />
  </g>
  <g inkscape:groupmode="layer" id="layer4" inkscape:label="Layer 4" style="opacity:0.494318" transform="translate(63.329041,-53.043278)">
    <g id="g1196" transform="rotate(12.621146,-335.49384,653.09762)">
      <rect inkscape:transform-center-y="2.7365231" inkscape:transform-center-x="-1.0181759" transform="rotate(49.193419)" ry="0" rx="0" y="59.773289" x="165.96832" height="15.08125" width="1.0252604" id="rect1081" style="fill:#080000;fill-opacity:1;fill-rule:evenodd;stroke-width:0.264583" />
      <rect inkscape:transform-center-y="2.5944338" inkscape:transform-center-x="-6.6530808" transform="matrix(-0.36773244,0.92993164,0.92993164,0.36773244,0,0)" ry="0" rx="0" y="112.35795" x="143.26329" height="11.512515" width="0.77670401" id="rect1081-1" style="fill:#080000;fill-opacity:1;fill-rule:evenodd;stroke-width:0.264583" />
      <rect inkscape:transform-center-y="2.9083866" inkscape:transform-center-x="-0.2578596" transform="rotate(64.535614)" ry="0" rx="0" y="20.997307" x="187.78821" height="15.08125" width="1.0252604" id="rect1081-4" style="fill:#080000;fill-opacity:1;fill-rule:evenodd;stroke-width:0.264583" />
      <rect y="168.34277" x="63.318096" height="21.587948" width="0.93365878" id="rect1129" style="fill:#080000;fill-opacity:1;fill-rule:evenodd;stroke-width:0.264583" />
      <rect transform="rotate(-162.98643)" ry="0" rx="0" y="-153.7473" x="-123.42992" height="0.94257808" width="6.8460937" id="rect1131-3" style="fill:#080000;fill-opacity:1;fill-rule:evenodd;stroke-width:0.264583" />
      <rect transform="rotate(148.32913)" ry="0" rx="0" y="-189.20822" x="30.239807" height="0.76136976" width="7.5602059" id="rect1131-7-6" style="fill:#080000;fill-opacity:1;fill-rule:evenodd;stroke-width:0.264583" />
      <rect transform="scale(-1)" y="-183.13397" x="-73.975517" height="21.587948" width="0.93365878" id="rect1129-0" style="fill:#080000;fill-opacity:1;fill-rule:evenodd;stroke-width:0.264583" />
      <rect transform="rotate(17.013567)" ry="0" rx="0" y="142.17538" x="110.69659" height="0.94257808" width="6.8460937" id="rect1131" style="fill:#080000;fill-opacity:1;fill-rule:evenodd;stroke-width:0.264583" />
      <rect transform="rotate(-31.67087)" ry="0" rx="0" y="182.01045" x="-37.451603" height="0.76136976" width="7.5602059" id="rect1131-7" style="fill:#080000;fill-opacity:1;fill-rule:evenodd;stroke-width:0.264583" />
    </g>
  </g>
</svg>
