<?xml version="1.0" encoding="UTF-8" standalone="no"?>
<!-- Created with Inkscape (http://www.inkscape.org/) -->

<svg width="203.35117mm" height="277.14371mm" viewBox="0 0 203.35117 277.14371" version="1.1" id="svg8" inkscape:version="1.3 (0e150ed6c4, 2023-07-21)" sodipodi:docname="егрор.svg" xmlns:inkscape="http://www.inkscape.org/namespaces/inkscape" xmlns:sodipodi="http://sodipodi.sourceforge.net/DTD/sodipodi-0.dtd" xmlns="http://www.w3.org/2000/svg" xmlns:svg="http://www.w3.org/2000/svg" xmlns:rdf="http://www.w3.org/1999/02/22-rdf-syntax-ns#" xmlns:cc="http://creativecommons.org/ns#" xmlns:dc="http://purl.org/dc/elements/1.1/">
  <defs id="defs2">
    <inkscape:path-effect effect="bend_path" id="path-effect1445" is_visible="true" bendpath="m -113.30606,118.46788 c 0,0 -3.44294,21.2427 3.72555,21.18111 7.0352,-0.0604 3.2986,-20.84702 3.2986,-20.84702" prop_scale="1" scale_y_rel="false" vertical="false" bendpath-nodetypes="cac" lpeversion="0" hide_knot="false" />
    <inkscape:path-effect effect="bend_path" id="path-effect859" is_visible="true" bendpath="m 56.7673,129.02501 c 0,0 3.221722,-0.28025 4.194774,0.75494 0.950458,1.01116 0.482681,4.13513 0.482681,4.13513" prop_scale="1" scale_y_rel="false" vertical="false" bendpath-nodetypes="cac" lpeversion="0" hide_knot="false" />
    <inkscape:path-effect effect="bend_path" id="path-effect859-2" is_visible="true" bendpath="m 56.7673,129.02501 c 0,0 3.221722,-0.28025 4.194774,0.75494 0.950458,1.01116 0.482681,4.13513 0.482681,4.13513" prop_scale="1" scale_y_rel="false" vertical="false" bendpath-nodetypes="cac" lpeversion="0" hide_knot="false" />
    <inkscape:path-effect effect="bend_path" id="path-effect859-5" is_visible="true" bendpath="m 56.7673,129.02501 c 0,0 3.221722,-0.28025 4.194774,0.75494 0.950458,1.01116 0.482681,4.13513 0.482681,4.13513" prop_scale="1" scale_y_rel="false" vertical="false" bendpath-nodetypes="cac" lpeversion="0" hide_knot="false" />
    <inkscape:path-effect effect="bend_path" id="path-effect859-29" is_visible="true" bendpath="m 56.7673,129.02501 c 0,0 3.221722,-0.28025 4.194774,0.75494 0.950458,1.01116 0.482681,4.13513 0.482681,4.13513" prop_scale="1" scale_y_rel="false" vertical="false" bendpath-nodetypes="cac" lpeversion="0" hide_knot="false" />
    <inkscape:path-effect effect="bend_path" id="path-effect859-59" is_visible="true" bendpath="m 56.7673,129.02501 c 0,0 3.221722,-0.28025 4.194774,0.75494 0.950458,1.01116 0.482681,4.13513 0.482681,4.13513" prop_scale="1" scale_y_rel="false" vertical="false" bendpath-nodetypes="cac" lpeversion="0" hide_knot="false" />
    <inkscape:path-effect effect="bend_path" id="path-effect859-59-0" is_visible="true" bendpath="m 56.7673,129.02501 c 0,0 3.221722,-0.28025 4.194774,0.75494 0.950458,1.01116 0.482681,4.13513 0.482681,4.13513" prop_scale="1" scale_y_rel="false" vertical="false" bendpath-nodetypes="cac" lpeversion="0" hide_knot="false" />
  </defs>
  <sodipodi:namedview id="base" pagecolor="#ffffff" bordercolor="#666666" borderopacity="1.0" inkscape:pageopacity="0.0" inkscape:pageshadow="2" inkscape:zoom="0.7" inkscape:cx="524.28571" inkscape:cy="567.14286" inkscape:document-units="mm" inkscape:current-layer="layer5" showgrid="false" showguides="false" inkscape:window-width="2467" inkscape:window-height="1413" inkscape:window-x="84" inkscape:window-y="-9" inkscape:window-maximized="1" inkscape:showpageshadow="2" inkscape:pagecheckerboard="0" inkscape:deskcolor="#d1d1d1" />
  <metadata id="metadata5">
    <rdf:RDF>
      <cc:Work rdf:about="">
        <dc:format>image/svg+xml</dc:format>
        <dc:type rdf:resource="http://purl.org/dc/dcmitype/StillImage" />
        <dc:title />
      </cc:Work>
    </rdf:RDF>
  </metadata>
  <g inkscape:label="Layer 1" inkscape:groupmode="layer" id="layer1" style="display:inline" transform="translate(-3.4017856,-5.5803571)">
    <rect style="fill:#ff9955;fill-rule:evenodd;stroke-width:0.264583" id="rect935" width="203.35118" height="276.3006" x="3.4017856" y="5.5803571" inkscape:export-xdpi="96" inkscape:export-ydpi="96" />
    <path style="display:inline;fill:#ff7f2a;fill-rule:evenodd;stroke-width:0.264583" d="M 3.4017802,71.726197 104.69941,2.1785771 206.75296,71.726197 V 5.5803571 H 3.4017802 Z" id="rect935-1-3" inkscape:connector-curvature="0" sodipodi:nodetypes="cccccc" />
    <rect style="display:inline;fill:#d45500;fill-rule:evenodd;stroke-width:0.264583" id="rect935-19" width="117.1147" height="143.63095" x="49.311298" y="160.17262" />
    <path sodipodi:type="star" style="fill:#ff6600;fill-opacity:1;fill-rule:evenodd;stroke-width:0.264583" id="path1161" sodipodi:sides="8" sodipodi:cx="105.24623" sodipodi:cy="108.26965" sodipodi:r1="109.22556" sodipodi:r2="54.612785" sodipodi:arg1="-1.5707963" sodipodi:arg2="-1.1780972" inkscape:flatsided="false" inkscape:rounded="0" inkscape:randomized="0" d="m 105.24623,-0.95590973 20.89941,58.76992973 56.33473,-26.778501 -26.7785,56.334728 58.76992,20.899413 -58.76993,20.8994 26.77851,56.33473 -56.33473,-26.7785 -20.89941,58.76993 -20.899409,-58.76993 -56.334728,26.7785 26.778503,-56.33473 -58.769928,-20.89941 58.769929,-20.899407 -26.7785,-56.334728 56.334728,26.778503 z" inkscape:transform-center-y="-27.306389" inkscape:transform-center-x="3.2143514e-06" />
    <rect style="display:inline;fill:#ffc400;fill-opacity:1;fill-rule:evenodd;stroke-width:0.264583" id="rect1144-1" width="116.09336" height="116.09336" x="47.305611" y="48.613434" rx="86.242355" ry="86.242355" />
    <rect style="fill:#ff7f2a;fill-rule:evenodd;stroke-width:0.264583" id="rect1144" width="91.417274" height="91.417274" x="59.643661" y="60.951473" rx="76.086105" ry="76.086105" />
    <text xml:space="preserve" style="font-style:normal;font-variant:normal;font-weight:normal;font-stretch:normal;font-size:29.5309px;line-height:1.25;font-family:'Comic Sans MS';-inkscape-font-specification:'Comic Sans MS';letter-spacing:0px;word-spacing:0px;fill:#803300;fill-opacity:1;stroke:none;stroke-width:0.264583" x="37.155312" y="85.21698" id="text1171" transform="scale(0.50380387,1.9848994)"><tspan sodipodi:role="line" id="tspan1169" x="37.155312" y="85.21698" style="fill:#803300;stroke-width:0.264583">Л</tspan></text>
    <text xml:space="preserve" style="font-style:normal;font-variant:normal;font-weight:normal;font-stretch:normal;font-size:29.5309px;line-height:1.25;font-family:'Comic Sans MS';-inkscape-font-specification:'Comic Sans MS';letter-spacing:0px;word-spacing:0px;display:inline;fill:#803300;fill-opacity:1;stroke:none;stroke-width:0.264583" x="38.470589" y="45.473614" id="text1171-5" transform="scale(0.50380387,1.9848994)"><tspan sodipodi:role="line" id="tspan1169-5" x="38.470589" y="45.473614" style="fill:#803300;stroke-width:0.264583">А</tspan></text>
    <text xml:space="preserve" style="font-style:normal;font-variant:normal;font-weight:normal;font-stretch:normal;font-size:29.5309px;line-height:1.25;font-family:'Comic Sans MS';-inkscape-font-specification:'Comic Sans MS';letter-spacing:0px;word-spacing:0px;display:inline;fill:#803300;fill-opacity:1;stroke:none;stroke-width:0.264583" x="142.97969" y="20.495779" id="text1171-8" transform="scale(0.50380387,1.9848994)"><tspan sodipodi:role="line" id="tspan1169-4" x="142.97969" y="20.495779" style="fill:#803300;stroke-width:0.264583">Д</tspan></text>
    <text xml:space="preserve" style="font-style:normal;font-variant:normal;font-weight:normal;font-stretch:normal;font-size:29.5309px;line-height:1.25;font-family:'Comic Sans MS';-inkscape-font-specification:'Comic Sans MS';letter-spacing:0px;word-spacing:0px;display:inline;fill:#803300;fill-opacity:1;stroke:none;stroke-width:0.264583" x="254.65607" y="24.692287" id="text1171-1" transform="scale(0.50380387,1.9848994)"><tspan sodipodi:role="line" id="tspan1169-41" x="254.65607" y="24.692287" style="fill:#803300;stroke-width:0.264583">Н</tspan></text>
    <text xml:space="preserve" style="font-style:normal;font-variant:normal;font-weight:normal;font-stretch:normal;font-size:29.5309px;line-height:1.25;font-family:'Comic Sans MS';-inkscape-font-specification:'Comic Sans MS';letter-spacing:0px;word-spacing:0px;display:inline;fill:#803300;fill-opacity:1;stroke:none;stroke-width:0.264583" x="354.81372" y="45.258282" id="text1171-55" transform="scale(0.50380387,1.9848994)"><tspan sodipodi:role="line" id="tspan1169-7" x="354.81372" y="45.258282" style="fill:#803300;stroke-width:0.264583">О</tspan></text>
    <path style="display:inline;fill:#ff7f2a;fill-rule:evenodd;stroke-width:0.264583" d="M 3.4017715,193.28448 104.6994,285.28274 206.75295,193.28448 v 87.49835 H 3.4017715 Z" id="rect935-1" inkscape:connector-curvature="0" sodipodi:nodetypes="cccccc" />
    <path style="display:inline;fill:#ff6600;fill-opacity:1;fill-rule:evenodd;stroke-width:0.264583" d="m 3.40177,232.97198 101.29763,52.31076 102.05355,-52.31076 v 49.75208 H 3.40177 Z" id="rect935-1-5" inkscape:connector-curvature="0" sodipodi:nodetypes="cccccc" />
    <path sodipodi:type="star" style="display:inline;fill:#ff7f2a;fill-opacity:1;fill-rule:evenodd;stroke-width:0.264583" id="path1161-9" sodipodi:sides="8" sodipodi:cx="18.101048" sodipodi:cy="266.95193" sodipodi:r1="12.742062" sodipodi:r2="6.3710308" sodipodi:arg1="-1.5707963" sodipodi:arg2="-1.1780972" inkscape:flatsided="false" inkscape:rounded="0" inkscape:randomized="0" d="m 18.101048,254.20987 2.438088,6.856 6.57191,-3.12393 -3.123933,6.57191 6.855996,2.43809 -6.855997,2.43808 3.123933,6.57191 -6.57191,-3.12393 -2.438088,6.856 -2.438088,-6.856 -6.5719099,3.12393 3.1239329,-6.57191 -6.8559961,-2.43809 6.8559971,-2.43808 -3.1239334,-6.57191 6.5719104,3.12393 z" inkscape:transform-center-y="-3.1855268" inkscape:transform-center-x="2.0603225e-06" />
    <path sodipodi:type="star" style="display:inline;fill:#ff7f2a;fill-opacity:1;fill-rule:evenodd;stroke-width:0.264583" id="path1161-9-9" sodipodi:sides="8" sodipodi:cx="192.31879" sodipodi:cy="266.95193" sodipodi:r1="12.742062" sodipodi:r2="6.3710308" sodipodi:arg1="-1.5707963" sodipodi:arg2="-1.1780972" inkscape:flatsided="false" inkscape:rounded="0" inkscape:randomized="0" d="m 192.31879,254.20987 2.43808,6.856 6.57192,-3.12393 -3.12394,6.57191 6.856,2.43809 -6.856,2.43808 3.12393,6.57191 -6.57191,-3.12393 -2.43808,6.856 -2.43809,-6.856 -6.57191,3.12393 3.12393,-6.57191 -6.85599,-2.43809 6.85599,-2.43808 -3.12393,-6.57191 6.57191,3.12393 z" inkscape:transform-center-y="-3.1855268" inkscape:transform-center-x="2.0603225e-06" />
    <path sodipodi:type="star" style="display:inline;fill:#ff9955;fill-opacity:1;fill-rule:evenodd;stroke-width:0.264583" id="path1161-9-90" sodipodi:sides="8" sodipodi:cx="18.101028" sodipodi:cy="20.211357" sodipodi:r1="12.742062" sodipodi:r2="6.3710308" sodipodi:arg1="-1.5707963" sodipodi:arg2="-1.1780972" inkscape:flatsided="false" inkscape:rounded="0" inkscape:randomized="0" d="m 18.101029,7.4692955 2.438088,6.8559965 6.57191,-3.123933 -3.123933,6.57191 6.855996,2.438088 -6.855997,2.438088 3.123933,6.571911 -6.57191,-3.123934 -2.438088,6.855997 -2.438088,-6.855997 -6.57191,3.123933 3.123933,-6.57191 -6.8559962,-2.438088 6.8559972,-2.438088 -3.1239335,-6.57191 6.5719105,3.123933 z" inkscape:transform-center-y="-3.1855268" inkscape:transform-center-x="2.0603225e-06" />
    <path sodipodi:type="star" style="display:inline;fill:#ff9955;fill-opacity:1;fill-rule:evenodd;stroke-width:0.264583" id="path1161-9-9-8" sodipodi:sides="8" sodipodi:cx="192.31879" sodipodi:cy="20.211357" sodipodi:r1="12.742062" sodipodi:r2="6.3710308" sodipodi:arg1="-1.5707963" sodipodi:arg2="-1.1780972" inkscape:flatsided="false" inkscape:rounded="0" inkscape:randomized="0" d="m 192.31879,7.4692955 2.43808,6.8559965 6.57192,-3.123933 -3.12394,6.57191 6.856,2.438088 -6.856,2.438088 3.12393,6.571911 -6.57191,-3.123934 -2.43808,6.855997 -2.43809,-6.855997 -6.57191,3.123933 3.12393,-6.57191 -6.85599,-2.438088 6.85599,-2.438088 -3.12393,-6.57191 6.57191,3.123933 z" inkscape:transform-center-y="-3.1855268" inkscape:transform-center-x="2.0603225e-06" />
  </g>
  <g inkscape:groupmode="layer" id="layer2" inkscape:label="Layer 2" style="display:inline" transform="translate(-3.4017856,-5.5803571)">
    <path inkscape:connector-curvature="0" style="display:inline;fill:#aa4400;fill-rule:evenodd;stroke-width:0.264583" d="m 112.47759,63.124323 -36.006595,11.240143 -6.161382,25.233085 5.974289,0.441829 4.159441,22.67614 -1.12345,5.10046 13.633791,5.5206 0.439773,0.016 a 35.478336,35.478336 0 0 0 14.094753,6.56497 l -0.2594,8.78758 -7.565443,0.69815 1.088313,8.70592 -28.012237,4.65347 -34.1416,156.53876 22.14282,10.07793 19.180231,-95.18593 -5.715931,81.86789 28.530557,6.40477 -0.0206,-13.37077 h 11.45303 l 6.84714,-1.95647 -0.33642,15.32724 30.67722,-11.90575 -6.53346,-74.74891 22.30458,86.29136 7.66982,-1.03868 0.003,1.03868 15.34843,-1.96009 5.83734,-149.0312 -3.08248,0.0827 v -2.00195 -4.51238 l 1.39732,-0.03 4.45812,-50.26205 -5.38675,0.37879 -5.2958,-6.04511 -6.83059,0.0279 -4.57647,6.27765 -7.05125,-0.60151 3.35743,37.42149 -6.28798,-6.6213 -5.74334,1.47691 13.21832,18.38285 4.01682,-0.0868 v 6.58926 l -3.83439,0.10284 0.31007,102.42941 -24.55561,-117.53597 -22.68494,1.7663 3.2551,-11.80755 -6.56861,0.60616 0.22636,-7.66465 a 35.478336,35.478336 0 0 0 10.2414,-4.65657 l 5.90973,0.21187 4.46122,-8.78913 0.20982,-2.37815 a 35.478336,35.478336 0 0 0 5.32421,-18.6092 35.478336,35.478336 0 0 0 -2.52542,-13.110305 l 0.61132,-6.926196 -2.73162,-18.880499 z" id="rect1032-0-6" />
    <path inkscape:connector-curvature="0" style="display:inline;fill:#aa4400;fill-rule:evenodd;stroke-width:0.264583" d="m 98.681454,63.124332 -36.00659,11.240143 -6.16138,25.233085 5.97429,0.44183 4.15944,22.67614 -1.12345,5.10046 13.63379,5.5206 0.43977,0.016 a 35.478336,35.478336 0 0 0 14.09475,6.56497 l -0.2594,8.78758 -7.56544,0.69815 1.08831,8.70592 -28.01223,4.65347 -34.1416,156.53877 22.14282,10.07792 19.18023,-95.18592 -5.71593,81.86789 28.53055,6.40477 -0.0206,-13.37077 h 11.453046 l 6.84713,-1.95647 -0.33642,15.32724 30.67722,-11.90575 -6.53346,-74.74891 22.30458,86.29136 7.66982,-1.03868 0.003,1.03868 15.34843,-1.96009 5.83734,-149.0312 -3.08248,0.0827 v -2.00195 -4.51238 l 1.39732,-0.03 4.45812,-50.26205 -5.38675,0.37879 -5.2958,-6.04511 -6.83059,0.0279 -4.57647,6.27765 -7.05125,-0.60151 3.35743,37.42149 -6.28798,-6.6213 -5.74334,1.47691 13.21832,18.38285 4.01682,-0.0868 v 6.58926 l -3.83439,0.10284 0.31007,102.42941 -24.55561,-117.53597 -22.68493,1.7663 3.25509,-11.80755 -6.5686,0.60616 0.22635,-7.66465 a 35.478336,35.478336 0 0 0 10.24141,-4.65657 l 5.90973,0.21187 4.46122,-8.78913 0.20982,-2.37815 a 35.478336,35.478336 0 0 0 5.32421,-18.6092 35.478336,35.478336 0 0 0 -2.52542,-13.110308 l 0.61132,-6.926194 -2.73162,-18.8805 z" id="rect1032-0" />
    <path style="fill:#9c5d00;fill-opacity:1;fill-rule:evenodd;stroke-width:0.264583" d="m 69.568913,96.389134 72.945047,-11.162173 -3.61987,41.023509 -4.46149,8.78928 -47.52403,-1.70344 -13.633962,-5.52055 1.123374,-5.10038 z" id="rect1032" inkscape:connector-curvature="0" sodipodi:nodetypes="cccccccc" />
    <rect style="fill:#ffb380;fill-opacity:1;fill-rule:evenodd;stroke-width:0.264583" id="rect1020" width="16.818665" height="33.522915" x="105.5313" y="131.17171" transform="rotate(1.6925104)" />
    <rect style="fill:#ffccaa;fill-rule:evenodd;stroke-width:0.264583" id="rect984" width="14.724161" height="22.501205" x="172.13383" y="157.20329" />
    <path style="fill:#483e37;fill-rule:evenodd;stroke-width:0.264583" d="m 82.687444,162.76253 49.755486,0.57927 -2.29867,139.02163 -43.680433,-2.12397 z" id="rect959" inkscape:connector-curvature="0" sodipodi:nodetypes="ccccc" />
    <path style="fill:#ffccaa;fill-opacity:1;fill-rule:evenodd;stroke-width:0.264583" d="m 154.89847,146.70243 5.74325,-1.47697 6.28789,6.62127 -3.35699,-37.42114 7.05093,0.6013 4.57658,-6.27738 6.83075,-0.0283 5.29544,6.04557 5.3869,-0.37885 -4.45829,50.26163 -20.1383,0.43596 z" id="rect986" inkscape:connector-curvature="0" sodipodi:nodetypes="cccccccccccc" />
    <path style="fill:#483e37;fill-opacity:1;fill-rule:evenodd;stroke-width:0.264583" d="m 93.618274,149.40332 31.005836,-2.86031 -5.83505,21.16635 H 95.906524 Z" id="rect1015" inkscape:connector-curvature="0" sodipodi:nodetypes="ccccc" />
    <circle style="fill:#ffccaa;fill-opacity:1;fill-rule:evenodd;stroke-width:0.264583" id="path1027" cx="108.94938" cy="105.26329" r="35.478336" />
    <rect style="fill:#ffe6d5;fill-rule:evenodd;stroke-width:0.264583" id="rect1087" width="24.154482" height="15.935946" x="79.818275" y="103.64016" />
    <rect style="fill:#8d5fd3;fill-opacity:1;fill-rule:evenodd;stroke-width:0.264583" id="rect1089" width="12.761425" height="9.0919228" x="104.49159" y="-97.288483" transform="rotate(90)" />
    <rect style="fill:#ffe6d5;fill-rule:evenodd;stroke-width:0.264583" id="rect1087-8" width="24.154484" height="15.935946" x="-139.08855" y="103.64016" transform="scale(-1,1)" />
    <rect style="fill:#8d5fd3;fill-rule:evenodd;stroke-width:0.264583" id="rect1089-1" width="12.761425" height="9.0919228" x="104.49159" y="121.71284" transform="matrix(0,1,1,0,0,0)" />
    <rect style="fill:#220055;fill-opacity:1;fill-rule:evenodd;stroke-width:0.264583" id="rect1089-6" width="9.5782604" height="6.8240657" x="106.08318" y="-96.154564" transform="rotate(90)" />
    <rect style="fill:#8d5fd3;fill-opacity:1;fill-rule:evenodd;stroke-width:0.264583" id="rect1089-3" width="12.761425" height="9.0919228" x="104.4916" y="-130.80478" transform="rotate(90)" />
    <rect style="fill:#220055;fill-opacity:1;fill-rule:evenodd;stroke-width:0.264583" id="rect1089-6-8" width="9.5782604" height="6.8240657" x="106.08318" y="-129.67085" transform="rotate(90)" />
    <rect style="fill:#483e37;fill-opacity:1;fill-rule:evenodd;stroke-width:0.264583" id="rect1715" width="74.449615" height="2.5390604" x="71.019348" y="102.0937" />
    <path style="display:inline;fill:#483e37;fill-opacity:1;fill-rule:evenodd;stroke-width:1" d="m 291.42969,388.5918 v 60.83008 0 l 6.78515,8.41796 h 99.33789 l 9.84899,-42.83249 v -15.71429 l -17.23029,50.12882 H 298.21484 V 388.5918 Z" id="rect1715-1" inkscape:connector-curvature="0" sodipodi:nodetypes="ccccccccccc" transform="scale(0.26458333)" />
    <path style="display:inline;fill:#483e37;fill-opacity:1;fill-rule:evenodd;stroke-width:0.264583" d="m 141.59426,102.81492 v 16.09462 0 l -1.79524,2.22725 H 113.51588 L 110.91,109.80403 v -4.15774 l 4.55885,13.26325 h 24.33017 v -16.09462 z" id="rect1715-1-1" inkscape:connector-curvature="0" sodipodi:nodetypes="ccccccccccc" />
    <rect style="fill:#784421;fill-rule:evenodd;stroke-width:0.264583" id="rect1820" width="23.340031" height="1.5119047" x="88.918892" y="129.98177" />
  </g>
  <g inkscape:groupmode="layer" id="layer4" inkscape:label="Layer 4" style="display:inline;opacity:0.249" transform="translate(-3.4017856,-5.5803571)">
    <path style="fill:#000000;fill-rule:evenodd;stroke-width:0.264583" d="m 96.43426,157.82187 37.67266,143.8491 -25.98443,7.42428 H 87.711771 l 7.352362,-148.44996 z" id="rect1061" inkscape:connector-curvature="0" sodipodi:nodetypes="cccccc" />
    <path style="fill:#000000;fill-rule:evenodd;stroke-width:0.264583" d="M 70.42552,74.364482 142.51396,85.226959 118.4597,103.60641 64.26441,99.59737 Z" id="rect1079" inkscape:connector-curvature="0" sodipodi:nodetypes="ccccc" />
    <path style="fill:#000000;fill-rule:evenodd;stroke-width:0.264583" d="m 172.13384,179.7045 v -13.49711 l 14.72416,2.98465 v 10.51246 l -8.73649,4.94893 z" id="rect1082" inkscape:connector-curvature="0" sodipodi:nodetypes="cccccc" />
  </g>
  <g inkscape:groupmode="layer" id="layer3" inkscape:label="Layer 3" style="display:inline" transform="translate(-3.4017856,-5.5803571)">
    <path style="fill:#2b1100;fill-opacity:1;fill-rule:evenodd;stroke-width:0.264583" d="m 168.29935,171.69085 21.64074,-0.57934 -5.8369,149.03128 -15.34854,1.95998 z" id="rect982" inkscape:connector-curvature="0" sodipodi:nodetypes="ccccc" />
    <path style="fill:#2b1100;fill-opacity:1;fill-rule:evenodd;stroke-width:0.264583" d="m 66.69411,162.76254 29.74015,-4.94067 0.25592,164.64426 -28.53036,-6.40473 5.7158,-81.86799 -19.18051,95.18577 -22.142526,-10.07804 z" id="rect962" inkscape:connector-curvature="0" sodipodi:nodetypes="cccccccc" />
    <path style="fill:#2b1100;fill-opacity:1;fill-rule:evenodd;stroke-width:0.264583" d="m 144.05392,156.58428 -25.82228,2.01047 -3.59833,163.87138 30.6773,-11.90607 -6.53349,-74.7486 22.30443,86.29131 17.0691,-2.31142 z" id="rect962-8" inkscape:connector-curvature="0" sodipodi:nodetypes="cccccccc" />
    <path style="fill:#ffb763;fill-opacity:1;fill-rule:evenodd;stroke-width:0.264583" d="m 70.42552,74.364482 36.00665,-11.240386 33.34979,3.2223 2.732,18.880565 -36.24774,12.267939 -42.00181,2.102472 z" id="rect1029" inkscape:connector-curvature="0" sodipodi:nodetypes="ccccccc" />
  </g>
  <g inkscape:groupmode="layer" id="layer5" inkscape:label="Layer 5" style="opacity:0.266" transform="translate(-3.4017856,-5.5803571)">
    <path style="fill:#ffdd55;fill-rule:evenodd;stroke-width:0.264583" d="M 3.4017856,5.5803571 H 206.75295 V 282.72406 L 134.15177,92.153022 Z" id="rect1823" inkscape:connector-curvature="0" sodipodi:nodetypes="ccccc" />
    <path sodipodi:type="star" style="fill:#ffe680;fill-opacity:1;fill-rule:evenodd;stroke-width:0.264583" id="path1826" sodipodi:sides="6" sodipodi:cx="56.513485" sodipodi:cy="38.466465" sodipodi:r1="61.131096" sodipodi:r2="30.565548" sodipodi:arg1="-1.5707963" sodipodi:arg2="-1.0471975" inkscape:flatsided="true" inkscape:rounded="0" inkscape:randomized="0" d="m 56.513487,-22.664631 52.941083,30.5655495 0,61.1310955 L 56.513483,99.597561 3.5724021,69.032012 3.5724038,7.9009156 Z" inkscape:transform-center-y="-1.1011565e-05" inkscape:transform-center-x="3.2237761e-06" />
    <path sodipodi:type="star" style="opacity:1;fill:#ffe680;fill-opacity:1;fill-rule:evenodd;stroke-width:0.264583" id="path1826-0" sodipodi:sides="6" sodipodi:cx="51.75832" sodipodi:cy="309.52374" sodipodi:r1="61.131096" sodipodi:r2="30.565548" sodipodi:arg1="-1.5707963" sodipodi:arg2="-1.0471975" inkscape:flatsided="true" inkscape:rounded="0" inkscape:randomized="0" d="m 51.758321,248.39265 52.941079,30.56555 0,61.13109 -52.941082,30.56555 -52.941081,-30.56555 1.7e-6,-61.1311 z" inkscape:transform-center-y="-1.1011565e-05" inkscape:transform-center-x="3.2237761e-06" />
  </g>
</svg>
