<?xml version="1.0" encoding="UTF-8" standalone="no"?>
<!-- Created with Inkscape (http://www.inkscape.org/) -->

<svg width="259.29166mm" height="259.29166mm" viewBox="0 0 259.29166 259.29166" version="1.1" id="svg8" inkscape:version="1.3 (0e150ed6c4, 2023-07-21)" sodipodi:docname="вот это да..svg" xmlns:inkscape="http://www.inkscape.org/namespaces/inkscape" xmlns:sodipodi="http://sodipodi.sourceforge.net/DTD/sodipodi-0.dtd" xmlns="http://www.w3.org/2000/svg" xmlns:svg="http://www.w3.org/2000/svg" xmlns:rdf="http://www.w3.org/1999/02/22-rdf-syntax-ns#" xmlns:cc="http://creativecommons.org/ns#" xmlns:dc="http://purl.org/dc/elements/1.1/">
  <defs id="defs2">
    <inkscape:path-effect effect="bend_path" id="path-effect1523" is_visible="true" bendpath="m 107.53422,140.32887 c 14.1611,3.40404 26.18919,3.45235 39.78199,-5.19717" prop_scale="0.75862048" scale_y_rel="false" vertical="false" bendpath-nodetypes="cc" lpeversion="0" hide_knot="false" />
  </defs>
  <sodipodi:namedview id="base" pagecolor="#ffffff" bordercolor="#666666" borderopacity="1.0" inkscape:pageopacity="0.0" inkscape:pageshadow="2" inkscape:zoom="0.69999999" inkscape:cx="528.57144" inkscape:cy="462.85715" inkscape:document-units="mm" inkscape:current-layer="layer3" showgrid="false" inkscape:window-width="2467" inkscape:window-height="1413" inkscape:window-x="84" inkscape:window-y="-9" inkscape:window-maximized="1" showguides="false" inkscape:showpageshadow="2" inkscape:pagecheckerboard="0" inkscape:deskcolor="#d1d1d1" />
  <metadata id="metadata5">
    <rdf:RDF>
      <cc:Work rdf:about="">
        <dc:format>image/svg+xml</dc:format>
        <dc:type rdf:resource="http://purl.org/dc/dcmitype/StillImage" />
        <dc:title />
      </cc:Work>
    </rdf:RDF>
  </metadata>
  <g inkscape:groupmode="layer" id="layer3" inkscape:label="Layer 3" style="display:inline" transform="translate(3.0238037,-40.732178)">
    <rect style="fill:#b3ff80;fill-rule:evenodd;stroke-width:0.264583" id="rect817-3" width="259.29166" height="259.29166" x="-3.0238037" y="40.732178" inkscape:export-filename="D:\Спайд\Артеги\гхифхты кхе\господи.png" inkscape:export-xdpi="96" inkscape:export-ydpi="96" />
  </g>
  <g inkscape:groupmode="layer" id="layer4" inkscape:label="Layer 4" style="opacity:0.283" transform="translate(3.0238037,-40.732178)">
    <rect style="fill:#4d4d4d;fill-rule:evenodd;stroke-width:0.264583" id="rect1688" width="332.24261" height="48.724323" x="-61.563393" y="208.32196" transform="rotate(-6.7788564)" />
  </g>
  <g inkscape:label="Layer 1" inkscape:groupmode="layer" id="layer1" style="display:inline" transform="translate(3.0238037,-40.732178)">
    <rect style="fill:#2ca05a;fill-opacity:1;fill-rule:evenodd;stroke-width:0.264583" id="rect1409-9" width="68.035713" height="17.008928" x="97.210091" y="-191.25844" rx="8.5044641" ry="8.5044641" transform="rotate(120.49872)" />
    <rect style="fill:#cccccc;fill-rule:evenodd;stroke-width:0.264583" id="rect1411" width="54.923885" height="9.0871649" x="153.06665" y="203.62801" rx="5.0113039" ry="5.0113039" transform="rotate(-13.200991)" />
    <rect style="fill:#37c871;fill-opacity:1;fill-rule:evenodd;stroke-width:0.264583" id="rect1409" width="68.035713" height="17.008928" x="83.41996" y="206.24635" rx="8.5044641" ry="8.5044641" transform="rotate(-15.124677)" />
    <path sodipodi:type="star" style="fill:#2ca05a;fill-opacity:1;fill-rule:evenodd;stroke-width:0.342952" id="path949" sodipodi:sides="3" sodipodi:cx="101.82969" sodipodi:cy="241.40794" sodipodi:r1="49.833405" sodipodi:r2="24.916702" sodipodi:arg1="-1.5707963" sodipodi:arg2="-0.52359878" inkscape:flatsided="true" inkscape:rounded="0.37" inkscape:randomized="0" d="m 101.82969,191.57454 c 31.93618,0 59.12508,47.09257 43.15699,74.75011 -15.96809,27.65754 -70.345899,27.65753 -86.313986,-1e-5 -15.968087,-27.65754 11.220821,-74.7501 43.156996,-74.7501 z" inkscape:transform-center-x="1.3076403e-06" inkscape:transform-center-y="-2.0867769" transform="matrix(0.5951944,0,0,1,63.270964,-28.865109)" />
    <path sodipodi:type="star" style="fill:#008033;fill-opacity:1;fill-rule:evenodd;stroke-width:0.353396" id="path1436" sodipodi:sides="3" sodipodi:cx="97.51786" sodipodi:cy="210.15997" sodipodi:r1="13.693896" sodipodi:r2="6.8469481" sodipodi:arg1="-1.5707963" sodipodi:arg2="-0.52359875" inkscape:flatsided="true" inkscape:rounded="0" inkscape:randomized="0" d="m 97.517861,196.46608 11.859259,20.54084 -23.718522,0 z" inkscape:transform-center-y="-0.21324217" transform="matrix(0.55729239,0.0601856,-0.10737212,0.9942189,66.099381,-2.9334407)" inkscape:transform-center-x="1.0411858" />
    <path style="fill:#e6e6e6;fill-rule:evenodd;stroke-width:0.264583" d="m 106.1498,167.79984 c -1.68428,0.25019 -2.77914,2.21007 -2.45471,4.39416 l 4.24803,28.59816 c 0.0421,0.28316 0.1071,0.55496 0.18993,0.81447 -0.008,0.23847 0.002,0.48037 0.0388,0.72513 l 4.22844,28.46627 c 0.32442,2.1841 2.34399,3.68082 4.5281,3.35639 l 29.39094,-4.36579 c 2.18411,-0.32443 3.68142,-2.34356 3.35699,-4.52766 l -4.22844,-28.46627 c -0.0363,-0.24421 -0.0964,-0.47819 -0.17296,-0.70362 0.004,-0.27289 -0.0136,-0.55228 -0.0557,-0.83598 l -4.24803,-28.59815 c -0.32443,-2.1841 -1.9417,-3.74111 -3.62599,-3.49093 -1.68429,0.25019 -2.77864,2.20999 -2.45421,4.39409 l 3.89117,26.19572 -25.11514,3.73065 -3.89116,-26.19572 c -0.32443,-2.18409 -1.9417,-3.74111 -3.62599,-3.49092 z" id="rect951" inkscape:connector-curvature="0" />
    <circle style="fill:#37c871;fill-rule:evenodd;stroke-width:0.264583" id="path859-9-9" cx="152.95065" cy="103.83748" r="20.329454" />
    <circle style="fill:#f9f9f9;fill-rule:evenodd;stroke-width:0.264583" id="path859-9-0-5" cx="153.30986" cy="103.80605" r="16.738682" />
    <rect style="fill:#c87137;fill-rule:evenodd;stroke-width:0.264583" id="rect821" width="259.29166" height="66.969887" x="-3.0238097" y="233.05391" />
    <path style="fill:#a05a2c;fill-rule:evenodd;stroke-width:0.264583" d="M 256.26785,192.09669 -3.0238097,220.09268 v 82.33655 L 256.26785,274.43415 Z" id="rect819" inkscape:connector-curvature="0" />
    <path style="fill:#8f5229;fill-opacity:1;fill-rule:evenodd;stroke-width:0.264583" d="m 267.58859,238.01517 -67.65334,7.3047 -67.65286,7.30469 -67.65334,7.3047 -67.6528597,7.30422 V 288.7164 L 64.62905,281.41217 v 0 l 67.65334,-7.30423 67.65286,-7.30469 67.65334,-7.30422 z" id="rect819-1-2" inkscape:connector-curvature="0" />
    <path style="fill:#8f5229;fill-opacity:1;fill-rule:evenodd;stroke-width:0.264583" d="m 267.58857,203.97058 -67.65333,7.3047 -67.65286,7.30469 -67.653331,7.3047 -67.6528587,7.30422 v 21.48292 l 67.6528587,-7.30423 v 0 l 67.653331,-7.30423 67.65286,-7.30469 67.65333,-7.30422 z" id="rect819-1" inkscape:connector-curvature="0" />
    <ellipse style="fill:#1a1a1a;fill-opacity:0.21673;fill-rule:evenodd;stroke-width:0.264583" id="path1692" cx="42.296535" cy="265.46219" rx="54.056396" ry="33.408691" />
    <rect style="fill:#333333;fill-rule:evenodd;stroke-width:0.264583" id="rect973-5-7" width="13.643412" height="22.075512" x="170.73463" y="215.06908" rx="3.9856837" ry="3.9856837" />
    <circle style="fill:#1a1a1a;fill-rule:evenodd;stroke-width:0.264583" id="path859-9-0-0-4" cx="-158.07471" cy="-107.18725" r="10.730937" transform="scale(-1)" />
    <circle style="fill:#37c871;fill-rule:evenodd;stroke-width:0.264583" id="path859" cx="120.19642" cy="136.7381" r="41.577381" />
    <rect style="fill:#f9f9f9;fill-rule:evenodd;stroke-width:0.264583" id="rect861" width="59.72023" height="27.885715" x="75.691437" y="101.3062" transform="rotate(-5.9937861)" />
    <rect style="fill:#ffffff;fill-rule:evenodd;stroke-width:0.264583" id="rect868" width="87.3125" height="44.997829" x="61.895302" y="61.004894" rx="17.821697" ry="17.821697" transform="rotate(-5.9937861)" />
    <rect style="fill:#ececec;fill-rule:evenodd;stroke-width:0.264583" id="rect872" width="7.9713917" height="31.531349" x="78.230492" y="67.10215" rx="3.9856958" ry="3.9856958" transform="rotate(-5.9937861)" />
    <rect style="fill:#ececec;fill-rule:evenodd;stroke-width:0.264583" id="rect872-8" width="7.9713922" height="31.531351" x="125.88938" y="67.102142" rx="3.9856961" ry="3.9856961" transform="rotate(-5.9937861)" />
    <rect style="fill:#ececec;fill-rule:evenodd;stroke-width:0.264583" id="rect872-8-7" width="7.9713926" height="31.531351" x="102.70445" y="67.10215" rx="3.9856963" ry="3.9856963" transform="rotate(-5.9937861)" />
    <circle style="fill:#37c871;fill-rule:evenodd;stroke-width:0.264583" id="path859-9" cx="81.375717" cy="113.5257" r="20.329454" />
    <rect style="fill:#333333;fill-rule:evenodd;stroke-width:0.264583" id="rect973" width="13.643412" height="22.075506" x="181.17706" y="238.30856" rx="3.9856832" ry="3.9856832" />
    <rect style="fill:#1a1a1a;fill-rule:evenodd;stroke-width:0.267895" id="rect971" width="102.81969" height="38.029293" x="76.899971" y="247.0106" rx="3.9919937" ry="3.8387694" transform="matrix(0.98630799,-0.16491379,0.37815341,0.92574294,0,0)" />
    <rect style="fill:#000000;fill-rule:evenodd;stroke-width:0.267895" id="rect971-7" width="35.322937" height="34.637791" x="89.894119" y="251.27299" rx="15.941789" ry="16.485661" transform="matrix(0.98630799,-0.16491377,0.37815339,0.92574295,0,0)" />
    <rect style="fill:#000000;fill-rule:evenodd;stroke-width:0.267895" id="rect971-7-1" width="35.322937" height="34.637791" x="138.10559" y="250.23216" rx="15.941789" ry="16.485661" transform="matrix(0.98630799,-0.16491377,0.3781534,0.92574295,0,0)" />
    <rect style="fill:#333333;fill-rule:evenodd;stroke-width:0.264583" id="rect973-5" width="13.643412" height="22.07551" x="269.52441" y="230.59711" rx="3.9856837" ry="3.9856837" />
    <rect style="fill:#f2f2f2;fill-rule:evenodd;stroke-width:0.268011" id="rect1089" width="84.835785" height="75.057281" x="-85.069923" y="230.26178" rx="42.417892" ry="37.528633" transform="matrix(0.98798531,-0.15454779,0.37194952,0.92825296,0,0)" />
    <path style="fill:#f8c27c;fill-opacity:1;fill-rule:evenodd;stroke-width:0.264583" d="m 63.475097,224.13842 c -0.909647,0.15148 -1.519693,1.00588 -1.36821,1.91552 l 0.884332,5.31034 -7.728683,1.28706 -0.761387,-4.57207 c -0.151487,-0.90965 -1.005495,-1.52024 -1.915143,-1.36875 l -0.251177,0.0418 c -0.909647,0.15148 -1.520156,1.00595 -1.368672,1.91561 l 0.761387,4.57206 -8.220859,1.36902 -0.164773,-0.98944 c -0.151483,-0.90964 -1.005956,-1.52014 -1.915603,-1.36866 -0.909646,0.15148 -1.519694,1.00587 -1.368211,1.91551 l 1.137693,6.83176 -8.712112,1.45083 -0.205445,-1.23368 c -0.151485,-0.90965 -1.00596,-1.52016 -1.915606,-1.36868 -0.909647,0.15149 -1.520155,1.00596 -1.368671,1.91561 l 1.536798,9.22835 -4.020229,0.66949 c -0.990964,0.16502 -1.655914,1.09568 -1.490887,2.08666 0.165025,0.99096 1.095691,1.6559 2.086656,1.49088 l 4.020229,-0.66949 1.237836,7.4331 -5.633224,0.93811 c -1.123503,0.18709 -1.877311,1.24212 -1.690213,2.36563 0.187097,1.1235 1.242131,1.87731 2.365634,1.69021 l 5.633224,-0.9381 1.217882,7.31329 -3.779228,0.62935 c -1.057234,0.17606 -1.766342,1.16911 -1.590279,2.22635 0.176059,1.05722 1.168719,1.76689 2.225954,1.59082 l 3.779228,-0.62935 1.912404,11.48383 c 0.151486,0.90966 1.005957,1.52017 1.915604,1.36868 0.909646,-0.15148 1.520158,-1.00595 1.368672,-1.91561 l -0.535141,-3.21348 8.712113,-1.45082 0.943649,5.66653 c 0.151483,0.90964 1.005494,1.52023 1.91514,1.36875 0.909642,-0.15152 1.520158,-1.00596 1.368675,-1.9156 l -0.106464,-0.63931 8.22086,-1.36902 0.573279,3.44249 c 0.151483,0.90964 1.005958,1.52016 1.915605,1.36868 l 0.251177,-0.0418 c 0.909648,-0.15148 1.519692,-1.00589 1.368209,-1.91553 l -0.573279,-3.44249 7.728683,-1.28706 0.951586,5.71419 c 0.151483,0.90965 1.005493,1.52024 1.91514,1.36875 0.909647,-0.15148 1.520154,-1.00596 1.368671,-1.9156 l -0.951586,-5.7142 8.712116,-1.45083 0.359975,2.16162 c 0.151483,0.90965 1.005957,1.52017 1.915604,1.36869 0.909646,-0.15149 1.51969,-1.0059 1.368207,-1.91554 l -1.19716,-7.18885 8.30459,-1.38296 1.084462,6.51211 c 0.151485,0.90965 1.005495,1.52024 1.915142,1.36875 0.909647,-0.15148 1.520153,-1.00595 1.368669,-1.91561 l -2.461727,-14.78246 5.840457,-0.97262 c 1.05723,-0.17606 1.76634,-1.16912 1.59029,-2.22634 -0.17607,-1.05724 -1.16873,-1.76689 -2.22596,-1.59083 l -5.840461,0.97261 -1.217883,-7.31328 3.746848,-0.62397 c 1.123504,-0.18709 1.877776,-1.24221 1.690676,-2.36571 -0.187096,-1.1235 -1.242592,-1.87723 -2.366096,-1.69013 l -3.746848,0.62396 -1.237836,-7.4331 5.838605,-0.97231 c 0.990966,-0.16502 1.655925,-1.09569 1.490895,-2.08665 -0.165027,-0.99097 -1.095697,-1.65592 -2.086664,-1.49089 l -5.838605,0.9723 -2.043904,-12.27347 c -0.151483,-0.90965 -1.005952,-1.52015 -1.915599,-1.36867 -0.909647,0.15149 -1.519695,1.00588 -1.368212,1.91552 l 0.712552,4.27881 -8.30459,1.38297 -1.496279,-8.98504 c -0.151485,-0.90965 -1.005493,-1.52023 -1.915139,-1.36874 -0.909647,0.15148 -1.520156,1.00595 -1.368672,1.9156 l 0.523358,3.14272 -8.712117,1.45083 -0.884331,-5.31034 c -0.151483,-0.90964 -1.005954,-1.52015 -1.915601,-1.36867 z" id="rect1344" inkscape:connector-curvature="0" />
    <path style="fill:#ef8d20;fill-opacity:1;fill-rule:evenodd;stroke-width:0.264583" d="m 35.763325,241.90288 c -1.816956,0.30258 -3.035988,2.00931 -2.733409,3.82627 l 0.35851,2.15282 c 0.302576,1.81695 2.00885,3.03607 3.825805,2.73349 l 2.152821,-0.35851 c 1.816956,-0.30258 3.036063,-2.00886 2.733486,-3.82581 l -0.35851,-2.15282 c -0.302578,-1.81696 -2.008926,-3.03653 -3.825883,-2.73395 z m 11.587938,-1.92974 c -1.816958,0.30258 -3.03599,2.00931 -2.733412,3.82627 l 0.35851,2.15282 c 0.302577,1.81695 2.008851,3.03607 3.825809,2.73349 l 2.152818,-0.35851 c 1.816956,-0.30258 3.036067,-2.00886 2.73349,-3.82581 l -0.35851,-2.15282 c -0.302578,-1.81696 -2.008931,-3.03653 -3.825887,-2.73395 z m 11.588399,-1.92982 c -1.816956,0.30258 -3.036453,2.00939 -2.733875,3.82635 l 0.35851,2.15282 c 0.302577,1.81695 2.009315,3.03599 3.826272,2.73341 l 2.152819,-0.35851 c 1.816956,-0.30258 3.036064,-2.00886 2.733487,-3.82581 l -0.358509,-2.15282 c -0.302579,-1.81696 -2.008928,-3.03652 -3.825884,-2.73395 z M 70.5276,236.11358 c -0.113558,0.0189 -0.224785,0.0435 -0.333448,0.0731 -1.629959,0.44343 -2.68364,2.04975 -2.399973,3.75315 l 0.358509,2.15281 c 0.302578,1.81696 2.008856,3.03608 3.82581,2.7335 l 2.152819,-0.35851 c 1.816955,-0.30258 3.036066,-2.00886 2.733487,-3.82582 L 76.506296,238.489 c -0.302578,-1.81696 -2.008931,-3.03652 -3.825886,-2.73395 z m 11.587936,-1.92974 c -1.816955,0.30258 -3.035988,2.00931 -2.73341,3.82627 l 0.35851,2.15282 c 0.302577,1.81695 2.008852,3.03607 3.825807,2.73349 l 2.15282,-0.35851 c 1.816956,-0.30258 3.036528,-2.00894 2.733952,-3.82588 l -0.35851,-2.15283 c -0.302579,-1.81696 -2.009393,-3.03645 -3.826349,-2.73387 z m -44.478781,18.96884 c -1.816955,0.30258 -3.035987,2.00931 -2.733408,3.82628 l 0.358509,2.15281 c 0.302578,1.81696 2.008852,3.03607 3.825807,2.73349 l 2.152821,-0.35851 c 1.816956,-0.30257 3.036063,-2.00885 2.733484,-3.82581 l -0.358508,-2.15281 c -0.30258,-1.81697 -2.008928,-3.03654 -3.825884,-2.73396 z m 11.587939,-1.92974 c -0.113559,0.0189 -0.224785,0.0435 -0.333451,0.0731 -1.521297,0.41387 -2.540795,1.84077 -2.43932,3.41409 0.0073,0.11239 0.02036,0.22505 0.03927,0.3386 l 7.9e-5,4.8e-4 0.358508,2.15281 c 0.07565,0.45424 0.238747,0.87073 0.469646,1.23581 0.05774,0.0913 0.119764,0.17926 0.185609,0.26383 0.724353,0.93047 1.921247,1.44189 3.170555,1.23384 l 2.152817,-0.35851 c 1.362717,-0.22693 2.389272,-1.24386 2.689679,-2.50449 0.100136,-0.4202 0.119456,-0.86707 0.04381,-1.32131 l -0.358508,-2.15281 c -0.0189,-0.11352 -0.04312,-0.22486 -0.07265,-0.33352 -0.443436,-1.62997 -2.049833,-2.6841 -3.75323,-2.40043 z m 11.588398,-1.92982 c -0.113558,0.0189 -0.224782,0.0435 -0.333449,0.0731 -1.521296,0.41386 -2.540794,1.84076 -2.43932,3.41409 0.0073,0.11238 0.01997,0.22557 0.03888,0.33913 l 0.35851,2.15282 c 0.07565,0.45424 0.2392,0.87065 0.47011,1.23573 0.05773,0.0913 0.119823,0.17974 0.185684,0.2643 0.724382,0.93026 1.921323,1.44141 3.170479,1.23339 l 2.152819,-0.35851 c 1.816957,-0.30258 3.036066,-2.00885 2.733486,-3.82582 l -0.35851,-2.15282 c -0.302577,-1.81695 -2.008926,-3.03652 -3.825882,-2.73394 z m 11.587938,-1.92974 c -0.113557,0.0189 -0.224784,0.0435 -0.333448,0.0731 -1.521297,0.41387 -2.540797,1.84077 -2.439323,3.4141 0.0073,0.11238 0.02036,0.22504 0.03927,0.33859 l 7.9e-5,4.8e-4 0.358509,2.15281 c 0.07564,0.45424 0.238746,0.87073 0.469648,1.23581 0.05773,0.0913 0.119744,0.17926 0.185606,0.26383 0.724357,0.93048 1.921247,1.44189 3.170554,1.23384 l 2.152818,-0.3585 c 1.362718,-0.22694 2.389274,-1.24387 2.689679,-2.50449 0.100138,-0.42021 0.119457,-0.86708 0.04381,-1.32132 l -0.358508,-2.15281 c -0.0189,-0.11352 -0.04312,-0.22485 -0.07265,-0.33352 -0.443437,-1.62997 -2.049835,-2.6841 -3.753232,-2.40043 z m 11.587937,-1.92974 c -1.816956,0.30257 -3.036066,2.00884 -2.733488,3.8258 l 0.358588,2.15329 c 0.302578,1.81696 2.008853,3.03607 3.825808,2.73349 l 2.15282,-0.35851 c 1.816956,-0.30257 3.036528,-2.00893 2.73395,-3.82589 l -0.358587,-2.15329 c -0.302579,-1.81695 -2.009315,-3.03598 -3.826272,-2.7334 z m -44.47878,18.96884 c -1.816956,0.30258 -3.036067,2.00884 -2.733487,3.82581 l 0.358586,2.15327 c 0.302578,1.81696 2.00885,3.03607 3.825806,2.73349 l 2.15282,-0.35851 c 1.816957,-0.30258 3.036065,-2.00885 2.733487,-3.82581 l -0.358586,-2.15327 c -0.30258,-1.81697 -2.008849,-3.03606 -3.825806,-2.73349 z m 11.587938,-1.92974 c -0.113558,0.0189 -0.224784,0.0435 -0.333451,0.0731 -1.629955,0.44344 -2.683712,2.0493 -2.400044,3.7527 l 0.358587,2.15328 c 0.302578,1.81696 2.00885,3.03607 3.825808,2.73349 l 2.152818,-0.35851 c 1.816956,-0.30258 3.036069,-2.00885 2.73349,-3.82581 l -0.358587,-2.15328 c -0.302578,-1.81696 -2.008855,-3.03607 -3.825811,-2.7335 z m 11.588399,-1.92982 c -0.113558,0.0189 -0.224782,0.0435 -0.333449,0.0731 -1.629956,0.44344 -2.684177,2.04937 -2.40051,3.75278 l 0.358588,2.15328 c 0.07564,0.45424 0.239198,0.87065 0.470109,1.23573 0.05772,0.0913 0.119746,0.17927 0.185606,0.26383 0.724356,0.93047 1.92125,1.4419 3.170556,1.23385 l 2.15282,-0.35851 c 1.816956,-0.30258 3.036065,-2.00885 2.733487,-3.8258 l -0.358587,-2.15329 c -0.302579,-1.81696 -2.008852,-3.03607 -3.825809,-2.73349 z m 11.587938,-1.92974 c -0.113558,0.0189 -0.224785,0.0435 -0.333448,0.0731 -1.629958,0.44344 -2.683716,2.0493 -2.400048,3.7527 l 0.358587,2.15329 c 0.07564,0.45423 0.238745,0.87072 0.469647,1.23579 0.05772,0.0913 0.119821,0.17973 0.185684,0.2643 0.72438,0.93026 1.92132,1.44141 3.170478,1.23339 l 2.152819,-0.35851 c 1.816955,-0.30258 3.036067,-2.00885 2.733489,-3.82581 l -0.358587,-2.15328 c -0.302579,-1.81696 -2.008856,-3.03607 -3.825811,-2.7335 z m 11.587936,-1.92974 c -1.816955,0.30258 -3.036067,2.00884 -2.733487,3.82581 l 0.358586,2.15327 c 0.302578,1.81696 2.008851,3.03607 3.825806,2.73349 l 2.15282,-0.35851 c 1.816956,-0.30258 3.03653,-2.00893 2.733952,-3.82588 l -0.358585,-2.15328 c -0.30258,-1.81697 -2.009316,-3.03599 -3.826272,-2.73341 z m -44.478781,18.96884 c -1.816955,0.30258 -3.036065,2.00885 -2.73349,3.82578 l 0.358589,2.1533 c 0.302578,1.81696 2.008852,3.03607 3.825807,2.73349 l 2.152821,-0.35851 c 1.816956,-0.30257 3.036063,-2.00885 2.733485,-3.82581 l -0.358589,-2.1533 c -0.302575,-1.81693 -2.008846,-3.03604 -3.825802,-2.73346 z m 11.587939,-1.92974 c -1.816959,0.30258 -3.035994,2.00929 -2.733412,3.82627 l 0.358508,2.15281 c 0.302578,1.81696 2.008852,3.03607 3.82581,2.73349 l 2.152818,-0.35851 c 1.816956,-0.30257 3.036067,-2.00885 2.733489,-3.82581 l -0.358509,-2.15281 c -0.302581,-1.81698 -2.008931,-3.03653 -3.825887,-2.73395 z m 11.588398,-1.92982 c -1.816956,0.30258 -3.03653,2.00892 -2.733955,3.82586 l 0.358589,2.1533 c 0.302578,1.81696 2.009317,3.03599 3.826273,2.73342 l 2.152819,-0.35851 c 1.816957,-0.30258 3.036064,-2.00886 2.733486,-3.82582 l -0.358589,-2.1533 c -0.302575,-1.81693 -2.008847,-3.03604 -3.825803,-2.73346 z m 11.587938,-1.92974 c -0.113557,0.0189 -0.224784,0.0435 -0.333465,0.073 -1.629955,0.44345 -2.683712,2.04931 -2.400047,3.7527 l 0.358587,2.15328 c 0.30258,1.81697 2.008858,3.03608 3.825812,2.73351 l 2.152819,-0.35851 c 1.816955,-0.30258 3.036065,-2.00886 2.733485,-3.82583 l -0.358587,-2.15328 c -0.302576,-1.81695 -2.008852,-3.03606 -3.825807,-2.73348 z m 11.587937,-1.92974 c -1.816956,0.30258 -3.035992,2.00929 -2.73341,3.82627 l 0.358508,2.15281 c 0.302578,1.81696 2.008853,3.03607 3.825808,2.73349 l 2.15282,-0.35851 c 1.816956,-0.30257 3.036528,-2.00893 2.73395,-3.82589 l -0.358508,-2.15281 c -0.302582,-1.81698 -2.009393,-3.03645 -3.826349,-2.73387 z" id="rect899" inkscape:connector-curvature="0" />
    <path style="fill:#ffb75d;fill-opacity:1;fill-rule:evenodd;stroke-width:0.264583" d="m 49.907221,288.44328 c -0.824297,-0.12622 -1.386001,-0.89156 -1.25978,-1.71585 l 0.736857,-4.81209 -7.003521,-1.07243 -0.634415,4.14309 c -0.126225,0.8243 -0.891206,1.38649 -1.715505,1.26027 l -0.227608,-0.0348 c -0.824298,-0.12622 -1.386422,-0.89163 -1.260199,-1.71593 l 0.634415,-4.14308 -7.44952,-1.14072 -0.137294,0.89661 c -0.126222,0.8243 -0.891625,1.38641 -1.715922,1.26019 -0.824296,-0.12622 -1.386003,-0.89155 -1.259781,-1.71585 l 0.947966,-6.19075 -7.894678,-1.20889 -0.171185,1.11793 c -0.126222,0.82431 -0.891627,1.38643 -1.715923,1.26021 -0.824297,-0.12622 -1.386421,-0.89163 -1.260198,-1.71593 l 1.280515,-8.36248 -3.643022,-0.55784 c -0.897984,-0.1375 -1.510234,-0.97115 -1.372728,-1.86914 0.137505,-0.89799 0.97116,-1.51023 1.869144,-1.37273 l 3.643022,0.55785 1.03141,-6.73568 -5.104674,-0.78166 c -1.018088,-0.1559 -1.712152,-1.10095 -1.556256,-2.11904 0.155895,-1.01809 1.100953,-1.71215 2.119041,-1.55625 l 5.104673,0.78165 1.014784,-6.6271 -3.424633,-0.5244 c -0.958037,-0.1467 -1.610951,-1.03623 -1.46425,-1.99427 0.146699,-0.95804 1.03588,-1.61145 1.993917,-1.46475 l 3.424633,0.5244 1.593484,-10.40633 c 0.126224,-0.82431 0.891626,-1.38643 1.715923,-1.26021 0.824296,0.12622 1.386423,0.89162 1.260199,1.71593 l -0.445899,2.91196 7.894679,1.20889 0.786282,-5.13486 c 0.126222,-0.82429 0.891206,-1.38648 1.715502,-1.26026 0.824294,0.12624 1.386423,0.89163 1.260202,1.71592 l -0.08871,0.57932 7.44952,1.14072 0.477677,-3.11949 c 0.12622,-0.8243 0.891626,-1.38643 1.715923,-1.26021 l 0.227609,0.0348 c 0.824299,0.12622 1.386002,0.89157 1.25978,1.71587 l -0.477676,3.11949 7.00352,1.07243 0.792896,-5.17806 c 0.126222,-0.82429 0.891205,-1.38648 1.715502,-1.26026 0.824299,0.12623 1.386419,0.89163 1.260198,1.71592 l -0.792895,5.17805 7.894684,1.20888 0.299944,-1.9588 c 0.12622,-0.82429 0.891624,-1.38642 1.715921,-1.2602 0.824297,0.12622 1.385999,0.89157 1.259777,1.71586 l -0.997517,6.51434 7.525393,1.15234 0.903614,-5.90109 c 0.126222,-0.82431 0.891205,-1.38649 1.715502,-1.26027 0.824299,0.12621 1.386418,0.89162 1.260196,1.71592 l -2.0512,13.39547 5.292464,0.81041 c 0.958035,0.1467 1.610955,1.03626 1.464256,1.99428 -0.146702,0.95804 -1.035888,1.61144 -1.993922,1.46475 l -5.292463,-0.81042 -1.014785,6.6271 3.395293,0.51991 c 1.018093,0.1559 1.712572,1.10102 1.556677,2.1191 -0.155898,1.0181 -1.101369,1.71209 -2.119462,1.55619 l -3.395292,-0.51991 -1.03141,6.73568 5.290783,0.81016 c 0.897993,0.13751 1.510247,0.97116 1.372742,1.86915 -0.137506,0.89798 -0.971165,1.51023 -1.869158,1.37272 l -5.290784,-0.81015 -1.703053,11.12189 c -0.126222,0.82428 -0.89162,1.3864 -1.715919,1.26018 -0.824297,-0.12622 -1.386001,-0.89155 -1.25978,-1.71584 l 0.593723,-3.87735 -7.525392,-1.15233 -1.246754,8.14199 c -0.126223,0.8243 -0.891204,1.38648 -1.715501,1.26026 -0.824297,-0.12622 -1.38642,-0.89162 -1.260198,-1.71592 l 0.436081,-2.84784 -7.894684,-1.20889 -0.736857,4.81209 c -0.126222,0.82429 -0.891621,1.38641 -1.71592,1.26019 z" id="rect1344-1" inkscape:connector-curvature="0" />
    <path style="fill:#db770b;fill-opacity:1;fill-rule:evenodd;stroke-width:0.264583" d="m 24.640161,272.70808 c -1.646474,-0.25212 -2.7689,-1.78095 -2.51678,-3.42742 l 0.298723,-1.95084 c 0.252117,-1.64646 1.78053,-2.76896 3.427005,-2.51684 l 1.950828,0.29872 c 1.646476,0.25212 2.768963,1.78054 2.516846,3.42701 l -0.298724,1.95083 c -0.252119,1.64648 -1.780594,2.76938 -3.42707,2.51726 z m 10.500675,1.60793 c -1.646479,-0.25212 -2.768904,-1.78095 -2.516785,-3.42742 l 0.298723,-1.95084 c 0.252119,-1.64647 1.780531,-2.76896 3.427009,-2.51684 l 1.950826,0.29872 c 1.646475,0.25212 2.768967,1.78054 2.516849,3.42701 l -0.298723,1.95083 c -0.25212,1.64648 -1.780598,2.76938 -3.427074,2.51727 z m 10.501091,1.60799 c -1.646477,-0.25211 -2.769322,-1.78101 -2.517203,-3.42749 l 0.298723,-1.95083 c 0.252117,-1.64647 1.780951,-2.7689 3.427428,-2.51677 l 1.950825,0.29872 c 1.646477,0.25212 2.768965,1.78054 2.516848,3.42701 l -0.298724,1.95082 c -0.252119,1.64648 -1.780594,2.76938 -3.427072,2.51727 z m 10.500673,1.60793 c -0.102901,-0.0157 -0.203767,-0.0367 -0.302369,-0.0621 -1.479058,-0.38169 -2.450785,-1.82168 -2.214423,-3.36526 l 0.298722,-1.95082 c 0.252119,-1.64648 1.780536,-2.76897 3.427011,-2.51685 l 1.950825,0.29872 c 1.646475,0.25212 2.768967,1.78054 2.516848,3.42701 l -0.298722,1.95083 c -0.252118,1.64648 -1.780599,2.76938 -3.427073,2.51726 z m 10.500672,1.60793 c -1.646476,-0.25211 -2.768901,-1.78095 -2.516782,-3.42743 l 0.298723,-1.95082 c 0.252118,-1.64647 1.78053,-2.76897 3.427007,-2.51684 l 1.950825,0.29872 c 1.646478,0.25212 2.769387,1.7806 2.517269,3.42706 l -0.298724,1.95084 c -0.252119,1.64648 -1.781015,2.76931 -3.427492,2.51719 z M 26.201171,262.51383 c -1.646475,-0.25213 -2.7689,-1.78095 -2.51678,-3.42744 l 0.298722,-1.95083 c 0.252119,-1.64647 1.780532,-2.76896 3.427008,-2.51685 l 1.950827,0.29872 c 1.646475,0.25213 2.768963,1.78054 2.516844,3.42702 l -0.298722,1.95082 c -0.252121,1.64649 -1.780596,2.76939 -3.427071,2.51728 z m 10.500674,1.60792 c -0.102904,-0.0157 -0.203765,-0.0367 -0.302372,-0.0621 -1.380454,-0.35623 -2.319153,-1.6344 -2.245993,-3.05821 0.0052,-0.10169 0.01575,-0.20372 0.03151,-0.30662 l 7.2e-5,-4.7e-4 0.298722,-1.95082 c 0.06303,-0.41162 0.205585,-0.79014 0.41005,-1.12298 0.05113,-0.0832 0.106173,-0.1635 0.164711,-0.24075 0.643967,-0.8499 1.720159,-1.32647 2.852248,-1.15312 l 1.950824,0.29872 c 1.234858,0.1891 2.175091,1.09648 2.46162,2.23279 0.09551,0.37877 0.11826,0.7826 0.05523,1.19422 l -0.298722,1.95082 c -0.01575,0.10287 -0.03633,0.20383 -0.06175,0.30243 -0.381692,1.47906 -1.821747,2.4512 -3.36532,2.21484 z m 10.501091,1.60799 c -0.102903,-0.0157 -0.203763,-0.0367 -0.30237,-0.0621 -1.380454,-0.35624 -2.319153,-1.6344 -2.245994,-3.05821 0.0052,-0.10171 0.01539,-0.2042 0.03114,-0.3071 l 0.298723,-1.95083 c 0.06303,-0.41163 0.205996,-0.79008 0.41047,-1.12291 0.05112,-0.0832 0.10622,-0.16394 0.164774,-0.24117 0.643995,-0.84972 1.720234,-1.32604 2.852185,-1.15271 l 1.950826,0.29872 c 1.646477,0.25213 2.768965,1.78053 2.516845,3.42701 l -0.298723,1.95084 c -0.252118,1.64647 -1.780592,2.76937 -3.42707,2.51726 z m 10.500674,1.60793 c -0.102902,-0.0157 -0.203768,-0.0367 -0.30237,-0.0621 -1.380455,-0.35623 -2.319154,-1.6344 -2.245997,-3.05821 0.0052,-0.10171 0.01575,-0.20373 0.03151,-0.30662 l 7.3e-5,-4.7e-4 0.298722,-1.95083 c 0.06303,-0.41162 0.205584,-0.79013 0.410051,-1.12297 0.05112,-0.0832 0.106155,-0.16352 0.164708,-0.24076 0.64397,-0.8499 1.720161,-1.32646 2.852247,-1.15311 l 1.950826,0.29872 c 1.234858,0.18909 2.175093,1.09648 2.46162,2.23278 0.09551,0.37877 0.11826,0.7826 0.05523,1.19422 l -0.298722,1.95083 c -0.01575,0.10286 -0.03633,0.20381 -0.06175,0.30242 -0.381694,1.47906 -1.821749,2.4512 -3.365319,2.21484 z m 10.500671,1.60793 c -1.646475,-0.25211 -2.768965,-1.78052 -2.516846,-3.427 l 0.298788,-1.95125 c 0.252119,-1.64648 1.780532,-2.76897 3.427008,-2.51685 l 1.950825,0.29872 c 1.646477,0.25212 2.769387,1.7806 2.517268,3.42708 l -0.298788,1.95124 c -0.25212,1.64648 -1.780952,2.76891 -3.427428,2.51679 z M 27.762182,252.31956 c -1.646475,-0.25212 -2.768966,-1.78052 -2.516846,-3.42701 l 0.298786,-1.95124 c 0.252119,-1.64648 1.780531,-2.76896 3.427006,-2.51685 l 1.950828,0.29872 c 1.646476,0.25213 2.768964,1.78054 2.516845,3.42702 l -0.298786,1.95124 c -0.252121,1.64648 -1.78053,2.76895 -3.427006,2.51684 z m 10.500674,1.60793 c -0.102903,-0.0157 -0.203765,-0.0367 -0.302372,-0.0621 -1.479053,-0.38169 -2.450844,-1.82125 -2.214482,-3.36484 l 0.298787,-1.95125 c 0.25212,-1.64647 1.780531,-2.76896 3.427009,-2.51684 l 1.950826,0.29872 c 1.646475,0.25212 2.768968,1.78053 2.516849,3.42701 l -0.298788,1.95125 c -0.252119,1.64647 -1.780535,2.76897 -3.42701,2.51685 z m 10.501091,1.60799 c -0.102903,-0.0157 -0.203763,-0.0367 -0.302371,-0.0621 -1.479053,-0.3817 -2.451264,-1.82133 -2.214901,-3.36491 l 0.298787,-1.95125 c 0.06303,-0.41161 0.205994,-0.79006 0.410471,-1.1229 0.05112,-0.0832 0.106156,-0.16351 0.164707,-0.24075 0.643968,-0.8499 1.720163,-1.32648 2.85225,-1.15313 l 1.950825,0.29872 c 1.646477,0.25213 2.768967,1.78054 2.516848,3.42702 l -0.298788,1.95125 c -0.252119,1.64647 -1.780532,2.76896 -3.427009,2.51685 z m 10.500673,1.60792 c -0.102901,-0.0157 -0.203766,-0.0367 -0.302368,-0.0621 -1.479056,-0.3817 -2.450848,-1.82127 -2.214486,-3.36484 l 0.298787,-1.95125 c 0.06303,-0.41161 0.205584,-0.79013 0.410052,-1.12297 0.05112,-0.0832 0.106219,-0.16392 0.164772,-0.24117 0.643996,-0.8497 1.720234,-1.32604 2.852185,-1.1527 l 1.950827,0.29872 c 1.646473,0.25212 2.768968,1.78053 2.516848,3.42701 l -0.298787,1.95124 c -0.252119,1.64648 -1.780536,2.76897 -3.427011,2.51686 z m 10.500672,1.60794 c -1.646475,-0.25212 -2.768967,-1.78052 -2.516846,-3.42701 l 0.298786,-1.95124 c 0.252119,-1.64648 1.780531,-2.76896 3.427007,-2.51684 l 1.950826,0.29872 c 1.646476,0.25212 2.769387,1.78059 2.517268,3.42707 l -0.298786,1.95125 c -0.25212,1.64648 -1.780952,2.76889 -3.427428,2.51677 z M 29.323191,242.1253 c -1.646475,-0.25212 -2.768964,-1.78053 -2.516848,-3.42699 l 0.298789,-1.95126 c 0.252119,-1.64647 1.780532,-2.76897 3.427007,-2.51685 l 1.950827,0.29873 c 1.646477,0.25211 2.768964,1.78053 2.516845,3.42701 l -0.298789,1.95126 c -0.252116,1.64646 -1.780527,2.76894 -3.427003,2.51682 z m 10.500674,1.60793 c -1.646478,-0.25212 -2.768906,-1.78093 -2.516784,-3.42743 l 0.298722,-1.95082 c 0.252119,-1.64647 1.780532,-2.76897 3.42701,-2.51685 l 1.950826,0.29872 c 1.646475,0.25212 2.768967,1.78054 2.516847,3.42702 l -0.298722,1.95081 c -0.252122,1.6465 -1.780598,2.76938 -3.427073,2.51727 z m 10.501092,1.60799 c -1.646476,-0.25212 -2.769387,-1.78059 -2.51727,-3.42705 l 0.298789,-1.95126 c 0.252119,-1.64647 1.780952,-2.7689 3.427429,-2.51679 l 1.950825,0.29872 c 1.646477,0.25212 2.768965,1.78054 2.516846,3.42702 l -0.298788,1.95126 c -0.252117,1.64645 -1.780529,2.76894 -3.427005,2.51683 z m 10.500673,1.60794 c -0.102902,-0.0157 -0.203767,-0.0367 -0.302383,-0.062 -1.479055,-0.3817 -2.450845,-1.82129 -2.214486,-3.36484 l 0.298788,-1.95125 c 0.252121,-1.64649 1.780538,-2.76898 3.427012,-2.51686 l 1.950826,0.29872 c 1.646474,0.25212 2.768967,1.78054 2.516846,3.42703 l -0.298787,1.95124 c -0.252118,1.64647 -1.780534,2.76896 -3.427008,2.51684 z m 10.500672,1.60792 c -1.646476,-0.25212 -2.768904,-1.78093 -2.516782,-3.42742 l 0.298722,-1.95083 c 0.252119,-1.64648 1.780532,-2.76897 3.427008,-2.51685 l 1.950826,0.29872 c 1.646476,0.25213 2.769386,1.78061 2.517266,3.42709 l -0.298721,1.95081 c -0.252122,1.6465 -1.781017,2.76932 -3.427493,2.51721 z" id="rect899-7" inkscape:connector-curvature="0" />
    <path style="fill:#ffd385;fill-opacity:1;fill-rule:evenodd;stroke-width:0.264583" d="m 69.518658,271.28178 c -0.761299,0.16317 -1.505339,-0.31856 -1.668506,-1.07986 l -0.952538,-4.44433 -6.468293,1.38632 0.820111,3.82646 c 0.163169,0.76131 -0.31809,1.50565 -1.079389,1.66882 l -0.210219,0.0451 c -0.761298,0.16317 -1.505726,-0.31848 -1.668895,-1.07979 l -0.820111,-3.82645 -6.880204,1.47461 0.177481,0.82809 c 0.163167,0.7613 -0.318483,1.50572 -1.079784,1.66888 -0.761302,0.16317 -1.50534,-0.31855 -1.668507,-1.07985 l -1.225441,-5.71763 -7.291342,1.56272 0.22129,1.0325 c 0.163167,0.7613 -0.31848,1.50573 -1.079782,1.66889 -0.761302,0.16317 -1.505728,-0.31848 -1.668895,-1.07978 l -1.655329,-7.72339 -3.36461,0.72113 c -0.829358,0.17775 -1.640165,-0.34684 -1.81792,-1.17621 -0.177753,-0.82935 0.346843,-1.64015 1.176202,-1.81791 l 3.36461,-0.72112 -1.333307,-6.22092 -4.714559,1.01046 c -0.940282,0.20153 -1.85944,-0.39317 -2.060968,-1.33346 -0.201524,-0.94027 0.39317,-1.85943 1.333453,-2.06096 l 4.714558,-1.01046 -1.311816,-6.12064 -3.162912,0.6779 c -0.88482,0.18964 -1.749651,-0.37024 -1.939292,-1.25507 -0.189638,-0.8848 0.369771,-1.74995 1.254592,-1.93959 l 3.162912,-0.6779 -2.059907,-9.61106 c -0.163169,-0.76131 0.318476,-1.50574 1.079778,-1.6689 0.761302,-0.16317 1.50573,0.31848 1.668899,1.07979 l 0.576415,2.68942 7.291342,-1.56273 -1.016431,-4.74244 c -0.163165,-0.76129 0.318094,-1.50563 1.079396,-1.6688 0.761308,-0.16314 1.50573,0.31848 1.668895,1.07977 l 0.114675,0.53505 6.880204,-1.47461 -0.617494,-2.88109 c -0.163167,-0.7613 0.318478,-1.50574 1.079776,-1.66891 l 0.210219,-0.0451 c 0.761299,-0.16317 1.505341,0.31857 1.668508,1.07987 l 0.617495,2.88109 6.468292,-1.38633 -1.024979,-4.78232 c -0.163165,-0.76129 0.318092,-1.50564 1.079391,-1.66881 0.761306,-0.16317 1.505728,0.31849 1.668893,1.07978 l 1.024979,4.78232 7.291352,-1.56273 -0.387739,-1.8091 c -0.163167,-0.7613 0.318471,-1.50573 1.079778,-1.6689 0.761299,-0.16316 1.505339,0.31857 1.668506,1.07987 l 1.289495,6.01649 6.950275,-1.48963 -1.168106,-5.45011 c -0.163167,-0.76131 0.3181,-1.50565 1.079399,-1.66882 0.761307,-0.16317 1.505727,0.31848 1.668894,1.07978 l 2.651598,12.37176 4.887997,-1.04763 c 0.884817,-0.18964 1.749659,0.37025 1.939296,1.25506 0.189642,0.88482 -0.369778,1.74996 -1.254596,1.9396 l -4.887997,1.04763 1.311816,6.12064 3.135815,-0.67209 c 0.940287,-0.20153 1.85983,0.3931 2.061354,1.33336 0.201528,0.94029 -0.393552,1.85953 -1.333839,2.06106 l -3.135814,0.67209 1.333307,6.22091 4.886446,-1.04729 c 0.829365,-0.17776 1.640176,0.34683 1.817929,1.17619 0.177755,0.82936 -0.346846,1.64017 -1.176211,1.81792 l -4.886446,1.0473 2.201548,10.27192 c 0.163167,0.7613 -0.318475,1.50572 -1.079782,1.66889 -0.761299,0.16316 -1.505344,-0.31856 -1.668511,-1.07986 l -0.76751,-3.58102 -6.950274,1.48963 1.611684,7.51975 c 0.163167,0.7613 -0.318094,1.50564 -1.079393,1.66881 -0.761307,0.16316 -1.505724,-0.31848 -1.668891,-1.07978 l -0.563724,-2.6302 -7.291352,1.56273 0.952538,4.44433 c 0.163167,0.7613 -0.318471,1.50572 -1.079778,1.66889 z" id="rect1344-9" inkscape:connector-curvature="0" />
    <path style="fill:#ffa114;fill-opacity:1;fill-rule:evenodd;stroke-width:0.264583" d="m 42.247822,265.92654 c -1.520646,0.32592 -3.007253,-0.63626 -3.33317,-2.15691 l -0.386161,-1.80174 c -0.325913,-1.52064 0.635872,-3.00717 2.156518,-3.33308 l 1.801739,-0.38616 c 1.520647,-0.32592 3.007172,0.63587 3.333085,2.15651 l 0.386161,1.80174 c 0.325917,1.52066 -0.635786,3.00756 -2.156433,3.33348 z m 9.698179,-2.07858 c -1.520649,0.32592 -3.007255,-0.63625 -3.333172,-2.15691 l -0.386162,-1.80174 c -0.325913,-1.52064 0.635872,-3.00717 2.156521,-3.33308 l 1.80174,-0.38616 c 1.520641,-0.32592 3.007171,0.63587 3.333084,2.15651 l 0.386162,1.80174 c 0.325917,1.52066 -0.635792,3.00757 -2.156433,3.33348 z m 9.698567,-2.07866 c -1.520649,0.32592 -3.007649,-0.63617 -3.333566,-2.15683 l -0.386161,-1.80174 c -0.325913,-1.52063 0.636265,-3.00725 2.156914,-3.33316 l 1.801733,-0.38616 c 1.520649,-0.32592 3.007179,0.63587 3.333092,2.15651 l 0.386161,1.80174 c 0.325917,1.52066 -0.635791,3.00757 -2.15644,3.33348 z m 9.698179,-2.07858 c -0.09503,0.0204 -0.19,0.0356 -0.284506,0.046 -1.41749,0.15731 -2.743114,-0.77729 -3.048659,-2.2029 l -0.38616,-1.80173 c -0.325917,-1.52066 0.635874,-3.00719 2.156522,-3.3331 l 1.801733,-0.38616 c 1.520649,-0.32592 3.00718,0.63587 3.333097,2.15653 l 0.386159,1.80173 c 0.325915,1.52065 -0.635794,3.00756 -2.156443,3.33347 z m 9.698172,-2.07857 c -1.520641,0.32591 -3.007253,-0.63626 -3.33317,-2.15692 l -0.386162,-1.80174 c -0.325913,-1.52063 0.635877,-3.00716 2.156519,-3.33308 l 1.80174,-0.38616 c 1.520649,-0.32591 3.007559,0.63579 3.333472,2.15643 l 0.386162,1.80174 c 0.325917,1.52066 -0.636172,3.00765 -2.156821,3.33356 z m -40.811021,-1.10079 c -1.520646,0.32592 -3.007253,-0.63626 -3.33317,-2.15691 l -0.386162,-1.80174 c -0.325915,-1.52065 0.635871,-3.00718 2.156517,-3.33309 l 1.801739,-0.38616 c 1.520647,-0.32592 3.007171,0.63587 3.333086,2.15652 l 0.386162,1.80174 c 0.325917,1.52065 -0.635786,3.00756 -2.156433,3.33348 z m 9.698178,-2.07858 c -0.09504,0.0204 -0.189999,0.0356 -0.284507,0.0461 -1.322991,0.14682 -2.566122,-0.65749 -2.974395,-1.92444 -0.02911,-0.0905 -0.0538,-0.18303 -0.07417,-0.27807 l -9.5e-5,-4.4e-4 -0.386159,-1.80173 c -0.08148,-0.38017 -0.08257,-0.75781 -0.01448,-1.1161 0.01704,-0.0896 0.03845,-0.17792 0.06393,-0.26475 0.280232,-0.95533 1.061505,-1.72814 2.107074,-1.95223 l 1.80174,-0.38616 c 1.140483,-0.24444 2.262006,0.23575 2.888887,1.13251 0.208956,0.29892 0.362717,0.64383 0.444197,1.024 l 0.386159,1.80173 c 0.02037,0.095 0.03551,0.19003 0.04637,0.28444 0.157311,1.4175 -0.777206,2.7435 -2.202818,3.04904 z m 9.698568,-2.07866 c -0.09504,0.0204 -0.190001,0.0356 -0.284515,0.046 -1.322985,0.14682 -2.566112,-0.65749 -2.974385,-1.92444 -0.02911,-0.0905 -0.05431,-0.18332 -0.07468,-0.27836 l -0.386161,-1.80174 c -0.08148,-0.38017 -0.08222,-0.75788 -0.0141,-1.1162 0.01699,-0.0895 0.03837,-0.17831 0.06384,-0.26512 0.280316,-0.95519 1.061716,-1.72779 2.107161,-1.95186 l 1.801732,-0.38616 c 1.520649,-0.32591 3.007175,0.63586 3.333094,2.15652 l 0.38616,1.80174 c 0.325915,1.52064 -0.635794,3.00755 -2.156443,3.33347 z m 9.698179,-2.07858 c -0.09503,0.0204 -0.19,0.0356 -0.284506,0.0461 -1.322993,0.14682 -2.566129,-0.65749 -2.974402,-1.92444 -0.02911,-0.0905 -0.05382,-0.18302 -0.07419,-0.27806 l -9.5e-5,-4.4e-4 -0.386159,-1.80174 c -0.08148,-0.38016 -0.08254,-0.75781 -0.01448,-1.1161 0.01699,-0.0896 0.03846,-0.17792 0.06393,-0.26474 0.280234,-0.95533 1.061502,-1.72814 2.107072,-1.95224 l 1.801741,-0.38616 c 1.140482,-0.24443 2.262012,0.23575 2.888885,1.13251 0.208957,0.29892 0.362718,0.64384 0.444198,1.024 l 0.386159,1.80174 c 0.02037,0.095 0.03551,0.19002 0.04637,0.28444 0.157311,1.41749 -0.777208,2.74349 -2.202819,3.04904 z m 9.698171,-2.07857 c -1.520641,0.32591 -3.007171,-0.63588 -3.333086,-2.15653 l -0.386245,-1.80213 c -0.325915,-1.52065 0.635875,-3.00717 2.156516,-3.33309 l 1.801741,-0.38616 c 1.520649,-0.32592 3.007559,0.63579 3.333474,2.15644 l 0.386245,1.80213 c 0.325915,1.52065 -0.636255,3.00726 -2.156904,3.33317 z m -40.811022,-1.1008 c -1.520646,0.32592 -3.00717,-0.63587 -3.333087,-2.15652 l -0.386243,-1.80212 c -0.325915,-1.52065 0.635873,-3.00717 2.156519,-3.33308 l 1.801739,-0.38617 c 1.520647,-0.32591 3.007169,0.63587 3.333084,2.15652 l 0.386243,1.80212 c 0.325917,1.52066 -0.635869,3.00717 -2.156516,3.33309 z m 9.698178,-2.07858 c -0.09504,0.0204 -0.19,0.0356 -0.284507,0.0461 -1.417489,0.15731 -2.743026,-0.77692 -3.048571,-2.20252 l -0.386243,-1.80212 c -0.325917,-1.52066 0.63587,-3.00718 2.156519,-3.33309 l 1.80174,-0.38616 c 1.520641,-0.32592 3.007169,0.63586 3.333086,2.15652 l 0.386243,1.80212 c 0.325915,1.52065 -0.635873,3.00719 -2.156514,3.3331 z m 9.698568,-2.07866 c -0.09504,0.0204 -0.190001,0.0356 -0.284515,0.046 -1.417481,0.15731 -2.743412,-0.77683 -3.048957,-2.20244 l -0.386243,-1.80212 c -0.08148,-0.38017 -0.08222,-0.75788 -0.01409,-1.11618 0.01699,-0.0896 0.03846,-0.17792 0.06392,-0.26475 0.280235,-0.95533 1.061509,-1.72815 2.107078,-1.95225 l 1.801733,-0.38615 c 1.520649,-0.32592 3.007177,0.63586 3.333094,2.15652 l 0.386243,1.80212 c 0.325915,1.52064 -0.635873,3.00718 -2.156522,3.3331 z m 9.698178,-2.07858 c -0.09503,0.0204 -0.189999,0.0356 -0.284506,0.0461 -1.417489,0.15731 -2.743032,-0.77691 -3.048577,-2.20252 l -0.386243,-1.80212 c -0.08148,-0.38017 -0.08254,-0.75781 -0.01447,-1.1161 0.01699,-0.0896 0.03838,-0.1783 0.06384,-0.26514 0.280319,-0.95517 1.061716,-1.72779 2.107161,-1.95185 l 1.801732,-0.38616 c 1.520649,-0.32592 3.007178,0.63586 3.333095,2.15652 l 0.386244,1.80212 c 0.325915,1.52065 -0.635875,3.00719 -2.156523,3.3331 z m 9.698172,-2.07857 c -1.520641,0.32591 -3.007169,-0.63587 -3.333086,-2.15653 l -0.386243,-1.80212 c -0.325915,-1.52065 0.635877,-3.00717 2.156518,-3.33308 l 1.801741,-0.38616 c 1.520648,-0.32592 3.007557,0.63578 3.333472,2.15643 l 0.386243,1.80212 c 0.325917,1.52066 -0.636256,3.00726 -2.156905,3.33317 z M 36.19405,237.681 c -1.520646,0.32591 -3.007174,-0.63589 -3.333085,-2.15651 l -0.386247,-1.80215 c -0.325913,-1.52063 0.63587,-3.00717 2.156516,-3.33308 l 1.80174,-0.38617 c 1.520647,-0.32591 3.007173,0.63589 3.333086,2.15653 l 0.386247,1.80214 c 0.325911,1.52063 -0.635871,3.00716 -2.156518,3.33308 z m 9.698178,-2.07858 c -1.520649,0.32592 -3.007255,-0.63625 -3.333174,-2.15692 l -0.386159,-1.80173 c -0.325913,-1.52064 0.635869,-3.00718 2.156518,-3.33309 l 1.80174,-0.38616 c 1.520641,-0.32592 3.007174,0.63588 3.333087,2.15652 l 0.386159,1.80173 c 0.325919,1.52067 -0.635789,3.00758 -2.156431,3.33349 z m 9.698568,-2.07866 c -1.520649,0.32592 -3.00757,-0.6358 -3.33348,-2.15643 l -0.386248,-1.80214 c -0.325913,-1.52064 0.636264,-3.00726 2.156913,-3.33317 l 1.801732,-0.38616 c 1.520649,-0.32592 3.007181,0.63588 3.333094,2.15652 l 0.386248,1.80214 c 0.32591,1.52063 -0.635878,3.00716 -2.156527,3.33308 z m 9.698178,-2.07858 c -0.09503,0.0204 -0.189999,0.0356 -0.284485,0.0461 -1.417494,0.1573 -2.743036,-0.77693 -3.048579,-2.20252 l -0.386246,-1.80213 c -0.325917,-1.52066 0.635875,-3.00719 2.156522,-3.33311 l 1.801733,-0.38615 c 1.520649,-0.32592 3.00718,0.63587 3.333097,2.15652 l 0.386245,1.80214 c 0.325913,1.52063 -0.635876,3.00717 -2.156525,3.33309 z m 9.698172,-2.07858 c -1.520641,0.32592 -3.007253,-0.63625 -3.333172,-2.15692 l -0.386159,-1.80173 c -0.325913,-1.52064 0.635875,-3.00718 2.156516,-3.33309 l 1.80174,-0.38616 c 1.520649,-0.32592 3.007562,0.6358 3.333475,2.15644 l 0.386159,1.80173 c 0.325919,1.52067 -0.63617,3.00766 -2.156819,3.33357 z" id="rect899-1" inkscape:connector-curvature="0" />
    <ellipse style="fill:#cccccc;fill-opacity:1;fill-rule:evenodd;stroke-width:0.264583" id="path1413" cx="213.19463" cy="203.42796" rx="12.695302" ry="10.156241" transform="rotate(-10.323718)" />
    <path style="fill:#ffdc9e;fill-opacity:1;fill-rule:evenodd;stroke-width:0.264583" d="m 254.91789,159.34123 c 1.99829,4.76231 -4.13812,18.08708 -4.80282,27.29503 -0.36246,5.02148 1.10019,8.00708 0.45494,15.09501 -0.64527,7.08791 -3.78525,18.24241 -5.18994,18.12817 -1.92843,-0.15683 -3.27693,-8.89167 -3.97434,-13.53416 -0.51859,-3.45219 0.0811,-6.9829 -0.12869,-10.46578 -0.72307,-12.00711 -8.01435,-24.54506 -3.89006,-35.88414 1.15817,-3.18419 3.90941,-6.82683 7.36444,-7.16712 4.041,-0.398 8.16816,1.77068 10.16644,6.53299 z" id="path1415" inkscape:connector-curvature="0" sodipodi:nodetypes="cazsaaaacc" />
    <ellipse style="display:inline;fill:#1a1a1a;fill-opacity:0.21673;fill-rule:evenodd;stroke-width:0.264786" id="path1692-5" cx="145.11476" cy="276.71252" rx="53.894527" ry="27.205816" transform="matrix(0.98604944,-0.16645267,0.22070848,0.97533982,0,0)" />
    <rect style="fill:#333333;fill-rule:evenodd;stroke-width:0.284422" id="rect971-5" width="100.84029" height="41.150795" x="304.9978" y="280.65878" rx="4.02351" ry="2.8702979" transform="matrix(0.9893192,-0.14576526,-0.36965616,0.92916862,0,0)" />
    <rect style="fill:#ffffff;fill-rule:evenodd;stroke-width:0.264583" id="rect1438" width="114.70225" height="309.84921" x="256.26785" y="-9.8254175" rx="1.770663" ry="1.770663" />
    <circle style="fill:#f9f9f9;fill-rule:evenodd;stroke-width:0.264583" id="path859-9-0" cx="81.170387" cy="113.77603" r="16.738682" />
    <circle style="fill:#1a1a1a;fill-rule:evenodd;stroke-width:0.264583" id="path859-9-0-0" cx="-85.935219" cy="-117.15723" r="10.730937" transform="scale(-1)" />
    <ellipse style="fill:#ffd5d5;fill-rule:evenodd;stroke-width:0.264583" id="path1503" cx="78.81395" cy="147.07887" rx="8.3028069" ry="5.6289196" transform="rotate(-4.2181768)" />
    <path style="fill:#ffd5d5;fill-rule:evenodd;stroke-width:0.264583" d="m 158.69079,126.59471 a 5.6289196,8.3028067 85.781823 0 0 -0.82889,0.0331 5.6289196,8.3028067 85.781823 0 0 -7.86618,6.22443 5.6289196,8.3028067 85.781823 0 0 8.69404,5.00279 5.6289196,8.3028067 85.781823 0 0 3.07216,-0.6413 41.577381,41.577381 0 0 0 0.0258,-0.51367 41.577381,41.577381 0 0 0 -1.25573,-9.96735 5.6289196,8.3028067 85.781823 0 0 -1.84123,-0.13797 z" id="path1503-2" inkscape:connector-curvature="0" />
    <path style="fill:#217844;fill-rule:evenodd;stroke-width:0.264583" d="m 110.74775,138.91968 c 5.57313,1.1705 11.19505,1.82549 16.68499,1.26201 5.66283,-0.54859 11.18082,-2.48213 16.2347,-5.29652 1.37602,-0.76627 2.94124,-0.66857 3.55762,0.3044 0.61488,0.97058 -0.0159,2.48721 -1.53071,3.3322 -5.4764,3.05482 -11.53298,5.15527 -17.85044,5.79728 -6.08111,0.58645 -12.12663,-0.0887 -17.95581,-1.32235 -1.6563,-0.35055 -2.7283,-1.57678 -2.45883,-2.69311 0.27021,-1.1194 1.74742,-1.71387 3.31848,-1.38391 z" id="rect1520" inkscape:path-effect="#path-effect1523" inkscape:original-d="m 110.27454,137.58855 h 32.88393 c 1.51814,0 2.74033,1.22218 2.74033,2.74032 0,1.51815 -1.22219,2.74033 -2.74033,2.74033 h -32.88393 c -1.51814,0 -2.74032,-1.22218 -2.74032,-2.74033 0,-1.51814 1.22218,-2.74032 2.74032,-2.74032 z" inkscape:connector-curvature="0" transform="translate(-2.6418995,-6.8402682)" />
  </g>
  <g inkscape:groupmode="layer" id="layer2" inkscape:label="Layer 2" style="display:inline;opacity:0.269" sodipodi:insensitive="true" transform="translate(3.0238037,-40.732178)">
    <path style="fill:#ffcc00;fill-rule:evenodd;stroke-width:0.264583" d="M -3.0238097,40.732143 H 256.26785 L -3.0238097,302.42923 v 0 z" id="rect1615" inkscape:connector-curvature="0" sodipodi:nodetypes="ccccc" />
    <path style="opacity:0.222;fill:#ffffff;fill-rule:evenodd;stroke-width:0.264583" d="M -21.166667,19.943453 H 238.12499 L -21.166667,281.64054 v 0 z" id="rect1615-6" inkscape:connector-curvature="0" sodipodi:nodetypes="ccccc" />
    <rect style="fill:#ffeeaa;fill-rule:evenodd;stroke-width:0.264583" id="rect1634" width="402.16666" height="28.726189" x="-225.60898" y="128.29568" transform="rotate(-45)" />
    <rect style="fill:#ff9c00;fill-opacity:1;fill-rule:evenodd;stroke-width:0.264583" id="rect1651" width="464.91071" height="30.994047" x="-245.38748" y="61.021889" transform="rotate(-45)" />
  </g>
</svg>
