<?xml version="1.0" encoding="UTF-8" standalone="no"?>
<!-- Created with Inkscape (http://www.inkscape.org/) -->

<svg width="222.25mm" height="295.1994mm" viewBox="0 0 222.25 295.1994" version="1.1" id="svg8" inkscape:version="1.3 (0e150ed6c4, 2023-07-21)" sodipodi:docname="сквид.svg" xmlns:inkscape="http://www.inkscape.org/namespaces/inkscape" xmlns:sodipodi="http://sodipodi.sourceforge.net/DTD/sodipodi-0.dtd" xmlns="http://www.w3.org/2000/svg" xmlns:svg="http://www.w3.org/2000/svg" xmlns:rdf="http://www.w3.org/1999/02/22-rdf-syntax-ns#" xmlns:cc="http://creativecommons.org/ns#" xmlns:dc="http://purl.org/dc/elements/1.1/">
  <defs id="defs2" />
  <sodipodi:namedview id="base" pagecolor="#ffffff" bordercolor="#666666" borderopacity="1.0" inkscape:pageopacity="0.0" inkscape:pageshadow="2" inkscape:zoom="0.49497475" inkscape:cx="450.52803" inkscape:cy="559.62451" inkscape:document-units="mm" inkscape:current-layer="layer1" showgrid="false" showguides="false" inkscape:window-width="2467" inkscape:window-height="1413" inkscape:window-x="84" inkscape:window-y="-9" inkscape:window-maximized="1" inkscape:showpageshadow="2" inkscape:pagecheckerboard="0" inkscape:deskcolor="#d1d1d1" />
  <metadata id="metadata5">
    <rdf:RDF>
      <cc:Work rdf:about="">
        <dc:format>image/svg+xml</dc:format>
        <dc:type rdf:resource="http://purl.org/dc/dcmitype/StillImage" />
        <dc:title />
      </cc:Work>
    </rdf:RDF>
  </metadata>
  <g inkscape:label="Layer 1" inkscape:groupmode="layer" id="layer1" transform="translate(5.6696429,-78.529755)">
    <rect style="fill:#00222b;fill-rule:evenodd;stroke-width:0.264583" id="rect815" width="222.25" height="295.1994" x="-5.6696429" y="78.529755" inkscape:export-xdpi="96" inkscape:export-ydpi="96" />
    <path style="fill:#165044;fill-rule:evenodd;stroke-width:0.264583" d="m 216.58035,78.529755 -8.27611,27.931465 0.66406,17.83576 -36.94589,-24.517915 -47.21981,24.492445 57.87275,-0.78567 26.39193,3.48992 1.65621,44.49715 -22.8822,-15.18524 -13.93637,1.99918 24.58934,21.70759 12.60828,1.66681 0.97381,26.1607 -0.93137,5.301 -27.23771,-18.07549 -20.70268,23.94367 28.61246,1.04238 17.85062,1.49923 -6.71748,38.23789 -21.46643,-11.70664 -31.56496,19.54714 28.09553,0.009 23.83266,-1.57066 -5.90706,33.62569 7.17999,27.48594 -23.30229,-7.53923 -42.42722,25.2371 42.0609,-4.38876 25.58787,-5.96222 6.57043,25.15223 -3.95172,18.07409 -28.28507,-9.1509 -42.42722,25.23713 42.06161,-4.38876 27.49373,-6.40636 -12.42091,56.80562 46.55221,-2.06922 -0.24693,-37.17286 26.19605,17.38388 47.21977,-24.49247 -57.87271,0.7857 -15.59825,-2.06284 -0.22996,-34.6009 -3.44185,-8.74356 30.36769,20.1525 47.21978,-24.49244 -57.87343,0.78567 -22.27191,-2.9447 -18.76713,-47.67805 1.69866,-4.85902 34.17515,22.67926 13.93638,-1.9985 -24.59003,-21.70759 -22.13969,-2.92772 10.35453,-29.62658 26.37284,17.50128 20.70268,-23.94367 -28.61318,-1.04238 -15.39459,-1.29343 11.9676,-34.24164 13.76099,7.50459 31.56497,-19.54714 -28.09625,-0.009 -13.32467,0.87762 0.50633,-1.44832 -15.55651,-60.0282 26.57226,8.59716 42.42722,-25.2371 -42.06161,4.38876 -28.3982,6.61707 z" id="rect817-6" inkscape:connector-curvature="0" />
    <path style="fill:#004455;fill-rule:evenodd;stroke-width:0.264583" d="m 147.2997,345.42591 -19.3789,-4.06247 10.01202,-6.01805 19.3789,4.06248 z" id="rect1032-8-6-6" inkscape:connector-curvature="0" sodipodi:nodetypes="ccccc" />
    <rect style="fill:#216778;fill-rule:evenodd;stroke-width:0.267118" id="rect1032-7-0" width="19.800144" height="38.85218" x="-154.33447" y="-352.6351" transform="matrix(-0.97872555,-0.20517384,0.01195547,-0.99992853,0,0)" />
    <rect style="fill:#004455;fill-opacity:1;fill-rule:evenodd;stroke-width:0.267118" id="rect1032-4-6-28" width="16.414164" height="32.208153" x="-152.64148" y="-349.31311" transform="matrix(-0.97872555,-0.20517384,0.01195547,-0.99992853,0,0)" />
    <path style="fill:#0b2228;fill-rule:evenodd;stroke-width:0.264583" d="m 156.84723,378.25726 -10.01203,6.01805 0.4645,-38.8494 10.01202,-6.01804 z" id="rect1032-1-0-71" inkscape:connector-curvature="0" sodipodi:nodetypes="ccccc" />
    <path style="fill:#164450;fill-rule:evenodd;stroke-width:0.264583" d="m 155.77275,374.56246 -7.75853,4.66352 0.35995,-30.10527 7.75854,-4.66351 z" id="rect1032-1-6-7-8" inkscape:connector-curvature="0" sodipodi:nodetypes="ccccc" />
    <path style="fill:#004455;fill-rule:evenodd;stroke-width:0.264583" d="m 155.34594,312.17864 -17.89242,-8.47977 11.14136,-3.51101 17.89244,8.47977 z" id="rect1032-8-6-8-5" inkscape:connector-curvature="0" sodipodi:nodetypes="ccccc" />
    <rect style="fill:#216778;fill-rule:evenodd;stroke-width:0.267118" id="rect1032-7-8-0" width="19.800144" height="38.85218" x="-231.56775" y="-258.57419" transform="matrix(-0.90365187,-0.42826778,0.24535844,-0.96943243,0,0)" />
    <rect style="fill:#004455;fill-opacity:1;fill-rule:evenodd;stroke-width:0.267118" id="rect1032-4-6-9-35" width="16.414165" height="32.208149" x="-229.87469" y="-255.25217" transform="matrix(-0.90365187,-0.42826778,0.24535844,-0.96943243,0,0)" />
    <path style="fill:#0b2228;fill-rule:evenodd;stroke-width:0.264583" d="m 156.95461,346.33219 -11.14138,3.511 9.53271,-37.66455 11.14138,-3.51101 z" id="rect1032-1-0-3-6" inkscape:connector-curvature="0" sodipodi:nodetypes="ccccc" />
    <path style="fill:#164450;fill-rule:evenodd;stroke-width:0.264583" d="m 156.77357,342.48859 -8.63369,2.72076 7.3871,-29.18712 8.63371,-2.72076 z" id="rect1032-1-6-7-4-7" inkscape:connector-curvature="0" sodipodi:nodetypes="ccccc" />
    <path style="fill:#004455;fill-rule:evenodd;stroke-width:0.264583" d="m 156.9398,275.83627 -19.37891,-4.06246 10.01201,-6.01806 19.37891,4.06248 z" id="rect1032-8-6-5-4" inkscape:connector-curvature="0" sodipodi:nodetypes="ccccc" />
    <rect style="fill:#216778;fill-rule:evenodd;stroke-width:0.267118" id="rect1032-7-86-9" width="19.800144" height="38.85218" x="-163.31146" y="-281.19852" transform="matrix(-0.97872555,-0.20517384,0.01195547,-0.99992853,0,0)" />
    <rect style="fill:#004455;fill-opacity:1;fill-rule:evenodd;stroke-width:0.267118" id="rect1032-4-6-5-5" width="16.414164" height="32.208153" x="-161.61847" y="-277.8765" transform="matrix(-0.97872555,-0.20517384,0.01195547,-0.99992853,0,0)" />
    <path style="fill:#0b2228;fill-rule:evenodd;stroke-width:0.264583" d="m 166.48732,308.66763 -10.01202,6.01804 0.4645,-38.8494 10.01201,-6.01804 z" id="rect1032-1-0-35-3" inkscape:connector-curvature="0" sodipodi:nodetypes="ccccc" />
    <path style="fill:#164450;fill-rule:evenodd;stroke-width:0.264583" d="m 165.41284,304.97282 -7.75852,4.66351 0.35993,-30.10525 7.75855,-4.66352 z" id="rect1032-1-6-7-7-5" inkscape:connector-curvature="0" sodipodi:nodetypes="ccccc" />
    <path style="fill:#004455;fill-rule:evenodd;stroke-width:0.264583" d="m 144.67269,242.79836 -19.3734,4.08859 6.73926,-9.54147 19.37341,-4.08859 z" id="rect1032-8-6-9-2" inkscape:connector-curvature="0" sodipodi:nodetypes="ccccc" />
    <rect style="fill:#216778;fill-rule:evenodd;stroke-width:0.267118" id="rect1032-7-6-3" width="19.800142" height="38.85218" x="-38.683941" y="-311.44128" transform="matrix(-0.97844801,0.20649331,-0.391881,-0.92001591,0,0)" />
    <rect style="fill:#004455;fill-opacity:1;fill-rule:evenodd;stroke-width:0.267118" id="rect1032-4-6-2-0" width="16.414162" height="32.208149" x="-36.990948" y="-308.11926" transform="matrix(-0.97844801,0.20649331,-0.391881,-0.92001591,0,0)" />
    <path style="fill:#0b2228;fill-rule:evenodd;stroke-width:0.264583" d="m 166.6374,269.0015 -6.73928,9.54148 -15.22543,-35.74462 6.73927,-9.54147 z" id="rect1032-1-0-8-7" inkscape:connector-curvature="0" sodipodi:nodetypes="ccccc" />
    <path style="fill:#164450;fill-rule:evenodd;stroke-width:0.264583" d="m 164.16551,266.05263 -5.22241,7.3939 -11.79853,-27.69929 5.22242,-7.3939 z" id="rect1032-1-6-7-5-9" inkscape:connector-curvature="0" sodipodi:nodetypes="ccccc" />
    <path style="fill:#004455;fill-rule:evenodd;stroke-width:0.264583" d="m 95.27258,331.80848 -19.73209,1.64008 7.87682,-8.62631 19.73209,-1.64007 z" id="rect1032-8-6-0" inkscape:connector-curvature="0" sodipodi:nodetypes="ccccc" />
    <rect style="fill:#216778;fill-rule:evenodd;stroke-width:0.267118" id="rect1032-7-1" width="19.800144" height="38.85218" x="-0.70277339" y="-383.93103" transform="matrix(-0.99656357,0.08283145,-0.27405992,-0.96171262,0,0)" />
    <rect style="fill:#004455;fill-opacity:1;fill-rule:evenodd;stroke-width:0.267118" id="rect1032-4-6-6" width="16.414165" height="32.208153" x="0.99021977" y="-380.60904" transform="matrix(-0.99656357,0.08283145,-0.27405992,-0.96171262,0,0)" />
    <g id="g1597">
      <path sodipodi:nodetypes="ccccccccccc" inkscape:connector-curvature="0" id="rect817" d="m 17.575893,151.66815 6.047616,-20.41071 23.117009,89.2013 -24.028064,68.74881 18.097932,45.97848 0.389016,58.57585 L 7.1815477,395.27379 19.991341,336.68987 8.5407124,292.85646 20.332254,225.73651 Z" style="fill:#165044;fill-rule:evenodd;stroke-width:0.264583" />
      <path sodipodi:nodetypes="ccccc" inkscape:connector-curvature="0" id="rect820-0" d="m 24.02085,316.25243 -27.5287613,6.41447 -30.7359957,3.20724 31.0032667,-18.4416 z" style="fill:#217867;fill-rule:evenodd;stroke-width:0.264583" />
      <path sodipodi:nodetypes="ccccc" inkscape:connector-curvature="0" id="rect820" d="m 27.52876,174.05601 27.528761,-6.41447 30.735996,-3.20724 -31.003266,18.4416 z" style="fill:#217867;fill-rule:evenodd;stroke-width:0.264583" />
      <path sodipodi:nodetypes="ccccc" inkscape:connector-curvature="0" id="rect820-5-79" d="m 21.080885,267.74299 -25.6388803,1.68977 -20.5306427,-0.006 23.0657697,-14.28386 z" style="fill:#217867;fill-rule:evenodd;stroke-width:0.264583" />
      <path sodipodi:nodetypes="ccccc" inkscape:connector-curvature="0" id="rect820-5" d="m 30.468725,222.56544 25.638881,-1.68977 20.530643,0.006 -23.06577,14.28386 z" style="fill:#217867;fill-rule:evenodd;stroke-width:0.264583" />
      <path sodipodi:nodetypes="ccccc" inkscape:connector-curvature="0" id="rect820-5-7-0" d="m 30.411157,236.75021 -24.8829286,-2.09 -20.9086194,-0.76195 15.12826942,-17.49665 z" style="fill:#217867;fill-rule:evenodd;stroke-width:0.264583" />
      <path sodipodi:nodetypes="ccccc" inkscape:connector-curvature="0" id="rect820-5-7" d="m 21.138453,253.55823 24.882929,2.08999 20.908619,0.76195 -15.12827,17.49666 z" style="fill:#217867;fill-rule:evenodd;stroke-width:0.264583" />
      <path sodipodi:nodetypes="ccccc" inkscape:connector-curvature="0" id="rect820-5-7-5-6" d="M 33.285877,208.42723 10.407469,205.4018 -7.5611853,189.53912 2.6225974,188.07863 Z" style="fill:#217867;fill-rule:evenodd;stroke-width:0.264583" />
      <path sodipodi:nodetypes="ccccc" inkscape:connector-curvature="0" id="rect820-5-7-5" d="m 18.263733,281.88121 22.878408,3.02543 17.968655,15.86268 -10.183783,1.46049 z" style="fill:#217867;fill-rule:evenodd;stroke-width:0.264583" />
      <path sodipodi:nodetypes="ccccc" inkscape:connector-curvature="0" id="rect820-5-7-5-4-7" d="m 21.72647,167.13409 -22.8784073,-3.02543 -42.2901827,0.5744 34.5053107,-17.89757 z" style="fill:#217867;fill-rule:evenodd;stroke-width:0.264583" />
      <path sodipodi:nodetypes="ccccc" inkscape:connector-curvature="0" id="rect820-5-7-5-4" d="m 29.82314,323.17435 22.878408,3.02543 42.290182,-0.5744 -34.50531,17.89757 z" style="fill:#217867;fill-rule:evenodd;stroke-width:0.264583" />
      <path sodipodi:nodetypes="ccccc" inkscape:connector-curvature="0" id="rect820-0-2" d="m 23.696046,352.03064 -27.5287635,6.41447 -30.7359955,3.20724 31.0032665,-18.4416 z" style="fill:#217867;fill-rule:evenodd;stroke-width:0.264583" />
      <path sodipodi:nodetypes="ccccc" inkscape:connector-curvature="0" id="rect820-5-7-5-4-0" d="m 29.498335,358.95256 22.87841,3.02543 42.290184,-0.5744 -34.50531,17.89757 z" style="fill:#217867;fill-rule:evenodd;stroke-width:0.264583" />
    </g>
    <path style="fill:#0b2228;fill-rule:evenodd;stroke-width:0.264583" d="m 113.79723,360.5468 -7.87681,8.62631 -10.64784,-37.36463 7.87682,-8.6263 z" id="rect1032-1-0-7" inkscape:connector-curvature="0" sodipodi:nodetypes="ccccc" />
    <path style="fill:#004455;fill-rule:evenodd;stroke-width:0.264583" d="m 65.50116,336.81256 -14.32598,-13.66792 11.68035,0.164 14.32597,13.66792 z" id="rect1032-8-6-08" inkscape:connector-curvature="0" sodipodi:nodetypes="ccccc" />
    <path style="fill:#164450;fill-rule:evenodd;stroke-width:0.264583" d="m 111.71247,357.31262 -6.1039,6.68472 -8.25124,-28.95468 6.10393,-6.68472 z" id="rect1032-1-6-7-44" inkscape:connector-curvature="0" sodipodi:nodetypes="ccccc" />
    <rect style="fill:#216778;fill-rule:evenodd;stroke-width:0.267118" id="rect1032-7-3" width="19.800144" height="38.85218" x="-240.7551" y="-241.1525" transform="matrix(-0.72352889,-0.69029411,0.53728094,-0.84340334,0,0)" />
    <path style="fill:#004455;fill-rule:evenodd;stroke-width:0.264583" d="m 93.49048,297.64788 -19.56882,-3.01777 9.67501,-6.54612 19.56882,3.01776 z" id="rect1032-8-6-8-2" inkscape:connector-curvature="0" sodipodi:nodetypes="ccccc" />
    <rect style="fill:#004455;fill-opacity:1;fill-rule:evenodd;stroke-width:0.267118" id="rect1032-4-6-8" width="16.414164" height="32.208153" x="-239.06216" y="-237.83047" transform="matrix(-0.72352889,-0.69029411,0.53728094,-0.84340334,0,0)" />
    <rect style="fill:#216778;fill-rule:evenodd;stroke-width:0.267118" id="rect1032-7-8-2" width="19.800144" height="38.85218" x="-82.567238" y="-324.16367" transform="matrix(-0.98831722,-0.15241086,-0.04166631,-0.99913158,0,0)" />
    <path style="fill:#0b2228;fill-rule:evenodd;stroke-width:0.264583" d="m 56.30697,369.74462 -11.68035,-0.164 20.87454,-32.76806 11.68034,0.164 z" id="rect1032-1-0-6" inkscape:connector-curvature="0" sodipodi:nodetypes="ccccc" />
    <rect style="fill:#004455;fill-opacity:1;fill-rule:evenodd;stroke-width:0.267118" id="rect1032-4-6-9-3" width="16.414164" height="32.208149" x="-80.874153" y="-320.84164" transform="matrix(-0.98831722,-0.15241086,-0.04166631,-0.99913158,0,0)" />
    <path style="fill:#164450;fill-rule:evenodd;stroke-width:0.264583" d="m 57.34167,366.03848 -9.05136,-0.12709 16.17614,-25.39269 9.05136,0.12709 z" id="rect1032-1-6-7-40" inkscape:connector-curvature="0" sodipodi:nodetypes="ccccc" />
    <path style="fill:#0b2228;fill-rule:evenodd;stroke-width:0.264583" d="m 104.78432,329.9202 -9.675,6.54611 -1.61884,-38.81843 9.67501,-6.54613 z" id="rect1032-1-0-3-2" inkscape:connector-curvature="0" sodipodi:nodetypes="ccccc" />
    <path style="fill:#004455;fill-rule:evenodd;stroke-width:0.264583" d="m 89.86518,312.8018 -10.7342,-16.63798 11.31843,2.88973 10.7342,16.63799 z" id="rect1032-8-6-8-6" inkscape:connector-curvature="0" sodipodi:nodetypes="ccccc" />
    <path style="fill:#164450;fill-rule:evenodd;stroke-width:0.264583" d="m 103.51332,326.28831 -7.49737,5.07273 -1.25448,-30.08128 7.49739,-5.07273 z" id="rect1032-1-6-7-4-6" inkscape:connector-curvature="0" sodipodi:nodetypes="ccccc" />
    <rect style="fill:#216778;fill-rule:evenodd;stroke-width:0.267118" id="rect1032-7-8-5" width="19.800144" height="38.85218" x="-293.01651" y="-134.72861" transform="matrix(-0.54212777,-0.84029607,0.71954268,-0.69444822,0,0)" />
    <path style="fill:#004455;fill-rule:evenodd;stroke-width:0.264583" d="m 108.26213,265.44437 -16.0246,-11.63004 11.59743,-1.39899 16.0246,11.63004 z" id="rect1032-8-6-5-1" inkscape:connector-curvature="0" sodipodi:nodetypes="ccccc" />
    <rect style="fill:#004455;fill-opacity:1;fill-rule:evenodd;stroke-width:0.267118" id="rect1032-4-6-9-2" width="16.414165" height="32.208149" x="-291.32346" y="-131.40659" transform="matrix(-0.54212777,-0.84029607,0.71954268,-0.69444822,0,0)" />
    <rect style="fill:#216778;fill-rule:evenodd;stroke-width:0.267118" id="rect1032-7-86-2" width="19.800144" height="38.85218" x="-213.71112" y="-193.00298" transform="matrix(-0.8093174,-0.58737156,0.41970625,-0.90765999,0,0)" />
    <path style="fill:#0b2228;fill-rule:evenodd;stroke-width:0.264583" d="m 73.22781,342.67237 -11.31842,-2.88975 27.95579,-26.98082 11.31843,2.88974 z" id="rect1032-1-0-3-0" inkscape:connector-curvature="0" sodipodi:nodetypes="ccccc" />
    <rect style="fill:#004455;fill-opacity:1;fill-rule:evenodd;stroke-width:0.267118" id="rect1032-4-6-5-0" width="16.414164" height="32.208153" x="-212.01819" y="-189.68097" transform="matrix(-0.8093174,-0.58737156,0.41970625,-0.90765999,0,0)" />
    <path style="fill:#164450;fill-rule:evenodd;stroke-width:0.264583" d="m 75.10016,339.31076 -8.77089,-2.23931 21.66356,-20.90806 8.77091,2.23934 z" id="rect1032-1-6-7-4-9" inkscape:connector-curvature="0" sodipodi:nodetypes="ccccc" />
    <path style="fill:#0b2228;fill-rule:evenodd;stroke-width:0.264583" d="m 103.55306,299.30995 -11.59744,1.39899 16.30651,-35.26457 11.59743,-1.39899 z" id="rect1032-1-0-35-2" inkscape:connector-curvature="0" sodipodi:nodetypes="ccccc" />
    <path style="fill:#004455;fill-rule:evenodd;stroke-width:0.264583" d="m 110.37779,282.75948 -14.32597,-13.66791 11.68035,0.16398 14.326,13.66793 z" id="rect1032-8-6-5-43" inkscape:connector-curvature="0" sodipodi:nodetypes="ccccc" />
    <path style="fill:#164450;fill-rule:evenodd;stroke-width:0.264583" d="m 104.083,295.49876 -8.98709,1.0841 12.63626,-27.32731 8.98712,-1.08409 z" id="rect1032-1-6-7-7-7" inkscape:connector-curvature="0" sodipodi:nodetypes="ccccc" />
    <rect style="fill:#216778;fill-rule:evenodd;stroke-width:0.267118" id="rect1032-7-86-29" width="19.800144" height="38.85218" x="-249.73209" y="-169.71591" transform="matrix(-0.72352889,-0.69029411,0.53728094,-0.84340334,0,0)" />
    <path style="fill:#004455;fill-rule:evenodd;stroke-width:0.264583" d="m 129.44539,236.87108 -12.93597,-14.99018 11.60965,1.29361 12.93598,14.99019 z" id="rect1032-8-6-9-0" inkscape:connector-curvature="0" sodipodi:nodetypes="ccccc" />
    <rect style="fill:#004455;fill-opacity:1;fill-rule:evenodd;stroke-width:0.267118" id="rect1032-4-6-5-3" width="16.414164" height="32.208153" x="-248.03909" y="-166.39391" transform="matrix(-0.72352889,-0.69029411,0.53728094,-0.84340334,0,0)" />
    <rect style="fill:#216778;fill-rule:evenodd;stroke-width:0.267118" id="rect1032-7-6-7" width="19.800142" height="38.852177" x="-252.70853" y="-96.699593" transform="matrix(-0.65332784,-0.75707512,0.61638133,-0.78744781,0,0)" />
    <path style="fill:#0b2228;fill-rule:evenodd;stroke-width:0.264583" d="m 101.18361,315.69154 -11.68035,-0.164 20.87453,-32.76806 11.68038,0.164 z" id="rect1032-1-0-35-30" inkscape:connector-curvature="0" sodipodi:nodetypes="ccccc" />
    <rect style="fill:#004455;fill-opacity:1;fill-rule:evenodd;stroke-width:0.267118" id="rect1032-4-6-2-5" width="16.414162" height="32.208149" x="-251.01553" y="-93.377571" transform="matrix(-0.65332784,-0.75707512,0.61638133,-0.78744781,0,0)" />
    <path style="fill:#164450;fill-rule:evenodd;stroke-width:0.264583" d="m 102.21831,311.9854 -9.05135,-0.12708 16.17612,-25.3927 9.05136,0.1271 z" id="rect1032-1-6-7-7-78" inkscape:connector-curvature="0" sodipodi:nodetypes="ccccc" />
    <path style="fill:#0b2228;fill-rule:evenodd;stroke-width:0.264583" d="m 117.1073,268.75877 -11.60966,-1.29362 23.94775,-30.59407 11.60966,1.29362 z" id="rect1032-1-0-8-4" inkscape:connector-curvature="0" sodipodi:nodetypes="ccccc" />
    <path style="fill:#004455;fill-rule:evenodd;stroke-width:0.264583" d="m 125.29928,246.8869 -16.46509,-10.99751 11.53417,-1.84933 16.46514,10.99752 z" id="rect1032-8-6-9-8" inkscape:connector-curvature="0" sodipodi:nodetypes="ccccc" />
    <path style="fill:#164450;fill-rule:evenodd;stroke-width:0.264583" d="m 118.4958,265.17016 -8.99657,-1.00244 18.55764,-23.70802 8.99659,1.00245 z" id="rect1032-1-6-7-5-7" inkscape:connector-curvature="0" sodipodi:nodetypes="ccccc" />
    <rect style="fill:#216778;fill-rule:evenodd;stroke-width:0.267118" id="rect1032-7-6-2" width="19.800142" height="38.85218" x="-214.56268" y="-177.17354" transform="matrix(-0.83156594,-0.55542604,0.38406009,-0.9233081,0,0)" />
    <path style="fill:#004455;fill-rule:evenodd;stroke-width:0.264583" d="m 35.66253,292.00264 -10.63959,-16.69865 11.30185,2.95396 10.63957,16.69864 z" id="rect1032-8-6" inkscape:connector-curvature="0" sodipodi:nodetypes="ccccc" />
    <rect style="fill:#004455;fill-opacity:1;fill-rule:evenodd;stroke-width:0.267118" id="rect1032-4-6-2-9" width="16.414162" height="32.208149" x="-212.86969" y="-173.8515" transform="matrix(-0.83156594,-0.55542604,0.38406009,-0.9233081,0,0)" />
    <rect style="fill:#216778;fill-rule:evenodd;stroke-width:0.267118" id="rect1032-7" width="19.800144" height="38.85218" x="-240.41774" y="-168.12521" transform="matrix(-0.53734863,-0.84336021,0.72347348,-0.69035218,0,0)" />
    <path style="fill:#0b2228;fill-rule:evenodd;stroke-width:0.264583" d="m 121.91192,280.91011 -11.53418,1.84932 14.92154,-35.87253 11.53422,-1.84932 z" id="rect1032-1-0-8-5" inkscape:connector-curvature="0" sodipodi:nodetypes="ccccc" />
    <rect style="fill:#004455;fill-opacity:1;fill-rule:evenodd;stroke-width:0.267118" id="rect1032-4-6" width="16.414165" height="32.208153" x="-238.72475" y="-164.80321" transform="matrix(-0.53734863,-0.84336021,0.72347348,-0.69035218,0,0)" />
    <path style="fill:#164450;fill-rule:evenodd;stroke-width:0.264583" d="m 122.29315,277.08118 -8.93813,1.43308 11.56308,-27.79842 8.93807,-1.43308 z" id="rect1032-1-6-7-5-4" inkscape:connector-curvature="0" sodipodi:nodetypes="ccccc" />
    <path style="fill:#0b2228;fill-rule:evenodd;stroke-width:0.264583" d="m 18.85585,321.77828 -11.30184,-2.95395 28.10852,-26.82169 11.30183,2.95395 z" id="rect1032-1-0" inkscape:connector-curvature="0" sodipodi:nodetypes="ccccc" />
    <path style="fill:#164450;fill-rule:evenodd;stroke-width:0.264583" d="m 20.74725,318.42736 -8.75805,-2.28908 21.78192,-20.78472 8.75805,2.28909 z" id="rect1032-1-6-7" inkscape:connector-curvature="0" sodipodi:nodetypes="ccccc" />
    <path style="fill:#004455;fill-rule:evenodd;stroke-width:0.264583" d="m 65.06385,274.5188 -6.44149,-18.72305 10.29825,5.51393 6.4415,18.72306 z" id="rect1032-8-6-8" inkscape:connector-curvature="0" sodipodi:nodetypes="ccccc" />
    <rect style="fill:#216778;fill-rule:evenodd;stroke-width:0.267118" id="rect1032-7-8" width="19.800144" height="38.85218" x="-275.27405" y="-67.170753" transform="matrix(-0.325326,-0.94560192,0.86480119,-0.50211443,0,0)" />
    <rect style="fill:#004455;fill-opacity:1;fill-rule:evenodd;stroke-width:0.267118" id="rect1032-4-6-9" width="16.414165" height="32.208149" x="-273.58099" y="-63.848732" transform="matrix(-0.325326,-0.94560192,0.86480119,-0.50211443,0,0)" />
    <path style="fill:#0b2228;fill-rule:evenodd;stroke-width:0.264583" d="m 41.7627,299.54098 -10.29824,-5.51394 33.59939,-19.50824 10.29826,5.51394 z" id="rect1032-1-0-3" inkscape:connector-curvature="0" sodipodi:nodetypes="ccccc" />
    <path style="fill:#164450;fill-rule:evenodd;stroke-width:0.264583" d="m 44.38499,296.725 -7.98034,-4.27285 26.03692,-15.11739 7.98035,4.27288 z" id="rect1032-1-6-7-4" inkscape:connector-curvature="0" sodipodi:nodetypes="ccccc" />
    <path style="fill:#004455;fill-rule:evenodd;stroke-width:0.264583" d="m 92.16879,250.25709 -10.63959,-16.69865 11.30185,2.95395 10.63958,16.69866 z" id="rect1032-8-6-5" inkscape:connector-curvature="0" sodipodi:nodetypes="ccccc" />
    <rect style="fill:#216778;fill-rule:evenodd;stroke-width:0.267118" id="rect1032-7-86" width="19.800144" height="38.85218" x="-249.39467" y="-96.688622" transform="matrix(-0.53734863,-0.84336021,0.72347348,-0.69035218,0,0)" />
    <rect style="fill:#004455;fill-opacity:1;fill-rule:evenodd;stroke-width:0.267118" id="rect1032-4-6-5" width="16.414165" height="32.208153" x="-247.70168" y="-93.3666" transform="matrix(-0.53734863,-0.84336021,0.72347348,-0.69035218,0,0)" />
    <path style="fill:#0b2228;fill-rule:evenodd;stroke-width:0.264583" d="m 75.36211,280.03274 -11.30184,-2.95396 28.10852,-26.82169 11.30184,2.95396 z" id="rect1032-1-0-35" inkscape:connector-curvature="0" sodipodi:nodetypes="ccccc" />
    <path style="fill:#164450;fill-rule:evenodd;stroke-width:0.264583" d="m 77.25351,276.68181 -8.75804,-2.28908 21.7819,-20.78473 8.75806,2.2891 z" id="rect1032-1-6-7-7" inkscape:connector-curvature="0" sodipodi:nodetypes="ccccc" />
    <path style="fill:#004455;fill-rule:evenodd;stroke-width:0.264583" d="m 107.22233,218.39213 -16.46511,-10.99751 11.53418,-1.84933 16.46512,10.99751 z" id="rect1032-8-6-9" inkscape:connector-curvature="0" sodipodi:nodetypes="ccccc" />
    <rect style="fill:#216778;fill-rule:evenodd;stroke-width:0.267118" id="rect1032-7-6" width="19.800142" height="38.85218" x="-186.3963" y="-163.25574" transform="matrix(-0.83156594,-0.55542604,0.38406009,-0.9233081,0,0)" />
    <rect style="fill:#004455;fill-opacity:1;fill-rule:evenodd;stroke-width:0.267118" id="rect1032-4-6-2" width="16.414164" height="32.208149" x="-184.70331" y="-159.93372" transform="matrix(-0.83156594,-0.55542604,0.38406009,-0.9233081,0,0)" />
    <path style="fill:#0b2228;fill-rule:evenodd;stroke-width:0.264583" d="m 103.83496,252.41534 -11.5342,1.84932 14.92157,-35.87253 11.53419,-1.84933 z" id="rect1032-1-0-8" inkscape:connector-curvature="0" sodipodi:nodetypes="ccccc" />
    <path style="fill:#164450;fill-rule:evenodd;stroke-width:0.264583" d="m 104.21617,248.5864 -8.9381,1.43308 11.56305,-27.79842 8.9381,-1.43308 z" id="rect1032-1-6-7-5" inkscape:connector-curvature="0" sodipodi:nodetypes="ccccc" />
    <path style="fill:#004455;fill-rule:evenodd;stroke-width:0.264583" d="m 172.69726,140.43605 -53.87379,-33.13414 36.59644,-7.28356 53.87379,33.13414 z" id="rect1032-8" inkscape:connector-curvature="0" sodipodi:nodetypes="ccccc" />
    <rect style="fill:#216778;fill-rule:evenodd;stroke-width:0.267118" id="rect1032" width="63.247578" height="124.10548" x="-214.92598" y="-153.81645" transform="matrix(-0.85179214,-0.52387991,0.34919702,-0.93704933,0,0)" />
    <rect style="fill:#004455;fill-opacity:1;fill-rule:evenodd;stroke-width:0.267118" id="rect1032-4" width="52.431747" height="102.88247" x="-209.51802" y="-143.20494" transform="matrix(-0.85179213,-0.52387992,0.34919704,-0.93704932,0,0)" />
    <path style="fill:#008066;fill-rule:evenodd;stroke-width:0.264583" d="m 138.98075,127.97207 2.39031,27.5955 -26.2556,24.20922 -6.19824,-0.634 23.86529,-51.80473 z" id="rect1075-7" inkscape:connector-curvature="0" sodipodi:nodetypes="cccccc" />
    <path style="fill:#0b2228;fill-rule:evenodd;stroke-width:0.264583" d="M 165.95644,249.44544 129.36,256.729 172.69726,140.43605 209.2937,133.15249 Z" id="rect1032-1" inkscape:connector-curvature="0" sodipodi:nodetypes="ccccc" />
    <path style="fill:#00d4aa;fill-rule:evenodd;stroke-width:0.264583" d="m 132.78252,127.33807 2.39031,27.59549 -26.2556,24.20923 0.004,-34.39348 z" id="rect1075" inkscape:connector-curvature="0" sodipodi:nodetypes="ccccc" />
    <path style="fill:#d5f6ff;fill-rule:evenodd;stroke-width:0.264583" d="m 126.61695,142.21142 1.01777,11.74993 -11.17941,10.30808 0.002,-14.64445 z" id="rect1075-6" inkscape:connector-curvature="0" sodipodi:nodetypes="ccccc" />
    <path style="fill:#008066;fill-rule:evenodd;stroke-width:0.264583" d="m 138.25265,182.53628 1.78683,20.6285 -19.62688,18.09714 -4.63338,-0.47394 17.84006,-38.72564 z" id="rect1075-7-1" inkscape:connector-curvature="0" sodipodi:nodetypes="cccccc" />
    <path style="fill:#00d4aa;fill-rule:evenodd;stroke-width:0.264583" d="m 133.61928,182.06234 1.78682,20.62849 -19.62688,18.09715 0.003,-25.71019 z" id="rect1075-65" inkscape:connector-curvature="0" sodipodi:nodetypes="ccccc" />
    <path style="fill:#d5f6ff;fill-rule:evenodd;stroke-width:0.264583" d="m 129.01033,193.18064 0.76081,8.78343 -8.35696,7.70561 0.001,-10.94717 z" id="rect1075-6-3" inkscape:connector-curvature="0" sodipodi:nodetypes="ccccc" />
    <path style="fill:#164450;fill-rule:evenodd;stroke-width:0.264583" d="m 166.71504,237.17763 -28.35939,5.6442 33.583,-90.11798 28.3594,-5.64419 z" id="rect1032-1-6" inkscape:connector-curvature="0" sodipodi:nodetypes="ccccc" />
    <path style="fill:#008066;fill-rule:evenodd;stroke-width:0.264583" d="m 152.84348,157.1691 1.04717,12.08938 -11.50237,10.60587 -2.7154,-0.27776 10.4552,-22.69524 z" id="rect1075-7-1-2" inkscape:connector-curvature="0" sodipodi:nodetypes="cccccc" />
    <path style="fill:#00d4aa;fill-rule:evenodd;stroke-width:0.264583" d="m 150.12808,156.89135 1.04717,12.08937 -11.50237,10.60587 0.002,-15.06751 z" id="rect1075-65-7" inkscape:connector-curvature="0" sodipodi:nodetypes="ccccc" />
    <path style="fill:#008066;fill-rule:evenodd;stroke-width:0.264583" d="m 102.88321,186.97988 0.57466,6.63438 -6.31223,5.82026 -1.49015,-0.15243 5.73758,-12.45464 z" id="rect1075-7-1-2-5" inkscape:connector-curvature="0" sodipodi:nodetypes="cccccc" />
    <path style="fill:#00d4aa;fill-rule:evenodd;stroke-width:0.264583" d="m 101.39307,186.82745 0.57466,6.63438 -6.31224,5.82026 0.001,-8.26871 z" id="rect1075-65-7-7" inkscape:connector-curvature="0" sodipodi:nodetypes="ccccc" />
    <path style="fill:#217867;fill-opacity:1;fill-rule:evenodd;stroke-width:0.264583" d="m 163.16951,226.62264 -4.62281,15.60307 0.37095,9.96382 -20.63911,-13.6962 -26.37752,13.68198 32.32887,-0.43929 14.74346,1.94994 0.9248,24.857 -12.78286,-8.4828 -7.78514,1.1164 13.73649,12.12629 7.04325,0.93151 0.54358,14.6135 -0.52027,2.96125 -15.21554,-10.09734 -11.56493,13.37542 15.9839,0.58269 9.97132,0.83749 -3.75253,21.36007 -11.99118,-6.53957 -17.63282,10.91942 15.69473,0.005 13.313,-0.87739 -3.29981,18.78358 4.01129,15.35459 -13.01751,-4.21157 -23.7007,14.09756 23.49646,-2.45164 14.2939,-3.33062 3.67036,14.05055 -2.20791,10.09695 -15.8002,-5.11188 -23.7007,14.09756 23.49606,-2.45165 15.35855,-3.57871 -6.93856,31.73275 26.00539,-1.1559 -0.13787,-20.76552 14.63364,9.71099 26.37791,-13.68198 -32.32926,0.43929 -8.7135,-1.15234 -0.12839,-19.32914 -1.92268,-4.88433 16.964,11.25758 26.37792,-13.68197 -32.32887,0.43929 -12.44193,-1.64536 -10.48369,-26.63391 0.9485,-2.71435 19.09171,12.66948 7.78515,-1.1164 -13.73649,-12.12668 -12.36806,-1.63549 5.78424,-16.55 14.7328,9.77696 11.56493,-13.37581 -15.9839,-0.58231 -8.59973,-0.72213 6.68535,-19.12807 7.68677,4.19222 17.63282,-10.91943 -15.69473,-0.005 -7.44343,0.49065 0.28285,-0.80945 -8.69059,-33.53296 14.8442,4.80255 23.7007,-14.09795 -23.49646,2.45204 -15.86381,3.69643 z" id="rect817-9" inkscape:connector-curvature="0" />
  </g>
  <g inkscape:groupmode="layer" id="layer2" inkscape:label="Layer 2" style="opacity:0.258" transform="translate(5.6696429,-78.529755)">
    <rect style="fill:#55ffdd;fill-rule:evenodd;stroke-width:0.264583" id="rect1602" width="15.875" height="174.625" x="80.531036" y="-24.550079" transform="rotate(42.995805)" />
    <rect style="opacity:0.258;fill:#55ffdd;fill-rule:evenodd;stroke-width:0.264583" id="rect1602-0" width="15.875" height="174.625" x="104.41222" y="-21.132179" transform="rotate(42.995805)" />
    <rect style="opacity:0.258;fill:#55ffdd;fill-rule:evenodd;stroke-width:0.264583" id="rect1602-0-7" width="24.827652" height="273.10416" x="125.87156" y="-82.449951" transform="rotate(42.995804)" />
    <rect style="opacity:0.258;fill:#55ffdd;fill-rule:evenodd;stroke-width:0.264583" id="rect1602-3" width="30.084646" height="330.93112" x="173.69162" y="-107.85108" transform="rotate(42.995805)" />
  </g>
</svg>
