<?xml version="1.0" encoding="UTF-8" standalone="no"?>
<!-- Created with Inkscape (http://www.inkscape.org/) -->

<svg width="565.35126mm" height="693.56293mm" viewBox="0 0 565.35126 693.56293" version="1.1" id="svg8" inkscape:version="1.3 (0e150ed6c4, 2023-07-21)" sodipodi:docname="grapepepepe.svg" xmlns:inkscape="http://www.inkscape.org/namespaces/inkscape" xmlns:sodipodi="http://sodipodi.sourceforge.net/DTD/sodipodi-0.dtd" xmlns="http://www.w3.org/2000/svg" xmlns:svg="http://www.w3.org/2000/svg" xmlns:rdf="http://www.w3.org/1999/02/22-rdf-syntax-ns#" xmlns:cc="http://creativecommons.org/ns#" xmlns:dc="http://purl.org/dc/elements/1.1/">
  <defs id="defs2" />
  <sodipodi:namedview id="base" pagecolor="#ffffff" bordercolor="#666666" borderopacity="1.0" inkscape:pageopacity="0.0" inkscape:pageshadow="2" inkscape:zoom="0.24748737" inkscape:cx="1345.5232" inkscape:cy="1341.4826" inkscape:document-units="mm" inkscape:current-layer="layer1" showgrid="false" inkscape:window-width="2467" inkscape:window-height="1413" inkscape:window-x="84" inkscape:window-y="-9" inkscape:window-maximized="1" inkscape:showpageshadow="2" inkscape:pagecheckerboard="0" inkscape:deskcolor="#d1d1d1" />
  <metadata id="metadata5">
    <rdf:RDF>
      <cc:Work rdf:about="">
        <dc:format>image/svg+xml</dc:format>
        <dc:type rdf:resource="http://purl.org/dc/dcmitype/StillImage" />
        <dc:title />
      </cc:Work>
    </rdf:RDF>
  </metadata>
  <g inkscape:label="Layer 1" inkscape:groupmode="layer" id="layer1" transform="translate(133.10974,126.24356)">
    <rect style="fill:#550044;fill-opacity:1;fill-rule:evenodd;stroke-width:0.179178" id="rect317" width="565.35126" height="693.56293" x="-133.10974" y="-126.24356" />
    <path sodipodi:type="star" style="fill:#241c22;fill-opacity:1;fill-rule:evenodd;stroke-width:0.264583" id="path319" sodipodi:sides="29" sodipodi:cx="149.56589" sodipodi:cy="-205.32837" sodipodi:r1="283.09079" sodipodi:r2="141.54539" sodipodi:arg1="-1.5707963" sodipodi:arg2="-1.4624655" inkscape:flatsided="false" inkscape:rounded="0" inkscape:randomized="0" d="m 149.5659,-488.41916 15.30374,142.37514 45.55241,-135.75663 -15.6605,142.33634 73.67108,-122.7903 -45.89246,135.64206 98.34497,-104.08243 -73.97856,122.6053 118.42037,-80.50778 -98.60549,103.83565 132.95855,-53.16867 -118.62174,80.21077 141.27975,-23.34346 -133.09138,52.83531 142.99486,7.57327 -141.33781,22.98934 138.0237,38.13588 -142.97544,-7.93159 126.59869,66.9153 -137.92769,-38.48165 109.25407,92.565837 L 257.44641,-113.69382 344.24726,0.19427327 235.22551,-92.645058 295.51443,37.24001 208.99925,-76.865245 239.9572,62.943518 179.99396,-67.092226 180.17338,76.102931 149.56588,-63.782974 118.95838,76.102929 119.13781,-67.092228 59.174558,62.943513 90.132513,-76.865251 3.6173323,37.240002 63.906259,-92.645066 -45.115501,0.19426284 41.685354,-113.69383 -84.745249,-46.461486 24.508823,-139.02732 l -137.927693,38.48165 126.598692,-66.9153 -142.975432,7.93159 138.0236907,-38.13588 -141.3378007,-22.98934 142.9948587,-7.57327 -133.0913787,-52.83532 141.279753,23.34346 -118.621743,-80.21076 132.958555,53.16867 -98.605491,-103.83565 118.420367,80.50778 -73.978554,-122.6053 98.344972,104.08243 -45.892462,-135.64205 73.671073,122.7903 -15.660487,-142.33635 45.552397,135.75664 z" inkscape:transform-center-x="-6.8380951e-06" inkscape:transform-center-y="70.77269" transform="scale(1,-1)" inkscape:export-filename="C:\Users\Ivan\Documents\Спайд\Артеги\лоххх петр.png" inkscape:export-xdpi="96" inkscape:export-ydpi="96" />
    <path style="fill:#800066;fill-opacity:1;fill-rule:evenodd;stroke-width:0.264583" d="m 166.60127,198.76834 -9.84742,6.88435 69.66249,74.4565 48.81367,95.01242 59.02406,30.80568 -49.17665,-37.69003 -50.69395,-99.56783 z" id="rect249-1-6" inkscape:connector-curvature="0" sodipodi:nodetypes="cccccccc" />
    <path style="fill:#aa0088;fill-opacity:1;fill-rule:evenodd;stroke-width:0.264583" d="m 139.51469,200.33904 9.84742,6.88435 -69.662487,74.4565 -48.813678,95.01242 -59.024052,30.80568 49.176642,-37.69003 50.69395,-99.56783 z" id="rect249-1" inkscape:connector-curvature="0" sodipodi:nodetypes="cccccccc" />
    <path style="fill:#800066;fill-opacity:1;fill-rule:evenodd;stroke-width:0.264583" d="m 139.51469,200.33904 h 12.01523 l -82.853555,68.33039 78.042705,31.5378 -30.18955,64.14468 16.30342,-59.86837 -85.258965,-33.14142 z" id="rect249-7-6" inkscape:connector-curvature="0" sodipodi:nodetypes="cccccccc" />
    <path style="fill:#800066;fill-opacity:1;fill-rule:evenodd;stroke-width:0.264583" d="m 163.54515,200.33904 h -12.01523 l 14.43255,100.93727 -14.43255,105.83873 30.72409,59.06656 -18.70886,-59.06656 15.50163,-110.64958 z" id="rect249-6" inkscape:connector-curvature="0" sodipodi:nodetypes="cccccccc" />
    <path style="fill:#aa0088;fill-opacity:1;fill-rule:evenodd;stroke-width:0.264583" d="m 279.79449,124.6487 -16.96437,-29.47093 -9.16204,22.69303 9.94512,-15.06228 9.99651,24.75688 -96.55058,44.94226 -3.25283,-70.1278 -15.92938,9.29232 14.46208,70.5608 97.58182,-38.17489 12.18566,-5.03078 23.84021,20.35184 9.63123,-15.14246 -10.51423,10.70653 -18.40343,-17.79591 38.7554,5.54898 3.79419,-18.66167 -5.42439,12.6707 -30.77508,-1.96342 38.28211,-15.44609 -8.14404,-20.23231 4.69823,17.81847 -39.64251,12.55311 26.01936,-24.02065 -2.14333,-19.55173 -1.73225,17.83963 -25.67916,22.30421 15.56713,-34.34017 -25.00131,0.62036 20.57125,3.44114 z" id="rect186-1-2-2" inkscape:connector-curvature="0" inkscape:transform-center-x="-19.09938" inkscape:transform-center-y="43.132571" sodipodi:nodetypes="ccccccccccccccccccccccccccccccc" />
    <path style="fill:#c837ab;fill-opacity:1;fill-rule:evenodd;stroke-width:0.264583" d="m 282.6063,81.82112 -23.34831,-24.72208 -3.63793,24.20088 6.17277,-16.96098 15.47577,21.75623 -83.4641,66.14805 -19.45981,-67.45224 -13.334,12.73958 30.46284,65.26863 86.03969,-59.80557 10.68306,-7.72472 27.91689,14.25483 5.84883,-16.96601 -7.73847,12.85671 -22.035,-13.03226 38.98396,-3.60874 -0.6462,-19.0325 -2.33152,13.58435 -30.3889,5.24171 33.64487,-23.9191 -12.62261,-17.78599 8.71021,16.23895 -35.64029,21.42145 19.72527,-29.4094 -6.628,-18.51845 2.46066,17.75382 -19.79325,27.66088 7.16116,-37.01758 -24.17277,6.41308 20.80778,-1.4333 z" id="rect186-1-6" inkscape:connector-curvature="0" inkscape:transform-center-x="-24.285757" inkscape:transform-center-y="38.065566" sodipodi:nodetypes="ccccccccccccccccccccccccccccccc" />
    <path style="fill:#ff55dd;fill-opacity:1;fill-rule:evenodd;stroke-width:0.264583" d="m 268.15045,31.74767 -32.19134,-10.95638 8.0854,23.09856 -2.46281,-17.88051 23.84495,12.01045 -42.91065,97.47049 -48.7087,-50.55645 -5.84095,17.49217 57.41831,43.48698 48.15017,-93.065 5.8389,-11.81975 31.34271,-0.43287 -2.7516,-17.73367 -0.83842,14.98252 -25.5707,-1.23301 32.78614,-21.39722 -9.45992,-16.52768 4.28249,13.10081 -24.42335,18.82712 18.57976,-36.863169 -19.46788,-9.832249 15.28586,10.291442 -21.51066,35.586526 3.70732,-35.217258 -14.50924,-13.279507 10.46719,14.549604 -4.58403,33.702881 -10.95562,-36.077112 -18.3797,16.959862 17.72986,-10.985 z" id="rect186-2" inkscape:connector-curvature="0" inkscape:transform-center-x="-36.072354" inkscape:transform-center-y="21.381763" sodipodi:nodetypes="ccccccccccccccccccccccccccccccc" />
    <path style="fill:#aa0088;fill-opacity:1;fill-rule:evenodd;stroke-width:0.264583" d="m 23.22741,137.67664 16.964364,-29.47093 9.162046,22.69303 -9.945117,-15.06228 -9.996515,24.75688 96.550582,44.94226 3.25283,-70.1278 15.92938,9.29232 -14.46208,70.5608 -97.581826,-38.17489 -12.185655,-5.03078 -23.840215,20.35184 -9.63123,-15.14246 10.514231,10.70653 18.403437,-17.79591 -38.755401,5.54898 -3.794194,-18.66167 5.424386,12.6707 30.775081,-1.96342 -38.282107,-15.44609 8.14404,-20.23231 -4.698233,17.81847 39.642512,12.55311 -26.019361,-24.02065 2.143332,-19.55173 1.732254,17.83963 25.679155,22.30421 -15.5671289,-34.34017 25.0013129,0.62036 -20.5712509,3.44114 z" id="rect186-1-2" inkscape:connector-curvature="0" inkscape:transform-center-x="19.09938" inkscape:transform-center-y="43.132571" sodipodi:nodetypes="ccccccccccccccccccccccccccccccc" />
    <path style="fill:#c837ab;fill-opacity:1;fill-rule:evenodd;stroke-width:0.264583" d="M 20.415597,94.849054 43.763909,70.126976 47.401839,94.32785 41.229065,77.36687 25.7533,99.123104 l 83.4641,66.148056 19.45981,-67.452246 13.33399,12.739586 -30.46283,65.26863 -86.039688,-59.80557 -10.683064,-7.72472 -27.916887,14.25483 -5.848839,-16.96601 7.738473,12.85671 22.035005,-13.03226 -38.983964,-3.60874 0.646198,-19.032513 2.331528,13.584358 L 5.216029,101.59493 -28.428843,77.67582 -15.806236,59.889829 -24.516441,76.12878 11.123848,97.550234 -8.601427,68.140836 -1.973419,49.622385 -4.4340849,67.376203 15.35917,95.037091 8.198006,58.019507 32.370779,64.432588 11.563,62.99928 Z" id="rect186-1" inkscape:connector-curvature="0" inkscape:transform-center-x="24.285757" inkscape:transform-center-y="38.065566" sodipodi:nodetypes="ccccccccccccccccccccccccccccccc" />
    <path style="fill:#d400aa;fill-opacity:1;fill-rule:evenodd;stroke-width:0.264583" d="m 135.69066,72.341384 13.24887,-4.47783 5.39651,4.47847 1.83076,16.17897 11.79955,13.905006 46.03984,292.60221 -61.27322,-270.98767 -70.525679,277.03108 52.749249,-300.18021 6.01737,-8.473386 -6.09364,-11.00203 z" id="rect175" inkscape:connector-curvature="0" sodipodi:nodetypes="cccccccccccc" />
    <path style="fill:#aa0088;fill-opacity:1;fill-rule:evenodd;stroke-width:0.264583" d="m 163.54515,200.33904 h -12.01523 l 82.85355,68.33039 -78.0427,31.5378 30.18955,64.14468 -16.30343,-59.86837 85.25897,-33.14142 z" id="rect249-7" inkscape:connector-curvature="0" sodipodi:nodetypes="cccccccc" />
    <path style="fill:#ff55dd;fill-opacity:1;fill-rule:evenodd;stroke-width:0.264583" d="M 34.871452,44.775606 67.062793,33.819228 58.977391,56.91778 61.440204,39.037274 37.59525,51.047721 80.505901,148.51822 129.2146,97.961766 135.05554,115.45394 77.637235,158.94092 29.487066,65.875914 23.648171,54.056164 -7.694539,53.623294 -4.9429385,35.889623 -4.1045195,50.872148 21.466182,49.639135 -11.319962,28.241911 -1.8600441,11.714235 -6.1425292,24.815041 18.28082,43.642168 -0.29894724,6.7789941 19.168937,-3.0532542 3.8830814,7.2381876 25.393741,42.824709 21.686411,7.6074555 36.195657,-5.6720516 25.728471,8.8775527 30.312498,42.580436 41.268116,6.503321 59.64782,23.463185 41.917964,12.478186 Z" id="rect186" inkscape:connector-curvature="0" inkscape:transform-center-x="36.072354" inkscape:transform-center-y="21.381763" sodipodi:nodetypes="ccccccccccccccccccccccccccccccc" />
    <path style="fill:#d400aa;fill-opacity:1;fill-rule:evenodd;stroke-width:0.264583" d="m 149.25392,79.039064 30.8952,-35.13521 -4.62236,-30.169799 -30.51286,-0.725401 -30.8952,35.13522 z" id="rect10-5-8" inkscape:connector-curvature="0" />
    <path style="fill:#ff2ad4;fill-opacity:1;fill-rule:evenodd;stroke-width:0.264583" d="m 128.06844,16.35599 -20.74881,41.934264 12.27338,27.94544 29.66091,-7.19663 20.7488,-41.934267 z" id="rect10" inkscape:connector-curvature="0" />
    <path style="fill:#ff2ad4;fill-opacity:1;fill-rule:evenodd;stroke-width:0.264583" d="m 153.19523,67.478684 16.80749,-30.373887 -7.61907,-15.5017 -19.08799,-23.8166325 -26.78761,14.6282145 -9.18842,45.875575 z" id="rect10-5" inkscape:connector-curvature="0" sodipodi:nodetypes="ccccccc" />
    <path style="fill:#ff80e5;fill-opacity:1;fill-rule:evenodd;stroke-width:0.264583" d="m 125.92135,9.6403795 -6.2518,10.7894525 -5.30825,13.349962 -0.2426,14.36408 1.61421,12.36493 6.25227,-10.78935 5.30816,-13.349504 0.24269,-14.364541 z" id="rect46" inkscape:connector-curvature="0" />
    <path style="fill:#440055;fill-opacity:1;fill-rule:evenodd;stroke-width:0.264583" d="m 122.66965,25.876099 -2.26102,3.902108 -1.91978,4.828139 -0.0877,5.194903 0.5838,4.471897 2.26119,-3.902075 1.91974,-4.827971 0.0878,-5.195071 z" id="rect46-1" inkscape:connector-curvature="0" />
    <path style="fill:#ff80e5;fill-opacity:1;fill-rule:evenodd;stroke-width:0.264583" d="m 151.21065,32.265174 -6.2518,10.789453 -5.30825,13.349967 -0.24259,14.36407 1.61421,12.36493 6.25227,-10.78935 5.30814,-13.3495 0.24271,-14.364539 z" id="rect46-9" inkscape:connector-curvature="0" />
    <path style="fill:#440055;fill-opacity:1;fill-rule:evenodd;stroke-width:0.264583" d="m 147.77364,48.463784 -2.26102,3.9021 -1.91977,4.82814 -0.0877,5.19491 0.5838,4.47189 2.26119,-3.90207 1.91975,-4.82797 0.0878,-5.19507 z" id="rect46-1-1" inkscape:connector-curvature="0" />
    <path style="fill:#ff80e5;fill-opacity:1;fill-rule:evenodd;stroke-width:0.264583" d="m 145.0139,13.008654 -3.65386,6.30588 -3.10239,7.802368 -0.14179,8.395065 0.94342,7.226669 3.65414,-6.305824 3.10233,-7.802096 0.14185,-8.395337 z" id="rect46-9-4" inkscape:connector-curvature="0" />
    <path style="fill:#440055;fill-opacity:1;fill-rule:evenodd;stroke-width:0.264583" d="m 143.00515,22.475907 -1.32146,2.280582 -1.122,2.8218 -0.0513,3.036154 0.3412,2.613591 1.32155,-2.280559 1.12199,-2.821702 0.0513,-3.036253 z" id="rect46-1-1-1" inkscape:connector-curvature="0" />
    <path style="fill:#aa0088;fill-opacity:1;fill-rule:evenodd;stroke-width:0.264583" d="m 139.51469,200.33904 h 12.01523 l -14.43255,100.93727 14.43255,105.83873 -30.72409,59.06657 18.70886,-59.06657 -15.50163,-110.64958 z" id="rect249" inkscape:connector-curvature="0" sodipodi:nodetypes="cccccccc" />
    <path style="fill:#ff2ad4;fill-opacity:1;fill-rule:evenodd;stroke-width:0.264583" d="m 128.67721,97.818914 26.12102,0.72864 19.54646,-13.756574 1.26057,41.40543 -14.45092,3.4532 -1.5197,56.43124 10.54653,28.25287 -17.06919,6.20419 -18.3619,-7.72639 3.76296,-27.52715 2.50859,-56.41087 -16.28859,-4.58583 z" id="rect183" inkscape:connector-curvature="0" sodipodi:nodetypes="ccccccccccccc" />
  </g>
</svg>
