<?xml version="1.0" encoding="UTF-8" standalone="no"?>
<!-- Created with Inkscape (http://www.inkscape.org/) -->

<svg width="115.8875mm" height="115.8875mm" viewBox="0 0 115.8875 115.8875" version="1.1" id="svg8" inkscape:export-filename="C:\Users\Ivan\Desktop\инкскейеп\БАНжур.png" inkscape:export-xdpi="96" inkscape:export-ydpi="96" inkscape:version="1.3 (0e150ed6c4, 2023-07-21)" sodipodi:docname="БАНжур2.svg" xmlns:inkscape="http://www.inkscape.org/namespaces/inkscape" xmlns:sodipodi="http://sodipodi.sourceforge.net/DTD/sodipodi-0.dtd" xmlns="http://www.w3.org/2000/svg" xmlns:svg="http://www.w3.org/2000/svg" xmlns:rdf="http://www.w3.org/1999/02/22-rdf-syntax-ns#" xmlns:cc="http://creativecommons.org/ns#" xmlns:dc="http://purl.org/dc/elements/1.1/">
  <defs id="defs2">
    <inkscape:path-effect effect="bend_path" id="path-effect9743" is_visible="true" bendpath="M 88.104731,69.826637 C 103.38517,70.49086 111.37764,77.228042 110.07894,87.40185" prop_scale="1" scale_y_rel="false" vertical="false" bendpath-nodetypes="cc" lpeversion="0" hide_knot="false" />
    <inkscape:path-effect effect="bend_path" id="path-effect9647" is_visible="true" bendpath="m 82.565608,99.26101 c 0,0 11.868046,-8.01159 18.637522,-8.068728 6.61636,-0.05585 18.3465,7.577621 18.3465,7.577621" prop_scale="1" scale_y_rel="false" vertical="false" bendpath-nodetypes="cac" lpeversion="0" hide_knot="false" />
    <inkscape:path-effect effect="bend_path" id="path-effect229" is_visible="true" bendpath="m 124.06248,107.32726 c 30.74244,16.53906 51.98544,28.78072 82.19884,14.07951" prop_scale="1" scale_y_rel="false" vertical="false" bendpath-nodetypes="cc" lpeversion="0" hide_knot="false" />
    <inkscape:path-effect effect="bend_path" id="path-effect129" is_visible="true" bendpath="M 155.43172,163.14528 C 129.23926,159.54764 107.30863,131.74182 94.151902,101.70711" prop_scale="1" scale_y_rel="false" vertical="false" bendpath-nodetypes="cc" lpeversion="0" hide_knot="false" />
    <inkscape:path-effect effect="bend_path" id="path-effect62" is_visible="true" bendpath="m 104.46317,143.16369 c 10.40621,2.23149 22.4798,2.86513 31.56101,-1.08668" prop_scale="1" scale_y_rel="false" vertical="false" bendpath-nodetypes="cc" lpeversion="0" hide_knot="false" />
    <inkscape:path-effect effect="bend_path" id="path-effect129-6" is_visible="true" bendpath="M 155.43172,163.14528 C 129.23926,159.54764 107.30863,131.74182 94.151902,101.70711" prop_scale="1" scale_y_rel="false" vertical="false" bendpath-nodetypes="cc" lpeversion="0" hide_knot="false" />
    <inkscape:path-effect effect="bend_path" id="path-effect9647-8" is_visible="true" bendpath="m 85.632306,98.785143 c 0,0 9.531363,-7.480451 15.200704,-7.645735 6.82736,-0.199045 18.81092,8.125359 18.81092,8.125359" prop_scale="1" scale_y_rel="false" vertical="false" bendpath-nodetypes="cac" lpeversion="0" hide_knot="false" />
    <inkscape:path-effect effect="bend_path" id="path-effect9647-8-3" is_visible="true" bendpath="m 84.639598,96.330425 c 0,0 10.569386,-3.315002 16.034792,-3.446172 7.00059,-0.168014 20.72693,3.423793 20.72693,3.423793" prop_scale="1.2074025" scale_y_rel="false" vertical="false" bendpath-nodetypes="cac" lpeversion="0" hide_knot="false" />
    <inkscape:path-effect effect="bend_path" id="path-effect9647-8-3-1" is_visible="true" bendpath="m 85.221213,94.84995 c 0,0 11.212128,-1.377791 16.827907,-1.119711 6.54461,0.300766 19.40884,3.098121 19.40884,3.098121" prop_scale="1" scale_y_rel="false" vertical="false" bendpath-nodetypes="cac" lpeversion="0" hide_knot="false" />
    <inkscape:path-effect effect="bend_path" id="path-effect9743-2" is_visible="true" bendpath="M 89.835301,65.757458 C 101.73045,71.098234 108.03871,82.363389 100.74789,92.3597" prop_scale="1" scale_y_rel="false" vertical="false" bendpath-nodetypes="cc" lpeversion="0" hide_knot="false" />
    <inkscape:path-effect effect="bend_path" id="path-effect9743-2-5" is_visible="true" bendpath="m 96.71081,64.026888 c 6.71672,6.199344 3.182241,20.90885 -2.417479,27.163508" prop_scale="1" scale_y_rel="false" vertical="false" bendpath-nodetypes="cc" lpeversion="0" hide_knot="false" />
    <inkscape:path-effect effect="bend_path" id="path-effect9743-2-5-2" is_visible="true" bendpath="m 96.71081,64.026888 c 6.71672,6.199344 3.182241,20.90885 -2.417479,27.163508" prop_scale="1" scale_y_rel="false" vertical="false" bendpath-nodetypes="cc" lpeversion="0" hide_knot="false" />
    <inkscape:path-effect effect="bend_path" id="path-effect9743-6" is_visible="true" bendpath="M 88.104731,69.826637 C 103.38517,70.49086 111.37764,77.228042 110.07894,87.40185" prop_scale="1" scale_y_rel="false" vertical="false" bendpath-nodetypes="cc" lpeversion="0" hide_knot="false" />
    <inkscape:path-effect effect="bend_path" id="path-effect9743-2-5-2-0" is_visible="true" bendpath="m 96.71081,64.026888 c 6.71672,6.199344 3.182241,20.90885 -2.417479,27.163508" prop_scale="1" scale_y_rel="false" vertical="false" bendpath-nodetypes="cc" lpeversion="0" hide_knot="false" />
    <inkscape:path-effect effect="bend_path" id="path-effect9743-2-5-7" is_visible="true" bendpath="m 96.71081,64.026888 c 6.71672,6.199344 3.182241,20.90885 -2.417479,27.163508" prop_scale="1" scale_y_rel="false" vertical="false" bendpath-nodetypes="cc" lpeversion="0" hide_knot="false" />
    <inkscape:path-effect effect="bend_path" id="path-effect9743-2-4" is_visible="true" bendpath="M 89.835301,65.757458 C 101.73045,71.098234 108.03871,82.363389 100.74789,92.3597" prop_scale="1" scale_y_rel="false" vertical="false" bendpath-nodetypes="cc" lpeversion="0" hide_knot="false" />
    <inkscape:path-effect effect="bend_path" id="path-effect9743-5" is_visible="true" bendpath="M 88.104731,69.826637 C 103.38517,70.49086 111.37764,77.228042 110.07894,87.40185" prop_scale="1" scale_y_rel="false" vertical="false" bendpath-nodetypes="cc" lpeversion="0" hide_knot="false" />
    <inkscape:path-effect effect="bend_path" id="path-effect129-9" is_visible="true" bendpath="M 155.43172,163.14528 C 129.23926,159.54764 107.30863,131.74182 94.151902,101.70711" prop_scale="1" scale_y_rel="false" vertical="false" bendpath-nodetypes="cc" lpeversion="0" hide_knot="false" />
    <inkscape:path-effect effect="bend_path" id="path-effect129-6-9" is_visible="true" bendpath="M 155.43172,163.14528 C 129.23926,159.54764 107.30863,131.74182 94.151902,101.70711" prop_scale="1" scale_y_rel="false" vertical="false" bendpath-nodetypes="cc" lpeversion="0" hide_knot="false" />
  </defs>
  <sodipodi:namedview id="base" pagecolor="#ffffff" bordercolor="#666666" borderopacity="1.0" inkscape:pageopacity="0.0" inkscape:pageshadow="2" inkscape:zoom="0.7071068" inkscape:cx="298.39905" inkscape:cy="263.04372" inkscape:document-units="mm" inkscape:current-layer="layer1" showgrid="false" inkscape:window-width="2467" inkscape:window-height="1413" inkscape:window-x="84" inkscape:window-y="-9" inkscape:window-maximized="1" showguides="true" inkscape:showpageshadow="2" inkscape:pagecheckerboard="0" inkscape:deskcolor="#d1d1d1" />
  <metadata id="metadata5">
    <rdf:RDF>
      <cc:Work rdf:about="">
        <dc:format>image/svg+xml</dc:format>
        <dc:type rdf:resource="http://purl.org/dc/dcmitype/StillImage" />
        <dc:title />
      </cc:Work>
    </rdf:RDF>
  </metadata>
  <g inkscape:groupmode="layer" id="layer3" inkscape:label="Layer 3" style="display:inline" sodipodi:insensitive="true" transform="translate(-32.279163,-36.25312)">
    <rect style="fill:#24d0fc;fill-opacity:1;fill-rule:evenodd;stroke-width:0.264583" id="rect448" width="233.40979" height="319.2421" x="-11.935244" y="-1.714582" />
  </g>
  <g inkscape:groupmode="layer" id="layer2" inkscape:label="Layer 2" style="display:inline;opacity:0.585" sodipodi:insensitive="true" transform="translate(-32.279163,-36.25312)">
    <rect style="fill:#000060;fill-opacity:1;fill-rule:evenodd;stroke-width:0.264583" id="rect309" width="233.39148" height="219.45641" x="-11.935244" y="-1.714582" />
    <rect style="fill:#000044;fill-opacity:1;fill-rule:evenodd;stroke-width:0.264583" id="rect311-2" width="50.139767" height="165.94766" x="81.821785" y="5.5345035" />
    <rect style="fill:#000044;fill-opacity:1;fill-rule:evenodd;stroke-width:0.264583" id="rect387" width="70.908333" height="104.51041" x="-0.52916664" y="78.454163" />
    <rect style="fill:#000044;fill-opacity:1;fill-rule:evenodd;stroke-width:0.264583" id="rect311" width="50.139763" height="165.94765" x="149.10966" y="39.56599" />
    <rect style="fill:#0000b4;fill-opacity:1;fill-rule:evenodd;stroke-width:0.264583" id="rect256" width="22.489584" height="36.512501" x="-11.90625" y="112.58542" />
    <rect style="fill:#0000b4;fill-opacity:1;fill-rule:evenodd;stroke-width:0.264583" id="rect256-3" width="22.489584" height="36.512501" x="25.135416" y="112.58542" />
    <rect style="fill:#0000b4;fill-opacity:1;fill-rule:evenodd;stroke-width:0.264583" id="rect256-5" width="22.489584" height="36.512501" x="60.986458" y="112.85" />
    <rect style="fill:#0000b4;fill-opacity:1;fill-rule:evenodd;stroke-width:0.264583" id="rect256-3-7" width="22.489584" height="36.512501" x="98.028122" y="112.85" />
    <rect style="fill:#0000b4;fill-opacity:1;fill-rule:evenodd;stroke-width:0.264583" id="rect256-8" width="16.933334" height="36.512501" x="204.39062" y="112.32082" />
    <rect style="fill:#000084;fill-opacity:1;fill-rule:evenodd;stroke-width:0.264583" id="rect313-7-0-8-7" width="8.7931681" height="29.653553" x="170.08879" y="115.82849" />
    <rect style="fill:#0000b4;fill-opacity:1;fill-rule:evenodd;stroke-width:0.264583" id="rect256-6" width="22.489584" height="36.512501" x="132.68854" y="112.58542" />
    <rect style="fill:#0000b4;fill-opacity:1;fill-rule:evenodd;stroke-width:0.264583" id="rect256-3-9" width="22.489584" height="36.512501" x="169.73021" y="112.58542" />
    <rect style="fill:#0000b4;fill-opacity:1;fill-rule:evenodd;stroke-width:0.264583" id="rect307" width="218.54584" height="6.3499999" x="-3.175" y="115.76041" />
    <rect style="fill:#0000b4;fill-opacity:1;fill-rule:evenodd;stroke-width:0.264583" id="rect233" width="233.21132" height="89.20237" x="-12.022306" y="142.29778" />
    <rect style="fill:#005ce0;fill-opacity:1;fill-rule:evenodd;stroke-width:0.264583" id="rect231" width="233.40981" height="99.785713" x="-11.935244" y="217.74182" />
  </g>
  <g inkscape:label="Layer 1" inkscape:groupmode="layer" id="layer1" style="display:inline" transform="translate(-32.279163,-36.25312)">
    <rect style="fill:#005544;fill-rule:evenodd;stroke-width:0.264583" id="rect10027" width="115.8875" height="115.8875" x="32.279163" y="36.25312" rx="1.095023" ry="1.1332343" inkscape:export-filename="D:\Спайд\Артеги\helloween ava.png" inkscape:export-xdpi="145.97263" inkscape:export-ydpi="145.97263" />
    <rect style="display:inline;fill:#008066;fill-rule:evenodd;stroke-width:0.264583" id="rect10027-2" width="79.626328" height="79.626328" x="71.715416" y="27.822624" rx="1.095023" ry="1.1332343" transform="rotate(15)" />
    <path style="display:inline;fill:#005544;fill-rule:evenodd;stroke-width:0.264583" d="M 98.664953,45.419292 A 21.981415,21.981415 0 0 0 79.282711,58.929579 l -2.801379,-7.479647 -11.101131,3.693316 8.066175,0.822688 -0.819589,10.001974 a 21.981415,21.981415 0 0 0 -18.293456,-8.59069 21.981415,21.981415 0 0 0 -21.081918,22.845117 21.981415,21.981415 0 0 0 22.845633,21.082433 21.981415,21.981415 0 0 0 2.03812,-0.19689 c 1.095962,5.48247 3.59859,10.36319 7.735961,13.24312 2.507655,1.74551 5.76978,2.23312 9.493994,2.25206 l 0.560173,2.78587 -2.545064,2.43138 -1.160653,-0.0687 c -0.13189,-0.008 -0.258749,-0.001 -0.381889,0.015 -0.147516,2.7e-4 -0.299924,0.0276 -0.448035,0.0925 l -9.204089,4.03644 c -0.508781,0.22315 -0.752404,0.78538 -0.541568,1.26194 2.275856,5.14426 4.822555,10.21317 7.678084,15.12724 l 0.208772,55.83845 c 0.0021,0.55563 1.390309,1.288 1.945619,1.3069 l 20.617345,0.69815 c 0.555337,0.0188 1.023357,-0.39895 1.050044,-0.95395 l 1.283124,-26.69656 c 2.158378,1.69737 4.426349,3.28675 6.812996,4.73408 5.39149,3.27841 11.4627,5.69895 17.94724,6.76083 0.58084,0.0951 1.10173,-0.28488 1.17615,-0.83561 l 0.64802,-4.79557 c 2.53339,1.48309 5.23748,2.77564 8.09874,3.82044 0.53194,0.19424 1.1041,-0.0221 1.28725,-0.46923 l 3.31195,-8.08684 c 0.18314,-0.44716 0.0154,-0.91006 -0.36124,-1.04438 -4.30321,-1.53447 -8.31292,-4.03813 -11.87834,-7.03885 -4.07545,-3.44045 -7.52406,-7.60882 -10.53578,-12.10004 -6.52971,-9.74806 -10.67657,-20.81023 -13.380584,-32.18046 -0.0973,-0.40934 -0.600047,-0.67078 -1.128604,-0.58394 l -4.555253,0.74827 -4.828118,-5.05395 c 2.555779,0.0752 5.034465,0.10167 6.613546,-0.56896 7.473553,-3.17402 11.130143,-9.90105 12.252433,-17.904847 l 0.0171,-0.05426 -0.008,-0.0021 c 0.25863,-1.865781 0.38034,-3.800268 0.38034,-5.775359 0,-1.247563 -0.0947,-2.472934 -0.27546,-3.670059 a 21.981415,21.981415 0 0 0 1.14361,-0.403593 v 1.937348 c 0,0.932825 0.75131,1.683618 1.68412,1.683618 0.93284,0 1.68363,-0.750793 1.68363,-1.683618 v -3.502628 a 21.981415,21.981415 0 0 0 1.71979,-1.094508 v 9.558073 c 0,0.932826 0.75131,1.683618 1.68415,1.683618 0.93281,0 1.6836,-0.750792 1.6836,-1.683618 v -12.50828 a 21.981415,21.981415 0 0 0 1.40303,-1.66243 v 1.47433 c 0,0.932823 0.75078,1.684134 1.6836,1.684134 0.93284,0 1.68415,-0.751311 1.68415,-1.684134 V 74.27852 a 21.981415,21.981415 0 0 0 1.11982,-7.777303 21.981415,21.981415 0 0 0 -22.845627,-21.081918 z m 20.041657,42.074952 c -0.93282,0 -1.6836,0.750794 -1.6836,1.683617 v 0.1695 c 0,0.932823 0.75078,1.683618 1.6836,1.683618 0.93284,0 1.68415,-0.750795 1.68415,-1.683618 v -0.1695 c 0,-0.932823 -0.75131,-1.683617 -1.68415,-1.683617 z m -9.8578,10.086723 c -0.93281,0 -1.68359,0.750792 -1.68359,1.683618 v 0.169497 c 0,0.932818 0.75078,1.683618 1.68359,1.683618 0.93284,0 1.68363,-0.7508 1.68363,-1.683618 v -0.169497 c 0,-0.932826 -0.75079,-1.683618 -1.68363,-1.683618 z M 95.534918,149.42586 c 1.599081,3.11507 3.374585,6.17305 5.349012,9.15293 1.82975,2.76409 3.87157,5.46518 6.1495,8.04292 -4.27316,-2.61695 -8.206187,-5.96164 -11.858689,-9.70277 z" id="path10-8-8-6" inkscape:connector-curvature="0" />
    <circle style="fill:#00aa44;fill-rule:evenodd;stroke-width:0.264583" id="path10-8-8" cx="105.22353" cy="71.661476" r="21.981415" transform="rotate(-2.2989345)" />
    <rect style="display:inline;fill:#00aa44;fill-opacity:1;fill-rule:evenodd;stroke-width:0.264583" id="rect9947-46-7" width="3.3675961" height="19.76008" x="115.63167" y="71.834251" rx="1.6837981" ry="1.6837982" />
    <path style="fill:#fae330;fill-opacity:1;fill-rule:evenodd;stroke-width:0.264583" id="path42-1" sodipodi:type="arc" sodipodi:cx="103.67873" sodipodi:cy="68.090935" sodipodi:rx="17.096001" sodipodi:ry="17.096001" sodipodi:start="0" sodipodi:end="3.1353912" d="M 120.77473,68.090935 A 17.096001,17.096001 0 0 1 103.73174,85.186853 17.096001,17.096001 0 0 1 86.583054,68.196954" sodipodi:open="true" transform="rotate(-2.2989345)" sodipodi:arc-type="arc" />
    <rect style="fill:#000000;fill-opacity:1;fill-rule:evenodd;stroke-width:0.26509" id="rect64-2" width="1.6958904" height="13.906481" x="103.86645" y="74.81337" ry="1.1333822" rx="1.1246561" transform="matrix(0.99470205,-0.10279994,0.01559271,0.99987843,0,0)" />
    <rect style="fill:#999999;fill-opacity:1;fill-rule:evenodd;stroke-width:0.264583" id="rect157-9" width="8.8594294" height="100.29543" x="-99.302902" y="180.86066" rx="1.1339273" ry="1.1339273" transform="scale(-1,1)" />
    <path style="fill:#4d4d4d;fill-opacity:1;fill-rule:evenodd;stroke-width:0.264583" inkscape:transform-center-y="-1.9285056" d="m 112.57423,283.52018 -13.2842,-11.57101 -8.84655,9.20692 z" id="path159-9" inkscape:connector-curvature="0" sodipodi:nodetypes="cccc" inkscape:transform-center-x="-2.7324e-06" />
    <rect style="fill:#999999;fill-opacity:1;fill-rule:evenodd;stroke-width:0.264583" id="rect157" width="8.8594294" height="100.29543" x="80.372505" y="180.94931" rx="1.1339273" ry="1.1339273" />
    <circle style="fill:#eca14f;fill-rule:evenodd;stroke-width:0.264583" id="path153" cx="135.54727" cy="185.16132" r="7.1042595" />
    <path inkscape:connector-curvature="0" transform="matrix(0.83960592,0.17433286,-0.18065545,0.74165602,39.418644,29.530308)" style="fill:#000000;fill-opacity:1;fill-rule:evenodd;stroke-width:0.327122" d="m 153.43052,169.73294 c -7.33133,-1.20054 -14.19537,-3.93737 -20.29091,-7.6439 l 0,0 c -6.90422,-4.18691 -12.94359,-9.41058 -18.22095,-15.1012 -11.3694,-12.24954 -19.955434,-26.59306 -26.545631,-41.48928 -0.237828,-0.53757 0.03668,-1.17426 0.611996,-1.42658 l 10.406343,-4.56413 c 0.575317,-0.252329 1.216572,-0.05135 1.440512,0.449276 6.20541,13.872234 13.96167,26.964404 24.05629,37.735224 l 0,0 c 4.65463,4.96155 9.71574,9.39199 15.28616,12.7215 l 0,0 c 4.87075,2.90105 10.10787,5.04617 15.41015,5.8688 0.4704,0.073 0.78188,0.62155 0.69775,1.24414 l -1.52185,11.26139 c -0.0841,0.62259 -0.67944,1.05127 -1.32986,0.94476 z" id="rect126-9" inkscape:path-effect="#path-effect129-6" inkscape:original-d="M -0.13396597,100.23712 H 97.49474 c 0.628196,0 1.133927,0.50573 1.133927,1.13393 v 11.36289 c 0,0.6282 -0.505731,1.13393 -1.133927,1.13393 H -0.13396597 c -0.62819575,0 -1.13392733,-0.50573 -1.13392733,-1.13393 v -11.36289 c 0,-0.6282 0.50573158,-1.13393 1.13392733,-1.13393 z" />
    <path sodipodi:type="star" style="fill:#000000;fill-opacity:1;fill-rule:evenodd;stroke-width:0.299135" id="path103-0" sodipodi:sides="3" sodipodi:cx="-115.84131" sodipodi:cy="100.93325" sodipodi:r1="8.4621315" sodipodi:r2="4.2310658" sodipodi:arg1="-1.3089969" sodipodi:arg2="-0.26179939" inkscape:flatsided="true" inkscape:rounded="0" inkscape:randomized="0" d="m -113.65115,92.759459 3.79347,14.157421 -14.15742,-3.79347 z" inkscape:transform-center-x="-0.88566039" inkscape:transform-center-y="-1.0510252" transform="matrix(-0.8842637,-0.0202316,-0.0202316,0.8842637,-4.2609035,30.827414)" />
    <rect style="fill:#9dde67;fill-opacity:1;fill-rule:evenodd;stroke-width:0.264583" id="rect98" width="11.228932" height="28.24963" x="59.197517" y="112.10413" rx="1.1339273" ry="1.1339273" transform="rotate(-11.370661)" />
    <circle style="fill:#9dde67;fill-rule:evenodd;stroke-width:0.264583" id="path10" cx="84.714348" cy="97.117126" r="21.981415" transform="rotate(-2.2989345)" />
    <rect style="fill:#3a7c0e;fill-opacity:1;fill-rule:evenodd;stroke-width:0.264583" id="rect81" width="1.7969596" height="7.1878386" x="99.02565" y="80.347961" rx="1.1339273" ry="1.1339273" transform="rotate(3.214391)" />
    <rect style="fill:#3a7c0e;fill-opacity:1;fill-rule:evenodd;stroke-width:0.264583" id="rect81-8" width="1.7969596" height="7.1878386" x="-75.114998" y="106.04461" rx="1.1339273" ry="1.1339273" transform="matrix(-0.97206809,0.23469902,0.23469902,0.97206809,0,0)" />
    <path style="fill:#000000;fill-opacity:1;fill-rule:evenodd;stroke-width:0.264583" d="m 80.686376,121.75177 23.573794,1.39927 c 0.55467,0.0328 0.98032,0.49495 0.95365,1.04995 l -3.6034,74.97348 c -0.0267,0.555 -0.49462,0.97245 -1.04995,0.95365 l -20.617547,-0.69806 c -0.555317,-0.0189 -1.94335,-0.75118 -1.94543,-1.30681 l -0.273602,-73.17261 c -0.0025,-0.55563 0.992679,-3.31578 2.962485,-3.19887 z" id="rect100" inkscape:connector-curvature="0" sodipodi:nodetypes="sssssssss" />
    <path sodipodi:type="star" style="fill:#000000;fill-opacity:1;fill-rule:evenodd;stroke-width:0.299135" id="path103" sodipodi:sides="3" sodipodi:cx="104.43954" sodipodi:cy="101.84617" sodipodi:r1="8.4621315" sodipodi:r2="4.2310658" sodipodi:arg1="-1.3089969" sodipodi:arg2="-0.26179939" inkscape:flatsided="true" inkscape:rounded="0" inkscape:randomized="0" d="m 106.6297,93.672377 3.79347,14.157423 -14.157424,-3.79347 z" inkscape:transform-center-x="1.0510252" inkscape:transform-center-y="-0.88565677" transform="matrix(0.88426371,0.02023159,-0.02023159,0.88426371,-4.2609037,30.827414)" />
    <path sodipodi:type="star" style="fill:#e0e1f3;fill-opacity:1;fill-rule:evenodd;stroke-width:0.204918" id="path120" sodipodi:sides="3" sodipodi:cx="116.99723" sodipodi:cy="150.40266" sodipodi:r1="9.5884686" sodipodi:r2="4.7942343" sodipodi:arg1="1.5707963" sodipodi:arg2="2.6179939" inkscape:flatsided="true" inkscape:rounded="0" inkscape:randomized="0" d="m 116.99723,159.99113 -8.30386,-14.3827 16.60772,0 z" inkscape:transform-center-x="-0.22091129" inkscape:transform-center-y="4.7491087" transform="matrix(0.82734155,0.01892924,-0.04607868,2.0139645,3.7423195,-173.08852)" />
    <rect style="fill:#000000;fill-opacity:1;fill-rule:evenodd;stroke-width:0.264583" id="rect122" width="6.0573506" height="6.0573506" x="84.609291" y="126.02857" rx="1.1339273" ry="1.1339273" transform="rotate(-2.9206825)" />
    <path sodipodi:type="star" style="fill:#000000;fill-opacity:1;fill-rule:evenodd;stroke-width:0.202168" id="path124" sodipodi:sides="3" sodipodi:cx="135.17155" sodipodi:cy="165.06908" sodipodi:r1="8.1949415" sodipodi:r2="4.0974708" sodipodi:arg1="-1.5707963" sodipodi:arg2="-0.52359878" inkscape:flatsided="true" inkscape:rounded="0" inkscape:randomized="0" d="m 135.17155,156.87414 7.09703,12.29241 -14.19405,0 z" inkscape:transform-center-x="0.20555111" inkscape:transform-center-y="-4.4285895" transform="matrix(0.78076373,0.01786356,-0.05016488,2.1925599,-3.4220372,-220.85593)" />
    <path style="fill:#000000;fill-opacity:1;fill-rule:evenodd;stroke-width:0.299135" d="m 153.43052,169.73294 c -7.33133,-1.20054 -14.19537,-3.93737 -20.29091,-7.6439 l 0,0 c -6.90422,-4.18691 -12.94359,-9.41058 -18.22095,-15.1012 -11.3694,-12.24954 -19.955434,-26.59306 -26.545631,-41.48928 -0.237828,-0.53757 0.03668,-1.17426 0.611996,-1.42658 l 10.406343,-4.56413 c 0.575317,-0.252329 1.216572,-0.05135 1.440512,0.449276 6.20541,13.872234 13.96167,26.964404 24.05629,37.735224 l 0,0 c 4.65463,4.96155 9.71574,9.39199 15.28616,12.7215 l 0,0 c 4.87075,2.90105 10.10787,5.04617 15.41015,5.8688 0.4704,0.073 0.78188,0.62155 0.69775,1.24414 l -1.52185,11.26139 c -0.0841,0.62259 -0.67944,1.05127 -1.32986,0.94476 z" id="rect126" inkscape:path-effect="#path-effect129" inkscape:original-d="M -0.13396597,100.23712 H 97.49474 c 0.628196,0 1.133927,0.50573 1.133927,1.13393 v 11.36289 c 0,0.6282 -0.505731,1.13393 -1.133927,1.13393 H -0.13396597 c -0.62819575,0 -1.13392733,-0.50573 -1.13392733,-1.13393 v -11.36289 c 0,-0.6282 0.50573158,-1.13393 1.13392733,-1.13393 z" inkscape:connector-curvature="0" transform="matrix(0.88449512,0,0,0.88449512,-8.0546375,33.844737)" />
    <circle style="fill:#9dde67;fill-opacity:1;fill-rule:evenodd;stroke-width:0.264583" id="path133" cx="136.18117" cy="178.5901" r="8.3204241" />
    <rect style="fill:#eca14f;fill-opacity:1;fill-rule:evenodd;stroke-width:0.264583" id="rect155" width="6.7636204" height="92.33535" x="144.30859" y="178.93713" rx="1.1339273" ry="1.1339273" transform="rotate(3.8725999)" />
    <path style="fill:#4d4d4d;fill-opacity:1;fill-rule:evenodd;stroke-width:0.264583" inkscape:transform-center-y="-1.9285106" d="m 67.101177,283.60883 13.284202,-11.571 8.846551,9.20691 z" id="path159" inkscape:connector-curvature="0" sodipodi:nodetypes="cccc" inkscape:transform-center-x="-1.1259576e-06" />
    <path style="fill:#ff7f2a;fill-rule:evenodd;stroke-width:0.264583" d="m 114.76302,92.047134 c 0,10.474186 -3.40934,19.815546 -12.64143,23.736396 -2.633314,1.11836 -7.761582,0.30249 -11.59299,0.5448 -6.503029,0.41125 -12.267477,0.75353 -16.190676,-1.97731 -6.340949,-4.41378 -8.843842,-13.52576 -8.32438,-22.303886 0.712707,-12.043661 5.257475,-21.52093 16.767335,-23.470214 0.701901,-0.118873 1.965945,1.180079 3.607961,0.975211 1.475945,-0.184149 3.338116,-1.879735 3.999443,-1.879735 13.461797,0 24.374737,10.912943 24.374737,24.374738 z" id="path9585" inkscape:connector-curvature="0" sodipodi:nodetypes="sssssssss" />
    <path style="display:inline;fill:#ff9955;fill-rule:evenodd;stroke-width:0.264583" d="m 112.25572,94.403574 c 0,7.323436 -2.38377,13.854816 -8.83875,16.596226 -1.84118,0.78195 -5.426807,0.2115 -8.105686,0.38092 -4.546847,0.28754 -8.577286,0.52686 -11.320341,-1.38251 -4.433521,-3.08607 -6.183516,-9.45706 -5.820314,-15.594636 0.498317,-8.420794 3.675968,-15.047195 11.723535,-16.410112 0.490761,-0.08311 1.374563,0.825098 2.522645,0.681856 1.031968,-0.128755 2.333977,-1.314289 2.796364,-1.314289 9.412347,0 17.042547,7.630208 17.042547,17.042545 z" id="path9585-9" inkscape:connector-curvature="0" sodipodi:nodetypes="sssssssss" />
    <path style="fill:#d45500;fill-opacity:1;fill-rule:evenodd;stroke-width:0.264583" d="m 73.29144,99.687879 v 0 l 3.102952,2.089931 9.192766,-5.60675 3.842386,3.685216 6.233313,-3.554718 4.500883,1.896183 7.46177,-3.000417 4.05357,2.011965 2.71206,0.615416 -2.14165,6.889355 -5.88095,1.54225 -10.62121,6.69254 -5.38844,-4.69684 -7.412013,3.30816 -5.439839,-4.97795 -7.361098,-2.201 z" id="rect9703" inkscape:connector-curvature="0" sodipodi:nodetypes="cccccccccccccccccc" />
    <path style="display:inline;fill:#00d455;fill-opacity:1;fill-rule:evenodd;stroke-width:0.264583" d="m 72.269598,101.75865 2.381226,1.04392 4.448683,-1.7276 6.223068,-3.250264 4.113384,4.030964 4.108073,-2.888404 2.419126,3.485584 4.200582,-4.255109 1.67561,6.310989 4.94379,-7.84966 5.01689,2.141215 2.59111,-0.97558 -3.62267,6.104875 -4.05262,0.25597 -10.537454,8.83387 -4.799088,-7.6415 -5.365781,4.45527 -7.395627,-5.68606 -4.547524,1.05493 z" id="rect9703-8" inkscape:connector-curvature="0" sodipodi:nodetypes="cccccccccccccccccccc" />
    <path style="fill:#d45500;fill-opacity:1;fill-rule:evenodd;stroke-width:0.264583" d="m 89.426706,68.964058 c 5.78894,0.348459 11.805084,1.635357 16.465744,5.36496 l 0,10e-7 c 1.88111,1.521202 3.41693,3.504315 4.31288,5.792618 l 0,2e-6 c 0.71127,1.848437 0.98989,3.819356 0.92572,5.764924 -0.0278,0.843378 -0.52738,1.432001 -1.0344,1.371663 -0.50841,-0.0605 -0.84412,-0.715573 -0.82039,-1.432918 0.0573,-1.731755 -0.17852,-3.458645 -0.79725,-5.032838 l 0,-10e-7 c -0.752,-1.952549 -2.10134,-3.679852 -3.75344,-5.025189 l 0,0 c -4.1476,-3.416671 -9.814444,-4.562922 -15.417827,-4.943022 -0.764699,-0.05187 -1.368589,-0.49311 -1.347501,-1.003744 0.02106,-0.509886 0.667301,-0.904561 1.466464,-0.856456 z" id="rect9740" inkscape:path-effect="#path-effect9743" inkscape:original-d="m 93.641181,86.65625 h 20.283259 c 0.53786,0 0.97087,0.413015 0.97087,0.926042 0,0.513027 -0.43301,0.926041 -0.97087,0.926041 H 93.641181 c -0.537862,0 -0.97087,-0.413014 -0.97087,-0.926041 0,-0.513027 0.433008,-0.926042 0.97087,-0.926042 z" inkscape:connector-curvature="0" transform="translate(-2.1047475,0.09354433)" />
    <path inkscape:connector-curvature="0" transform="translate(-3.8338174,3.9535378)" style="display:inline;fill:#d45500;fill-opacity:1;fill-rule:evenodd;stroke-width:0.264583" d="m 91.43687,65.485462 c 4.999585,2.4688 9.51586,6.286492 11.89243,11.443938 l 0,10e-7 c 1.11696,2.448334 1.64243,5.186175 1.38374,7.897359 -0.23922,2.378776 -1.06598,4.647319 -2.27808,6.666538 -0.44861,0.747337 -1.18371,1.042117 -1.59891,0.744475 -0.4161,-0.29829 -0.37925,-1.054619 0.007,-1.699404 1.08965,-1.816708 1.83244,-3.826813 2.02615,-5.891224 l 0,-10e-7 c 0.23437,-2.348957 -0.23862,-4.771357 -1.22632,-6.951036 l 0,-10e-7 C 99.551633,73.02807 95.321246,69.51031 90.60859,67.151965 c -0.698785,-0.349692 -1.117949,-0.988494 -0.910615,-1.455799 0.20712,-0.466825 0.980776,-0.585064 1.738895,-0.210704 z" id="rect9740-3" inkscape:path-effect="#path-effect9743-2" inkscape:original-d="m 93.641181,86.65625 h 20.283259 c 0.53786,0 0.97087,0.413015 0.97087,0.926042 0,0.513027 -0.43301,0.926041 -0.97087,0.926041 H 93.641181 c -0.537862,0 -0.97087,-0.413014 -0.97087,-0.926041 0,-0.513027 0.433008,-0.926042 0.97087,-0.926042 z" />
    <path inkscape:connector-curvature="0" transform="translate(-11.150593,5.5658806)" style="display:inline;fill:#d45500;fill-opacity:1;fill-rule:evenodd;stroke-width:0.264583" d="m 98.211151,64.265359 c 1.347609,1.597909 2.210579,3.546496 2.646689,5.539338 l 0,10e-7 c 0.5807,2.62212 0.55421,5.318299 0.17972,7.913521 l 0,10e-7 c -0.63812,4.59937 -2.227969,9.209644 -5.106139,12.944885 -0.454691,0.59009 -1.16543,0.767434 -1.549846,0.428036 -0.384415,-0.339399 -0.327085,-1.019334 0.08888,-1.556468 2.633011,-3.400031 4.098631,-7.721041 4.733459,-12.077094 l 0,-10e-7 c 0.340732,-2.436463 0.375986,-4.91091 -0.153434,-7.248327 l 0,-2e-6 c -0.401622,-1.749748 -1.131457,-3.436641 -2.247281,-4.754257 -0.396611,-0.468335 -0.531808,-1.136797 -0.190718,-1.517523 0.342702,-0.382524 1.096554,-0.267491 1.598674,0.32789 z" id="rect9740-3-1" inkscape:path-effect="#path-effect9743-2-5" inkscape:original-d="m 93.641181,86.65625 h 20.283259 c 0.53786,0 0.97087,0.413015 0.97087,0.926042 0,0.513027 -0.43301,0.926041 -0.97087,0.926041 H 93.641181 c -0.537862,0 -0.97087,-0.413014 -0.97087,-0.926041 0,-0.513027 0.433008,-0.926042 0.97087,-0.926042 z" />
    <ellipse style="fill:#d45500;fill-opacity:1;fill-rule:evenodd;stroke-width:0.264583" id="path9818" cx="86.861763" cy="69.850975" rx="1.7247236" ry="1.0289876" />
    <path inkscape:connector-curvature="0" transform="matrix(-0.91394297,-0.40584265,-0.40584265,0.91394297,201.2403,50.384427)" style="display:inline;fill:#d45500;fill-opacity:1;fill-rule:evenodd;stroke-width:0.264583" d="m 98.211151,64.265359 c 1.347609,1.597909 2.210579,3.546496 2.646689,5.539338 l 0,10e-7 c 0.5807,2.62212 0.55421,5.318299 0.17972,7.913521 l 0,10e-7 c -0.63812,4.59937 -2.227969,9.209644 -5.106139,12.944885 -0.454691,0.59009 -1.16543,0.767434 -1.549846,0.428036 -0.384415,-0.339399 -0.327085,-1.019334 0.08888,-1.556468 2.633011,-3.400031 4.098631,-7.721041 4.733459,-12.077094 l 0,-10e-7 c 0.340732,-2.436463 0.375986,-4.91091 -0.153434,-7.248327 l 0,-2e-6 c -0.401622,-1.749748 -1.131457,-3.436641 -2.247281,-4.754257 -0.396611,-0.468335 -0.531808,-1.136797 -0.190718,-1.517523 0.342702,-0.382524 1.096554,-0.267491 1.598674,0.32789 z" id="rect9740-3-1-5" inkscape:path-effect="#path-effect9743-2-5-2" inkscape:original-d="m 93.641181,86.65625 h 20.283259 c 0.53786,0 0.97087,0.413015 0.97087,0.926042 0,0.513027 -0.43301,0.926041 -0.97087,0.926041 H 93.641181 c -0.537862,0 -0.97087,-0.413014 -0.97087,-0.926041 0,-0.513027 0.433008,-0.926042 0.97087,-0.926042 z" />
    <path style="fill:#00ff66;fill-opacity:1;fill-rule:evenodd;stroke-width:0.264583" d="m 73.339237,91.98951 9.874895,-14.47823 1.082833,4.642664 3.649624,1.234316 -5.828191,8.60526 -3.691131,6.976257 -3.988007,-1.418824 -4.575362,5.679337 -2.018965,-2.47959 z" id="rect9587" inkscape:connector-curvature="0" sodipodi:nodetypes="cccccccccc" />
    <path style="fill:#008000;fill-opacity:1;fill-rule:evenodd;stroke-width:0.264583" d="m 80.89635,68.366926 1.016697,-12.40099 -8.06639,-0.822632 11.101125,-3.693175 6.366536,16.99948 -4.64674,3.819922 -4.282947,-2.067057 z" id="rect9944" inkscape:connector-curvature="0" sodipodi:nodetypes="cccccccc" />
    <rect style="fill:#00aa44;fill-opacity:1;fill-rule:evenodd;stroke-width:0.264583" id="rect9947" width="3.3675961" height="14.468412" x="125.48973" y="69.390816" rx="1.6837981" ry="1.6837981" />
    <rect style="display:inline;fill:#00aa44;fill-opacity:1;fill-rule:evenodd;stroke-width:0.264583" id="rect9947-4" width="3.3675961" height="3.5368552" x="125.48973" y="87.494331" rx="1.6837981" ry="1.6837981" />
    <rect style="display:inline;fill:#00aa44;fill-opacity:1;fill-rule:evenodd;stroke-width:0.264583" id="rect9947-46" width="3.3675961" height="19.76008" x="120.71906" y="76.795189" rx="1.6837981" ry="1.6837982" />
    <rect style="display:inline;fill:#00aa44;fill-opacity:1;fill-rule:evenodd;stroke-width:0.264583" id="rect9947-4-9" width="3.3675961" height="3.5368552" x="115.63168" y="97.581169" rx="1.6837981" ry="1.6837981" />
    <path style="fill:#3a7c0e;fill-opacity:1;fill-rule:evenodd;stroke-width:1" d="m 407.45508,370.0293 c -0.80586,-0.0422 -1.65545,0.12176 -2.44727,0.50586 -2.12414,1.03037 -4.29327,1.97107 -6.49219,2.84765 l -6.48046,10.29102 c 5.55444,-1.70732 11.00109,-3.78818 16.26562,-6.32813 2.35663,-1.13699 3.34462,-3.60257 2.34375,-5.44922 -0.62531,-1.15371 -1.84636,-1.79692 -3.18945,-1.86718 z m -26.83203,8.83984 c -3.89175,0.88088 -7.84172,1.57564 -11.8125,2.16016 l -6.11524,6.19336 -3.48828,-5.02735 c -6.16092,0.58173 -12.35017,0.87887 -18.55273,0.92188 l -2.62891,1.84961 -1.89062,-1.85352 c -8.47405,-0.10457 -16.96229,-0.65483 -25.41797,-1.5664 -2.43037,-0.26201 -4.61148,1.17178 -4.86719,3.25585 -0.25565,2.08357 1.53634,4.01271 4.05273,4.28516 17.03517,1.84442 34.30247,2.25903 51.45118,0.53125 7.09128,-0.70298 14.20793,-1.79459 21.21875,-3.4082 z" transform="scale(0.26458333)" id="rect59" />
    <circle style="fill:#00ff66;fill-rule:evenodd;stroke-width:0.264583" id="path10-8" cx="60.448021" cy="81.831551" r="21.981415" transform="rotate(-2.2989345)" />
    <path style="fill:#fae330;fill-rule:evenodd;stroke-width:0.264583" id="path42" sodipodi:type="arc" sodipodi:cx="59.402351" sodipodi:cy="79.197708" sodipodi:rx="17.096001" sodipodi:ry="17.096001" sodipodi:start="0" sodipodi:end="3.1353912" d="M 76.498352,79.197708 A 17.096001,17.096001 0 0 1 59.455361,96.293627 17.096001,17.096001 0 0 1 42.306679,79.303728" sodipodi:open="true" transform="rotate(-2.2989345)" sodipodi:arc-type="arc" />
    <rect style="fill:#000000;fill-opacity:1;fill-rule:evenodd;stroke-width:0.265209" id="rect64" width="1.5663694" height="13.90623" x="59.18882" y="83.599586" ry="1.1332343" rx="1.0950226" transform="matrix(0.99378682,-0.11130033,0.01438885,0.99989648,0,0)" />
    <circle style="display:inline;fill:#37c871;fill-rule:evenodd;stroke-width:0.264583" id="path10-8-1" cx="65.242378" cy="66.705139" r="4.5189147" transform="rotate(-2.2989342)" />
    <circle style="display:inline;fill:#37c871;fill-rule:evenodd;stroke-width:0.264583" id="path10-8-1-1" cx="73.699341" cy="68.765831" r="2.8652689" transform="rotate(-2.2989341)" />
    <circle style="display:inline;fill:#37c871;fill-rule:evenodd;stroke-width:0.264583" id="path10-8-1-1-5" cx="69.858795" cy="72.500847" r="1.8896179" transform="rotate(-2.2989341)" />
    <rect style="display:inline;fill:#008066;fill-rule:evenodd;stroke-width:0.264583" id="rect10027-2-3" width="10.834414" height="10.834414" x="137.40831" y="5.4225345" rx="1.095023" ry="1.1332343" transform="rotate(14.999998)" />
    <rect style="display:inline;fill:#008066;fill-rule:evenodd;stroke-width:0.264583" id="rect10027-2-3-6" width="10.834414" height="10.834414" x="73.991257" y="115.9425" rx="1.0950229" ry="1.1332343" transform="rotate(14.999998)" />
    <ellipse style="fill:#00ff66;fill-opacity:1;fill-rule:evenodd;stroke-width:0.264583" id="path10365" cx="63.070053" cy="93.932289" rx="11.509375" ry="3.6049476" />
  </g>
</svg>
