<?xml version="1.0" encoding="UTF-8" standalone="no"?>
<!-- Created with Inkscape (http://www.inkscape.org/) -->

<svg
   xmlns:dc="http://purl.org/dc/elements/1.1/"
   xmlns:cc="http://creativecommons.org/ns#"
   xmlns:rdf="http://www.w3.org/1999/02/22-rdf-syntax-ns#"
   xmlns:svg="http://www.w3.org/2000/svg"
   xmlns="http://www.w3.org/2000/svg"
   xmlns:sodipodi="http://sodipodi.sourceforge.net/DTD/sodipodi-0.dtd"
   xmlns:inkscape="http://www.inkscape.org/namespaces/inkscape"
   width="210mm"
   height="297mm"
   viewBox="0 0 210 297"
   version="1.1"
   id="svg8"
   inkscape:version="0.92.4 (5da689c313, 2019-01-14)"
   sodipodi:docname="лого.svg">
  <defs
     id="defs2">
    <inkscape:path-effect
       effect="bend_path"
       id="path-effect1000"
       is_visible="true"
       bendpath="m 30.735994,241.94244 c 0,0 25.631416,-1.14156 51.662703,-7.74952 16.679286,-4.23399 32.383763,-15.00284 45.357263,-15.05657 13.24605,-0.0549 27.73583,10.65685 44.8286,14.81493 27.34331,6.65168 55.93088,7.99116 55.93088,7.99116"
       prop_scale="1.4627133"
       scale_y_rel="false"
       vertical="false"
       bendpath-nodetypes="csssc" />
  </defs>
  <sodipodi:namedview
     id="base"
     pagecolor="#ffffff"
     bordercolor="#666666"
     borderopacity="1.0"
     inkscape:pageopacity="0.0"
     inkscape:pageshadow="2"
     inkscape:zoom="0.7"
     inkscape:cx="960.67571"
     inkscape:cy="259.01445"
     inkscape:document-units="mm"
     inkscape:current-layer="layer1"
     showgrid="false"
     inkscape:window-width="2467"
     inkscape:window-height="1413"
     inkscape:window-x="84"
     inkscape:window-y="-9"
     inkscape:window-maximized="1" />
  <metadata
     id="metadata5">
    <rdf:RDF>
      <cc:Work
         rdf:about="">
        <dc:format>image/svg+xml</dc:format>
        <dc:type
           rdf:resource="http://purl.org/dc/dcmitype/StillImage" />
        <dc:title></dc:title>
      </cc:Work>
    </rdf:RDF>
  </metadata>
  <g
     inkscape:label="Layer 1"
     inkscape:groupmode="layer"
     id="layer1">
    <rect
       style="fill:#2ca02c;fill-rule:evenodd;stroke-width:0.26458332"
       id="rect815"
       width="280.86044"
       height="280.86044"
       x="-268.18619"
       y="22.367872"
       transform="scale(-1,1)"
       inkscape:export-xdpi="96"
       inkscape:export-ydpi="96" />
    <rect
       style="fill:#ffffff;fill-opacity:1;fill-rule:evenodd;stroke-width:0.26458332"
       id="rect815-1-9-4"
       width="102.80951"
       height="102.80951"
       x="-250.97614"
       y="83.065506"
       rx="75.59523"
       ry="75.59523"
       transform="scale(-1,1)" />
    <rect
       style="fill:#ffffff;fill-opacity:1;fill-rule:evenodd;stroke-width:0.26458332"
       id="rect815-1-9-4-8"
       width="102.80951"
       height="102.80951"
       x="-107.34523"
       y="83.065498"
       rx="75.59523"
       ry="75.59523"
       transform="scale(-1,1)" />
    <rect
       style="fill:#2ca02c;fill-opacity:1;fill-rule:evenodd;stroke-width:0.26458332"
       id="rect815-1-8"
       width="131.53569"
       height="131.53569"
       x="-193.52377"
       y="140.51788"
       rx="75.59523"
       ry="75.59523"
       transform="scale(-1,1)" />
    <rect
       style="fill:#ffffff;fill-rule:evenodd;stroke-width:0.26458332"
       id="rect815-1"
       width="117.92855"
       height="117.92855"
       x="-186.7202"
       y="147.32144"
       rx="75.59523"
       ry="75.59523"
       transform="scale(-1,1)" />
    <rect
       style="fill:#2ca02c;fill-opacity:1;fill-rule:evenodd;stroke-width:0.26458332"
       id="rect815-1-9-4-7"
       width="74.839272"
       height="74.839272"
       x="-236.99101"
       y="97.050629"
       rx="75.59523"
       ry="75.59523"
       transform="scale(-1,1)" />
    <rect
       style="fill:#2ca02c;fill-opacity:1;fill-rule:evenodd;stroke-width:0.26458332"
       id="rect815-1-9-4-7-2"
       width="74.839272"
       height="74.839272"
       x="-93.360123"
       y="97.050606"
       rx="75.59523"
       ry="75.59523"
       transform="scale(-1,1)" />
    <path
       style="fill:#2ca02c;fill-opacity:1;fill-rule:evenodd;stroke-width:0.26458332"
       d="m 30.227208,237.27846 16.125894,-1.40166 c 11.790617,-1.36058 23.478171,-3.32715 34.89134,-6.23093 7.765921,-1.93646 15.380208,-5.49992 23.395158,-8.86955 l 0,0 c 3.67097,-1.55869 7.48677,-3.10756 11.53497,-4.34791 3.54819,-1.10999 7.42567,-1.93288 11.56195,-1.98329 8.59053,0.12054 16.16917,3.21763 22.84561,6.20963 7.90772,3.37977 15.43155,6.90908 23.1113,8.7382 l 1e-5,0 c 12.30642,2.99749 24.90444,4.97669 37.60684,6.38334 l 1e-5,0 c 4.21497,0.46543 8.43233,0.86151 12.65061,1.17322 0,0 1e-5,0 1e-5,0 1.1882,0.0878 2.37183,0.16869 3.55102,0.23878 0.31221,0.0186 0.62163,0.0362 0.92828,0.0525 0.0736,0.004 0.14598,0.008 0.21709,0.0112 l -0.47015,9.37075 c -0.0824,-0.004 -0.16348,-0.008 -0.24331,-0.0126 -0.33254,-0.0176 -0.66217,-0.0365 -0.98891,-0.0559 -1.23424,-0.0734 -2.46274,-0.15734 -3.68565,-0.24777 -4.34204,-0.32103 -8.67219,-0.72751 -12.989,-1.2044 l -1e-5,0 c -12.99047,-1.43107 -25.9844,-3.47999 -38.79459,-6.5925 l -1e-5,0 c -8.85661,-2.19361 -16.87745,-5.88901 -24.60232,-9.23646 -6.74632,-2.78427 -13.07574,-5.62668 -19.09795,-5.44557 -2.80046,-0.0217 -5.7798,0.66559 -8.86754,1.57641 -3.50437,1.05961 -7.01301,2.49709 -10.61345,4.01376 l -1e-5,0 c -7.80045,3.31934 -15.863502,7.03369 -24.741448,9.32222 -11.954373,3.028 -24.097197,5.07433 -36.25715,6.47022 l -16.256779,1.41413 z"
       id="rect997"
       inkscape:path-effect="#path-effect1000"
       inkscape:original-d="M 30.735994,238.73521 H 228.51544 v 6.41447 H 30.735994 Z"
       inkscape:connector-curvature="0"
       transform="matrix(-1,0,0,1,255.51188,-8.67773)" />
    <rect
       style="fill:#ffffff;fill-opacity:1;fill-rule:evenodd;stroke-width:0.26458332"
       id="rect815-1-9-4-7-2-4"
       width="56.664944"
       height="56.664944"
       x="-84.272957"
       y="106.13777"
       rx="75.59523"
       ry="75.59523"
       transform="scale(-1,1)" />
    <rect
       style="fill:#ffffff;fill-opacity:1;fill-rule:evenodd;stroke-width:0.26458332"
       id="rect815-1-9-4-7-2-4-2"
       width="56.664944"
       height="56.664944"
       x="-227.90384"
       y="106.13779"
       rx="75.59523"
       ry="75.59523"
       transform="scale(-1,1)" />
    <rect
       style="fill:#2ca02c;fill-rule:evenodd;stroke-width:0.26458332;fill-opacity:1"
       id="rect815-1-83-0"
       width="23.245514"
       height="23.245514"
       x="-155.15919"
       y="155.63696"
       rx="75.59523"
       ry="75.59523"
       transform="scale(-1,1)" />
    <rect
       style="fill:#2ca02c;fill-opacity:1;fill-rule:evenodd;stroke-width:0.26458332"
       id="rect815-1-83-0-4"
       width="17.764858"
       height="17.764858"
       x="-118.11753"
       y="161.11761"
       rx="75.59523"
       ry="75.59523"
       transform="scale(-1,1)" />
  </g>
</svg>
