<?xml version="1.0" encoding="UTF-8" standalone="no"?>
<!-- Created with Inkscape (http://www.inkscape.org/) -->

<svg width="210.60838mm" height="210.60838mm" viewBox="0 0 210.60838 210.60838" version="1.1" id="svg8" inkscape:version="1.3 (0e150ed6c4, 2023-07-21)" sodipodi:docname="лунтят.svg" xmlns:inkscape="http://www.inkscape.org/namespaces/inkscape" xmlns:sodipodi="http://sodipodi.sourceforge.net/DTD/sodipodi-0.dtd" xmlns="http://www.w3.org/2000/svg" xmlns:svg="http://www.w3.org/2000/svg" xmlns:rdf="http://www.w3.org/1999/02/22-rdf-syntax-ns#" xmlns:cc="http://creativecommons.org/ns#" xmlns:dc="http://purl.org/dc/elements/1.1/">
  <defs id="defs2">
    <inkscape:path-effect effect="bend_path" id="path-effect5024" is_visible="true" bendpath="M -11.861228,199.06238 C 7.1267469,190.46661 25.31473,183.38185 36.011741,190.4459" prop_scale="1" scale_y_rel="false" vertical="false" bendpath-nodetypes="cc" lpeversion="0" hide_knot="false" />
    <inkscape:path-effect effect="bend_path" id="path-effect5016" is_visible="true" bendpath="M 65.748304,220.76136 C 36.74187,214.12964 42.379202,202.58045 52.398316,193.75167 c 11.100426,-9.78163 30.76398,-7.92024 47.426854,2.8218" prop_scale="1.0029665" scale_y_rel="false" vertical="false" bendpath-nodetypes="csc" lpeversion="0" hide_knot="false" />
    <inkscape:path-effect effect="bend_path" id="path-effect5024-3" is_visible="true" bendpath="M -11.861228,199.06238 C 7.1267469,190.46661 25.31473,183.38185 36.011741,190.4459" prop_scale="1" scale_y_rel="false" vertical="false" bendpath-nodetypes="cc" lpeversion="0" hide_knot="false" />
  </defs>
  <sodipodi:namedview id="base" pagecolor="#ffffff" bordercolor="#666666" borderopacity="1.0" inkscape:pageopacity="0.0" inkscape:pageshadow="2" inkscape:zoom="0.7" inkscape:cx="481.42857" inkscape:cy="381.42857" inkscape:document-units="mm" inkscape:current-layer="layer1" showgrid="false" showguides="true" inkscape:window-width="2467" inkscape:window-height="1413" inkscape:window-x="84" inkscape:window-y="-9" inkscape:window-maximized="1" inkscape:showpageshadow="2" inkscape:pagecheckerboard="0" inkscape:deskcolor="#d1d1d1" />
  <metadata id="metadata5">
    <rdf:RDF>
      <cc:Work rdf:about="">
        <dc:format>image/svg+xml</dc:format>
        <dc:type rdf:resource="http://purl.org/dc/dcmitype/StillImage" />
        <dc:title />
      </cc:Work>
    </rdf:RDF>
  </metadata>
  <g inkscape:label="Layer 1" inkscape:groupmode="layer" id="layer1" transform="translate(-0.17277509,-55.372128)">
    <rect style="fill:#162d50;fill-rule:evenodd;stroke-width:0.264583" id="rect4518" width="210.60838" height="210.60838" x="0.17277509" y="55.372128" inkscape:export-xdpi="96" inkscape:export-ydpi="96" />
    <path style="fill:#ffffff;fill-rule:evenodd;stroke-width:0.264583" d="m 0.267268,183.14316 c 76.839188,-8.11115 146.594922,-7.56473 210.608392,0 v 76.70635 H 0.267268 Z" id="rect4518-4-7" inkscape:connector-curvature="0" sodipodi:nodetypes="ccccc" inkscape:export-xdpi="96" inkscape:export-ydpi="96" />
    <path style="fill:#b7bec8;fill-rule:evenodd;stroke-width:0.264583" d="m 0.26727295,189.55763 c 76.83918805,-8.11115 146.59491705,-7.56473 210.60838705,0 v 76.70635 H 0.26727295 Z" id="rect4518-4" inkscape:connector-curvature="0" sodipodi:nodetypes="ccccc" inkscape:export-xdpi="96" inkscape:export-ydpi="96" />
    <ellipse style="fill:#939dac;fill-rule:evenodd;stroke-width:0.264583" id="path4551" cx="-6.3686638" cy="202.69835" rx="22.111607" ry="7.3705359" transform="rotate(-10.212668)" inkscape:export-xdpi="96" inkscape:export-ydpi="96" />
    <ellipse style="fill:#939dac;fill-rule:evenodd;stroke-width:0.264583" id="path4551-6" cx="208.30112" cy="170.88042" rx="39.991474" ry="13.330492" transform="rotate(11.230001)" inkscape:export-xdpi="96" inkscape:export-ydpi="96" />
    <ellipse style="fill:#939dac;fill-rule:evenodd;stroke-width:0.264583" id="path4551-2" cx="140.72913" cy="215.31348" rx="13.137444" ry="4.3791485" transform="rotate(4.7873323)" inkscape:export-xdpi="96" inkscape:export-ydpi="96" />
    <ellipse style="fill:#939dac;fill-rule:evenodd;stroke-width:0.264583" id="path4551-0" cx="1.6455356" cy="240.34451" rx="33.090504" ry="11.030168" transform="rotate(-10.212668)" inkscape:export-xdpi="96" inkscape:export-ydpi="96" />
    <path sodipodi:type="star" style="fill:#ffffff;fill-opacity:1;fill-rule:evenodd;stroke-width:0.264583" id="path4629" sodipodi:sides="5" sodipodi:cx="12.403645" sodipodi:cy="74.940399" sodipodi:r1="5.7669873" sodipodi:r2="2.8834937" sodipodi:arg1="-0.65569563" sodipodi:arg2="-0.027377099" inkscape:flatsided="false" inkscape:rounded="0" inkscape:randomized="0" d="m 16.974697,71.424205 -1.688639,3.437262 1.874219,3.339698 -3.790849,-0.543819 -2.597075,2.814511 -0.654235,-3.773361 -3.4792997,-1.600233 3.3865097,-1.788247 0.44675,-3.80351 2.747213,2.668164 z" inkscape:transform-center-x="0.37979302" inkscape:transform-center-y="1.1002706" inkscape:export-xdpi="96" inkscape:export-ydpi="96" />
    <path sodipodi:type="star" style="fill:#ffffff;fill-opacity:1;fill-rule:evenodd;stroke-width:0.264583" id="path4629-7" sodipodi:sides="5" sodipodi:cx="152.31319" sodipodi:cy="109.06074" sodipodi:r1="5.7669873" sodipodi:r2="2.8834937" sodipodi:arg1="-0.65569563" sodipodi:arg2="-0.027377099" inkscape:flatsided="false" inkscape:rounded="0" inkscape:randomized="0" d="m 156.88424,105.54454 -1.68864,3.43727 1.87422,3.33969 -3.79085,-0.54382 -2.59708,2.81452 -0.65423,-3.77337 -3.4793,-1.60023 3.38651,-1.78825 0.44675,-3.80351 2.74721,2.66817 z" inkscape:transform-center-x="27.590252" inkscape:transform-center-y="10.416341" transform="rotate(45,181.18532,140.59972)" inkscape:export-xdpi="96" inkscape:export-ydpi="96" />
    <path sodipodi:type="star" style="fill:#ffffff;fill-opacity:1;fill-rule:evenodd;stroke-width:0.493696" id="path4629-7-9" sodipodi:sides="5" sodipodi:cx="152.31319" sodipodi:cy="109.06074" sodipodi:r1="5.7669873" sodipodi:r2="2.8834937" sodipodi:arg1="-0.65569563" sodipodi:arg2="-0.027377099" inkscape:flatsided="false" inkscape:rounded="0" inkscape:randomized="0" d="m 156.88424,105.54454 -1.68864,3.43727 1.87422,3.33969 -3.79085,-0.54382 -2.59708,2.81452 -0.65423,-3.77337 -3.4793,-1.60023 3.38651,-1.78825 0.44675,-3.80351 2.74721,2.66817 z" inkscape:transform-center-x="-3.9483723" inkscape:transform-center-y="15.419212" transform="matrix(0.41968506,-0.33328523,0.33328523,0.41968506,89.941401,74.660169)" inkscape:export-xdpi="96" inkscape:export-ydpi="96" />
    <path sodipodi:type="star" style="fill:#ffffff;fill-opacity:1;fill-rule:evenodd;stroke-width:0.200818" id="path4629-7-9-5" sodipodi:sides="5" sodipodi:cx="152.31319" sodipodi:cy="109.06074" sodipodi:r1="5.7669873" sodipodi:r2="2.8834937" sodipodi:arg1="-0.65569563" sodipodi:arg2="-0.027377099" inkscape:flatsided="false" inkscape:rounded="0" inkscape:randomized="0" d="m 156.88424,105.54454 -1.68864,3.43727 1.87422,3.33969 -3.79085,-0.54382 -2.59708,2.81452 -0.65423,-3.77337 -3.4793,-1.60023 3.38651,-1.78825 0.44675,-3.80351 2.74721,2.66817 z" inkscape:transform-center-x="23.883547" inkscape:transform-center-y="30.830563" transform="matrix(1.2883944,0.27552455,-0.27552455,1.2883944,-145.86966,-59.705599)" inkscape:export-xdpi="96" inkscape:export-ydpi="96" />
    <circle style="fill:#5599ff;fill-rule:evenodd;stroke-width:0.264583" id="path4676" cx="145.39462" cy="86.257973" r="14.298919" inkscape:export-xdpi="96" inkscape:export-ydpi="96" />
    <rect style="fill:#00aa88;fill-rule:evenodd;stroke-width:0.264583" id="rect4678" width="17.973875" height="6.8153729" x="145.12735" y="78.573975" inkscape:export-xdpi="96" inkscape:export-ydpi="96" />
    <rect style="fill:#00aa88;fill-rule:evenodd;stroke-width:0.264583" id="rect4678-4" width="16.570709" height="3.5413213" x="129.72595" y="89.732475" inkscape:export-xdpi="96" inkscape:export-ydpi="96" />
    <rect style="fill:#00aa88;fill-rule:evenodd;stroke-width:0.264583" id="rect4678-4-5" width="16.570709" height="3.541321" x="132.83296" y="76.068329" inkscape:export-xdpi="96" inkscape:export-ydpi="96" />
    <rect style="fill:#00aa88;fill-rule:evenodd;stroke-width:0.264583" id="rect4678-4-5-1" width="16.570709" height="3.541321" x="143.32329" y="95.913086" inkscape:export-xdpi="96" inkscape:export-ydpi="96" />
    <rect style="fill:#aaeeff;fill-rule:evenodd;stroke-width:0.264583" id="rect4725" width="21.949511" height="2.7817199" x="126.51871" y="81.004013" ry="1.0690781" rx="1.0690781" inkscape:export-xdpi="96" inkscape:export-ydpi="96" />
    <rect style="fill:#aaeeff;fill-rule:evenodd;stroke-width:0.264583" id="rect4725-4" width="21.949511" height="2.7817199" x="146.11292" y="74.94474" ry="1.0690781" rx="1.0690781" inkscape:export-xdpi="96" inkscape:export-ydpi="96" />
    <rect style="fill:#aaeeff;fill-rule:evenodd;stroke-width:0.264583" id="rect4725-9" width="21.949511" height="2.7817199" x="142.03706" y="88.00753" ry="1.0690781" rx="1.0690781" inkscape:export-xdpi="96" inkscape:export-ydpi="96" />
    <rect style="fill:#aaeeff;fill-rule:evenodd;stroke-width:0.264583" id="rect4725-42" width="21.949511" height="2.7817199" x="126.20133" y="95.156998" ry="1.0690781" rx="1.0690781" inkscape:export-xdpi="96" inkscape:export-ydpi="96" />
    <path sodipodi:type="star" style="fill:#ffffff;fill-opacity:1;fill-rule:evenodd;stroke-width:0.264583" id="path4629-5" sodipodi:sides="5" sodipodi:cx="69.662979" sodipodi:cy="71.985649" sodipodi:r1="12.654652" sodipodi:r2="6.3273258" sodipodi:arg1="-0.65569563" sodipodi:arg2="-0.027377099" inkscape:flatsided="false" inkscape:rounded="0" inkscape:randomized="0" d="m 79.69336,64.269972 -3.705426,7.542475 4.112648,7.328385 -8.318359,-1.193316 -5.698831,6.175957 -1.435603,-8.279985 -7.634719,-3.511435 7.431108,-3.923996 0.980314,-8.346142 6.028281,5.854822 z" inkscape:transform-center-x="0.043803357" inkscape:transform-center-y="1.8966534" transform="rotate(35.520431,69.390213,69.678341)" inkscape:export-xdpi="96" inkscape:export-ydpi="96" />
    <path sodipodi:type="star" style="fill:#ffffff;fill-opacity:1;fill-rule:evenodd;stroke-width:1.01408" id="path4629-5-0" sodipodi:sides="5" sodipodi:cx="69.662979" sodipodi:cy="71.985649" sodipodi:r1="12.654652" sodipodi:r2="6.3273258" sodipodi:arg1="-0.65569563" sodipodi:arg2="-0.027377099" inkscape:flatsided="false" inkscape:rounded="0" inkscape:randomized="0" d="m 79.69336,64.269972 -3.705426,7.542475 4.112648,7.328385 -8.318359,-1.193316 -5.698831,6.175957 -1.435603,-8.279985 -7.634719,-3.511435 7.431108,-3.923996 0.980314,-8.346142 6.028281,5.854822 z" inkscape:transform-center-x="0.011426304" inkscape:transform-center-y="0.49486254" transform="matrix(0.21235763,0.15158751,-0.15158751,0.21235763,150.58731,113.83755)" inkscape:export-xdpi="96" inkscape:export-ydpi="96" />
    <path sodipodi:type="star" style="fill:#ffffff;fill-opacity:1;fill-rule:evenodd;stroke-width:0.284096" id="path4629-5-0-9" sodipodi:sides="5" sodipodi:cx="69.662979" sodipodi:cy="71.985649" sodipodi:r1="12.654652" sodipodi:r2="6.3273258" sodipodi:arg1="-0.65569563" sodipodi:arg2="-0.027377099" inkscape:flatsided="false" inkscape:rounded="0" inkscape:randomized="0" d="m 79.69336,64.269972 -3.705426,7.542475 4.112648,7.328385 -8.318359,-1.193316 -5.698831,6.175957 -1.435603,-8.279985 -7.634719,-3.511435 7.431108,-3.923996 0.980314,-8.346142 6.028281,5.854822 z" inkscape:transform-center-x="0.29710191" inkscape:transform-center-y="2.5263853" transform="matrix(0.92799384,-0.07861394,0.07861394,0.92799384,125.61392,74.584256)" inkscape:export-xdpi="96" inkscape:export-ydpi="96" />
    <path sodipodi:type="star" style="fill:#ffffff;fill-opacity:1;fill-rule:evenodd;stroke-width:0.611622" id="path4629-5-0-9-6" sodipodi:sides="5" sodipodi:cx="69.662979" sodipodi:cy="71.985649" sodipodi:r1="12.654652" sodipodi:r2="6.3273258" sodipodi:arg1="-0.65569563" sodipodi:arg2="-0.027377099" inkscape:flatsided="false" inkscape:rounded="0" inkscape:randomized="0" d="m 79.69336,64.269972 -3.705426,7.542475 4.112648,7.328385 -8.318359,-1.193316 -5.698831,6.175957 -1.435603,-8.279985 -7.634719,-3.511435 7.431108,-3.923996 0.980314,-8.346142 6.028281,5.854822 z" inkscape:transform-center-x="0.13800269" inkscape:transform-center-y="1.1734947" transform="matrix(0.43104891,-0.03651582,0.03651582,0.43104891,30.758682,83.994444)" inkscape:export-xdpi="96" inkscape:export-ydpi="96" />
  </g>
  <g inkscape:groupmode="layer" id="layer2" inkscape:label="Layer 2" transform="translate(-0.17277509,-55.372128)">
    <path sodipodi:type="star" style="fill:#0066ff;fill-opacity:1;fill-rule:evenodd;stroke-width:0.251757" id="path5021" sodipodi:sides="3" sodipodi:cx="26.458332" sodipodi:cy="182.28423" sodipodi:r1="17.032536" sodipodi:r2="8.5162678" sodipodi:arg1="-1.3089969" sodipodi:arg2="-0.26179935" inkscape:flatsided="false" inkscape:rounded="0" inkscape:randomized="0" d="m 21.900127,173.43998 c 1.972964,2.56711 3.723749,5.23267 5.131983,7.98983 1.109372,2.10681 1.988293,4.30911 2.572483,6.52044 1.346194,5.09576 1.127325,10.23956 -1.443175,14.37376 0.268791,-0.61548 -0.680213,-1.25609 -2.181758,-1.9593 -10e-7,0 -10e-7,0 -10e-7,0 -2.044236,-0.78619 -4.908438,-0.88446 -8.246576,-0.75962 -1e-6,0 -1e-6,0 -1e-6,0 -1.133967,0.0565 -2.280228,0.15053 -3.437902,0.27739 -7.4675016,0.81832 -15.4098616,3.0021 -23.590532,5.27618 4.1706314,-5.68029 8.2113786,-11.35938 12.996038,-16.77666 2.7645658,-3.1301 5.777487,-6.17279 9.207317,-9.07781 2.525389,-2.14849 5.446047,-4.17417 8.992124,-5.86421 z" inkscape:transform-center-x="-13.691506" inkscape:transform-center-y="-0.48536072" transform="matrix(1.1857441,-0.51987715,1.2344988,0.39022307,-190.00115,129.28661)" inkscape:path-effect="#path-effect5024" inkscape:export-xdpi="96" inkscape:export-ydpi="96" />
    <rect style="fill:#0066ff;fill-rule:evenodd;stroke-width:0.264583" id="rect4757" width="32.205978" height="54.255718" x="86.298088" y="148.55942" rx="1.069078" ry="1.0690781" inkscape:export-xdpi="96" inkscape:export-ydpi="96" />
    <path style="fill:#0055d4;fill-opacity:1;fill-rule:evenodd;stroke-width:0.264583" d="m 98.831655,199.82178 a 9.2213815,9.7390219 0 0 1 -9.221385,9.73904 9.2213815,9.7390219 0 0 1 -9.221394,-9.73904 9.2213815,9.7390219 0 0 1 9.221394,-9.73902 9.2213815,9.7390219 0 0 1 9.221385,9.73902 z" id="path4759-5" inkscape:connector-curvature="0" inkscape:export-xdpi="96" inkscape:export-ydpi="96" />
    <path style="fill:#0055d4;fill-rule:evenodd;stroke-width:0.264583" d="m 82.243079,193.97131 5.910999,-0.004 8.761737,11.66201 -9.632542,11.01069 -14.672711,-11.65813 z" id="rect4866" inkscape:connector-curvature="0" sodipodi:nodetypes="cccccc" inkscape:export-xdpi="96" inkscape:export-ydpi="96" />
    <ellipse style="fill:#5599ff;fill-opacity:1;fill-rule:evenodd;stroke-width:0.264583" id="path4759" cx="80.21003" cy="210.35236" rx="9.2213812" ry="9.7390213" inkscape:export-xdpi="96" inkscape:export-ydpi="96" />
    <ellipse style="fill:#0055d4;fill-opacity:1;fill-rule:evenodd;stroke-width:0.26563" id="path4759-9-5" cx="137.88678" cy="200.67888" rx="4.4859967" ry="8.4843922" transform="matrix(0.99980299,-0.01984889,-0.10547879,0.99442155,0,0)" inkscape:export-xdpi="96" inkscape:export-ydpi="96" />
    <path style="fill:#0055d4;fill-opacity:1;fill-rule:evenodd;stroke-width:0.264583" d="m 117.57778,188.47411 19.0482,2.87398 -2.44129,17.11108 -19.06833,-3.27453 z" id="rect4916" inkscape:connector-curvature="0" sodipodi:nodetypes="ccccc" inkscape:export-xdpi="96" inkscape:export-ydpi="96" />
    <ellipse style="fill:#5599ff;fill-opacity:1;fill-rule:evenodd;stroke-width:0.26563" id="path4759-9" cx="156.90486" cy="204.14928" rx="4.4859967" ry="8.4843922" transform="matrix(0.99980299,-0.01984889,-0.10547879,0.99442155,0,0)" inkscape:export-xdpi="96" inkscape:export-ydpi="96" />
    <path style="fill:#5599ff;fill-opacity:1;fill-rule:evenodd;stroke-width:0.264583" d="m 53.529406,181.71616 0.873451,7.52519 9.321007,-4.65723 -4.431719,7.97161 0.138232,-2.7753 -5.192772,6.28464 11.831902,7.05651 -10.245731,0.83641 7.298747,4.32407 -4.249596,0.77655 -6.627863,5.11808 -12.137144,-3.23627 v 0 l -12.209437,-0.64388 8.221083,-9.36583 0.292312,-5.57762 5.526134,-1.63646 -3.086618,-2.3888 z" id="rect5018" inkscape:connector-curvature="0" sodipodi:nodetypes="ccccccccccccccccccc" inkscape:export-xdpi="96" inkscape:export-ydpi="96" />
    <path style="fill:#0055d4;fill-opacity:1;fill-rule:evenodd;stroke-width:1" d="m 330.20703,561.48438 c -2.2385,0 -4.04101,1.80251 -4.04101,4.04101 v 26.94727 a 76.964289,76.964289 0 0 0 63.11914,33.08203 76.964289,76.964289 0 0 0 58.60351,-27.10157 v -32.92773 c 0,-2.2385 -1.80056,-4.04101 -4.03906,-4.04101 z" transform="scale(0.26458333)" id="path4953-0" inkscape:export-xdpi="96" inkscape:export-ydpi="96" />
    <rect style="fill:#0066ff;fill-opacity:1;fill-rule:evenodd;stroke-width:0.264583" id="rect4955" width="31.75" height="16.158482" x="29.068552" y="176.27818" rx="8.0792408" ry="8.0792408" transform="rotate(-26.642805)" inkscape:export-xdpi="96" inkscape:export-ydpi="96" />
    <rect style="fill:#0b1728;fill-rule:evenodd;stroke-width:0.264583" id="rect4988" width="7.6204209" height="6.8182716" x="39.647144" y="179.63719" rx="2.6346753" ry="2.6346753" transform="rotate(-30.244541)" inkscape:export-xdpi="96" inkscape:export-ydpi="96" />
    <path transform="rotate(17.699323)" style="fill:#0044aa;fill-opacity:1;fill-rule:evenodd;stroke-width:0.264583" d="m 127.12358,89.974932 4.36884,1.879026 0.32761,14.614232 -27.78202,11.49496 z" id="rect4992" inkscape:connector-curvature="0" sodipodi:nodetypes="ccccc" inkscape:export-xdpi="96" inkscape:export-ydpi="96" />
    <path style="fill:#0044aa;fill-opacity:1;fill-rule:evenodd;stroke-width:0.264583" d="m 98.824763,136.69702 4.747897,0.2736 6.82998,-12.92418 -19.70607,-22.70783 z" id="rect4992-4" inkscape:connector-curvature="0" sodipodi:nodetypes="ccccc" inkscape:export-xdpi="96" inkscape:export-ydpi="96" />
    <path style="fill:#5599ff;fill-opacity:1;fill-rule:evenodd;stroke-width:0.264583" d="m 87.367276,148.55941 1.509573,6.8913 10.252775,4.70555 -9.14842,12.16145 2.869097,-9.97456 -7.199694,6.44752 1.242995,-7.24415 -6.540309,2.99096 2.991203,-8.02261 -9.26832,4.45379 7.824951,-7.30578 -8.244852,-1.0013 z" id="rect5312" inkscape:connector-curvature="0" sodipodi:nodetypes="ccccccccccccc" inkscape:export-xdpi="96" inkscape:export-ydpi="96" />
    <circle style="fill:#0066ff;fill-opacity:1;fill-rule:evenodd;stroke-width:0.264583" id="path4953" cx="103.51822" cy="142.26599" r="20.363468" inkscape:export-xdpi="96" inkscape:export-ydpi="96" />
    <path style="fill:#0055d4;fill-opacity:1;fill-rule:evenodd;stroke-width:0.264583" d="m 110.94813,168.06253 c -2.59011,0 -4.67529,2.2967 -4.67529,5.14955 v 27.09897 h 12.37297 v -27.09897 c 0,-2.85285 -2.08518,-5.14955 -4.67529,-5.14955 z" id="rect5140-8-5" inkscape:connector-curvature="0" inkscape:export-xdpi="96" inkscape:export-ydpi="96" />
    <rect style="fill:#5599ff;fill-opacity:1;fill-rule:evenodd;stroke-width:0.264583" id="rect5140-5" width="9.921875" height="42.85358" x="107.48698" y="169.19679" rx="4.9609375" ry="4.9609375" inkscape:export-xdpi="96" inkscape:export-ydpi="96" />
    <path style="fill:#0055d4;fill-opacity:1;fill-rule:evenodd;stroke-width:0.264583" d="m 99.268874,170.56648 c -2.748359,0 -4.960937,2.2967 -4.960937,5.14955 V 202.815 h 13.128913 v -27.09897 c 0,-2.85285 -2.21258,-5.14955 -4.96093,-5.14955 z" id="rect5140-8" inkscape:connector-curvature="0" inkscape:export-xdpi="96" inkscape:export-ydpi="96" />
    <rect style="fill:#0066ff;fill-opacity:1;fill-rule:evenodd;stroke-width:0.264583" id="rect5140" width="9.921875" height="42.85358" x="95.911469" y="171.7476" rx="4.9609375" ry="4.9609375" inkscape:export-xdpi="96" inkscape:export-ydpi="96" />
  </g>
</svg>
