<?xml version="1.0" encoding="UTF-8" standalone="no"?>
<!-- Created with Inkscape (http://www.inkscape.org/) -->

<svg width="248.02612mm" height="1121.3188mm" viewBox="0 0 248.02612 1121.3188" version="1.1" id="svg8" inkscape:version="1.3 (0e150ed6c4, 2023-07-21)" sodipodi:docname="картиночки.svg" xmlns:inkscape="http://www.inkscape.org/namespaces/inkscape" xmlns:sodipodi="http://sodipodi.sourceforge.net/DTD/sodipodi-0.dtd" xmlns="http://www.w3.org/2000/svg" xmlns:svg="http://www.w3.org/2000/svg" xmlns:rdf="http://www.w3.org/1999/02/22-rdf-syntax-ns#" xmlns:cc="http://creativecommons.org/ns#" xmlns:dc="http://purl.org/dc/elements/1.1/">
  <defs id="defs2" />
  <sodipodi:namedview id="base" pagecolor="#ffffff" bordercolor="#666666" borderopacity="1.0" inkscape:pageopacity="0.0" inkscape:pageshadow="2" inkscape:zoom="0.12374369" inkscape:cx="1381.8887" inkscape:cy="2650.6403" inkscape:document-units="mm" inkscape:current-layer="layer1" showgrid="false" showguides="false" inkscape:window-width="2467" inkscape:window-height="1413" inkscape:window-x="84" inkscape:window-y="-9" inkscape:window-maximized="1" inkscape:showpageshadow="2" inkscape:pagecheckerboard="0" inkscape:deskcolor="#d1d1d1" />
  <metadata id="metadata5">
    <rdf:RDF>
      <cc:Work rdf:about="">
        <dc:format>image/svg+xml</dc:format>
        <dc:type rdf:resource="http://purl.org/dc/dcmitype/StillImage" />
        <dc:title />
      </cc:Work>
    </rdf:RDF>
  </metadata>
  <g inkscape:label="Layer 1" inkscape:groupmode="layer" id="layer1" transform="translate(782.56518,637.76468)">
    <rect style="fill:#2aff2a;fill-rule:evenodd;stroke-width:0.264583" id="rect1095-8" width="1121.3188" height="1121.3188" x="-534.53906" y="-637.76471" />
    <path style="fill:#00aa00;fill-rule:evenodd;stroke-width:0.264583" d="m -467.02512,-570.25077 130.7384,82.36694 181.25036,-124.05442 14.29117,122.2958 225.570755,-124.27561 64.096345,152.14378 188.97073,-162.88479 48.33061,161.67821 133.04262,-107.26991 -74.26528,153.55065 91.84897,41.42094 -78.29484,175.93329 88.7852,-6.63145 -38.21752,151.279654 75.164,90.318328 -119.24009,116.146168 90.84148,68.14161 -83.67085,62.52482 47.04893,133.60697 -91.2954,-68.86416 -70.19582,85.69051 -98.53595,-98.7068 -111.67225,120.04308 -123.27132,-130.52972 -130.78955,103.50373 -79.33131,-113.64454 -99.21543,120.26425 -37.78978,-137.06839 -144.19418,119.31204 48.61,-126.54508 -96.97499,-76.76413 69.65852,-87.89081 -72.47878,-54.142555 104.62874,-36.646926 -104.9776,-68.504133 129.08611,-52.699599 -117.62469,-189.926427 123.95012,-28.47426 -117.523,-103.65014 129.68083,1.758 z" id="rect1095-8-1" inkscape:connector-curvature="0" sodipodi:nodetypes="ccccccccccccccccccccccccccccccccccccccccc" />
    <rect style="fill:#cccccc;fill-rule:evenodd;stroke-width:0.264583" id="rect872" width="248.02612" height="1121.3187" x="-782.56519" y="-637.76465" inkscape:export-xdpi="96" inkscape:export-ydpi="96" />
    <path style="fill:#808080;fill-rule:evenodd;stroke-width:0.264583" d="m -782.56518,-224.17398 37.66792,124.732141 51.91482,-222.004941 10.96732,200.04175 30.79246,-151.66609 40.18289,226.381761 19.52243,-244.894381 27.65828,182.74184 29.32001,-115.33208 v 416.26542 h -248.02613 z" id="rect882-3" inkscape:connector-curvature="0" sodipodi:nodetypes="cccccccccccc" />
    <path style="fill:#666666;fill-rule:evenodd;stroke-width:0.264583" d="m -782.56518,163.36524 18.28492,-210.911569 31.47824,134.560378 16.5574,-121.066178 21.47588,146.549679 33.10247,-207.853339 36.65664,291.175419 45.92238,-151.172419 16.3514,97.255899 9.86985,-157.793079 18.32695,179.255209 v 206.86659 h -248.02613 z" id="rect882" inkscape:connector-curvature="0" sodipodi:nodetypes="cccccccccccccc" />
    <path style="fill:#4d4d4d;fill-rule:evenodd;stroke-width:0.264583" d="m -782.56518,373.43907 36.61593,-97.01884 18.02772,58.26911 61.89903,-100.29611 15.23147,24.11024 8.51048,-14.92819 63.74721,85.09699 30.62977,-34.34264 13.36452,58.54488 v 130.67961 h -248.02613 z" id="rect869" inkscape:connector-curvature="0" sodipodi:nodetypes="cccccccccccc" />
    <path style="fill:#333333;fill-rule:evenodd;stroke-width:0.264583" d="m -782.56518,392.96494 248.02613,-40.09043 v 130.67963 h -248.02613 z" id="rect874" inkscape:connector-curvature="0" sodipodi:nodetypes="ccccc" />
    <path style="fill:#55d400;fill-rule:evenodd;stroke-width:0.264583" d="m -711.79974,293.36356 69.44573,-18.60793 24.85607,12.02713 -6.24815,57.4186 76.55288,82.54211 -121.14254,29.87743 -15.50163,-64.20568 15.50163,-17.5788 -24.85606,-12.02713 z" id="rect815" inkscape:connector-curvature="0" sodipodi:nodetypes="cccccccccc" />
    <path style="fill:#7fff2a;fill-rule:evenodd;stroke-width:0.264583" d="m -686.94367,305.39069 69.44573,-18.60793 18.60792,69.44573 -31.41053,31.5885 83.10734,38.92648 -121.14254,29.87743 v -81.78448 z" id="rect815-4" inkscape:connector-curvature="0" sodipodi:nodetypes="cccccccc" />
    <path sodipodi:type="star" style="fill:#d4ff2a;fill-opacity:1;fill-rule:evenodd;stroke-width:0.264583" id="path832" sodipodi:sides="3" sodipodi:cx="-646.79224" sodipodi:cy="332.68048" sodipodi:r1="27.156807" sodipodi:r2="13.578403" sodipodi:arg1="-0.83761546" sodipodi:arg2="0.20958209" inkscape:flatsided="true" inkscape:rounded="0" inkscape:randomized="0" d="m -628.61791,312.50163 -9.78609,46.00771 -34.9508,-31.47886 z" inkscape:transform-center-x="4.1941177" inkscape:transform-center-y="2.8250002" />
    <path sodipodi:type="star" style="fill:#2b2200;fill-opacity:1;fill-rule:evenodd;stroke-width:0.264583" id="path832-4" sodipodi:sides="3" sodipodi:cx="-648.75922" sodipodi:cy="329.15247" sodipodi:r1="7.9311714" sodipodi:r2="3.9655857" sodipodi:arg1="-0.83761546" sodipodi:arg2="0.20958209" inkscape:flatsided="true" inkscape:rounded="0" inkscape:randomized="0" d="m -643.45139,323.25921 -2.85804,13.4366 -10.20741,-9.19343 z" inkscape:transform-center-x="1.2248992" inkscape:transform-center-y="0.82504385" />
    <path sodipodi:type="star" style="fill:#d4ff2a;fill-opacity:1;fill-rule:evenodd;stroke-width:0.449923" id="path832-3" sodipodi:sides="3" sodipodi:cx="-97.347633" sodipodi:cy="163.2942" sodipodi:r1="27.156807" sodipodi:r2="13.578403" sodipodi:arg1="-0.83761546" sodipodi:arg2="0.20958209" inkscape:flatsided="true" inkscape:rounded="0" inkscape:randomized="0" d="m -79.173305,143.11536 -9.786096,46.0077 -34.950789,-31.47886 z" inkscape:transform-center-x="2.4450108" inkscape:transform-center-y="4.0600657" transform="matrix(-0.33026011,0.10256304,0.29657994,0.95500803,-772.3267,190.01017)" />
    <path sodipodi:type="star" style="fill:#2b2200;fill-opacity:1;fill-rule:evenodd;stroke-width:0.449923" id="path832-4-2" sodipodi:sides="3" sodipodi:cx="-99.314583" sodipodi:cy="159.7662" sodipodi:r1="7.9311719" sodipodi:r2="3.9655857" sodipodi:arg1="-0.83761546" sodipodi:arg2="0.20958209" inkscape:flatsided="true" inkscape:rounded="0" inkscape:randomized="0" d="m -94.006753,153.87295 -2.858038,13.4366 -10.207409,-9.19343 z" inkscape:transform-center-x="0.71406671" inkscape:transform-center-y="1.1857453" transform="matrix(-0.33026011,0.10256304,0.29657994,0.95500803,-772.3267,190.01017)" />
    <path style="fill:#ff6600;fill-rule:evenodd;stroke-width:0.264583" d="m -782.56517,-637.76468 h 248.02612 v 202.08063 c -17.09214,4.42658 -24.6808,35.02224 -28.17329,34.40999 -12.85205,-2.25303 -15.95056,-51.99353 -21.44405,-48.24718 -4.16683,2.84161 -5.89042,69.11806 -18.89931,63.5318 -16.05862,-6.89586 -33.42662,-55.94178 -39.35156,-44.55715 -11.70784,22.49635 -23.16503,43.40153 -30.43325,26.82422 -16.99153,-38.75417 -32.88138,62.17028 -82.90842,-1.8078 -4.32113,-5.52617 -10.62758,-64.01563 -26.81624,-30.15388 z" id="rect872-1" inkscape:connector-curvature="0" sodipodi:nodetypes="cccsssssscc" />
    <path style="fill:#aa4400;fill-rule:evenodd;stroke-width:0.264583" d="m -534.53905,-637.76468 h -248.02613 v 118.74651 c 17.09215,2.60115 24.68081,20.57975 28.17329,20.21998 12.85206,-1.32392 15.95056,-30.55241 21.44406,-28.35098 4.16683,1.66978 5.89041,40.61512 18.8993,37.33252 16.05863,-4.05214 33.42662,-32.87248 39.35157,-26.18265 11.70783,13.2193 23.16503,25.50359 30.43325,15.76244 16.99152,-22.77271 32.88138,36.53247 82.90841,-1.0623 4.32113,-3.24729 10.62759,-37.61683 26.81625,-17.71901 z" id="rect872-1-2" inkscape:connector-curvature="0" sodipodi:nodetypes="cccsssssscc" />
    <path sodipodi:type="star" style="fill:#ffcc00;fill-opacity:1;fill-rule:evenodd;stroke-width:0.264583" id="path944-7" sodipodi:sides="5" sodipodi:cx="-658.87964" sodipodi:cy="524.93335" sodipodi:r1="95.3414" sodipodi:r2="37.052341" sodipodi:arg1="1.5707963" sodipodi:arg2="2.1991148" inkscape:flatsided="false" inkscape:rounded="0" inkscape:randomized="0" d="m -658.87964,620.27475 -21.77882,-65.36543 -68.89624,-0.51386 55.43619,-40.91191 -20.8014,-65.68301 56.04027,40.08047 56.04027,-40.08047 -20.8014,65.683 55.43619,40.91192 -68.89624,0.51386 z" inkscape:transform-center-y="-9.1043557" transform="scale(1,-1)" />
    <rect style="fill:#0000ff;fill-rule:evenodd;stroke-width:0.264583" id="rect1095" width="457.74414" height="457.74414" x="7.3021665" y="-305.97736" />
    <path style="fill:#0055d4;fill-rule:evenodd;stroke-width:0.264583" d="m 7.3021625,-93.530453 c 31.0912235,424.029183 315.4517475,-346.446807 457.7441475,0 V 151.76681 H 7.3021625 Z" id="rect1155" inkscape:connector-curvature="0" sodipodi:nodetypes="ccccc" />
    <rect style="fill:#ff0000;fill-rule:evenodd;stroke-width:0.264583" id="rect1095-5" width="28.355837" height="28.355837" x="221.99629" y="-91.28318" />
    <path style="fill:#003380;fill-rule:evenodd;stroke-width:0.264583" d="m 79.165409,-127.26171 91.940441,-60.69619 -43.08418,-19.9333 -12.91886,30.63371 30.35778,-5.33379 -35.73901,18.09395 -6.19917,14.69971 5.99612,-66.65423 109.52369,19.96782 66.55149,2.00367 -7.54014,68.95758 -28.50588,-46.51387 -7.66189,33.39024 -51.28577,-28.61785 29.44135,53.65517 -61.71351,-14.59479 -54.81531,66.345332 38.87691,41.366758 56.0113,-24.016427 -30.6549,50.9967691 62.6178,-35.0412641 5.35143,66.619919 43.92611,-77.973296 21.513,108.376435 L 79.165409,6.8863561 55.634655,-94.441438 8.0083226,5.4589553 7.6058328,-105.98053 6.5879822,-167.23631 Z" id="rect1112" inkscape:connector-curvature="0" sodipodi:nodetypes="cccccccccccccccccccccccccccccc" />
    <path style="fill:#55d400;fill-rule:evenodd;stroke-width:0.264583" d="m -311.22567,-161.79798 c 131.6765,-147.47613 201.04807,-8.34959 298.849421,0 v 75.428453 C -108.16458,-109.67604 -188.42007,-198.56567 -304.54214,-136.01864 Z" id="rect1133" inkscape:connector-curvature="0" sodipodi:nodetypes="ccccc" />
    <path style="fill:#2aff2a;fill-rule:evenodd;stroke-width:0.264583" d="m -179.18663,-371.5615 c 67.15925,-99.60704 141.649106,-96.58547 213.402482,-131.87473 -19.410688,51.01743 -28.0720775,91.28558 -11.967753,106.78801 44.966205,15.22862 65.232582,-43.64223 96.656311,-69.04099 -29.058819,48.66559 -52.220667,105.19382 -102.927179,124.99584 -11.0819111,-35.53617 -46.961019,-40.07583 -21.6594463,-121.09135 -50.2373967,26.11903 -104.0212447,42.78081 -139.7722147,107.53027 36.93016,73.47191 72.232304,148.21005 153.7302623,187.01813 V 5.2616701 L -52.199484,-62.528447 C -111.88945,-76.482453 -136.77725,-44.758625 -156.2493,-5.9266033 -153.55154,72.25026 -117.08942,105.40796 -76.778288,133.43363 -47.536832,117.70907 -48.06152,78.596828 -54.061342,35.182699 -27.068433,101.83779 -50.549651,146.41045 -61.782812,196.34164 -122.09628,140.86828 -200.57295,103.5581 -213.53786,0.73617041 -165.17979,-60.603816 -111.92303,-114.59578 -38.330644,-138.08429 -128.67211,-197.64078 -132.97005,-293.42612 -179.18663,-371.5615 Z" id="rect1130" inkscape:connector-curvature="0" sodipodi:nodetypes="ccccccccccccccccc" />
    <path sodipodi:type="star" style="fill:#ff5555;fill-opacity:1;fill-rule:evenodd;stroke-width:0.264583" id="path1136" sodipodi:sides="7" sodipodi:cx="-343.84561" sodipodi:cy="-152.74138" sodipodi:r1="173.51266" sodipodi:r2="124.76228" sodipodi:arg1="-1.3089969" sodipodi:arg2="-0.96825617" inkscape:flatsided="false" inkscape:rounded="0.22" inkscape:randomized="0" d="m -298.93722,-320.34174 c 15.16556,2.34721 14.16844,54.79723 25.79903,64.80888 15.74532,13.55364 78.01128,15.37221 88.32774,33.40516 7.62045,13.32038 -34.00832,45.24284 -34.58419,60.57817 -0.77961,20.76075 36.62076,70.576091 28.95424,89.885182 -5.66301,14.263031 -56.57612,1.619679 -68.92481,10.730861 -16.71748,12.334591 -32.34594,72.634736 -52.22239,78.679837 -14.68212,4.465329 -36.54095,-43.223141 -51.36364,-47.197007 -20.06676,-5.379764 -76.95549,19.9979415 -94.0745,8.226967 -12.64529,-8.694856 11.0103,-55.518053 4.87539,-69.584565 -8.30534,-19.043045 -63.61598,-47.697715 -65.08659,-68.420975 -1.08629,-15.30764 50.27057,-26.00674 57.44316,-39.57353 9.71016,-18.36653 -2.37234,-79.47601 12.91285,-93.54653 11.2907,-10.39345 51.67608,23.08818 66.75506,20.23719 20.41371,-3.85964 60.65772,-51.40726 81.18865,-48.22964 z" inkscape:transform-center-x="7.1779618" inkscape:transform-center-y="1.4438439" />
    <path sodipodi:type="star" style="fill:#d40000;fill-opacity:1;fill-rule:evenodd;stroke-width:0.264583" id="path1136-7" sodipodi:sides="7" sodipodi:cx="-343.75577" sodipodi:cy="-152.72743" sodipodi:r1="139.39499" sodipodi:r2="100.23036" sodipodi:arg1="-1.3089969" sodipodi:arg2="-0.96825617" inkscape:flatsided="false" inkscape:rounded="0.22" inkscape:randomized="0" d="m -307.67768,-287.37265 c 12.1835,1.88613 11.38229,44.02273 20.72618,52.06556 12.64962,10.88826 62.67251,12.34928 70.95992,26.83672 6.12165,10.70143 -27.32161,36.34676 -27.78393,48.66673 -0.62587,16.67859 29.42062,56.69899 23.261,72.211118 -4.54993,11.458333 -45.4518,1.30094 -55.37218,8.62086 -13.43007,9.909603 -25.9856,58.353205 -41.95394,63.209074 -11.79531,3.58688 -29.35584,-34.724519 -41.26404,-37.916691 -16.12116,-4.321519 -61.82413,16.066265 -75.5767,6.609303 -10.15859,-6.985566 8.84565,-44.601706 3.91675,-55.902204 -6.67267,-15.29844 -51.10783,-38.3189 -52.28866,-54.9674 -0.87224,-12.29774 40.38619,-20.8929 46.14816,-31.79221 7.80046,-14.75534 -1.90629,-63.84916 10.3738,-75.15254 9.07092,-8.34947 41.5151,18.54868 53.62905,16.25796 16.3997,-3.10116 48.73073,-41.2997 65.22459,-38.74628 z" inkscape:transform-center-x="5.7665935" inkscape:transform-center-y="1.159873" />
    <circle style="fill:#0055d4;fill-opacity:1;fill-rule:evenodd;stroke-width:0.264583" id="path1158" cx="359.51468" cy="-227.67856" r="10.980092" />
    <circle style="fill:#0055d4;fill-opacity:1;fill-rule:evenodd;stroke-width:0.264583" id="path1158-2" cx="417.27951" cy="-221.47241" r="25.30195" />
    <circle style="fill:#0055d4;fill-opacity:1;fill-rule:evenodd;stroke-width:0.264583" id="path1158-2-2" cx="46.58205" cy="4.5742536" r="7.3996286" />
    <circle style="fill:#0055d4;fill-opacity:1;fill-rule:evenodd;stroke-width:0.264583" id="path1158-2-2-8" cx="54.697811" cy="-267.06363" r="19.573206" />
    <circle style="fill:#0000ff;fill-opacity:1;fill-rule:evenodd;stroke-width:0.264583" id="path1158-2-2-0" cx="41.569439" cy="63.532589" r="7.3996291" />
    <circle style="fill:#0000ff;fill-opacity:1;fill-rule:evenodd;stroke-width:0.264583" id="path1158-2-2-0-0" cx="371.92691" cy="-139.36038" r="21.721489" />
    <circle style="fill:#0000ff;fill-opacity:1;fill-rule:evenodd;stroke-width:0.264583" id="path1158-2-2-0-0-6" cx="397.22891" cy="107.93034" r="9.7866068" />
    <circle style="fill:#0000ff;fill-opacity:1;fill-rule:evenodd;stroke-width:0.264583" id="path1158-2-2-0-0-6-8" cx="334.92886" cy="-160.60448" r="7.1609335" />
    <rect style="fill:#cccccc;fill-rule:evenodd;stroke-width:0.264583" id="rect872-19" width="248.02612" height="1121.3187" x="586.77979" y="-637.76471" inkscape:export-xdpi="96" inkscape:export-ydpi="96" />
    <path style="fill:#808080;fill-rule:evenodd;stroke-width:0.264583" d="m 586.77981,-224.17407 37.66792,124.732134 51.91482,-222.004954 10.96733,200.04175 30.79246,-151.66607 40.18289,226.381764 19.52243,-244.894394 27.65828,182.74183 29.32001,-115.33206 V 192.09135 H 586.77981 Z" id="rect882-3-0" inkscape:connector-curvature="0" sodipodi:nodetypes="cccccccccccc" />
    <path style="fill:#666666;fill-rule:evenodd;stroke-width:0.264583" d="m 586.77981,163.36514 18.28492,-210.911576 31.47824,134.56039 16.5574,-121.06619 21.47588,146.549696 33.10248,-207.853336 36.65664,291.175416 45.92238,-151.172416 16.3514,97.255886 9.86985,-157.793076 18.32695,179.255206 V 370.23172 H 586.77981 Z" id="rect882-5" inkscape:connector-curvature="0" sodipodi:nodetypes="cccccccccccccc" />
    <path style="fill:#4d4d4d;fill-rule:evenodd;stroke-width:0.264583" d="m 586.77981,373.43902 36.61593,-97.01888 18.02772,58.26911 61.89904,-100.29611 15.23147,24.11024 8.51048,-14.92819 63.74721,85.09698 30.62977,-34.34262 13.36452,58.54488 V 483.55402 H 586.77981 Z" id="rect869-1" inkscape:connector-curvature="0" sodipodi:nodetypes="cccccccccccc" />
    <path style="fill:#333333;fill-rule:evenodd;stroke-width:0.264583" d="M 586.77981,392.96482 834.80595,352.87443 V 483.55402 H 586.77981 Z" id="rect874-3" inkscape:connector-curvature="0" sodipodi:nodetypes="ccccc" />
    <path style="fill:#55d400;fill-rule:evenodd;stroke-width:0.264583" d="m 657.54525,293.36347 69.44574,-18.60793 24.85607,12.02714 -6.24815,57.4186 76.55288,82.54214 -121.14254,29.8774 -15.50163,-64.2057 15.50163,-17.5788 -24.85607,-12.0271 z" id="rect815-0" inkscape:connector-curvature="0" sodipodi:nodetypes="cccccccccc" />
    <path style="fill:#7fff2a;fill-rule:evenodd;stroke-width:0.264583" d="m 682.40132,305.39061 69.44574,-18.60793 18.60792,69.44572 -31.41053,31.58852 83.10734,38.9265 -121.14254,29.8774 v -81.7845 z" id="rect815-4-8" inkscape:connector-curvature="0" sodipodi:nodetypes="cccccccc" />
    <path sodipodi:type="star" style="fill:#d4ff2a;fill-opacity:1;fill-rule:evenodd;stroke-width:0.264583" id="path832-8" sodipodi:sides="3" sodipodi:cx="722.55273" sodipodi:cy="332.68042" sodipodi:r1="27.156807" sodipodi:r2="13.578403" sodipodi:arg1="-0.83761546" sodipodi:arg2="0.20958209" inkscape:flatsided="true" inkscape:rounded="0" inkscape:randomized="0" d="m 740.72706,312.50157 -9.78609,46.0077 -34.9508,-31.47886 z" inkscape:transform-center-x="4.1941177" inkscape:transform-center-y="2.8250002" />
    <path sodipodi:type="star" style="fill:#2b2200;fill-opacity:1;fill-rule:evenodd;stroke-width:0.264583" id="path832-4-6" sodipodi:sides="3" sodipodi:cx="720.58575" sodipodi:cy="329.15234" sodipodi:r1="7.9311719" sodipodi:r2="3.9655857" sodipodi:arg1="-0.83761546" sodipodi:arg2="0.20958209" inkscape:flatsided="true" inkscape:rounded="0" inkscape:randomized="0" d="m 725.89358,323.25909 -2.85803,13.4366 -10.20742,-9.19344 z" inkscape:transform-center-x="1.2248992" inkscape:transform-center-y="0.82504385" />
    <path sodipodi:type="star" style="fill:#d4ff2a;fill-opacity:1;fill-rule:evenodd;stroke-width:0.449923" id="path832-3-7" sodipodi:sides="3" sodipodi:cx="-97.347633" sodipodi:cy="163.2942" sodipodi:r1="27.156807" sodipodi:r2="13.578403" sodipodi:arg1="-0.83761546" sodipodi:arg2="0.20958209" inkscape:flatsided="true" inkscape:rounded="0" inkscape:randomized="0" d="m -79.173305,143.11536 -9.786096,46.0077 -34.950789,-31.47886 z" inkscape:transform-center-x="2.4450108" inkscape:transform-center-y="4.0600657" transform="matrix(-0.33026011,0.10256304,0.29657995,0.95500804,597.01831,190.01008)" />
    <path sodipodi:type="star" style="fill:#2b2200;fill-opacity:1;fill-rule:evenodd;stroke-width:0.449923" id="path832-4-2-0" sodipodi:sides="3" sodipodi:cx="-99.314583" sodipodi:cy="159.7662" sodipodi:r1="7.9311719" sodipodi:r2="3.9655857" sodipodi:arg1="-0.83761546" sodipodi:arg2="0.20958209" inkscape:flatsided="true" inkscape:rounded="0" inkscape:randomized="0" d="m -94.006753,153.87295 -2.858038,13.4366 -10.207409,-9.19343 z" inkscape:transform-center-x="0.71406671" inkscape:transform-center-y="1.1857453" transform="matrix(-0.33026011,0.10256304,0.29657995,0.95500804,597.01831,190.01008)" />
    <path style="fill:#ff6600;fill-rule:evenodd;stroke-width:0.264583" d="m 586.77982,-637.76483 h 248.02613 v 202.08068 c -17.09214,4.42658 -24.6808,35.02224 -28.17329,34.40999 -12.85205,-2.25303 -15.95056,-51.99353 -21.44405,-48.24718 -4.16683,2.84161 -5.89042,69.11806 -18.89931,63.5318 -16.05862,-6.89586 -33.42662,-55.94178 -39.35156,-44.55715 -11.70784,22.49635 -23.16503,43.40153 -30.43325,26.82422 -16.99154,-38.75417 -32.88139,62.17029 -82.90843,-1.8078 -4.32113,-5.52617 -10.62758,-64.01563 -26.81624,-30.15388 z" id="rect872-1-3" inkscape:connector-curvature="0" sodipodi:nodetypes="cccsssssscc" />
    <path style="fill:#aa4400;fill-rule:evenodd;stroke-width:0.264583" d="M 834.80595,-637.76483 H 586.77981 v 118.74656 c 17.09215,2.60115 24.68081,20.57975 28.17329,20.21998 12.85206,-1.32392 15.95056,-30.55241 21.44406,-28.35098 4.16683,1.66978 5.89041,40.61512 18.8993,37.33252 16.05864,-4.05214 33.42663,-32.87248 39.35158,-26.18265 11.70783,13.2193 23.16503,25.50359 30.43325,15.76244 16.99152,-22.77271 32.88138,36.53247 82.90841,-1.0623 4.32113,-3.24729 10.62759,-37.61683 26.81625,-17.71901 z" id="rect872-1-2-5" inkscape:connector-curvature="0" sodipodi:nodetypes="cccsssssscc" />
    <path sodipodi:type="star" style="fill:#ffcc00;fill-opacity:1;fill-rule:evenodd;stroke-width:0.264583" id="path944-7-0" sodipodi:sides="5" sodipodi:cx="710.46533" sodipodi:cy="524.93347" sodipodi:r1="95.3414" sodipodi:r2="37.052341" sodipodi:arg1="1.5707963" sodipodi:arg2="2.1991148" inkscape:flatsided="false" inkscape:rounded="0" inkscape:randomized="0" d="m 710.46533,620.27487 -21.77882,-65.36542 -68.89624,-0.51386 55.43619,-40.91192 -20.8014,-65.68301 56.04027,40.08047 56.04027,-40.08047 -20.8014,65.68301 55.43619,40.91191 -68.89624,0.51386 z" inkscape:transform-center-y="-9.1043557" transform="scale(1,-1)" />
  </g>
</svg>
