<?xml version="1.0" encoding="UTF-8" standalone="no"?>
<!-- Created with Inkscape (http://www.inkscape.org/) -->

<svg
   xmlns:dc="http://purl.org/dc/elements/1.1/"
   xmlns:cc="http://creativecommons.org/ns#"
   xmlns:rdf="http://www.w3.org/1999/02/22-rdf-syntax-ns#"
   xmlns:svg="http://www.w3.org/2000/svg"
   xmlns="http://www.w3.org/2000/svg"
   xmlns:xlink="http://www.w3.org/1999/xlink"
   xmlns:sodipodi="http://sodipodi.sourceforge.net/DTD/sodipodi-0.dtd"
   xmlns:inkscape="http://www.inkscape.org/namespaces/inkscape"
   width="210mm"
   height="297mm"
   viewBox="0 0 210 297"
   version="1.1"
   id="svg8"
   inkscape:version="0.92.4 (5da689c313, 2019-01-14)"
   sodipodi:docname="раньше солнца было два... теперь ни одного не светит.svg"
   inkscape:export-filename="D:\Спайд\Артеги\третья концовка.png"
   inkscape:export-xdpi="16.133465"
   inkscape:export-ydpi="16.133465">
  <defs
     id="defs2">
    <linearGradient
       inkscape:collect="always"
       id="linearGradient1517">
      <stop
         style="stop-color:#1a1a1a;stop-opacity:1;"
         offset="0"
         id="stop1513" />
      <stop
         style="stop-color:#1a1a1a;stop-opacity:0;"
         offset="1"
         id="stop1515" />
    </linearGradient>
    <linearGradient
       inkscape:collect="always"
       id="linearGradient1454">
      <stop
         style="stop-color:#ff6600;stop-opacity:1;"
         offset="0"
         id="stop1450" />
      <stop
         style="stop-color:#ff6600;stop-opacity:0;"
         offset="1"
         id="stop1452" />
    </linearGradient>
    <radialGradient
       inkscape:collect="always"
       xlink:href="#linearGradient1454"
       id="radialGradient1456"
       cx="147.54176"
       cy="127.39432"
       fx="147.54176"
       fy="127.39432"
       r="277.42575"
       gradientTransform="matrix(0,1.6219628,-1.5728775,-2.2352121e-5,296.66642,-55.519134)"
       gradientUnits="userSpaceOnUse" />
    <linearGradient
       inkscape:collect="always"
       xlink:href="#linearGradient1517"
       id="linearGradient1519"
       x1="111.18412"
       y1="-356.74396"
       x2="111.18412"
       y2="-193.70685"
       gradientUnits="userSpaceOnUse"
       gradientTransform="translate(0,5.3045301e-6)" />
  </defs>
  <sodipodi:namedview
     id="base"
     pagecolor="#ffffff"
     bordercolor="#666666"
     borderopacity="1.0"
     inkscape:pageopacity="0.0"
     inkscape:pageshadow="2"
     inkscape:zoom="0.12374369"
     inkscape:cx="4512.1265"
     inkscape:cy="1810.2552"
     inkscape:document-units="mm"
     inkscape:current-layer="layer1"
     showgrid="false"
     showguides="false"
     inkscape:window-width="2467"
     inkscape:window-height="1413"
     inkscape:window-x="84"
     inkscape:window-y="-9"
     inkscape:window-maximized="1" />
  <metadata
     id="metadata5">
    <rdf:RDF>
      <cc:Work
         rdf:about="">
        <dc:format>image/svg+xml</dc:format>
        <dc:type
           rdf:resource="http://purl.org/dc/dcmitype/StillImage" />
        <dc:title />
      </cc:Work>
    </rdf:RDF>
  </metadata>
  <g
     inkscape:label="Layer 1"
     inkscape:groupmode="layer"
     id="layer1">
    <rect
       style="fill:#1a1a1a;fill-rule:evenodd;stroke-width:0.26458332"
       id="rect1946"
       width="554.8515"
       height="1985.5104"
       x="-179.97197"
       y="-1365.3031"
       inkscape:export-filename="D:\Спайд\Артеги\третья концовка.png"
       inkscape:export-xdpi="96"
       inkscape:export-ydpi="96" />
    <rect
       style="fill:#aadac7;fill-opacity:1;fill-rule:evenodd;stroke-width:0.26458332"
       id="rect872"
       width="554.8515"
       height="1385.9015"
       x="-179.97197"
       y="-765.69415" />
    <rect
       style="fill:url(#linearGradient1519);fill-opacity:1;fill-rule:evenodd;stroke-width:0.26458332"
       id="rect1503"
       width="554.8515"
       height="1180.2622"
       x="-179.97197"
       y="-765.69415" />
    <circle
       style="fill:#aadac7;fill-opacity:1;fill-rule:evenodd;stroke-width:0.26458344"
       id="path1521-2-3-7-2-7-7-5-3-4-8-1-9-9-6-9"
       cx="263.1521"
       cy="-213.86005"
       r="56.259167" />
    <path
       style="fill:#aadac7;fill-opacity:1;fill-rule:evenodd;stroke-width:1.00000012"
       d="M -390 -1188.1953 A 36.428566 36.428566 0 0 0 -426.42773 -1151.7656 A 36.428566 36.428566 0 0 0 -390 -1115.3379 A 36.428566 36.428566 0 0 0 -353.57227 -1151.7656 A 36.428566 36.428566 0 0 0 -390 -1188.1953 z M 75.714844 -1176.0508 A 258.57142 258.57142 0 0 0 -182.85742 -917.48047 A 258.57142 258.57142 0 0 0 75.714844 -658.9082 A 258.57142 258.57142 0 0 0 334.28516 -917.48047 A 258.57142 258.57142 0 0 0 75.714844 -1176.0508 z M 547.14258 -1158.9082 A 62.857145 62.857145 0 0 0 484.28516 -1096.0527 A 62.857145 62.857145 0 0 0 547.14258 -1033.1953 A 62.857145 62.857145 0 0 0 610 -1096.0527 A 62.857145 62.857145 0 0 0 547.14258 -1158.9082 z M -520.71484 -1020.3379 A 123.57142 123.57142 0 0 0 -644.28516 -896.76562 A 123.57142 123.57142 0 0 0 -520.71484 -773.19531 A 123.57142 123.57142 0 0 0 -397.14258 -896.76562 A 123.57142 123.57142 0 0 0 -520.71484 -1020.3379 z M 968.57227 -1018.9082 A 108.57143 108.57143 0 0 0 860 -910.33789 A 108.57143 108.57143 0 0 0 968.57227 -801.76562 A 108.57143 108.57143 0 0 0 1077.1426 -910.33789 A 108.57143 108.57143 0 0 0 968.57227 -1018.9082 z M 637.14258 -907.48047 A 69.999995 69.999995 0 0 0 567.14258 -837.48047 A 69.999995 69.999995 0 0 0 637.14258 -767.48047 A 69.999995 69.999995 0 0 0 707.14258 -837.48047 A 69.999995 69.999995 0 0 0 637.14258 -907.48047 z M -285 -855.33789 A 102.85714 102.85714 0 0 0 -387.85742 -752.48047 A 102.85714 102.85714 0 0 0 -285 -649.62305 A 102.85714 102.85714 0 0 0 -182.14258 -752.48047 A 102.85714 102.85714 0 0 0 -285 -855.33789 z M 479.28516 -786.76562 A 104.28571 104.28571 0 0 0 375 -682.48047 A 104.28571 104.28571 0 0 0 479.28516 -578.19531 A 104.28571 104.28571 0 0 0 583.57227 -682.48047 A 104.28571 104.28571 0 0 0 479.28516 -786.76562 z M 1285.7148 -738.9082 A 41.428571 41.428571 0 0 0 1244.2852 -697.48047 A 41.428571 41.428571 0 0 0 1285.7148 -656.05273 A 41.428571 41.428571 0 0 0 1327.1426 -697.48047 A 41.428571 41.428571 0 0 0 1285.7148 -738.9082 z M -428.57227 -700.33789 A 37.142858 37.142858 0 0 0 -465.71484 -663.19531 A 37.142858 37.142858 0 0 0 -428.57227 -626.05078 A 37.142858 37.142858 0 0 0 -391.42773 -663.19531 A 37.142858 37.142858 0 0 0 -428.57227 -700.33789 z "
       transform="scale(0.26458333)"
       id="path1521-2" />
    <path
       sodipodi:type="star"
       style="opacity:1;fill:#ff9200;fill-opacity:0.66920149;fill-rule:evenodd;stroke-width:0.26458332"
       id="path1022"
       sodipodi:sides="9"
       sodipodi:cx="88.524383"
       sodipodi:cy="171.49067"
       sodipodi:r1="317.91071"
       sodipodi:r2="158.95535"
       sodipodi:arg1="-1.5707963"
       sodipodi:arg2="-1.2217304"
       inkscape:flatsided="false"
       inkscape:rounded="0"
       inkscape:randomized="0"
       d="M 88.524392,-146.42003 142.89033,22.121505 292.87345,-72.043051 226.18376,92.013007 401.60531,116.28607 245.06484,199.09299 363.84313,330.44603 190.69891,293.25755 197.25624,470.22902 88.524371,330.44603 -20.20749,470.22901 -13.650157,293.25753 -186.79437,330.44602 -68.016083,199.09297 -224.55654,116.28605 -49.134984,92.012986 -115.82467,-72.043062 34.158462,22.121497 Z"
       inkscape:transform-center-x="-4.8215449e-05"
       inkscape:transform-center-y="-79.477664" />
    <path
       sodipodi:type="star"
       style="opacity:1;fill:#ffd600;fill-opacity:0.66920148;fill-rule:evenodd;stroke-width:0.26458332"
       id="path1022-6"
       sodipodi:sides="9"
       sodipodi:cx="87.153907"
       sodipodi:cy="187.96397"
       sodipodi:r1="220.84787"
       sodipodi:r2="110.42394"
       sodipodi:arg1="-1.5707963"
       sodipodi:arg2="-1.2217304"
       inkscape:flatsided="false"
       inkscape:rounded="0"
       inkscape:randomized="0"
       d="M 87.153914,-32.883896 124.92113,84.199413 229.11219,18.784694 182.78385,132.75201 304.6466,149.61415 195.90026,207.1389 278.41377,298.38791 158.13304,272.55363 162.68832,395.49309 87.153899,298.38792 11.619482,395.49309 16.174759,272.55362 -104.10596,298.3879 -21.592448,207.13888 -130.33879,149.61414 -8.4760275,132.752 -54.804362,18.784687 49.386703,84.199407 Z"
       inkscape:transform-center-x="-4.0134432e-05"
       inkscape:transform-center-y="-55.211949" />
    <path
       sodipodi:type="star"
       style="opacity:1;fill:#ebebeb;fill-opacity:1;fill-rule:evenodd;stroke-width:0.26458332"
       id="path1022-6-2"
       sodipodi:sides="9"
       sodipodi:cx="91.765572"
       sodipodi:cy="200.63566"
       sodipodi:r1="80.887016"
       sodipodi:r2="86.869324"
       sodipodi:arg1="-1.5707963"
       sodipodi:arg2="-1.1851504"
       inkscape:flatsided="false"
       inkscape:rounded="0"
       inkscape:randomized="0"
       d="m 91.765574,119.74865 32.676566,0.39775 19.31661,18.52622 24.77602,21.30878 2.88896,26.60839 5.28252,32.2492 -14.89047,22.24019 -16.68274,28.09985 -25.70248,7.46557 L 88.588594,287.44688 64.100581,276.6446 33.530695,265.09479 21.71536,241.07917 5.7215423,212.58156 l 6.3858687,-25.99178 6.065936,-32.11106 21.599054,-15.8061 25.287371,-20.6994 z"
       inkscape:transform-center-x="-1.2144157e-05"
       inkscape:transform-center-y="-20.221748" />
    <rect
       style="fill:#2ad4ff;fill-rule:evenodd;stroke-width:0.26458332"
       id="rect870-3"
       width="554.85156"
       height="381.05688"
       x="-179.97197"
       y="239.15041" />
    <rect
       style="fill:#80e5ff;fill-rule:evenodd;stroke-width:0.26458332"
       id="rect870"
       width="554.8515"
       height="366.69379"
       x="-179.97197"
       y="253.5135" />
    <path
       style="fill:#ffe6d5;fill-rule:evenodd;stroke-width:0.26458332"
       d="m -117.01007,257.8628 c -7.94435,0 -14.3398,6.39545 -14.3398,14.33979 0,7.94438 6.39545,14.34054 14.3398,14.34054 h 315.90891 c 7.94435,0 14.34053,-6.39616 14.34053,-14.34054 0,-7.94434 -6.39618,-14.33979 -14.34053,-14.33979 z m 144.282167,55.06709 c -7.944349,0 -14.339808,4.90918 -14.339808,11.00755 0,6.09836 6.395459,11.00828 14.339808,11.00828 H 226.73305 c 7.94435,0 14.33981,-4.90992 14.33981,-11.00828 0,-6.09837 -6.39546,-11.00755 -14.33981,-11.00755 z m -42.478964,52.9432 c -7.944352,0 -14.340525,4.90918 -14.340525,11.00754 0,6.09838 6.396173,11.00829 14.340525,11.00829 H 184.25337 c 7.94435,0 14.34052,-4.90991 14.34052,-11.00829 0,-6.09836 -6.39617,-11.00754 -14.34052,-11.00754 z m 60.717991,42.20625 c -7.94436,0 -14.339814,4.90987 -14.339814,11.00824 0,6.09837 6.395454,11.00755 14.339814,11.00755 H 216.83434 c 7.94435,0 14.33981,-4.90918 14.33981,-11.00755 0,-6.09837 -6.39546,-11.00824 -14.33981,-11.00824 z M 27.96289,451.11877 c -7.944353,0 -14.340525,4.90919 -14.340525,11.00756 0,6.09836 6.396172,11.00828 14.340525,11.00828 h 138.74225 c 7.94435,0 14.33981,-4.90992 14.33981,-11.00828 0,-6.09837 -6.39546,-11.00756 -14.33981,-11.00756 z"
       id="rect1458"
       inkscape:connector-curvature="0" />
    <path
       style="fill:#9393ac;fill-rule:evenodd;stroke-width:0.26458332"
       d="m 99.148337,201.39348 18.807873,-0.58227 84.26724,419.3961 H 10.323932 Z"
       id="rect865"
       inkscape:connector-curvature="0"
       sodipodi:nodetypes="ccccc" />
    <rect
       style="fill:#ffeeaa;fill-opacity:1;fill-rule:evenodd;stroke-width:0.26458332"
       id="rect902-0"
       width="48.002975"
       height="14.930058"
       x="21.54565"
       y="-132.16273"
       transform="rotate(-163.75135)" />
    <rect
       style="fill:#ffeeaa;fill-opacity:1;fill-rule:evenodd;stroke-width:0.26458332"
       id="rect902"
       width="48.002975"
       height="14.930058"
       x="214.55249"
       y="-211.54419"
       transform="matrix(0.96005644,-0.27980643,-0.27980643,-0.96005644,0,0)" />
    <rect
       style="fill:url(#radialGradient1456);fill-opacity:1;fill-rule:evenodd;stroke-width:0.26458332"
       id="rect1440"
       width="554.8515"
       height="1014.9008"
       x="-179.97197"
       y="-394.69351" />
    <path
       style="fill:#000000;fill-opacity:0.486692;fill-rule:evenodd;stroke-width:0.26458332"
       d="m 105.54184,363.05351 24.7481,30.57203 45.06303,245.50549 -59.34226,9.26407 -65.399099,-7.55953 21.424718,-212.4274 9.386091,-7.69746 18.97002,44.33198 15.53299,78.35302 z"
       id="rect874"
       inkscape:connector-curvature="0"
       sodipodi:nodetypes="cccccccccc" />
    <path
       style="fill:#3c3c3c;fill-rule:evenodd;stroke-width:0.26458332;fill-opacity:1"
       d="m 73.408507,417.31532 8.388331,-9.23598 11.105619,3.40895 7.489983,53.5544 -9.390282,0.83614 z"
       id="rect897"
       inkscape:connector-curvature="0"
       sodipodi:nodetypes="cccccc" />
    <rect
       style="fill:#3c3c3c;fill-opacity:1;fill-rule:evenodd;stroke-width:0.26598603"
       id="rect900"
       width="8.3709908"
       height="34.296299"
       x="27.162027"
       y="381.05618"
       transform="matrix(0.93697105,-0.34940699,0.21018371,0.97766191,0,0)" />
    <path
       style="fill:#005500;fill-opacity:1;fill-rule:evenodd;stroke-width:0.26458332"
       d="m 129.30203,222.8906 -21.90313,-1.91458 1.66687,92.5215 3.81068,84.03915 17.41349,-3.91113 -3.21182,-79.75827 z"
       id="rect894"
       inkscape:connector-curvature="0"
       sodipodi:nodetypes="ccccccc" />
    <path
       style="fill:#cc00ff;fill-rule:evenodd;stroke-width:0.26458332"
       d="M 100.31978,127.90316 C 46.266252,129.36961 -6.5435984,129.92067 -49.202678,86.88612 l -21.254409,50.28676 c 57.920812,10.47055 117.946093,13.75226 180.129907,9.66047 z"
       id="rect864-5"
       inkscape:connector-curvature="0"
       sodipodi:nodetypes="ccccc" />
    <path
       style="fill:#cc00ff;fill-rule:evenodd;stroke-width:0.26458332"
       d="m 113.97706,131.15473 c 53.49214,7.90729 105.85874,14.7573 153.3491,-22.87827 l 15.10073,52.46406 c -58.75647,3.48282 -118.74437,-0.42298 -179.99534,-11.9072 z"
       id="rect864"
       inkscape:connector-curvature="0"
       sodipodi:nodetypes="ccccc" />
    <path
       style="fill:#005500;fill-rule:evenodd;stroke-width:0.26458332"
       d="M 82.535119,91.310024 C 66.076029,109.10543 45.251412,106.71024 24.909932,106.54963 l 15.20823,28.74748 c 21.610337,-7.75393 40.468757,-19.29177 54.034407,-38.107158 z"
       id="rect841-5"
       inkscape:connector-curvature="0"
       sodipodi:nodetypes="ccccc" />
    <rect
       style="fill:#ffeeaa;fill-rule:evenodd;stroke-width:0.26458332"
       id="rect815"
       width="37.797619"
       height="37.797619"
       x="87.123512"
       y="84.199409"
       rx="18.898809"
       ry="18.898809" />
    <path
       style="fill:#225500;fill-rule:evenodd;stroke-width:0.26458332"
       d="M 21.433965,-12.540654 111.25037,-0.06213173 113.46469,99.82997 87.000213,105.31154 Z"
       id="rect817"
       inkscape:connector-curvature="0"
       sodipodi:nodetypes="ccccc" />
    <path
       style="fill:#008000;fill-rule:evenodd;stroke-width:0.26458332"
       d="M 111.25037,-0.06213173 165.44848,-38.217685 125.08214,93.950041 113.46469,99.829971 Z"
       id="rect835"
       inkscape:connector-curvature="0"
       sodipodi:nodetypes="ccccc" />
    <path
       style="fill:#225500;fill-rule:evenodd;stroke-width:0.26458332"
       d="m 78.76255,-38.217685 h 86.68593 L 111.25037,-0.06213173 21.433966,-12.540653 Z"
       id="rect838"
       inkscape:connector-curvature="0"
       sodipodi:nodetypes="ccccc" />
    <path
       transform="rotate(43.713373)"
       style="fill:#008000;fill-rule:evenodd;stroke-width:0.26458332;fill-opacity:1"
       d="m 155.33439,-18.530513 c 24.19426,1.488553 37.59122,-14.633585 52.18317,-28.806675 l 8.87339,31.288513 c -20.97845,9.3292638 -42.58266,14.0217791 -65.39039,9.7964606 z"
       id="rect841"
       inkscape:connector-curvature="0"
       sodipodi:nodetypes="ccccc" />
    <path
       style="fill:#7137c8;fill-rule:evenodd;stroke-width:0.26458332"
       d="m 93.811602,118.06305 3.875411,-2.40542 15.544207,2.42209 7.75683,-0.81513 -7.01099,9.07929 20.94259,7.05446 -30.08318,10.85713 -25.858326,-15.90255 17.280197,-0.11143 z"
       id="rect861"
       inkscape:connector-curvature="0"
       sodipodi:nodetypes="cccccccccc" />
    <path
       style="fill:#5a2ca0;fill-rule:evenodd;stroke-width:0.26458332"
       d="m 102.03014,129.95654 -5.771799,-1.71505 4.061439,-0.33833 -1.269159,-9.57952 4.985839,10.26098 13.4343,-9.73322 -4.54938,8.76653 19.06389,6.1524 -18.00821,-2.6156 -7.06925,0.93997 -2.07134,12.16077 z"
       id="rect867"
       inkscape:connector-curvature="0"
       sodipodi:nodetypes="cccccccccccc" />
    <path
       style="fill:#008000;fill-opacity:1;fill-rule:evenodd;stroke-width:0.26458332"
       d="m 86.728961,221.67397 42.573069,1.21663 -16.99986,20.13594 -6.017,81.88892 -10.068145,97.00969 -32.874148,19.71219 22.694932,-122.0773 z"
       id="rect891"
       inkscape:connector-curvature="0"
       sodipodi:nodetypes="cccccccc" />
    <path
       style="fill:#cc00ff;fill-opacity:1;fill-rule:evenodd;stroke-width:0.26458332"
       d="m 84.836866,137.83458 39.605274,6.90061 4.85989,78.15541 -35.074451,53.07622 c -22.879224,19.65912 -54.56137,5.29785 -81.187337,19.17411 -10.8462504,5.65258 -51.075453,-1.19946 -58.14354,-8.87748 12.801311,2.53235 42.6491843,3.22759 53.9660242,-1.88285 20.0508268,-9.05451 47.2123898,-2.08819 64.1010008,-17.66574 l 14.686437,-48.9093 z"
       id="rect888"
       inkscape:connector-curvature="0"
       sodipodi:nodetypes="ccccscsccc" />
    <path
       style="fill:#8800aa;fill-rule:evenodd;stroke-width:0.26458332"
       d="m -70.457087,137.17288 47.731217,0.70613 -11.209875,-7.00681 48.50936,5.61492 53.435522,3.05942 7.203291,-7.35079 -4.088355,-2.28867 7.854071,-1.55416 5.858722,9.48166 10.934718,5.45281 29.517896,2.18003 8.89128,-9.38009 13.91357,0.53393 -13.43488,3.99052 0.59157,5.59134 29.93235,4.76707 28.15683,0.90932 15.66299,-4.38977 -0.16992,4.89011 66.8101,2.1576 -85.14003,3.17672 -67.2227,-4.51836 -0.55683,66.49198 -10.42164,23.33875 5.65404,-42.21533 -4.44327,-48.19475 -10.67492,97.3325 -19.571751,25.82887 12.869007,-29.39307 1.992066,-16.4706 -2.727695,-74.65776 -2.204764,77.86726 -14.19786,23.81086 8.976032,-27.97085 0.360019,-84.50518 -22.546223,0.59901 -77.150546,-2.87328 z"
       id="rect862"
       inkscape:connector-curvature="0"
       sodipodi:nodetypes="cccccccccccccccccccccccccccccccccccccc" />
    <path
       style="fill:#f69716;fill-opacity:0.11406844;fill-rule:evenodd;stroke-width:0.99999994"
       d="M 297.68555 -144.44336 L 81.009766 -47.396484 L 303.91797 353.27148 C 243.04367 411.6032 167.75879 403.2902 94.146484 402.70898 L 133.7207 477.50977 C 18.370903 463.22515 -90.51819 424.67338 -185.96289 328.38867 L -215.66602 398.66406 L -376.33984 351.83594 L -392.12891 406.00977 L -237.7832 450.99414 L -266.29492 518.44727 C -76.236923 552.80472 119.81975 566.672 322.00195 559.61328 L 331.27539 823.20312 L 275.76758 1008.0547 C 211.93658 1066.9305 109.27879 1040.6026 33.496094 1074.8242 C -9.2762058 1094.1394 -122.08585 1091.5125 -170.46875 1081.9414 C -143.75475 1110.9607 8.2914566 1136.8563 49.285156 1115.4922 C 138.75575 1068.8641 243.33118 1106.5928 326.20117 1063.3203 L 325.18164 1207.7852 L 239.40625 1669.1797 L 298.01953 1634.0332 L 343.94531 1760.8008 L 379.43555 1757.6426 L 357.18555 1598.5586 L 363.6543 1594.6797 L 401.70703 1228.0254 L 410.77148 1104.666 L 412.2168 1184.8711 L 420.34766 1364.1719 L 398.89844 1372.1719 L 426.14258 1498.9004 L 426.45117 1498.7832 L 426.61914 1502.502 L 492.43359 1487.7188 L 480.29492 1186.2715 L 488.70117 842.42188 L 472.34766 579.43945 L 497.99609 581.16406 C 691.14027 609.92835 880.93186 618.57874 1067.4395 607.52344 L 1044.6484 528.3418 L 1176.4141 489.93945 L 1160.625 435.76562 L 1029.041 474.11523 L 1010.3672 409.23438 C 891.81078 503.18905 765.2108 523.78108 634.6582 518.32812 L 690.54688 412.68555 C 613.66569 413.29258 534.95946 422.34613 472.75195 355.08789 C 524.87689 436.49368 605.92385 414.96766 679.43555 420.26172 L 631.09375 509.74219 C 575.79507 485.1197 520.66416 468.73458 464.72852 412.90234 C 453.36102 429.43838 445.77272 440.57866 433.73633 449.08789 L 457.27734 443.20508 L 446.79297 444.30469 C 454.57528 437.74237 460.92712 429.54889 465.32422 420.23047 C 509.50009 464.49388 563.52232 495.21541 623.4668 517.79688 C 584.11511 515.71999 544.41609 511.41225 504.48047 506.15039 L 509.93164 504.18359 L 430.7793 477.52148 L 457.27734 443.20508 L 429.34961 467.21484 L 430.44922 487.91406 L 494.48633 501.98828 L 498.51953 511.07617 C 693.66716 548.52902 830.15045 525.75977 1006.4531 440.7207 L 1053.709 600.29492 C 860.38638 607.97447 670.57709 610.61634 464.01562 566.66406 L 475.06445 851.00781 L 472.79492 1186.2695 L 483.15039 1476.873 L 434.5918 1490.6465 L 410.91016 1078.9961 L 394.83789 1212.4512 L 349.97266 1598.2188 L 370.87305 1746.6621 L 351.62305 1754.5527 L 305.41992 1615.1172 L 261.87695 1644.75 L 335.51562 1196.6758 L 337.63867 1051.9688 C 331.33627 1062.8463 288.46462 1080.2365 228.56055 1078.6582 C 162.97936 1076.9304 85.452661 1093.0527 31.632812 1107.9375 C -47.864942 1129.9239 -56.607959 1116.3091 -128.58203 1092.9707 C -61.48161 1104.7549 -25.483145 1103.2753 42.919922 1079.5371 C 85.526733 1064.7511 161.32506 1062.4971 229.42383 1047.5352 C 257.34501 1041.4006 286.62891 1021.332 286.62891 1021.332 L 339.46289 827.66797 L 333.85742 545.98438 C 132.22279 545.62872 224.0724 575.04653 -256.97461 512.13281 L -185.70703 347.76562 C -92.813986 435.54168 22.629382 482.10504 157.26562 493.5918 L 108.27539 409.72852 C 177.42125 405.51268 251.47187 422.83988 306.12109 354.96484 L 103.31055 -45.210938 L 294.93164 -132.49219 L 609.72461 -128.81641 L 472.75195 355.08789 L 625.31641 -144.44336 L 297.68555 -144.44336 z M 157.26562 493.5918 L 157.28125 493.61914 C 157.29815 493.61173 157.31514 493.60507 157.33203 493.59766 C 157.30987 493.59577 157.28778 493.59369 157.26562 493.5918 z M 157.33203 493.59766 C 215.71589 498.57355 277.70241 496.96438 343.0332 489.24414 L 368.20117 488.90234 L 361.63086 448.22266 C 348.19592 434.0365 335.17463 419.54614 334.26758 396.12891 C 332.84114 397.39945 331.42795 398.61892 330.01367 399.84766 C 330.01376 399.84829 330.01358 399.84897 330.01367 399.84961 C 332.61756 418.22858 342.16407 434.30595 355.93359 445.37305 L 354.5625 446.22461 L 363.60156 483.82422 C 313.83756 485.10775 264.40366 485.93603 215.78906 483.98047 C 257.14313 463.07604 294.56977 436.77061 326.48438 402.88672 C 263.24557 456.68466 211.88281 469.66457 157.33203 493.59766 z "
       transform="scale(0.26458333)"
       id="rect902-0-3" />
    <path
       style="fill:#000000;fill-opacity:0.39923957;fill-rule:evenodd;stroke-width:0.26458332"
       d="m 88.771653,316.62058 0.561675,-38.2872 c -1.667507,2.87801 -13.010418,7.47943 -28.860039,7.06184 -17.351691,-0.45716 -37.864106,3.80815 -52.1039397,7.74642 -21.0337833,5.81724 -23.3470193,2.21522 -42.3901593,-3.95972 17.753654,3.11788 27.2781993,2.72644 45.37651,-3.5543 11.273051,-3.91213 31.328272,-4.5084 49.34607,-8.46707 7.387478,-1.6231 15.135376,-6.93294 15.135376,-6.93294 l 13.979069,-51.24057 -1.483141,-74.52855 c -53.349153,-0.0941 -29.047403,7.689 -156.324425,-8.95692 l 18.856202,-43.488498 c 35.239513,33.298348 82.741134,44.186638 139.896134,37.432548 l 6.658756,-0.0904 -1.738392,-10.7628 c -3.554665,-3.75342 -6.999682,-7.58763 -7.239676,-13.78344 -17.692364,15.75876 -31.801511,19.20021 -46.827798,25.79433 l -12.9662,-22.196 c 18.294843,-1.11544 37.887677,3.46899 52.346948,-14.489614 l -53.660321,-105.879834 50.699752,-23.093299 83.288896,0.97299 -36.24081,128.032528 c 13.79139,21.538609 35.23525,15.843409 54.68522,17.244129 l -12.79069,23.67484 c -14.63111,-6.5147 -29.21774,-10.84981 -44.01738,-25.62209 -3.00765,4.37516 -5.01505,7.32293 -8.19968,9.57433 l 6.22844,-1.55666 -7.38934,6.35263 0.29084,5.47684 16.94306,3.72337 1.06747,2.4045 c 51.63281,9.9094 87.74379,3.88526 134.39055,-18.61466 l 12.50312,42.22081 c -51.14992,2.03188 -101.37042,2.73063 -156.02314,-8.89841 l 2.92328,75.23272 -0.60015,88.70488 5.19598,79.75828 -17.41327,3.91108 -4.1566,-112.05212 -4.25256,35.3097 -11.870196,102.06796 7.795346,42.18048 -9.390245,0.83585 L 78.851,432.33795 68.620225,438.38084 Z"
       id="rect877"
       inkscape:connector-curvature="0"
       sodipodi:nodetypes="ccsscsscccccccccccccccccccccccccccccccccccccccc" />
    <circle
       style="fill:#aadac7;fill-opacity:1;fill-rule:evenodd;stroke-width:0.26458344"
       id="path1521-2-3-7-2-7-7-5-3"
       cx="374.38541"
       cy="-309.84079"
       r="30.805059" />
    <circle
       style="fill:#aadac7;fill-opacity:1;fill-rule:evenodd;stroke-width:0.26458344"
       id="path1521-2-3-7-2-7-7-5-3-4"
       cx="-181.80653"
       cy="-343.66965"
       r="15.686011" />
    <circle
       style="fill:#aadac7;fill-opacity:1;fill-rule:evenodd;stroke-width:0.26458344"
       id="path1521-2-3-7-2-7-7-5-3-4-8-1-9"
       cx="65.20089"
       cy="-343.48068"
       r="15.308035" />
    <circle
       style="fill:#aadac7;fill-opacity:1;fill-rule:evenodd;stroke-width:0.26458344"
       id="path1521-2-3-7-2-7-7-5-3-4-8-1-9-9"
       cx="-38.931545"
       cy="-347.4494"
       r="31.938988" />
    <circle
       style="fill:#aadac7;fill-opacity:1;fill-rule:evenodd;stroke-width:0.26458344"
       id="path1521-2-3-7-2-7-7-5-3-4-8-1-9-9-9"
       cx="283.48215"
       cy="-354.25299"
       r="31.938988" />
    <circle
       style="fill:#aadac7;fill-opacity:1;fill-rule:evenodd;stroke-width:0.26458344"
       id="path1521-2-3-7-2-7-7-5-3-4-8-1-9-9-9-5"
       cx="4.7247066"
       cy="-421.72171"
       r="15.874999" />
    <circle
       style="fill:#aadac7;fill-opacity:1;fill-rule:evenodd;stroke-width:0.26458344"
       id="path1521-2-3-7-2-7-7-5-3-4-8-1-9-9-9-5-0"
       cx="343.76935"
       cy="-436.4628"
       r="7.7485108" />
    <circle
       style="fill:#aadac7;fill-opacity:1;fill-rule:evenodd;stroke-width:0.26458344"
       id="path1521-2-3-7-2-7-7-5-3-4-8-1-9-9-9-5-0-8"
       cx="-133.4256"
       cy="-402.63397"
       r="16.441963" />
    <circle
       style="fill:#aadac7;fill-opacity:1;fill-rule:evenodd;stroke-width:0.26458344"
       id="path1521-2-3-7-2-7-7-5-3-4-8-1-9-9-9-5-0-8-1"
       cx="-161.01787"
       cy="-463.11017"
       r="8.5044632" />
    <circle
       style="fill:#aadac7;fill-opacity:1;fill-rule:evenodd;stroke-width:0.26458344"
       id="path1521-2-3-7-2-7-7-5-3-4-8-1-9-9-9-5-0-8-1-8"
       cx="-2.2678542"
       cy="-540.21722"
       r="8.5044632" />
    <circle
       style="fill:#aadac7;fill-opacity:1;fill-rule:evenodd;stroke-width:0.26458344"
       id="path1521-2-3-7-2-7-7-5-3-4-8-1-9-9-9-5-0-8-1-8-1"
       cx="310.88541"
       cy="-533.22473"
       r="4.5357132" />
    <circle
       style="fill:#aadac7;fill-opacity:1;fill-rule:evenodd;stroke-width:0.26458344"
       id="path1521-2-3-7-2-7-7-5-3-4-8-1-9-9-9-5-0-8-1-8-1-0"
       cx="172.35713"
       cy="-600.31555"
       r="2.2678561" />
    <circle
       style="fill:#aadac7;fill-opacity:1;fill-rule:evenodd;stroke-width:0.26458344"
       id="path1521-2-3-7-2-7-7-5-3-4-8-1-9-9-9-5-0-8-1-8-1-0-0"
       cx="83.388084"
       cy="-686.05145"
       r="2.2678561" />
    <circle
       style="fill:#aadac7;fill-opacity:1;fill-rule:evenodd;stroke-width:0.26458344"
       id="path1521-2-3-7-2-7-7-5-3-4-8-1-9-9-9-5-0-8-1-8-1-0-9"
       cx="-111.71867"
       cy="-641.15021"
       r="2.2678561" />
    <circle
       style="fill:#aadac7;fill-opacity:1;fill-rule:evenodd;stroke-width:0.26458344"
       id="path1521-2-3-7-2-7-7-5-3-4-8-1-9-9-9-5-0-8-1-8-1-0-7"
       cx="309.49811"
       cy="-675.36072"
       r="2.2678561" />
    <circle
       style="fill:#aadac7;fill-opacity:1;fill-rule:evenodd;stroke-width:0.26458344"
       id="path1521-2-3-7-2-7-7-5-3-4-8-1-9-9-6"
       cx="168.64708"
       cy="-390.18417"
       r="40.224346" />
    <circle
       style="fill:#aadac7;fill-opacity:1;fill-rule:evenodd;stroke-width:0.26458344"
       id="path1521-2-3-7-2-7-7-5-3-4-8-1-9-9-9-5-0-8-1-8-3"
       cx="-94.494049"
       cy="-476.33929"
       r="8.5044632" />
    <circle
       style="fill:#aadac7;fill-opacity:1;fill-rule:evenodd;stroke-width:0.26458344"
       id="path1521-2-3-7-2-7-7-5-3-4-8-1-9-9-9-5-0-8-1-8-9"
       cx="244.92857"
       cy="-672.50891"
       r="8.5044632" />
    <circle
       style="fill:#aadac7;fill-opacity:1;fill-rule:evenodd;stroke-width:0.26458344"
       id="path1521-2-3-7-2-7-7-5-3-4-8-1-9-9-9-5-0-8-1-8-6"
       cx="178.40475"
       cy="-517.16071"
       r="8.5044632" />
    <circle
       style="fill:#aadac7;fill-opacity:1;fill-rule:evenodd;stroke-width:0.26458344"
       id="path1521-2-3-7-2-7-7-5-3-4-8-1-9-9-9-5-0-8-1-8-92"
       cx="7.9375014"
       cy="-640.75897"
       r="8.5044632" />
  </g>
</svg>
