<?xml version="1.0" encoding="UTF-8" standalone="no"?>
<!-- Created with Inkscape (http://www.inkscape.org/) -->

<svg width="380.59183mm" height="350.65768mm" viewBox="0 0 380.59183 350.65768" version="1.1" id="svg8" inkscape:version="1.3 (0e150ed6c4, 2023-07-21)" sodipodi:docname="СМН142.svg" xmlns:inkscape="http://www.inkscape.org/namespaces/inkscape" xmlns:sodipodi="http://sodipodi.sourceforge.net/DTD/sodipodi-0.dtd" xmlns="http://www.w3.org/2000/svg" xmlns:svg="http://www.w3.org/2000/svg" xmlns:rdf="http://www.w3.org/1999/02/22-rdf-syntax-ns#" xmlns:cc="http://creativecommons.org/ns#" xmlns:dc="http://purl.org/dc/elements/1.1/">
  <defs id="defs2" />
  <sodipodi:namedview id="base" pagecolor="#ffffff" bordercolor="#666666" borderopacity="1.0" inkscape:pageopacity="0.0" inkscape:pageshadow="2" inkscape:zoom="0.35" inkscape:cx="674.28571" inkscape:cy="951.42857" inkscape:document-units="mm" inkscape:current-layer="layer1" showgrid="false" showguides="false" inkscape:window-width="2467" inkscape:window-height="1413" inkscape:window-x="84" inkscape:window-y="-9" inkscape:window-maximized="1" inkscape:showpageshadow="2" inkscape:pagecheckerboard="0" inkscape:deskcolor="#d1d1d1" />
  <metadata id="metadata5">
    <rdf:RDF>
      <cc:Work rdf:about="">
        <dc:format>image/svg+xml</dc:format>
        <dc:type rdf:resource="http://purl.org/dc/dcmitype/StillImage" />
        <dc:title />
      </cc:Work>
    </rdf:RDF>
  </metadata>
  <g inkscape:label="Layer 1" inkscape:groupmode="layer" id="layer1" transform="translate(80.715385,11.429033)">
    <rect style="fill:#aaeeff;fill-opacity:1;fill-rule:evenodd;stroke-width:0.264583" id="rect933" width="380.59183" height="350.65768" x="-80.715385" y="-11.429033" rx="2.0243244" ry="4.2094941" inkscape:export-xdpi="96" inkscape:export-ydpi="96" />
    <rect style="fill:#55ddff;fill-opacity:1;fill-rule:evenodd;stroke-width:0.264583" id="rect666-7-8" width="86.595337" height="270.47678" x="-7.4938145" y="140.52046" rx="8.1715212" ry="10.356695" />
    <rect style="fill:#aaffee;fill-opacity:1;fill-rule:evenodd;stroke-width:0.264583" id="rect668-67-8" width="14.967093" height="51.31575" x="-1.2577001" y="149.45615" rx="6.8435197" ry="9.9736309" />
    <rect style="fill:#aaffee;fill-opacity:1;fill-rule:evenodd;stroke-width:0.264583" id="rect668-2-7-6-0" width="14.967093" height="51.31575" x="28.676474" y="149.45615" rx="6.8435197" ry="9.9736309" />
    <rect style="fill:#aaffee;fill-opacity:1;fill-rule:evenodd;stroke-width:0.264583" id="rect668-2-77-66-1" width="14.967093" height="51.31575" x="58.610649" y="149.45615" rx="6.8435197" ry="9.9736309" />
    <rect style="fill:#aaffee;fill-opacity:1;fill-rule:evenodd;stroke-width:0.264583" id="rect668-0-7-2" width="14.967093" height="51.31575" x="-1.2577001" y="214.66991" rx="6.8435197" ry="9.9736309" />
    <rect style="fill:#aaffee;fill-opacity:1;fill-rule:evenodd;stroke-width:0.264583" id="rect668-2-7-3-4-1" width="14.967093" height="51.31575" x="28.676474" y="214.66991" rx="6.8435197" ry="9.9736309" />
    <rect style="fill:#aaffee;fill-opacity:1;fill-rule:evenodd;stroke-width:0.264583" id="rect668-2-77-6-9-1" width="14.967093" height="51.31575" x="58.610649" y="214.66991" rx="6.8435197" ry="9.9736309" />
    <rect style="fill:#aaffee;fill-opacity:1;fill-rule:evenodd;stroke-width:0.264583" id="rect668-6-7-7" width="14.967093" height="51.31575" x="-1.2577001" y="286.29816" rx="6.8435197" ry="9.9736309" />
    <rect style="fill:#aaffee;fill-opacity:1;fill-rule:evenodd;stroke-width:0.264583" id="rect668-2-7-32-8-5" width="14.967093" height="51.31575" x="28.676474" y="286.29816" rx="6.8435197" ry="9.9736309" />
    <rect style="fill:#aaffee;fill-opacity:1;fill-rule:evenodd;stroke-width:0.264583" id="rect668-2-77-0-2-09" width="14.967093" height="51.31575" x="58.610649" y="286.29816" rx="6.8435197" ry="9.9736309" />
    <rect style="fill:#ffdd55;fill-opacity:1;fill-rule:evenodd;stroke-width:0.264583" id="rect666-7-7" width="86.595337" height="270.47678" x="98.483376" y="30.634611" rx="8.1715212" ry="10.356695" />
    <rect style="fill:#aaffee;fill-opacity:1;fill-rule:evenodd;stroke-width:0.264583" id="rect668-67-3" width="14.967093" height="51.31575" x="104.71949" y="39.570297" rx="6.8435197" ry="9.9736309" />
    <rect style="fill:#aaffee;fill-opacity:1;fill-rule:evenodd;stroke-width:0.264583" id="rect668-2-7-6-8" width="14.967093" height="51.31575" x="134.65367" y="39.570297" rx="6.8435197" ry="9.9736309" />
    <rect style="fill:#aaffee;fill-opacity:1;fill-rule:evenodd;stroke-width:0.264583" id="rect668-2-77-66-6" width="14.967093" height="51.31575" x="164.58784" y="39.570297" rx="6.8435197" ry="9.9736309" />
    <rect style="fill:#aaffee;fill-opacity:1;fill-rule:evenodd;stroke-width:0.264583" id="rect668-0-7-3" width="14.967093" height="51.31575" x="104.71949" y="104.78406" rx="6.8435197" ry="9.9736309" />
    <rect style="fill:#aaffee;fill-opacity:1;fill-rule:evenodd;stroke-width:0.264583" id="rect668-2-7-3-4-4" width="14.967093" height="51.31575" x="134.65367" y="104.78406" rx="6.8435197" ry="9.9736309" />
    <rect style="fill:#aaffee;fill-opacity:1;fill-rule:evenodd;stroke-width:0.264583" id="rect668-2-77-6-9-21" width="14.967093" height="51.31575" x="164.58784" y="104.78406" rx="6.8435197" ry="9.9736309" />
    <rect style="fill:#aaffee;fill-opacity:1;fill-rule:evenodd;stroke-width:0.264583" id="rect668-6-7-6" width="14.967093" height="51.31575" x="104.71949" y="176.41231" rx="6.8435197" ry="9.9736309" />
    <rect style="fill:#aaffee;fill-opacity:1;fill-rule:evenodd;stroke-width:0.264583" id="rect668-2-7-32-8-3" width="14.967093" height="51.31575" x="134.65367" y="176.41231" rx="6.8435197" ry="9.9736309" />
    <rect style="fill:#aaffee;fill-opacity:1;fill-rule:evenodd;stroke-width:0.264583" id="rect668-2-77-0-2-01" width="14.967093" height="51.31575" x="164.58784" y="176.41231" rx="6.8435197" ry="9.9736309" />
    <rect style="fill:#c6e9af;fill-opacity:1;fill-rule:evenodd;stroke-width:0.264583" id="rect666-7-2" width="86.595337" height="270.47678" x="193.69067" y="102.5741" rx="8.1715212" ry="10.356695" />
    <rect style="fill:#aaffee;fill-opacity:1;fill-rule:evenodd;stroke-width:0.264583" id="rect668-67-5" width="14.967093" height="51.31575" x="199.92679" y="111.50978" rx="6.8435197" ry="9.9736309" />
    <rect style="fill:#aaffee;fill-opacity:1;fill-rule:evenodd;stroke-width:0.264583" id="rect668-2-7-6-3" width="14.967093" height="51.31575" x="229.86096" y="111.50978" rx="6.8435197" ry="9.9736309" />
    <rect style="fill:#aaffee;fill-opacity:1;fill-rule:evenodd;stroke-width:0.264583" id="rect668-2-77-66-3" width="14.967093" height="51.31575" x="259.79514" y="111.50978" rx="6.8435197" ry="9.9736309" />
    <rect style="fill:#aaffee;fill-opacity:1;fill-rule:evenodd;stroke-width:0.264583" id="rect668-0-7-9" width="14.967093" height="51.31575" x="199.92679" y="176.72354" rx="6.8435197" ry="9.9736309" />
    <rect style="fill:#aaffee;fill-opacity:1;fill-rule:evenodd;stroke-width:0.264583" id="rect668-2-7-3-4-0" width="14.967093" height="51.31575" x="229.86096" y="176.72354" rx="6.8435197" ry="9.9736309" />
    <rect style="fill:#aaffee;fill-opacity:1;fill-rule:evenodd;stroke-width:0.264583" id="rect668-2-77-6-9-2" width="14.967093" height="51.31575" x="259.79514" y="176.72354" rx="6.8435197" ry="9.9736309" />
    <rect style="fill:#aaffee;fill-opacity:1;fill-rule:evenodd;stroke-width:0.264583" id="rect668-6-7-8" width="14.967093" height="51.31575" x="199.92679" y="248.35179" rx="6.8435197" ry="9.9736309" />
    <rect style="fill:#aaffee;fill-opacity:1;fill-rule:evenodd;stroke-width:0.264583" id="rect668-2-7-32-8-4" width="14.967093" height="51.31575" x="229.86096" y="248.35179" rx="6.8435197" ry="9.9736309" />
    <rect style="fill:#aaffee;fill-opacity:1;fill-rule:evenodd;stroke-width:0.264583" id="rect668-2-77-0-2-0" width="14.967093" height="51.31575" x="259.79514" y="248.35179" rx="6.8435197" ry="9.9736309" />
    <rect style="fill:#ff5555;fill-opacity:1;fill-rule:evenodd;stroke-width:0.264583" id="rect666" width="86.595337" height="270.47678" x="-69.375397" y="44.256287" rx="8.1715212" ry="10.356693" />
    <rect style="fill:#aaffee;fill-opacity:1;fill-rule:evenodd;stroke-width:0.264583" id="rect668" width="14.967093" height="51.31575" x="-63.139282" y="53.191975" rx="6.8435187" ry="9.9736309" />
    <rect style="fill:#aaffee;fill-opacity:1;fill-rule:evenodd;stroke-width:0.264583" id="rect668-2-7" width="14.967093" height="51.31575" x="-33.205109" y="53.191975" rx="6.8435197" ry="9.9736309" />
    <rect style="fill:#aaffee;fill-opacity:1;fill-rule:evenodd;stroke-width:0.264583" id="rect668-2-77" width="14.967093" height="51.31575" x="-3.2709353" y="53.191975" rx="6.8435197" ry="9.9736309" />
    <rect style="fill:#aaffee;fill-opacity:1;fill-rule:evenodd;stroke-width:0.264583" id="rect668-0" width="14.967093" height="51.31575" x="-63.139282" y="118.40574" rx="6.8435192" ry="9.9736309" />
    <rect style="fill:#aaffee;fill-opacity:1;fill-rule:evenodd;stroke-width:0.264583" id="rect668-2-7-3" width="14.967093" height="51.31575" x="-33.205109" y="118.40574" rx="6.8435197" ry="9.9736309" />
    <rect style="fill:#aaffee;fill-opacity:1;fill-rule:evenodd;stroke-width:0.264583" id="rect668-2-77-6" width="14.967093" height="51.31575" x="-3.2709353" y="118.40574" rx="6.8435197" ry="9.9736309" />
    <rect style="fill:#aaffee;fill-opacity:1;fill-rule:evenodd;stroke-width:0.264583" id="rect668-6" width="14.967093" height="51.31575" x="-63.139282" y="190.03398" rx="6.8435192" ry="9.9736309" />
    <rect style="fill:#aaffee;fill-opacity:1;fill-rule:evenodd;stroke-width:0.264583" id="rect668-2-7-32" width="14.967093" height="51.31575" x="-33.205109" y="190.03398" rx="6.8435197" ry="9.9736309" />
    <rect style="fill:#aaffee;fill-opacity:1;fill-rule:evenodd;stroke-width:0.264583" id="rect668-2-77-0" width="14.967093" height="51.31575" x="-3.2709353" y="190.03398" rx="6.8435197" ry="9.9736309" />
    <rect style="fill:#999999;fill-opacity:1;fill-rule:evenodd;stroke-width:0.264583" id="rect664" width="380.59183" height="53.453903" x="-80.715393" y="285.77472" rx="2.0243244" ry="4.2094941" />
    <ellipse style="fill:#666666;fill-rule:evenodd;stroke-width:0.264583" id="path970" cx="90.060471" cy="304.92282" rx="110.66018" ry="18.724508" />
    <rect style="fill:#6f7c91;fill-opacity:1;fill-rule:evenodd;stroke-width:0.264583" id="rect463-2" width="17.63979" height="87.263504" x="152.44864" y="100.53533" rx="6.1820607" ry="8.745203" transform="rotate(38.697585)" />
    <rect style="fill:#535d6c;fill-opacity:1;fill-rule:evenodd;stroke-width:0.264583" id="rect463-8-3" width="14.332498" height="70.902435" x="155.75592" y="116.8964" rx="6.1820607" ry="8.745203" transform="rotate(38.697585)" />
    <rect style="fill:#6f7c91;fill-opacity:1;fill-rule:evenodd;stroke-width:0.264583" id="rect463-5-3" width="17.639788" height="87.263504" x="-48.796677" y="238.58092" rx="6.1820607" ry="8.745203" transform="matrix(-0.8710177,0.49125163,0.49125163,0.8710177,0,0)" />
    <rect style="fill:#535d6c;fill-opacity:1;fill-rule:evenodd;stroke-width:0.264583" id="rect463-8-4-5" width="14.332498" height="70.902428" x="-45.48938" y="254.94199" rx="6.1820607" ry="8.745203" transform="matrix(-0.8710177,0.49125163,0.49125163,0.8710177,0,0)" />
    <rect style="fill:#6f7c91;fill-opacity:1;fill-rule:evenodd;stroke-width:0.264583" id="rect463-5" width="17.63979" height="87.263504" x="150.39383" y="112.8371" rx="6.1820607" ry="8.745203" transform="matrix(-0.2207369,0.97533339,0.97533339,0.2207369,0,0)" />
    <rect style="fill:#535d6c;fill-opacity:1;fill-rule:evenodd;stroke-width:0.264583" id="rect463-8-4" width="14.332498" height="70.902435" x="153.70113" y="129.19817" rx="6.1820607" ry="8.745203" transform="matrix(-0.2207369,0.97533339,0.97533339,0.2207369,0,0)" />
    <rect style="fill:#6f7c91;fill-opacity:1;fill-rule:evenodd;stroke-width:0.264583" id="rect503-3" width="39.689526" height="11.759859" x="45.652245" y="291.58301" rx="2.0243244" ry="4.2094941" transform="rotate(4.1467193)" />
    <rect style="fill:#535d6c;fill-opacity:1;fill-rule:evenodd;stroke-width:0.264583" id="rect503" width="39.689526" height="11.759859" x="-47.946133" y="303.70331" rx="2.0243244" ry="4.2094941" transform="rotate(-13.724488)" />
    <rect style="fill:#6f7c91;fill-opacity:1;fill-rule:evenodd;stroke-width:0.264583" id="rect463" width="17.63979" height="87.263504" x="-182.2356" y="158.27374" rx="6.1820607" ry="8.7452021" transform="rotate(-48.24884)" />
    <rect style="fill:#535d6c;fill-opacity:1;fill-rule:evenodd;stroke-width:0.264583" id="rect463-8" width="14.332498" height="70.902435" x="-178.92831" y="174.63481" rx="6.1820607" ry="8.745203" transform="rotate(-48.24884)" />
    <g id="g219" transform="rotate(-8.9168746,54.909618,235.35597)">
      <rect ry="4.6302085" rx="4.6302085" y="79.14949" x="18.479586" height="124.46448" width="124.46448" id="rect124" style="fill:#6f7c91;fill-opacity:1;fill-rule:evenodd;stroke-width:0.264583" />
      <path inkscape:connector-curvature="0" id="rect124-9" d="M 40.317263,79.115638 142.82626,152.08533 V 139.61891 L 57.829893,79.115638 Z m 35.02629,0 67.482707,48.036852 V 114.68607 L 92.856183,79.115638 Z m 35.026807,0 32.4559,23.103492 V 89.752713 L 127.8835,79.115638 Z m -87.554867,0.0088 c -2.48208,0.09283 -4.45399,2.115841 -4.45399,4.621424 v 4.67465 L 142.82626,177.0187 v -12.46643 z m -4.45399,21.762472 v 12.46694 l 123.739737,88.08196 c 0.45672,-0.7179 0.72502,-1.56872 0.72502,-2.48615 v -9.46454 z m 0,24.93336 v 12.46642 l 91.725157,65.29318 h 17.51366 z m 0,24.93285 v 12.46694 l 56.69835,40.35981 h 17.51366 z m 0,24.93336 v 12.46642 l 21.67206,15.42697 h 17.51314 z m 0.45217,25.25479 c 0.67283,1.41484 2.03742,2.43096 3.66489,2.60914 z" style="fill:#535d6c;fill-opacity:1;fill-rule:evenodd;stroke-width:0.264583" />
    </g>
    <rect style="fill:#374548;fill-opacity:1;fill-rule:evenodd;stroke-width:0.264583" id="rect246" width="40.795776" height="11.013066" x="70.850357" y="96.897003" rx="5.2371202" ry="5.5065331" transform="rotate(-8.9168746)" />
    <circle style="fill:#374548;fill-rule:evenodd;stroke-width:0.264583" id="path221" cx="-17.947001" cy="104.92902" r="49.02758" transform="rotate(-8.9168746)" />
    <text xml:space="preserve" style="font-style:normal;font-variant:normal;font-weight:normal;font-stretch:normal;font-size:9.53318px;line-height:1.25;font-family:Yandex-UI-Icons-Private;-inkscape-font-specification:Yandex-UI-Icons-Private;letter-spacing:0px;word-spacing:0px;fill:#dbe3e2;fill-opacity:1;stroke:none;stroke-width:0.264583" x="80.75061" y="95.738098" id="text244" transform="matrix(0.88988659,-0.13962104,0.17207591,1.0967404,0,0)"><tspan sodipodi:role="line" id="tspan242" x="80.75061" y="95.738098" style="font-style:normal;font-variant:normal;font-weight:normal;font-stretch:normal;font-family:Yandex-UI-Icons-Private;-inkscape-font-specification:Yandex-UI-Icons-Private;fill:#dbe3e2;stroke-width:0.264583">SIMN142</tspan></text>
    <circle style="fill:#374548;fill-rule:evenodd;stroke-width:0.264583" id="path221-1" cx="-19.237059" cy="184.80075" r="24.839687" transform="rotate(-8.9168746)" />
    <rect style="fill:#374548;fill-opacity:1;fill-rule:evenodd;stroke-width:0.264583" id="rect284" width="84.099701" height="28.726189" x="50.546356" y="139.75887" rx="13.741587" ry="14.363094" transform="rotate(-8.9168746)" />
    <circle style="fill:#dbe3e2;fill-rule:evenodd;stroke-width:0.264583" id="path286" cx="-7.0005164" cy="111.31616" r="31.466518" transform="rotate(-8.9168746)" />
    <circle style="fill:#93ac9d;fill-rule:evenodd;stroke-width:0.264583" id="path288" cx="-1.8948499" cy="115.54214" r="22.38026" transform="rotate(-8.9168746)" />
    <circle style="fill:#dbe3e2;fill-rule:evenodd;stroke-width:0.264583" id="path286-1" cx="18.569773" cy="-181.40453" r="17.575893" transform="rotate(172.56459)" />
    <circle style="fill:#93ac9d;fill-rule:evenodd;stroke-width:0.264583" id="path288-0" cx="14.954164" cy="-183.49976" r="12.500688" transform="rotate(172.56459)" />
    <rect style="fill:#dbe3e2;fill-opacity:1;fill-rule:evenodd;stroke-width:0.264583" id="rect284-8" width="70.797768" height="24.18261" x="57.197327" y="142.03065" rx="12.89114" ry="14.363096" transform="rotate(-8.9168746)" />
    <rect style="fill:#93ac9d;fill-opacity:1;fill-rule:evenodd;stroke-width:0.264583" id="rect323" width="2.8209252" height="24.210218" x="73.622322" y="142.02081" rx="0" ry="0" transform="rotate(-8.9168746)" />
    <rect style="fill:#93ac9d;fill-opacity:1;fill-rule:evenodd;stroke-width:0.264583" id="rect323-5" width="2.8209252" height="24.210218" x="67.980492" y="142.02081" rx="0" ry="0" transform="rotate(-8.9168746)" />
    <rect style="fill:#93ac9d;fill-opacity:1;fill-rule:evenodd;stroke-width:0.264583" id="rect323-6" width="2.8209252" height="24.210218" x="107.47345" y="142.02081" rx="0" ry="0" transform="rotate(-8.9168746)" />
    <rect style="fill:#93ac9d;fill-opacity:1;fill-rule:evenodd;stroke-width:0.264583" id="rect323-1" width="2.8209252" height="24.210218" x="79.264191" y="142.02081" rx="0" ry="0" transform="rotate(-8.9168746)" />
    <rect style="fill:#93ac9d;fill-opacity:1;fill-rule:evenodd;stroke-width:0.264583" id="rect323-7" width="2.8209252" height="24.210218" x="84.906029" y="142.02081" rx="0" ry="0" transform="rotate(-8.9168746)" />
    <rect style="fill:#93ac9d;fill-opacity:1;fill-rule:evenodd;stroke-width:0.264583" id="rect323-3" width="2.8209252" height="24.210218" x="90.54789" y="142.02081" rx="0" ry="0" transform="rotate(-8.9168746)" />
    <rect style="fill:#93ac9d;fill-opacity:1;fill-rule:evenodd;stroke-width:0.264583" id="rect323-4" width="2.8209252" height="24.210218" x="96.189743" y="142.02081" rx="0" ry="0" transform="rotate(-8.9168746)" />
    <rect style="fill:#93ac9d;fill-opacity:1;fill-rule:evenodd;stroke-width:0.264583" id="rect323-2" width="2.8209252" height="24.210218" x="101.83159" y="142.02081" rx="0" ry="0" transform="rotate(-8.9168746)" />
    <rect style="fill:#93ac9d;fill-opacity:1;fill-rule:evenodd;stroke-width:0.264583" id="rect323-41" width="2.8209252" height="24.210218" x="113.1153" y="142.02081" rx="0" ry="0" transform="rotate(-8.9168746)" />
    <rect style="fill:#374548;fill-opacity:1;fill-rule:evenodd;stroke-width:0.264583" id="rect284-2" width="41.878269" height="14.304487" x="80.595474" y="175.09964" rx="8.1664438" ry="14.363095" transform="rotate(-8.9168746)" />
    <rect style="fill:#dbe3e2;fill-opacity:1;fill-rule:evenodd;stroke-width:0.264583" id="rect284-8-3" width="27.894365" height="9.5279627" x="93.06868" y="177.47006" rx="5.142632" ry="14.363097" transform="rotate(-8.9168746)" />
    <circle style="fill:#374548;fill-rule:evenodd;stroke-width:0.264583" id="path221-1-5" cx="62.198322" cy="296.83536" r="12.077567" />
    <circle style="fill:#dbe3e2;fill-rule:evenodd;stroke-width:0.264583" id="path286-1-9" cx="-69.72464" cy="-292.64932" r="8.5457611" transform="rotate(-178.51854)" />
    <circle style="fill:#93ac9d;fill-rule:evenodd;stroke-width:0.264583" id="path288-0-3" cx="-69.607208" cy="-290.59723" r="6.0780916" transform="rotate(-178.51854)" />
    <circle style="fill:#374548;fill-rule:evenodd;stroke-width:0.264583" id="path221-1-5-4" cx="156.48631" cy="198.24393" r="12.077567" />
    <circle style="fill:#dbe3e2;fill-rule:evenodd;stroke-width:0.264583" id="path286-1-9-3" cx="-163.51547" cy="-194.67393" r="8.5457611" transform="rotate(-178.51854)" />
    <circle style="fill:#93ac9d;fill-rule:evenodd;stroke-width:0.264583" id="path288-0-3-2" cx="-165.96043" cy="-193.49132" r="6.0780916" transform="rotate(-178.51854)" />
    <circle style="fill:#374548;fill-rule:evenodd;stroke-width:0.264583" id="path221-1-5-4-1" cx="10.423515" cy="242.20973" r="12.077567" />
    <circle style="fill:#dbe3e2;fill-rule:evenodd;stroke-width:0.264583" id="path286-1-9-3-8" cx="-18.638163" cy="-242.40129" r="8.5457611" transform="rotate(-178.51854)" />
    <circle style="fill:#93ac9d;fill-rule:evenodd;stroke-width:0.264583" id="path288-0-3-2-6" cx="-16.849701" cy="-242.93233" r="6.0780916" transform="rotate(-178.51854)" />
    <rect style="fill:#6f7c91;fill-opacity:1;fill-rule:evenodd;stroke-width:0.264583" id="rect503-3-5" width="39.689526" height="11.759859" x="-53.781139" y="322.33932" rx="2.0243244" ry="4.2094941" transform="matrix(-0.83252489,0.55398765,0.55398765,0.83252489,0,0)" />
    <rect style="fill:#535d6c;fill-opacity:1;fill-rule:evenodd;stroke-width:0.264583" id="rect503-2" width="39.689526" height="11.759859" x="-359.01715" y="43.763428" rx="2.0243244" ry="4.2094941" transform="matrix(-0.70266792,-0.71151795,-0.71151795,0.70266792,0,0)" />
    <circle style="fill:#374548;fill-rule:evenodd;stroke-width:0.264583" id="path221-1-5-2" cx="-192.83566" cy="261.69208" r="12.077567" transform="scale(-1,1)" />
    <circle style="fill:#dbe3e2;fill-rule:evenodd;stroke-width:0.264583" id="path286-1-9-9" cx="185.37892" cy="-264.82703" r="8.5457611" transform="matrix(0.99966574,-0.02585347,-0.02585347,-0.99966574,0,0)" />
    <circle style="fill:#93ac9d;fill-rule:evenodd;stroke-width:0.264583" id="path288-0-3-1" cx="186.47037" cy="-265.17294" r="5.1092396" transform="matrix(0.99966574,-0.02585347,-0.02585347,-0.99966574,0,0)" />
    <rect style="fill:#ff5555;fill-opacity:1;fill-rule:evenodd;stroke-width:0.264583" id="rect643" width="45.829609" height="17.953869" x="181.52306" y="293.31473" rx="2.0243244" ry="4.2094941" />
    <rect style="fill:#ff5555;fill-opacity:1;fill-rule:evenodd;stroke-width:0.264583" id="rect645" width="73.610863" height="10.488839" x="167.82143" y="307.77234" rx="2.0243244" ry="4.2094941" />
    <circle style="fill:#374548;fill-opacity:1;fill-rule:evenodd;stroke-width:0.264583" id="path647" cx="182.89323" cy="321.23773" r="9.9691219" />
    <circle style="fill:#374548;fill-opacity:1;fill-rule:evenodd;stroke-width:0.264583" id="path647-4" cx="223.19495" cy="321.47394" r="9.9691219" />
    <rect style="fill:#55ddff;fill-opacity:1;fill-rule:evenodd;stroke-width:0.264583" id="rect666-7" width="86.595337" height="270.47678" x="-310.03265" y="-7.1527286" rx="8.1715212" ry="10.356694" />
    <rect style="fill:#aaffee;fill-opacity:1;fill-rule:evenodd;stroke-width:0.264583" id="rect668-67" width="14.967093" height="51.31575" x="-303.79654" y="1.7829556" rx="6.8435192" ry="9.9736309" />
    <rect style="fill:#aaffee;fill-opacity:1;fill-rule:evenodd;stroke-width:0.264583" id="rect668-2-7-6" width="14.967093" height="51.31575" x="-273.86237" y="1.7829556" rx="6.8435197" ry="9.9736309" />
    <rect style="fill:#aaffee;fill-opacity:1;fill-rule:evenodd;stroke-width:0.264583" id="rect668-2-77-66" width="14.967093" height="51.31575" x="-243.92819" y="1.7829556" rx="6.8435197" ry="9.9736309" />
    <rect style="fill:#aaffee;fill-opacity:1;fill-rule:evenodd;stroke-width:0.264583" id="rect668-0-7" width="14.967093" height="51.31575" x="-303.79654" y="66.996719" rx="6.8435197" ry="9.9736309" />
    <rect style="fill:#aaffee;fill-opacity:1;fill-rule:evenodd;stroke-width:0.264583" id="rect668-2-7-3-4" width="14.967093" height="51.31575" x="-273.86237" y="66.996719" rx="6.8435197" ry="9.9736309" />
    <rect style="fill:#aaffee;fill-opacity:1;fill-rule:evenodd;stroke-width:0.264583" id="rect668-2-77-6-9" width="14.967093" height="51.31575" x="-243.92819" y="66.996719" rx="6.8435197" ry="9.9736309" />
    <rect style="fill:#aaffee;fill-opacity:1;fill-rule:evenodd;stroke-width:0.264583" id="rect668-6-7" width="14.967093" height="51.31575" x="-303.79654" y="138.62497" rx="6.8435197" ry="9.9736309" />
    <rect style="fill:#aaffee;fill-opacity:1;fill-rule:evenodd;stroke-width:0.264583" id="rect668-2-7-32-8" width="14.967093" height="51.31575" x="-273.86237" y="138.62497" rx="6.8435197" ry="9.9736309" />
    <rect style="fill:#aaffee;fill-opacity:1;fill-rule:evenodd;stroke-width:0.264583" id="rect668-2-77-0-2" width="14.967093" height="51.31575" x="-243.92819" y="138.62497" rx="6.8435197" ry="9.9736309" />
    <rect style="fill:#ffffff;fill-opacity:1;fill-rule:evenodd;stroke-width:0.264583" id="rect935" width="144.05827" height="24.856066" x="-78.844505" y="4.6071367" rx="14.85326" ry="12.428033" />
    <rect style="fill:#ffffff;fill-opacity:1;fill-rule:evenodd;stroke-width:0.264583" id="rect935-5" width="144.05827" height="24.856066" x="-8.6862593" y="-9.1572437" rx="14.85326" ry="12.428033" />
    <rect style="fill:#ffffff;fill-opacity:1;fill-rule:evenodd;stroke-width:0.264583" id="rect935-3" width="144.05827" height="24.856066" x="174.39337" y="24.785986" rx="14.85326" ry="12.428033" />
    <rect style="fill:#ffffff;fill-opacity:1;fill-rule:evenodd;stroke-width:0.264583" id="rect935-9" width="144.05827" height="24.856066" x="-126.83833" y="44.256287" rx="14.85326" ry="12.428033" />
    <rect style="fill:#ffffff;fill-opacity:1;fill-rule:evenodd;stroke-width:0.264583" id="rect935-37" width="144.05827" height="24.856066" x="207.53479" y="-17.977137" rx="14.85326" ry="12.428033" />
    <rect style="fill:#447821;fill-opacity:1;fill-rule:evenodd;stroke-width:0.264583" id="rect643-3" width="32.769054" height="12.837362" x="257.04016" y="267.93753" rx="2.0243244" ry="4.2094941" />
    <rect style="fill:#447821;fill-opacity:1;fill-rule:evenodd;stroke-width:0.264583" id="rect645-0" width="52.633183" height="7.499722" x="247.24324" y="278.27499" rx="2.0243244" ry="4.2094941" />
    <circle style="fill:#374548;fill-opacity:1;fill-rule:evenodd;stroke-width:0.264583" id="path647-9" cx="258.01987" cy="287.90302" r="7.1281142" />
    <circle style="fill:#374548;fill-opacity:1;fill-rule:evenodd;stroke-width:0.264583" id="path647-4-0" cx="286.83636" cy="288.0719" r="7.1281142" />
    <rect style="fill:#ffcc00;fill-opacity:1;fill-rule:evenodd;stroke-width:0.264583" id="rect643-5" width="45.829613" height="17.953869" x="-55.673767" y="300.27545" rx="2.0243244" ry="4.2094941" />
    <rect style="fill:#ffcc00;fill-opacity:1;fill-rule:evenodd;stroke-width:0.264583" id="rect645-2" width="73.610863" height="10.488839" x="-69.375397" y="314.73306" rx="2.0243244" ry="4.2094941" />
    <circle style="fill:#374548;fill-opacity:1;fill-rule:evenodd;stroke-width:0.264583" id="path647-45" cx="-54.303589" cy="328.19846" r="9.9691219" />
    <circle style="fill:#374548;fill-opacity:1;fill-rule:evenodd;stroke-width:0.264583" id="path647-4-1" cx="-14.001892" cy="328.43466" r="9.9691219" />
  </g>
</svg>
