<?xml version="1.0" encoding="UTF-8" standalone="no"?>
<!-- Created with Inkscape (http://www.inkscape.org/) -->

<svg width="252.28894mm" height="379.4881mm" viewBox="0 0 252.28894 379.4881" version="1.1" id="svg8" inkscape:version="1.3 (0e150ed6c4, 2023-07-21)" sodipodi:docname="simon.svg" xmlns:inkscape="http://www.inkscape.org/namespaces/inkscape" xmlns:sodipodi="http://sodipodi.sourceforge.net/DTD/sodipodi-0.dtd" xmlns="http://www.w3.org/2000/svg" xmlns:svg="http://www.w3.org/2000/svg" xmlns:rdf="http://www.w3.org/1999/02/22-rdf-syntax-ns#" xmlns:cc="http://creativecommons.org/ns#" xmlns:dc="http://purl.org/dc/elements/1.1/">
  <defs id="defs2">
    <inkscape:path-effect effect="bend_path" id="path-effect980" is_visible="true" bendpath="m 97.234367,167.11568 c 0,0 8.131543,12.28439 21.733083,12.34261 14.02581,0.06 19.8443,-12.34261 19.8443,-12.34261" prop_scale="2.4233099" scale_y_rel="false" vertical="false" bendpath-nodetypes="csc" lpeversion="0" hide_knot="false" />
    <inkscape:path-effect effect="bend_path" id="path-effect980-0" is_visible="true" bendpath="m 97.234367,167.11568 c 0,0 8.131543,12.28439 21.733083,12.34261 14.02581,0.06 19.8443,-12.34261 19.8443,-12.34261" prop_scale="2.4233099" scale_y_rel="false" vertical="false" bendpath-nodetypes="csc" lpeversion="0" hide_knot="false" />
    <inkscape:path-effect effect="bend_path" id="path-effect980-3" is_visible="true" bendpath="m 97.234367,167.11568 c 0,0 8.131543,12.28439 21.733083,12.34261 14.02581,0.06 19.8443,-12.34261 19.8443,-12.34261" prop_scale="2.4233099" scale_y_rel="false" vertical="false" bendpath-nodetypes="csc" lpeversion="0" hide_knot="false" />
    <inkscape:path-effect effect="bend_path" id="path-effect980-1" is_visible="true" bendpath="m 97.234367,167.11568 c 0,0 8.131543,12.28439 21.733083,12.34261 14.02581,0.06 19.8443,-12.34261 19.8443,-12.34261" prop_scale="2.4233099" scale_y_rel="false" vertical="false" bendpath-nodetypes="csc" lpeversion="0" hide_knot="false" />
  </defs>
  <sodipodi:namedview id="base" pagecolor="#ffffff" bordercolor="#666666" borderopacity="1.0" inkscape:pageopacity="0.0" inkscape:pageshadow="2" inkscape:zoom="0.35" inkscape:cx="337.14286" inkscape:cy="605.71429" inkscape:document-units="mm" inkscape:current-layer="layer1" showgrid="false" showguides="false" inkscape:window-width="2467" inkscape:window-height="1413" inkscape:window-x="84" inkscape:window-y="-9" inkscape:window-maximized="1" inkscape:showpageshadow="2" inkscape:pagecheckerboard="0" inkscape:deskcolor="#d1d1d1" />
  <metadata id="metadata5">
    <rdf:RDF>
      <cc:Work rdf:about="">
        <dc:format>image/svg+xml</dc:format>
        <dc:type rdf:resource="http://purl.org/dc/dcmitype/StillImage" />
        <dc:title />
      </cc:Work>
    </rdf:RDF>
  </metadata>
  <g inkscape:label="Layer 1" inkscape:groupmode="layer" id="layer1" transform="translate(37.797615,25.791666)">
    <rect style="fill:#6f8a91;fill-rule:evenodd;stroke-width:0.264583" id="rect1700" width="252.28894" height="379.4881" x="-37.797615" y="-25.791666" inkscape:export-xdpi="96" inkscape:export-ydpi="96" />
    <path style="fill:#93a7ac;fill-opacity:1;fill-rule:evenodd;stroke-width:0.264583" d="m 50.057409,-3.1822347 c -8.166555,0 -14.740702,6.5746653 -14.740702,14.7412187 v 40.000142 c 0,8.166555 6.574147,14.740702 14.740702,14.740702 h 19.86907 V 82.248726 H 58.06157 a 2.8466333,2.8466333 0 0 0 -0.304374,-0.01705 2.8466333,2.8466333 0 0 0 -0.285771,0.01705 h -0.04186 c -0.190341,0 -0.368787,0.04422 -0.530717,0.118337 a 2.8466333,2.8466333 0 0 0 -1.185974,0.733806 c -0.02259,0.02312 -0.04514,0.04573 -0.06615,0.0708 a 2.8466333,2.8466333 0 0 0 -0.556037,0.919323 L 30.292199,127.04289 c -0.353359,0.61204 -0.144883,1.38968 0.467156,1.74305 l 4.742863,2.73833 -26.0609411,45.13833 c -6.8322495,0.36386 -12.2240595,5.9832 -12.2240595,12.90929 0,7.16275 5.766169,12.92944 12.9289256,12.92944 7.162756,0 12.929443,-5.76669 12.929443,-12.92944 0,-2.04169 -0.470038,-3.96876 -1.305862,-5.68234 l 26.107966,-45.2205 2.545064,1.46968 c 0.61204,0.35336 1.389168,0.14488 1.74253,-0.46715 l 3.988903,-6.90914 v 36.5435 c 0,0.70672 0.568653,1.27538 1.275374,1.27538 h 1.682586 v 144.43665 c 0,1.44108 0.572561,2.74193 1.500682,3.69435 l -10.835513,6.94274 h 26.154991 l -0.09767,-9.62112 c 0.06345,-0.32875 0.09767,-0.66815 0.09767,-1.01597 V 184.82851 h 2.740401 v 130.18946 c 0,0.348 0.03415,0.6876 0.09767,1.01647 l -0.09767,9.62062 h 26.154482 l -10.834997,-6.94274 c 0.928124,-0.95242 1.500169,-2.25327 1.500169,-3.69435 V 170.58132 h 1.481045 c 0.70672,0 1.275892,-0.56866 1.275892,-1.27538 v -36.54247 l 3.988391,6.90811 c 0.35336,0.61203 1.13049,0.82051 1.74252,0.46715 l 2.54507,-1.46916 26.10796,45.21998 c -0.83581,1.71357 -1.30586,3.64066 -1.30586,5.68234 0,7.16275 5.76669,12.92944 12.92944,12.92944 7.16276,0 12.92893,-5.76669 12.92893,-12.92944 0,-6.92609 -5.39181,-12.54543 -12.22406,-12.90929 l -26.06043,-45.13833 4.74287,-2.73833 c 0.61204,-0.35337 0.82,-1.13101 0.46664,-1.74305 L 99.306082,84.079621 a 2.8466333,2.8466333 0 0 0 -0.487826,-0.821655 c -0.08521,-0.120621 -0.185237,-0.22437 -0.300241,-0.305925 a 2.8466333,2.8466333 0 0 0 -0.931209,-0.540536 c -0.182517,-0.10048 -0.389522,-0.162779 -0.613399,-0.162779 H 84.877506 V 66.299828 h 18.542014 c 8.16656,0 14.7407,-6.574147 14.7407,-14.740702 V 11.558984 c 0,-8.1665534 -6.57414,-14.7412187 -14.7407,-14.7412187 z" id="rect1053-5-3-4-41" inkscape:connector-curvature="0" />
    <rect style="fill:#808080;fill-opacity:1;fill-rule:evenodd;stroke-width:0.264583" id="rect1053-5-3-4" width="14.290032" height="67.087677" x="-50.95734" y="176.6183" rx="1.2756701" ry="1.2756701" transform="matrix(-0.86602541,0.5,0.5,0.86602541,0,0)" />
    <path style="fill:#1a1a1a;fill-opacity:1;fill-rule:evenodd;stroke-width:0.264583" inkscape:transform-center-x="2.5724627" inkscape:transform-center-y="-4.2350446" d="M 91.807232,325.65492 H 65.652456 l 17.654366,-11.31177 h 8.38559 z" id="path1376" inkscape:connector-curvature="0" sodipodi:nodetypes="ccccc" />
    <path style="fill:#1a1a1a;fill-opacity:1;fill-rule:evenodd;stroke-width:0.264583" inkscape:transform-center-x="-2.5724627" inkscape:transform-center-y="-4.2350446" d="M 94.547562,325.65492 H 120.70233 L 103.04796,314.34315 H 94.662382 Z" id="path1376-9" inkscape:connector-curvature="0" sodipodi:nodetypes="ccccc" />
    <rect style="fill:#502d16;fill-rule:evenodd;stroke-width:0.264583" id="rect1108" width="33.261906" height="23.245535" x="77.210938" y="161.58281" rx="5.2916665" ry="5.2916665" />
    <rect style="fill:#502d16;fill-rule:evenodd;stroke-width:0.264583" id="rect1091-7" width="16.819941" height="176.3259" x="94.547562" y="143.98363" rx="5.2916665" ry="5.2916665" />
    <rect style="fill:#502d16;fill-rule:evenodd;stroke-width:0.264583" id="rect1091" width="16.819941" height="176.3259" x="74.987289" y="143.98363" rx="5.2916665" ry="5.2916665" />
    <rect style="fill:#4d4d4d;fill-rule:evenodd;stroke-width:0.264583" id="rect1051" width="14.951358" height="30.468725" x="85.801392" y="55.521976" rx="1.2756701" ry="1.2756701" />
    <rect style="fill:#666666;fill-rule:evenodd;stroke-width:0.264583" id="rect815-3" width="82.843941" height="69.48201" x="51.191502" y="-3.1820121" rx="14.741072" ry="14.741072" />
    <rect style="fill:#808080;fill-rule:evenodd;stroke-width:0.264583" id="rect815" width="76.162201" height="63.877975" x="54.532368" y="-0.37999484" rx="14.741072" ry="14.741072" />
    <path style="fill:#666666;fill-rule:evenodd;stroke-width:0.264583" d="m 69.273582,-0.37988775 c -0.935937,0 -1.849649,0.0900748 -2.736265,0.25528058 L 126.11301,59.451084 c 1.48162,-1.407551 2.66978,-3.119599 3.46387,-5.040519 L 74.786424,-0.37988775 Z m 14.017749,0 L 130.69464,47.023936 V 38.519029 L 91.795722,-0.37988775 Z m 17.008779,0 30.39453,30.39452575 V 21.510247 L 108.8045,-0.37988775 Z m 17.07803,0.0692441 L 130.62539,12.93661 C 129.95755,5.9124833 124.40226,0.35722289 117.37814,-0.31064365 Z M 60.59246,2.434927 C 58.956536,3.6253853 57.578226,5.1445037 56.550846,6.8977016 L 113.15101,63.497865 h 2.80241 c 1.7118,0 3.35224,-0.291886 4.87826,-0.823722 z m -6.027023,10.981759 c -0.0196,0.312491 -0.03307,0.626525 -0.03307,0.944128 v 7.527187 l 41.609861,41.609864 h 8.504392 z m -0.03307,16.975706 v 8.504907 l 24.601082,24.600566 h 8.503873 z m 0,17.009297 v 1.354958 c 0,8.166552 6.574666,14.741218 14.741218,14.741218 h 1.354958 z" id="rect817-3" inkscape:connector-curvature="0" />
    <rect style="fill:#333333;fill-rule:evenodd;stroke-width:0.264583" id="rect924" width="22.867559" height="22.867559" x="63.131336" y="17.668367" rx="11.43378" ry="11.43378" />
    <rect style="fill:#e6e6e6;fill-rule:evenodd;stroke-width:0.264583" id="rect924-5" width="17.829731" height="17.829731" x="65.650246" y="20.187288" rx="11.43378" ry="11.43378" />
    <rect style="fill:#f9f9f9;fill-rule:evenodd;stroke-width:0.264583" id="rect924-5-4" width="6.0030541" height="6.0030541" x="74.670593" y="22.058168" rx="11.43378" ry="11.43378" />
    <rect style="fill:#333333;fill-rule:evenodd;stroke-width:0.264583" id="rect924-9" width="22.867559" height="22.867559" x="99.402657" y="17.668367" rx="11.43378" ry="11.43378" />
    <rect style="fill:#e6e6e6;fill-rule:evenodd;stroke-width:0.264583" id="rect924-5-6" width="17.829731" height="17.829731" x="101.92155" y="20.187288" rx="11.43378" ry="11.43378" />
    <rect style="fill:#f9f9f9;fill-rule:evenodd;stroke-width:0.264583" id="rect924-5-4-2" width="6.0030541" height="6.0030541" x="110.94192" y="22.058168" rx="11.43378" ry="11.43378" />
    <path style="fill:#333333;fill-opacity:1;fill-rule:evenodd;stroke-width:0.467845" d="m 99.934994,166.50002 4.712896,5.03156 c 4.11345,3.34709 9.21615,5.58676 14.32982,5.52781 l 1e-5,0 c 2.76368,0.008 5.53,-0.54344 7.99967,-1.68127 l 1e-5,0 c 2.01196,-0.91662 3.87008,-2.22396 5.49617,-3.78533 1.20331,-1.15888 2.27931,-2.45298 3.19847,-3.84751 0.0971,-0.14769 0.19195,-0.2953 0.2841,-0.44294 0.19291,-0.3091 0.56752,-0.46555 1.03922,-0.49032 0.3679,-0.0194 0.81837,0.0507 1.26319,0.20332 0.16486,0.0566 0.33426,0.12663 0.49956,0.20967 0.1669,0.0839 0.32095,0.17651 0.46423,0.2796 0.39218,0.28219 0.67587,0.6262 0.84141,0.99775 0.2053,0.46101 0.20611,0.94996 -0.0365,1.33914 -0.11472,0.18403 -0.23122,0.36534 -0.34918,0.54402 -1.11508,1.69201 -2.41711,3.25803 -3.87654,4.66326 -1.98236,1.9134 -4.28402,3.52286 -6.82681,4.69167 l 0,0 c -3.15554,1.43772 -6.59449,2.13476 -10.01755,2.11674 l 0,0 c -6.52414,-0.10877 -12.7099,-2.78501 -17.57903,-6.83755 l -4.895116,-5.21036 c -0.596974,-0.63542 -0.29884,-1.87616 0.668457,-2.78191 0.967314,-0.90577 2.208751,-1.14097 2.783503,-0.52735 z" id="rect977" inkscape:path-effect="#path-effect980" inkscape:original-d="m 98.510037,166.12575 h 39.026043 c 0.70672,0 1.27567,0.44151 1.27567,0.98994 0,0.54842 -0.56895,0.98993 -1.27567,0.98993 H 98.510037 c -0.706721,0 -1.27567,-0.44151 -1.27567,-0.98993 0,-0.54843 0.568949,-0.98994 1.27567,-0.98994 z" inkscape:connector-curvature="0" transform="matrix(0.56537418,-0.01356038,0.01356038,0.56537418,23.597448,-51.16345)" />
    <rect style="fill:#1a1a1a;fill-rule:evenodd;stroke-width:0.264583" id="rect1053" width="42.094952" height="88.332573" x="72.029129" y="82.248932" rx="1.2756701" ry="1.2756701" />
    <rect style="fill:#1a1a1a;fill-rule:evenodd;stroke-width:0.264583" id="rect1053-5-3" width="25.256971" height="52.999546" x="-57.709885" y="128.29172" rx="1.2756701" ry="1.2756701" transform="matrix(-0.8660254,0.5,0.5,0.8660254,0,0)" />
    <circle style="fill:#1a1a1a;fill-opacity:1;fill-rule:evenodd;stroke-width:0.264583" id="path1110" cx="73.631966" cy="85.078064" r="2.846633" />
    <circle style="fill:#1a1a1a;fill-opacity:1;fill-rule:evenodd;stroke-width:0.264583" id="path1110-1" cx="112.52258" cy="85.0952" r="2.8466332" />
    <path sodipodi:type="star" style="fill:#ffdd55;fill-opacity:1;fill-rule:evenodd;stroke-width:0.427467" id="path1280-8-5-3-3" sodipodi:sides="3" sodipodi:cx="-224.18712" sodipodi:cy="366.59488" sodipodi:r1="9.8564138" sodipodi:r2="4.9282069" sodipodi:arg1="1.5707963" sodipodi:arg2="2.6179939" inkscape:flatsided="true" inkscape:rounded="0" inkscape:randomized="0" d="m -224.18712,376.45129 -8.5359,-14.78462 17.07181,0 z" inkscape:transform-center-x="-0.47039427" inkscape:transform-center-y="1.006014" transform="matrix(0.36945304,0.21330382,-0.4490161,0.77771874,332.01826,-103.03084)" />
    <path sodipodi:type="star" style="fill:#ff7f2a;fill-opacity:1;fill-rule:evenodd;stroke-width:0.46827" id="path1280-8" sodipodi:sides="3" sodipodi:cx="-224.18712" sodipodi:cy="366.59488" sodipodi:r1="9.8564138" sodipodi:r2="4.9282069" sodipodi:arg1="1.5707963" sodipodi:arg2="2.6179939" inkscape:flatsided="true" inkscape:rounded="0" inkscape:randomized="0" d="m -224.18712,376.45129 -8.5359,-14.78462 17.07181,0 z" inkscape:transform-center-x="-0.65480771" inkscape:transform-center-y="0.686586" transform="matrix(0.36945304,0.21330382,-0.37417375,0.64808796,305.90697,-54.442108)" />
    <path sodipodi:type="star" style="fill:#ff6600;fill-opacity:1;fill-rule:evenodd;stroke-width:0.656799" id="path1280" sodipodi:sides="3" sodipodi:cx="-224.18712" sodipodi:cy="366.59488" sodipodi:r1="9.8564138" sodipodi:r2="4.9282069" sodipodi:arg1="1.5707963" sodipodi:arg2="2.6179939" inkscape:flatsided="true" inkscape:rounded="0" inkscape:randomized="0" d="m -224.18712,376.45129 -8.5359,-14.78462 17.07181,0 z" inkscape:transform-center-x="-0.46684766" inkscape:transform-center-y="0.4895011" transform="matrix(0.26340445,0.15207663,-0.26677011,0.46205938,242.09959,-4.0606726)" />
    <path sodipodi:type="star" style="fill:#ff9955;fill-opacity:1;fill-rule:evenodd;stroke-width:0.46827" id="path1280-8-5" sodipodi:sides="3" sodipodi:cx="-224.18712" sodipodi:cy="366.59488" sodipodi:r1="9.8564138" sodipodi:r2="4.9282069" sodipodi:arg1="1.5707963" sodipodi:arg2="2.6179939" inkscape:flatsided="true" inkscape:rounded="0" inkscape:randomized="0" d="m -224.18712,376.45129 -8.5359,-14.78462 17.07181,0 z" inkscape:transform-center-x="-0.65480925" inkscape:transform-center-y="0.6865901" transform="matrix(0.36945304,0.21330382,-0.37417375,0.64808796,307.84255,-55.20796)" />
    <path sodipodi:type="star" style="fill:#ffcc00;fill-opacity:1;fill-rule:evenodd;stroke-width:0.46827" id="path1280-8-5-3" sodipodi:sides="3" sodipodi:cx="-224.18712" sodipodi:cy="366.59488" sodipodi:r1="9.8564138" sodipodi:r2="4.9282069" sodipodi:arg1="1.5707963" sodipodi:arg2="2.6179939" inkscape:flatsided="true" inkscape:rounded="0" inkscape:randomized="0" d="m -224.18712,376.45129 -8.5359,-14.78462 17.07181,0 z" inkscape:transform-center-x="-0.65481577" inkscape:transform-center-y="0.68658614" transform="matrix(0.36945304,0.21330382,-0.37417375,0.64808796,307.54766,-58.232294)" />
    <rect style="fill:#999999;fill-opacity:1;fill-rule:evenodd;stroke-width:0.264583" id="rect1183-7" width="12.514199" height="6.8454018" x="135.75797" y="63.879639" rx="11.253211" ry="11.253211" transform="rotate(30)" />
    <path style="fill:#b3b3b3;fill-rule:evenodd;stroke-width:0.264583" d="m 90.643342,106.25093 c -0.0381,0.0641 -0.0761,0.12807 -0.11354,0.19289 l -4.33355,7.50595 c -3.46319,5.99841 -2.96073,12.72731 1.12659,15.08713 l 3.2667,1.88602 c 4.08732,2.35982 10.165948,-0.56949 13.629128,-6.56789 l 4.33356,-7.50595 c 0.0374,-0.0648 0.0738,-0.12979 0.11029,-0.19479 z" id="rect1147" inkscape:connector-curvature="0" />
    <path inkscape:connector-curvature="0" style="fill:#cccccc;fill-rule:evenodd;stroke-width:0.264583" d="m 92.698982,107.4377 c -0.0293,0.0496 -0.0588,0.0988 -0.0877,0.14889 l -3.34556,5.79468 c -2.67362,4.63085 -2.28572,9.82564 0.86975,11.64745 l 2.52192,1.45604 c 3.15547,1.8218 7.848238,-0.43965 10.521868,-5.0705 l 3.34556,-5.79468 c 0.0288,-0.05 0.057,-0.10017 0.0851,-0.15041 z" id="rect1147-4" />
    <path style="fill:#ff5555;fill-opacity:1;fill-rule:evenodd;stroke-width:0.264583" d="m 107.33043,98.154637 c -6.82679,0.75134 -12.444968,3.364643 -16.688698,8.095313 8.56866,5.96899 5.53865,4.21962 8.56866,5.96899 3.030058,1.74941 0,0 9.453768,4.43627 1.97502,-6.04054 1.42902,-12.2127 -1.33373,-18.500573 z" id="path1149" inkscape:connector-curvature="0" sodipodi:nodetypes="ccscc" />
    <rect style="fill:#999999;fill-opacity:1;fill-rule:evenodd;stroke-width:0.264583" id="rect1183" width="10.503491" height="10.503491" x="136.76332" y="48.678238" rx="34.253788" ry="34.253788" transform="rotate(30)" />
    <rect style="fill:#80b3ff;fill-rule:evenodd;stroke-width:0.264583" id="rect1183-6" width="8.2617197" height="8.2617197" x="137.8842" y="49.799118" rx="34.253788" ry="34.253788" transform="rotate(30)" />
    <path style="fill:#c83737;fill-opacity:1;fill-rule:evenodd;stroke-width:0.264583" d="m 106.5959,99.423127 c -5.59446,0.615713 -10.198478,2.757283 -13.676158,6.634013 7.0219,4.89151 4.53885,3.45791 7.0219,4.89151 2.483088,1.43361 0,0 7.747238,3.63545 1.6185,-4.95014 1.17106,-10.00814 -1.09298,-15.160973 z" id="path1149-6" inkscape:connector-curvature="0" sodipodi:nodetypes="ccscc" />
    <rect style="fill:#f2f2f2;fill-rule:evenodd;stroke-width:0.264583" id="rect1183-6-5" width="4.8475022" height="4.8475022" x="140.64807" y="50.61203" rx="34.253788" ry="34.253788" transform="rotate(30)" />
    <rect style="fill:#666666;fill-opacity:1;fill-rule:evenodd;stroke-width:0.264583" id="rect1442" width="25.858328" height="25.858328" x="147.20264" y="176.64287" rx="12.929164" ry="12.929164" />
    <rect style="fill:#808080;fill-opacity:1;fill-rule:evenodd;stroke-width:0.264583" id="rect1053-5-3-4-4" width="14.290032" height="67.087677" x="110.25606" y="83.541702" rx="1.2756701" ry="1.2756701" transform="rotate(30)" />
    <rect style="fill:#1a1a1a;fill-rule:evenodd;stroke-width:0.264583" id="rect1053-5-3-0" width="25.256971" height="52.999546" x="103.50352" y="35.215103" rx="1.2756701" ry="1.2756701" transform="rotate(30)" />
    <rect style="fill:#666666;fill-opacity:1;fill-rule:evenodd;stroke-width:0.264583" id="rect1442-5" width="25.858328" height="25.858328" x="-38.950573" y="176.64287" rx="12.929164" ry="12.929164" transform="scale(-1,1)" />
  </g>
</svg>
