<?xml version="1.0" encoding="UTF-8" standalone="no"?>
<!-- Created with Inkscape (http://www.inkscape.org/) -->

<svg width="293.99649mm" height="290.25473mm" viewBox="0 0 293.99649 290.25473" version="1.1" id="svg8" sodipodi:docname="великие иваны.svg" inkscape:version="1.3 (0e150ed6c4, 2023-07-21)" xmlns:inkscape="http://www.inkscape.org/namespaces/inkscape" xmlns:sodipodi="http://sodipodi.sourceforge.net/DTD/sodipodi-0.dtd" xmlns="http://www.w3.org/2000/svg" xmlns:svg="http://www.w3.org/2000/svg" xmlns:rdf="http://www.w3.org/1999/02/22-rdf-syntax-ns#" xmlns:cc="http://creativecommons.org/ns#" xmlns:dc="http://purl.org/dc/elements/1.1/">
  <defs id="defs2" />
  <sodipodi:namedview id="base" pagecolor="#ffffff" bordercolor="#666666" borderopacity="1.0" inkscape:pageopacity="0.0" inkscape:pageshadow="2" inkscape:zoom="0.35" inkscape:cx="962.85714" inkscape:cy="562.85714" inkscape:document-units="mm" inkscape:current-layer="layer1" showgrid="false" inkscape:window-width="2467" inkscape:window-height="1413" inkscape:window-x="84" inkscape:window-y="-9" inkscape:window-maximized="1" inkscape:showpageshadow="2" inkscape:pagecheckerboard="0" inkscape:deskcolor="#d1d1d1" />
  <metadata id="metadata5">
    <rdf:RDF>
      <cc:Work rdf:about="">
        <dc:format>image/svg+xml</dc:format>
        <dc:type rdf:resource="http://purl.org/dc/dcmitype/StillImage" />
        <dc:title />
      </cc:Work>
    </rdf:RDF>
  </metadata>
  <g inkscape:label="Layer 1" inkscape:groupmode="layer" id="layer1" transform="translate(36.883194,20.516199)">
    <rect style="fill:#cccccc;fill-opacity:1;fill-rule:evenodd;stroke-width:0.264583" id="rect231" width="293.99649" height="290.25473" x="-36.883194" y="-20.516199" inkscape:export-filename="C:\Users\Ivan\Desktop\инкскейеп\i1.png" inkscape:export-xdpi="96" inkscape:export-ydpi="96" />
    <path sodipodi:type="star" style="fill:#999999;fill-opacity:1;fill-rule:evenodd;stroke-width:0.264583" id="path229" sodipodi:sides="8" sodipodi:cx="110.38232" sodipodi:cy="124.61115" sodipodi:r1="151.30676" sodipodi:r2="131.03549" sodipodi:arg1="1.0471976" sodipodi:arg2="1.4398967" inkscape:flatsided="true" inkscape:rounded="0.01" inkscape:randomized="0" d="m 186.03569,255.64666 c -1.0029,0.57902 -113.69586,15.41533 -114.814452,15.1156 -1.118593,-0.29973 -91.295399,-69.49483 -91.874425,-70.49773 -0.579026,-1.0029 -15.41533,-113.695864 -15.115604,-114.814456 0.299726,-1.118592 69.49483,-91.2953994 70.497733,-91.8744253 C 35.731844,-7.0033772 148.4248,-21.839681 149.5434,-21.539955 c 1.11859,0.299726 91.29539,69.49483 91.87442,70.497733 0.57903,1.002902 15.41533,113.695862 15.1156,114.814452 -0.29972,1.11859 -69.49483,91.2954 -70.49773,91.87443 z" inkscape:transform-center-y="-3.5971985e-06" inkscape:export-filename="C:\Users\Ivan\Desktop\инкскейеп\i1.png" inkscape:export-xdpi="96" inkscape:export-ydpi="96" />
    <path sodipodi:type="star" style="fill:#4d4d4d;fill-opacity:1;fill-rule:evenodd;stroke-width:0.264583" id="path227" sodipodi:sides="6" sodipodi:cx="109.1796" sodipodi:cy="127.41747" sodipodi:r1="128.53062" sodipodi:r2="64.26532" sodipodi:arg1="-1.3089969" sodipodi:arg2="-0.78539812" inkscape:flatsided="true" inkscape:rounded="0.01" inkscape:randomized="0" d="m 142.44578,3.2664246 c 1.24151,0.3326618 90.55221,89.6433694 90.88487,90.8848794 0.33267,1.241511 -32.35733,123.242196 -33.26617,124.151046 -0.90885,0.90885 -122.909544,33.59883 -124.151055,33.26617 -1.24151,-0.33266 -90.552211,-89.64337 -90.884872,-90.88488 C -15.304109,159.44213 17.385882,37.441442 18.294731,36.532593 19.20358,35.623744 141.20427,2.9337628 142.44578,3.2664246 Z" inkscape:transform-center-x="16.617899" inkscape:transform-center-y="-16.61791" inkscape:export-filename="C:\Users\Ivan\Desktop\инкскейеп\i1.png" inkscape:export-xdpi="96" inkscape:export-ydpi="96" />
    <g id="g64" transform="matrix(1.2468948,0,0,1.2468948,-21.347647,-31.984706)" style="stroke-width:0.801992" inkscape:export-filename="C:\Users\Ivan\Desktop\инкскейеп\i1.png" inkscape:export-xdpi="96" inkscape:export-ydpi="96">
      <path transform="matrix(-1,0,0,0.58877515,185.41658,62.638431)" inkscape:transform-center-x="-11.828326" d="m -15.795475,130.22381 c 0,-0.83835 71.877499,-42.336839 72.603535,-41.917662 0.726035,0.419177 0.726031,83.416162 -4e-6,83.835342 -0.726036,0.41917 -72.603531,-41.07932 -72.603531,-41.91768 z" inkscape:randomized="0" inkscape:rounded="0.01" inkscape:flatsided="true" sodipodi:arg2="4.1887902" sodipodi:arg1="3.1415927" sodipodi:r2="24.201178" sodipodi:r1="48.402355" sodipodi:cy="130.22382" sodipodi:cx="32.60688" sodipodi:sides="3" id="path208-9" style="fill:#ffe680;fill-opacity:1;fill-rule:evenodd;stroke-width:0.27654" sodipodi:type="star" />
      <path transform="matrix(1,0,0,0.58877515,22.153251,65.531868)" inkscape:transform-center-x="11.828326" d="m -15.795475,130.22381 c 0,-0.83835 71.877499,-42.336839 72.603535,-41.917662 0.726035,0.419177 0.726031,83.416162 -4e-6,83.835342 -0.726036,0.41917 -72.603531,-41.07932 -72.603531,-41.91768 z" inkscape:randomized="0" inkscape:rounded="0.01" inkscape:flatsided="true" sodipodi:arg2="4.1887902" sodipodi:arg1="3.1415927" sodipodi:r2="24.201178" sodipodi:r1="48.402355" sodipodi:cy="130.22382" sodipodi:cx="32.60688" sodipodi:sides="3" id="path208" style="fill:#ffe680;fill-opacity:1;fill-rule:evenodd;stroke-width:0.27654" sodipodi:type="star" />
      <rect y="174.72418" x="66.282845" height="23.051996" width="78.176338" id="rect204" style="fill:#c83737;fill-opacity:1;fill-rule:evenodd;stroke-width:0.212194" />
      <g style="stroke-width:1.13501" transform="matrix(0.70659396,0,0,0.70659396,13.947488,30.020226)" id="g202">
        <rect style="fill:#1c1f24;fill-opacity:1;fill-rule:evenodd;stroke-width:0.300305" id="rect193" width="90.336304" height="16.252975" x="48.771912" y="80.431374" transform="rotate(-15)" />
        <rect style="fill:#1c1f24;fill-opacity:1;fill-rule:evenodd;stroke-width:0.300305" id="rect195" width="68.791664" height="34.962795" x="60.678162" y="52.08316" transform="rotate(-15)" />
        <rect style="fill:#d5d5ff;fill-opacity:1;fill-rule:evenodd;stroke-width:0.300305" id="rect197" width="70.492561" height="9.8273811" x="59.922211" y="68.903099" transform="rotate(-15)" />
      </g>
      <path inkscape:transform-center-x="3.1534104" transform="matrix(-0.38956189,-0.28836255,-0.46406035,0.62691992,221.38028,59.888358)" inkscape:transform-center-y="-1.9079354" d="m 75.595239,19.747009 c 1.037788,0 52.408261,88.976271 51.889361,89.875021 -0.51889,0.89875 -103.259836,0.89875 -103.77873,0 -0.518893,-0.89875 50.851582,-89.875021 51.889369,-89.875021 z" inkscape:randomized="0" inkscape:rounded="0.01" inkscape:flatsided="true" sodipodi:arg2="-0.52359878" sodipodi:arg1="-1.5707963" sodipodi:r2="29.95834" sodipodi:r1="59.916679" sodipodi:cy="79.663689" sodipodi:cx="75.595238" sodipodi:sides="3" id="path59-1" style="fill:#ffe680;fill-opacity:1;fill-rule:evenodd;stroke-width:0.345114" sodipodi:type="star" />
      <path sodipodi:nodetypes="scss" inkscape:connector-curvature="0" id="path59-5-1" d="m 178.81024,61.312625 c -0.32577,-0.241139 -32.21636,40.921875 -32.38955,41.496465 -0.17319,0.57459 14.57152,16.29568 15.07047,15.96224 0.49896,-0.33345 17.64484,-57.217565 17.31908,-57.458705 z" inkscape:transform-center-y="-1.5373929" inkscape:transform-center-x="2.5409849" style="fill:#aa8800;fill-opacity:1;fill-rule:evenodd;stroke-width:0.212194" />
      <path id="path138-66-7" d="m 109.17414,108.81536 a 22.375924,22.375924 0 0 0 15.79917,-18.575567 c 22.37095,-9.005455 55.73035,-22.626761 55.70245,-22.848819 -0.0415,-0.330826 -78.8646,-2.739473 -79.61925,-2.432977 -0.0228,0.0085 -0.041,0.0488 -0.0553,0.113829 a 22.375924,22.375924 0 0 0 -4.577643,0.846491 22.375924,22.375924 0 0 0 -15.073849,27.82333 22.375924,22.375924 0 0 0 27.824142,15.073593 z" style="fill:#554400;fill-rule:evenodd;stroke-width:0.212194" inkscape:connector-curvature="0" />
      <path id="path138-66" d="m 116.66612,113.16699 a 22.375924,22.375924 0 0 0 8.30719,-22.927197 c 17.81029,-16.25888 44.30158,-40.684297 44.1978,-40.882584 -0.15455,-0.295436 -74.844763,25.007793 -75.444624,25.558803 -0.01837,0.0159 -0.02127,0.06004 -0.012,0.125975 a 22.375924,22.375924 0 0 0 -3.992755,2.393597 22.375924,22.375924 0 0 0 -4.394235,31.337666 22.375924,22.375924 0 0 0 31.338334,4.39372 z" style="fill:#554400;fill-rule:evenodd;stroke-width:0.212194" inkscape:connector-curvature="0" />
      <path inkscape:transform-center-x="3.5442938" transform="matrix(0.68152857,0.14492491,-0.14492491,0.68152857,24.95891,41.177074)" inkscape:transform-center-y="-2.6251501" d="m 29.568934,191.33782 c -0.634725,-0.71537 29.279269,-90.54503 30.216155,-90.73703 0.936887,-0.19201 63.774661,70.6291 63.472501,71.53647 -0.30216,0.90737 -93.053931,19.91592 -93.688656,19.20056 z" inkscape:randomized="0" inkscape:rounded="0.01" inkscape:flatsided="true" sodipodi:arg2="3.4630504" sodipodi:arg1="2.4158528" sodipodi:r2="5.8085485" sodipodi:r1="55.215412" sodipodi:cy="154.69196" sodipodi:cx="70.870537" sodipodi:sides="3" id="path10" style="fill:#ffe680;fill-opacity:1;fill-rule:evenodd;stroke-width:0.30454" sodipodi:type="star" />
      <path sodipodi:nodetypes="ccccc" inkscape:connector-curvature="0" id="rect12" d="M 50.902647,90.900138 143.3322,89.697425 c 29.29491,43.446795 13.70932,59.189575 17.37252,86.814325 H 50.902647 Z" style="fill:#ffe680;fill-opacity:1;fill-rule:evenodd;stroke-width:0.212194" />
      <path inkscape:transform-center-x="-3.544294" transform="matrix(-0.68152857,0.14492491,0.14492491,0.68152857,185.31042,40.697872)" inkscape:transform-center-y="-2.6251501" d="m 29.568934,191.33782 c -0.634725,-0.71537 29.279269,-90.54503 30.216155,-90.73703 0.936887,-0.19201 63.774661,70.6291 63.472501,71.53647 -0.30216,0.90737 -93.053931,19.91592 -93.688656,19.20056 z" inkscape:randomized="0" inkscape:rounded="0.01" inkscape:flatsided="true" sodipodi:arg2="3.4630504" sodipodi:arg1="2.4158528" sodipodi:r2="5.8085485" sodipodi:r1="55.215412" sodipodi:cy="154.69196" sodipodi:cx="70.870537" sodipodi:sides="3" id="path10-2" style="fill:#ffe680;fill-opacity:1;fill-rule:evenodd;stroke-width:0.30454" sodipodi:type="star" />
      <path inkscape:transform-center-x="9.7673717" transform="matrix(-0.65412439,-0.24001189,-0.24001189,0.65412439,226.89924,85.656738)" inkscape:transform-center-y="8.0984581" d="m 29.568934,191.33782 c -0.634725,-0.71537 29.279269,-90.54503 30.216155,-90.73703 0.936887,-0.19201 63.774661,70.6291 63.472501,71.53647 -0.30216,0.90737 -93.053931,19.91592 -93.688656,19.20056 z" inkscape:randomized="0" inkscape:rounded="0.01" inkscape:flatsided="true" sodipodi:arg2="3.4630504" sodipodi:arg1="2.4158528" sodipodi:r2="5.8085485" sodipodi:r1="55.215412" sodipodi:cy="154.69196" sodipodi:cx="70.870537" sodipodi:sides="3" id="path10-2-7" style="fill:#ffe680;fill-opacity:1;fill-rule:evenodd;stroke-width:0.30454" sodipodi:type="star" />
      <path inkscape:transform-center-x="-9.7673713" transform="matrix(0.6541244,-0.24001189,0.24001189,0.6541244,-15.305389,85.516461)" inkscape:transform-center-y="8.0984581" d="m 29.568934,191.33782 c -0.634725,-0.71537 29.279269,-90.54503 30.216155,-90.73703 0.936887,-0.19201 63.774661,70.6291 63.472501,71.53647 -0.30216,0.90737 -93.053931,19.91592 -93.688656,19.20056 z" inkscape:randomized="0" inkscape:rounded="0.01" inkscape:flatsided="true" sodipodi:arg2="3.4630504" sodipodi:arg1="2.4158528" sodipodi:r2="5.8085485" sodipodi:r1="55.215412" sodipodi:cy="154.69196" sodipodi:cx="70.870537" sodipodi:sides="3" id="path10-2-7-3" style="fill:#ffe680;fill-opacity:1;fill-rule:evenodd;stroke-width:0.30454" sodipodi:type="star" />
      <path inkscape:transform-center-x="-3.1534083" transform="matrix(0.38956189,-0.28836255,0.46406035,0.62691991,-5.242148,60.890052)" inkscape:transform-center-y="-1.9079354" d="m 75.595239,19.747009 c 1.037788,0 52.408261,88.976271 51.889361,89.875021 -0.51889,0.89875 -103.259836,0.89875 -103.77873,0 -0.518893,-0.89875 50.851582,-89.875021 51.889369,-89.875021 z" inkscape:randomized="0" inkscape:rounded="0.01" inkscape:flatsided="true" sodipodi:arg2="-0.52359878" sodipodi:arg1="-1.5707963" sodipodi:r2="29.95834" sodipodi:r1="59.916679" sodipodi:cy="79.663689" sodipodi:cx="75.595238" sodipodi:sides="3" id="path59" style="fill:#ffe680;fill-opacity:1;fill-rule:evenodd;stroke-width:0.345114" sodipodi:type="star" />
      <path inkscape:transform-center-x="-2.5409808" transform="matrix(0.31390462,-0.23235932,0.37393465,0.50516507,6.2141101,69.904079)" inkscape:transform-center-y="-1.5373929" d="m 75.595239,19.747009 c 1.037788,0 52.408261,88.976271 51.889361,89.875021 -0.51889,0.89875 -103.259836,0.89875 -103.77873,0 -0.518893,-0.89875 50.851582,-89.875021 51.889369,-89.875021 z" inkscape:randomized="0" inkscape:rounded="0.01" inkscape:flatsided="true" sodipodi:arg2="-0.52359878" sodipodi:arg1="-1.5707963" sodipodi:r2="29.95834" sodipodi:r1="59.916679" sodipodi:cy="79.663689" sodipodi:cx="75.595238" sodipodi:sides="3" id="path59-5" style="fill:#aa8800;fill-opacity:1;fill-rule:evenodd;stroke-width:0.428294" sodipodi:type="star" />
      <path inkscape:connector-curvature="0" id="rect96" d="m 82.88866,113.93169 c -0.414433,0 -19.449796,6.20514 -22.020877,7.16029 h -0.29869 v 0.12247 c -0.0021,0.002 -0.01564,0.008 -0.01344,0.009 1.9e-4,7e-5 0.01318,-6e-5 0.01344,0 v 14.62547 c -3.31e-4,7e-5 -0.0163,-8e-5 -0.01654,0 -0.0027,8.7e-4 0.01283,0.007 0.01654,0.0103 v 0.0661 h 0.150378 c 1.968267,0.76541 21.744297,7.21455 22.166606,7.21455 0.422318,0 20.199093,-6.44938 22.166603,-7.21455 h 0.15038 v -0.0661 c 0.004,-0.003 0.0192,-0.009 0.0165,-0.0103 -2.3e-4,-8e-5 -0.0162,7e-5 -0.0165,0 v -14.62547 c 4e-4,-8e-5 0.0189,9e-5 0.0191,0 0.003,-0.001 -0.0136,-0.009 -0.0191,-0.0124 v -0.11885 h -0.29301 c -2.57108,-0.95515 -21.606955,-7.16029 -22.02139,-7.16029 z" style="fill:#00aa00;fill-opacity:1;fill-rule:evenodd;stroke-width:0.212194" />
      <rect y="118.01834" x="88.765907" height="21.247927" width="5.8799295" id="rect98" style="fill:#2d5016;fill-opacity:1;fill-rule:evenodd;stroke-width:0.212194" />
      <path id="rect96-6" d="m 132.83024,113.81025 c -0.41443,0 -19.4498,6.20513 -22.02088,7.16028 h -0.29869 v 0.12248 c -0.002,0.002 -0.0156,0.008 -0.0134,0.009 1.9e-4,6e-5 0.0132,-7e-5 0.0134,0 v 14.62547 c -2.6e-4,7e-5 -0.0163,-8e-5 -0.0165,0 -0.003,7.9e-4 0.0128,0.007 0.0165,0.0104 v 0.0661 h 0.15038 c 1.96827,0.7654 21.7443,7.21454 22.16661,7.21454 0.42231,0 20.19909,-6.44937 22.1666,-7.21454 h 0.15038 v -0.0661 c 0.004,-0.003 0.0192,-0.01 0.0165,-0.0104 -2.4e-4,-8e-5 -0.0162,7e-5 -0.0165,0 v -14.62547 c 5.3e-4,-9e-5 0.0188,9e-5 0.0191,0 0.003,-0.001 -0.0136,-0.009 -0.0191,-0.0124 v -0.11886 h -0.29301 c -2.57108,-0.95514 -21.60696,-7.16028 -22.02139,-7.16028 z" style="fill:#00aa00;fill-opacity:1;fill-rule:evenodd;stroke-width:0.212194" inkscape:connector-curvature="0" />
      <rect y="117.89689" x="138.7075" height="21.247929" width="5.8799295" id="rect98-0" style="fill:#2d5016;fill-opacity:1;fill-rule:evenodd;stroke-width:0.212194" />
      <path inkscape:connector-curvature="0" id="path138" d="m 96.968348,142.30478 a 13.843378,13.843378 0 0 0 -12.643672,8.23102 c -14.854037,1.39726 -37.038187,3.59496 -37.060788,3.73156 -0.03367,0.20351 46.28629,15.52582 46.787842,15.47709 0.01497,-0.001 0.03287,-0.0217 0.05271,-0.0579 a 13.843378,13.843378 0 0 0 2.863908,0.3049 13.843378,13.843378 0 0 0 13.843602,-13.84309 13.843378,13.843378 0 0 0 -13.843602,-13.8436 z" style="fill:#554400;fill-rule:evenodd;stroke-width:0.212194" />
      <circle transform="scale(-1,1)" r="13.843378" cy="156.38451" cx="-117.63867" id="path138-6" style="fill:#554400;fill-rule:evenodd;stroke-width:0.212194" />
      <path transform="matrix(-0.03666632,-0.36379094,-0.99495912,0.10028148,345.35751,167.05021)" inkscape:transform-center-y="1.765604" inkscape:transform-center-x="-7.2143778" d="m 82.965776,175.85861 c 0.56302,0.0131 27.309904,48.93256 27.017054,49.4136 -0.29285,0.48105 -56.031791,-0.81521 -56.301962,-1.30935 -0.270171,-0.49413 28.721889,-48.11734 29.284908,-48.10425 z" inkscape:randomized="0" inkscape:rounded="0.01" inkscape:flatsided="true" sodipodi:arg2="-0.50034715" sodipodi:arg1="-1.5475447" sodipodi:r2="16.257372" sodipodi:r1="32.51474" sodipodi:cy="208.36456" sodipodi:cx="82.209824" sodipodi:sides="3" id="path140-0" style="fill:#554400;fill-opacity:1;fill-rule:evenodd;stroke-width:0.350921" sodipodi:type="star" />
      <circle r="14.365737" cy="193.12387" cx="111.11929" id="path206" style="fill:#ffcc00;fill-rule:evenodd;stroke-width:0.212194" />
      <path transform="matrix(1.2167057,0,0,0.69406101,-22.031411,47.868185)" inkscape:transform-center-y="1.2378367" d="m 107.00804,147.47769 c -0.12641,0 -6.38354,-10.83767 -6.32034,-10.94714 0.0632,-0.10947 12.57748,-0.10947 12.64068,0 0.0632,0.10947 -6.19393,10.94714 -6.32034,10.94714 z" inkscape:randomized="0" inkscape:rounded="0.01" inkscape:flatsided="true" sodipodi:arg2="2.6179939" sodipodi:arg1="1.5707963" sodipodi:r2="3.649049" sodipodi:r1="7.2980981" sodipodi:cy="140.1796" sodipodi:cx="107.00804" sodipodi:sides="3" id="path225" style="fill:#de8787;fill-opacity:1;fill-rule:evenodd;stroke-width:0.230909" sodipodi:type="star" />
    </g>
  </g>
</svg>
